<svg width="49" height="49" viewBox="0 0 49 49" fill="none" xmlns="http://www.w3.org/2000/svg">
<path fill-rule="evenodd" clip-rule="evenodd" d="M13.5422 21.5722L13.2222 21.3588V9.25995L4.96139 6.50635L24.4803 0L35.089 3.53631L34.6344 4.89974L24.4803 1.51501L9.50624 6.50635L24.4803 11.4977L39.4545 6.50625L35.9979 5.35409L36.4524 3.99066L43.9993 6.50635L41.4873 7.34367V14.6072C42.5919 14.9209 43.4036 15.938 43.4036 17.1417V20.7347H38.1339V17.1417C38.1339 15.938 38.9456 14.9209 40.0501 14.6072V7.82274L35.7385 9.25995V21.3588L35.4185 21.5722C35.2937 21.6553 32.2735 23.6092 24.4803 23.6092C16.6872 23.6092 13.667 21.6553 13.5422 21.5722ZM41.9664 19.2975V17.1417C41.9664 16.4813 41.4292 15.944 40.7687 15.944C40.1083 15.944 39.5711 16.4813 39.5711 17.1417V19.2975H41.9664ZM24.4803 13.0127L14.6594 9.73902V20.5475C15.5809 20.9963 18.5608 22.172 24.4803 22.172C30.3954 22.172 33.3752 20.9981 34.3013 20.5471V19.6808H31.1873V18.2436H34.3013V16.8064H32.5287V15.3692H34.3013V9.73902L24.4803 13.0127ZM48.961 39.4186V35.1069H44.3619V32.2325H42.8289V29.8372H44.3619V25.5255H32.8984V26.9627H42.9247V28.4H13.188V29.8372H41.3916V32.2325H10.1083C9.44784 32.2325 8.91061 31.6953 8.91061 31.0348C8.91061 30.3744 9.44784 29.8372 10.1083 29.8372H11.7508V28.4H10.1083C8.65546 28.4 7.4734 29.5819 7.4734 31.0348C7.4734 32.4878 8.65546 33.6697 10.1083 33.6697H42.9246V35.1069H18.1567V36.5442H47.5237V37.9814H6.94642C4.70102 37.9814 2.87433 39.8081 2.87433 42.0535C2.87433 44.2989 4.70102 46.1256 6.94642 46.1256H40.7961V44.6884H6.94652C5.4936 44.6884 4.31163 43.5064 4.31163 42.0535C4.31163 40.6005 5.4936 39.4186 6.94652 39.4186H45.9908V41.8139H14.1326V43.2511H45.9908V44.6884H42.2334V46.1256H47.5238V47.5628H6.94652C3.90864 47.5628 1.43721 45.0914 1.43721 42.0535C1.43721 39.0156 3.90864 36.5442 6.94652 36.5442H16.7196V35.1069H10.1084C7.86298 35.1069 6.03629 33.2803 6.03629 31.0348C6.03629 28.7894 7.86298 26.9627 10.1084 26.9627H31.4612V25.5255H10.1084C7.0705 25.5255 4.59908 27.997 4.59908 31.0348C4.59908 32.6581 5.30513 34.1193 6.42587 35.1285C2.83801 35.3959 0 38.3985 0 42.0535C0 45.8838 3.11616 49 6.94652 49H48.961V44.6884H47.428V39.4186H48.961ZM11.2581 41.8139H12.6953V43.2511H11.2581V41.8139ZM8.38377 41.8139H9.82097V43.2511H8.38377V41.8139ZM29.7503 18.2435H28.3131V19.6807H29.7503V18.2435Z" fill="white"/>
</svg>
