<svg xmlns="http://www.w3.org/2000/svg" width="72" height="72" fill="none" viewBox="0 0 72 72"><path fill="#041E42" d="M71.9713 57.9213V51.5858H65.2134V47.3622H62.9608V43.8425H65.2134V37.507H48.3691V39.6188H63.1016V41.7306H19.4068V43.8425H60.8489V47.3622H14.8815C13.911 47.3622 13.1216 46.5728 13.1216 45.6023C13.1216 44.6319 13.911 43.8425 14.8815 43.8425H17.295V41.7306H14.8815C12.7467 41.7306 11.0098 43.4674 11.0098 45.6023C11.0098 47.7372 12.7467 49.474 14.8815 49.474H63.1015V51.5858H26.7077V53.6977H69.8593V55.8095H10.2355C6.93608 55.8095 4.25195 58.4936 4.25195 61.793C4.25195 65.0924 6.93608 67.7765 10.2355 67.7765H59.9739V65.6647H10.2356C8.10068 65.6647 6.36392 63.9279 6.36392 61.793C6.36392 59.6581 8.10068 57.9213 10.2356 57.9213H67.6068V61.441H20.7947V63.5528H67.6068V65.6647H62.0858V67.7765H69.8595V69.8883H10.2356C5.77176 69.8883 2.14027 66.2568 2.14027 61.793C2.14027 57.3292 5.77176 53.6977 10.2356 53.6977H24.596V51.5858H14.8816C11.5822 51.5858 8.89811 48.9017 8.89811 45.6023C8.89811 42.3029 11.5822 39.6188 14.8816 39.6188H46.2573V37.507H14.8816C10.4178 37.507 6.78628 41.1385 6.78628 45.6023C6.78628 47.9876 7.82375 50.1346 9.47055 51.6175C4.19859 52.0104 0.0284424 56.4223 0.0284424 61.793C0.0284424 67.4213 4.6073 72.0001 10.2356 72.0001H71.9713V65.6647H69.7187V57.9213H71.9713Z"/><path fill="#041E42" d="M16.5709 61.4409H18.6827V63.5527H16.5709V61.4409Z"/><path fill="#041E42" d="M19.457 31.3844L19.9272 31.6979C20.1105 31.8201 24.5484 34.6911 35.9996 34.6911C47.4507 34.6911 51.8887 31.8201 52.072 31.6979L52.5422 31.3844V13.6065L58.8777 11.4947V21.4637C57.2547 21.9247 56.0619 23.4192 56.0619 25.1879V30.4674H63.8053V25.1879C63.8053 23.4192 62.6125 21.9247 60.9895 21.4637V10.7907L64.6806 9.56037L53.5912 5.86383L52.9233 7.86725L58.0024 9.56023L35.9996 16.8946L13.9968 9.56037L35.9996 2.22615L50.9199 7.19963L51.5878 5.19622L35.9996 0L7.3186 9.56037L19.457 13.6065V31.3844ZM61.6935 25.1879V28.3556H58.1737V25.1879C58.1737 24.2174 58.9631 23.428 59.9336 23.428C60.9041 23.428 61.6935 24.2174 61.6935 25.1879ZM21.5688 14.3104L35.9996 19.1207L50.4304 14.3104V22.5833H47.8258V24.6951H50.4304V26.8069H45.8548V28.9188H50.4304V30.1918C49.0695 30.8545 44.6912 32.5793 35.9996 32.5793C27.3014 32.5793 22.9229 30.8518 21.5688 30.1923V14.3104Z"/><path fill="#041E42" d="M12.3475 61.4409H14.4594V63.5527H12.3475V61.4409Z"/><path fill="#041E42" d="M41.6315 26.8069H43.7433V28.9187H41.6315V26.8069Z"/></svg>