<svg width="50" height="50" viewBox="0 0 50 50" fill="none" xmlns="http://www.w3.org/2000/svg">
<path fill-rule="evenodd" clip-rule="evenodd" d="M38.1947 44.973C38.1947 44.5723 38.5195 44.2474 38.9203 44.2474C39.3211 44.2474 39.6459 44.5723 39.6459 44.973V45.9502C39.6459 47.9298 38.0353 49.5404 36.0556 49.5404H3.95473C1.97505 49.5404 0.364502 47.9299 0.364502 45.9502V11.072C0.364502 10.1129 0.737894 9.21133 1.41598 8.53325L8.89765 1.05157C9.57574 0.373489 10.4774 0 11.4364 0H36.0556C38.0353 0 39.6459 1.61065 39.6458 3.59023V13.2509C39.6458 13.6516 39.321 13.9765 38.9202 13.9765C38.5194 13.9765 38.1946 13.6517 38.1946 13.2509V3.59033C38.1946 2.41084 37.235 1.45128 36.0555 1.45128H11.4363C11.2793 1.45128 11.1253 1.46967 10.9754 1.50247V8.10935C10.9754 9.48874 9.85324 10.6109 8.47385 10.6109H1.86687C1.83407 10.7608 1.81569 10.9149 1.81569 11.0719V45.9501C1.81569 47.1296 2.77534 48.0892 3.95473 48.0892H36.0556C37.2352 48.0892 38.1947 47.1295 38.1947 45.9501V44.973ZM9.52426 8.10935V2.47741L2.84191 9.15976H8.47385C9.05304 9.15976 9.52426 8.68854 9.52426 8.10935ZM33.4946 8.98432V6.62979C33.4946 5.73284 32.765 5.00308 31.8679 5.00308H16.9703C16.0733 5.00308 15.3437 5.73284 15.3437 6.62979V8.98432C15.3437 9.88127 16.0733 10.6109 16.9703 10.6109H18.2283C18.6291 10.6109 18.9539 10.286 18.9539 9.88533C18.9539 9.48456 18.6291 9.15974 18.2283 9.15974H16.9703C16.8736 9.15974 16.7949 9.08107 16.7949 8.98441V6.62979C16.7949 6.53313 16.8736 6.45437 16.9703 6.45437H31.8679C31.9647 6.45437 32.0433 6.53303 32.0433 6.62979V8.98432C32.0433 9.08098 31.9647 9.15964 31.8679 9.15964H21.6207C21.2199 9.15964 20.8951 9.48456 20.8951 9.88524C20.8951 10.286 21.2199 10.6108 21.6207 10.6108H31.868C32.765 10.611 33.4946 9.88127 33.4946 8.98432ZM25.1326 17.5623H6.55652C6.15575 17.5623 5.83093 17.8872 5.83093 18.2879C5.83093 18.6887 6.15575 19.0135 6.55652 19.0135H25.1327C25.5335 19.0135 25.8583 18.6886 25.8583 18.2879C25.8583 17.8872 25.5335 17.5623 25.1326 17.5623ZM25.1326 22.6611H6.55652C6.15575 22.6611 5.83093 22.986 5.83093 23.3867C5.83093 23.7873 6.15575 24.1122 6.55652 24.1122H25.1327C25.5335 24.1122 25.8583 23.7873 25.8583 23.3867C25.8583 22.986 25.5335 22.6611 25.1326 22.6611ZM6.55652 27.7598H25.1326C25.5335 27.7598 25.8583 28.0847 25.8583 28.4854C25.8583 28.8861 25.5335 29.211 25.1327 29.211H6.55652C6.15575 29.211 5.83093 28.8861 5.83093 28.4854C5.83093 28.0847 6.15575 27.7598 6.55652 27.7598ZM25.8583 33.5843C25.8583 33.1835 25.5335 32.8587 25.1327 32.8587H6.55652C6.15575 32.8587 5.83093 33.1836 5.83093 33.5843C5.83093 33.9849 6.15575 34.3099 6.55652 34.3099H25.1327C25.5335 34.3099 25.8583 33.985 25.8583 33.5843ZM5.83093 41.0566C5.83093 40.656 6.15575 40.331 6.55652 40.331H15.8684C16.2692 40.331 16.594 40.656 16.594 41.0566C16.594 41.4573 16.2692 41.7822 15.8684 41.7822H6.55652C6.15575 41.7822 5.83093 41.4573 5.83093 41.0566ZM48.8588 25.9313C49.3682 25.1836 49.5 24.2614 49.2204 23.401C48.9409 22.5406 48.2921 21.872 47.4406 21.5667C46.8758 21.3641 46.4989 20.8454 46.4809 20.2455C46.4535 19.3413 46.018 18.5177 45.286 17.9859C44.5542 17.4542 43.6362 17.2947 42.7681 17.548C42.1916 17.7162 41.5823 17.518 41.215 17.0434C40.6614 16.3279 39.8251 15.9175 38.9204 15.9175C38.0158 15.9175 37.1793 16.3279 36.6256 17.0434C36.2583 17.5181 35.6487 17.716 35.0727 17.548C34.2044 17.2945 33.2865 17.4542 32.5545 17.9859C31.8226 18.5177 31.3873 19.3412 31.3598 20.2454C31.3417 20.8453 30.965 21.3639 30.4 21.5666C29.5485 21.8719 28.8997 22.5406 28.6203 23.4009C28.3408 24.2613 28.4726 25.1836 28.9819 25.9312C29.3198 26.4272 29.3198 27.0682 28.9819 27.5642C28.4726 28.3118 28.3408 29.234 28.6203 30.0944C28.8997 30.9548 29.5485 31.6234 30.4 31.9288C30.965 32.1316 31.3418 32.6501 31.3598 33.25C31.3851 34.0817 31.7662 34.8632 32.4058 35.394C32.8278 35.7442 33.3347 35.9634 33.8652 36.0366V42.6431C33.8652 43.2006 34.1676 43.7158 34.6542 43.9876C35.1402 44.2592 35.7377 44.2471 36.2127 43.9546L38.874 42.3163C38.9174 42.2895 38.9432 42.3016 38.9671 42.3163L41.6282 43.9546C42.103 44.2468 42.7003 44.2594 43.1868 43.9875C43.6735 43.7156 43.9758 43.2004 43.9758 42.643V36.0364C44.5061 35.9633 45.0131 35.7441 45.435 35.394C46.0747 34.8632 46.4559 34.0818 46.4812 33.2499C46.4992 32.65 46.876 32.1314 47.4409 31.9287C48.2925 31.6234 48.9413 30.9547 49.2207 30.0943C49.5002 29.2339 49.3685 28.3117 48.8591 27.5641C48.5208 27.0683 48.5208 26.4273 48.8588 25.9313ZM42.3889 42.7188L39.7276 41.0805C39.2329 40.776 38.6082 40.7755 38.113 41.0805L35.4518 42.7187C35.3912 42.7556 35.3164 42.7131 35.3164 42.643V35.8989C35.8153 35.8411 36.3099 36.0441 36.6256 36.4521C37.1794 37.1676 38.0158 37.5779 38.9205 37.5779C39.8251 37.5779 40.6614 37.1676 41.215 36.4521C41.5308 36.044 42.0255 35.8411 42.5243 35.8989V42.643C42.5243 42.7136 42.4486 42.7557 42.3889 42.7188ZM47.6595 28.3815C47.9142 28.7552 47.98 29.216 47.8402 29.646C47.7005 30.076 47.3763 30.4102 46.9506 30.5629C45.8203 30.9683 45.0666 32.0059 45.0303 33.2062C45.0174 33.6281 44.8319 34.0085 44.5081 34.2773C44.144 34.5795 43.6509 34.6934 43.1746 34.5545C42.022 34.2182 40.8021 34.6145 40.0671 35.5641C39.7905 35.9216 39.3724 36.1267 38.9203 36.1267C38.4682 36.1267 38.0501 35.9217 37.7733 35.5641C37.2122 34.8388 36.3684 34.4363 35.4876 34.4363C35.2149 34.4363 34.9385 34.4749 34.6661 34.5544C34.1852 34.6945 33.6936 34.577 33.3324 34.2772C33.0085 34.0084 32.823 33.628 32.8103 33.2062C32.774 32.0059 32.0202 30.9683 30.8898 30.5628C30.4642 30.4101 30.1401 30.076 30.0003 29.646C29.8606 29.216 29.9264 28.7551 30.181 28.3814C30.8571 27.3889 30.8571 26.1066 30.181 25.1141C29.9264 24.7404 29.8606 24.2795 30.0003 23.8494C30.14 23.4194 30.4642 23.0852 30.8898 22.9326C32.0202 22.5271 32.774 21.4895 32.8103 20.2893C32.824 19.8373 33.0415 19.4257 33.4073 19.16C33.773 18.8942 34.2316 18.8145 34.666 18.941C35.8184 19.2775 37.0385 18.881 37.7733 17.9314C38.05 17.5738 38.468 17.3687 38.9203 17.3687C39.3724 17.3687 39.7904 17.5737 40.0671 17.9313C40.802 18.881 42.0216 19.2774 43.1745 18.941C43.6086 18.8143 44.0672 18.8941 44.4331 19.1599C44.7989 19.4256 45.0166 19.8373 45.0302 20.2892C45.0666 21.4895 45.8203 22.5271 46.9506 22.9325C47.3763 23.0851 47.7004 23.4193 47.8402 23.8493C47.98 24.2793 47.9142 24.7404 47.6595 25.1139C46.9833 26.1065 46.9833 27.389 47.6595 28.3815ZM32.8386 26.7477C32.8386 23.3942 35.5668 20.666 38.9203 20.666C42.2736 20.666 45.0018 23.3942 45.0018 26.7477C45.0018 30.1011 42.2736 32.8293 38.9203 32.8293C35.5668 32.8293 32.8386 30.1011 32.8386 26.7477ZM34.2898 26.7478C34.2898 29.3009 36.367 31.3781 38.9203 31.3781C41.4734 31.3781 43.5506 29.301 43.5506 26.7478C43.5506 24.1945 41.4735 22.1173 38.9203 22.1173C36.367 22.1173 34.2898 24.1946 34.2898 26.7478Z" fill="white"/>
</svg>
