<svg width="72" height="72" viewBox="0 0 72 72" fill="none" xmlns="http://www.w3.org/2000/svg">
<path d="M36.3899 25.5243H9.39219C8.80972 25.5243 8.33765 25.9965 8.33765 26.5788C8.33765 27.1613 8.80972 27.6334 9.39219 27.6334H36.3901C36.9725 27.6334 37.4446 27.1612 37.4446 26.5788C37.4446 25.9965 36.9726 25.5243 36.3899 25.5243Z" fill="#041E42"/>
<path d="M36.3899 32.9346H9.39219C8.80972 32.9346 8.33765 33.4069 8.33765 33.9892C8.33765 34.5715 8.80972 35.0437 9.39219 35.0437H36.3901C36.9725 35.0437 37.4446 34.5715 37.4446 33.9892C37.4446 33.4069 36.9726 32.9346 36.3899 32.9346Z" fill="#041E42"/>
<path d="M36.3899 40.3449H9.39219C8.80972 40.3449 8.33765 40.8171 8.33765 41.3995C8.33765 41.9818 8.80972 42.454 9.39219 42.454H36.3901C36.9725 42.454 37.4446 41.9818 37.4446 41.3995C37.4446 40.8171 36.9726 40.3449 36.3899 40.3449Z" fill="#041E42"/>
<path d="M37.4446 48.8099C37.4446 48.2275 36.9725 47.7554 36.3901 47.7554H9.39219C8.80972 47.7554 8.33765 48.2276 8.33765 48.8099C8.33765 49.3923 8.80972 49.8645 9.39219 49.8645H36.3901C36.9725 49.8645 37.4446 49.3924 37.4446 48.8099Z" fill="#041E42"/>
<path d="M9.39219 58.6154C8.80972 58.6154 8.33765 59.0876 8.33765 59.67C8.33765 60.2523 8.80972 60.7245 9.39219 60.7245H22.9257C23.5081 60.7245 23.9802 60.2523 23.9802 59.67C23.9802 59.0876 23.5081 58.6154 22.9257 58.6154H9.39219Z" fill="#041E42"/>
<path d="M48.5429 13.0574V9.63543C48.5429 8.33183 47.4825 7.27124 46.1787 7.27124H24.5271C23.2235 7.27124 22.1631 8.33183 22.1631 9.63543V13.0574C22.1631 14.361 23.2235 15.4214 24.5271 15.4214H26.3555C26.938 15.4214 27.4101 14.9492 27.4101 14.3669C27.4101 13.7844 26.938 13.3124 26.3555 13.3124H24.5271C24.3866 13.3124 24.2723 13.198 24.2723 13.0575V9.63543C24.2723 9.49494 24.3866 9.38047 24.5271 9.38047H46.1787C46.3194 9.38047 46.4337 9.4948 46.4337 9.63543V13.0574C46.4337 13.1979 46.3194 13.3122 46.1787 13.3122H31.2859C30.7034 13.3122 30.2313 13.7844 30.2313 14.3668C30.2313 14.9492 30.7034 15.4213 31.2859 15.4213H46.1789C47.4825 15.4216 48.5429 14.361 48.5429 13.0574Z" fill="#041E42"/>
<path d="M56.4284 64.3073C55.8459 64.3073 55.3738 64.7795 55.3738 65.3618V66.782C55.3738 68.496 53.9792 69.8908 52.2649 69.8908H5.61084C3.89676 69.8908 2.50204 68.4962 2.50204 66.782V16.0914C2.50204 15.8632 2.52876 15.6393 2.57643 15.4215H12.1787C14.1835 15.4215 15.8144 13.7905 15.8144 11.7858V2.18362C16.0323 2.13595 16.256 2.10923 16.4842 2.10923H52.2647C53.9789 2.10923 55.3737 3.50381 55.3737 5.21803V19.2583C55.3737 19.8408 55.8457 20.3129 56.4282 20.3129C57.0107 20.3129 57.4828 19.8406 57.4828 19.2583V5.21789C57.4829 2.34084 55.1421 0 52.2649 0H16.4844C15.0906 0 13.7802 0.542813 12.7947 1.52831L1.92112 12.4019C0.935616 13.3874 0.392944 14.6977 0.392944 16.0916V66.7821C0.392944 69.6593 2.73365 72 5.61084 72H52.2649C55.1421 72 57.4829 69.6592 57.4829 66.7821V65.3619C57.4829 64.7795 57.0108 64.3073 56.4284 64.3073ZM13.7054 3.60056V11.7858C13.7054 12.6276 13.0205 13.3124 12.1787 13.3124H3.99351L13.7054 3.60056Z" fill="#041E42"/>
<path d="M70.8726 37.6874C71.6129 36.6008 71.8044 35.2605 71.3981 34.0101C70.9919 32.7596 70.049 31.7879 68.8115 31.3441C67.9905 31.0496 67.4428 30.2959 67.4166 29.424C67.3768 28.1099 66.7439 26.9129 65.68 26.14C64.6165 25.3673 63.2822 25.1354 62.0206 25.5035C61.1827 25.7479 60.2972 25.4599 59.7634 24.7702C58.9589 23.7302 57.7433 23.1339 56.4285 23.1339C55.1138 23.1339 53.8981 23.7302 53.0934 24.7702C52.5596 25.4601 51.6735 25.7476 50.8364 25.5035C49.5745 25.1351 48.2404 25.3673 47.1766 26.14C46.1129 26.9129 45.4803 28.1097 45.4403 29.4239C45.414 30.2957 44.8664 31.0494 44.0453 31.344C42.8078 31.7878 41.8649 32.7596 41.4588 34.0099C41.0525 35.2604 41.2441 36.6008 41.9843 37.6873C42.4754 38.4083 42.4754 39.3398 41.9843 40.0606C41.2441 41.1472 41.0525 42.4875 41.4588 43.7379C41.8649 44.9884 42.8078 45.9601 44.0453 46.4041C44.8664 46.6987 45.4142 47.4523 45.4403 48.3242C45.477 49.533 46.0309 50.6688 46.9605 51.4401C47.5737 51.9492 48.3105 52.2677 49.0815 52.3741V61.9757C49.0815 62.7859 49.521 63.5347 50.2282 63.9297C50.9345 64.3245 51.8029 64.3069 52.4932 63.8818L56.3611 61.5007C56.4241 61.4618 56.4617 61.4793 56.4964 61.5007L60.364 63.8818C61.054 64.3065 61.9221 64.3247 62.6292 63.9296C63.3365 63.5344 63.7758 62.7856 63.7758 61.9756V52.3739C64.5466 52.2676 65.2833 51.949 65.8966 51.4401C66.8263 50.6688 67.3803 49.5331 67.417 48.324C67.4432 47.4521 67.9909 46.6984 68.8119 46.4039C70.0495 45.9601 70.9924 44.9882 71.3986 43.7378C71.8048 42.4874 71.6133 41.1471 70.873 40.0605C70.3814 39.3399 70.3814 38.4084 70.8726 37.6874ZM61.4694 62.0857L57.6017 59.7047C56.8827 59.2621 55.9748 59.2614 55.2551 59.7047L51.3873 62.0856C51.2993 62.1391 51.1906 62.0774 51.1906 61.9756V52.1739C51.9157 52.0899 52.6345 52.385 53.0934 52.978C53.8982 54.0178 55.1138 54.6142 56.4286 54.6142C57.7433 54.6142 58.9589 54.0178 59.7634 52.978C60.2224 52.3848 60.9414 52.0899 61.6663 52.1739V61.9756C61.6663 62.0781 61.5562 62.1393 61.4694 62.0857ZM69.1296 41.2485C69.4997 41.7916 69.5953 42.4613 69.3923 43.0863C69.1892 43.7112 68.718 44.1969 68.0994 44.4189C66.4566 45.0081 65.3611 46.516 65.3084 48.2604C65.2897 48.8737 65.0201 49.4265 64.5494 49.8172C64.0202 50.2563 63.3036 50.422 62.6115 50.2201C60.9362 49.7312 59.1633 50.3072 58.0952 51.6873C57.6931 52.2069 57.0855 52.5051 56.4283 52.5051C55.7713 52.5051 55.1637 52.2071 54.7614 51.6873C53.9459 50.6332 52.7195 50.0482 51.4394 50.0482C51.0431 50.0482 50.6415 50.1043 50.2455 50.2199C49.5466 50.4235 48.832 50.2528 48.3071 49.817C47.8364 49.4264 47.5668 48.8736 47.5484 48.2604C47.4955 46.516 46.4001 45.0081 44.7572 44.4187C44.1387 44.1968 43.6676 43.7112 43.4644 43.0863C43.2613 42.4613 43.357 41.7914 43.7271 41.2483C44.7096 39.8059 44.7096 37.9422 43.7271 36.4998C43.357 35.9567 43.2613 35.2868 43.4644 34.6617C43.6675 34.0368 44.1387 33.5511 44.7572 33.3293C46.4001 32.7399 47.4955 31.232 47.5484 29.4876C47.5683 28.8307 47.8844 28.2325 48.4161 27.8463C48.9475 27.46 49.6141 27.3442 50.2453 27.5281C51.9202 28.0171 53.6935 27.4409 54.7614 26.0608C55.1635 25.5411 55.771 25.2429 56.4283 25.2429C57.0855 25.2429 57.693 25.5409 58.0952 26.0607C59.1632 27.4409 60.9356 28.0169 62.6113 27.5281C63.2422 27.3439 63.9087 27.4599 64.4404 27.8462C64.9721 28.2323 65.2885 28.8307 65.3082 29.4874C65.3611 31.2319 66.4566 32.7399 68.0994 33.3292C68.718 33.5509 69.1891 34.0366 69.3923 34.6616C69.5953 35.2865 69.4997 35.9566 69.1296 36.4996C68.1467 37.9421 68.1467 39.8061 69.1296 41.2485Z" fill="#041E42"/>
<path d="M56.4282 30.0351C51.5544 30.0351 47.5894 34.0002 47.5894 38.8739C47.5894 43.7477 51.5544 47.7128 56.4282 47.7128C61.3018 47.7128 65.2669 43.7477 65.2669 38.8739C65.2669 34.0002 61.3018 30.0351 56.4282 30.0351ZM56.4282 45.6037C52.7174 45.6037 49.6984 42.5847 49.6984 38.8741C49.6984 35.1634 52.7174 32.1443 56.4282 32.1443C60.139 32.1443 63.1578 35.1633 63.1578 38.8741C63.1578 42.5849 60.1389 45.6037 56.4282 45.6037Z" fill="#041E42"/>
</svg>
