<svg width="50" height="49" viewBox="0 0 50 49" fill="none" xmlns="http://www.w3.org/2000/svg">
<path fill-rule="evenodd" clip-rule="evenodd" d="M24.5137 0.957031C24.5137 0.428459 24.9423 0 25.4708 0C25.9993 0 26.4278 0.428459 26.4278 0.957031V2.38903C26.4278 2.91759 25.9993 3.34605 25.4708 3.34605C24.9423 3.34605 24.5137 2.91759 24.5137 2.38903V0.957031ZM35.8903 17.9357L37.593 18.3424C39.626 18.828 41.0458 20.627 41.0458 22.7172V24.5045C41.0458 25.0331 40.6172 25.4615 40.0888 25.4615H35.6786C35.6818 25.5168 35.6846 25.5723 35.6867 25.6278C35.689 25.6899 35.6903 25.7521 35.6903 25.8147V29.2532C35.6903 29.7817 35.2617 30.2102 34.7333 30.2102H28.8848C28.3563 30.2102 27.9277 29.7817 27.9277 29.2532C27.9277 28.7246 28.3563 28.2962 28.8848 28.2962H29.9694V26.3183C29.9694 25.7897 30.3979 25.3612 30.9264 25.3612C31.4549 25.3612 31.8834 25.7897 31.8834 26.3183V28.2962H33.7761V25.8147C33.7761 23.9675 32.5214 22.3778 30.7249 21.9486L28.1069 21.3232L26.3511 25.3159C26.1984 25.6634 25.8546 25.8877 25.4751 25.8877C25.0955 25.8877 24.7518 25.6633 24.599 25.3158L22.8414 21.3171L20.2151 21.9465C18.4203 22.3766 17.1666 23.9661 17.1666 25.8119V28.2962H19.0594V26.3183C19.0594 25.7897 19.4879 25.3612 20.0164 25.3612C20.5449 25.3612 20.9734 25.7897 20.9734 26.3183V28.296H21.9622C22.4907 28.296 22.9193 28.7244 22.9193 29.253C22.9193 29.7816 22.4907 30.21 21.9622 30.21H16.2095C15.681 30.21 15.2525 29.7816 15.2525 29.253V25.8117C15.2525 25.6941 15.2572 25.5774 15.264 25.4613H10.8663C10.3378 25.4613 9.90924 25.0329 9.90924 24.5043V22.717C9.90924 20.6268 11.329 18.8279 13.362 18.3422L15.0646 17.9355V17.6302C13.958 16.855 13.2324 15.5713 13.2324 14.1207V12.0543V11.9072C13.2324 9.54531 15.1538 7.62389 17.5157 7.62389C18.5799 7.62389 19.5538 8.01492 20.3037 8.65958C21.1353 6.61432 23.1432 5.16796 25.4835 5.16796C27.8209 5.16796 29.8267 6.61058 30.6603 8.65192C31.4089 8.01186 32.3793 7.62408 33.4393 7.62408C35.8011 7.62408 37.7225 9.5455 37.7225 11.9073V14.1209C37.7225 15.5715 36.9969 16.8552 35.8903 17.6304V17.9357ZM35.8033 11.7509C35.7225 10.5171 34.6932 9.53794 33.4393 9.53794C32.4661 9.53794 31.6279 10.1278 31.2639 10.9688C32.2534 11.4816 33.3542 11.7509 34.4728 11.7509H35.8033ZM31.0736 13.841C31.0736 13.8879 31.0712 13.9343 31.0701 13.9809V14.1207C31.0701 15.4271 32.1328 16.49 33.4393 16.49C34.7457 16.49 35.8085 15.4271 35.8085 14.1208V13.6649H34.4728C33.3023 13.6649 32.1475 13.4331 31.0736 12.9887V13.841ZM25.4835 7.08202C23.4565 7.08202 21.8076 8.73107 21.8076 10.758V10.9163H23.1157C24.3417 10.9163 25.4963 10.3773 26.2837 9.43774C26.5839 9.07933 27.0989 8.99043 27.502 9.22719L29.1131 10.1738C28.8323 8.42358 27.3117 7.08202 25.4835 7.08202ZM19.6911 10.9687C19.327 10.1279 18.489 9.53794 17.5157 9.53794C16.262 9.53794 15.2325 10.5171 15.1517 11.7508H16.4823C17.6008 11.7508 18.7015 11.4815 19.6911 10.9687ZM16.4823 13.6648H15.1465V14.1207C15.1465 15.4271 16.2094 16.4898 17.5157 16.4898C18.8222 16.4898 19.885 15.4269 19.885 14.1206V12.9872C18.8101 13.4326 17.654 13.6648 16.4823 13.6648ZM15.7023 23.5474C16.4066 21.8489 17.8864 20.5362 19.7692 20.085L20.2531 19.9691L18.8254 19.627C18.7076 19.6045 18.5922 19.5595 18.4854 19.4903C18.202 19.307 18.0476 18.9994 18.0478 18.6854V18.6769L18.048 18.665L18.0483 18.6546L18.0488 18.6426V18.3696C17.8741 18.3914 17.6964 18.4039 17.5157 18.4039C17.3339 18.4039 17.1548 18.3912 16.9788 18.3691V18.6908C16.9788 19.1338 16.6748 19.5188 16.2441 19.6217L13.8067 20.2039C12.6389 20.4829 11.8233 21.5164 11.8233 22.7171V23.5474H15.7023ZM21.6724 18.341C21.9366 18.4042 22.1929 18.4909 22.4387 18.5994V18.5256C21.7812 18.0967 21.2197 17.5337 20.7922 16.8753C20.5503 17.1626 20.2714 17.4174 19.9628 17.633V17.9313L21.6724 18.341ZM25.4753 22.5527L26.5953 20.0055V19.3197C26.2358 19.3925 25.8641 19.4311 25.4835 19.4311C25.0963 19.4311 24.7181 19.3914 24.3528 19.3161V19.999L25.4753 22.5527ZM21.8076 13.841C21.8076 15.868 23.4565 17.5171 25.4835 17.517C27.4636 17.517 29.082 15.9432 29.1559 13.981V12.4188L27.1823 11.2592C26.0764 12.2658 24.6334 12.8302 23.1157 12.8302H21.8076V13.841ZM28.5093 18.5376V18.6024C28.7573 18.4927 29.0158 18.4049 29.2822 18.341L30.9919 17.9313V17.633C30.6864 17.4194 30.4098 17.1674 30.1695 16.8833C29.7387 17.5446 29.1722 18.1091 28.5093 18.5376ZM35.2394 23.5474H39.1317V22.7171C39.1317 21.5164 38.316 20.483 37.1481 20.2039L34.7108 19.6217C34.28 19.5188 33.9761 19.1338 33.9761 18.6908V18.3691C33.8 18.3912 33.621 18.4039 33.4391 18.4039C33.3414 18.4039 33.2446 18.4003 33.1486 18.3934C33.0671 18.3876 32.9863 18.3796 32.906 18.3696V18.6632L32.9063 18.6857C32.9063 18.9997 32.7524 19.3073 32.4694 19.4903C32.3612 19.5604 32.2438 19.606 32.1244 19.6282L30.6891 19.9721L31.1697 20.0869C33.0537 20.537 34.5345 21.8489 35.2394 23.5474ZM22.5244 47.8462L20.9564 40.3729C20.1939 36.7389 18.077 33.5966 14.9957 31.5247L11.6479 29.2736C10.3055 28.3711 8.50116 28.5652 7.37915 29.7094V18.1776C7.37915 16.6639 6.34717 15.3779 4.86951 15.0499C3.91583 14.838 2.93219 15.0675 2.17029 15.6788C1.40851 16.29 0.971619 17.2008 0.971619 18.1776V33.0165C0.971619 34.9605 1.56653 36.826 2.69189 38.4113L4.39856 40.8155C4.58521 41.0784 4.88013 41.2186 5.17981 41.2186C5.3714 41.2186 5.56482 41.1611 5.73297 41.0418C6.16388 40.7358 6.26532 40.1385 5.95929 39.7074L4.25262 37.3033C3.3584 36.0435 2.88568 34.5612 2.88568 33.0164V18.1776C2.88568 17.7844 3.06158 17.4178 3.36823 17.1716C3.67474 16.9256 4.07068 16.8332 4.45483 16.9185C5.04962 17.0505 5.46509 17.5682 5.46509 18.1776V29.9505C5.46509 31.6171 6.07739 33.2049 7.18976 34.4402C7.23737 34.4974 7.28638 34.5539 7.3382 34.6088C7.97375 35.2822 8.72101 36.0758 9.4248 36.8238L10.41 37.8724C10.4132 37.8758 10.4166 37.8786 10.4199 37.8819L11.3491 38.8705L11.8973 39.4541C12.259 39.8393 12.8648 39.8584 13.2501 39.4966C13.6354 39.1347 13.6545 38.5291 13.2925 38.1438C13.2751 38.1253 12.1548 36.9323 10.8754 35.5725L8.68109 33.2371C8.67554 33.2311 8.67047 33.2249 8.66492 33.219C8.15039 32.6036 8.1568 31.7114 8.69611 31.1025C9.17316 30.5641 9.98322 30.4607 10.5801 30.862L13.9277 33.1131C16.5928 34.9052 18.4237 37.6229 19.0831 40.766L20.6512 48.2393C20.7458 48.6904 21.1437 49 21.5869 49C21.652 49 21.7181 48.9933 21.7843 48.9794C22.3016 48.8709 22.6329 48.3634 22.5244 47.8462ZM11.483 47.4887L10.0422 45.4592C9.73633 45.0282 9.13885 44.9268 8.70776 45.2328C8.27686 45.5387 8.17542 46.1361 8.48145 46.5672L9.92224 48.5967C10.1089 48.8596 10.4038 48.9998 10.7035 48.9998C10.8951 48.9998 11.0885 48.9424 11.2567 48.8231C11.6876 48.5171 11.7891 47.9197 11.483 47.4887ZM8.05597 42.6612L8.06207 42.6698C8.36902 43.1 8.26898 43.6977 7.83893 44.0047C7.67035 44.125 7.4762 44.1828 7.28381 44.1828C6.98505 44.1828 6.69073 44.0433 6.50397 43.7815L6.4978 43.7729C6.19092 43.3427 6.29083 42.7451 6.72101 42.438C7.15118 42.131 7.74872 42.231 8.05597 42.6612ZM48.7727 15.6789C48.0109 15.0676 47.0268 14.8385 46.0736 15.05C44.5959 15.3779 43.5638 16.664 43.5638 18.1777V29.7095C42.442 28.5654 40.6374 28.3713 39.295 29.2738L35.9473 31.5248C32.8659 33.5965 30.7491 36.7389 29.9866 40.373L28.4186 47.8463C28.3101 48.3636 28.6414 48.8709 29.1587 48.9794C29.2249 48.9933 29.2911 49 29.3561 49C29.7994 49 30.1971 48.6903 30.2918 48.2393L31.8598 40.7659C32.5193 37.623 34.3501 34.9051 37.0152 33.1132L40.363 30.8621C40.9597 30.4608 41.7697 30.5641 42.247 31.1025C42.7856 31.7106 42.7928 32.6014 42.2802 33.2168L42.2712 33.2269L42.2621 33.2371L37.6506 38.1439C37.2888 38.5292 37.3078 39.1348 37.693 39.4966C38.0783 39.8585 38.6839 39.8394 39.0458 39.4541L39.1856 39.3055C39.8901 38.5564 43.0402 35.2073 43.6049 34.6089C43.6567 34.5541 43.7057 34.4975 43.7534 34.4404C44.8656 33.205 45.478 31.6172 45.478 29.9507V18.1776C45.478 17.5682 45.8935 17.0505 46.4883 16.9185C46.8724 16.8333 47.2682 16.9257 47.575 17.1717C47.8816 17.4177 48.0575 17.7843 48.0575 18.1776V33.0165C48.0575 34.5613 47.5848 36.0437 46.6906 37.3034L39.4601 47.4888C39.1542 47.9197 39.2556 48.5172 39.6865 48.8232C39.8547 48.9425 40.048 48.9999 40.2396 48.9999C40.5392 48.9999 40.8342 48.8596 41.0209 48.5968L48.2513 38.4115C49.3766 36.8261 49.9716 34.9606 49.9716 33.0166V18.1776C49.9713 17.2008 49.5345 16.2901 48.7727 15.6789ZM26.1479 28.5759C25.9691 28.3979 25.7231 28.2964 25.4714 28.2964C25.2187 28.2964 24.9728 28.3979 24.7948 28.5759C24.6158 28.7548 24.5144 29.0008 24.5144 29.2534C24.5144 29.5051 24.6158 29.7511 24.7948 29.9301C24.9728 30.1081 25.2188 30.2105 25.4714 30.2105C25.7231 30.2105 25.9691 30.1081 26.1479 29.9301C26.326 29.7511 26.4285 29.5051 26.4285 29.2534C26.4285 29.0008 26.326 28.7548 26.1479 28.5759ZM21.9455 3.12173L20.9416 2.11876C20.5677 1.74514 19.9618 1.74542 19.5881 2.11933C19.2145 2.49325 19.2149 3.09924 19.5888 3.47276L20.5928 4.47573C20.7797 4.66245 21.0245 4.75575 21.2692 4.75575C21.5143 4.75575 21.7593 4.66216 21.9462 4.47515C22.3196 4.10124 22.3194 3.49525 21.9455 3.12173ZM29.9772 2.14391C30.3506 1.76991 30.9567 1.76971 31.3306 2.14324C31.7045 2.51677 31.7048 3.12276 31.3312 3.49667L30.3351 4.4938C30.1483 4.68089 29.9032 4.77449 29.6581 4.77449C29.4133 4.77449 29.1686 4.68118 28.9816 4.49446C28.6077 4.12093 28.6074 3.51495 28.981 3.14104L29.9772 2.14391Z" fill="white"/>
</svg>
