<svg width="72" height="72" viewBox="0 0 72 72" fill="none" xmlns="http://www.w3.org/2000/svg">
<path d="M15.4453 69.7793L13.3282 66.7972C12.8788 66.1639 12.0008 66.0149 11.3675 66.4645C10.7342 66.9141 10.5852 67.7919 11.0349 68.4252L13.152 71.4075C13.4262 71.7938 13.8596 71.9998 14.2999 71.9998C14.5814 71.9998 14.8656 71.9154 15.1127 71.74C15.746 71.2905 15.895 70.4127 15.4453 69.7793Z" fill="#041E42"/>
<path d="M31.6694 70.3046L29.3655 59.3235C28.2451 53.9837 25.1345 49.3664 20.6069 46.3221L15.6878 43.0143C13.7152 41.6882 11.0639 41.9734 9.41521 43.6546V26.7099C9.41521 24.4858 7.89886 22.5961 5.72762 22.1141C4.32629 21.8028 2.88095 22.14 1.76144 23.0382C0.642073 23.9363 0.00012207 25.2747 0.00012207 26.7099V48.514C0.00012207 51.3705 0.874244 54.1117 2.52785 56.4411L5.0356 59.9737C5.30982 60.36 5.74322 60.5661 6.18352 60.5661C6.46505 60.5661 6.74925 60.4817 6.99633 60.3063C7.62956 59.8567 7.77862 58.979 7.32891 58.3456L4.82115 54.813C3.50716 52.9619 2.81261 50.7838 2.81261 48.5138V26.7099C2.81261 26.1322 3.07108 25.5935 3.52164 25.2318C3.97206 24.8702 4.55382 24.7345 5.11829 24.8598C5.99227 25.0537 6.60272 25.8145 6.60272 26.7099V44.0089C6.60272 46.4578 7.50244 48.7909 9.13691 50.606C9.20695 50.69 9.27894 50.7731 9.35502 50.8537C10.2889 51.8433 11.3869 53.0093 12.4211 54.1084L13.8688 55.6493C13.8734 55.6542 13.8785 55.6584 13.8833 55.6632C15.1217 56.9804 16.0351 57.9531 16.0542 57.9734C16.5857 58.5394 17.4758 58.5675 18.042 58.0358C18.6081 57.5041 18.6361 56.6142 18.1043 56.0481C18.0787 56.0208 16.4325 54.2679 14.5526 52.2698L11.3283 48.8381C11.3201 48.8294 11.3127 48.8203 11.3045 48.8115C10.5485 47.9073 10.5579 46.5963 11.3503 45.7016C12.0514 44.9105 13.2416 44.7586 14.1187 45.3482L19.0376 48.656C22.9537 51.2892 25.644 55.2827 26.6129 59.901L28.917 70.8823C29.0561 71.545 29.6407 71.9999 30.2919 71.9999C30.3875 71.9999 30.4847 71.9901 30.582 71.9697C31.3421 71.8102 31.8289 71.0647 31.6694 70.3046Z" fill="#041E42"/>
<path d="M10.4187 62.6986L10.4097 62.6859C9.9583 62.0537 9.08024 61.9068 8.44813 62.358C7.81603 62.8091 7.66921 63.6873 8.1202 64.3194L8.1292 64.332C8.4037 64.7167 8.83612 64.9217 9.27514 64.9217C9.5578 64.9217 9.84313 64.8367 10.0908 64.66C10.7227 64.2089 10.8697 63.3307 10.4187 62.6986Z" fill="#041E42"/>
<path d="M70.2384 23.0384C69.119 22.1402 67.673 21.8035 66.2724 22.1143C64.1011 22.5961 62.5847 24.486 62.5847 26.7101V43.6548C60.9361 41.9736 58.2845 41.6884 56.3121 43.0145L51.3929 46.3221C46.8652 49.3664 43.7548 53.9838 42.6344 59.3236L40.3304 70.3048C40.171 71.0649 40.6578 71.8103 41.4179 71.9698C41.5152 71.9902 41.6125 72 41.708 72C42.3593 72 42.9438 71.5449 43.0829 70.8822L45.3869 59.901C46.3559 55.2827 49.046 51.2891 52.9621 48.6561L57.8813 45.3484C58.7581 44.7587 59.9484 44.9105 60.6497 45.7017C61.4411 46.5952 61.4516 47.9041 60.6985 48.8084C60.6895 48.8182 60.6809 48.8283 60.6719 48.8382C60.6719 48.8382 53.9212 56.0211 53.8958 56.0481C53.3641 56.6143 53.392 57.5042 53.958 58.0359C54.5242 58.5676 55.4141 58.5396 55.9458 57.9734C55.9649 57.9532 61.7111 51.8435 62.645 50.8539C62.7211 50.7733 62.7931 50.6902 62.8631 50.6062C64.4974 48.7911 65.3973 46.458 65.3973 44.0091V26.7099C65.3973 25.8146 66.0077 25.0538 66.8819 24.8599C67.4462 24.7347 68.0278 24.8704 68.4785 25.2318C68.9291 25.5934 69.1875 26.1321 69.1875 26.7099V48.514C69.1875 50.784 68.493 52.9621 67.179 54.8132L56.5547 69.7794C56.1051 70.4126 56.254 71.2906 56.8873 71.7401C57.1345 71.9155 57.4185 71.9999 57.7001 71.9999C58.1402 71.9999 58.5738 71.7937 58.848 71.4076L69.4723 56.4413C71.1259 54.1119 72 51.3707 72 48.5142V26.7099C71.9996 25.2747 71.3578 23.9365 70.2384 23.0384Z" fill="#041E42"/>
<path d="M53.8111 26.9521L51.3092 26.3545V25.9059C52.9353 24.7668 54.0015 22.8806 54.0015 20.749V17.4965C54.0015 14.0261 51.1782 11.2027 47.7077 11.2027C46.1503 11.2027 44.7244 11.7725 43.6242 12.713C42.3994 9.71352 39.4522 7.59375 36.0176 7.59375C32.5788 7.59375 29.6285 9.71901 28.4064 12.7243C27.3046 11.777 25.8735 11.2025 24.3098 11.2025C20.8393 11.2025 18.016 14.0258 18.016 17.4962V17.7124V20.7487C18.016 22.8803 19.0822 24.7665 20.7082 25.9056V26.3542L18.2064 26.9518C15.2192 27.6655 13.1329 30.3088 13.1329 33.3801V36.0064C13.1329 36.783 13.7627 37.4126 14.5392 37.4126H21.0012C20.9912 37.5832 20.9843 37.7546 20.9843 37.9274V42.984C20.9843 43.7607 21.614 44.3902 22.3905 44.3902H30.8435C31.62 44.3902 32.2497 43.7607 32.2497 42.984C32.2497 42.2073 31.62 41.5778 30.8435 41.5778H29.3905V38.6717C29.3905 37.8951 28.7608 37.2655 27.9843 37.2655C27.2078 37.2655 26.578 37.8951 26.578 38.6717V41.578H23.7969V37.9277C23.7969 35.2155 25.6391 32.8799 28.2764 32.2479L32.1354 31.3231L34.7179 37.1987C34.9424 37.7093 35.4475 38.0391 36.0051 38.0391H36.0052C36.5629 38.0391 37.0681 37.7095 37.2925 37.1989L39.8724 31.332L43.7192 32.251C46.359 32.8817 48.2027 35.2176 48.2027 37.9318V41.578H45.4216V38.6717C45.4216 37.8951 44.7919 37.2655 44.0153 37.2655C43.2388 37.2655 42.6091 37.8951 42.6091 38.6717V41.578H41.0154C40.2389 41.578 39.6091 42.2076 39.6091 42.9843C39.6091 43.7609 40.2389 44.3905 41.0154 44.3905H49.6091C50.3856 44.3905 51.0153 43.7609 51.0153 42.9843V37.9318C51.0153 37.7576 51.0083 37.5849 50.9982 37.4129H57.4784C58.255 37.4129 58.8847 36.7833 58.8847 36.0066V33.3803C58.8847 30.3091 56.7984 27.6656 53.8111 26.9521ZM47.7077 14.0149C49.5502 14.0149 51.0627 15.4537 51.1814 17.2666H49.2263C47.5827 17.2666 45.9652 16.8709 44.5113 16.1174C45.0461 14.8816 46.2777 14.0149 47.7077 14.0149ZM44.2264 20.5434C44.2281 20.4749 44.2316 20.4067 44.2316 20.3378V19.0854C45.8096 19.7385 47.5065 20.0791 49.2263 20.0791H51.189V20.7489C51.189 22.6684 49.6274 24.2302 47.7077 24.2302C45.788 24.2302 44.2264 22.6684 44.2264 20.7487V20.5434ZM30.6162 15.8076C30.6162 12.8293 33.0392 10.4062 36.0176 10.4062C38.7039 10.4062 40.9383 12.3775 41.3509 14.9493L38.9835 13.5583C38.3913 13.2104 37.6345 13.3411 37.1934 13.8677C36.0364 15.2484 34.3398 16.0402 32.5384 16.0402H30.6162V15.8076ZM24.3099 14.0149C25.7399 14.0149 26.9714 14.8818 27.5063 16.1173C26.0522 16.8707 24.4349 17.2665 22.7913 17.2665H20.8362C20.9549 15.4537 22.4676 14.0149 24.3099 14.0149ZM20.8286 20.0789H22.7913C24.513 20.0789 26.2117 19.7377 27.7912 19.0832V20.7486C27.7912 22.6681 26.2296 24.2299 24.3099 24.2299C22.3902 24.2299 20.8286 22.6684 20.8286 20.7487V20.0789ZM27.621 29.5127C24.8544 30.1756 22.6801 32.1046 21.6452 34.6003H15.9454V33.3802C15.9454 31.6159 17.1438 30.0973 18.8599 29.6874L22.4413 28.8318C23.0742 28.6807 23.5209 28.1149 23.5209 27.4641V26.9913C23.7796 27.0238 24.0426 27.0425 24.3099 27.0425C24.5753 27.0425 24.8364 27.0241 25.0932 26.992V27.3932C25.0922 27.4142 25.0918 27.4352 25.0916 27.4561C25.0914 27.9175 25.3182 28.3695 25.7347 28.6389C25.8917 28.7406 26.0612 28.8067 26.2344 28.8397L28.332 29.3423L27.621 29.5127ZM31.5436 27.3297C31.1824 27.1704 30.8058 27.043 30.4176 26.95L27.9055 26.348V25.9098C28.3589 25.593 28.7688 25.2185 29.1243 24.7963C29.7524 25.7638 30.5775 26.5911 31.5436 27.2213V27.3297ZM37.6512 29.3959L36.0056 33.1386L34.3563 29.3863V28.3828C34.893 28.4935 35.4486 28.5519 36.0176 28.5519C36.5769 28.5519 37.123 28.4952 37.6512 28.3882V29.3959ZM36.0176 25.7392C33.0392 25.7394 30.6162 23.3163 30.6162 20.3378V18.8526H32.5384C34.7684 18.8526 36.8888 18.0233 38.5138 16.5442L41.4138 18.248V20.5436C41.3052 23.4268 38.9271 25.7392 36.0176 25.7392ZM40.4637 27.3342V27.239C41.4377 26.6093 42.2702 25.7799 42.9031 24.8081C43.2562 25.2255 43.6626 25.5959 44.1117 25.9098V26.348L41.5994 26.95C41.2079 27.0439 40.8281 27.1729 40.4637 27.3342ZM56.072 34.6003H50.3529C49.317 32.1046 47.1411 30.1768 44.3728 29.5154L43.6667 29.3468L45.7757 28.8414C45.9512 28.8088 46.1236 28.7418 46.2826 28.6389C46.6984 28.3699 46.9246 27.9179 46.9246 27.4565C46.9246 27.4456 46.9244 27.4345 46.9241 27.4235V26.992C47.1811 27.0241 47.4421 27.0425 47.7074 27.0425C47.9747 27.0425 48.2377 27.0238 48.4965 26.9913V27.4641C48.4965 28.1149 48.9431 28.6807 49.576 28.8318L53.1575 29.6874C54.8735 30.0975 56.072 31.6159 56.072 33.3802V34.6003Z" fill="#041E42"/>
<path d="M36.9939 41.989C36.7311 41.7275 36.3697 41.5784 35.9999 41.5784C35.6285 41.5784 35.2672 41.7275 35.0057 41.989C34.7427 42.252 34.5936 42.6134 34.5936 42.9846C34.5936 43.3545 34.7427 43.7159 35.0057 43.9789C35.2672 44.2404 35.6286 44.3909 35.9999 44.3909C36.3697 44.3909 36.7311 44.2404 36.9939 43.9789C37.2555 43.7159 37.4061 43.3545 37.4061 42.9846C37.4061 42.6134 37.2556 42.252 36.9939 41.989Z" fill="#041E42"/>
<path d="M35.9989 0C35.2224 0 34.5927 0.629576 34.5927 1.40624V3.51041C34.5927 4.28708 35.2224 4.91665 35.9989 4.91665C36.7754 4.91665 37.4052 4.28708 37.4052 3.51041V1.40624C37.4052 0.629576 36.7756 0 35.9989 0Z" fill="#041E42"/>
<path d="M30.8189 4.58701L29.3437 3.11327C28.7943 2.56427 27.904 2.56469 27.355 3.11411C26.806 3.66353 26.8066 4.55396 27.356 5.10282L28.8313 6.57657C29.1058 6.85092 29.4655 6.98803 29.8251 6.98803C30.1852 6.98803 30.5452 6.8505 30.8199 6.57572C31.3686 6.0263 31.3683 5.13587 30.8189 4.58701Z" fill="#041E42"/>
<path d="M44.6092 3.14927C44.0598 2.60041 43.1692 2.60069 42.6205 3.15025L41.1567 4.61542C40.6079 5.16484 40.6083 6.05527 41.1577 6.60413C41.4324 6.87849 41.7919 7.0156 42.1516 7.0156C42.5118 7.0156 42.8719 6.87807 43.1464 6.60315L44.6102 5.13798C45.159 4.58856 45.1586 3.69813 44.6092 3.14927Z" fill="#041E42"/>
</svg>
