<svg width="50" height="50" viewBox="0 0 50 50" fill="none" xmlns="http://www.w3.org/2000/svg">
<path fill-rule="evenodd" clip-rule="evenodd" d="M0.971558 40.0167V5.71667C0.975158 2.56093 3.53249 0.00360039 6.68822 0H36.0882C37.4413 0 38.5382 1.0969 38.5382 2.45V3.26667H48.3382C49.2403 3.26667 49.9716 3.99793 49.9716 4.9V13.0667C49.9716 13.9687 49.2403 14.7 48.3382 14.7H38.5382V16.3333H48.3382C49.2403 16.3333 49.9716 17.0646 49.9716 17.9667V26.1333C49.9716 27.0354 49.2403 27.7667 48.3382 27.7667H38.5382V29.4H48.3382C49.2403 29.4 49.9716 30.1313 49.9716 31.0333V39.2C49.9716 40.1021 49.2403 40.8333 48.3382 40.8333H38.5382V43.2833C38.5382 44.6364 37.4413 45.7333 36.0882 45.7333H16.4882V47.3667C16.4881 47.9328 16.1948 48.4584 15.7132 48.7559C15.2315 49.0533 14.6302 49.0802 14.124 48.8269L12.4049 47.9669L10.6899 48.8269C10.1833 49.0821 9.58055 49.0563 9.09769 48.7586C8.61482 48.4609 8.32101 47.9339 8.32156 47.3667V45.7333H6.68822C3.53249 45.7297 0.975158 43.1724 0.971558 40.0167ZM5.05489 1.9796C3.5686 2.62827 2.60702 4.09499 2.60489 5.71667V36.0232C3.27818 35.3226 4.1227 34.81 5.05489 34.536V1.9796ZM11.6781 46.5059C12.1385 46.2772 12.6794 46.2772 13.1399 46.5059L14.8549 47.3667V40.8333H9.95489V47.3667L11.6781 46.5059ZM19.7549 40.8333H16.4882V44.1H33.0094C31.6704 41.5424 31.6704 38.4909 33.0094 35.9333H6.68822C4.43306 35.9333 2.60489 37.7615 2.60489 40.0167C2.60489 42.2718 4.43306 44.1 6.68822 44.1H8.32156V40.8333H5.87156C5.42053 40.8333 5.05489 40.4677 5.05489 40.0167C5.05489 39.5656 5.42053 39.2 5.87156 39.2H19.7549C20.2059 39.2 20.5716 39.5656 20.5716 40.0167C20.5716 40.4677 20.2059 40.8333 19.7549 40.8333ZM48.3382 34.3H38.388C38.0431 35.2754 37.1228 35.929 36.0882 35.9333H48.3382V34.3ZM36.0882 44.1C36.5393 44.1 36.9049 43.7344 36.9049 43.2833V40.8333H33.6856C33.8348 42.0001 34.2484 43.1174 34.8951 44.1H36.0882ZM34.0784 37.5667C33.8839 38.0938 33.752 38.642 33.6856 39.2H48.3382V37.5667H34.0784ZM48.3382 32.6667V31.0333H38.5382V32.6667H48.3382ZM48.3382 26.1333V17.9667H38.5382V26.1333H48.3382ZM41.8049 4.9V13.0667H44.2549V4.9H41.8049ZM45.8882 13.0667H48.3382V4.9H45.8882V13.0667ZM40.1716 13.0667V4.9H38.5382V13.0667H40.1716ZM36.9049 33.4833V2.45C36.9049 1.99897 36.5393 1.63333 36.0882 1.63333H6.68822V34.3H36.0882C36.5393 34.3 36.9049 33.9344 36.9049 33.4833ZM45.8884 22.05C45.8884 23.4031 44.7915 24.5 43.4384 24.5C42.0853 24.5 40.9884 23.4031 40.9884 22.05C40.9884 20.6969 42.0853 19.6 43.4384 19.6C44.7915 19.6 45.8884 20.6969 45.8884 22.05ZM44.255 22.05C44.255 21.599 43.8894 21.2333 43.4384 21.2333C42.9873 21.2333 42.6217 21.599 42.6217 22.05C42.6217 22.501 42.9873 22.8667 43.4384 22.8667C43.8894 22.8667 44.255 22.501 44.255 22.05ZM15.3888 25.0512C15.405 25.0625 15.4219 25.0729 15.4394 25.0822C20.7257 28.4545 27.725 27.1154 31.3932 22.03C35.0614 16.9446 34.1235 9.88029 29.2555 5.92812C24.3876 1.97594 17.2813 2.50945 13.058 7.14416C13.0168 7.1807 12.9796 7.22149 12.9469 7.26584C10.6488 9.84417 9.59571 13.3 10.0655 16.7218C10.5353 20.1435 12.4808 23.1877 15.3888 25.0512ZM13.4925 14.41C12.811 14.1242 12.2237 13.6526 11.7974 13.049C11.0205 16.8072 12.4219 20.6833 15.4231 23.0757C15.572 22.4671 15.5605 21.8303 15.3896 21.2276C15.1642 19.9307 15.1225 19.3517 15.869 17.4431C16.1231 16.8818 16.2955 16.2869 16.381 15.6767C16.4271 15.1097 15.7729 14.9761 14.9465 14.8074L14.9464 14.8074C14.4848 14.7131 13.9695 14.6079 13.4925 14.41ZM25.8511 24.4755C24.2836 25.1589 22.5681 25.4322 20.8659 25.2697C22.3994 24.4774 24.1471 24.1989 25.8511 24.4755ZM27.9548 23.2309C26.0351 22.6781 24.0076 22.6141 22.0568 23.0447C20.8088 23.3736 19.652 23.9824 18.6742 24.825C18.0517 24.6242 17.45 24.3639 16.8775 24.0475C17.2067 23.0449 17.2508 21.9705 17.0049 20.9442L17.0004 20.9181C16.8244 19.8983 16.7758 19.6168 17.3961 18.0336C17.711 17.3268 17.9191 16.577 18.0135 15.809C18.1053 14.8581 17.5597 13.9604 16.6734 13.604C16.1969 13.3954 15.7171 13.296 15.2582 13.2008L15.2582 13.2008C14.0856 12.9578 13.0495 12.7431 12.5541 10.8085C12.9268 10.0044 13.4026 9.25221 13.9694 8.57088C15.591 8.56254 17.206 8.36354 18.7812 7.97797C20.55 7.62548 22.0846 6.53557 23.0001 4.98163C23.776 5.07447 24.5384 5.25727 25.2721 5.52634C24.567 6.10454 23.7812 6.57665 22.9397 6.92774C21.6902 7.43565 20.7525 8.50168 20.408 9.80567C20.0609 11.7477 21.7473 13.0429 23.4599 13.4243C26.4441 14.0867 25.7445 15.9534 25.058 17.7849C24.7719 18.5482 24.4881 19.3053 24.4742 19.9666C24.4497 20.6231 24.7037 21.2593 25.1737 21.7184C25.6436 22.1774 26.2856 22.4165 26.9413 22.3766C28.0603 22.2937 29.1269 21.8696 29.9973 21.1614C29.4181 21.9442 28.7307 22.6407 27.9556 23.23L27.9548 23.2309ZM15.8485 6.82811C17.3627 5.73456 19.1499 5.0811 21.0123 4.93997C19.7653 6.27196 17.802 6.62476 15.8485 6.82811ZM31.3317 18.7212C30.2811 19.0373 29.5706 19.4997 28.9503 19.9033C28.3384 20.3016 27.8143 20.6426 27.1381 20.7294C26.8439 20.7864 26.5393 20.7164 26.2994 20.5367C25.88 20.1599 26.1773 19.3947 26.5525 18.4286L26.5526 18.4286C26.8898 17.5605 27.29 16.5301 27.29 15.4733C27.2843 13.6473 26.016 12.3194 23.8119 11.8302C23.7302 11.8122 21.7857 11.3639 22.0152 10.0948C22.2702 9.32332 22.8576 8.70682 23.6159 8.41489C24.8327 7.9194 25.9394 7.18774 26.8719 6.26216C31.2278 8.7469 33.1213 14.0367 31.3317 18.7212ZM14.855 28.5833H28.7383C29.1894 28.5833 29.555 28.9489 29.555 29.4C29.555 29.851 29.1894 30.2166 28.7383 30.2166H14.855C14.404 30.2166 14.0383 29.851 14.0383 29.4C14.0383 28.9489 14.404 28.5833 14.855 28.5833Z" fill="white"/>
</svg>
