<svg width="72" height="72" viewBox="0 0 72 72" fill="none" xmlns="http://www.w3.org/2000/svg">
<g clip-path="url(#clip0)">
<path d="M0 8.4V58.8C0.00529037 63.437 3.763 67.1947 8.4 67.2H10.8V69.6C10.7992 70.4335 11.2309 71.2078 11.9404 71.6452C12.65 72.0827 13.5356 72.1207 14.28 71.7456L16.8 70.482L19.326 71.7456C20.0699 72.1178 20.9534 72.0784 21.6611 71.6413C22.3688 71.2042 22.7998 70.4318 22.8 69.6V67.2H51.6C53.5882 67.2 55.2 65.5882 55.2 63.6V60H69.6C70.9255 60 72 58.9255 72 57.6V45.6C72 44.2745 70.9255 43.2 69.6 43.2H55.2V40.8H69.6C70.9255 40.8 72 39.7255 72 38.4V26.4C72 25.0745 70.9255 24 69.6 24H55.2V21.6H69.6C70.9255 21.6 72 20.5255 72 19.2V7.2C72 5.87452 70.9255 4.8 69.6 4.8H55.2V3.6C55.2 1.61177 53.5882 0 51.6 0H8.4C3.763 0.00529037 0.00529037 3.763 0 8.4ZM2.4 8.4C2.40313 6.01713 3.81606 3.86195 6 2.9088V50.7468C4.63024 51.1494 3.38933 51.9027 2.4 52.932V8.4ZM17.88 68.3352C17.2034 67.9992 16.4086 67.9992 15.732 68.3352L13.2 69.6V60H20.4V69.6L17.88 68.3352ZM22.8 60H27.6C28.2627 60 28.8 59.4627 28.8 58.8C28.8 58.1373 28.2627 57.6 27.6 57.6H7.2C6.53726 57.6 6 58.1373 6 58.8C6 59.4627 6.53726 60 7.2 60H10.8V64.8H8.4C5.08629 64.8 2.4 62.1137 2.4 58.8C2.4 55.4863 5.08629 52.8 8.4 52.8H47.076C45.1085 56.5581 45.1085 61.0419 47.076 64.8H22.8V60ZM54.9792 50.4H69.6V52.8H51.6C53.1201 52.7937 54.4725 51.8332 54.9792 50.4ZM52.8 63.6C52.8 64.2627 52.2627 64.8 51.6 64.8H49.8468C48.8966 63.3562 48.2888 61.7145 48.0696 60H52.8V63.6ZM48.0696 57.6C48.1672 56.7801 48.361 55.9746 48.6468 55.2H69.6V57.6H48.0696ZM69.6 45.6V48H55.2V45.6H69.6ZM69.6 26.4V38.4H55.2V26.4H69.6ZM60 19.2V7.2H63.6V19.2H60ZM69.6 19.2H66V7.2H69.6V19.2ZM57.6 7.2V19.2H55.2V7.2H57.6ZM52.8 3.6V49.2C52.8 49.8627 52.2627 50.4 51.6 50.4H8.4V2.4H51.6C52.2627 2.4 52.8 2.93726 52.8 3.6Z" fill="#041E42"/>
<path d="M62.4002 36C64.3885 36 66.0002 34.3882 66.0002 32.4C66.0002 30.4118 64.3885 28.8 62.4002 28.8C60.412 28.8 58.8002 30.4118 58.8002 32.4C58.8002 34.3882 60.412 36 62.4002 36ZM62.4002 31.2C63.063 31.2 63.6002 31.7372 63.6002 32.4C63.6002 33.0627 63.063 33.6 62.4002 33.6C61.7375 33.6 61.2002 33.0627 61.2002 32.4C61.2002 31.7372 61.7375 31.2 62.4002 31.2Z" fill="#041E42"/>
<path d="M21.1844 36.8099C21.2083 36.8265 21.2332 36.8418 21.2588 36.8555C29.0264 41.8107 39.3111 39.843 44.7011 32.3706C50.0911 24.8982 48.7131 14.518 41.5601 8.71071C34.4072 2.90343 23.9653 3.68736 17.7596 10.4975C17.6991 10.5512 17.6444 10.6112 17.5964 10.6763C14.2195 14.4649 12.6722 19.5428 13.3625 24.5707C14.0528 29.5987 16.9114 34.0717 21.1844 36.8099ZM15.9044 19.1699C16.531 20.0588 17.3951 20.7533 18.398 21.1739C20.354 21.9851 22.748 21.7367 22.6424 23.0351C22.5168 23.9318 22.2634 24.8059 21.89 25.6307C20.7932 28.4351 20.8544 29.2859 21.1856 31.1915C21.4367 32.0772 21.4537 33.0129 21.2348 33.9071C16.8226 30.39 14.7635 24.6902 15.9092 19.1651L15.9044 19.1699ZM29.2244 37.1351C31.4797 35.9677 34.0509 35.5571 36.5576 35.9639C34.2523 36.969 31.729 37.3705 29.2256 37.1303L29.2244 37.1351ZM39.6488 34.1351C36.828 33.323 33.8489 33.2289 30.9824 33.8615C29.1485 34.3449 27.4487 35.2395 26.012 36.4775C25.0973 36.1826 24.2132 35.8 23.372 35.3351C23.8557 33.8619 23.9205 32.2831 23.5592 30.7751C23.2952 29.2451 23.2148 28.8443 24.134 26.4983C24.5968 25.4597 24.9025 24.3581 25.0412 23.2295C25.1761 21.8323 24.3744 20.5132 23.072 19.9895C20.5832 18.8999 18.032 19.8371 17.0192 15.8819C17.5668 14.7004 18.2659 13.5951 19.0988 12.5939C21.4816 12.5817 23.8547 12.2893 26.1692 11.7227C28.7683 11.2048 31.0232 9.6033 32.3684 7.31994C33.5085 7.45637 34.6288 7.72498 35.7068 8.12035C34.6708 8.96994 33.5162 9.66366 32.2796 10.1795C30.4437 10.9259 29.0658 12.4923 28.5596 14.4083C28.0496 17.2619 30.5276 19.1651 33.044 19.7255C39.2564 21.1043 34.604 26.0351 34.5344 29.3387C34.4984 30.3033 34.8717 31.2382 35.5623 31.9127C36.2528 32.5872 37.1961 32.9385 38.1596 32.8799C39.8039 32.7581 41.3711 32.1349 42.65 31.0943C41.799 32.2445 40.7889 33.2679 39.65 34.1339L39.6488 34.1351ZM21.86 10.0331C24.085 8.4263 26.711 7.46611 29.4476 7.25874C27.6152 9.21594 24.7304 9.73434 21.86 10.0331ZM44.6108 27.5087C41.5436 28.4315 40.4492 30.2027 38.4488 30.4595C38.0165 30.5433 37.5688 30.4405 37.2164 30.1763C36.0464 29.1251 38.672 26.0171 38.672 22.7363C38.6636 20.0531 36.8 18.1019 33.5612 17.3831C33.4412 17.3567 30.584 16.6979 30.9212 14.8331C31.2959 13.6996 32.1591 12.7937 33.2732 12.3647C35.0613 11.6367 36.6874 10.5616 38.0576 9.20155C44.4581 12.8526 47.2404 20.6253 44.6108 27.5087Z" fill="#041E42"/>
<path d="M40.8001 41.9999H20.4001C19.7374 41.9999 19.2001 42.5372 19.2001 43.1999C19.2001 43.8627 19.7374 44.3999 20.4001 44.3999H40.8001C41.4629 44.3999 42.0001 43.8627 42.0001 43.1999C42.0001 42.5372 41.4629 41.9999 40.8001 41.9999Z" fill="#041E42"/>
</g>
<defs>
<clipPath id="clip0">
<rect width="72" height="72" fill="white"/>
</clipPath>
</defs>
</svg>
