<svg xmlns="http://www.w3.org/2000/svg" width="50" height="49" fill="none" viewBox="0 0 50 49"><path fill="#fff" d="M49.1293 9.14933C48.7555 8.73189 48.2678 8.43254 47.7263 8.28791C41.715 6.82479 35.7982 7.62829 30.2507 8.57717H30.2503C29.4319 8.71769 28.6142 8.86306 27.7961 9.00844C26.9818 9.15307 26.1671 9.29845 25.3527 9.43747C19.6262 10.4177 13.5428 11.2134 7.5292 9.47335V7.23626C8.89851 6.16928 9.4348 4.34739 8.86114 2.709C8.28785 1.07023 6.7328 -0.0195416 4.99686 0.000265586C3.26093 0.0200729 1.73128 1.14535 1.19537 2.79682C0.659451 4.44792 1.23722 6.25711 2.63083 7.29231V46.5506C2.62597 47.1971 2.88347 47.8183 3.34427 48.272C3.79983 48.7402 4.42656 49.003 5.07983 49C6.43195 48.9985 7.5277 47.9027 7.5292 46.5506V35.6678C9.13022 36.095 10.7664 36.3772 12.4179 36.511C12.4272 36.511 12.4354 36.5147 12.4448 36.5147L12.4496 36.5136C13.3794 36.5913 14.3063 36.6306 15.2297 36.6313C18.7203 36.5622 22.1989 36.197 25.6282 35.5397C26.4462 35.3995 27.2639 35.2541 28.082 35.1088C28.8964 34.9638 29.7111 34.8187 30.5254 34.6797H30.5262C35.9036 33.7581 41.6324 32.9763 47.3406 34.3673C47.8508 34.5003 48.3912 34.4536 48.8706 34.2346H48.871C49.0011 34.1748 49.1237 34.1008 49.2373 34.0141C49.725 33.6213 50.0008 33.0234 49.9825 32.3974V11.1708C49.9612 10.4428 49.6783 9.74654 49.1849 9.21025C49.1674 9.18895 49.1491 9.16877 49.1293 9.14933ZM5.89641 10.0866V46.5506C5.89566 47.0013 5.53054 47.3664 5.07983 47.3668C4.86008 47.3676 4.64968 47.2771 4.49869 47.1175C4.34659 46.9684 4.26138 46.7636 4.26362 46.5506V8.03266C4.8029 8.14253 5.359 8.13767 5.89641 8.01808V10.0866ZM5.04619 6.47835C4.06929 6.47872 3.18842 5.89011 2.8147 4.98758C2.44061 4.08504 2.64728 3.04647 3.33791 2.35546C4.02892 1.66482 5.0675 1.45815 5.97003 1.83187C6.87257 2.20597 7.46118 3.08683 7.46081 4.06374C7.45931 5.3968 6.37926 6.47685 5.04619 6.47835ZM31.2048 10.0717C34.2391 9.51184 37.3129 9.19381 40.3976 9.12131C37.2176 11.0011 34.1483 13.0626 31.2048 15.2948V10.0717ZM31.2048 17.3279C35.0893 14.279 39.2342 11.5778 43.5926 9.25622C44.4574 9.33769 45.3233 9.45691 46.1896 9.62508C41.2486 11.4929 36.4067 14.7705 31.8607 18.1078C31.6421 18.1429 31.4227 18.1777 31.2048 18.2136V17.3279ZM24.6737 11.2085V16.5584C21.518 15.2929 18.4516 13.8152 15.4958 12.135C18.5749 12.0666 21.6435 11.7568 24.6737 11.2085ZM12.1667 11.9978C16.1151 14.5171 20.3049 16.6361 24.6737 18.3238V19.3497C24.3825 19.3986 24.0907 19.4465 23.7973 19.4928C18.8533 17.5293 14.1956 14.9099 9.94942 11.7052C10.6901 11.8327 11.429 11.9302 12.1667 11.9975V11.9978ZM7.5292 11.8566C11.5291 15.1479 15.9682 17.866 20.7182 19.9327C20.6233 19.9443 20.5287 19.957 20.4334 19.9682C20.2155 19.9936 19.9969 20.0164 19.7783 20.0396C19.637 20.0545 19.4958 20.0706 19.3537 20.0844C19.14 20.1053 18.9255 20.1233 18.7109 20.1416C18.5633 20.1543 18.4157 20.1678 18.2677 20.179C18.2318 20.182 18.1956 20.1835 18.1593 20.1861C14.325 18.2539 10.7525 15.8404 7.5292 13.0039V11.8566ZM7.5292 17.0917V15.1599C9.84366 17.0875 12.3244 18.8067 14.942 20.2967C14.7562 20.2952 14.5705 20.2907 14.3844 20.2859C14.2166 20.2817 14.0495 20.2776 13.8817 20.2709C13.6866 20.2627 13.4916 20.2515 13.2961 20.2399C13.1231 20.2294 12.95 20.2193 12.7766 20.2059C12.5845 20.1909 12.3921 20.1734 12.1996 20.1543C12.0239 20.1371 11.8487 20.1199 11.6726 20.0994C11.4828 20.0773 11.2929 20.0519 11.1031 20.0257C10.9237 20.0015 10.744 19.9757 10.5646 19.9473C10.3785 19.9177 10.1923 19.8852 10.0062 19.852C9.8231 19.8187 9.63998 19.7843 9.45685 19.7469C9.27336 19.7096 9.09098 19.6696 8.90786 19.6285C8.72174 19.5862 8.53526 19.5414 8.34914 19.4951C8.16938 19.4498 7.99 19.402 7.81024 19.3523C7.71643 19.3265 7.62263 19.2977 7.5292 19.2708V17.0917ZM7.5292 25.8719C7.54826 25.8767 7.56732 25.8808 7.58638 25.8857C7.7127 25.9197 7.83939 25.9477 7.96533 25.9795C8.21722 26.043 8.46911 26.1066 8.721 26.1619C8.86114 26.1929 9.00166 26.2183 9.14181 26.2471C9.37875 26.2953 9.61606 26.3435 9.853 26.3854C10.0002 26.4111 10.1475 26.4328 10.2947 26.456C10.5246 26.4926 10.7544 26.5289 10.9839 26.5599C11.1352 26.5801 11.2862 26.5969 11.4372 26.6144C11.6622 26.641 11.8868 26.6671 12.1114 26.6881C12.2657 26.7026 12.4201 26.7146 12.5744 26.7269C12.7949 26.7445 13.0154 26.7609 13.2348 26.7737C13.3921 26.783 13.5491 26.7901 13.7061 26.7968C13.9232 26.8065 14.14 26.8148 14.3567 26.82C14.5144 26.8237 14.6721 26.8267 14.8302 26.8282C14.8642 26.8286 14.8986 26.8297 14.933 26.8297C12.6017 28.2327 10.1176 29.3647 7.5292 30.2033V25.8719ZM7.5292 31.9026C11.3352 30.7063 14.9461 28.9592 18.2464 26.7176C18.4318 26.7038 18.6164 26.6881 18.8014 26.6724C18.9598 26.6589 19.1183 26.6458 19.276 26.6313C19.4842 26.6118 19.6916 26.5902 19.8994 26.5681C20.0578 26.552 20.2163 26.5356 20.374 26.5177C20.4297 26.5113 20.4858 26.5053 20.5411 26.499C16.327 29.4618 11.9253 32.1478 7.5292 33.5055V31.9026ZM24.6737 34.0448C21.642 34.6027 18.5708 34.9189 15.4891 34.9907C18.6661 33.112 21.7329 31.0524 24.6737 28.822V34.0448ZM24.6737 26.789C20.7911 29.8363 16.648 32.5364 12.2923 34.8576C11.42 34.7758 10.547 34.6584 9.67436 34.4891C14.6082 32.6261 19.455 29.3579 24.017 26.009C24.236 25.9739 24.4554 25.9395 24.6737 25.9029V26.789ZM31.2048 32.909V27.5588C34.3579 28.8231 37.4213 30.2993 40.3745 31.9777C37.2984 32.0472 34.2323 32.3585 31.2048 32.909ZM43.7092 32.1175C39.7616 29.599 35.5729 27.4804 31.2048 25.793V24.7671C31.4963 24.7182 31.789 24.6704 32.0823 24.624C37.0297 26.5864 41.69 29.2066 45.9377 32.4135C45.1929 32.2849 44.4499 32.1863 43.7092 32.1175ZM48.3497 32.2636C44.3505 28.9704 39.9118 26.2516 35.1618 24.1845C35.2758 24.1707 35.3894 24.1554 35.5034 24.1419C35.5882 24.1322 35.673 24.124 35.7579 24.1143C36.0333 24.0832 36.3091 24.0533 36.5853 24.0268C36.6873 24.0167 36.7893 24.0089 36.8918 23.9995C37.1515 23.976 37.4116 23.9528 37.6721 23.9334L37.7184 23.9304C41.5532 25.8625 45.126 28.2764 48.3497 31.1129V32.2636ZM48.3497 28.9569C46.0352 27.0289 43.5545 25.3098 40.9365 23.8201H40.9474C41.0928 23.8213 41.2381 23.8254 41.3839 23.828C41.6036 23.8328 41.8234 23.8384 42.0435 23.8478C42.196 23.8541 42.3488 23.8635 42.5009 23.8721C42.7147 23.884 42.9285 23.8975 43.1422 23.9139C43.3 23.9263 43.4573 23.9416 43.615 23.9565C43.8235 23.976 44.0321 23.9973 44.241 24.0219C44.4043 24.041 44.568 24.0627 44.7313 24.0851C44.9342 24.1124 45.1372 24.1415 45.3397 24.1737C45.5075 24.2006 45.6757 24.2297 45.8431 24.26C46.0423 24.2955 46.2408 24.3336 46.4392 24.3736C46.6111 24.4087 46.783 24.4465 46.9549 24.4854C47.1493 24.5291 47.3432 24.5754 47.5376 24.624C47.7125 24.6681 47.8878 24.7144 48.0627 24.7627C48.158 24.7892 48.2536 24.8183 48.3489 24.846L48.3497 28.9569ZM48.3497 23.1433C48.3209 23.1355 48.2925 23.1299 48.2637 23.122C48.0937 23.0768 47.9244 23.0387 47.7543 22.9972C47.5271 22.9415 47.2999 22.8843 47.0727 22.8354C46.8907 22.7958 46.7087 22.7625 46.5267 22.727C46.3121 22.6851 46.0976 22.6422 45.8835 22.6055C45.694 22.573 45.5049 22.5461 45.3158 22.5181C45.1095 22.4871 44.9032 22.4561 44.6973 22.4299C44.5033 22.4052 44.3101 22.3847 44.1169 22.3645C43.9151 22.3428 43.7133 22.3215 43.5115 22.3043C43.3156 22.2875 43.1206 22.2737 42.9251 22.2606C42.7267 22.2471 42.5282 22.2344 42.3301 22.2247C42.1336 22.2154 41.937 22.2079 41.7408 22.2019C41.5442 22.1959 41.3473 22.1907 41.1511 22.1881C40.9545 22.1855 40.7579 22.1844 40.5617 22.1847C40.3655 22.1851 40.1708 22.1873 39.9753 22.1907C39.7802 22.1941 39.584 22.1989 39.389 22.2053C39.1935 22.2113 38.9977 22.2199 38.8022 22.2288C38.609 22.2382 38.4158 22.2475 38.2226 22.2591C38.0264 22.2711 37.8305 22.2849 37.6343 22.2991C37.443 22.3133 37.2513 22.3271 37.0603 22.3436C36.8637 22.3596 36.6679 22.3791 36.4721 22.3978C36.2826 22.4161 36.0935 22.434 35.9051 22.4542C35.7044 22.4755 35.5049 22.499 35.3053 22.5226C35.1237 22.5435 34.942 22.5641 34.7608 22.5869C34.553 22.613 34.3456 22.641 34.1385 22.6691C33.9651 22.6926 33.7917 22.715 33.6187 22.7393C33.3971 22.7707 33.1766 22.804 32.9557 22.8372C32.8006 22.8604 32.6455 22.8828 32.4904 22.9068C32.2367 22.946 31.984 22.9867 31.731 23.0275C31.6088 23.0469 31.4862 23.066 31.3648 23.0861C30.9918 23.1471 30.6207 23.2095 30.2503 23.273C29.8587 23.3403 29.5724 23.68 29.572 24.0776V33.1871C28.9801 33.2899 28.3881 33.3945 27.7961 33.501C27.2998 33.5888 26.8035 33.6767 26.3065 33.7645V24.9379C26.3113 24.5788 26.0744 24.2611 25.7291 24.1636C25.6977 24.1561 25.6663 24.1509 25.6345 24.1471C25.5874 24.1341 25.5388 24.1255 25.4903 24.1214C25.4439 24.1214 25.3979 24.1255 25.3524 24.1329C24.9835 24.1961 24.6128 24.2581 24.2409 24.3194L24.2308 24.3213C23.8653 24.3811 23.4983 24.4394 23.1302 24.4966C23.0943 24.5022 23.0581 24.507 23.0222 24.513C22.6885 24.5638 22.3536 24.6132 22.018 24.661C21.9504 24.6707 21.8823 24.6789 21.8151 24.6883C21.5094 24.7305 21.2029 24.772 20.8961 24.8105C20.8109 24.821 20.7257 24.8299 20.6405 24.8404C20.3527 24.8751 20.0646 24.9092 19.7753 24.9398C19.6692 24.951 19.5623 24.9604 19.4558 24.9712C19.1859 24.9981 18.9157 25.0243 18.6448 25.0471C18.5278 25.0572 18.4101 25.0646 18.2928 25.0736C18.0334 25.0934 17.7733 25.1125 17.5128 25.1278C17.3842 25.1356 17.2549 25.1405 17.126 25.1468C16.8763 25.1596 16.6267 25.1715 16.3763 25.179C16.2388 25.1831 16.1009 25.1846 15.963 25.1876C15.7215 25.1924 15.4798 25.1966 15.2376 25.1966C15.0922 25.1966 14.9468 25.1936 14.8014 25.1917C14.566 25.1891 14.3309 25.185 14.0951 25.1771C13.9434 25.1719 13.7913 25.1637 13.6392 25.1566C13.4105 25.1457 13.1825 25.1334 12.9541 25.1173C12.7949 25.1061 12.6357 25.0915 12.4762 25.0777C12.2538 25.0583 12.0314 25.0377 11.8091 25.0131C11.645 24.9947 11.4809 24.9734 11.3169 24.9525C11.1001 24.9245 10.883 24.8946 10.6658 24.8613C10.4958 24.8352 10.3258 24.806 10.1561 24.7765C9.94493 24.7395 9.73416 24.701 9.52338 24.6584C9.34773 24.6233 9.17283 24.5855 8.99755 24.5463C8.79238 24.5007 8.5872 24.4525 8.38203 24.4013C8.20115 24.3561 8.02027 24.3086 7.83939 24.2585C7.73587 24.2301 7.63235 24.1987 7.52883 24.1688V20.9731L7.5505 20.9787C7.92609 21.0796 8.30131 21.1719 8.67615 21.2553C8.77631 21.2773 8.87609 21.2942 8.97625 21.3155C9.2528 21.3734 9.52936 21.4309 9.80554 21.4799C9.95689 21.5068 10.1079 21.5277 10.2589 21.5516C10.4835 21.5879 10.7084 21.6253 10.9327 21.6559C11.0982 21.6783 11.2631 21.6952 11.4282 21.715C11.6386 21.7393 11.849 21.7658 12.0591 21.7863C12.2291 21.8024 12.3992 21.8144 12.5692 21.8278C12.7733 21.8443 12.9781 21.8615 13.1825 21.8738C13.3544 21.8839 13.5259 21.8906 13.6978 21.8981C13.9 21.9071 14.1022 21.9164 14.3044 21.9216C14.4759 21.9261 14.6467 21.9276 14.8179 21.9299C14.955 21.9313 15.0922 21.9362 15.229 21.9362C15.285 21.9362 15.3407 21.9336 15.3964 21.9332C15.6804 21.9317 15.9637 21.9257 16.2466 21.9183C16.3786 21.9145 16.5105 21.9134 16.6424 21.9086C17.0524 21.8936 17.4612 21.873 17.8693 21.8469C17.9074 21.8443 17.9452 21.8405 17.9829 21.8383C18.3563 21.8129 18.7285 21.7834 19.1 21.7497C19.2484 21.7363 19.3964 21.7202 19.5443 21.7056C19.8056 21.6798 20.0661 21.6533 20.3262 21.6241C20.4943 21.6051 20.6618 21.5849 20.8292 21.5644C21.0706 21.5352 21.3109 21.5049 21.5512 21.4735C21.7224 21.4511 21.8932 21.4279 22.0636 21.4044C22.3035 21.3711 22.5431 21.3368 22.7819 21.3013C22.9452 21.277 23.1085 21.2534 23.2707 21.2284C23.5293 21.1888 23.7872 21.1484 24.0443 21.1065C24.1848 21.0841 24.3254 21.0621 24.4655 21.0393C24.8542 20.9754 25.2417 20.9107 25.6274 20.8446C26.0198 20.7777 26.3068 20.4376 26.3065 20.0392V10.9297C26.8984 10.827 27.4904 10.7223 28.0824 10.6158C28.5787 10.528 29.0754 10.4402 29.572 10.3523V19.1789C29.572 19.4196 29.6782 19.6483 29.8624 19.8034C30.047 19.9574 30.2892 20.0231 30.5265 19.9839C30.8887 19.9218 31.2523 19.8609 31.617 19.8008C31.7542 19.778 31.8925 19.7567 32.03 19.7346C32.2587 19.6976 32.4871 19.6606 32.7169 19.6251C32.8869 19.599 33.0581 19.5743 33.2289 19.5489C33.4266 19.5194 33.6239 19.4895 33.8224 19.4614C34.013 19.4341 34.2047 19.4099 34.3957 19.3841C34.5754 19.3601 34.7541 19.3351 34.9338 19.3127C35.1285 19.288 35.3244 19.2667 35.5194 19.2439C35.6992 19.223 35.879 19.2009 36.0583 19.1819C36.2512 19.1613 36.4444 19.1438 36.6376 19.1254C36.8204 19.1079 37.0027 19.0892 37.1859 19.0739C37.3806 19.0574 37.5764 19.044 37.7719 19.0298C37.9535 19.0167 38.1351 19.0029 38.3171 18.9917C38.5141 18.9801 38.7114 18.9718 38.9087 18.9629C39.09 18.9547 39.2716 18.9453 39.4532 18.9393C39.6513 18.933 39.8498 18.9307 40.0478 18.9274C40.2298 18.9244 40.4111 18.9206 40.5931 18.9203C40.7912 18.9203 40.9896 18.9236 41.1877 18.927C41.3708 18.9296 41.5539 18.9322 41.737 18.9382C41.9333 18.9449 42.1298 18.9547 42.3264 18.9651C42.5125 18.9745 42.699 18.9842 42.8851 18.9969C43.0795 19.0107 43.2738 19.0279 43.4681 19.0455C43.6561 19.0623 43.8445 19.0795 44.0328 19.1C44.2264 19.1213 44.42 19.1464 44.6136 19.1714C44.8031 19.1961 44.9929 19.2222 45.1824 19.251C45.3741 19.2805 45.5662 19.3134 45.7579 19.3471C45.9493 19.3807 46.1414 19.4158 46.3331 19.4543C46.5222 19.4917 46.7117 19.5328 46.9008 19.575C47.0958 19.6188 47.2909 19.6647 47.4856 19.7133C47.6717 19.7597 47.8575 19.8086 48.0429 19.8602C48.1453 19.8882 48.2469 19.9192 48.3493 19.9488L48.3497 23.1433ZM48.3497 18.245C48.3362 18.2412 48.3231 18.2394 48.3101 18.2356C47.7398 18.0828 47.1698 17.9557 46.6007 17.8432C46.4837 17.82 46.3663 17.7961 46.2497 17.7748C45.6936 17.672 45.1379 17.5865 44.5833 17.5173C44.4832 17.505 44.3834 17.4957 44.2832 17.4848C43.7477 17.4246 43.2136 17.3768 42.6803 17.345C42.6261 17.3421 42.5723 17.3372 42.5185 17.3338C41.9919 17.3051 41.4672 17.2923 40.9429 17.2879C43.2749 15.8845 45.7602 14.7525 48.3497 13.9135V18.245ZM48.3497 12.2138C44.5426 13.4105 40.9313 15.158 37.6302 17.4004C37.0827 17.4403 36.5371 17.4893 35.9941 17.5472C35.9257 17.5547 35.8569 17.5607 35.7885 17.5682C35.6364 17.5842 35.4847 17.6025 35.3326 17.6201C39.4955 14.6912 43.8527 12.0292 48.2151 10.6551C48.2977 10.8146 48.3437 10.991 48.3497 11.1708V12.2138Z"/></svg>