<svg xmlns="http://www.w3.org/2000/svg" width="72" height="72" fill="none" viewBox="0 0 72 72"><path fill="#041E42" d="M42.743 43.1018C42.743 40.9888 41.0242 39.2697 38.9111 39.2697C38.8302 39.2697 38.7499 39.2731 38.6705 39.278V39.7633C38.7503 39.7577 38.8298 39.751 38.9111 39.751C40.7585 39.751 42.2613 41.2543 42.2613 43.1018C42.2613 44.9494 40.7585 46.4524 38.9111 46.4524C38.8569 46.4524 38.8042 46.447 38.7508 46.4442V46.6251V46.9295V47.8822H37.5608V48.5241H40.2615V47.8822H39.2319V46.9192C41.1954 46.7554 42.743 45.1066 42.743 43.1018Z"/><path fill="#041E42" d="M52.4624 16.0184L52.5282 16.5503L51.7311 16.7192L51.6234 17.8559H52.5844L53.8595 17.734L54.5157 16.9489L53.8172 16.678L53.4329 16.2363L52.8562 15.3023L52.5844 13.9852L51.497 14.2031L51.197 14.6695V15.1921L51.7172 15.5496L52.4624 16.0184Z"/><path fill="#041E42" d="M51.5391 16.4543L51.5951 15.7418L50.9625 15.4687L50.0742 15.6751L49.4109 16.7309V17.4175H50.1821L51.5391 16.4543Z"/><path fill="#041E42" d="M33.2544 19.486L33.0575 19.9899H32.1094V20.4797H32.3355C32.3355 20.4797 32.3497 20.5828 32.3694 20.72L32.9496 20.672L33.3092 20.4458L33.4031 19.9924L33.8741 19.9512L34.058 19.5704L33.6268 19.4812L33.2544 19.486Z"/><path fill="#041E42" d="M30.8109 20.3742L30.7758 20.8513L31.4639 20.7938L31.5341 20.3145L31.1216 19.9899L30.8109 20.3742Z"/><path fill="#041E42" d="M71.9883 35.6308C71.9788 34.5773 71.9252 33.5333 71.8265 32.5031C71.4913 29.0718 70.6733 25.7836 69.4406 22.7016C69.3516 22.4743 69.2673 22.2411 69.1711 22.0138C67.5329 18.1441 65.2312 14.6215 62.4186 11.5805C62.2358 11.3814 62.0484 11.1867 61.8608 10.9923C61.3265 10.4403 60.785 9.89993 60.2156 9.38433C53.8171 3.55657 45.3153 0 36 0C26.6064 0 18.0435 3.62233 11.6263 9.53562C10.1309 10.9138 8.75758 12.4209 7.50952 14.031C2.80778 20.1152 0 27.7348 0 36C0 55.8491 16.1497 72 36 72C49.9642 72 62.0859 64.0031 68.0531 52.3524C69.328 49.8658 70.3219 47.2103 70.992 44.4259C71.1608 43.7227 71.3107 43.0103 71.4374 42.2907C71.8007 40.2459 71.9998 38.1433 71.9998 35.9978C71.9952 35.8782 71.9883 35.7551 71.9883 35.6308ZM65.2124 21.2426L65.4186 21.0082C65.6927 21.5401 65.953 22.0781 66.1944 22.6276L65.8499 22.6135L65.21 22.7014V21.2424H65.2124V21.2426ZM60.0092 14.9589L60.0139 13.351C60.5811 13.9511 61.1249 14.5686 61.6452 15.2097L60.9983 16.1741L58.7295 16.1517L58.5891 15.6795L60.0092 14.9589ZM16.5844 10.9664V10.9055H17.304L17.3695 10.6582H18.5472V11.1726L18.2061 11.6237H16.5818V10.9662H16.5844V10.9664ZM17.7365 12.572C17.7365 12.572 18.4582 12.4489 18.5216 12.4489C18.5813 12.4489 18.5216 13.1697 18.5216 13.1697L16.8914 13.2727L16.582 12.9002L17.7365 12.572ZM67.5048 26.8606H64.8703L63.2624 25.6664L61.575 25.8294V26.8606H61.0408L60.4663 26.4505L57.5389 25.7099V23.8137L53.8313 24.1008L52.6804 24.7185H51.2109L50.4867 24.6458L48.7007 25.6395V27.5063L45.0501 30.1418L45.3527 31.268H46.0944L45.8999 32.3401L45.3795 32.5324L45.3527 35.3331L48.5062 38.9284H49.8817L49.9638 38.7103H52.4341L53.1464 38.0517H54.548L55.3169 38.8205L57.4003 39.0361L57.1262 41.8112L59.4466 45.9022L58.2234 48.2365L58.3053 49.3335L59.2685 50.292V52.9336L60.5295 54.6305V56.8287H61.6169C55.556 64.2748 46.3217 69.0397 35.9929 69.0397C17.775 69.0397 2.95423 54.2224 2.95423 36.0022C2.95423 31.4167 3.89526 27.0455 5.59215 23.074V22.044L6.77324 20.6098C7.18334 19.834 7.62289 19.0803 8.09291 18.3434L8.14334 18.9434L6.77344 20.6098C6.34821 21.4136 5.9496 22.2341 5.59235 23.0742V24.9527L6.96225 25.6135V28.2268L8.28051 30.4732L9.35286 30.6362L9.49004 29.8662L8.23028 27.9174L7.98075 26.0236H8.72248L9.03656 27.9749L10.8624 30.6362L10.3923 31.4976L11.549 33.2717L14.4318 33.9842V33.519L15.5839 33.682L15.4762 34.5046L16.3807 34.6711L17.7822 35.0519L19.7591 37.3053L22.2821 37.4952L22.5316 39.5541L20.8008 40.7613L20.7221 42.6L20.4726 43.7272L22.9711 46.8539L23.1622 47.927C23.1622 47.927 24.0679 48.1709 24.1805 48.1709C24.2884 48.1709 26.2102 49.6288 26.2102 49.6288V55.2818L26.8947 55.4763L26.4319 58.0826L27.5837 59.6225L27.3683 62.21L28.8939 64.8867L30.8498 66.5953L32.8128 66.635L33.0048 66L31.5599 64.7838L31.6442 64.1814L31.9008 63.4383L31.9559 62.6837L30.9797 62.6554L30.4875 62.0369L31.2987 61.254L31.4088 60.6658L30.5019 60.4056L30.5545 59.8571L31.8459 59.6602L33.8087 58.7178L34.4673 57.5062L36.5241 54.8717L36.0577 52.8116L36.6893 51.7146L38.5853 51.7707L39.8616 50.758L40.2753 46.7855L41.6954 44.9948L41.945 43.8442L40.656 43.4317L39.8039 42.0313L36.8952 42.002L34.5867 41.1244L34.479 39.4779L33.7103 38.1314L31.6254 38.1021L30.4161 36.2096L29.3474 35.6881L29.2923 36.2647L27.3413 36.3794L26.6288 35.3858L24.5956 34.9732L22.9209 36.9104L20.2854 36.4605L20.0932 33.4898L18.1714 33.1606L18.9389 31.7039L18.7186 30.8672L16.1909 32.5558L14.6019 32.3613L14.0336 31.1191L14.384 29.8372L15.2593 28.2224L17.2761 27.1993H21.1738L21.1609 28.3876L22.5625 29.0402L22.4499 27.0104L23.4599 25.9944L25.4979 24.6549L25.6397 23.7151L27.6707 21.5998L29.8305 20.4022L29.6407 20.2463L31.1044 18.8693L31.64 19.0111L31.8849 19.3182L32.4416 18.7005L32.5788 18.6408L31.9694 18.554L31.3473 18.3549V17.7572L31.6765 17.4889H32.3984L32.7323 17.6354L33.0183 18.2119L33.3687 18.1581V18.1088L33.4696 18.1417L34.4822 17.986L34.6263 17.4891L35.2016 17.6356V18.1736L34.6638 18.5403H34.6674L34.7435 19.131L36.5822 19.6946C36.5822 19.6946 36.5822 19.7016 36.5868 19.7168L37.0062 19.6804L37.0356 18.8859L35.5814 18.2238L35.5015 17.8417L36.7062 17.4316L36.7613 16.2774L35.5015 15.5098L35.4184 13.5598L33.6875 14.4107H33.0534L33.2223 12.927L30.8646 12.3726L29.8931 13.1097V15.3527L28.1435 15.9082L27.4403 17.3695L26.6822 17.4914V15.62L25.0358 15.3914L24.2095 14.8534L23.8789 13.6417L26.8263 11.919L28.2666 11.4794L28.4118 12.4485L29.2169 12.4051L29.279 11.9188L30.1194 11.7979L30.1335 11.6281L29.7736 11.4792L29.6915 10.966L30.724 10.8793L31.3475 10.2312L31.3838 10.1832L31.3908 10.1856L31.5807 9.98869L33.7498 9.71556L34.7072 10.5289L32.1923 11.8683L35.3938 12.6242L35.8064 11.5531H37.2079L37.7001 10.6201L36.7111 10.3728V9.19148L33.6128 7.81917L31.4705 8.06648L30.26 8.69686L30.3421 10.2356L29.0799 10.0434L28.8855 9.1937L30.0972 8.09452L27.8988 7.9866L27.2684 8.17884L26.9943 8.92057L27.8181 9.05895L27.6541 9.88279L26.255 9.96469L26.0347 10.5144L24.0024 10.5703C24.0024 10.5703 23.9473 9.41822 23.8605 9.41822C23.7821 9.41822 25.4544 9.38897 25.4544 9.38897L26.6637 8.20889L26.0038 7.87968L25.1286 8.73156L23.6717 8.64966L22.7835 7.43549H20.9168L18.968 8.88991H20.7528L20.9134 9.41378L20.448 9.85192L22.4263 9.90821L22.7263 10.6207L20.5009 10.5386L20.3907 9.98889L18.9938 9.68651L18.2496 9.27641L16.5844 9.29033C22.0396 5.3166 28.7451 2.96472 35.9954 2.96472C44.3473 2.96472 51.9845 6.08657 57.8064 11.2182L57.4173 11.919L55.8915 12.5165L55.2472 13.2148L55.397 14.0258L56.1823 14.1359L56.658 15.3194L58.0103 14.7721L58.2377 16.3577H57.8252L56.7119 16.1925L55.4791 16.3986L54.2837 18.0885L52.5776 18.3545L52.3313 19.817L53.0532 19.9869L52.8422 20.9279L51.1453 20.587L49.5915 20.9279L49.2608 21.7939L49.5281 23.6114L50.4421 24.0381L51.9772 24.0288L53.0107 23.935L53.3294 23.1124L54.9468 21.01L56.0087 21.2281L57.0562 20.28L57.2531 21.0219L59.8311 22.761L59.517 23.1862L58.3545 23.1241L58.8043 23.7569L59.5217 23.9162L60.3606 23.5658L60.3419 22.5568L60.7169 22.3706L60.4169 22.0529L58.6966 21.0931L58.2419 19.8194H59.674L60.1264 20.2729L61.3638 21.3334L61.413 22.6177L62.6903 23.9759L63.164 22.1138L64.0499 21.6309L64.2117 23.1543L65.0765 24.1024L66.7992 24.0744C67.1343 24.9311 67.4342 25.8017 67.6922 26.6923L67.5048 26.8606ZM19.6324 16.3581L20.4938 15.9458L21.2767 16.1332L21.0096 17.1843L20.1658 17.4504L19.6324 16.3581ZM24.2214 18.8308V19.5106H22.248L21.5038 19.3032L21.689 18.831L22.6371 18.4397H23.9356V18.831H24.2214V18.8308ZM25.131 19.7789V20.4363L24.6342 20.755L24.0201 20.871C24.0201 20.871 24.0201 19.882 24.0201 19.7787H25.131V19.7789ZM24.5742 19.5106V18.7253L25.2526 19.344L24.5742 19.5106ZM24.8835 21.0937V21.7348L24.41 22.2082H23.3589L23.5229 21.4875L24.0197 21.4441L24.1206 21.1968L24.8835 21.0937ZM22.2681 19.7789H23.3591L21.9575 21.7348L21.3822 21.4253L21.5064 20.6015L22.2681 19.7789ZM26.7341 20.871V21.5097H25.6829L25.3971 21.0937V20.4984H25.479L26.7341 20.871ZM25.7696 19.9899L26.0672 19.6758L26.5711 19.9899L26.1678 20.3239L25.7696 19.9899ZM68.0392 28.5292L68.1423 28.4062C68.1891 28.5938 68.2312 28.7812 68.2758 28.9688L68.0392 28.5292Z"/><path fill="#041E42" d="M5.59454 22.0419V23.0719C5.95179 22.2293 6.3504 21.4115 6.77563 20.6062L5.59454 22.0419Z"/></svg>