<svg xmlns="http://www.w3.org/2000/svg" width="49" height="49" fill="none" viewBox="0 0 49 49"><path fill="#fff" fill-rule="evenodd" d="M48.992 24.2488C48.9856 23.5317 48.9491 22.8213 48.8819 22.1202C48.6538 19.785 48.0971 17.5471 47.2582 15.4497C47.2384 15.3993 47.219 15.3484 47.1995 15.2974L47.1994 15.297C47.1592 15.1917 47.1188 15.0857 47.0747 14.9816C45.9599 12.3481 44.3935 9.95071 42.4793 7.88116C42.3549 7.74566 42.2274 7.61319 42.0997 7.48084C41.7361 7.10524 41.3676 6.73746 40.98 6.38656C36.6256 2.42044 30.8396 0 24.5 0C18.1071 0 12.2796 2.4652 7.91233 6.48952C6.89465 7.42744 5.96002 8.45308 5.11065 9.54888C1.91085 13.6895 0 18.8751 0 24.5C0 38.0084 10.9908 49 24.5 49C34.0034 49 42.2529 43.5577 46.3139 35.6287C47.1815 33.9364 47.8579 32.1292 48.314 30.2343C48.4289 29.7558 48.5309 29.2709 48.6171 28.7812C48.8644 27.3895 48.9999 25.9586 48.9999 24.4985L48.9975 24.4419C48.9948 24.3785 48.992 24.3139 48.992 24.2488ZM44.3807 14.4568L44.521 14.2972C44.7076 14.6593 44.8847 15.0254 45.049 15.3993L44.8145 15.3897L44.379 15.4496V14.4566H44.3807V14.4568ZM40.8396 10.1804L40.8428 9.0861C41.2288 9.49452 41.5989 9.91474 41.953 10.351L41.5127 11.0074L39.9687 10.9921L39.8731 10.6708L40.8396 10.1804ZM11.2866 7.46313V7.42181H11.7763L11.8209 7.2535H12.6224V7.60358L12.3902 7.91054H11.2848V7.46313H11.2866ZM12.0706 8.55591C12.0706 8.55591 12.5618 8.47217 12.6049 8.47217C12.6456 8.47217 12.6049 8.96268 12.6049 8.96268L11.4956 9.03283L11.285 8.77927L12.0706 8.55591ZM45.9408 18.2801H44.1479L43.0536 17.4674L41.9052 17.5783V18.2801H41.5417L41.1507 18.001L39.1584 17.497V16.2066L36.6352 16.4019L35.852 16.8223H34.8519L34.359 16.7729L33.1435 17.4491V18.7195L30.6591 20.5132L30.865 21.2796H31.3698L31.2375 22.0093L30.8833 22.1401L30.865 24.0461L33.0112 26.4929H33.9473L34.0032 26.3445H35.6843L36.1691 25.8963H37.1229L37.6463 26.4195L39.0641 26.5663L38.8776 28.4549L40.4567 31.239L39.6242 32.8276L39.68 33.5742L40.3355 34.2265V36.0243L41.1937 37.1791V38.6751H41.9338C37.8089 43.7426 31.5245 46.9854 24.4952 46.9854C12.0969 46.9854 2.01051 36.9014 2.01051 24.5015C2.01051 21.3808 2.65094 18.406 3.80577 15.7032V15.0022L4.22413 14.4942L3.80741 15.0007V15.6998C3.80691 15.7009 3.80641 15.7021 3.80591 15.7033V16.9817L4.7382 17.4314V19.2099L5.63534 20.7387L6.36514 20.8496L6.4585 20.3256L5.60116 18.9993L5.43134 17.7105H5.93613L6.14988 19.0385L7.39244 20.8496L7.07257 21.4358L7.85975 22.6432L9.82166 23.1281V22.8116L10.6057 22.9225L10.5324 23.4823L11.148 23.5956L12.1018 23.8548L13.4472 25.3884L15.1642 25.5175L15.334 26.9188L14.1561 27.7403L14.1026 28.9916L13.9328 29.7588L15.6331 31.8867L15.7632 32.617C15.7632 32.617 16.3796 32.783 16.4562 32.783C16.5296 32.783 17.8375 33.7751 17.8375 33.7751V37.6224L18.3033 37.7547L17.9884 39.5284L18.7723 40.5764L18.6256 42.3374L19.6639 44.159L20.995 45.3218L22.3309 45.3488L22.4616 44.9166L21.4783 44.089L21.5356 43.679L21.7103 43.1733L21.7477 42.6597L21.0834 42.6405L20.7485 42.2196L21.3005 41.6868L21.3754 41.2865L20.7582 41.1094L20.794 40.7361L21.6729 40.6021L23.0087 39.9607L23.4569 39.1362L24.8567 37.3433L24.5393 35.9412L24.9691 35.1946L26.2594 35.2328L27.128 34.5437L27.2864 33.0234H27.4001V32.5865H27.3319L27.4096 31.8401L27.4919 31.7364C28.4294 31.3409 29.089 30.4129 29.089 29.3332C29.089 27.8951 27.9192 26.7252 26.4812 26.7252C26.4261 26.7252 26.3715 26.7276 26.3174 26.7308V27.0612L26.339 27.0596C26.3861 27.0562 26.4332 27.0528 26.4812 27.0528C27.7384 27.0528 28.7612 28.0758 28.7612 29.3332C28.7612 29.7972 28.6219 30.2293 28.3829 30.5898L28.5459 29.8384L27.6686 29.5577L27.0888 28.6046L25.1093 28.5847L23.5382 27.9874L23.4649 26.8669L22.9417 25.9505L21.5229 25.9306L20.6999 24.6426L19.9725 24.2878L19.9351 24.6801L18.6073 24.7582L18.1224 24.082L16.7387 23.8012L15.599 25.1196L13.8054 24.8134L13.6745 22.7916L12.3666 22.5676L12.889 21.5763L12.7391 21.0068L11.0188 22.156L9.93739 22.0237L9.55067 21.1783L9.78913 20.3059L10.3848 19.2069L11.7574 18.5106H14.4099L14.4012 19.3193L15.355 19.7634L15.2784 18.3821L15.9658 17.6906L17.3528 16.779L17.4493 16.1394L18.8314 14.6999L20.3013 13.8848L20.1721 13.7787L21.1683 12.8416L21.5328 12.9381L21.6994 13.1471L22.0783 12.7267L22.1717 12.6861L21.7569 12.627L21.3336 12.4915V12.0848L21.5576 11.9022H22.0489L22.2761 12.0019L22.4708 12.3942L22.7093 12.3576V12.3241L22.7779 12.3464L23.4671 12.2405L23.5651 11.9023L23.9566 12.002V12.3681L23.5906 12.6177H23.5931L23.6449 13.0197L24.8962 13.4032C24.8962 13.4032 24.8962 13.4081 24.8994 13.4183L25.1848 13.3936L25.2048 12.8529L24.2151 12.4023L24.1608 12.1423L24.9806 11.8632L25.0181 11.0777L24.1608 10.5553L24.1042 9.22819L22.9262 9.80725H22.4947L22.6096 8.79753L21.005 8.42027L20.3439 8.92191V10.4484L19.1532 10.8264L18.6747 11.8209L18.1587 11.9038V10.6303L17.0382 10.4747L16.4759 10.1086L16.2509 9.28392L18.2568 8.11152L19.237 7.81238L19.3358 8.47189L19.8837 8.44238L19.926 8.11139L20.4979 8.02915L20.5075 7.91356L20.2626 7.81225L20.2067 7.463L20.9094 7.40397L21.3337 6.96287L21.3584 6.9302L21.3632 6.93185L21.4924 6.79786L22.9686 6.61198L23.6202 7.1655L21.9086 8.07707L24.0875 8.59147L24.3682 7.86249H25.3221L25.657 7.22756L24.9839 7.05925V6.25532L22.8754 5.32138L21.4174 5.48969L20.5936 5.9187L20.6495 6.96589L19.7905 6.83506L19.6582 6.25683L20.4828 5.50877L18.9867 5.43532L18.5577 5.56615L18.3711 6.07094L18.9318 6.16512L18.8202 6.72579L17.868 6.78152L17.7181 7.15562L16.3349 7.19365C16.3349 7.19365 16.2975 6.40962 16.2384 6.40962C16.185 6.40962 17.3231 6.38972 17.3231 6.38972L18.1461 5.58661L17.6971 5.36256L17.1014 5.94231L16.1099 5.88657L15.5055 5.06026H14.2351L12.9088 6.05008H14.1234L14.2327 6.4066L13.916 6.70478L15.2623 6.74308L15.4665 7.22797L13.952 7.17209L13.877 6.798L12.9263 6.59221L12.4199 6.31311L11.2866 6.32259C14.9992 3.61824 19.5626 2.01765 24.4968 2.01765C30.1808 2.01765 35.3783 4.14225 39.3405 7.6346L39.0757 8.11152L38.0372 8.51816L37.5988 8.99343L37.7008 9.54531L38.2352 9.62027L38.5589 10.4257L39.4793 10.0533L39.634 11.1323H39.3532L38.5956 11.0199L37.7566 11.1602L36.9431 12.3102L35.782 12.4913L35.6143 13.4866L36.1057 13.6022L35.9621 14.2426L34.8072 14.0106L33.7497 14.2426L33.5247 14.832L33.7066 16.0689L34.3287 16.3592L35.3734 16.3529L36.0767 16.2891L36.2936 15.7292L37.3943 14.2985L38.117 14.4469L38.8299 13.8016L38.9639 14.3066L40.7184 15.4901L40.5046 15.7795L39.7135 15.7372L40.0196 16.1679L40.5078 16.2763L41.0788 16.0379L41.066 15.3512L41.3212 15.2245L41.1171 15.0082L39.9463 14.355L39.6369 13.4882H40.6114L40.9194 13.7968L41.7615 14.5185L41.795 15.3926L42.6642 16.317L42.9866 15.0497L43.5895 14.721L43.6996 15.7578L44.2882 16.403L45.4606 16.3839C45.6886 16.967 45.8927 17.5595 46.0683 18.1656L45.9408 18.2801ZM5.54199 12.892L4.61028 14.0254C4.61059 14.0248 4.61089 14.0242 4.6112 14.0237L4.61025 14.0248C4.88915 13.4973 5.18806 12.9848 5.50767 12.4837L5.54199 12.892ZM13.361 11.1326L13.9472 10.852L14.48 10.9795L14.2982 11.6949L13.7239 11.876L13.361 11.1326ZM16.484 12.8155V13.278H15.141L14.6345 13.1369L14.7606 12.8155L15.4058 12.5492H16.2895V12.8155H16.484ZM17.103 13.4606V13.908L16.7649 14.1249L16.347 14.2039V13.4605H17.103V13.4606ZM16.7241 13.278V12.7436L17.1858 13.1646L16.7241 13.278ZM16.9346 14.3554V14.7917L16.6124 15.1139H15.897L16.0086 14.6234L16.3467 14.5939L16.4154 14.4256L16.9346 14.3554ZM15.1547 13.4606H15.8971L14.9433 14.7917L14.5518 14.5811L14.6363 14.0205L15.1547 13.4606ZM18.194 14.2039V14.6385H17.4786L17.2841 14.3554V13.9503H17.3399L18.194 14.2039ZM17.5377 13.6042L17.7402 13.3905L18.0831 13.6042L17.8087 13.8316L17.5377 13.6042ZM46.3044 19.4157L46.3746 19.332C46.3956 19.4162 46.4152 19.5003 46.4349 19.5845L46.435 19.5851C46.4451 19.6283 46.4552 19.6716 46.4655 19.7148L46.3044 19.4157ZM35.7036 10.9014L35.7483 11.2634L35.2059 11.3783L35.1326 12.1519H35.7866L36.6544 12.069L37.101 11.5347L36.6256 11.3503L36.364 11.0497L35.9715 10.4141L35.7866 9.51774L35.0465 9.666L34.8424 9.9834V10.3391L35.1964 10.5824L35.7036 10.9014ZM35.1134 10.7132L35.0752 11.1981L34.1517 11.8536H33.6269V11.3863L34.0783 10.6678L34.6828 10.5273L35.1134 10.7132ZM22.6314 13.2613L22.4975 13.6043H21.8522V13.9376H22.0061C22.0061 13.9376 22.0157 14.0077 22.0292 14.1011L22.424 14.0684L22.6688 13.9145L22.7326 13.6059L23.0532 13.5779L23.1784 13.3187L22.8849 13.258L22.6314 13.2613ZM20.9447 14.1905L20.9685 13.8658L21.18 13.6043L21.4607 13.8251L21.4129 14.1513L20.9447 14.1905Z" clip-rule="evenodd"/></svg>