<svg width="50" height="62" viewBox="0 0 50 62" fill="none" xmlns="http://www.w3.org/2000/svg">
<path fill-rule="evenodd" clip-rule="evenodd" d="M18.5008 31.9782H16.5648V30.253C21.1492 28.7464 24.4688 24.4258 24.4688 19.3437V8.18968C24.4688 3.44812 19.6932 0 15.2885 0H10.658C9.36075 0 7.34579 0.377624 5.58138 1.43726C4.58233 2.03724 5.51272 3.58628 6.51165 2.98618C7.96107 2.11566 9.65117 1.80681 10.658 1.80681H15.2885C15.5593 1.80681 21.9114 1.87993 22.662 8.24172V12.0611C21.486 11.1519 20.6788 9.82617 20.2255 8.42445C19.853 7.27291 18.2415 7.07187 17.614 8.11295C14.7864 12.8038 6.0208 12.8601 3.28456 12.7578V8.24172C3.37261 7.49599 3.54269 6.80145 3.79035 6.17653C4.21965 5.09317 2.53979 4.42741 2.11061 5.5109C1.78912 6.3224 1.47787 7.30916 1.47787 8.18968V19.3437C1.47787 24.4258 4.79747 28.7464 9.38195 30.253V31.9782H7.44577C3.5439 31.9782 0.369568 35.1526 0.369568 39.0544V60.7691C0.369568 61.2681 0.774053 61.6726 1.27297 61.6726C1.7719 61.6726 2.17638 61.2681 2.17638 60.7691V39.0545C2.17638 36.1489 4.54029 33.7851 7.44577 33.7851H9.43772C9.73512 35.4655 11.205 36.7461 12.9693 36.7461H12.977C14.7414 36.7461 16.2113 35.4655 16.5087 33.7851H18.5007C21.4063 33.7851 23.7701 36.149 23.7701 39.0546V60.7691C23.7701 61.2681 24.1746 61.6726 24.6735 61.6726C25.1724 61.6726 25.5769 61.2681 25.5769 60.7691V39.0545C25.577 35.1526 22.4027 31.9782 18.5008 31.9782ZM3.28456 19.3437V14.5701C3.6405 14.5841 4.07896 14.5951 4.58366 14.5951C8.3022 14.5951 15.5432 14.0018 18.7505 9.66007C19.8521 12.4342 21.6977 13.7009 22.662 14.1984V19.3437C22.662 24.6777 18.3225 29.0173 12.9885 29.0173H12.958C7.62416 29.0173 3.28456 24.6778 3.28456 19.3437ZM14.7579 33.1584C14.7579 34.1403 13.9591 34.9392 12.9771 34.9392H12.9694C11.9875 34.9392 11.1886 34.1403 11.1886 33.1584V30.8241H14.7579V33.1584ZM16.0669 24.3261C16.4203 23.9738 16.421 23.4019 16.0688 23.0486C15.7165 22.6951 15.1445 22.6943 14.7913 23.0466C13.7894 24.0456 12.1589 24.0457 11.1569 23.0466C10.8035 22.6944 10.2315 22.6951 9.87941 23.0486C9.52708 23.4019 9.52793 23.9739 9.88134 24.3261C10.734 25.1764 11.8541 25.6015 12.9742 25.6015C14.0941 25.6015 15.2142 25.1763 16.0669 24.3261ZM36.5578 22.7348C37.8556 20.8326 40.0384 19.6682 42.3594 19.6682C46.2249 19.6682 49.3696 22.8052 49.3696 26.6611C49.3696 27.1601 48.9651 27.5645 48.4662 27.5645H45.131C45.7697 28.7947 46.133 30.1892 46.133 31.6676V34.1887C46.133 34.6876 45.7285 35.0921 45.2296 35.0921H42.1979C41.8847 35.0921 41.5939 34.9298 41.4292 34.6634L40.665 33.4262L39.7666 34.7074C39.5975 34.9485 39.3214 35.0921 39.0269 35.0921H29.9848V38.2598C29.9848 41.8797 32.343 45.1274 36.032 45.7021C37.9522 46.0011 39.9357 45.5079 41.4733 44.3485C43.0173 43.1842 44.0376 41.4215 44.2723 39.512C44.4146 38.3553 46.2079 38.576 46.0656 39.7326C45.655 43.0718 43.31 45.9738 40.1359 47.0831V47.6013H42.7576C43.2565 47.6013 43.661 48.0057 43.661 48.5047V48.5266C45.7731 49.3789 47.1974 51.4465 47.1974 53.7696V60.7692C47.1974 61.2681 46.7929 61.6726 46.294 61.6726C45.7951 61.6726 45.3906 61.2681 45.3906 60.7692V53.7696C45.3906 52.4518 44.7172 51.2552 43.661 50.5574V60.7692C43.661 61.2681 43.2565 61.6726 42.7576 61.6726C42.2587 61.6726 41.8542 61.2681 41.8542 60.7692V49.408H40.0478C39.7338 50.6361 38.6182 51.5469 37.2936 51.5469C35.9642 51.5469 34.8479 50.6361 34.5338 49.408H32.9194V60.7692C32.9194 61.2681 32.5149 61.6726 32.016 61.6726C31.5171 61.6726 31.1126 61.2681 31.1126 60.7692V50.441C29.9543 51.1166 29.1908 52.3786 29.1908 53.7695V60.7692C29.1908 61.2681 28.7864 61.6726 28.2874 61.6726C27.7885 61.6726 27.384 61.2681 27.384 60.7692V53.7695C27.384 51.3817 28.9155 49.2514 31.1152 48.4523C31.1424 47.9778 31.5346 47.6011 32.016 47.6011H34.4455V47.1789C30.5343 45.9372 28.1779 42.2836 28.1779 38.2596V31.6672C28.1779 26.9302 31.8855 23.0429 36.5578 22.7348ZM38.329 47.5138C37.9345 47.5661 37.5362 47.594 37.1365 47.594C36.842 47.594 36.547 47.5779 36.2522 47.5489V48.7045C36.2522 49.2756 36.7167 49.74 37.2878 49.74C37.8645 49.74 38.329 49.2756 38.329 48.7045V47.5138ZM42.7017 33.285H44.3262H44.3263V31.6673C44.3263 27.7262 41.1094 24.5197 37.1555 24.5197C33.2016 24.5197 29.9848 27.7261 29.9848 31.6673V33.285H38.5571L39.9732 31.2656C40.3397 30.7428 41.1457 30.7661 41.4814 31.3096L42.7017 33.285ZM38.8165 22.869C40.8222 23.2449 42.5938 24.2875 43.8917 25.7575H47.4838C47.0536 23.3271 44.9194 21.475 42.3594 21.475C41.0326 21.475 39.7685 21.9892 38.8165 22.869ZM38.3882 40.6551C37.7081 41.3334 36.6015 41.3334 35.9212 40.6551C35.5678 40.3029 34.9959 40.3036 34.6435 40.6569C34.2912 41.0102 34.292 41.5822 34.6453 41.9345C35.3372 42.6244 36.2459 42.9692 37.1546 42.9692C38.0633 42.9692 38.9722 42.6244 39.6641 41.9345C40.0174 41.5822 40.0181 41.0102 39.6659 40.6569C39.3135 40.3036 38.7416 40.3026 38.3882 40.6551ZM19.4312 40.3114C19.4312 39.8124 19.8357 39.408 20.3346 39.408C20.8335 39.408 21.238 39.8124 21.2379 40.3114V60.7691C21.2379 61.268 20.8334 61.6725 20.3345 61.6725C19.8355 61.6725 19.4311 61.268 19.4311 60.7691V55.9921H6.51632V60.7691C6.51632 61.268 6.11183 61.6725 5.61291 61.6725C5.11399 61.6725 4.7095 61.268 4.7095 60.7691V40.3114C4.7095 39.8124 5.11399 39.408 5.61291 39.408C6.11183 39.408 6.51632 39.8124 6.51632 40.3114V40.6368H19.4312V40.3114ZM19.4311 46.4486H6.51632V50.1803H19.4311V46.4486ZM19.4312 44.6418V42.4436H6.51632V44.6418H19.4312ZM6.51632 51.9871V54.1853H19.4311V51.9871H6.51632Z" fill="white"/>
</svg>
