<svg width="72" height="72" viewBox="0 0 72 72" fill="none" xmlns="http://www.w3.org/2000/svg">
<g clip-path="url(#clip0)">
<path d="M28.5655 37.3331H26.3052V35.3191C31.6574 33.5602 35.5329 28.5161 35.5329 22.583V9.56109C35.5329 4.02553 29.9576 0 24.8153 0H19.4094C17.8949 0 15.5425 0.440859 13.4826 1.67794C12.3163 2.37839 13.4025 4.18683 14.5687 3.48623C16.2608 2.46994 18.2339 2.10938 19.4094 2.10938H24.8153C25.1314 2.10938 32.5472 2.19473 33.4235 9.62184V14.0808C32.0506 13.0193 31.1081 11.4716 30.579 9.83517C30.1442 8.4908 28.2627 8.25609 27.5302 9.47152C24.2291 14.9479 13.9956 15.0135 10.8012 14.8942C10.8012 13.1368 10.8012 11.3794 10.8012 9.62184C10.904 8.75123 11.1026 7.94039 11.3917 7.21083C11.8929 5.94605 9.93171 5.16881 9.43066 6.43373C9.05534 7.38112 8.69196 8.53312 8.69196 9.56109V22.583C8.69196 28.5161 12.5674 33.5602 17.9196 35.3191V37.3331H15.6592C11.104 37.3331 7.39807 41.0392 7.39807 45.5943V70.9453C7.39807 71.5278 7.87029 72 8.45276 72C9.03523 72 9.50745 71.5278 9.50745 70.9453V45.5944C9.50745 42.2023 12.2672 39.4426 15.6592 39.4426H17.9847C18.3319 41.4044 20.048 42.8995 22.1077 42.8995H22.1167C24.1766 42.8995 25.8926 41.4044 26.2399 39.4426H28.5654C31.9575 39.4426 34.7171 42.2024 34.7171 45.5946V70.9453C34.7171 71.5278 35.1894 72 35.7718 72C36.3543 72 36.8265 71.5278 36.8265 70.9453V45.5944C36.8267 41.0392 33.1208 37.3331 28.5655 37.3331ZM10.8012 22.583V17.01C11.2167 17.0263 11.7286 17.0391 12.3178 17.0391C16.6591 17.0391 25.1126 16.3465 28.857 11.2777C30.143 14.5164 32.2977 15.9952 33.4235 16.576V22.583C33.4235 28.8101 28.3574 33.8764 22.1301 33.8764H22.0945C15.8675 33.8764 10.8012 28.8103 10.8012 22.583ZM24.1959 38.711C24.1959 39.8573 23.2632 40.79 22.1169 40.79H22.1079C20.9615 40.79 20.0289 39.8573 20.0289 38.711V35.9858H24.1959V38.711Z" fill="#041E42"/>
<path d="M25.724 28.3996C26.1366 27.9883 26.1374 27.3206 25.7262 26.9082C25.3149 26.4956 24.6471 26.4946 24.2348 26.9059C23.065 28.0721 21.1615 28.0723 19.9918 26.9059C19.5792 26.4947 18.9114 26.4956 18.5004 26.9082C18.089 27.3206 18.09 27.9885 18.5026 28.3996C19.4981 29.3923 20.8058 29.8886 22.1134 29.8886C23.4208 29.8886 24.7285 29.3922 25.724 28.3996Z" fill="#041E42"/>
<path d="M56.4193 22.9617C53.7096 22.9617 51.1614 24.3211 49.6463 26.5419C44.1916 26.9016 39.8631 31.4399 39.8631 36.9701V44.6663C39.8631 49.3642 42.614 53.6296 47.1803 55.0793V55.5722H44.3439C43.7819 55.5722 43.3241 56.012 43.2923 56.5659C40.7242 57.4988 38.9363 59.9859 38.9363 62.7735V70.9453C38.9363 71.5278 39.4085 72 39.991 72C40.5734 72 41.0457 71.5278 41.0457 70.9453V62.7735C41.0457 61.1497 41.9369 59.6764 43.2892 58.8876V70.9453C43.2892 71.5278 43.7614 72 44.3439 72C44.9263 72 45.3986 71.5278 45.3986 70.9453V57.6816H47.2834C47.65 59.1154 48.9533 60.1787 50.5052 60.1787C52.0517 60.1787 53.3541 59.1154 53.7206 57.6816H55.8296V70.9453C55.8296 71.5278 56.3018 72 56.8843 72C57.4667 72 57.9389 71.5278 57.9389 70.9453V59.0236C59.1719 59.8382 59.9582 61.2352 59.9582 62.7736V70.9453C59.9582 71.5278 60.4304 72 61.0129 72C61.5953 72 62.0676 71.5278 62.0676 70.9453V62.7736C62.0676 60.0615 60.4047 57.6477 57.9389 56.6526V56.6271C57.9389 56.0446 57.4667 55.5724 56.8843 55.5724H53.8236V54.9674C57.5292 53.6724 60.2669 50.2844 60.7462 46.386C60.9123 45.0358 58.8187 44.7781 58.6526 46.1286C58.3785 48.3577 57.1874 50.4156 55.3849 51.7749C53.5898 53.1284 51.2742 53.7043 49.0325 53.3551C44.7257 52.6842 41.9725 48.8927 41.9725 44.6666V40.9685H52.5288C52.8726 40.9685 53.195 40.8008 53.3924 40.5193L54.4412 39.0236L55.3334 40.468C55.5257 40.779 55.8651 40.9685 56.2308 40.9685H59.7702C60.3526 40.9685 60.8249 40.4962 60.8249 39.9138V36.9705C60.8249 35.2446 60.4007 33.6166 59.6551 32.1804H63.5488C64.1312 32.1804 64.6034 31.7082 64.6034 31.1257C64.6034 26.624 60.9321 22.9617 56.4193 22.9617ZM50.3218 55.5639C50.7884 55.5639 51.2535 55.5313 51.714 55.4703V56.8604C51.714 57.5271 51.1718 58.0693 50.4985 58.0693C49.8318 58.0693 49.2895 57.5271 49.2895 56.8604V55.5112C49.6336 55.5451 49.978 55.5639 50.3218 55.5639ZM58.7155 38.8588H56.819L55.3943 36.5526C55.0024 35.9181 54.0615 35.8909 53.6336 36.5012L51.9804 38.8588H41.9725V36.9702C41.9725 32.369 45.728 28.6257 50.3441 28.6257C54.9601 28.6257 58.7156 32.3691 58.7156 36.9702V38.8588H58.7155ZM58.2082 30.0707C56.693 28.3545 54.6247 27.1374 52.2831 26.6985C53.3946 25.6714 54.8704 25.0711 56.4193 25.0711C59.4081 25.0711 61.8996 27.2333 62.4018 30.0707H58.2082Z" fill="#041E42"/>
<path d="M51.7831 47.463C50.9892 48.2549 49.6972 48.2549 48.903 47.463C48.4904 47.0518 47.8227 47.0527 47.4114 47.4651C47.0001 47.8776 47.001 48.5454 47.4135 48.9567C48.2212 49.7621 49.2821 50.1647 50.343 50.1647C51.4039 50.1647 52.4649 49.7621 53.2726 48.9567C53.6851 48.5454 53.6859 47.8776 53.2747 47.4651C52.8634 47.0527 52.1957 47.0516 51.7831 47.463Z" fill="#041E42"/>
<path d="M30.7063 46.007C30.1238 46.007 29.6516 46.4793 29.6516 47.0617V47.4417H14.5741V47.0617C14.5741 46.4793 14.1019 46.007 13.5194 46.007C12.9369 46.007 12.4647 46.4793 12.4647 47.0617V70.9452C12.4647 71.5277 12.9369 71.9999 13.5194 71.9999C14.1019 71.9999 14.5741 71.5277 14.5741 70.9452V65.3683H29.6515V70.9452C29.6515 71.5277 30.1237 71.9999 30.7062 71.9999C31.2886 71.9999 31.7609 71.5277 31.7609 70.9452V47.0617C31.761 46.4793 31.2888 46.007 30.7063 46.007ZM14.5741 54.2267H29.6515V58.5833H14.5741V54.2267ZM29.6516 49.5511V52.1173H14.5741V49.5511H29.6516ZM14.5741 63.2589V60.6927H29.6515V63.2589H14.5741Z" fill="#041E42"/>
</g>
<defs>
<clipPath id="clip0">
<rect width="72" height="72" fill="white"/>
</clipPath>
</defs>
</svg>
