<svg xmlns="http://www.w3.org/2000/svg" width="50" height="49" fill="none" viewBox="0 0 50 49"><path fill="#fff" fill-rule="evenodd" d="M48.536 31.0558V46.1289H47.1005V31.0558H38.4872V44.6934H39.9227V47.5645H49.9716V49H0.971558V47.5645H11.0204V44.6934H12.4559V31.0558H3.84265V46.1289H2.4071V31.0558H0.971558V26.7491H12.4559V18.1359H10.3026V14.1213L24.7538 6.22588V0H31.9315V4.30664H26.1893V6.22588L40.6405 14.1213V18.1359H38.4872V26.7491H49.9716V31.0558H48.536ZM30.496 1.43555H26.1893V2.87109H30.496V1.43555ZM25.4716 7.46964L13.8312 13.8293H37.1119L25.4716 7.46964ZM2.4071 28.1847V29.6202H12.4559V28.1847H2.4071ZM12.4559 46.1289V47.5645H38.4872V46.1289H26.1893V44.6934H34.1805V43.2578H16.7626V44.6934H24.7538V46.1289H12.4559ZM26.1893 33.9267V41.8222H30.5917V33.9267H26.1893ZM18.9159 31.0557V32.4912H32.0272V31.0557H18.9159ZM24.7538 41.8223V33.9268H20.3514V41.8223H24.7538ZM35.6161 41.8223V44.6934H37.0516V18.1359H26.1893V16.7004H39.205V15.2648H11.7382V16.7004H24.7538V18.1359H13.8915V44.6934H15.327V41.8223H18.9159V33.9268H17.4803V29.6201H33.4628V33.9268H32.0272V41.8223H35.6161ZM48.536 28.1847H38.4872V29.6202H48.536V28.1847ZM5.27774 35.3623V46.1289H9.58435V35.3623H5.27774ZM8.14874 36.7979V40.0278H6.7132V36.7979H8.14874ZM6.71329 44.6934V41.4634H8.1488V44.6934H6.71329ZM45.6653 46.1289V35.3623H41.3587V46.1289H45.6653ZM42.7944 44.6934V41.4634H44.2299V44.6934H42.7944ZM44.2298 36.7979V40.0278H42.7943V36.7979H44.2298ZM18.9159 26.0312H24.7538V27.4668H18.9159V26.0312ZM24.7538 23.1602H18.9159V24.5957H24.7538V23.1602ZM26.1893 23.1602H32.0272V24.5957H26.1893V23.1602ZM32.0272 26.0312H26.1893V27.4668H32.0272V26.0312ZM23.3182 10.9583H24.7538V12.3939H23.3182V10.9583ZM35.6161 19.5715H34.1805V21.007H35.6161V19.5715ZM28.4384 19.5715H32.745V21.007H28.4384V19.5715ZM27.6249 10.9583H26.1893V12.3939H27.6249V10.9583Z" clip-rule="evenodd"/></svg>