<svg xmlns="http://www.w3.org/2000/svg" width="72" height="72" fill="none" viewBox="0 0 72 72"><path fill="#041E42" d="M65.6726 67.7812V51.9609H59.3445V67.7812H65.6726ZM61.454 65.6719V60.9258H63.5634V65.6719H61.454ZM63.5632 54.0703V58.8164H61.4539V54.0703H63.5632Z"/><path fill="#041E42" d="M6.32739 51.9609V67.7812H12.6555V51.9609H6.32739ZM10.546 54.0703V58.8164H8.43663V54.0703H10.546ZM8.43677 65.6719V60.9258H10.5461V65.6719H8.43677Z"/><path fill="#041E42" d="M69.8906 67.7812V45.633H72V39.3048H55.125V26.6487H58.2891V20.7496L37.0547 9.14822V6.32812H45.4922V0H34.9453V9.14822L13.7109 20.7496V26.6487H16.875V39.3048H0V45.633H2.10938V67.7812H4.21875V45.633H16.875V65.6719H14.7656V69.8906H0V72H72V69.8906H57.2344V65.6719H55.125V45.633H67.7812V67.7812H69.8906ZM37.0547 2.10938H43.3828V4.21875H37.0547V2.10938ZM53.1042 20.3206H18.8958L36 10.9758L53.1042 20.3206ZM2.10938 43.5236V41.4142H16.875V43.5236H2.10938ZM16.875 69.8906V67.7812H34.9453V65.6719H23.2031V63.5625H48.7969V65.6719H37.0547V67.7812H55.125V69.8906H16.875ZM37.0547 61.453V49.8514H43.5234V61.453H37.0547ZM45.6328 47.7422H26.3672V45.6328H45.6328V47.7422ZM34.9453 49.8516V61.4531H28.4766V49.8516H34.9453ZM50.9062 65.6719V61.4531H45.6328V49.8516H47.7422V43.5234H24.2578V49.8516H26.3672V61.4531H21.0938V65.6719H18.9844V26.6487H34.9453V24.5393H15.8203V22.43H56.1797V24.5393H37.0547V26.6487H53.0156V65.6719H50.9062ZM55.125 41.4142H69.8906V43.5236H55.125V41.4142Z"/><path fill="#041E42" d="M26.3672 38.25H34.9453V40.3594H26.3672V38.25Z"/><path fill="#041E42" d="M26.3672 34.0312H34.9453V36.1406H26.3672V34.0312Z"/><path fill="#041E42" d="M37.0547 34.0312H45.6328V36.1406H37.0547V34.0312Z"/><path fill="#041E42" d="M37.0547 38.25H45.6328V40.3594H37.0547V38.25Z"/><path fill="#041E42" d="M32.8359 16.1021H34.9453V18.2114H32.8359V16.1021Z"/><path fill="#041E42" d="M48.7969 28.7581H50.9062V30.8675H48.7969V28.7581Z"/><path fill="#041E42" d="M40.3594 28.7581H46.6875V30.8675H40.3594V28.7581Z"/><path fill="#041E42" d="M37.0547 16.1021H39.1641V18.2114H37.0547V16.1021Z"/></svg>