<svg width="45" height="49" viewBox="0 0 45 49" fill="none" xmlns="http://www.w3.org/2000/svg">
<path fill-rule="evenodd" clip-rule="evenodd" d="M43.0597 7.97944C39.336 7.58658 36.4081 4.97283 35.9394 1.62341C35.8099 0.697867 35.0145 0 34.0893 0H10.8541C9.92892 0 9.13353 0.697867 9.00404 1.62341C8.53529 4.97293 5.60735 7.58658 1.88373 7.97944C0.94019 8.07897 0.228638 8.87608 0.228638 9.8335V17.3217C0.228638 18.4098 0.285007 19.5099 0.396214 20.5916C0.433155 20.9505 0.73596 21.2177 1.0891 21.2177C1.11293 21.2177 1.13705 21.2164 1.16126 21.2139C1.54436 21.1746 1.82305 20.8321 1.78362 20.449C1.6773 19.4145 1.62332 18.3624 1.62332 17.3217V9.8335C1.62332 9.59567 1.802 9.39039 2.03006 9.36637C6.39182 8.90623 9.82757 5.80162 10.3853 1.81664C10.4196 1.57212 10.6166 1.39468 10.8541 1.39468H34.0892C34.3266 1.39468 34.5239 1.57212 34.558 1.81664C35.1156 5.80162 38.5514 8.90613 42.9132 9.36637C43.1413 9.39039 43.3199 9.59567 43.3199 9.8335V17.3217C43.3199 18.3514 43.2671 19.3926 43.163 20.4167C43.124 20.7998 43.4031 21.1421 43.7862 21.181C44.1691 21.2203 44.5115 20.9409 44.5506 20.5578C44.6595 19.4871 44.7146 18.3984 44.7146 17.3217V9.8335C44.7147 8.87608 44.0033 8.07897 43.0597 7.97944ZM39.9028 10.6373C36.9007 9.44933 34.5178 7.26137 33.1932 4.4766C32.833 3.7193 32.0544 3.22987 31.2094 3.22987H13.7338C12.8889 3.22987 12.1103 3.7192 11.7501 4.4766C10.4255 7.26137 8.04263 9.44933 5.04052 10.6373C4.19843 10.9704 3.65436 11.7732 3.65436 12.6823V16.9326C3.65436 22.5044 5.27911 28.0084 8.353 32.8498C11.4567 37.7386 15.9542 41.8243 21.3589 44.6649L21.4469 44.7112C21.7678 44.8799 22.1197 44.9642 22.4717 44.9642C22.8235 44.9642 23.1755 44.8799 23.4962 44.7113L23.5845 44.6649C28.9893 41.8242 33.4867 37.7386 36.5905 32.8498C39.6643 28.0083 41.289 22.5043 41.289 16.9326V12.6823C41.289 11.7731 40.7448 10.9704 39.9028 10.6373ZM39.8944 16.9327C39.8944 22.2392 38.3447 27.4847 35.4131 32.1024C32.4397 36.7857 28.125 40.7029 22.9359 43.4305L22.8475 43.4768C22.6122 43.6006 22.3312 43.6005 22.0958 43.4768L22.0077 43.4305C16.8184 40.703 12.5037 36.7858 9.53024 32.1024C6.59857 27.4848 5.04894 22.2392 5.04894 16.9326V12.6823C5.04894 12.3491 5.24705 12.0554 5.55359 11.9342C8.88501 10.616 11.5328 8.18021 13.0094 5.0757C13.1397 4.8017 13.424 4.62465 13.7337 4.62465H31.2095C31.5192 4.62465 31.8034 4.8017 31.9338 5.0757C33.4105 8.18021 36.0584 10.616 39.3897 11.9343C39.6963 12.0555 39.8944 12.3492 39.8944 12.6824V16.9327ZM22.4984 22.2275C21.5963 22.2275 20.865 22.9588 20.865 23.8609C20.8649 24.5131 21.2482 25.0744 21.8009 25.3363V27.3218C21.8009 27.7069 22.1131 28.0192 22.4983 28.0192C22.8835 28.0192 23.1957 27.707 23.1957 27.3218V25.3363C23.7484 25.0744 24.1317 24.5131 24.1317 23.8609C24.1317 22.9588 23.4005 22.2275 22.4984 22.2275ZM42.5652 24.0771C42.65 23.7014 43.0235 23.4657 43.3991 23.5506C43.7747 23.6355 44.0105 24.0089 43.9257 24.3845C41.7117 34.1792 34.9839 42.6655 25.4673 47.6674L23.3399 48.7856C23.0681 48.9285 22.7698 49 22.4717 49C22.1735 49 21.8754 48.9285 21.6035 48.7857L19.4761 47.6675C9.94445 42.6578 3.21336 34.1567 1.00874 24.3442C0.924334 23.9685 1.16053 23.5954 1.53626 23.511C1.91189 23.4265 2.28514 23.6628 2.36945 24.0385C4.48439 33.4513 10.956 41.6138 20.125 46.4331L22.2523 47.5513C22.3897 47.6234 22.5537 47.6234 22.6911 47.5513L24.8184 46.4331C33.973 41.6214 40.4414 33.4729 42.5652 24.0771ZM29.3123 17.405H30.4589C31.6818 17.405 32.6767 18.4 32.6767 19.6229V29.6075C32.6767 30.8304 31.6818 31.8253 30.4589 31.8253H14.5378C13.3149 31.8253 12.32 30.8304 12.32 29.6075V19.6229C12.32 18.4 13.3149 17.405 14.5378 17.405H15.6844V14.0763C15.6844 10.3191 18.7411 7.26242 22.4983 7.26242C26.2556 7.26242 29.3123 10.3191 29.3123 14.0763V17.405ZM22.4984 8.6572C19.5102 8.6572 17.0791 11.0882 17.0791 14.0764V17.4051H27.9177V14.0764C27.9177 11.0882 25.4867 8.6572 22.4984 8.6572ZM30.4589 30.4306C30.9127 30.4306 31.2821 30.0613 31.2821 29.6075V19.6229C31.2821 19.1689 30.9127 18.7997 30.4589 18.7997H14.5378C14.084 18.7997 13.7147 19.169 13.7147 19.6229V29.6075C13.7147 30.0613 14.0839 30.4306 14.5378 30.4306H30.4589Z" fill="white"/>
</svg>
