<svg width="72" height="72" viewBox="0 0 72 72" fill="none" xmlns="http://www.w3.org/2000/svg">
<g clip-path="url(#clip0)">
<path d="M36.0395 32.6609C34.7139 32.6609 33.6394 33.7354 33.6394 35.0609C33.6393 36.0193 34.2025 36.844 35.0146 37.2288V40.1463C35.0146 40.7122 35.4733 41.1711 36.0393 41.1711C36.6053 41.1711 37.0641 40.7123 37.0641 40.1463V37.2288C37.8763 36.844 38.4395 36.0193 38.4395 35.0609C38.4395 33.7354 37.365 32.6609 36.0395 32.6609Z" fill="#041E42"/>
<path d="M61.6132 15.6303C57.2019 13.8847 53.7007 10.6698 51.7543 6.57786C51.225 5.4651 50.0808 4.74594 48.8392 4.74594H23.1608C21.9194 4.74594 20.7753 5.46496 20.246 6.57786C18.2997 10.6698 14.7983 13.8847 10.387 15.6303C9.14967 16.1198 8.35022 17.2994 8.35022 18.6352V24.8806C8.35022 33.0677 10.7376 41.1552 15.2543 48.2691C19.815 55.4526 26.4235 61.4561 34.365 65.6301L34.4944 65.6982C34.9659 65.9459 35.483 66.0698 36.0002 66.0698C36.5171 66.0698 37.0343 65.9459 37.5056 65.6983L37.6354 65.6301C45.577 61.4559 52.1854 55.4526 56.7462 48.2691C61.2628 41.155 63.6502 33.0675 63.6502 24.8806V18.6352C63.6502 17.2993 62.8504 16.1198 61.6132 15.6303ZM61.6008 24.8808C61.6008 32.678 59.3238 40.3857 55.0161 47.1708C50.647 54.0524 44.307 59.8084 36.6822 63.8162L36.5524 63.8842C36.2066 64.0662 35.7938 64.0661 35.4478 63.8842L35.3184 63.8163C27.6933 59.8085 21.3534 54.0526 16.9842 47.1708C12.6764 40.3858 10.3994 32.678 10.3994 24.8806V18.6352C10.3994 18.1457 10.6905 17.7141 11.1409 17.5359C16.0361 15.599 19.9268 12.0199 22.0965 7.45818C22.2878 7.05557 22.7056 6.79541 23.1607 6.79541H48.8394C49.2945 6.79541 49.7121 7.05557 49.9036 7.45818C52.0735 12.0199 55.9643 15.599 60.8593 17.5361C61.3097 17.7142 61.6008 18.1458 61.6008 18.6353V24.8808Z" fill="#041E42"/>
<path d="M66.7506 34.605C66.1987 34.4801 65.65 34.8265 65.5254 35.3786C62.4046 49.1847 52.9001 61.158 39.4484 68.2282L36.3225 69.8712C36.1207 69.9773 35.8796 69.9773 35.6778 69.8712L32.5519 68.2282C19.0792 61.1468 9.56983 49.1529 6.46216 35.3219C6.33827 34.7698 5.78984 34.4226 5.23788 34.5468C4.68579 34.6708 4.33873 35.219 4.46276 35.7711C7.70219 50.1895 17.5928 62.6808 31.5985 70.0421L34.7244 71.6851C35.1239 71.895 35.562 72 36.0002 72C36.4382 72 36.8765 71.895 37.2759 71.685L40.4019 70.0419C54.3855 62.6922 64.2711 50.2225 67.5243 35.8303C67.6489 35.2783 67.3026 34.7297 66.7506 34.605Z" fill="#041E42"/>
<path d="M66.252 11.7249C60.7804 11.1476 56.4781 7.30702 55.7895 2.38542C55.5992 1.02544 54.4305 0 53.0709 0H18.9294C17.57 0 16.4013 1.02544 16.211 2.38542C15.5222 7.30716 11.2199 11.1476 5.7485 11.7249C4.36207 11.8711 3.31653 13.0424 3.31653 14.4492V25.4523C3.31653 27.0512 3.39936 28.6677 3.56276 30.257C3.61704 30.7844 4.06198 31.177 4.58089 31.177C4.6159 31.177 4.65134 31.1752 4.68692 31.1715C5.24984 31.1137 5.65934 30.6104 5.6014 30.0475C5.44517 28.5275 5.36586 26.9814 5.36586 25.4523V14.4492C5.36586 14.0998 5.6284 13.7981 5.96351 13.7628C12.3726 13.0867 17.4211 8.52483 18.2406 2.66934C18.291 2.31005 18.5805 2.04933 18.9294 2.04933H53.0708C53.4197 2.04933 53.7095 2.31005 53.7597 2.66934C54.579 8.52483 59.6276 13.0866 66.0367 13.7628C66.3718 13.7981 66.6343 14.0998 66.6343 14.4492V25.4523C66.6343 26.9653 66.5567 28.4953 66.4037 30.0001C66.3465 30.563 66.7565 31.0659 67.3195 31.1231C67.8821 31.1808 68.3853 30.7703 68.4426 30.2074C68.6027 28.6341 68.6837 27.0343 68.6837 25.4523V14.4492C68.6838 13.0424 67.6384 11.8711 66.252 11.7249Z" fill="#041E42"/>
<path d="M47.7366 25.5748H46.0517V20.6835C46.0517 15.1627 41.5603 10.6713 36.0394 10.6713C30.5186 10.6713 26.027 15.1627 26.027 20.6835V25.5748H24.3423C22.5454 25.5748 21.0835 27.0367 21.0835 28.8336V43.5049C21.0835 45.3018 22.5454 46.7637 24.3423 46.7637H47.7366C49.5335 46.7637 50.9954 45.3018 50.9954 43.5049V28.8336C50.9954 27.0367 49.5335 25.5748 47.7366 25.5748ZM28.0765 20.6837C28.0765 16.293 31.6487 12.7208 36.0395 12.7208C40.4304 12.7208 44.0026 16.293 44.0026 20.6837V25.5749H28.0765V20.6837ZM48.9461 43.5049C48.9461 44.1717 48.4034 44.7144 47.7366 44.7144H24.3423C23.6754 44.7144 23.1328 44.1717 23.1328 43.5049V28.8336C23.1328 28.1668 23.6755 27.6241 24.3423 27.6241H47.7366C48.4034 27.6241 48.9461 28.1666 48.9461 28.8336V43.5049Z" fill="#041E42"/>
</g>
<defs>
<clipPath id="clip0">
<rect width="72" height="72" fill="white"/>
</clipPath>
</defs>
</svg>
