<svg width="50" height="49" viewBox="0 0 50 49" fill="none" xmlns="http://www.w3.org/2000/svg">
<g clip-path="url(#clip0)">
<path d="M13.7582 31.7991C13.0578 31.2457 12.18 30.9409 11.2865 30.9409C10.0722 30.9409 8.94138 31.4804 8.18401 32.4214C7.52176 33.2451 7.22192 34.2756 7.34011 35.3229C7.45845 36.3724 7.98201 37.3125 8.81415 37.9702C9.51454 38.5238 10.3921 38.8286 11.2854 38.8286C12.5006 38.8286 13.6315 38.288 14.3883 37.3461C15.05 36.5238 15.3495 35.4944 15.2318 34.4476C15.1137 33.3981 14.5905 32.4574 13.7582 31.7991ZM12.9783 36.2126C12.5665 36.7255 11.9493 37.0197 11.2854 37.0197C10.7905 37.0197 10.3238 36.8577 9.93604 36.5512C9.48514 36.1948 9.20173 35.6866 9.13766 35.1201C9.07404 34.5559 9.23595 33.9999 9.59338 33.5555C10.0054 33.0435 10.6226 32.7499 11.2865 32.7499C11.7818 32.7499 12.2487 32.9119 12.6363 33.2182C13.087 33.5746 13.3703 34.0831 13.4341 34.6499C13.4975 35.2137 13.3359 35.7685 12.9783 36.2126Z" fill="white"/>
<path d="M29.6631 22.5346C30.2598 22.5346 30.8367 22.4039 31.3793 22.1454C32.3383 21.6865 33.0588 20.8838 33.4075 19.8849C33.7543 18.8923 33.6919 17.8243 33.2321 16.8783C32.5744 15.5225 31.1697 14.6463 29.6536 14.6463C29.0557 14.6463 28.4776 14.7775 27.9352 15.0363C26.9764 15.4937 26.2557 16.2958 25.9064 17.295C25.5589 18.2883 25.6212 19.3565 26.0817 20.3029C26.7416 21.6586 28.1473 22.5346 29.6631 22.5346ZM27.6138 17.8921C27.8028 17.3517 28.1936 16.9172 28.714 16.6689C29.0113 16.5272 29.3272 16.4553 29.6535 16.4553C30.4812 16.4553 31.2471 16.9312 31.6046 17.6686C31.8526 18.1787 31.8862 18.7538 31.6996 19.2884C31.5107 19.8291 31.1195 20.2642 30.5997 20.5129C30.3035 20.6542 29.9883 20.7256 29.663 20.7256C28.8344 20.7256 28.0671 20.249 27.708 19.5113C27.4603 19.0019 27.4269 18.427 27.6138 17.8921Z" fill="white"/>
<path d="M19.8205 16.1424C20.1114 16.2081 20.4091 16.2414 20.7054 16.2414C22.5674 16.2414 24.1583 14.9821 24.5744 13.1771C24.8082 12.1537 24.6284 11.1001 24.0685 10.2101C23.5039 9.31309 22.6216 8.68958 21.5847 8.45471C21.2925 8.38838 20.9936 8.35461 20.696 8.35461C18.8352 8.35461 17.2459 9.61534 16.8312 11.42C16.5955 12.4427 16.7741 13.4964 17.3341 14.3871C17.8991 15.2852 18.7824 15.9087 19.8205 16.1424ZM18.5943 11.8258C18.819 10.8473 19.6834 10.1638 20.696 10.1638C20.8587 10.1638 21.0228 10.1823 21.1843 10.2189C21.7499 10.3471 22.2304 10.6861 22.5373 11.1737C22.8397 11.6541 22.9368 12.2224 22.8111 12.7724C22.5893 13.7343 21.7036 14.4324 20.7052 14.4324C20.543 14.4324 20.3794 14.414 20.2184 14.3777C19.6527 14.2503 19.1722 13.9116 18.8655 13.4241C18.5637 12.9439 18.4673 12.3765 18.5943 11.8258Z" fill="white"/>
<path d="M12.6339 18.399C13.4651 17.7404 13.9877 16.7996 14.1059 15.7499C14.2237 14.7034 13.9247 13.6741 13.2628 12.8502C12.5042 11.9097 11.3725 11.3703 10.1582 11.3703C9.26563 11.3703 8.38871 11.6742 7.68818 12.2267C6.85679 12.8834 6.33383 13.8227 6.21519 14.8716C6.0967 15.9195 6.39639 16.9506 7.05955 17.7758C7.81752 18.7174 8.94936 19.2576 10.165 19.2576C11.0584 19.2574 11.9353 18.9526 12.6339 18.399ZM8.46937 16.6417C8.11118 16.1961 7.94913 15.6396 8.01304 15.0745C8.07696 14.5088 8.36007 14.0014 8.80931 13.6463C9.19689 13.3406 9.66346 13.179 10.1584 13.179C10.8229 13.179 11.4414 13.473 11.8537 13.9842C12.2102 14.4283 12.3718 14.9835 12.3084 15.5474C12.2446 16.1149 11.9612 16.6241 11.5106 16.9811C11.1248 17.2867 10.6595 17.4483 10.1652 17.4483C9.4999 17.4484 8.88182 17.1541 8.46937 16.6417Z" fill="white"/>
<path d="M49.6256 9.54779C49.4693 9.39011 49.1904 9.20212 48.7503 9.20212C48.2343 9.20212 46.8635 9.20212 38.5385 16.2862C38.3711 16.4285 38.2023 16.5728 38.0329 16.7181C36.5454 12.8379 33.932 9.37865 30.5644 6.87649C26.703 4.00756 22.1051 2.49025 17.2682 2.48904C17.2666 2.48904 17.2656 2.48904 17.2644 2.48904C14 2.48904 10.032 3.62962 6.90827 5.46622C3.0792 7.71723 0.970802 10.7277 0.971556 13.9428C0.972762 17.8243 3.16196 19.4479 4.92107 20.7523C6.35547 21.8162 7.48836 22.6563 7.48896 24.4976C7.48941 26.3387 6.35712 27.1781 4.92348 28.2409C3.16498 29.5446 0.976229 31.1672 0.977435 35.0492C0.97834 38.2638 3.08809 41.2751 6.91792 43.528C10.0439 45.3669 14.0141 46.5099 17.279 46.5108C17.2813 46.5108 17.2832 46.5108 17.2853 46.5108C23.2106 46.5108 28.7807 44.2238 32.97 40.0707C37.106 35.9708 39.4063 30.5363 39.4668 24.7453C40.8712 23.1472 42.2317 21.5587 43.4737 20.0619C45.5987 17.5012 47.2327 15.3883 48.3303 13.7821C49.7845 11.6545 50.4212 10.3496 49.6256 9.54779ZM31.6967 38.786C27.8481 42.6012 22.7308 44.7018 17.2855 44.7018C17.2838 44.7018 17.2814 44.7018 17.2798 44.7018C11.4447 44.7001 2.7881 40.6461 2.78644 35.0486C2.78554 32.0778 4.34732 30.9199 6.0009 29.694C7.54655 28.5479 9.29842 27.2491 9.29782 24.497C9.29691 21.7453 7.54459 20.4457 5.99849 19.2992C4.34415 18.0723 2.78147 16.9135 2.78056 13.9423C2.77981 10.5051 5.94075 8.13345 7.82513 7.02558C10.6439 5.36838 14.3486 4.2979 17.2644 4.2979C17.2654 4.2979 17.2666 4.2979 17.2676 4.2979C21.7133 4.29911 25.9383 5.69295 29.4856 8.32837C32.7572 10.7592 35.2545 14.1716 36.57 17.9838C32.6467 21.4095 28.3982 25.3591 25.2343 28.5333C19.9793 29.2135 19.2633 32.7158 18.7399 35.2886C18.2943 37.4793 18.005 38.5385 16.3141 38.6742C15.8974 38.7076 15.558 39.0221 15.4931 39.435C15.4279 39.8478 15.6542 40.2515 16.0404 40.4114C16.1491 40.4563 18.7354 41.5131 21.7571 41.5133C21.7575 41.5133 21.7578 41.5133 21.7581 41.5133C23.8638 41.5133 25.6701 41.0028 27.1266 39.9963C28.9215 38.7559 30.1385 36.7893 30.7501 34.1521C32.8173 32.0606 35.1794 29.5385 37.5152 26.9406C36.9776 31.4134 34.9592 35.5518 31.6967 38.786ZM28.9328 33.9809C27.9743 37.7792 25.5626 39.7045 21.758 39.7044C21.758 39.7044 21.7574 39.7044 21.7571 39.7044C20.7538 39.7044 19.7931 39.5675 18.9854 39.3969C19.9502 38.4129 20.2515 36.9322 20.5125 35.6495C21.0095 33.2061 21.4795 30.8938 25.3249 30.3444L28.9328 33.9809ZM41.4234 19.6957C37.8378 23.9675 33.4977 28.7647 29.9249 32.4121L29.3718 31.8547L26.9313 29.3949C30.1706 26.1703 34.3262 22.3254 38.2034 18.9605C38.6553 18.5683 39.1044 18.181 39.547 17.8035C44.0464 13.9661 46.4045 12.2961 47.6073 11.5694C46.889 12.7794 45.2344 15.1554 41.4234 19.6957Z" fill="white"/>
</g>
<defs>
<clipPath id="clip0">
<rect width="49" height="49" fill="white" transform="translate(0.971558)"/>
</clipPath>
</defs>
</svg>
