<svg width="72" height="72" viewBox="0 0 72 72" fill="none" xmlns="http://www.w3.org/2000/svg">
<g clip-path="url(#clip0)">
<path d="M18.7885 46.7252C17.7593 45.912 16.4695 45.4641 15.1566 45.4641C13.3723 45.4641 11.7108 46.2569 10.5979 47.6396C9.62478 48.8499 9.18419 50.3642 9.35786 51.903C9.53175 53.4452 10.3011 54.8265 11.5238 55.793C12.5529 56.6064 13.8424 57.0543 15.155 57.0543C16.9406 57.0543 18.6024 56.2599 19.7144 54.8759C20.6866 53.6676 21.1267 52.1551 20.9537 50.6169C20.7803 49.0748 20.0114 47.6925 18.7885 46.7252ZM17.6426 53.2104C17.0374 53.964 16.1306 54.3964 15.155 54.3964C14.4278 54.3964 13.742 54.1582 13.1723 53.7079C12.5097 53.1843 12.0933 52.4375 11.9992 51.6051C11.9057 50.776 12.1436 49.959 12.6688 49.306C13.2742 48.5538 14.181 48.1223 15.1566 48.1223C15.8845 48.1223 16.5705 48.3604 17.14 48.8105C17.8023 49.3342 18.2185 50.0813 18.3122 50.9142C18.4055 51.7427 18.168 52.5578 17.6426 53.2104Z" fill="#041E42"/>
<path d="M42.159 33.1121C43.0358 33.1121 43.8835 32.9201 44.6807 32.5402C46.09 31.8659 47.1486 30.6863 47.6609 29.2186C48.1706 27.7602 48.0789 26.1908 47.4033 24.8008C46.4369 22.8085 44.3728 21.5211 42.1451 21.5211C41.2666 21.5211 40.4171 21.7138 39.6201 22.0941C38.2113 22.7662 37.1522 23.9449 36.639 25.413C36.1284 26.8726 36.2199 28.4422 36.8966 29.8329C37.8661 31.8249 39.9317 33.1121 42.159 33.1121ZM39.1478 26.2904C39.4256 25.4963 39.9997 24.8579 40.7644 24.4931C41.2012 24.2849 41.6655 24.1792 42.1449 24.1792C43.3612 24.1792 44.4864 24.8785 45.0119 25.9619C45.3763 26.7115 45.4257 27.5566 45.1514 28.3421C44.8739 29.1366 44.299 29.7759 43.5353 30.1414C43.1 30.349 42.6368 30.454 42.1588 30.454C40.9414 30.454 39.8139 29.7536 39.2862 28.6697C38.9223 27.9212 38.8731 27.0764 39.1478 26.2904Z" fill="#041E42"/>
<path d="M27.6963 23.7195C28.1239 23.816 28.5613 23.865 28.9966 23.865C31.7327 23.865 34.0703 22.0145 34.6817 19.3623C35.0253 17.8585 34.761 16.3103 33.9383 15.0025C33.1087 13.6846 31.8122 12.7684 30.2887 12.4233C29.8594 12.3258 29.4201 12.2762 28.9829 12.2762C26.2485 12.2762 23.9134 14.1287 23.304 16.7804C22.9575 18.2831 23.22 19.8315 24.043 21.1402C24.8732 22.4599 26.171 23.3761 27.6963 23.7195ZM25.8946 17.3767C26.2248 15.9389 27.495 14.9345 28.9829 14.9345C29.2219 14.9345 29.4631 14.9618 29.7003 15.0156C30.5315 15.2039 31.2374 15.7021 31.6884 16.4184C32.1328 17.1244 32.2754 17.9595 32.0907 18.7676C31.7648 20.181 30.4635 21.2069 28.9964 21.2069C28.758 21.2069 28.5177 21.1798 28.2811 21.1264C27.4498 20.9393 26.7438 20.4415 26.2931 19.7252C25.8496 19.0197 25.7081 18.1859 25.8946 17.3767Z" fill="#041E42"/>
<path d="M17.1364 27.0354C18.3578 26.0676 19.1258 24.6851 19.2995 23.1427C19.4725 21.605 19.0332 20.0925 18.0605 18.882C16.9459 17.5 15.283 16.7074 13.4987 16.7074C12.1872 16.7074 10.8986 17.154 9.86928 17.9658C8.64765 18.9307 7.87922 20.3109 7.70489 21.8522C7.53079 23.3919 7.97115 24.9071 8.94558 26.1196C10.0593 27.5032 11.7224 28.2969 13.5087 28.2969C14.8214 28.2966 16.1099 27.8487 17.1364 27.0354ZM11.0172 24.4532C10.4908 23.7984 10.2527 22.9806 10.3466 22.1504C10.4406 21.319 10.8566 20.5734 11.5167 20.0518C12.0862 19.6025 12.7717 19.3651 13.499 19.3651C14.4754 19.3651 15.3842 19.797 15.9901 20.5482C16.514 21.2007 16.7514 22.0166 16.6582 22.8452C16.5645 23.679 16.148 24.4273 15.4859 24.9518C14.9191 25.4008 14.2353 25.6383 13.5089 25.6383C12.5314 25.6385 11.6232 25.2061 11.0172 24.4532Z" fill="#041E42"/>
<path d="M71.4916 14.0294C71.2619 13.7977 70.8521 13.5215 70.2055 13.5215C69.4473 13.5215 67.4331 13.5215 55.2004 23.9307C54.9545 24.1398 54.7064 24.3518 54.4574 24.5654C52.2718 18.8639 48.4316 13.7809 43.4833 10.1042C37.8095 5.88865 31.0534 3.65914 23.946 3.65736C23.9438 3.65736 23.9423 3.65736 23.9405 3.65736C19.1439 3.65736 13.3133 5.33332 8.72333 8.03199C3.09695 11.3396 -0.00110726 15.7632 2.96861e-07 20.4873C0.00177239 26.1908 3.21856 28.5765 5.80337 30.4932C7.91105 32.0564 9.57571 33.2909 9.57659 35.9964C9.57726 38.7018 7.91349 39.9351 5.80692 41.4968C3.22299 43.4124 0.00686714 45.7968 0.00863923 51.5009C0.0099683 56.2244 3.11002 60.6491 8.73751 63.9596C13.3308 66.6616 19.1645 68.341 23.962 68.3424C23.9653 68.3424 23.9682 68.3424 23.9713 68.3424C32.6778 68.3424 40.8624 64.9818 47.0182 58.8794C53.0956 52.855 56.4756 44.8697 56.5644 36.3604C58.628 34.0121 60.6272 31.6781 62.4522 29.4787C65.5746 25.7161 67.9756 22.6114 69.5884 20.2512C71.7251 17.125 72.6608 15.2076 71.4916 14.0294ZM45.1471 56.9917C39.4921 62.5977 31.9727 65.6842 23.9715 65.6842C23.9691 65.6842 23.9655 65.6842 23.9631 65.6842C15.389 65.6818 2.66921 59.7249 2.66677 51.5C2.66544 47.1347 4.9603 45.4333 7.39006 43.6319C9.66121 41.948 12.2354 40.0395 12.2345 35.9956C12.2332 31.9523 9.65833 30.0427 7.38651 28.3581C4.95565 26.5552 2.65946 24.8524 2.65813 20.4867C2.65703 15.436 7.30167 11.9512 10.0706 10.3233C14.2124 7.88823 19.656 6.31528 23.9405 6.31528C23.942 6.31528 23.9438 6.31528 23.9451 6.31528C30.4777 6.31705 36.6858 8.36514 41.8982 12.2376C46.7054 15.8095 50.375 20.8236 52.3079 26.4252C46.543 31.4588 40.3004 37.2624 35.6513 41.9265C27.9297 42.926 26.8777 48.0721 26.1086 51.8526C25.4538 55.0716 25.0288 56.628 22.5441 56.8273C21.9318 56.8765 21.4332 57.3386 21.3377 57.9453C21.242 58.5518 21.5745 59.145 22.142 59.38C22.3017 59.446 26.102 60.9988 30.542 60.9991C30.5426 60.9991 30.5431 60.9991 30.5435 60.9991C33.6376 60.9991 36.2917 60.249 38.432 58.77C41.0693 56.9474 42.8575 54.0578 43.7562 50.1827C46.7938 47.1094 50.2646 43.4035 53.6967 39.5862C52.9068 46.1585 49.941 52.2394 45.1471 56.9917ZM41.0859 49.931C39.6775 55.5122 36.1338 58.3414 30.5433 58.3412C30.5433 58.3412 30.5424 58.3412 30.542 58.3412C29.0678 58.3412 27.6561 58.14 26.4693 57.8893C27.8869 56.4435 28.3297 54.2678 28.7132 52.3829C29.4435 48.7927 30.1342 45.3949 35.7845 44.5877L41.0859 49.931ZM59.4394 28.9406C54.1708 35.2176 47.7935 42.2665 42.5437 47.626L41.7309 46.8068L38.1449 43.1924C42.9047 38.4543 49.0109 32.8047 54.7079 27.8603C55.372 27.284 56.0319 26.7149 56.6823 26.1602C63.2937 20.5217 66.7586 18.0678 68.526 16.9999C67.4705 18.7779 65.0392 22.2692 59.4394 28.9406Z" fill="#041E42"/>
</g>
<defs>
<clipPath id="clip0">
<rect width="72" height="72" fill="white"/>
</clipPath>
</defs>
</svg>
