<svg xmlns="http://www.w3.org/2000/svg" width="50" height="49" fill="none" viewBox="0 0 50 49"><path fill="#fff" d="M42.7956 7.17578C38.1683 2.54833 32.0158 0 25.4718 0C18.9277 0 12.7753 2.54833 8.14803 7.17578C3.52059 11.8031 0.972252 17.9556 0.972252 24.4996C0.972252 31.8052 4.16982 38.6231 9.76385 43.298L9.20457 45.3853C9.00666 46.1239 9.10916 46.8972 9.4934 47.5627C9.87764 48.2281 10.4961 48.7036 11.2347 48.9015C11.4826 48.9679 11.7318 48.9997 11.9771 48.9997C13.2446 48.9996 14.4077 48.1526 14.7509 46.8715L14.831 46.5725C18.1306 48.163 21.7853 48.9992 25.4718 48.9992C29.1483 48.9992 32.802 48.1613 36.1113 46.5676L36.1927 46.8715C36.3906 47.6102 36.8661 48.2286 37.5315 48.6128C37.9755 48.8691 38.4674 49.0001 38.9651 49.0001C39.2133 49.0001 39.4631 48.9675 39.7089 48.9016C41.238 48.4919 42.1487 46.9146 41.7391 45.3855L41.1799 43.2987C43.8379 41.0757 46.0286 38.2704 47.5347 35.1508C49.1287 31.8492 49.9713 28.1661 49.9713 24.4998C49.9714 17.9556 47.423 11.8031 42.7956 7.17578ZM11.7299 47.0528C11.485 46.9871 11.2795 46.8283 11.1508 46.6057C11.0223 46.383 10.9877 46.1256 11.0532 45.8808L15.0162 31.0904C15.0819 30.8456 15.2406 30.6399 15.4633 30.5114C15.6124 30.4253 15.7769 30.3813 15.9431 30.3813C16.025 30.3813 16.1074 30.392 16.1884 30.4138H16.1885C16.4334 30.4794 16.639 30.6382 16.7676 30.8609C16.8962 31.0836 16.9308 31.341 16.8653 31.5858L12.9022 46.3763C12.7655 46.8857 12.2397 47.189 11.7299 47.0528ZM20.9432 23.7615L20.6955 24.6858C20.5589 25.1957 20.0329 25.4988 19.5235 25.3626L17.6753 24.8673C17.6751 24.8672 17.6748 24.8671 17.6746 24.8671C17.6744 24.8671 17.6741 24.867 17.6739 24.867L15.8258 24.3718C15.581 24.3061 15.3754 24.1473 15.2468 23.9247C15.1181 23.702 15.0835 23.4446 15.1491 23.1997L15.3967 22.2753L20.9432 23.7615ZM25.4718 47.0851C21.9505 47.0851 18.4615 46.2581 15.336 44.6879L16.5062 40.3207C19.2323 41.8693 22.3065 42.6828 25.4718 42.6828C28.6323 42.6828 31.7059 41.8687 34.4369 40.3188L35.6063 44.683C32.4704 46.2564 28.9824 47.0851 25.4718 47.0851ZM33.897 34.6065C33.6518 34.6721 33.3946 34.6374 33.172 34.5089C32.9494 34.3804 32.7906 34.1747 32.725 33.9298L29.7526 22.837C29.4235 21.6085 29.5953 20.3202 30.2366 19.2094C30.7141 18.3825 31.407 17.7316 32.2367 17.3172L36.6703 33.8635L33.897 34.6065ZM39.2136 47.0528C38.9684 47.1184 38.7111 47.0837 38.4885 46.9551C38.2659 46.8266 38.1071 46.621 38.0415 46.3761L35.3168 36.2077L37.1658 35.7123L39.8904 45.8806C40.0269 46.3903 39.7233 46.9161 39.2136 47.0528ZM40.629 41.2424L39.3047 36.2999C42.1134 33.0088 43.6551 28.8377 43.6551 24.4996C43.6551 16.1807 38.0324 8.93553 29.9818 6.88063C29.4692 6.74981 28.9484 7.05921 28.8178 7.57121C28.687 8.08331 28.9963 8.6045 29.5084 8.73523C36.7108 10.5736 41.7411 17.0563 41.7411 24.4997C41.7411 27.9257 40.666 31.2352 38.6857 33.9896L33.8129 15.8045C33.676 15.294 33.1512 14.9907 32.6408 15.1278C29.0728 16.0838 26.9479 19.7644 27.9039 23.3324L30.8763 34.4253C31.0741 35.164 31.5497 35.7824 32.2151 36.1666C32.5926 36.3846 33.0048 36.5118 33.4257 36.5451L33.9231 38.4012C31.3744 39.952 28.4667 40.7689 25.4719 40.7689C22.4716 40.7689 19.5632 39.9526 17.0202 38.4029L18.7141 32.0812C18.912 31.3425 18.8094 30.5693 18.4253 29.9039C18.2073 29.5263 17.9139 29.2101 17.5659 28.9709L18.1037 26.9638L19.0282 27.2115C19.2762 27.2779 19.5252 27.3096 19.7706 27.3096C21.038 27.3096 22.2011 26.4624 22.5444 25.1814L23.0379 23.3393C23.0386 23.337 23.0392 23.3348 23.0398 23.3325C23.0405 23.3302 23.0411 23.3279 23.0416 23.3256L24.5261 17.7861C24.6629 17.2755 24.3599 16.7508 23.8493 16.6139C23.3387 16.4771 22.8141 16.7802 22.6773 17.2906L21.4388 21.9127L19.5901 21.4174L20.8285 16.7953C20.9654 16.2847 20.6624 15.76 20.1518 15.6231C19.6411 15.4861 19.1166 15.7894 18.9798 16.2998L17.7413 20.9219L15.8925 20.4265L17.1308 15.8045C17.2677 15.2939 16.9647 14.7692 16.4541 14.6323C15.9434 14.4954 15.4189 14.7986 15.2821 15.309L13.7985 20.8458C13.7976 20.849 13.7967 20.8522 13.7959 20.8554C13.7951 20.8587 13.7942 20.8618 13.7934 20.8651L13.3007 22.7043C13.1028 23.443 13.2053 24.2162 13.5896 24.8817C13.9738 25.5472 14.5922 26.0226 15.3308 26.2205L16.2553 26.4682L15.7174 28.4752C15.2964 28.5084 14.8842 28.6355 14.5068 28.8535C13.8413 29.2378 13.3659 29.8562 13.1679 30.5948L12.2582 33.9899C10.2781 31.2367 9.20294 27.9268 9.20294 24.4995C9.20294 17.0564 14.233 10.5738 21.435 8.73523C21.9472 8.6045 22.2563 8.08331 22.1256 7.57121C21.9949 7.05912 21.4741 6.75029 20.9616 6.88063C12.9113 8.93582 7.28892 16.1809 7.28892 24.4995C7.28892 28.8391 8.83057 33.0111 11.6392 36.3001L10.3152 41.2413C5.57759 36.9579 2.88656 30.9338 2.88656 24.4995C2.88618 12.0459 13.0181 1.91402 25.4718 1.91402C37.9255 1.91402 48.0574 12.0459 48.0574 24.4996C48.0574 30.9406 45.3665 36.9642 40.629 41.2424Z"/><path fill="#fff" d="M25.4716 6.31635H25.4709C24.9425 6.31635 24.5143 6.74481 24.5143 7.27338C24.5143 7.80195 24.943 8.23041 25.4716 8.23041C26.0002 8.23041 26.4286 7.80195 26.4286 7.27338C26.4286 6.74481 26.0002 6.31635 25.4716 6.31635Z"/></svg>