<svg width="72" height="72" viewBox="0 0 72 72" fill="none" xmlns="http://www.w3.org/2000/svg">
<g clip-path="url(#clip0)">
<path d="M61.4554 10.544C54.656 3.74449 45.6157 0 36 0C26.3842 0 17.3439 3.74449 10.5447 10.544C3.74516 17.3434 0.000671387 26.3837 0.000671387 35.9994C0.000671387 46.7341 4.69914 56.7523 12.9189 63.6216L12.0971 66.6886C11.8063 67.7739 11.9569 68.9102 12.5215 69.888C13.0861 70.8657 13.9948 71.5645 15.0802 71.8553C15.4445 71.9529 15.8106 71.9996 16.1711 71.9996C18.0335 71.9994 19.7425 70.7548 20.2469 68.8724L20.3646 68.4331C25.213 70.7701 30.5831 71.9989 36 71.9989C41.4023 71.9989 46.7709 70.7676 51.6335 68.4258L51.7532 68.8724C52.044 69.9579 52.7426 70.8666 53.7203 71.431C54.3728 71.8076 55.0956 72.0001 55.8269 72.0001C56.1916 72.0001 56.5587 71.9522 56.9198 71.8554C59.1666 71.2534 60.5048 68.9357 59.9029 66.6888L59.0813 63.6226C62.9869 60.3562 66.2059 56.234 68.419 51.6501C70.7612 46.7988 71.9993 41.387 71.9993 35.9997C71.9994 26.3837 68.2548 17.3434 61.4554 10.544ZM15.8079 69.1388C15.448 69.0423 15.146 68.809 14.957 68.4819C14.7681 68.1547 14.7172 67.7764 14.8135 67.4167L20.6367 45.6838C20.7332 45.3241 20.9665 45.0219 21.2937 44.833C21.5128 44.7066 21.7545 44.6419 21.9986 44.6419C22.119 44.6419 22.2401 44.6577 22.359 44.6896H22.3592C22.719 44.7861 23.0212 45.0194 23.2101 45.3466C23.3991 45.6738 23.45 46.0521 23.3537 46.4118L17.5304 68.1447C17.3296 68.8932 16.557 69.339 15.8079 69.1388ZM29.3457 34.9148L28.9818 36.2731C28.781 37.0222 28.0081 37.4677 27.2596 37.2674L24.5439 36.5397C24.5436 36.5396 24.5432 36.5394 24.5429 36.5394C24.5426 36.5394 24.5422 36.5393 24.5419 36.5393L21.8262 35.8116C21.4665 35.7151 21.1645 35.4818 20.9755 35.1547C20.7865 34.8275 20.7356 34.4492 20.8319 34.0894L21.1958 32.7311L29.3457 34.9148ZM36 69.1863C30.8259 69.1863 25.6991 67.971 21.1065 65.6638L22.8261 59.2467C26.8318 61.5222 31.349 62.7175 36 62.7175C40.644 62.7175 45.1604 61.5214 49.1732 59.244L50.8914 65.6567C46.2837 67.9686 41.1584 69.1863 36 69.1863ZM48.3799 50.8504C48.0197 50.9467 47.6417 50.8958 47.3146 50.707C46.9875 50.5181 46.7542 50.2159 46.6577 49.8561L42.2901 33.5564C41.8065 31.7512 42.059 29.8583 43.0014 28.2261C43.703 27.011 44.7211 26.0546 45.9403 25.4457L52.4549 49.7586L48.3799 50.8504ZM56.1921 69.1388C55.8318 69.2352 55.4537 69.1842 55.1266 68.9953C54.7995 68.8065 54.5662 68.5043 54.4697 68.1444L50.4662 53.2032L53.183 52.4752L57.1865 67.4164C57.3871 68.1654 56.941 68.938 56.1921 69.1388ZM58.2719 60.601L56.3259 53.3386C60.4529 48.5027 62.7183 42.3737 62.7183 35.9994C62.7183 23.7757 54.4564 13.1298 42.6269 10.1103C41.8738 9.91809 41.1085 10.3727 40.9165 11.125C40.7245 11.8775 41.1788 12.6433 41.9313 12.8354C52.5145 15.5368 59.9059 25.0623 59.9059 35.9996C59.9059 41.0337 58.3261 45.8966 55.4164 49.944L48.2563 23.2229C48.0552 22.4728 47.2841 22.0272 46.5341 22.2286C41.2913 23.6334 38.1689 29.0416 39.5737 34.2844L43.9413 50.5841C44.232 51.6695 44.9307 52.5782 45.9085 53.1427C46.4632 53.463 47.0689 53.6501 47.6874 53.699L48.4182 56.4262C44.6733 58.705 40.4007 59.9054 36.0001 59.9054C31.5916 59.9054 27.3179 58.7059 23.5813 56.4288L26.0704 47.1397C26.3612 46.0544 26.2104 44.9181 25.646 43.9404C25.3256 43.3856 24.8945 42.921 24.3832 42.5695L25.1735 39.6203L26.5319 39.9843C26.8962 40.0818 27.2621 40.1284 27.6227 40.1284C29.4851 40.1284 31.1941 38.8836 31.6985 37.0012L32.4237 34.2945C32.4246 34.2912 32.4256 34.2879 32.4265 34.2845C32.4275 34.2812 32.4283 34.2778 32.4291 34.2744L34.6103 26.1346C34.8114 25.3844 34.3662 24.6134 33.616 24.4123C32.8656 24.2112 32.0949 24.6566 31.8938 25.4066L30.074 32.1983L27.3575 31.4704L29.1773 24.6788C29.3783 23.9286 28.9331 23.1575 28.1829 22.9564C27.4324 22.7551 26.6618 23.2007 26.4607 23.9508L24.6409 30.7424L21.9242 30.0144L23.7439 23.2229C23.945 22.4727 23.4998 21.7017 22.7496 21.5006C21.9991 21.2994 21.2284 21.7448 21.0274 22.4949L18.8474 30.6306C18.846 30.6353 18.8448 30.6399 18.8436 30.6447C18.8424 30.6495 18.8411 30.6541 18.84 30.6589L18.1159 33.3614C17.8251 34.4468 17.9757 35.5831 18.5404 36.5609C19.105 37.5387 20.0136 38.2373 21.0989 38.5281L22.4573 38.892L21.667 41.8412C21.0484 41.89 20.4428 42.0767 19.8882 42.397C18.9103 42.9616 18.2117 43.8703 17.9209 44.9557L16.5841 49.9444C13.6745 45.8988 12.0947 41.0353 12.0947 35.9993C12.0947 25.0624 19.4859 15.5371 30.0684 12.8354C30.821 12.6433 31.2752 11.8775 31.0831 11.125C30.891 10.3726 30.1259 9.91879 29.3727 10.1103C17.5437 13.1302 9.2823 23.776 9.2823 35.9993C9.2823 42.3758 11.5476 48.5061 15.6746 53.3389L13.7291 60.5995C6.7677 54.3055 2.81354 45.4538 2.81354 35.9993C2.81298 17.7001 17.7007 2.81245 36 2.81245C54.2993 2.81245 69.187 17.7001 69.187 35.9994C69.187 45.4637 65.2331 54.3148 58.2719 60.601Z" fill="#041E42"/>
<path d="M36 9.28117H35.999C35.2225 9.28117 34.5933 9.91075 34.5933 10.6874C34.5933 11.4641 35.2233 12.0937 36 12.0937C36.7767 12.0937 37.4062 11.4641 37.4062 10.6874C37.4062 9.91075 36.7767 9.28117 36 9.28117Z" fill="#041E42"/>
</g>
<defs>
<clipPath id="clip0">
<rect width="72" height="72" fill="white"/>
</clipPath>
</defs>
</svg>
