<svg width="50" height="49" viewBox="0 0 50 49" fill="none" xmlns="http://www.w3.org/2000/svg">
<g clip-path="url(#clip0)">
<path d="M25.4716 0C11.9406 0 0.971558 10.9691 0.971558 24.5C0.971558 38.0309 11.9406 49 25.4716 49C39.0025 49 49.9716 38.0309 49.9716 24.5C49.9562 10.9754 38.9962 0.0153125 25.4716 0ZM25.4716 47.3667C12.8426 47.3667 2.60489 37.1289 2.60489 24.5C2.60489 11.8711 12.8426 1.63333 25.4716 1.63333C38.1005 1.63333 48.3382 11.8711 48.3382 24.5C48.3238 37.1229 38.0945 47.3523 25.4716 47.3667Z" fill="white"/>
<path d="M25.4716 4.08334C14.1957 4.08334 5.05489 13.2242 5.05489 24.5C5.05489 35.7758 14.1957 44.9167 25.4716 44.9167C36.7474 44.9167 45.8882 35.7758 45.8882 24.5C45.8757 13.2294 36.7422 4.0959 25.4716 4.08334ZM25.4716 43.2833C15.0978 43.2833 6.68822 34.8737 6.68822 24.5C6.68822 14.1263 15.0978 5.71668 25.4716 5.71668C35.8453 5.71668 44.2549 14.1263 44.2549 24.5C44.2431 34.8689 35.8405 43.2716 25.4716 43.2833Z" fill="white"/>
<path d="M26.2882 8.16666H24.6549V9.79999H26.2882V8.16666Z" fill="white"/>
<path d="M26.2882 39.2H24.6549V40.8333H26.2882V39.2Z" fill="white"/>
<path d="M18.0104 9.94749L16.5968 10.7639L17.4132 12.1775L18.8268 11.3611L18.0104 9.94749Z" fill="white"/>
<path d="M33.5229 36.8181L32.1093 37.6345L32.9257 39.0481L34.3393 38.2317L33.5229 36.8181Z" fill="white"/>
<path d="M11.7336 15.6262L10.9169 17.0406L12.3314 17.8573L13.1481 16.4428L11.7336 15.6262Z" fill="white"/>
<path d="M38.6066 31.1454L37.7899 32.5599L39.2044 33.3766L40.021 31.9621L38.6066 31.1454Z" fill="white"/>
<path d="M10.7716 23.6833H9.13823V25.3167H10.7716V23.6833Z" fill="white"/>
<path d="M41.8049 23.6833H40.1716V25.3167H41.8049V23.6833Z" fill="white"/>
<path d="M12.3324 31.1441L10.9178 31.9606L11.7343 33.3752L13.1489 32.5587L12.3324 31.1441Z" fill="white"/>
<path d="M39.204 15.6261L37.7895 16.4428L38.6062 17.8572L40.0206 17.0406L39.204 15.6261Z" fill="white"/>
<path d="M17.4093 36.821L16.5929 38.2346L18.0065 39.051L18.8229 37.6374L17.4093 36.821Z" fill="white"/>
<path d="M32.9291 9.94898L32.1127 11.3626L33.5263 12.179L34.3427 10.7654L32.9291 9.94898Z" fill="white"/>
<path d="M24.6544 11.4333V24.0378L16.8838 28.7001L17.725 30.0999L25.8917 25.1999C26.1374 25.0523 26.2877 24.7866 26.2877 24.5V11.4333H24.6544Z" fill="white"/>
</g>
<defs>
<clipPath id="clip0">
<rect width="49" height="49" fill="white" transform="translate(0.971558)"/>
</clipPath>
</defs>
</svg>
