<svg xmlns="http://www.w3.org/2000/svg" width="72" height="72" fill="none" viewBox="0 0 72 72"><path fill="#041E42" d="M36 0C16.1178 0 0 16.1178 0 36C0 55.8822 16.1178 72 36 72C55.8822 72 72 55.8822 72 36C71.9775 16.1271 55.8729 0.0225 36 0ZM36 69.6C17.4432 69.6 2.4 54.5568 2.4 36C2.4 17.4432 17.4432 2.4 36 2.4C54.5568 2.4 69.6 17.4432 69.6 36C69.5788 54.548 54.548 69.5788 36 69.6Z"/><path fill="#041E42" d="M36 6C19.4315 6 6 19.4315 6 36C6 52.5686 19.4315 66 36 66C52.5686 66 66 52.5686 66 36C65.9816 19.4391 52.5609 6.01845 36 6ZM36 63.6C20.757 63.6 8.4 51.243 8.4 36C8.4 20.757 20.757 8.4 36 8.4C51.243 8.4 63.6 20.757 63.6 36C63.5828 51.236 51.236 63.5828 36 63.6Z"/><path fill="#041E42" d="M37.2 12H34.8V14.4H37.2V12Z"/><path fill="#041E42" d="M37.2 57.6H34.8V60H37.2V57.6Z"/><path fill="#041E42" d="M25.0366 14.6167L22.9595 15.8164L24.1591 17.8935L26.2363 16.6939L25.0366 14.6167Z"/><path fill="#041E42" d="M47.8305 54.1L45.7534 55.2997L46.953 57.3768L49.0301 56.1772L47.8305 54.1Z"/><path fill="#041E42" d="M15.8136 22.9609L14.6136 25.0393L16.692 26.2393L17.892 24.1609L15.8136 22.9609Z"/><path fill="#041E42" d="M55.3005 45.7647L54.1005 47.8431L56.1789 49.0431L57.3789 46.9647L55.3005 45.7647Z"/><path fill="#041E42" d="M14.4 34.8H12V37.2H14.4V34.8Z"/><path fill="#041E42" d="M60 34.8H57.6V37.2H60V34.8Z"/><path fill="#041E42" d="M16.6935 45.7628L14.6149 46.9625L15.8146 49.0412L17.8933 47.8414L16.6935 45.7628Z"/><path fill="#041E42" d="M56.1783 22.9608L54.0999 24.1608L55.2999 26.2392L57.3783 25.0392L56.1783 22.9608Z"/><path fill="#041E42" d="M24.1535 54.1044L22.9539 56.1815L25.031 57.3811L26.2306 55.304L24.1535 54.1044Z"/><path fill="#041E42" d="M46.958 14.6189L45.7584 16.696L47.8355 17.8957L49.0352 15.8186L46.958 14.6189Z"/><path fill="#041E42" d="M34.7993 16.8V35.3208L23.3813 42.1716L24.6173 44.2284L36.6173 37.0284C36.9783 36.8115 37.1993 36.4212 37.1993 36V16.8H34.7993Z"/></svg>