<svg width="73" height="72" viewBox="0 0 73 72" fill="none" xmlns="http://www.w3.org/2000/svg">
<path d="M71.721 13.4439C71.1719 12.8305 70.4553 12.3907 69.6596 12.1782C60.8266 10.0283 52.1326 11.2089 43.9811 12.6032H43.9806C42.778 12.8097 41.5764 13.0233 40.3744 13.2369C39.1778 13.4494 37.9806 13.663 36.7841 13.8673C28.3696 15.3077 19.4306 16.4768 10.5944 13.92V10.6329C12.6064 9.06508 13.3944 6.38801 12.5515 3.98057C11.7091 1.57258 9.42414 -0.0287143 6.87338 0.000390249C4.32261 0.0294948 2.07497 1.68296 1.2875 4.10962C0.500031 6.53573 1.349 9.19413 3.39676 10.7152V68.401C3.38962 69.351 3.76798 70.2637 4.44507 70.9303C5.11447 71.6184 6.03539 72.0044 6.99529 72C8.98208 71.9978 10.5922 70.3878 10.5944 68.401V52.41C12.9469 53.0376 15.351 53.4522 17.7777 53.6488C17.7914 53.6488 17.8035 53.6543 17.8172 53.6543L17.8244 53.6527C19.1906 53.7669 20.5525 53.8245 21.9094 53.8256C27.0384 53.724 32.1498 53.1875 37.1888 52.2216C38.3909 52.0157 39.5924 51.802 40.7944 51.5884C41.991 51.3754 43.1882 51.1623 44.3847 50.958H44.3858C52.2874 49.6038 60.7053 48.455 69.0928 50.4989C69.8424 50.6944 70.6365 50.6258 71.341 50.304H71.3416C71.5327 50.2161 71.7128 50.1074 71.8798 49.98C72.5964 49.4028 73.0017 48.5242 72.9747 47.6044V16.4142C72.9434 15.3445 72.5277 14.3215 71.8029 13.5334C71.7771 13.5021 71.7502 13.4725 71.721 13.4439ZM8.19516 14.8212V68.401C8.19406 69.0632 7.65755 69.5997 6.99529 69.6003C6.67239 69.6014 6.36322 69.4685 6.14137 69.234C5.91787 69.0149 5.79267 68.714 5.79596 68.401V11.8031C6.58837 11.9645 7.4055 11.9574 8.19516 11.7817V14.8212ZM6.94586 9.51922C5.51041 9.51977 4.21608 8.65487 3.66693 7.32869C3.11724 6.00251 3.42092 4.47645 4.43573 3.46108C5.4511 2.44627 6.97717 2.14259 8.30334 2.69173C9.62952 3.24143 10.4944 4.53575 10.4939 5.97121C10.4917 7.93 8.90465 9.51702 6.94586 9.51922ZM45.3831 14.7992C49.8416 13.9766 54.3583 13.5093 58.8909 13.4027C54.2182 16.1649 49.7081 19.194 45.3831 22.474V14.7992ZM45.3831 25.4614C51.0909 20.9815 57.1814 17.0123 63.5855 13.601C64.8562 13.7207 66.1286 13.8959 67.4015 14.143C60.1413 16.8876 53.0266 21.7036 46.3468 26.6074C46.0256 26.659 45.7032 26.7101 45.3831 26.7628V25.4614ZM35.7863 16.4697V24.3307C31.1493 22.4713 26.6436 20.3 22.3004 17.831C26.8248 17.7305 31.3338 17.2753 35.7863 16.4697ZM17.4087 17.6295C23.2104 21.3313 29.3668 24.4449 35.7863 26.9248V28.4322C35.3585 28.5042 34.9296 28.5744 34.4985 28.6425C27.2339 25.7573 20.39 21.9084 14.1506 17.1995C15.239 17.3868 16.3247 17.5301 17.4087 17.6289V17.6295ZM10.5944 17.4219C16.4718 22.2582 22.9946 26.2521 29.9741 29.2889C29.8347 29.3059 29.6957 29.3246 29.5557 29.341C29.2356 29.3784 28.9143 29.4119 28.5931 29.4459C28.3855 29.4679 28.1779 29.4915 27.9692 29.5118C27.6551 29.5426 27.3399 29.5689 27.0247 29.5958C26.8078 29.6145 26.5909 29.6343 26.3734 29.6508C26.3207 29.6552 26.2674 29.6574 26.2142 29.6612C20.58 26.8221 15.3307 23.2758 10.5944 19.1078V17.4219ZM10.5944 25.1143V22.2758C13.9952 25.1083 17.6404 27.6343 21.4866 29.8237C21.2137 29.8215 20.9408 29.815 20.6673 29.8078C20.4207 29.8018 20.1753 29.7957 19.9287 29.7859C19.642 29.7738 19.3554 29.7573 19.0682 29.7403C18.8139 29.7249 18.5597 29.7101 18.3049 29.6903C18.0226 29.6683 17.7398 29.6425 17.457 29.6145C17.1989 29.5893 16.9414 29.564 16.6827 29.5338C16.4037 29.5014 16.1248 29.4641 15.8458 29.4256C15.5822 29.3899 15.3181 29.352 15.0545 29.3103C14.781 29.2669 14.5076 29.2191 14.2341 29.1703C13.965 29.1214 13.6959 29.0709 13.4268 29.016C13.1572 28.961 12.8892 28.9023 12.6202 28.8419C12.3467 28.7798 12.0727 28.7139 11.7992 28.6458C11.535 28.5794 11.2715 28.5091 11.0073 28.4361C10.8695 28.3982 10.7317 28.3559 10.5944 28.3163V25.1143ZM10.5944 38.0158C10.6224 38.023 10.6504 38.029 10.6784 38.0362C10.864 38.0861 11.0502 38.1273 11.2352 38.174C11.6053 38.2673 11.9755 38.3607 12.3456 38.442C12.5515 38.4876 12.758 38.5249 12.9639 38.5672C13.3121 38.638 13.6608 38.7089 14.0089 38.7704C14.2253 38.8083 14.4417 38.8401 14.658 38.8741C14.9957 38.928 15.3335 38.9812 15.6706 39.0268C15.893 39.0565 16.1149 39.0812 16.3367 39.107C16.6673 39.146 16.9974 39.1844 17.3274 39.2152C17.5542 39.2366 17.781 39.2542 18.0078 39.2723C18.3318 39.2981 18.6558 39.3223 18.9781 39.3409C19.2093 39.3546 19.44 39.3651 19.6706 39.375C19.9896 39.3892 20.3081 39.4013 20.6266 39.409C20.8584 39.4145 21.0901 39.4189 21.3224 39.4211C21.3724 39.4216 21.4229 39.4233 21.4734 39.4233C18.0479 41.4848 14.3977 43.1481 10.5944 44.3804V38.0158ZM10.5944 46.8773C16.1868 45.1195 21.4926 42.5523 26.3421 39.2585C26.6145 39.2382 26.8858 39.2152 27.1576 39.1921C27.3904 39.1723 27.6233 39.1531 27.855 39.1317C28.1609 39.1031 28.4657 39.0713 28.771 39.0389C29.0038 39.0153 29.2367 38.9911 29.4684 38.9648C29.5502 38.9554 29.6326 38.9466 29.7139 38.9373C23.5217 43.2909 17.0539 47.2376 10.5944 49.2326V46.8773ZM35.7863 50.025C31.3316 50.8449 26.8188 51.3095 22.2906 51.4149C26.9588 48.6544 31.4651 45.628 35.7863 42.3508V50.025ZM35.7863 39.3634C30.0812 43.8411 23.9934 47.8087 17.5932 51.2194C16.3115 51.0991 15.0287 50.9267 13.7464 50.678C20.9962 47.9405 28.118 43.1382 34.8214 38.2174C35.1432 38.1658 35.4656 38.1152 35.7863 38.0614V39.3634ZM45.3831 48.3562V40.4947C50.0162 42.3524 54.5175 44.5215 58.8568 46.9877C54.3368 47.0899 49.8317 47.5473 45.3831 48.3562ZM63.7568 47.1931C57.9562 43.4924 51.8015 40.3793 45.3831 37.9V36.3926C45.8114 36.3206 46.2414 36.2504 46.6725 36.1823C53.942 39.0658 60.7898 42.9158 67.0314 47.628C65.9369 47.4391 64.8452 47.2941 63.7568 47.1931ZM70.5755 47.4078C64.6992 42.5688 58.177 38.5738 51.1974 35.5365C51.3649 35.5161 51.5318 35.4936 51.6993 35.4739C51.824 35.4596 51.9486 35.4475 52.0733 35.4332C52.478 35.3876 52.8833 35.3437 53.2891 35.3047C53.439 35.2899 53.5889 35.2784 53.7394 35.2646C54.121 35.23 54.5032 35.196 54.886 35.1674L54.9541 35.163C60.5888 38.0021 65.8386 41.549 70.5755 45.717V47.4078ZM70.5755 42.549C67.1747 39.716 63.5295 37.1899 59.6828 35.0011H59.6987C59.9123 35.0027 60.1259 35.0087 60.3401 35.0126C60.663 35.0197 60.9859 35.028 61.3093 35.0417C61.5334 35.051 61.758 35.0648 61.9815 35.0774C62.2956 35.095 62.6097 35.1147 62.9238 35.1389C63.1555 35.157 63.3867 35.1795 63.6185 35.2015C63.9249 35.23 64.2313 35.2613 64.5383 35.2976C64.7782 35.3256 65.0188 35.3574 65.2587 35.3904C65.5569 35.4305 65.8551 35.4733 66.1527 35.5205C66.3993 35.5601 66.6464 35.6029 66.8924 35.6474C67.1851 35.6996 67.4767 35.7556 67.7683 35.8143C68.0209 35.866 68.2735 35.9214 68.5261 35.9785C68.8117 36.0428 69.0967 36.1109 69.3822 36.1823C69.6393 36.2471 69.8968 36.3151 70.1538 36.386C70.2938 36.425 70.4344 36.4678 70.5744 36.5084L70.5755 42.549ZM70.5755 34.0066C70.5333 33.995 70.4915 33.9868 70.4492 33.9753C70.1994 33.9088 69.9506 33.8528 69.7008 33.7918C69.3669 33.71 69.033 33.626 68.6991 33.5541C68.4317 33.4959 68.1643 33.447 67.8968 33.3948C67.5816 33.3333 67.2664 33.2702 66.9517 33.2163C66.6733 33.1686 66.3955 33.129 66.1176 33.0878C65.8145 33.0423 65.5113 32.9967 65.2088 32.9582C64.9238 32.922 64.6399 32.8918 64.3559 32.8621C64.0594 32.8303 63.7629 32.799 63.4663 32.7737C63.1786 32.749 62.8919 32.7287 62.6047 32.7095C62.3131 32.6897 62.0215 32.671 61.7305 32.6568C61.4417 32.643 61.1528 32.6321 60.8645 32.6233C60.5757 32.6145 60.2863 32.6068 59.998 32.6029C59.7091 32.5991 59.4203 32.5975 59.132 32.598C58.8437 32.5986 58.5576 32.6018 58.2704 32.6068C57.9837 32.6117 57.6954 32.6189 57.4088 32.6282C57.1215 32.637 56.8338 32.6496 56.5466 32.6628C56.2627 32.6765 55.9788 32.6903 55.6949 32.7073C55.4066 32.7249 55.1188 32.7452 54.8305 32.766C54.5494 32.7869 54.2677 32.8072 53.987 32.8314C53.6982 32.855 53.4104 32.8836 53.1227 32.911C52.8443 32.9379 52.5664 32.9643 52.2896 32.9939C51.9948 33.0252 51.7015 33.0598 51.4083 33.0944C51.1414 33.1252 50.8745 33.1554 50.6082 33.1889C50.3028 33.2273 49.9981 33.2685 49.6939 33.3097C49.439 33.3443 49.1842 33.3772 48.93 33.4129C48.6044 33.4591 48.2804 33.5079 47.9558 33.5568C47.7279 33.5909 47.5 33.6238 47.2721 33.6589C46.8993 33.7166 46.528 33.7765 46.1563 33.8363C45.9767 33.8649 45.7966 33.8929 45.6181 33.9225C45.0701 34.012 44.5248 34.1038 43.9806 34.1971C43.4051 34.296 42.9844 34.7951 42.9839 35.3794V48.7647C42.114 48.9158 41.2442 49.0695 40.3744 49.226C39.6451 49.3551 38.9158 49.4841 38.1855 49.6132V36.6435C38.1926 36.1158 37.8445 35.649 37.337 35.5057C37.2909 35.4947 37.2448 35.487 37.1981 35.4816C37.1289 35.4623 37.0575 35.4497 36.9861 35.4437C36.9181 35.4437 36.8505 35.4497 36.7835 35.4607C36.2415 35.5535 35.6968 35.6446 35.1504 35.7347L35.1355 35.7374C34.5985 35.8253 34.0592 35.911 33.5183 35.995C33.4656 36.0032 33.4123 36.0104 33.3596 36.0192C32.8692 36.0938 32.3772 36.1663 31.8841 36.2366C31.7847 36.2509 31.6847 36.263 31.5859 36.2767C31.1367 36.3388 30.6864 36.3997 30.2355 36.4563C30.1103 36.4717 29.9851 36.4848 29.8599 36.5002C29.4371 36.5513 29.0137 36.6012 28.5887 36.6463C28.4327 36.6628 28.2757 36.6765 28.1191 36.6924C27.7227 36.7319 27.3256 36.7704 26.9275 36.8039C26.7556 36.8187 26.5826 36.8297 26.4102 36.8429C26.0291 36.872 25.6469 36.9 25.2642 36.9225C25.0753 36.934 24.8852 36.9412 24.6958 36.9505C24.329 36.9692 23.9621 36.9867 23.5942 36.9977C23.3921 37.0038 23.1895 37.006 22.9869 37.0104C22.6321 37.0175 22.2768 37.0235 21.921 37.0235C21.7074 37.0235 21.4937 37.0191 21.2801 37.0164C20.9342 37.0126 20.5888 37.0065 20.2422 36.995C20.0193 36.9873 19.7958 36.9752 19.5723 36.9648C19.2362 36.9489 18.9012 36.9307 18.5657 36.9071C18.3318 36.8906 18.0978 36.8692 17.8634 36.8489C17.5366 36.8204 17.2099 36.7902 16.8831 36.7539C16.6421 36.727 16.401 36.6957 16.1599 36.665C15.8414 36.6238 15.5224 36.5798 15.2033 36.531C14.9535 36.4925 14.7036 36.4497 14.4543 36.4063C14.144 36.3519 13.8343 36.2954 13.5246 36.2328C13.2665 36.1812 13.0095 36.1257 12.7519 36.068C12.4505 36.001 12.149 35.9302 11.8475 35.855C11.5817 35.7885 11.3159 35.7188 11.0502 35.6452C10.898 35.6035 10.7459 35.5573 10.5938 35.5134V30.8177L10.6257 30.8259C11.1776 30.9742 11.7289 31.1098 12.2797 31.2323C12.4269 31.2647 12.5735 31.2894 12.7206 31.3207C13.127 31.4058 13.5334 31.4904 13.9392 31.5623C14.1616 31.6019 14.3834 31.6326 14.6053 31.6678C14.9353 31.721 15.2659 31.7759 15.5954 31.821C15.8387 31.8539 16.0808 31.8786 16.3236 31.9077C16.6327 31.9434 16.9419 31.9824 17.2505 32.0126C17.5004 32.0362 17.7502 32.0538 18.0001 32.0736C18.2999 32.0977 18.6009 32.123 18.9012 32.1411C19.1538 32.1559 19.4059 32.1658 19.6585 32.1768C19.9556 32.19 20.2527 32.2037 20.5498 32.2114C20.8018 32.218 21.0528 32.2202 21.3043 32.2235C21.5058 32.2257 21.7074 32.2328 21.9083 32.2328C21.9907 32.2328 22.0725 32.229 22.1544 32.2284C22.5717 32.2262 22.988 32.2174 23.4037 32.2065C23.5975 32.201 23.7914 32.1993 23.9852 32.1922C24.5876 32.1702 25.1884 32.14 25.788 32.1016C25.844 32.0977 25.8995 32.0922 25.955 32.089C26.5036 32.0516 27.0505 32.0082 27.5964 31.9588C27.8144 31.939 28.0318 31.9154 28.2493 31.894C28.6331 31.8561 29.0159 31.8171 29.3981 31.7743C29.6452 31.7463 29.8912 31.7166 30.1372 31.6864C30.492 31.6436 30.8451 31.5991 31.1982 31.553C31.4497 31.52 31.7007 31.486 31.9511 31.4514C32.3036 31.4025 32.6556 31.352 33.0065 31.2998C33.2465 31.2641 33.4865 31.2295 33.7248 31.1928C34.1048 31.1345 34.4837 31.0752 34.8615 31.0137C35.068 30.9808 35.2745 30.9484 35.4804 30.9149C36.0515 30.821 36.621 30.726 37.1877 30.6288C37.7643 30.5305 38.186 30.0308 38.1855 29.4454V16.06C39.0553 15.909 39.9252 15.7553 40.795 15.5988C41.5243 15.4697 42.2541 15.3407 42.9839 15.2116V28.1813C42.9839 28.5349 43.1398 28.871 43.4106 29.0989C43.6818 29.3251 44.0377 29.4218 44.3864 29.3641C44.9185 29.273 45.4528 29.1834 45.9888 29.095C46.1903 29.0615 46.3935 29.0302 46.5956 28.9978C46.9317 28.9435 47.2672 28.8891 47.6049 28.8369C47.8548 28.7985 48.1063 28.7622 48.3572 28.7249C48.6477 28.6815 48.9377 28.6376 49.2293 28.5964C49.5093 28.5563 49.791 28.5206 50.0717 28.4827C50.3358 28.4476 50.5983 28.4108 50.8624 28.3778C51.1485 28.3416 51.4363 28.3103 51.7229 28.2768C51.9871 28.2461 52.2512 28.2137 52.5148 28.1856C52.7982 28.1554 53.0821 28.1296 53.366 28.1027C53.6345 28.0769 53.9025 28.0495 54.1716 28.0269C54.4577 28.0028 54.7454 27.983 55.0326 27.9622C55.2995 27.9429 55.5664 27.9226 55.8338 27.9061C56.1232 27.8891 56.4132 27.877 56.7031 27.8639C56.9694 27.8518 57.2363 27.838 57.5032 27.8293C57.7943 27.8199 58.0858 27.8166 58.3769 27.8117C58.6443 27.8073 58.9107 27.8018 59.1781 27.8013C59.4691 27.8013 59.7607 27.8062 60.0518 27.8111C60.3209 27.815 60.5899 27.8188 60.859 27.8276C61.1473 27.8375 61.4362 27.8518 61.725 27.8671C61.9985 27.8809 62.2725 27.8952 62.546 27.9138C62.8315 27.9341 63.1171 27.9594 63.4026 27.9852C63.6789 28.0099 63.9556 28.0352 64.2324 28.0654C64.5168 28.0967 64.8013 28.1335 65.0858 28.1703C65.3642 28.2065 65.6431 28.245 65.9216 28.2872C66.2033 28.3306 66.4855 28.3789 66.7672 28.4284C67.0484 28.4778 67.3307 28.5294 67.6124 28.586C67.8902 28.6409 68.1686 28.7013 68.4465 28.7633C68.7332 28.8276 69.0198 28.8951 69.3059 28.9665C69.5794 29.0346 69.8523 29.1066 70.1247 29.1823C70.2752 29.2235 70.4245 29.2691 70.575 29.3125L70.5755 34.0066ZM70.5755 26.809C70.5558 26.8035 70.5365 26.8007 70.5173 26.7952C69.6793 26.5706 68.8419 26.3839 68.0056 26.2186C67.8337 26.1846 67.6612 26.1494 67.4899 26.1181C66.6728 25.9671 65.8562 25.8414 65.0413 25.7398C64.8941 25.7217 64.7475 25.7079 64.6003 25.692C63.8134 25.6036 63.0287 25.5333 62.245 25.4866C62.1654 25.4822 62.0863 25.4751 62.0073 25.4701C61.2335 25.4279 60.4625 25.4092 59.6921 25.4026C63.1187 23.3406 66.7705 21.6772 70.5755 20.4444V26.809ZM70.5755 17.9469C64.9814 19.7053 59.6751 22.273 54.8245 25.5679C54.02 25.6266 53.2182 25.6986 52.4203 25.7837C52.3198 25.7947 52.2188 25.8035 52.1183 25.8145C51.8948 25.8381 51.6719 25.865 51.4484 25.8908C57.5653 21.5872 63.9677 17.6756 70.3778 15.6564C70.4992 15.8909 70.5667 16.1501 70.5755 16.4142V17.9469Z" fill="#041E42"/>
</svg>
