<svg width="289" height="439" fill="none" xmlns="http://www.w3.org/2000/svg"><path d="M92.98 305.323h66.62l-.653-.594c-8.491-6.542-12.409-16.652-12.409-26.762v-49.956h62.699v50.55c0 10.705-3.918 20.22-12.409 26.762h66.618l-.653-.594c-8.49-6.542-12.409-16.652-12.409-26.762V162.593c0-10.11 3.919-20.22 12.409-26.761l.653-.595h-66.618c8.491 6.542 12.409 16.652 12.409 27.356v50.551h-62.699v-49.956c0-10.11 3.918-20.22 12.409-26.762l.653-.594H92.981c4.572 3.568 7.837 7.731 9.797 11.894 1.959 4.757 3.265 9.515 3.265 14.867v115.968c-.653 10.11-4.572 20.22-13.062 26.762zm129.972-157.002h14.369V292.24h-14.369V148.321zm-103.846 0h14.368V292.24h-14.368V148.321z" fill="#C49A6C" fill-opacity=".07"/><path d="M178.172 0L29.477 77.82v30.89L0 124.156v223.361L178.172 439l149.351-76.038v-30.89L357 316.626V93.266L178.172 0zm165.727 309.498l-15.721 8.317V108.71L178.172 30.296 55.679 95.047v14.257l122.493-64.156 135.595 71.285v239.995l-135.595 68.315-165.071-84.355V131.284l15.721-8.316v209.104l149.35 78.414 122.494-64.157v-14.257l-122.494 64.157-135.594-71.286V84.949l135.594-71.286 165.072 86.731v209.104h.655z" fill="#C49A6C" fill-opacity=".07"/></svg>