<svg fill="none" height="37" width="37" xmlns="http://www.w3.org/2000/svg"><path d="M13.213 9.974h0c.398.147.82.302 1.2.42.366.113.753.212 1.067.212.133 0 .274-.03.394-.06.128-.033.267-.077.408-.126.272-.094.578-.215.855-.325l.029-.011h0c1.233-.491 2.675-1.06 4.343-1.06h.011c1.287 0 5.078.288 7.35 3.7 0 0 0 0 0 0l.305.458-.438.331-.017.013c-1.17.883-3.471 2.619-3.471 6.042 0 1.999.643 3.41 1.46 4.416.8.985 1.751 1.558 2.332 1.907l.012.007.258-.428-.258.428c.543.327.783.508.796.857a6.575 6.575 0 01-.136.43c-.105.297-.262.703-.468 1.18a25.796 25.796 0 01-1.778 3.404c-.764 1.218-1.675 2.4-2.696 3.27-1.023.873-2.12 1.405-3.268 1.405-1.173 0-1.997-.348-2.792-.685 0 0 0 0 0 0l-.008-.004c-.815-.347-1.59-.677-2.847-.677-.363 0-.748.085-1.12.196-.375.111-.772.26-1.158.405h-.002s0 0 0 0c-1.079.403-2.208.82-3.477.82h-.035c-1.2-.007-2.4-.626-3.551-1.725-1.149-1.097-2.204-2.633-3.102-4.368C1.61 26.928.5 22.766.5 20.002c0-4.533 1.692-7.236 3.659-8.816 1.99-1.6 4.305-2.082 5.56-2.082 1.112 0 2.326.44 3.494.87zm4.291-7.054c1.171-1.313 2.683-2.207 4.06-2.387-.113 4.2-3.037 7.003-5.944 7.093-.09-1.645.676-3.353 1.884-4.706z" stroke="#041e42"/></svg>