<svg fill="none" height="39" width="43" xmlns="http://www.w3.org/2000/svg"><clipPath id="a"><path d="M.078 0h42v38.936h-42z"/></clipPath><g clip-path="url(#a)" fill="#041e42"><path d="M42.078 21.607c0-1.288-.76-2.448-1.984-3.028-1.248-.592-2.864-.892-4.803-.892H14.216a3.806 3.806 0 00-.993-1.86l-2.989-3.08c-.74-.762-1.802-1.225-2.992-1.303l-.537-.035a2.267 2.267 0 00-.822.1V9.883c0-.57-.26-1.086-.674-1.45.42-.467.674-1.068.674-1.722 0-1.483-1.302-2.69-2.903-2.69-1.6 0-2.902 1.207-2.902 2.69 0 .655.253 1.255.674 1.721a1.93 1.93 0 00-.674 1.45v24.274c0 .42.367.76.82.76H3.73c.423 0 .777-.298.816-.688.098-.958.644-3.588 1.998-4.767H8.74c.453 0 .82-.34.82-.76s-.367-.761-.82-.761H1.72v-6.695h10.949v1.981c0 1.173 1.029 2.127 2.294 2.127h24.822c.22 0 .442-.03.653-.088v2.675H15.959c-.453 0-.82.34-.82.76s.367.76.82.76h19.654c1.348 1.177 1.898 3.81 1.998 4.768.04.39.393.689.817.689h2.83c.454 0 .821-.34.821-.76zm-36.193-7.61c.012-.325-.036-.66.252-.898.29-.24.637-.16.99-.138.774.051 1.427.329 1.888.803l2.988 3.08c.485.5.717 1.196.655 1.96-.024.294-.019.555-.286.762-.244.19-.51.154-.804.146-.826-.023-1.548-.31-2.032-.81l-2.99-3.08c-.482-.498-.686-1.164-.661-1.826zm-4.166 5.726V9.882c0-.265.232-.481.518-.481h1.486c.286 0 .519.216.519.48v9.842H1.719zm4.164-2.311l2.242 2.31H5.883zM2.98 5.54c.696 0 1.262.525 1.262 1.17S3.676 7.88 2.98 7.88s-1.26-.526-1.26-1.17.566-1.17 1.261-1.17zm.035 27.854H1.719V29.46h2.75c-.887 1.347-1.289 3.014-1.454 3.935zm11.947-9.564c-.36 0-.653-.272-.653-.605v-4.018H35.29c1.677 0 3.042.244 4.056.725.673.319 1.09.96 1.09 1.674v1.619c0 .333-.293.605-.653.605H14.962zm24.18 9.564c-.166-.921-.567-2.588-1.455-3.935h2.75v3.935z"/><path d="M13.107 28.408c-.17-.383-.66-.569-1.071-.41-.413.157-.615.61-.444.992.171.383.659.57 1.072.412.412-.159.615-.612.443-.994z"/></g></svg>