<svg fill="none" height="31" width="36" xmlns="http://www.w3.org/2000/svg"><g fill="#041e42"><path d="M18 0h-7.8c-.331 0-.6.231-.6.517v3.616h-9c-.331 0-.6.232-.6.517v25.833c0 .286.269.517.6.517H18c.331 0 .6-.231.6-.517V.517C18.6.23 18.331 0 18 0zm-.6 26.867h-6.6v-1.034h6.6zM1.2 7.75h8.4v15.5H1.2zm16.2-2.067h-6.6v-1.55h6.6zm-16.2 18.6h8.4v1.55H1.2zm9.6.517V6.717h6.6V24.8zm6.6-23.767V3.1h-6.6V1.033zM9.6 5.167v1.55H1.2v-1.55zm-8.4 21.7h8.4v3.1H1.2zm9.6 3.1V27.9h6.6v2.067z"/><path d="M35.98 28.286L28.78 4.52a.532.532 0 00-.278-.317.685.685 0 00-.457-.052l-9 2.067c-.318.073-.509.354-.426.629l7.2 23.766c.04.134.141.247.28.317a.684.684 0 00.456.051l9-2.067c.318-.073.508-.353.426-.628zM20.888 10.24l7.841-1.8.282.93-7.84 1.803zm8.426.133l3.48 11.494-7.838 1.8-3.48-11.494zM33.1 22.867l.614 2.028-7.84 1.8-.613-2.027zM27.772 5.283l.653 2.157-7.84 1.8-.653-2.157zm-.944 24.567l-.653-2.157 7.84-1.8.653 2.156zM7.8 9.3H3c-.331 0-.6.231-.6.517v4.133c0 .285.269.517.6.517h4.8c.331 0 .6-.232.6-.517V9.817c0-.286-.269-.517-.6-.517zm-.6 4.133H3.6v-3.1h3.6z"/></g></svg>