<svg fill="none" height="38" width="42" xmlns="http://www.w3.org/2000/svg"><clipPath id="a"><path d="M0 .956h42v37H0z"/></clipPath><g clip-path="url(#a)"><path d="M9.608 33.62c-.34 0-.615.243-.615.542v3.252c0 .3.276.542.615.542.34 0 .616-.242.616-.542v-3.252c0-.3-.276-.542-.616-.542zm8.093 1.807c-.34 0-.615.242-.615.542 0 .3.276.542.615.542s.616-.243.616-.542c0-.3-.276-.542-.615-.542zm3.692 0c-.34 0-.615.242-.615.542 0 .3.275.542.615.542.34 0 .615-.243.615-.542 0-.3-.275-.542-.615-.542zM17.7 32.175c-.34 0-.615.243-.615.542s.276.542.615.542.616-.243.616-.542-.276-.542-.616-.542zm3.692 0c-.34 0-.615.243-.615.542s.275.542.615.542c.34 0 .615-.243.615-.542s-.275-.542-.615-.542zm15.92-13.333H29.93c-1.018 0-1.846.73-1.846 1.626v5.203c0 .896.828 1.626 1.846 1.626h.738c.34 0 .615.243.615.542v.936a5.75 5.75 0 00-1.258-.542l-6.923-2.052c-.47-.14-.702-.531-.668-.949 2.37-1.224 4.01-3.432 4.19-5.983 1.152-.028 2.08-.861 2.08-1.882 0-1.016-.918-1.846-2.062-1.882.001-.106.007-.919-.007-1.006a71.794 71.794 0 01-.317-2.147c-.105-.794-.213-1.615-.32-2.171 1.36-.936 2.062-2.399 1.876-3.919a3.923 3.923 0 00-.528-1.534c-.157-.265-.529-.368-.83-.23-.301.14-.418.467-.26.732.213.36.346.746.395 1.148.14 1.15-.394 2.257-1.429 2.96-.348.236-.517.622-.442 1.005.104.526.211 1.344.315 2.134.067.504.134 1.018.202 1.468a64.268 64.268 0 00-6.865-.398 64.44 64.44 0 00-7.429.4l.514-3.485c.073-.396-.12-.797-.494-1.025-1.06-.647-1.66-1.712-1.601-2.848.085-1.653 1.621-3.023 3.498-3.118a4.21 4.21 0 011.103.088c.438.095.892-.035 1.185-.34.71-.736 1.744-1.159 2.838-1.159s2.128.423 2.837 1.16c.293.304.747.434 1.185.34a4.193 4.193 0 012.429.2c.31.124.674.005.816-.268.141-.272.005-.593-.304-.718a5.408 5.408 0 00-1.445-.36 5.611 5.611 0 00-1.76.086c-.943-.969-2.311-1.524-3.758-1.524s-2.816.555-3.759 1.524a5.585 5.585 0 00-1.438-.111c-1.217.061-2.364.52-3.23 1.291-.864.771-1.371 1.787-1.426 2.86-.077 1.502.71 2.91 2.105 3.773-.008.044-.62 4.203-.622 4.244-.002.024-.003.924-.002.948-1.143.036-2.061.866-2.061 1.882 0 1.02.927 1.854 2.078 1.882a6.67 6.67 0 00.579 2.286c.127.282.49.412.799.304.316-.11.47-.426.345-.704a5.7 5.7 0 01-.51-2.356v-3.745a62.924 62.924 0 017.522-.423c2.328.01 4.675.153 6.986.422v3.746c0 3.524-3.254 6.39-7.254 6.39-2.021 0-3.967-.752-5.337-2.062a.675.675 0 00-.87-.032.498.498 0 00-.035.766 8.424 8.424 0 002.191 1.503v.019c0 .37-.268.7-.667.818l-6.923 2.052c-2.2.652-3.677 2.464-3.677 4.508v4.673c0 .3.275.542.615.542.34 0 .615-.242.615-.542v-4.673c0-1.578 1.141-2.977 2.84-3.48l5.804-1.721 2.932 2.001c-1.084.564-1.77 1.604-1.77 2.726v5.147c0 .3.276.542.616.542.34 0 .615-.242.615-.542v-5.147c0-.803.534-1.543 1.36-1.884l7.087-2.925 6.078 1.802a4.3 4.3 0 011.651.915v.895h-.005c-.863 0-1.565.619-1.565 1.38v4.127c0 .76.702 1.38 1.565 1.38h3.384c1.581 0 2.867-1.134 2.867-2.526v-1.835c0-.982-.64-1.834-1.57-2.252V27.84c0-.299.276-.542.615-.542h.738c1.018 0 1.846-.73 1.846-1.626v-5.203c0-.897-.828-1.626-1.846-1.626zm-10.67-2.272c.465.034.831.379.831.797s-.366.762-.83.796zM9.675 18.163c-.464-.034-.83-.378-.83-.796s.366-.762.83-.797zm7.21 10.851l-2.788-1.903c.6-.257 1.033-.738 1.183-1.304.916.292 1.89.446 2.88.446 1.089 0 2.13-.182 3.088-.513.102.456.385.86.793 1.146zM36.3 33.596v1.835c0 .794-.734 1.441-1.636 1.441h-3.385c-.184 0-.335-.132-.335-.295V32.45c0-.163.15-.295.335-.295h3.385c.902 0 1.636.647 1.636 1.442zm1.629-7.925c0 .299-.276.542-.616.542h-.738c-1.018 0-1.846.73-1.846 1.626v3.233c-.059-.003-2.15-.002-2.214-.002v-3.23c0-.897-.828-1.626-1.846-1.626h-.738c-.34 0-.616-.243-.616-.542v-5.203c0-.3.276-.542.616-.542h7.382c.34 0 .616.243.616.542zM17.43 8.228v2.598c0 .3.276.542.616.542.34 0 .615-.242.615-.542V8.228c0-.3-.275-.542-.615-.542-.34 0-.616.242-.616.542zm3.728-.208l-1.227 2.598c-.13.276.018.594.332.709.307.112.673-.013.804-.293l1.227-2.598c.13-.277-.018-.594-.332-.709-.313-.115-.673.016-.804.293zm1.204 10.464v-1.119c0-.3-.275-.542-.615-.542-.34 0-.615.243-.615.542v1.119c0 .299.275.542.615.542.34 0 .615-.243.615-.542zm8.798 2.526c-.34 0-.615.242-.615.542v3.035c0 .3.275.542.615.542.34 0 .615-.243.615-.542v-3.035c0-.3-.275-.542-.615-.542zM14.13 7.727c-.314.115-.463.432-.332.709l1.227 2.598c.131.28.497.405.804.293.314-.115.462-.433.332-.709L14.934 8.02c-.13-.277-.49-.408-.804-.293zM33.622 21.01c-.34 0-.615.242-.615.542v3.035c0 .3.275.542.615.542.34 0 .615-.243.615-.542v-3.035c0-.3-.275-.542-.615-.542zm2.461 0c-.34 0-.615.242-.615.542v3.035c0 .3.275.542.615.542s.615-.243.615-.542v-3.035c0-.3-.275-.542-.615-.542zM18.25 22.19a2.751 2.751 0 001.375-.41c.277-.174.342-.513.145-.757-.196-.244-.58-.301-.858-.128a1.436 1.436 0 01-1.507 0c-.277-.173-.661-.115-.857.129-.197.244-.131.583.146.755.235.147.882.433 1.556.412zm-3.064-3.706v-1.119c0-.3-.276-.542-.616-.542-.34 0-.615.243-.615.542v1.119c0 .299.275.542.615.542.34 0 .616-.243.616-.542z" fill="#041e42"/></g></svg>