<svg fill="none" height="36" width="36" xmlns="http://www.w3.org/2000/svg"><g fill="#041e42"><path d="M3.938 18.564h28.125a.562.562 0 00.562-.563v-2.25a.564.564 0 00-.563-.562h-1.124v-13.5a.564.564 0 00-.563-.563H5.625a.562.562 0 00-.562.563v13.5H3.938a.562.562 0 00-.563.562v2.25a.562.562 0 00.563.563zM6.188 2.25h23.625v12.94H15.188v-2.25a.564.564 0 00-.563-.563h-4.5a.562.562 0 00-.563.563v2.25H6.188zm7.875 12.938h-3.376V13.5h3.376zM4.5 16.314h27v1.125h-27zm9 5.624h-2.25v1.126h2.25zm11.25 0H22.5v1.126h2.25z"/><path d="M33.188 20.813h-5.994l-.218-.724a.563.563 0 00-.538-.401h-5.625a.563.563 0 00-.54.4l-.217.724h-4.112l-.218-.724a.563.563 0 00-.538-.4H9.563a.563.563 0 00-.54.4l-.217.724H2.813a.564.564 0 00-.563.563v2.25a.562.562 0 00.563.563h.562v10.125a.562.562 0 00.563.562h1.125a.562.562 0 00.559-.504l1.072-10.184h1.1l-.458 1.526a.571.571 0 00-.023.162v1.688a1.684 1.684 0 001.169 1.597l.52 5.208a.563.563 0 00.56.507h1.126a.562.562 0 00.56-.507l.511-5.118h1.232l.512 5.118a.563.563 0 00.56.507h1.125a.562.562 0 00.56-.507l.52-5.208a1.684 1.684 0 001.17-1.598v-1.687a.573.573 0 00-.024-.162l-.458-1.526h2.088l-.458 1.526a.573.573 0 00-.023.162v1.687a1.683 1.683 0 001.169 1.598l.52 5.208a.563.563 0 00.56.507h1.126a.562.562 0 00.56-.507l.511-5.118h1.232l.512 5.118a.563.563 0 00.56.507h1.125a.562.562 0 00.56-.507l.52-5.208a1.684 1.684 0 001.17-1.598v-1.687a.573.573 0 00-.024-.162l-.458-1.526h1.1l1.072 10.184a.562.562 0 00.56.504h1.125a.564.564 0 00.562-.563V24.188h.563a.564.564 0 00.562-.563v-2.25a.564.564 0 00-.562-.563zM4.555 33.75H4.5v-9.563h1.063zm-1.18-10.688v-1.125h5.094l-.338 1.125zm6.803 10.688h-.106l-.45-4.5h1.006zm4.394 0l-.45-4.5h1.006l-.45 4.5zm1.74-6.188a.562.562 0 01-.562.563H9a.563.563 0 01-.563-.563v-1.605l1.544-5.145h4.788l1.544 5.145zm.307-4.5l-.338-1.125h3.438l-.338 1.125zm4.81 10.688h-.107l-.45-4.5h1.006zm4.393 0l-.45-4.5h1.006l-.45 4.5zm1.74-6.188a.562.562 0 01-.562.563h-6.75a.562.562 0 01-.563-.563v-1.605l1.544-5.145h4.788l1.544 5.145zM31.5 33.75h-.056l-1.007-9.563H31.5zm1.125-10.688h-4.756l-.338-1.125h5.094z"/></g></svg>