<svg fill="none" height="34" width="42" xmlns="http://www.w3.org/2000/svg"><g fill="#041e42"><path d="M26.25 23.205h-1.5c-.414 0-.75.281-.75.628s.336.627.75.627h1.5c.414 0 .75-.281.75-.627s-.336-.628-.75-.628z"/><path d="M37.125 11.916a5.81 5.81 0 00-.375.014V4.39C36.75 1.97 34.395 0 31.5 0h-21C7.605 0 5.25 1.97 5.25 4.39v7.54a5.812 5.812 0 00-.375-.014C2.187 11.916 0 13.746 0 15.993c0 1.406.851 2.69 2.25 3.435V27.7c0 .028.003.056.007.083.117 1.642 1.75 2.948 3.743 2.948v.628c0 1.037 1.01 1.881 2.25 1.881s2.25-.844 2.25-1.881v-.628h21v.628c0 1.037 1.01 1.881 2.25 1.881S36 32.396 36 31.36v-.628c1.993 0 3.626-1.306 3.743-2.948a.527.527 0 00.007-.083v-8.272C41.149 18.683 42 17.4 42 15.994c0-2.248-2.187-4.077-4.875-4.077zM6.75 4.39c0-1.729 1.682-3.136 3.75-3.136h21c2.068 0 3.75 1.407 3.75 3.136v7.84c-1.76.616-3 2.07-3 3.763v2.824a4.228 4.228 0 00-2.25-.629H12c-.844 0-1.623.234-2.25.629v-2.824c0-1.693-1.24-3.147-3-3.763zM9 31.36c0 .345-.336.627-.75.627s-.75-.282-.75-.627v-.628H9zm25.5 0c0 .345-.337.627-.75.627s-.75-.282-.75-.627v-.628h1.5zm4.159-12.852c-.251.107-.409.323-.409.558v8.53c0 1.038-1.01 1.882-2.25 1.882H6c-1.24 0-2.25-.844-2.25-1.881v-8.53c0-.236-.158-.452-.409-.56-1.135-.485-1.841-1.448-1.841-2.513 0-1.556 1.514-2.822 3.375-2.822s3.375 1.266 3.375 2.822v5.331c0 1.73 1.682 3.136 3.75 3.136h9.75c.414 0 .75-.281.75-.628 0-.346-.336-.627-.75-.627H12c-1.24 0-2.25-.844-2.25-1.881s1.01-1.882 2.25-1.882h18c1.24 0 2.25.845 2.25 1.882s-1.01 1.881-2.25 1.881h-.75c-.414 0-.75.281-.75.628 0 .346.336.627.75.627H30c2.068 0 3.75-1.407 3.75-3.136v-5.331c0-1.556 1.514-2.822 3.375-2.822s3.375 1.266 3.375 2.822c0 1.065-.706 2.028-1.841 2.514z"/></g></svg>