<svg width="26" height="26" fill="none" xmlns="http://www.w3.org/2000/svg"><path d="M9.14 5.586c0-1.4-1.138-2.54-2.538-2.54s-2.54 1.14-2.54 2.54c0 1.4 1.14 2.539 2.54 2.539 1.4 0 2.539-1.139 2.539-2.54zM6.603 7.109c-.84 0-1.524-.683-1.524-1.523 0-.84.684-1.524 1.524-1.524s1.523.684 1.523 1.524-.683 1.523-1.523 1.523z" fill="#13377D"/><path d="M6.602 13.203c3.684 0 6.601-3.004 6.601-6.601A6.609 6.609 0 006.602 0 6.609 6.609 0 000 6.602c0 3.597 2.917 6.601 6.602 6.601zM4.065 11.58a2.542 2.542 0 012.537-2.44 2.542 2.542 0 012.536 2.438 5.584 5.584 0 01-5.073 0zM6.602 1.016a5.592 5.592 0 015.585 5.586 5.606 5.606 0 01-2.103 4.365 3.56 3.56 0 00-3.482-2.842 3.56 3.56 0 00-3.483 2.842 5.608 5.608 0 01-2.103-4.365 5.592 5.592 0 015.586-5.586zm15.336 17.367c0-1.4-1.14-2.54-2.54-2.54a2.542 2.542 0 00-2.539 2.54c0 1.4 1.14 2.539 2.54 2.539 1.4 0 2.538-1.14 2.538-2.54zm-2.54 1.523a1.524 1.524 0 010-3.047c.84 0 1.524.684 1.524 1.524s-.684 1.523-1.524 1.523z" fill="#13377D"/><path d="M19.398 12.797a6.609 6.609 0 00-6.601 6.601c0 3.598 2.916 6.602 6.601 6.602S26 22.996 26 19.398a6.609 6.609 0 00-6.602-6.601zm-2.536 11.579a2.542 2.542 0 012.536-2.439 2.542 2.542 0 012.537 2.439 5.586 5.586 0 01-5.073 0zm6.02-.612a3.56 3.56 0 00-3.484-2.842 3.56 3.56 0 00-3.482 2.842 5.608 5.608 0 01-2.104-4.366 5.592 5.592 0 015.586-5.585 5.592 5.592 0 015.586 5.585 5.608 5.608 0 01-2.103 4.366zm-10.898-.1A3.559 3.559 0 018.43 20.11v-.507h.507a.508.508 0 00.407-.813l-3.047-4.062a.508.508 0 00-.813 0L2.437 18.79a.508.508 0 00.407.813h.507v.507c0 2.52 2.05 4.57 4.57 4.57h4.063a.508.508 0 000-1.015zm-4.062 0a3.559 3.559 0 01-3.555-3.555v-1.015a.508.508 0 00-.508-.508l2.031-2.708 2.032 2.708a.508.508 0 00-.508.508v1.015c0 1.434.664 2.716 1.7 3.555H7.923zm6.094-21.328A3.559 3.559 0 0117.57 5.89v.507h-.508a.508.508 0 00-.406.813l3.047 4.062a.508.508 0 00.813 0l3.047-4.062a.508.508 0 00-.407-.813h-.508V5.89c0-.137-.006-.276-.018-.411a.508.508 0 00-1.011.09c.009.106.014.214.014.32v1.016c0 .28.227.508.508.508l-2.032 2.708-2.03-2.708c.28 0 .507-.227.507-.508V5.891a4.564 4.564 0 00-1.7-3.555h1.192c.406 0 .804.068 1.183.201a.508.508 0 00.338-.957c-.488-.172-1-.26-1.52-.26h-4.063a.508.508 0 000 1.016z" fill="#13377D"/><path d="M21.277 3.91a.508.508 0 100-1.016.508.508 0 000 1.016z" fill="#13377D"/></svg>