<svg fill="none" height="37" width="37" xmlns="http://www.w3.org/2000/svg"><g fill="#041e42"><path d="M33.802 34.689l-1.99-6.964 2.865-14.896a.578.578 0 00-.568-.687h-1.455a2.314 2.314 0 00-2.272 1.88l-1.954 10.26h-8.483a2.024 2.024 0 000 4.047h.532l-1.192 6.36h-2.52V20.814h3.397a.651.651 0 00.65-.65v-2.169a.651.651 0 00-.65-.65H8.614a2.9 2.9 0 00-2.255-2.254V9.643l1.579-.632.922 3.871a2.315 2.315 0 002.81 1.708l.611-.153a.578.578 0 00.422-.695l-2.89-12.14a.578.578 0 00-.703-.427l-.649.162a2.32 2.32 0 00-1.689 2.779l.895 3.758-2.1.84a.578.578 0 00-.364.537v5.84a2.9 2.9 0 00-2.254 2.254H1.807a.65.65 0 00-.65.65v2.168a.651.651 0 00.65.65H2.89V34.69H1.156v1.156h34.688V34.69zM8.742 2.459l.081-.02 2.623 11.015-.056.014a1.155 1.155 0 01-1.406-.854L7.897 3.848a1.16 1.16 0 01.845-1.39zm-2.96 13.73a1.738 1.738 0 011.634 1.156h-3.27a1.737 1.737 0 011.635-1.156zm-3.47 3.469V18.5h17.344v1.156zm2.891 15.03H4.047V20.815h1.156zm8.094 0H6.359V20.815h6.938zm2.312 0h-1.156V20.815h1.156zm4.336-7.515a.867.867 0 010-1.734h8.961a.578.578 0 00.568-.47l2.044-10.73a1.158 1.158 0 011.136-.94h.755l-2.668 13.874zm.516 7.516l1.193-6.36h1.136l-1.193 6.36zm2.313 0l1.192-6.36h4.504l1.817 6.36zm8.716 0l-1.817-6.36h1.11l1.817 6.36z"/><path d="M23.125 16.766a7.516 7.516 0 10-7.516-7.516 7.524 7.524 0 007.516 7.516zm-6.333-8.094a6.37 6.37 0 015.755-5.755v.552h1.156v-.552a6.37 6.37 0 015.755 5.755h-.552v1.156h.552a6.37 6.37 0 01-5.755 5.755v-.552h-1.156v.552a6.37 6.37 0 01-5.755-5.755h.552V8.672z"/><path d="M23.486 9.701a.577.577 0 00.217-.451V4.625h-1.156v4.347l-2.674 2.14.723.902z"/></g></svg>