<svg fill="none" height="39" width="42" xmlns="http://www.w3.org/2000/svg"><clipPath id="a"><path d="M0 0h42v38.936H0z"/></clipPath><g clip-path="url(#a)"><path d="M39.599 36.942L37.74 26.858c-.2-1.086-1.032-1.96-2.17-2.277l-5.012-1.402a4.994 4.994 0 00-1.442-3.055 5.652 5.652 0 00-2.437-1.445 9.73 9.73 0 00.441-.485c1.192-1.405 1.83-2.953 1.992-4.01h.387c1.006 0 1.824-.758 1.824-1.69v-.867c0-.622-.378-1.186-.946-1.478V8.065c0-.315-.275-.57-.615-.57s-.615.255-.615.57v2.34a4.03 4.03 0 00-.904.254 3.283 3.283 0 00-.198.09V6.156c0-1.27-1.114-2.302-2.483-2.302h-1.698c-.585 0-1.157.189-1.61.533l-.167.126c-.306.232-.693.36-1.088.36s-.781-.128-1.087-.36l-.167-.126a2.679 2.679 0 00-1.61-.533h-1.699c-1.369 0-2.483 1.033-2.483 2.302v4.595a3.312 3.312 0 00-.285-.126 4.028 4.028 0 00-.817-.22V4.49c0-1.847 1.62-3.349 3.612-3.349h9.072c1.992 0 3.612 1.502 3.612 3.349v.896c0 .315.276.57.615.57s.615-.255.615-.57V4.49C30.378 2.014 28.206 0 25.536 0h-9.072c-2.67 0-4.842 2.014-4.842 4.489v5.66c-.568.292-.946.856-.946 1.478v.867c0 .932.819 1.69 1.824 1.69h.387c.162 1.057.8 2.605 1.992 4.01.135.159.282.321.44.484-2.131.628-3.685 2.404-3.878 4.5l-5.012 1.403c-1.138.318-1.97 1.19-2.17 2.277l-.754 4.095c-.057.31.168.605.503.658.334.053.652-.155.71-.466l.754-4.095c.121-.657.624-1.185 1.313-1.378l4.635-1.296v1.128c-1.063.18-1.967.857-2.34 1.795-.098.249-.16.51-.182.774l-.448 5.33c-.033.402.116.802.411 1.098s.714.465 1.148.465h.767c.34 0 .615-.256.615-.57s-.276-.57-.615-.57h-.767a.346.346 0 01-.245-.1.296.296 0 01-.087-.234l.448-5.33c.013-.16.05-.318.11-.47.26-.651.959-1.093 1.741-1.098h.116c.76 0 1.433.399 1.717 1.02.08.175.128.359.144.548l.448 5.33a.297.297 0 01-.087.234.347.347 0 01-.245.1h-.767c-.34 0-.615.255-.615.57s.275.57.615.57h.767c.434 0 .853-.17 1.147-.465a1.39 1.39 0 00.411-1.097l-.448-5.33a2.718 2.718 0 00-.237-.905c-.406-.886-1.272-1.502-2.292-1.67v-1.467l2.114-.592c.192.376.574 1.187 1.329 2.937a455.18 455.18 0 012.636 6.282 710.874 710.874 0 011.695 4.148c.09.222.32.37.576.37a.615.615 0 00.576-.37 703.94 703.94 0 011.717-4.202c.907-2.198 1.852-4.46 2.613-6.225.756-1.751 1.137-2.564 1.33-2.94l2.114.592v3.367c-1.465.264-2.575 1.462-2.575 2.896 0 1.627 1.428 2.95 3.183 2.95s3.182-1.323 3.182-2.95c0-1.43-1.102-2.624-2.56-2.893v-3.026l4.635 1.296c.689.193 1.192.72 1.313 1.378l1.858 10.084a.529.529 0 01-.135.46.622.622 0 01-.467.202H4.216a.622.622 0 01-.467-.201.53.53 0 01-.135-.46l.613-3.329c.057-.31-.168-.605-.503-.658-.334-.053-.652.156-.71.466l-.613 3.328a1.616 1.616 0 00.408 1.388 1.9 1.9 0 001.407.606h33.568c.544 0 1.057-.221 1.407-.606.35-.385.499-.891.407-1.388zM29.156 11.566c.327-.076.59-.074.593-.074a.668.668 0 00.3-.067.506.506 0 01.044.202v.867c0 .303-.266.55-.593.55h-.344zm-16.312 1.478H12.5c-.327 0-.594-.247-.594-.55v-.867c0-.07.017-.138.044-.201a.668.668 0 00.3.066c.005 0 .268-.001.594.074zm1.23.64v-1.498c.187.051.39.044.579-.029a.8.8 0 00.531-.738V6.155c0-.64.562-1.162 1.253-1.162h1.698c.303 0 .598.098.832.275l.167.127c.525.398 1.188.617 1.866.617s1.341-.22 1.866-.617l.167-.127c.234-.177.53-.275.832-.275h1.698c.69 0 1.253.521 1.253 1.162v5.264a.8.8 0 00.531.739.923.923 0 00.579.028v1.497c0 .833-.621 2.45-1.772 3.806a7.842 7.842 0 01-1.529 1.392A6.311 6.311 0 0121 20.013a6.31 6.31 0 01-3.68-1.17 7.85 7.85 0 01-1.474-1.354c-1.15-1.356-1.772-2.973-1.772-3.806zm10.955 9.211L21 25.687l-4.028-2.792c.4-.47.623-1.075.623-1.614v-.92c.948.473 2.078.792 3.406.792s2.458-.319 3.406-.791v.919c0 .54.224 1.144.623 1.614zm-9.085-.636a1.807 1.807 0 00-1.081-.037l-2.125.594c.36-1.638 1.794-2.942 3.626-3.195v1.66c0 .358-.172.727-.42.978zm1.67 4.577l-.004-.008-.092-.216-.017-.039-.089-.207-.006-.014a197.504 197.504 0 00-.282-.654l-.072-.166-.025-.06-.069-.156-.02-.045c-.04-.094-.08-.185-.12-.273l-.03-.072-.046-.102-.048-.108-.018-.041-.014-.031c-.07-.16-.138-.31-.202-.453l-.002-.003a83.03 83.03 0 00-.1-.22l-.048-.107 3.465 2.401-1.448.57-.008.003-.604.239-.102-.238zm1.467 3.491a531.997 531.997 0 00-.917-2.192l.23-.09.937 1.01zm1.93 4.634a.558.558 0 00-.062-.095c-.278-.681-.63-1.543-1.021-2.491l.574-2.915h.996l.574 2.915c-.41.993-.776 1.891-1.06 2.586zm.717-6.641h-1.457l-.69-.743L21 27.019l1.418.558zm1.558 1.127l-.367.88-.25-1.271.937-1.011.23.09c-.176.416-.359.853-.55 1.312zm2.355-5.479l-.094.208-.013.028-.098.218-.006.016c-.03.064-.06.131-.09.2l-.016.037a7.214 7.214 0 00-.062.14l-.05.115-.018.038a98.126 98.126 0 00-.152.349l-.068.155-.027.061a76.54 76.54 0 00-.071.164l-.02.047c-.084.192-.17.393-.26.603l-.009.02-.088.206a131.146 131.146 0 00-.111.26l-.103.24-.605-.238-.006-.002-1.449-.57 3.465-2.402-.049.107zm1.496-1.746l-.002-.001a1.806 1.806 0 00-1.08.038 1.45 1.45 0 01-.419-.978v-1.66c1.843.251 3.274 1.543 3.628 3.196zm4.773 8.073c0 .998-.876 1.81-1.952 1.81s-1.952-.812-1.952-1.81.875-1.81 1.952-1.81 1.952.812 1.952 1.81z" fill="#041e42"/></g></svg>