<svg fill="none" height="38" width="38" xmlns="http://www.w3.org/2000/svg"><clipPath id="a"><path d="M0 0h38v38H0z"/></clipPath><g clip-path="url(#a)"><path d="M37.443 29.5c.308 0 .557-.25.557-.557v-1.077c0-1.088-.83-1.974-1.852-1.974h-.901v-1.14a1.45 1.45 0 00-1.447-1.447h-4.481a1.45 1.45 0 00-1.447 1.447v2.97c-4.003-.467-8.985-.468-12.994 0v-2.97a1.45 1.45 0 00-1.448-1.447h-.354c3.052-1.859 6.464-4.379 9.125-6.833l1.747 2.402a1.45 1.45 0 002.022.32l3.624-2.636a1.45 1.45 0 00.319-2.022l-.671-.922.728-.53c.826-.6.977-1.806.337-2.686l-3.021-4.154c-.64-.88-1.833-1.107-2.659-.506l-.728.53-.671-.922a1.449 1.449 0 00-2.022-.32l-3.624 2.636a1.45 1.45 0 00-.319 2.022l1.747 2.402c-3.512 1.977-7.54 4.907-10.508 7.643l-1.285-1.767a2.236 2.236 0 00-3.119-.492l-2.353 1.712a2.236 2.236 0 00-.492 3.119l.208.287-.728.53c-.842.612-.964 1.823-.337 2.685l3.021 4.154c.331.455.815.744 1.332.82v2.226c0 1.088.831 1.973 1.852 1.973h.901v1.14c0 .799.65 1.448 1.448 1.448h4.48a1.45 1.45 0 001.448-1.447v-2.97a55.24 55.24 0 005.198.337.557.557 0 00.01-1.114 53.835 53.835 0 01-5.208-.344v-3.183c3.937-.472 8.974-.482 12.994 0v3.183a53.829 53.829 0 01-5.21.344.557.557 0 00.011 1.114h.012a55.238 55.238 0 005.187-.337v2.97c0 .798.649 1.447 1.447 1.447h4.48a1.45 1.45 0 001.448-1.447v-1.14h.9c1.022 0 1.853-.886 1.853-1.974V31.54a.557.557 0 10-1.113 0v1.462c0 .466-.339.86-.74.86h-.9v-6.857h.9c.401 0 .74.394.74.86v1.077c0 .307.249.556.556.556zM25.282 6.637c.324-.235.83-.116 1.103.261l3.022 4.154c.274.377.232.895-.092 1.13l-.728.53-4.034-5.545zm-7.118 2.39a.339.339 0 01.073-.466l3.624-2.635a.338.338 0 01.466.073l5.687 7.819.998 1.372a.338.338 0 01-.073.467l-3.624 2.635a.336.336 0 01-.466-.073l-6.685-9.191zm1.506 3.964l1.872 2.574c-2.896 2.688-6.958 5.66-10.508 7.643L9.16 20.635c2.889-2.68 6.953-5.657 10.509-7.643zM4.75 27.866v1.767a.947.947 0 01-.432-.33l-3.022-4.155c-.286-.394-.222-.901.092-1.13l.728-.53 2.73 3.752c-.067.21-.097.428-.097.626zm2.752 5.997h-.9c-.401 0-.74-.394-.74-.86v-5.137a.95.95 0 01.192-.57.699.699 0 01.547-.29h.901v6.857zm0-9.111v1.14h-.9c-.046 0-.09.003-.135.006l-.024.002a1.774 1.774 0 00-.927.368l-3.363-4.622a1.12 1.12 0 01.247-1.564l2.353-1.712a1.124 1.124 0 011.564.247l3.409 4.687H8.95a1.45 1.45 0 00-1.448 1.448zm6.262 11.365a.339.339 0 01-.334.334H8.95a.339.339 0 01-.334-.334V24.752c0-.181.153-.334.334-.334h4.48c.181 0 .334.153.334.334zm20.37 0a.339.339 0 01-.334.334h-4.481a.339.339 0 01-.334-.334V24.752c0-.181.153-.334.334-.334h4.48c.182 0 .335.153.335.334z" fill="#041e42"/></g></svg>