<svg xmlns="http://www.w3.org/2000/svg" width="26" height="26" fill="none"><g clip-path="url(#clip0)" fill="#13377D"><path d="M17.54 5.442l-2.476-3.439a.508.508 0 00-.824 0l-2.476 3.439a.508.508 0 00-.096.297v16.56c0 1.048.853 1.9 1.9 1.9h2.168c1.048 0 1.9-.852 1.9-1.9V5.739a.507.507 0 00-.095-.297zm-2.888-2.273l1.543 2.143H13.11l1.543-2.143zm-1.968 3.159h2.41V19.48h-.884v-9.7a.508.508 0 10-1.016 0v9.7h-.51V6.328zm3.937 15.971a.886.886 0 01-.885.885h-2.168a.886.886 0 01-.884-.885v-1.803h3.937V22.3zm0-2.818h-.51V6.328h.51V19.48z"/><path d="M14.2 7.643a.537.537 0 00-.076-.183.484.484 0 00-.228-.187.512.512 0 00-.294-.029.537.537 0 00-.26.14.523.523 0 00-.138.259.509.509 0 10.996 0zm-9.26 3.659v-.077a.727.727 0 01.746-.726l1.547-.066A1.65 1.65 0 008.87 8.785a1.65 1.65 0 00-1.648-1.648H3.765a.633.633 0 01-.632-.632.621.621 0 01.615-.622h3.041a2.048 2.048 0 002.046-2.046 2.048 2.048 0 00-2.046-2.045H3.35a.508.508 0 000 1.015h3.44a1.031 1.031 0 010 2.06H3.77a1.614 1.614 0 00-1.161.468 1.63 1.63 0 00-.49 1.17 1.65 1.65 0 001.647 1.648h3.456A.633.633 0 117.2 9.418l-1.547.066a1.744 1.744 0 00-1.73 1.742v.077A4.439 4.439 0 000 15.706v4.07a4.437 4.437 0 004.432 4.432 4.437 4.437 0 004.433-4.432v-4.07a4.439 4.439 0 00-3.926-4.404zm-3.924 4.404a3.422 3.422 0 012.909-3.38v4.142h-2.91v-.762zm6.833 4.07a3.42 3.42 0 01-3.417 3.416 3.42 3.42 0 01-3.416-3.416v-2.292h6.833v2.291zm0-3.308H4.94v-4.142a3.422 3.422 0 012.91 3.38v.762zM1.892 2.2a.538.538 0 00-.076-.182.512.512 0 00-.781-.077.486.486 0 00-.11.164.504.504 0 00.37.692.5.5 0 00.521-.215.502.502 0 00.076-.382zm24.104 4.659c-.056-1.198-.66-1.791-1.144-2.268-.525-.516-.842-.827-.543-1.847.136-.462-.051-.704-.174-.808-.154-.128-.428-.237-.861-.022-.562.278-1.415 1.096-2.074 1.989-.605.82-1.315 2.047-1.26 3.24.043.891.42 1.71 1.038 2.284a2.494 2.494 0 00-.285 2.456v9.924c0 1.208.982 2.19 2.19 2.19s2.19-.982 2.19-2.19v-9.596a2.48 2.48 0 00-.102-2.768c.688-.64 1.072-1.583 1.025-2.584zm-1.938 14.948a1.176 1.176 0 01-2.35 0v-8.773c.264.155.56.263.88.312a.504.504 0 00.078.006h.606a.502.502 0 00.077-.006c.034-.005.067-.01.1-.017l.063-.014.027-.006c.182-.042.356-.104.519-.183v8.681zm-.403-9.62a1.415 1.415 0 01-.139.065l-.026.012-.041.015-.022.007a1.49 1.49 0 01-.046.015l-.018.005a.494.494 0 01-.052.013l-.014.004a1.5 1.5 0 01-.067.014h-.523a1.363 1.363 0 01-.073-.016l-.029-.007a1.303 1.303 0 01-.043-.012l-.036-.01-.027-.01a1.473 1.473 0 01-.991-1.383 1.46 1.46 0 01.819-1.312l.01-.005.062-.029.01-.004a1.436 1.436 0 01.424-.105l.026-.002a1.49 1.49 0 01.222 0l.026.002a1.474 1.474 0 01.418.104l.016.006a1.46 1.46 0 01.328.195 1.459 1.459 0 01-.214 2.439zm.558-3.43l-.033-.018a2.446 2.446 0 00-.08-.043l-.042-.021a2.46 2.46 0 00-.28-.117l-.016-.005a2.457 2.457 0 00-.454-.107l-.03-.004a2.414 2.414 0 00-.122-.012l-.036-.003a2.515 2.515 0 00-.3 0l-.036.003-.12.012c-.01 0-.02.002-.029.003a2.456 2.456 0 00-.598.16l-.011.004c-.047.02-.093.04-.138.062-.01.004-.019.01-.029.015-.03.015-.061.031-.091.048l-.027.014a2.3 2.3 0 01-.786-1.653c-.034-.728.393-1.724 1.171-2.734.39-.506.766-.888 1.063-1.147-.084 1.085.48 1.64.95 2.101.433.425.805.79.843 1.591.034.732-.255 1.415-.769 1.852z"/></g><defs><clipPath id="clip0"><path fill="#fff" d="M0 0h26v26H0z"/></clipPath></defs></svg>