<svg xmlns="http://www.w3.org/2000/svg" width="26" height="26" fill="none"><g clip-path="url(#clip0)" fill="#13377D"><path d="M19.446 3.907a.387.387 0 00-.735.239 1.95 1.95 0 01.096.607c0 .519-.2 1.01-.562 1.382-.27.277-.49.605-.645.96h-1.553c-.265-.607-.62-.925-.724-1.047a1.969 1.969 0 01-.482-1.295 1.985 1.985 0 012.061-1.981c.305.012.596.092.866.24a.386.386 0 10.37-.678A2.747 2.747 0 0016.932 2a2.76 2.76 0 00-2.8 3.335 2.328 2.328 0 00-1.512-.552H8.862a3.857 3.857 0 00-3.853 3.852v2.832c0 .082.025.158.068.22a1.958 1.958 0 001.163 3.286 5.008 5.008 0 002.575 3.306v.596l-1.33.723h-.507a2.463 2.463 0 00-2.46 2.46v3.556c0 .213.173.386.386.386h1.41a.386.386 0 100-.773H5.29v-3.17c0-.93.757-1.686 1.687-1.686h.478l2.18 1.624a.39.39 0 00.266.075h.003l.19.74-.476 2.417H8.117a.386.386 0 100 .773h9.224a.386.386 0 00.387-.386v-3.556a2.463 2.463 0 00-2.46-2.46h-.522l-1.33-.723v-.596a5.008 5.008 0 002.575-3.306 1.958 1.958 0 001.163-3.286.385.385 0 00.069-.22V9.704a1.43 1.43 0 001.028-1.37V7.55c.119-.326.307-.628.548-.876a2.74 2.74 0 00.647-2.767zM5.782 8.635a3.083 3.083 0 013.08-3.08h3.757a1.56 1.56 0 011.332.741c.07.112.191.18.323.182.15.002.298.02.444.051.158.188.469.444.678 1.02 0 .844-.002.823.006.915a1.43 1.43 0 001.048 1.248v1.37h-1.363c-.423 0-.817-.191-1.082-.523a.387.387 0 00-.56-.048 2.223 2.223 0 01-1.489.57H5.782V8.635zm4.042 12.537l-1.525-1.137.882-.479 1.337.891-.694.725zm1.292-1.255l-1.528-1.019v-.296a5.01 5.01 0 001.27.23l.044.003a5.047 5.047 0 001.741-.233v.296l-1.527 1.019zm.553 1.601l-.228.895h-.65l-.229-.895.554-.578.553.578zm-1.262 3.71l.401-2.043h.615l.401 2.042h-1.417zm4.369-4.857h.492c.93 0 1.687.757 1.687 1.687v3.17h-4.343l-.475-2.418.19-.74a.39.39 0 00.269-.075l2.18-1.624zm-.844-.335l-1.524 1.136-.694-.725 1.336-.89.882.479zm1.803-5.82h-.048a.386.386 0 00-.397.322 4.221 4.221 0 01-4.174 3.529 4.22 4.22 0 01-4.175-3.53.387.387 0 00-.396-.322l-.049.002c-.651 0-1.182-.53-1.182-1.183 0-.634.495-1.15 1.127-1.18h5.515c.597 0 1.195-.177 1.71-.534.39.343.891.534 1.421.534h.704c.632.03 1.126.546 1.126 1.18 0 .652-.53 1.183-1.182 1.183zm1.743-5.882c0 .357-.288.65-.646.654-.761.01-.663-.786-.663-1.12h1.31v.466zm-.654-6.696a.386.386 0 00.386-.386V.386a.386.386 0 10-.772 0v.866c0 .213.173.386.386.386zm-2.304.463a.386.386 0 00.546-.546l-.611-.612a.386.386 0 10-.547.546l.612.612zM19.74.943a.386.386 0 00-.547 0l-.612.611a.386.386 0 10.547.547l.612-.612a.386.386 0 000-.546zm1.356 2.209h-.866a.386.386 0 100 .773h.866a.386.386 0 100-.773z"/><path d="M12.552 3.925h.865a.386.386 0 100-.773h-.865a.386.386 0 000 .773zm-3.691 8.633a.386.386 0 00-.386.386v.851a.386.386 0 10.772 0v-.85a.386.386 0 00-.386-.387zm4.509 0a.386.386 0 00-.386.386v.851a.386.386 0 10.773 0v-.85a.386.386 0 00-.386-.387zm-1.273 2.295a.386.386 0 00-.387.386.595.595 0 01-1.189 0 .386.386 0 00-.773 0 1.368 1.368 0 002.735 0 .386.386 0 00-.386-.386z"/></g><defs><clipPath id="clip0"><path fill="#fff" d="M0 0h26v26H0z"/></clipPath></defs></svg>