<svg xmlns="http://www.w3.org/2000/svg" width="26" height="26" fill="none"><path fill="#13377D" d="M14.779 12.33a.435.435 0 00.583.19c.026-.013 2.576-1.31 3.834-1.707a.433.433 0 00-.261-.826c-1.325.419-3.859 1.706-3.966 1.76a.434.434 0 00-.19.583zm.387-4.963a.432.432 0 00.196-.047c.026-.013 2.576-1.31 3.834-1.707a.433.433 0 00-.261-.826c-1.325.419-3.859 1.706-3.966 1.76a.434.434 0 00.197.82z"/><path fill="#13377D" d="M25.566 6.5a.433.433 0 00-.433.433v16.9c0 .717-.583 1.3-1.3 1.3h-10.4v-.997c.632-.22 2.278-.736 3.9-.736 3.775 0 6.338.836 6.364.845a.436.436 0 00.57-.412V4.767a.432.432 0 00-.34-.423s-.34-.076-.92-.183a.434.434 0 00-.157.853c.221.04.407.076.55.105v18.138c-.982-.257-3.163-.724-6.067-.724-1.888 0-3.742.62-4.316.83-.51-.225-2.052-.83-3.917-.83-2.985 0-5.444.493-6.5.743V5.102a28.523 28.523 0 016.5-.769c1.58 0 2.935.492 3.466.715V22.1a.433.433 0 00.657.371c.043-.025 4.336-2.59 8.147-3.86a.433.433 0 00.296-.411V.434a.433.433 0 00-.585-.406c-3.468 1.3-6.976 3.483-7.01 3.505a.433.433 0 00.459.735c.032-.02 3.083-1.92 6.27-3.2V17.89c-2.958 1.028-6.046 2.706-7.367 3.457V4.767a.434.434 0 00-.24-.388c-.074-.037-1.85-.912-4.093-.912-3.916 0-6.926.847-7.053.883a.433.433 0 00-.314.417v19.066a.435.435 0 00.552.417c.03-.008 3.027-.85 6.815-.85 1.584 0 2.938.493 3.466.715v1.018h-10.4c-.716 0-1.3-.583-1.3-1.3v-16.9a.433.433 0 00-.866 0v16.9A2.17 2.17 0 002.167 26h21.666A2.17 2.17 0 0026 23.833v-16.9a.433.433 0 00-.434-.433z"/><path fill="#13377D" d="M14.779 9.73a.435.435 0 00.583.19c.026-.013 2.576-1.309 3.834-1.706a.433.433 0 00-.261-.827c-1.325.419-3.859 1.706-3.966 1.76a.434.434 0 00-.19.583zm0 5.2a.435.435 0 00.583.19c.026-.014 2.576-1.31 3.834-1.707a.433.433 0 00-.261-.827c-1.325.42-3.859 1.707-3.966 1.761a.434.434 0 00-.19.583zm-4.281-6.888c-2.676-.628-5.717.172-5.845.206a.433.433 0 00.225.837c.029-.008 2.956-.778 5.422-.2a.433.433 0 10.198-.844zm0 2.6c-2.676-.628-5.717.172-5.845.206a.433.433 0 00.225.837c.029-.008 2.956-.778 5.422-.2a.433.433 0 10.198-.844zm4.281 6.888a.435.435 0 00.583.19c.026-.013 2.576-1.309 3.834-1.706a.433.433 0 00-.261-.827c-1.325.419-3.859 1.706-3.966 1.76a.434.434 0 00-.19.583zm-4.281-4.288c-2.676-.628-5.717.171-5.845.206a.433.433 0 00.225.837c.029-.008 2.956-.778 5.422-.2a.433.433 0 10.198-.844zm0 5.2c-2.676-.628-5.717.172-5.845.206a.434.434 0 00.225.837c.029-.008 2.956-.778 5.422-.2a.433.433 0 10.198-.844zm0-2.6c-2.676-.628-5.717.171-5.845.206a.434.434 0 00.225.837c.029-.008 2.956-.778 5.422-.2a.433.433 0 10.198-.844z"/></svg>