<svg width="26" height="26" fill="none" xmlns="http://www.w3.org/2000/svg"><g clip-path="url(#clip0)" fill="#13377D"><path d="M25.459 12.458c.303 0 .541.239.541.542a.536.536 0 01-.541.542h-.542v-1.084h.541z"/><path d="M13.542 12.458h11.375v1.084H13.542v-1.084z"/><path d="M23.292 26H13a.536.536 0 00.542-.542v-.541h9.75c.899 0 1.625-.726 1.625-1.625v-9.75h.541A.536.536 0 0026 13v10.292A2.71 2.71 0 0123.292 26zM26 2.708V13a.536.536 0 00-.542-.542h-.541v-9.75c0-.899-.726-1.625-1.625-1.625h-9.75V.542A.536.536 0 0013 0h10.292A2.71 2.71 0 0126 2.708z"/><path d="M21.667 6.5c.303 0 .541.238.541.542a.536.536 0 01-.541.541h-4.334a.536.536 0 01-.541-.541c0-.304.238-.542.541-.542h4.334zm0 10.833c.303 0 .541.239.541.542a.536.536 0 01-.541.542h-4.334a.536.536 0 01-.541-.542c0-.303.238-.542.541-.542h4.334zm0 3.25c.303 0 .541.239.541.542a.536.536 0 01-.541.542h-4.334a.536.536 0 01-.541-.542c0-.303.238-.542.541-.542h4.334zm-8.126 4.334v.541A.536.536 0 0113 26a.536.536 0 01-.542-.542v-.541h1.083z"/><path d="M12.458 13.542h1.083v11.375h-1.083V13.542zm0-1.084h1.083v1.084h-1.083v-1.084zm0-11.375h1.083v11.375h-1.083V1.083z"/><path d="M13.541.542v.541h-1.083V.542c0-.304.239-.542.542-.542.303 0 .541.238.541.542zM1.083 12.458h11.375v1.084H1.083v-1.084zM8.667 6.5c.303 0 .541.238.541.542a.536.536 0 01-.541.541H7.042V6.5h1.625zm-.163 14.246a.524.524 0 010 .758.508.508 0 01-.379.163.508.508 0 01-.38-.163L6.5 20.258l.758-.758 1.246 1.246zm-.758-3.25a.524.524 0 01.758 0 .524.524 0 010 .758L7.258 19.5l-.758-.758 1.246-1.246zm-2.007 2.003l.758-.758.758.758-.758.758-.758-.758zM7.042 7.583v1.625a.536.536 0 01-.542.542.536.536 0 01-.542-.542V7.583h1.084zM5.958 6.5h1.084v1.083H5.958V6.5zm1.084-1.625V6.5H5.958V4.875c0-.303.239-.542.542-.542.303 0 .542.239.542.542z"/><path d="M6.5 18.742l-.758.758-1.246-1.246a.524.524 0 010-.758.524.524 0 01.758 0L6.5 18.742zM5.958 6.5v1.083H4.333a.536.536 0 01-.541-.541c0-.304.238-.542.541-.542h1.625zm-.704 15.004a.508.508 0 01-.38.163.508.508 0 01-.378-.163.524.524 0 010-.758L5.742 19.5l.758.758-1.246 1.246zm-4.171-9.046v1.084H.542A.536.536 0 010 13c0-.303.238-.542.542-.542h.541z"/><path d="M0 2.708A2.71 2.71 0 012.708 0H13a.536.536 0 00-.542.542v.541h-9.75c-.899 0-1.625.726-1.625 1.625v9.75H.542A.536.536 0 000 13V2.708zm1.083 20.584c0 .899.726 1.625 1.625 1.625h9.75v.541c0 .304.239.542.542.542H2.708A2.71 2.71 0 010 23.292V13c0 .303.238.542.542.542h.541v9.75z"/></g><defs><clipPath id="clip0"><path fill="#fff" d="M0 0h26v26H0z"/></clipPath></defs></svg>