<svg fill="none" height="33" width="39" xmlns="http://www.w3.org/2000/svg"><clipPath id="a"><path d="M0 0h39v33H0z"/></clipPath><g clip-path="url(#a)" fill="#041e42"><path d="M10.177 21.416a3.57 3.57 0 00-1.967-.578c-.967 0-1.867.363-2.47.997-.527.555-.765 1.249-.671 1.954.094.707.51 1.34 1.173 1.783a3.568 3.568 0 001.967.578c.967 0 1.867-.364 2.47-.999.526-.553.765-1.247.671-1.952-.094-.707-.51-1.34-1.173-1.783zm-.62 2.972c-.328.345-.82.544-1.348.544-.394 0-.765-.11-1.074-.316-.359-.24-.584-.582-.635-.964-.051-.38.078-.754.362-1.053.328-.345.82-.543 1.348-.543.394 0 .766.11 1.074.315.359.24.584.583.635.965.05.38-.078.753-.363 1.052zm13.28-9.212c.475 0 .934-.088 1.366-.262.763-.309 1.337-.85 1.614-1.522a2.257 2.257 0 00-.14-2.025c-.523-.913-1.641-1.503-2.848-1.503-.476 0-.936.088-1.368.262-.763.308-1.336.849-1.614 1.522a2.256 2.256 0 00.14 2.025c.525.913 1.643 1.503 2.85 1.503zm-1.631-3.126c.15-.364.461-.657.875-.824a1.99 1.99 0 01.748-.144c.659 0 1.268.32 1.553.817.197.344.224.731.076 1.091-.15.364-.462.657-.876.825a1.984 1.984 0 01-.745.143c-.66 0-1.27-.321-1.556-.818a1.215 1.215 0 01-.075-1.09zm-6.204-1.179c.232.045.469.067.705.067 1.482 0 2.748-.848 3.08-2.064.185-.689.042-1.399-.404-1.998-.449-.604-1.151-1.024-1.976-1.182a3.757 3.757 0 00-.708-.068c-1.48 0-2.746.85-3.076 2.065-.187.689-.045 1.398.4 1.998.45.605 1.153 1.025 1.98 1.182zm-.976-2.907c.18-.659.867-1.12 1.673-1.12.13 0 .26.013.389.038.45.086.832.315 1.077.643.24.324.318.706.218 1.077-.177.648-.882 1.118-1.677 1.118-.129 0-.259-.013-.387-.037-.45-.086-.833-.314-1.077-.642a1.232 1.232 0 01-.216-1.077zm-4.744 4.427c.661-.443 1.077-1.077 1.171-1.784.094-.705-.144-1.398-.67-1.953-.604-.633-1.505-.997-2.472-.997-.71 0-1.408.205-1.966.577-.661.442-1.078 1.075-1.172 1.781-.094.706.144 1.4.672 1.956.603.634 1.504.998 2.472.998a3.56 3.56 0 001.965-.578zm-3.315-1.183c-.285-.3-.414-.675-.363-1.056.05-.38.276-.723.634-.962.308-.206.68-.314 1.073-.314.53 0 1.022.198 1.35.542.284.299.412.673.362 1.053-.051.382-.277.725-.635.965a1.913 1.913 0 01-1.071.315c-.53 0-1.022-.198-1.35-.543z"/><path d="M38.725 6.43c-.125-.106-.347-.233-.697-.233-.41 0-1.502 0-8.128 4.771l-.402.291c-1.184-2.613-3.264-4.943-5.944-6.628C20.48 2.7 16.82 1.677 12.97 1.676h-.003c-2.598 0-5.757.768-8.243 2.005C1.678 5.197 0 7.225 0 9.39c.001 2.614 1.743 3.707 3.143 4.586 1.142.716 2.044 1.282 2.044 2.522 0 1.24-.9 1.806-2.042 2.521-1.4.878-3.141 1.971-3.14 4.586 0 2.165 1.68 4.193 4.728 5.71 2.488 1.238 5.648 2.008 8.246 2.009h.005c4.717 0 9.15-1.54 12.484-4.338 3.292-2.76 5.123-6.42 5.171-10.32a158.5 158.5 0 003.19-3.155c1.69-1.724 2.991-3.147 3.865-4.23 1.157-1.432 1.664-2.31 1.03-2.85zm-14.27 19.691c-3.063 2.57-7.136 3.984-11.47 3.984h-.005c-4.644 0-11.534-2.731-11.535-6.5-.001-2.002 1.242-2.781 2.558-3.607 1.23-.772 2.625-1.647 2.624-3.5 0-1.853-1.395-2.729-2.626-3.5-1.317-.827-2.56-1.607-2.561-3.608 0-2.315 2.515-3.912 4.015-4.659 2.243-1.116 5.192-1.837 7.513-1.837h.002c3.539.001 6.901.94 9.725 2.715 2.604 1.637 4.591 3.935 5.638 6.502-3.122 2.308-6.504 4.968-9.022 7.105-4.182.458-4.752 2.817-5.169 4.55-.354 1.475-.585 2.189-1.93 2.28-.332.022-.602.234-.654.512s.128.55.436.658c.086.03 2.145.742 4.55.742 1.676 0 3.114-.344 4.273-1.022 1.429-.835 2.398-2.16 2.884-3.936a158.982 158.982 0 005.385-4.856c-.428 3.012-2.035 5.799-4.631 7.977zm-2.2-3.236c-.763 2.558-2.682 3.855-5.71 3.855h-.001c-.799 0-1.564-.092-2.206-.207.767-.663 1.007-1.66 1.215-2.524.396-1.646.77-3.203 3.83-3.573zm9.941-9.62c-2.853 2.876-6.308 6.107-9.151 8.564l-.44-.376-1.943-1.657c2.578-2.171 5.886-4.76 8.972-7.027.36-.264.717-.525 1.069-.779 3.581-2.584 5.458-3.709 6.415-4.198-.571.815-1.888 2.415-4.922 5.472z"/></g></svg>