<svg fill="none" height="36" width="36" xmlns="http://www.w3.org/2000/svg"><g fill="#041e42"><path d="M22.922 14.836a3.872 3.872 0 00-3.867-3.867H13.78a.703.703 0 00-.703.703V18c0 .388.315.703.703.703h5.274a3.872 3.872 0 003.867-3.867zm-8.438-2.461h4.57a2.464 2.464 0 012.462 2.46 2.464 2.464 0 01-2.461 2.462h-4.57z"/><path d="M27.14 14.836c0-4.459-3.627-8.086-8.085-8.086H9.562a.703.703 0 00-.703.703v21.094c0 .388.315.703.703.703h4.22a.703.703 0 00.702-.703v-5.625h4.57c4.46 0 8.087-3.627 8.087-8.086zm-13.359 6.68a.703.703 0 00-.703.703v5.625h-2.812V8.156h8.789a6.687 6.687 0 016.68 6.68 6.687 6.687 0 01-6.68 6.68zM18 36a.703.703 0 100-1.406A.703.703 0 0018 36z"/><path d="M33.188 0H2.811A2.816 2.816 0 000 2.813v30.375A2.816 2.816 0 002.813 36h12.023a.703.703 0 000-1.406H2.812a1.408 1.408 0 01-1.406-1.406V2.811c0-.775.631-1.406 1.407-1.406h30.375c.775 0 1.406.631 1.406 1.407v30.375c0 .775-.631 1.406-1.406 1.406H21.163a.703.703 0 100 1.406h12.023A2.816 2.816 0 0036 33.187V2.814A2.816 2.816 0 0033.187 0z"/></g></svg>