<svg fill="none" height="40" width="42" xmlns="http://www.w3.org/2000/svg"><g fill="#041e42"><path d="M7.383 22.55c.215 0 .427-.08.58-.22a.73.73 0 00.24-.534.73.73 0 00-.24-.534.868.868 0 00-1.16 0 .73.73 0 00-.24.534.73.73 0 00.24.533c.152.14.364.221.58.221z"/><path d="M33.868 22.305a6.04 6.04 0 002.472.52c3.12 0 5.66-2.336 5.66-5.207 0-2.605-2.09-4.77-4.808-5.149.12-.545.18-1.102.18-1.664 0-4.599-4.065-8.34-9.063-8.34-4.999 0-9.065 3.741-9.065 8.34 0 .27.014.54.042.809-3.085.809-5.25 3.4-5.25 6.416a6.19 6.19 0 00.777 3.01h-4.149c-.453 0-.82.339-.82.756 0 .416.367.754.82.754h9.516v3.321H1.64v-3.32h2.462c.453 0 .82-.339.82-.755 0-.417-.367-.755-.82-.755H.82c-.453 0-.82.338-.82.755v4.83c0 .416.367.754.82.754h2.461v2.708H.821c-.454 0-.821.338-.821.754v3.02c0 .416.367.754.82.754h2.461v1.962H.821c-.454 0-.821.338-.821.755s.367.755.82.755h35.93c.453 0 .82-.338.82-.755s-.367-.755-.82-.755h-.083c.005-.08.008-.162.008-.243 0-2.384-2.108-4.323-4.699-4.323-1.038 0-2.037.32-2.847.888v-7.418c2.058-.257 3.848-1.462 4.74-3.177zm-17.14-1.264a4.84 4.84 0 01-1.052-3.01c0-2.527 1.962-4.668 4.665-5.092a.832.832 0 00.535-.312.707.707 0 00.134-.57 6.356 6.356 0 01-.125-1.252c0-3.766 3.33-6.83 7.423-6.83 4.094 0 7.424 3.064 7.424 6.83 0 .727-.124 1.444-.368 2.13a.705.705 0 00.125.69.85.85 0 00.687.299c.054-.002.109-.004.164-.004 2.216 0 4.02 1.659 4.02 3.698s-1.804 3.698-4.02 3.698a4.22 4.22 0 01-2.4-.73.878.878 0 00-.755-.11.785.785 0 00-.525.51c-.468 1.542-1.862 2.682-3.531 2.967v-4.978L33.2 15.23a.713.713 0 000-1.067.872.872 0 00-1.16 0l-2.91 2.677v-3.02c0-.417-.368-.755-.82-.755-.454 0-.82.338-.82.755v5.732l-3.18-2.924a.872.872 0 00-1.16 0 .712.712 0 000 1.067l4.288 3.945a.963.963 0 00.05.042v2.273a4.593 4.593 0 01-2.485-1.256.872.872 0 00-.997-.146 5.968 5.968 0 01-2.185.62v-1.378c0-.417-.367-.754-.82-.754h-4.273zM21 27.38c.453 0 .82-.339.82-.755v-1.938a7.791 7.791 0 002.429-.561 6.449 6.449 0 003.24 1.355v7.95c-1.85.198-3.344 1.486-3.696 3.146h-5.254v-1.962H21c.453 0 .82-.338.82-.755v-3.019c0-.416-.367-.754-.82-.754h-2.46V27.38zm-16.078 0h11.976v2.707H4.922zM1.64 31.596h18.54v1.51H1.64zm3.28 3.019h11.977v1.962H4.922zm24.57.08c.574-.735 1.503-1.174 2.485-1.174 1.686 0 3.058 1.262 3.058 2.813 0 .081-.004.162-.011.243h-9.539c.346-.965 1.335-1.663 2.498-1.663.217 0 .433.025.643.073.326.075.67-.04.866-.292z"/><path d="M28.308 11.556c.217 0 .428-.081.58-.221s.24-.336.24-.534-.087-.393-.24-.534-.363-.22-.58-.22c-.216 0-.427.08-.58.22s-.24.336-.24.534.088.393.24.534.364.22.58.22z"/></g></svg>