<svg xmlns="http://www.w3.org/2000/svg" width="26" height="26" fill="none"><path fill="#13377D" d="M15.277 19.106a3.668 3.668 0 001.166-1.637h.213c.896 0 1.625-.73 1.625-1.625a1.62 1.62 0 00-.812-1.4v-1.85a3.254 3.254 0 00-3.25-3.25H11.78a3.254 3.254 0 00-3.25 3.25v1.85a1.62 1.62 0 00-.812 1.4c0 .896.729 1.625 1.625 1.625h.213a3.67 3.67 0 001.166 1.637A4.47 4.47 0 006.5 23.562v1.625c0 .225.182.407.406.407h12.188a.406.406 0 00.406-.407v-1.625a4.47 4.47 0 00-4.223-4.456zm-1.133.8A1.217 1.217 0 0113 20.72c-.529 0-.976-.341-1.144-.813h2.288zm2.512-3.25h-.024c.015-.133.024-.269.024-.406v-1.219a.813.813 0 010 1.625zm-7.312-4.062a2.44 2.44 0 012.437-2.438h2.438a2.44 2.44 0 012.437 2.438v1.625h-1.625a.813.813 0 01-.812-.813v-1.625h-.813v.406c0 1.12-.911 2.032-2.031 2.032H9.344v-1.625zm0 4.062a.813.813 0 010-1.625v1.219c0 .137.009.273.024.406h-.024zm.812-.406v-1.219h1.219c.863 0 1.636-.388 2.158-.997.246.585.825.997 1.498.997h.813v1.219A2.848 2.848 0 0113 19.094a2.848 2.848 0 01-2.844-2.844zm8.531 8.531h-1.625v-2.437h-.812v2.437h-6.5v-2.437h-.813v2.437H7.313v-1.218a3.66 3.66 0 013.656-3.657h.04A2.035 2.035 0 0013 21.531c.981 0 1.801-.699 1.99-1.625h.041a3.66 3.66 0 013.656 3.657v1.218zM10.969 5.688A5.287 5.287 0 005.688.405 5.287 5.287 0 00.405 5.688a5.287 5.287 0 005.282 5.28 5.287 5.287 0 005.28-5.28zm-9.75 0a4.474 4.474 0 014.468-4.47 4.474 4.474 0 014.47 4.47 4.474 4.474 0 01-4.47 4.468A4.474 4.474 0 011.22 5.687z"/><path fill="#13377D" d="M4.469 5.281h.812c0-.896-.729-1.625-1.625-1.625s-1.625.73-1.625 1.625h.813a.813.813 0 011.625 0zm3.25-.812c.448 0 .812.364.812.812h.813c0-.896-.73-1.625-1.625-1.625-.896 0-1.625.73-1.625 1.625h.812c0-.448.365-.812.813-.812zm-.406 2.437H6.5a.813.813 0 01-1.625 0h-.813a1.626 1.626 0 003.25 0zm13-6.5a5.287 5.287 0 00-5.282 5.282 5.287 5.287 0 005.281 5.28 5.287 5.287 0 005.282-5.28A5.287 5.287 0 0020.312.405zm0 9.75a4.474 4.474 0 01-4.47-4.469 4.474 4.474 0 014.47-4.468 4.474 4.474 0 014.468 4.468 4.474 4.474 0 01-4.468 4.47z"/><path fill="#13377D" d="M19.906 4.063h-.812a.813.813 0 01-1.625 0h-.813c0 .896.73 1.625 1.625 1.625.896 0 1.625-.73 1.625-1.625zm3.25 0a.813.813 0 01-1.625 0h-.812c0 .896.729 1.625 1.625 1.625s1.625-.73 1.625-1.625h-.813zM20.313 6.5c-.897 0-1.625.729-1.625 1.625h.812a.813.813 0 011.625 0h.813c0-.896-.73-1.625-1.625-1.625zm0 8.125a1.22 1.22 0 00-1.22 1.219 1.22 1.22 0 001.22 1.219 1.22 1.22 0 001.218-1.22 1.22 1.22 0 00-1.218-1.218zm0 1.625a.406.406 0 110-.813.406.406 0 010 .813zm1.625-4.875a1.626 1.626 0 000 3.25c.896 0 1.625-.729 1.625-1.625s-.73-1.625-1.625-1.625zm0 2.438a.813.813 0 11.001-1.627.813.813 0 01-.002 1.627zM6.906 15.844a1.22 1.22 0 00-1.218-1.219 1.22 1.22 0 00-1.22 1.219 1.22 1.22 0 001.22 1.219 1.22 1.22 0 001.218-1.22zm-1.218.406a.406.406 0 110-.813.406.406 0 010 .813zm0-3.25a1.626 1.626 0 10-1.626 1.625c.897 0 1.625-.729 1.625-1.625zm-1.625.813a.813.813 0 11.001-1.627.813.813 0 01-.002 1.627z"/></svg>