<svg fill="none" height="39" width="42" xmlns="http://www.w3.org/2000/svg"><clipPath id="a"><path d="M0 0h42v38.641H0z"/></clipPath><g clip-path="url(#a)" fill="#041e42"><path d="M40.97 34.175h-4.222c-.472 0-.858-.094-1.213-.296-1.28-.729-2.3-3.063-2.91-4.458l-.206-.47c-1.003-2.262-2.25-5.077-4.73-6.53-1.109-.653-2.37-.984-3.749-.984h-1.659v-6.446a2.298 2.298 0 001.559-.595 1.94 1.94 0 00.648-1.438 1.95 1.95 0 00-.648-1.443l-4.586-4.204a.653.653 0 00-.87.002.534.534 0 00.002.8l4.585 4.203c.185.17.287.398.287.641a.86.86 0 01-.287.638 1.046 1.046 0 01-1.39 0l-8.902-8.187a.654.654 0 00-.87 0l-8.901 8.187c-.185.17-.433.264-.696.264H2.21c-.263 0-.509-.093-.694-.265a.859.859 0 01-.287-.637.86.86 0 01.288-.64l10.032-9.23c.184-.17.43-.264.692-.264h.001c.264 0 .511.093.696.264l3.553 3.269c.24.221.63.221.87 0a.534.534 0 000-.8l-3.553-3.27a2.3 2.3 0 00-1.566-.595h-.002c-.592 0-1.147.212-1.562.595l-10.03 9.23A1.945 1.945 0 000 12.958c0 .545.23 1.056.647 1.437.415.383.969.595 1.56.596v22.143H.615c-.34 0-.615.253-.615.566s.275.566.615.566h40.381c.554 0 1.004-.413 1.004-.921v-2.223c0-.522-.462-.947-1.03-.947zM4.926 37.134H3.437V25.528h1.488zm4.23 0h-3V25.528h3zm4.948 0h-3.718v-1.808h3.718zm0-2.94h-3.718v-2.132h3.718zm0-3.264h-3.718v-2.135h3.718zm0-3.267h-3.718v-2.135h3.718zm1.223-3.267H9.162V21.59c0-1.563 1.383-2.835 3.082-2.835 1.7 0 3.082 1.272 3.082 2.835zm3.004 12.738h-2.997V25.528h2.998zm-1.774-12.738V21.59c0-2.187-1.934-3.967-4.312-3.967s-4.312 1.78-4.312 3.967v2.806H3.437v-9.743c.121-.075.236-.16.34-.257l8.467-7.788 8.466 7.788c.106.097.22.182.34.257v9.743h-2.104zm5.725 12.738v-3.747c0-.313-.275-.566-.615-.566-.34 0-.615.253-.615.566v3.747h-1.49V25.528h1.49v5.247c0 .312.275.566.615.566.34 0 .615-.254.615-.566v-5.247h1.66c.528 0 .96.109 1.357.341 1.302.764 2.272 2.967 2.914 4.425l.238.54c.953 2.16 2.127 4.821 4.38 6.3zm18.488 0h-4.02c-1.067 0-2.045-.249-2.907-.739-2.15-1.226-3.267-3.755-4.251-5.987l-.239-.54c-.7-1.59-1.759-3.995-3.393-4.953-.596-.35-1.256-.52-2.019-.52h-1.659V22.57h1.66c1.139 0 2.177.271 3.087.806 2.15 1.26 3.266 3.78 4.252 6.004l.204.464c.708 1.622 1.78 4.074 3.404 4.999.55.313 1.16.465 1.86.465h4.021z"/><path d="M12.244 10.903c-1.509 0-2.736 1.129-2.736 2.517s1.227 2.517 2.736 2.517c1.508 0 2.736-1.129 2.736-2.517s-1.228-2.517-2.736-2.517zm0 3.902c-.83 0-1.506-.621-1.506-1.385s.676-1.385 1.506-1.385 1.505.621 1.505 1.385-.675 1.385-1.505 1.385z"/></g></svg>