<svg fill="none" height="39" width="42" xmlns="http://www.w3.org/2000/svg"><clipPath id="a"><path d="M0 0h42v38.936H0z"/></clipPath><g clip-path="url(#a)" fill="#041e42"><path d="M35.528 19.379v-7.512C35.528 5.323 29.785 0 22.727 0h-3.454C12.214 0 6.472 5.323 6.472 11.867v7.512c-2.054.515-3.526 2.249-3.526 4.28 0 1.174.495 2.383 1.358 3.318.933 1.01 2.15 1.565 3.426 1.565h1.796v9.633c0 .42.367.76.82.76h21.307c.453 0 .82-.34.82-.76v-9.633h1.795c1.278 0 2.495-.556 3.427-1.565.864-.935 1.359-2.144 1.359-3.317 0-2.032-1.472-3.766-3.526-4.281zm-4.695 18.036H11.167v-1.631h13.846c.453 0 .82-.34.82-.76s-.367-.761-.82-.761H11.167v-5.72h3.391l5.875 5.198a.87.87 0 001.133 0l5.875-5.198h3.392v8.872zm-11.947-12.62c-4.257-.953-7.23-4.577-7.23-8.815v-2.848l6.9-4.72a284.582 284.582 0 003.086 1.404l.2.09c2.899 1.293 6.677 2.917 8.502 3.437v2.637c0 4.105-2.79 7.635-6.835 8.718-.13.034-.262.067-.395.097-.44.098-.71.508-.605.916l.58 2.248c.09.342.42.583.799.583h1.177L21 32.14l-4.066-3.598h1.178c.38 0 .71-.24.798-.583l.58-2.248c.106-.408-.165-.818-.604-.916zm17.563 1.193c-.616.666-1.39 1.034-2.18 1.034h-9.734l-.247-.956a11.064 11.064 0 005.284-3.477 10.348 10.348 0 002.412-6.609v-3.232a.76.76 0 00-.482-.692.867.867 0 00-.242-.064c-.848-.092-4.159-1.455-7.498-2.923a687.796 687.796 0 01-1.19-.527l-.236-.105a264.737 264.737 0 01-3.494-1.593.874.874 0 00-.855.068l-7.639 5.224a.744.744 0 00-.333.612v3.232c0 2.396.857 4.743 2.412 6.609a11.066 11.066 0 005.285 3.477l-.247.955H7.73c-.79 0-1.564-.367-2.18-1.033-.603-.654-.964-1.524-.964-2.328 0-1.49 1.202-2.734 2.796-2.897.416-.043.73-.368.73-.756v-8.14c0-5.705 5.007-10.346 11.16-10.346h3.455c6.154 0 11.16 4.641 11.16 10.346v8.14c0 .388.315.713.73.756 1.594.163 2.796 1.408 2.796 2.897 0 .804-.36 1.674-.964 2.328z"/><path d="M24.17 20.466a.863.863 0 00-1.145-.172 3.684 3.684 0 01-4.05 0 .863.863 0 00-1.145.172c-.265.341-.181.816.186 1.062A5.375 5.375 0 0021 22.42a5.375 5.375 0 002.983-.893.726.726 0 00.187-1.062zm4.338-7.653h-6.251c-.453 0-.82.34-.82.76v1.237h-.874v-1.237c0-.42-.367-.76-.82-.76h-6.251c-.453 0-.82.34-.82.76v3.996c0 .42.367.76.82.76h6.25c.454 0 .821-.34.821-.76V16.33h.873v1.238c0 .42.368.76.82.76h6.252c.453 0 .82-.34.82-.76v-3.996c0-.42-.367-.76-.82-.76zm-9.585 3.995h-4.611v-2.475h4.61zm8.765 0h-4.611v-2.475h4.61zm1.541 18.067a.728.728 0 00-.123-.274.788.788 0 00-.368-.28.881.881 0 00-.77.07.772.772 0 00-.348.484.695.695 0 00.122.57.735.735 0 00.227.21.881.881 0 00.616.114.879.879 0 00.295-.113.783.783 0 00.302-.342.744.744 0 00.063-.29c0-.05-.006-.1-.016-.15zM15.34 30.57h-2.42c-.453 0-.82.341-.82.761s.367.76.82.76h2.42c.453 0 .82-.34.82-.76s-.367-.76-.82-.76z"/></g></svg>