<svg fill="none" height="40" width="42" xmlns="http://www.w3.org/2000/svg"><g fill="#041e42"><path d="M21 2.174c-10.856 0-19.688 8.188-19.688 18.251S10.145 38.676 21 38.676s19.688-8.187 19.688-18.25S31.855 2.173 21 2.173zm0 35.286c-10.132 0-18.375-7.642-18.375-17.035S10.868 3.391 21 3.391s18.375 7.641 18.375 17.034c0 9.393-8.243 17.035-18.375 17.035z"/><path d="M10.081 9.912l-.91-.877c-.398.356-.78.732-1.138 1.118l.997.792c.33-.358.684-.706 1.051-1.033zm-6.09 9.247l1.309.096c.225-2.61 1.207-5.116 2.84-7.252L7.07 11.3c-1.77 2.315-2.833 5.03-3.078 7.859zM30.188 8.457c0-.65-.259-1.275-.726-1.758a2.922 2.922 0 00-1.806-.86 3.01 3.01 0 00-1.964.476 2.63 2.63 0 00-1.12 1.57c-.11.463-.199.93-.29 1.396A13.084 13.084 0 0021 8.877V5.823h-1.313v7.3a2.917 2.917 0 01-.656 1.826 3.159 3.159 0 01-.674.62 2.863 2.863 0 00-1.24 2.488l.601 13.948c.006.155-.021.31-.082.454a1.14 1.14 0 01-.268.388 1.33 1.33 0 01-.896.34 1.33 1.33 0 01-.896-.34 1.143 1.143 0 01-.269-.388c-.06-.145-.088-.3-.081-.456l.47-13.95a2.86 2.86 0 00-1.241-2.485 3.158 3.158 0 01-.674-.62 2.914 2.914 0 01-.656-1.824V5.823h-1.313v6.806a11.363 11.363 0 00-2.673 4.24 10.725 10.725 0 00-.525 4.887c.206 1.645.792 3.23 1.718 4.646a11.949 11.949 0 003.65 3.56l-.067 2.001c-.012.319.045.636.169.933.123.298.31.569.549.798.239.229.525.41.84.535a2.736 2.736 0 002-.002c.317-.124.603-.307.841-.536.239-.23.425-.5.548-.798.123-.298.18-.615.167-.933l-.005-.127c2.047.312 4.146.137 6.1-.51l-.045.56a2.21 2.21 0 00.134.936c.112.3.289.578.519.814.23.236.508.427.82.561a2.74 2.74 0 001.996.064c.32-.114.612-.287.859-.508s.443-.485.577-.778.203-.608.203-.926v-3.827c2.11-2.124 3.282-4.907 3.282-7.795s-1.172-5.67-3.282-7.795zM14.032 28.488c-2.248-1.66-3.715-4.064-4.092-6.706-.377-2.641.365-5.316 2.07-7.461a4.178 4.178 0 001.666 2.227c.465.318.73.865.708 1.466zM25.23 29.98a11.449 11.449 0 01-6.26.596l-.542-12.563c-.022-.599.243-1.147.708-1.464.359-.246.678-.538.945-.87A4.08 4.08 0 0021 13.124v-3.031c1.038-.004 2.07.13 3.067.397a34.316 34.316 0 00-.442 5.402v6.358c0 .161.07.316.192.43s.29.178.464.178h1.511zm3.645 2.067c0 .306-.132.6-.365.816s-.55.337-.88.338a1.33 1.33 0 01-.495-.096 1.247 1.247 0 01-.413-.27 1.142 1.142 0 01-.264-.4 1.077 1.077 0 01-.07-.465l.765-9.675c.007-.084-.005-.168-.035-.247s-.077-.15-.139-.212a.668.668 0 00-.48-.194h-1.561v-5.75c0-2.604.307-5.2.917-7.742.081-.34.296-.641.602-.845a1.62 1.62 0 012.028.207c.251.26.39.597.39.946zm3.281-11.622c.001 2.09-.685 4.13-1.968 5.848V14.576c1.283 1.718 1.97 3.758 1.968 5.848z"/><path d="M14.438 5.823h1.312v6.692h-1.313zm2.625 0h1.312v6.692h-1.313z"/></g></svg>