<svg fill="none" height="39" width="42" xmlns="http://www.w3.org/2000/svg"><clipPath id="a"><path d="M0 0h42v38.641H0z"/></clipPath><g clip-path="url(#a)" fill="#041e42"><path d="M41.713 16.875L16.119 3.281a3.448 3.448 0 00-2.426-.292c-.82.202-1.518.694-1.943 1.369L8.804 9.053l-1.962 3.125a2.742 2.742 0 00-.318 2.234c.22.753.755 1.396 1.49 1.787l8.774 4.661-1.364 2.141c-.182.283-.44.518-.75.682s-.662.25-1.02.25H8.532v-3.592c0-.14-.06-.274-.168-.373a.6.6 0 00-.406-.155H4.84v-.682c0-.62-.27-1.215-.746-1.653s-1.123-.686-1.797-.686H.574a.617.617 0 00-.406.154.527.527 0 00-.124.172.491.491 0 00-.044.202v17.907c0 .07.015.138.044.202a.527.527 0 00.124.171c.053.05.117.088.186.115.07.026.145.04.22.04h1.723c.674 0 1.32-.248 1.797-.686s.745-1.033.746-1.654v-1.678h3.117a.6.6 0 00.406-.155.508.508 0 00.168-.373v-2.596h5.124a7.65 7.65 0 003.545-.872 6.916 6.916 0 002.61-2.372l1.383-2.169 4.81 2.555a3.398 3.398 0 001.594.396c.282 0 .562-.035.834-.102a3.26 3.26 0 001.39-.721 5.144 5.144 0 003.266.255 4.83 4.83 0 002.615-1.63l1.176.625a.61.61 0 00.785-.194l4.259-6.786a.502.502 0 00.058-.401.514.514 0 00-.099-.186.562.562 0 00-.168-.136zM3.69 33.415c0 .34-.147.667-.408.907a1.46 1.46 0 01-.986.376H1.148v-16.85h1.149c.37 0 .724.136.986.376s.408.567.408.907zm3.692-2.734H4.84v-9.812h2.543zm11.437-5.847c-.53.828-1.285 1.514-2.19 1.991s-1.932.73-2.975.731H8.53V24.99h5.124a3.43 3.43 0 001.589-.39 3.101 3.101 0 001.17-1.064l1.37-2.147 2.416 1.283zm7.758.006l-17.99-9.556a1.918 1.918 0 01-.955-1.146 1.757 1.757 0 01.204-1.431l1.673-2.668 16.488 8.758 5.054 2.685-1.673 2.669-.003.003a1.866 1.866 0 01-.144.196v.002a2.084 2.084 0 01-1.227.703c-.489.09-.996.014-1.427-.215zm6.214-.277a3.96 3.96 0 01-2.276-.11l1.533-2.444 2.655 1.41c-.489.56-1.159.96-1.913 1.144zm4.165-1.166l-3.713-1.972-1.12-.595-12.678-6.734-9.36-4.972 2.659-4.238a2.04 2.04 0 011.245-.878 2.21 2.21 0 011.556.188l25.095 13.33z"/><path d="M34.504 20.526a2.344 2.344 0 001.676.203 2.218 2.218 0 001.223-.779c.298-.382.442-.847.409-1.316-.033-.47-.243-.913-.592-1.256s-.817-.564-1.323-.626a2.365 2.365 0 00-1.455.29 2.07 2.07 0 00-.925 1.071 1.88 1.88 0 00.024 1.369c.18.44.52.809.963 1.044zm.187-2.247a1 1 0 01.272-.286 1.16 1.16 0 01.646-.2c.234 0 .461.07.646.201a.98.98 0 01.38.522.903.903 0 01-.046.626 1.003 1.003 0 01-.45.472 1.14 1.14 0 01-.668.122 1.098 1.098 0 01-.612-.277.948.948 0 01-.301-.563.911.911 0 01.133-.616zM14.93 15.175l-4.706-2.5a.606.606 0 00-.437-.054.594.594 0 00-.202.09.544.544 0 00-.148.156.5.5 0 00-.057.403c.02.067.054.13.1.185s.104.101.17.136l4.707 2.5a.619.619 0 00.426.038.57.57 0 00.337-.243.492.492 0 00.06-.39.532.532 0 00-.25-.32z"/></g></svg>