<svg fill="none" height="35" width="35" xmlns="http://www.w3.org/2000/svg"><clipPath id="a"><path d="M0 0h35v35H0z"/></clipPath><g clip-path="url(#a)" fill="#041e42"><path d="M31.608 7.15A17.383 17.383 0 0020.157.207 17.38 17.38 0 007.15 3.395 17.383 17.383 0 00.206 14.847a17.365 17.365 0 002.182 11.475l.004.008a17.5 17.5 0 0022.976 6.805.684.684 0 10-.616-1.22 16.27 16.27 0 01-2.594 1.04l2.834-4.913L30.542 27a15.788 15.788 0 01-1.616 1.893.683.683 0 10.967.967 17.373 17.373 0 002.688-3.478l.016-.027a17.545 17.545 0 002.347-7.456A17.493 17.493 0 0031.608 7.15zM19.95 1.558a16.008 16.008 0 019.17 4.75l-.834 7.17-5.36 1.204-4.723-3.432V6.116l1.052-.755a.684.684 0 00-.796-1.11l-.985.705-4.709-2.88a16.07 16.07 0 017.185-.518zm-6.916 14.12l2.226-1.618 2.226-1.617 4.452 3.235-1.7 5.234h-5.504zM7.958 4.497a16.257 16.257 0 013.172-1.82l5.671 3.47v5.102l-4.724 3.432-5.38-1.208L5.6 6.608a16.297 16.297 0 012.36-2.11zm-6.4 10.557a16.055 16.055 0 012.882-7.03l.925 5.78-3.996 4.032c-.017-.922.045-1.852.187-2.781zm-.051 4.585l4.808-4.85 5.384 1.208 1.787 5.498-3.363 5.174-6.698-1.285a15.97 15.97 0 01-1.918-5.745zm2.99 7.406l-.053-.074 5.566 1.069 2.843 4.928a16.118 16.118 0 01-8.356-5.923zm15.827 6.353c-1.884.34-3.793.334-5.64.006l-3.437-5.956 3.36-5.17h5.788l3.36 5.17zm11.227-7.98l-6.67 1.253-3.364-5.176 1.787-5.498 5.38-1.208 4.77 4.898a16.217 16.217 0 01-1.903 5.731zm2.046-7.543l-3.973-4.08.706-6.071c.06.077.118.155.176.234 2.159 2.942 3.174 6.447 3.091 9.917z"/><path d="M21.25 2.953a.688.688 0 00-1.167.484.685.685 0 001.167.484.69.69 0 00.2-.484.69.69 0 00-.2-.484zM27.852 30.6a.692.692 0 00-.483-.2.688.688 0 00-.683.685.685.685 0 001.167.484.69.69 0 00.2-.484.69.69 0 00-.2-.484z"/></g></svg>