<svg fill="none" height="32" width="32" xmlns="http://www.w3.org/2000/svg"><clipPath id="a"><path d="M0 0h32v32H0z"/></clipPath><g clip-path="url(#a)" fill="#041e42"><path d="M8.157 17.756L2.29 23.623a.533.533 0 10.754.754l5.867-5.867a.533.533 0 00-.754-.754z"/><path d="M5.333 25.6H1.067v-4.267a.533.533 0 10-1.067 0v4.8c0 .295.239.534.533.534h4.8a.533.533 0 100-1.067zM23.09 2.29l-5.867 5.866a.533.533 0 10.754.754l5.867-5.866a.533.533 0 10-.754-.754z"/><path d="M25.6 5.867a.533.533 0 00.533-.534v-4.8A.533.533 0 0025.6 0h-4.8a.533.533 0 100 1.067h4.267v4.266c0 .295.239.534.533.534zm-.975 6.313a2.122 2.122 0 00-3.627 1.333 2.106 2.106 0 00-2.64 1.886 2.1 2.1 0 00-2.577 1.514l-3.227-3.226a2.133 2.133 0 10-3.017 3.016l4.82 4.82a2.383 2.383 0 00-1.173.587 2.322 2.322 0 00-.734 1.678c-.012.693.256 1.36.744 1.852l4.64 4.64a5.873 5.873 0 008.296 0l4.152-4.147a5.873 5.873 0 000-8.297zm4.903 13.199l-4.148 4.148a4.805 4.805 0 01-6.789 0l-4.64-4.64a1.494 1.494 0 01-.43-1.078c0-.346.141-.678.392-.916.25-.225.575-.35.911-.352a1.21 1.21 0 01.938.386l3.96 3.96a.533.533 0 10.755-.754l-3.96-3.96-6.223-6.222a1.067 1.067 0 010-1.508 1.094 1.094 0 011.508 0l7.92 7.919a.533.533 0 00.755-.754l-3.394-3.394a1.067 1.067 0 111.509-1.508l3.394 3.395a.533.533 0 10.754-.755l-3.017-3.017a1.067 1.067 0 011.509-1.508l.376.377 2.64 2.64a.533.533 0 10.754-.755l-2.64-2.64a1.067 1.067 0 011.509-1.508l5.657 5.655a4.807 4.807 0 010 6.789z"/><path d="M4.447 19.324a.533.533 0 10.62-.867 9.597 9.597 0 1113.18-13.681.533.533 0 00.84-.655 10.664 10.664 0 10-14.64 15.203z"/><path d="M13.867 10.123l-2.667.01V6.391a.533.533 0 00-1.067 0v4.275c0 .295.24.534.534.534l3.2-.01a.533.533 0 000-1.067z"/></g></svg>