<svg xmlns="http://www.w3.org/2000/svg" width="26" height="26" fill="none"><g clip-path="url(#clip0)"><path fill="#13377D" d="M24.484 5.632H22.75a.433.433 0 00-.433.434v.433a.433.433 0 00-.433-.433h-1.3a.433.433 0 00-.434.405l-.03.462h-.837v-.867a.433.433 0 00-.433-.434h-1.733a.433.433 0 00-.434.434v2.6c0 .24.194.433.434.433h1.733c.24 0 .433-.194.433-.433v-.867h.78l-.236 3.545a.863.863 0 01-.864.789H16.25v-.186a.433.433 0 00-.248-.39 6.978 6.978 0 00-1.849-.568.43.43 0 00-.206.02 4.267 4.267 0 00-.73-.153V9.673c.128-.065.252-.139.372-.22 1.456-1.018 2.66-2.041 2.66-4.243v-.444a4.784 4.784 0 00-1.507-3.479A4.81 4.81 0 008.626.93a3.463 3.463 0 00-4.077 3.403v6.5c0 .24.194.434.434.434a6.423 6.423 0 004.449-1.78c.102.068.209.13.318.187v1.183c-.248.029-.493.08-.731.152a.43.43 0 00-.206-.02 6.975 6.975 0 00-1.849.567.433.433 0 00-.248.39v.014a10.279 10.279 0 00-2.6 6.674c0 1.189.057 2.557.409 3.467h-.842v-.867a.433.433 0 00-.434-.433H1.516a.433.433 0 00-.433.433v2.6c0 .24.194.434.433.434h1.733c.24 0 .434-.194.434-.434v-.867H6.16A6.63 6.63 0 005.416 26h.867a5.75 5.75 0 01.433-2.173v.006c0 .24.194.434.434.434h1.733c.24 0 .433-.194.433-.434V22.1h5.426l.25.312A5.763 5.763 0 0116.25 26h.867a6.634 6.634 0 00-1.45-4.13l-.33-.414-.167-.499a5.408 5.408 0 01.109-3.713l.024-.061c.538-.168.915-.652.947-1.215v-.018l4.697-1.006a1.743 1.743 0 001.37-1.695V8.666c0 .24.194.433.433.433h1.734a.433.433 0 00.433-.433v-2.6a.433.433 0 00-.433-.434zm-6.067 2.6h-.867V6.5h.867v1.734zM2.817 23.4h-.868v-1.734h.867V23.4zm3.357-1.483l.03.184h-.719c-.247-.345-.502-1.24-.502-3.468a9.613 9.613 0 011.733-5.328v2.632c-.571 1.295-.761 4.663-.542 5.98zM11.224.874a3.895 3.895 0 014.124 3.39l-2.371-1.186a.43.43 0 00-.27-.04l-5.034.89a3.846 3.846 0 013.55-3.054zm-5.808 9.509v-6.05a2.603 2.603 0 012.36-2.589 4.767 4.767 0 00-1.06 3.022v.444c0 1.859.86 2.877 2.004 3.763a5.558 5.558 0 01-3.304 1.41zM7.583 5.21v-.387l5.135-.906L15.38 5.25c-.013 1.614-.75 2.417-2.289 3.495a2.817 2.817 0 01-3.218 0C8.322 7.657 7.583 6.85 7.583 5.21zm1.733 6.607a3.3 3.3 0 01.867-.118c.24 0 .433-.194.433-.433v-1.264a3.369 3.369 0 001.734 0v1.264c0 .24.194.433.433.433.293 0 .584.04.867.118v.693l-2.167.466-2.167-.466v-.693zm-2.358 9.032c-.026-1.296.086-2.59.335-3.863.112.078.234.143.362.193a5.364 5.364 0 01.053 3.62H7.15a.422.422 0 00-.192.05zm1.492 2.55h-.867v-1.733h.867V23.4zm.866-2.166a.433.433 0 00-.433-.433h-.26a6.23 6.23 0 000-3.467h5.703a6.278 6.278 0 00.022 3.9H9.316zm6.067-5.265c0 .235-.37.498-.866.498H8.45c-.497 0-.867-.263-.867-.498v-3.74a6.02 6.02 0 01.867-.282v.916c0 .204.142.38.342.423l2.6.56a.43.43 0 00.182 0l2.6-.56c.2-.043.343-.22.343-.423v-.917c.295.073.585.167.866.284v3.739zm5.382-1.872l-4.515.967V13h2.713a1.728 1.728 0 001.727-1.587l.299-4.48h.461v6.317a.87.87 0 01-.685.847zm3.285-5.863h-.867V6.499h.867v1.734z"/></g><defs><clipPath id="clip0"><path fill="#fff" d="M0 0h26v26H0z"/></clipPath></defs></svg>