<svg width="22" height="30" fill="none" xmlns="http://www.w3.org/2000/svg"><path d="M10.969.741C4.927.741 0 5.037 0 10.304c0 1.494.695 3.208 1.638 5.08.942 1.872 2.157 3.86 3.39 5.71a106.92 106.92 0 004.951 6.808l.99 1.261.99-1.262s2.486-3.1 4.951-6.806c1.233-1.851 2.447-3.84 3.39-5.711.943-1.872 1.637-3.586 1.637-5.08C21.938 5.037 17.01.74 10.97.74zm0 2.125c4.727 0 8.531 3.316 8.531 7.438 0 .85-.524 2.46-1.409 4.217-.886 1.755-2.108 3.701-3.314 5.511-1.913 2.88-3.104 4.404-3.808 5.313-.705-.909-1.895-2.433-3.809-5.313-1.204-1.81-2.428-3.756-3.314-5.511-.884-1.757-1.409-3.367-1.409-4.217 0-4.122 3.804-7.438 8.532-7.438zm0 5.313a2.63 2.63 0 00-1.724.622c-.457.399-.714.94-.714 1.503s.257 1.104.714 1.502a2.63 2.63 0 001.724.623 2.63 2.63 0 001.723-.623c.457-.398.714-.939.714-1.502 0-.564-.257-1.104-.714-1.503a2.63 2.63 0 00-1.723-.622z" fill="#C49A6C"/></svg>