<svg xmlns="http://www.w3.org/2000/svg" width="40" height="40" fill="none"><path fill="#C49A6C" d="M20 3.75C13.804 3.75 8.75 8.804 8.75 15c0 1.758.713 3.775 1.68 5.976.966 2.203 2.213 4.541 3.476 6.719a126.711 126.711 0 005.079 8.009L20 37.187l1.016-1.484s2.549-3.647 5.078-8.008c1.265-2.178 2.51-4.516 3.476-6.719.968-2.201 1.68-4.218 1.68-5.976 0-6.196-5.054-11.25-11.25-11.25zm0 2.5A8.73 8.73 0 0128.75 15c0 1-.538 2.895-1.445 4.961-.909 2.065-2.163 4.355-3.399 6.484-1.962 3.389-3.183 5.181-3.906 6.25-.723-1.069-1.944-2.861-3.906-6.25-1.235-2.129-2.49-4.419-3.399-6.484C11.787 17.895 11.25 16 11.25 15A8.73 8.73 0 0120 6.25zm0 6.25a2.5 2.5 0 100 5 2.5 2.5 0 000-5z"/></svg>