<svg width="40" height="40" viewBox="0 0 40 40" fill="none" xmlns="http://www.w3.org/2000/svg">
<path d="M20 3.75C13.8038 3.75 8.75 8.80375 8.75 15C8.75 16.7575 9.4625 18.775 10.43 20.9762C11.3962 23.1788 12.6425 25.5175 13.9062 27.695C15.4986 30.427 17.1927 33.0985 18.985 35.7038L20 37.1875L21.0162 35.7025C21.0162 35.7025 23.565 32.0562 26.0938 27.695C27.3587 25.5175 28.6038 23.1788 29.57 20.9762C30.5375 18.775 31.25 16.7575 31.25 15C31.25 8.80375 26.1962 3.75 20 3.75ZM20 6.25C24.8487 6.25 28.75 10.1512 28.75 15C28.75 16 28.2125 17.895 27.305 19.9613C26.3962 22.0262 25.1425 24.3162 23.9062 26.445C21.9438 29.8337 20.7225 31.6262 20 32.695C19.2775 31.6262 18.0562 29.8337 16.0938 26.445C14.8587 24.3162 13.6038 22.0262 12.695 19.9613C11.7875 17.895 11.25 16 11.25 15C11.25 10.1512 15.1512 6.25 20 6.25ZM20 12.5C19.337 12.5 18.7011 12.7634 18.2322 13.2322C17.7634 13.7011 17.5 14.337 17.5 15C17.5 15.663 17.7634 16.2989 18.2322 16.7678C18.7011 17.2366 19.337 17.5 20 17.5C20.663 17.5 21.2989 17.2366 21.7678 16.7678C22.2366 16.2989 22.5 15.663 22.5 15C22.5 14.337 22.2366 13.7011 21.7678 13.2322C21.2989 12.7634 20.663 12.5 20 12.5Z" fill="#C49A6C"/>
</svg>
