<svg xmlns="http://www.w3.org/2000/svg" width="22" height="30" fill="none" viewBox="0 0 22 30"><path fill="#C49A6C" d="M10.9688 0.741211C4.92741 0.741211 0 5.0369 0 10.3037C0 11.7976 0.694687 13.5125 1.638 15.3835C2.58009 17.2556 3.79519 19.2436 5.02734 21.0945C6.57989 23.4167 8.23164 25.6874 9.97913 27.9019L10.9688 29.1631L11.9596 27.9008C11.9596 27.9008 14.4446 24.8015 16.9102 21.0945C18.1435 19.2436 19.3574 17.2556 20.2995 15.3835C21.2428 13.5125 21.9375 11.7976 21.9375 10.3037C21.9375 5.0369 17.0101 0.741211 10.9688 0.741211ZM10.9688 2.86621C15.6963 2.86621 19.5 6.18227 19.5 10.3037C19.5 11.1537 18.9759 12.7645 18.0911 14.5208C17.2051 16.276 15.9827 18.2225 14.7773 20.032C12.8639 22.9124 11.6732 24.436 10.9688 25.3445C10.2643 24.436 9.07359 22.9124 7.16016 20.032C5.95603 18.2225 4.73241 16.276 3.84638 14.5208C2.96156 12.7645 2.4375 11.1537 2.4375 10.3037C2.4375 6.18227 6.24122 2.86621 10.9688 2.86621ZM10.9688 8.17871C10.3223 8.17871 9.7023 8.40259 9.24518 8.80111C8.78806 9.19962 8.53125 9.74013 8.53125 10.3037C8.53125 10.8673 8.78806 11.4078 9.24518 11.8063C9.7023 12.2048 10.3223 12.4287 10.9688 12.4287C11.6152 12.4287 12.2352 12.2048 12.6923 11.8063C13.1494 11.4078 13.4062 10.8673 13.4062 10.3037C13.4062 9.74013 13.1494 9.19962 12.6923 8.80111C12.2352 8.40259 11.6152 8.17871 10.9688 8.17871Z"/></svg>