<svg width="36" height="36" fill="none" xmlns="http://www.w3.org/2000/svg"><g clip-path="url(#clip0)" fill="#041E42"><path d="M34.892 12.416C31.976 3.101 22.027-2.105 12.709.81 3.393 3.726-1.814 13.677 1.102 22.993l1.145-.358C-.472 13.95 4.382 4.672 13.067 1.953A16.398 16.398 0 0125.649 3.08a16.399 16.399 0 018.1 9.694 16.396 16.396 0 01-1.128 12.58 16.392 16.392 0 01-9.693 8.1c-7.042 2.204-14.761-.58-18.776-6.77l-1.006.653c3.318 5.118 8.999 8.065 14.887 8.064 1.751 0 3.522-.26 5.253-.803a17.588 17.588 0 0010.398-8.688 17.586 17.586 0 001.209-13.495z"/><path d="M14.521 8.396l.344-1.15-5.997-1.798a.599.599 0 00-.596.15l-1.2 1.2a.6.6 0 00.181.972l5.397 2.399.487-1.097-4.599-2.044.33-.329 5.653 1.697z"/><path d="M20.092 4.823a.6.6 0 00-.6-.6 4.91 4.91 0 00-3.494 1.448l-5.085 5.085-2.07-.518a.6.6 0 00-.57.158l-1.2 1.2a.6.6 0 00.116.937l2.87 1.723 1.722 2.87a.6.6 0 00.939.115l1.2-1.199a.601.601 0 00.157-.57l-.517-2.067 5.167-5.115c.881-.923 1.366-2.136 1.365-3.467zm-7.62 7.97a.6.6 0 00-.16.57l.518 2.07-.416.417-1.404-2.34a.598.598 0 00-.205-.206L8.465 11.9l.416-.416 2.07.517a.6.6 0 00.569-.157l5.325-5.326a3.71 3.71 0 012-1.04 3.697 3.697 0 01-.975 1.971l-5.397 5.343z"/><path d="M18.867 15.525l-1.8-6.075-1.15.34 1.69 5.709-.363.321-2-4.638-1.101.475 2.327 5.398a.6.6 0 00.947.212l1.271-1.122a.6.6 0 00.179-.62zm-7.152 17.542c-4.271 2.024-7.622 2.285-9.19.717-2.72-2.719.233-10.619 6.868-18.376l-.912-.78C1.204 23.137-1.594 31.363 1.676 34.632 2.589 35.545 3.879 36 5.479 36c1.865 0 4.151-.618 6.749-1.85l-.513-1.083zm20.3-12.335a.6.6 0 00-.529-.317h-2.028l-1.634-3.267a.6.6 0 00-.536-.331H21.29a.6.6 0 00-.6.6v4.797a.6.6 0 00.6.6h1.799v6.596a.6.6 0 00.6.6h2.998a.6.6 0 00.425-.176l2.398-2.399a.597.597 0 00.176-.424v-2.217l2.298-3.447a.6.6 0 00.03-.615zm-3.427 3.548a.602.602 0 00-.1.333v2.15l-2.048 2.048h-2.151v-6.597a.6.6 0 00-.6-.6h-1.8v-3.598h5.027l1.634 3.267a.6.6 0 00.537.331h1.278l-1.777 2.666zm3.845-8.663l-2.227-3.895a.6.6 0 00-.52-.303h-3.598a.6.6 0 00-.5.267l-1.02 1.533h-1.479V10.22h2.999c.16 0 .311-.063.424-.176l2.223-2.223h2.75V6.622h-2.998a.598.598 0 00-.424.176L25.84 9.02h-3.35a.6.6 0 00-.6.6v4.197a.6.6 0 00.6.6h2.399a.6.6 0 00.498-.267l1.022-1.532h2.93l2.225 3.896a.6.6 0 00.52.302h2.4v-1.2h-2.051z"/><path d="M17.693 21.614h-3.35l-1.624-1.623a.598.598 0 00-.424-.176H9.297a.6.6 0 00-.6.6v4.198a.6.6 0 00.6.6h2.399v5.997a.6.6 0 00.96.48l2.398-1.8a.6.6 0 00.24-.48V27.9l2.773-2.219a.6.6 0 00.225-.468v-2.999a.6.6 0 00-.6-.6zm-.6 3.31l-2.774 2.22a.6.6 0 00-.225.467v1.5l-1.199.9v-5.398a.6.6 0 00-.6-.6H9.897v-2.998h2.15l1.623 1.623a.598.598 0 00.424.176h2.999v2.11zM5.613 12.91l-1.8-2.999a.599.599 0 00-.513-.29h-.6v1.199h.26l1.384 2.306-1.468 1.468a.598.598 0 00-.176.424v1.799H.9v1.2h2.4a.6.6 0 00.6-.6v-2.151l1.623-1.623a.6.6 0 00.09-.733zM18.893.625v.732l-1.945.486a.61.61 0 00-.187.083l-1.51 1.006-3.287-1.644-.537 1.073 3.599 1.8a.603.603 0 00.6-.039l1.713-1.141 2.298-.575a.6.6 0 00.455-.582V.625h-1.2z"/></g><defs><clipPath id="clip0"><path fill="#fff" d="M0 0h36v36H0z"/></clipPath></defs></svg>