<svg xmlns="http://www.w3.org/2000/svg" width="36" height="36" fill="none"><g clip-path="url(#clip0)"><path fill="#041E42" d="M34.126 30.756h-.927c-.643-1.527-.643-3.018 0-4.538h.927c1.033 0 1.874-.84 1.874-1.874 0-1.034-.84-1.875-1.874-1.875h-3.73a3.068 3.068 0 00.764-2.027V14.57a3.085 3.085 0 00-3.082-3.081h-1.516a1.91 1.91 0 00-1.705-2.76h-.522c-.465-1.151-.466-2.275 0-3.419h.522a1.909 1.909 0 000-3.815H7.067a5.53 5.53 0 00-5.524 5.523c0 1.473.575 2.86 1.62 3.905.208.208.43.396.662.566h-.408c-1.033 0-1.874.84-1.874 1.874 0 1.034.84 1.875 1.874 1.875h.928c.642 1.52.642 3.01-.001 4.538h-.927a1.876 1.876 0 00-1.541 2.94A3.086 3.086 0 000 25.55v5.873c0 1.7 1.381 3.082 3.08 3.082h31.046a1.876 1.876 0 000-3.75zm0-7.232a.82.82 0 010 1.64h-9.518a.527.527 0 000 1.054h7.459a6.84 6.84 0 00-.38 1.742s-.21 1.044.381 2.796H3.902a.155.155 0 01-.153-.152V26.37c0-.083.07-.152.153-.152h5.224v1.731c-.033.519.22.723.376.8.157.076.481.15.88-.213l.007-.008 1.475-1.406 1.473 1.406a.295.295 0 00.009.008c.233.213.44.276.604.276a.628.628 0 00.278-.065c.156-.076.409-.282.373-.799v-1.73h7.41a.527.527 0 100-1.055h-7.41l.001-1.64h19.524zM5.856 16.98a6.848 6.848 0 00-.382-1.742h21.784c.083 0 .153.07.153.152v4.233c0 .083-.07.153-.153.153H14.604v-1.742h3.691a.527.527 0 100-1.055H5.855zm3.269 2.796H5.473c.205-.58.334-1.16.382-1.742h3.27v1.742zm4.425-1.742l-.004 9.238-1.319-1.258a.527.527 0 00-.728 0l-1.318 1.258-.002-9.238h3.371zM2.597 7.017a4.474 4.474 0 014.47-4.468h17.79a.853.853 0 010 1.706h-9.721a.527.527 0 100 1.054h8.075a5.364 5.364 0 00.001 3.419H7.068c-.454 0-.883-.179-1.207-.502A1.706 1.706 0 017.068 5.31h5.471a.527.527 0 000-1.054H7.068a2.767 2.767 0 00-2.765 2.762c0 .735.288 1.428.812 1.955a2.75 2.75 0 001.953.81h17.789a.854.854 0 010 1.706H7.067a4.44 4.44 0 01-3.158-1.312 4.44 4.44 0 01-1.312-3.159zm.82 7.165a.82.82 0 010-1.64h24.661a2.03 2.03 0 012.027 2.027v5.874a2.03 2.03 0 01-2.027 2.026H14.603v-1.64h12.655c.666 0 1.207-.54 1.207-1.207V15.39c0-.666-.541-1.208-1.207-1.208H3.418zm0 6.648h5.708v1.64H3.417a.82.82 0 010-1.64zm30.709 12.62H3.079a2.028 2.028 0 01-2.024-2.026v-5.873c0-1.118.908-2.027 2.024-2.027h6.046v1.64H3.903c-.666 0-1.208.541-1.208 1.207v4.233c0 .666.542 1.207 1.208 1.207h30.224a.82.82 0 010 1.64z"/></g><defs><clipPath id="clip0"><path fill="#fff" d="M0 0h36v36H0z"/></clipPath></defs></svg>