<svg width="36" height="36" fill="none" xmlns="http://www.w3.org/2000/svg"><path d="M23.063 28.688h1.125v4.5h-1.125v-4.5zm2.25 0h1.125v4.5h-1.125v-4.5z" fill="#041E42"/><path d="M30.938 20.244V8.438h-1.125V2.71l-1.125.187v-1.21h-1.125v1.398l-1.125.187V.563h-1.125V3.46l-1.125.187v-1.96h-1.125v2.148l-1.125.187v4.415h-1.125v5.624h-4.5V6.189h-2.25V2.813h-1.126V.563H7.314v2.25H6.188v3.374h-2.25v10.51a3.942 3.942 0 00-2.206 2.99H.563v15.75h34.876V19.602l-4.5.643zM23.063 4.976l5.625-.937v4.399h-5.625V4.976zm-1.125 4.587h7.875v10.842l-3.375.482v2.926l-1.688-2.25-1.688 2.25v-9.75h-1.125v-4.5zm0 6.75h-7.875v-1.125h7.874v1.124zm0 11.25h5.625v6.75h-5.625v-6.75zm.562-1.125l2.25-3 2.25 3h-4.5zM8.437 1.688h3.376v1.125H8.437V1.687zm-1.124 2.25h5.625v2.25H7.311v-2.25zm-2.25 3.374h10.125v6.75h-2.25v2.636a3.913 3.913 0 00-1.688-.386H5.625c-.191 0-.378.02-.563.046V7.312zm.562 10.125h5.625a2.82 2.82 0 012.756 2.25H2.869a2.818 2.818 0 012.756-2.25zm9.563 3.375v1.125h-13.5v-1.125h13.5zm-2.25 10.125h-2.25v-2.25h2.25v2.25zm-3.376 0h-2.25v-2.25h2.25v2.25zm0 1.125v2.25h-2.25v-2.25h2.25zm1.126 0h2.25v2.25h-2.25v-2.25zm2.25-4.5h-2.25v-2.25h2.25v2.25zm-3.376 0h-2.25v-2.25h2.25v2.25zm-3.374 0h-2.25v-2.25h2.25v2.25zm-2.25 1.125h2.25v2.25h-2.25v-2.25zm0 3.375h2.25v2.25h-2.25v-2.25zm10.124 2.25V24.188H2.813v10.125H1.688v-11.25h13.5v11.25h-1.126zm1.08-14.624a3.923 3.923 0 00-1.08-2.188v-.063h7.876v7.875l-1.125 1.5v7.5h-4.5V19.688h-1.17zm19.17 14.625h-5.624v-7.5l-1.125-1.5v-3.45l6.75-.964v13.413z" fill="#041E42"/><path d="M17.438 18.563h1.125v1.125h-1.125v-1.125zm0 13.5h1.125v1.124h-1.125v-1.124zm0-11.25h1.125v1.125h-1.125v-1.125zm0 9h1.125v1.125h-1.125v-1.125zm0-4.5h1.125v1.125h-1.125v-1.125zm0-2.25h1.125v1.125h-1.125v-1.125zm0 4.5h1.125v1.125h-1.125v-1.125zm2.25-4.5h1.125v1.125h-1.125v-1.125zm0-2.25h1.125v1.125h-1.125v-1.125zm0-2.25h1.125v1.125h-1.125v-1.125zm12.375 13.5h1.124v1.124h-1.124v-1.124zm0-4.5h1.124v1.125h-1.124v-1.125zm0 2.25h1.124v1.125h-1.124v-1.125zm0-4.5h1.124v1.125h-1.124v-1.125zm0-2.25h1.124v1.125h-1.124v-1.125zm-2.25 6.75h1.125v1.125h-1.125v-1.125zm0-6.75h1.125v1.125h-1.125v-1.125zm0 4.5h1.125v1.125h-1.125v-1.125zm0 4.5h1.125v1.124h-1.125v-1.124zm0-6.75h1.125v1.125h-1.125v-1.125zM12.938 8.438h1.124v1.124h-1.124V8.438zm-2.25 0h1.124v1.124h-1.124V8.438zm-4.5 0h1.125v1.124H6.188V8.438zm2.25 0h1.124v1.124H8.438V8.438zm0 2.25h1.124v1.124H8.438v-1.124zm4.5 0h1.124v1.124h-1.124v-1.124zm-6.75 0h1.125v1.124H6.188v-1.124zm4.5 0h1.124v1.124h-1.124v-1.124zm-4.5 2.25h1.125v1.124H6.188v-1.124zm2.25 0h1.124v1.124H8.438v-1.124zm2.25 0h1.124v1.124h-1.124v-1.124zm16.875-2.25h1.125v1.124h-1.125v-1.124zm-2.25 0h1.125v1.124h-1.125v-1.124zm-2.25 0h1.125v1.124h-1.125v-1.124zm4.5 2.25h1.125v1.124h-1.125v-1.124zm-4.5 0h1.125v1.124h-1.125v-1.124zm2.25 0h1.125v1.124h-1.125v-1.124zm0 6.75h1.125v1.125h-1.125v-1.125zm0-2.25h1.125v1.125h-1.125v-1.125zm0-2.25h1.125v1.124h-1.125v-1.125zm2.25 2.25h1.125v1.125h-1.125v-1.125zm0-2.25h1.125v1.124h-1.125v-1.125z" fill="#041E42"/></svg>