<svg xmlns="http://www.w3.org/2000/svg" width="36" height="36" fill="none"><path fill="#041E42" d="M34.313 6.75h-1.688V5.625a.563.563 0 00-.563-.563h-1.687V4.5A3.942 3.942 0 0026.437.562H9.563A3.942 3.942 0 005.626 4.5v.563H3.937a.563.563 0 00-.562.562V6.75H1.687a.563.563 0 00-.562.563v13.5a1.125 1.125 0 001.125 1.125h1.125A1.125 1.125 0 004.5 20.813V11.25a.562.562 0 00-.563-.563H2.25V7.876h1.125V9a.563.563 0 00.563.563h1.687V29.25a2.818 2.818 0 002.25 2.756v2.306A1.125 1.125 0 009 35.438h3.375a1.125 1.125 0 001.125-1.126v-2.25h9v2.25a1.125 1.125 0 001.125 1.126H27a1.125 1.125 0 001.125-1.126v-2.306a2.818 2.818 0 002.25-2.756V9.562h1.688A.562.562 0 0032.624 9V7.875h1.125v2.813h-1.688a.562.562 0 00-.562.562v9.563a1.125 1.125 0 001.125 1.125h1.125a1.125 1.125 0 001.125-1.125v-13.5a.563.563 0 00-.563-.563zM3.375 11.813v9H2.25v-9h1.125zm18.03 15.17c-.004.006-.005.011-.008.017h-6.794l-.007-.016-.665-1.109h8.138l-.665 1.108zM6.75 25.361l5.569.465a.562.562 0 01.435.27l.877 1.466H6.75v-2.2zm16.498.736a.563.563 0 01.435-.271l5.57-.465v2.201h-6.884l.88-1.465zm6.002-1.864l-5.66.47a1.912 1.912 0 00-.225.047H12.633a1.74 1.74 0 00-.225-.046l-5.658-.471V21.16l.723.362c.547.273 1.15.415 1.761.416h.028l-.17.25.937.624.584-.875h16.153c.611 0 1.214-.142 1.76-.415l.724-.362v3.073zm0-4.332l-1.227.613c-.39.195-.82.297-1.257.299H11.363l.75-1.125h13.762v-1.125H11.812a.562.562 0 00-.467.25l-1.333 2h-.778a2.84 2.84 0 01-1.257-.297l-1.227-.614V5.062h22.5v14.84zM9.562 1.688h16.876a2.818 2.818 0 012.756 2.25H6.806a2.818 2.818 0 012.756-2.25zM4.5 8.438v-2.25h1.125v2.25H4.5zm7.875 25.874H9v-2.25h3.375v2.25zm11.25 0v-2.25H27v2.25h-3.375zm3.938-3.374H8.438A1.687 1.687 0 016.75 29.25v-.563h6.881a1.111 1.111 0 00.973-.562h6.792a1.111 1.111 0 00.973.563h6.881v.562a1.687 1.687 0 01-1.688 1.688zm3.937-22.5h-1.125v-2.25H31.5v2.25zm2.25 12.374h-1.125v-9h1.125v9z"/></svg>