<svg xmlns="http://www.w3.org/2000/svg" width="36" height="36" fill="none"><g clip-path="url(#clip0)" fill="#041E42"><path d="M33.968 3.774h-.29V2.613a.58.58 0 00-.581-.58h-2.323a.58.58 0 00-.58.58v1.161H26.71V2.613a.58.58 0 00-.581-.58h-2.323a.58.58 0 00-.58.58v1.161h-3.484V2.613a.58.58 0 00-.58-.58h-2.323a.58.58 0 00-.58.58v1.161h-3.485V2.613a.58.58 0 00-.58-.58H9.87a.58.58 0 00-.58.58v1.161H5.805V2.613a.58.58 0 00-.58-.58H2.903a.58.58 0 00-.58.58v1.161h-.29A2.034 2.034 0 000 5.806v26.13a2.034 2.034 0 002.032 2.032h31.936A2.034 2.034 0 0036 31.935V5.806a2.034 2.034 0 00-2.032-2.032zm-2.613-.58h1.161v2.322h-1.161V3.194zm-6.968 0h1.161v2.322h-1.16V3.194zm-6.968 0h1.162v2.322h-1.162V3.194zm-6.967 0h1.16v2.322h-1.16V3.194zm-6.968 0h1.161v2.322H3.484V3.194zm31.355 28.742c0 .48-.39.87-.871.87H2.032a.87.87 0 01-.87-.87V8.419h33.677v23.517zm0-24.678H1.16V5.806c0-.48.39-.87.871-.87h.29v1.16c0 .321.26.581.581.581h2.323c.32 0 .58-.26.58-.58V4.935H9.29v1.162c0 .32.26.58.581.58h2.322a.58.58 0 00.581-.58V4.935h3.484v1.162c0 .32.26.58.58.58h2.323a.58.58 0 00.58-.58V4.935h3.485v1.162c0 .32.26.58.58.58h2.323c.32 0 .58-.26.58-.58V4.935h3.485v1.162c0 .32.26.58.58.58h2.323c.32 0 .58-.26.58-.58V4.935h.29c.482 0 .871.39.872.871v1.452z"/><path d="M18 13.065a7.548 7.548 0 107.548 7.548A7.557 7.557 0 0018 13.065zM18 27a6.387 6.387 0 116.387-6.387A6.394 6.394 0 0118 27zm0-14.516c.32 0 .58-.26.58-.58v-1.162a.58.58 0 00-1.16 0v1.161c0 .32.26.58.58.58z"/><path d="M18 28.742a.58.58 0 00-.58.58v1.162a.58.58 0 001.16 0v-1.161a.58.58 0 00-.58-.581zm9.87-8.71h-1.16a.58.58 0 000 1.162h1.16a.58.58 0 100-1.162zm-18.58 0H8.13a.58.58 0 000 1.162h1.16a.58.58 0 000-1.162zm15.279-6.809l-.821.82a.58.58 0 00.82.822l.822-.822a.58.58 0 00-.821-.82zM11.43 26.361l-.82.821a.58.58 0 00.811.83l.01-.009.82-.82a.58.58 0 00-.82-.822zm13.14 0a.58.58 0 00-.822.821l.822.821a.58.58 0 00.82-.82l-.82-.822zM11.43 14.864a.58.58 0 00.821-.82l-.82-.822a.58.58 0 00-.822.822l.822.82z"/></g><defs><clipPath id="clip0"><path fill="#fff" d="M0 0h36v36H0z"/></clipPath></defs></svg>