<svg width="36" height="36" fill="none" xmlns="http://www.w3.org/2000/svg"><path d="M36 20.029a2.637 2.637 0 00-2.633-2.634c-.703 0-1.365.274-1.862.772l-2.473 2.472V0H6.147L0 6.147V36h29.032v-7.912l6.197-6.197A2.617 2.617 0 0036 20.029zM21.773 30.118l1.51 1.51-2.114.618.604-2.128zm2.614.972l-.63-.63 8.29-8.29.63.63-8.29 8.29zm-1.451-1.452l-.631-.63 8.29-8.29.631.63-8.29 8.29zM5.806 1.982v3.824H1.982l3.824-3.824zM27.871 34.84H1.161V6.968h5.807V1.16H27.87V21.8l-6.905 6.903-1.489 5.245 5.215-1.522 3.179-3.178v5.59zm6.537-13.77l-.909.91-2.082-2.082.909-.91a1.463 1.463 0 011.04-.43 1.474 1.474 0 011.042 2.513z" fill="#041E42"/><path d="M11.764 23.997l-2.5 2.749a4.053 4.053 0 00-2.877-1.198 4.07 4.07 0 00-4.064 4.065 4.07 4.07 0 004.064 4.065 4.07 4.07 0 004.065-4.065c0-.693-.175-1.345-.482-1.916l2.653-2.92-.86-.78zM9.29 29.613c0 1.6-1.302 2.903-2.903 2.903a2.907 2.907 0 01-2.903-2.903c0-1.6 1.302-2.903 2.903-2.903a2.89 2.89 0 012.092.9l-2.185 2.404-1.326-.884-.645.967 2.158 1.438 2.63-2.893c.109.305.18.628.18.971zm-.025-13.319a4.052 4.052 0 00-2.878-1.197 4.07 4.07 0 00-4.064 4.064 4.07 4.07 0 004.064 4.065 4.07 4.07 0 004.065-4.065 4.04 4.04 0 00-.482-1.916l2.653-2.919-.86-.781-2.498 2.75zm.025 2.867a2.906 2.906 0 01-2.903 2.903 2.907 2.907 0 01-2.903-2.903c0-1.6 1.302-2.903 2.903-2.903a2.89 2.89 0 012.092.9l-2.185 2.404-1.326-.883-.645.966 2.158 1.439 2.63-2.893c.109.304.18.628.18.97zm16.258-.581h1.162v1.162h-1.162v-1.161zm-12.774 0h11.613v1.162H12.774v-1.161zm0-2.322H26.71v1.161H12.774v-1.16zm0 4.645H26.71v1.162H12.774v-1.162zm0 8.129h6.387v1.162h-6.387v-1.162zm0 2.323h6.387v1.161h-6.387v-1.161zm0-4.645h6.387v1.161h-6.387V26.71zm-1.742-13.936h12.774a2.907 2.907 0 002.904-2.903V5.226c0-1.6-1.303-2.903-2.904-2.903H11.032A2.907 2.907 0 008.13 5.226V9.87c0 1.6 1.303 2.903 2.903 2.903zM9.29 5.226c0-.96.782-1.742 1.742-1.742h12.774c.96 0 1.742.782 1.742 1.742V9.87c0 .96-.781 1.742-1.742 1.742H11.032c-.96 0-1.742-.782-1.742-1.742V5.226z" fill="#041E42"/><path d="M24.387 5.806h-3.484V9.29h3.484V5.806zM23.226 8.13h-1.162V6.968h1.162v1.161zm-4.065-2.324h-3.484V9.29h3.484V5.806zM18 8.13h-1.161V6.968H18v1.161zm-4.065-2.324h-3.483V9.29h3.483V5.806zm-1.16 2.323h-1.162V6.968h1.161v1.161z" fill="#041E42"/></svg>