<svg xmlns="http://www.w3.org/2000/svg" width="36" height="36" fill="none"><g clip-path="url(#clip0)"><path fill="#041E42" d="M35.045 15.063l-2.449-.511c-.31-1.312-.8-2.574-1.453-3.752l1.111-1.112c.006-.005.007-.013.013-.018a.604.604 0 00.108-.16v-.008l.008-.015 3.507-7.79A1.2 1.2 0 0034.304.109l-7.79 3.506-.017.008-.006.003c-.011.004-.018.014-.03.02a.591.591 0 00-.15.1L25.2 4.86a14.709 14.709 0 00-3.752-1.453L20.94.955A1.205 1.205 0 0019.763 0h-3.525c-.568.002-1.057.4-1.175.955l-.511 2.447a14.635 14.635 0 00-4.432 1.84L8.027 3.87a1.208 1.208 0 00-1.507.156L4.024 6.52c-.4.403-.463 1.03-.154 1.506l1.373 2.093a14.635 14.635 0 00-1.84 4.432l-2.448.511A1.205 1.205 0 000 16.238v3.525c0 .569.399 1.06.955 1.177l2.449.511a14.69 14.69 0 001.055 2.989c-.392.05-.757.225-1.039.502l-.844.847a1.774 1.774 0 00-.346 2.04L.879 29.182a3.004 3.004 0 000 4.242l1.697 1.697a3.004 3.004 0 004.242 0l1.35-1.35a1.773 1.773 0 002.041-.345l.857-.85c.275-.282.45-.645.498-1.036.956.459 1.957.813 2.989 1.056l.51 2.449c.118.555.607.953 1.175.955h3.525c.569 0 1.06-.399 1.177-.955l.511-2.448a14.633 14.633 0 004.433-1.84l2.092 1.374a1.208 1.208 0 001.507-.156l2.496-2.496c.4-.403.463-1.03.154-1.506L30.76 25.88a14.623 14.623 0 001.84-4.433l2.448-.511c.554-.119.95-.608.952-1.174v-3.525a1.205 1.205 0 00-.955-1.175zM28.2 18c-.006 5.63-4.57 10.194-10.2 10.2a10.011 10.011 0 01-4.392-.998 10.2 10.2 0 01-4.812-4.813A10.018 10.018 0 017.8 18C7.806 12.37 12.37 7.806 18 7.8c1.228 0 2.446.226 3.592.666l-2.967 2.966A6.466 6.466 0 0018 11.4a6.608 6.608 0 00-6.535 7.53A6.607 6.607 0 0018 24.6a6.608 6.608 0 006.6-6.6c0-.219-.013-.424-.032-.625l2.966-2.967c.44 1.146.666 2.364.666 3.592zM26.735 5.02l1.699 1.7-14.65 14.648a5.322 5.322 0 01-1.08-2.32L26.735 5.02zM31.4 2.731c.253.357.534.692.84 1.003.32.314.666.6 1.034.856l-1.636 3.633-3.862-3.862 3.624-1.63zM12.631 17.426a5.409 5.409 0 014.795-4.795l-4.795 4.795zm10.74 1.148a5.409 5.409 0 01-4.794 4.795l4.794-4.795zm-6.42 4.72a5.314 5.314 0 01-2.319-1.08L29.28 7.566l1.699 1.699-14.027 14.029zM34.8 1.204L33.773 3.48a6.791 6.791 0 01-.685-.593 7.082 7.082 0 01-.575-.656L34.8 1.204zM3.426 26.64l.84-.849a.6.6 0 01.853 0l.109.11-1.34 2.043-.464-.464a.595.595 0 010-.844l.002.004zm2.544 7.633a1.8 1.8 0 01-2.546 0l-1.697-1.697a1.8 1.8 0 010-2.546L3 28.757 7.243 33 5.97 34.273zm4.246-2.545l-.856.848a.608.608 0 01-.843 0l-.463-.464 2.05-1.34.108.108a.6.6 0 01.004.848zM34.8 19.763l-2.828.59a.6.6 0 00-.465.467 13.43 13.43 0 01-1.966 4.733.6.6 0 000 .66l1.586 2.419-2.495 2.495-2.419-1.586a.6.6 0 00-.66 0 13.43 13.43 0 01-4.733 1.966.6.6 0 00-.467.465l-.59 2.828h-3.525l-.591-2.828a.6.6 0 00-.465-.465 13.57 13.57 0 01-4.208-1.635 3.01 3.01 0 01-.254-.156 4.655 4.655 0 01-.26-.17.617.617 0 00-.216-.09h-.005a.6.6 0 00-.444.084l-2.424 1.587-2.496-2.495 1.587-2.425a.6.6 0 00-.021-.68h.004c-.055-.08-.11-.16-.18-.276a3.26 3.26 0 01-.146-.24v-.004a13.522 13.522 0 01-1.62-4.184.6.6 0 00-.465-.465L1.2 19.764v-3.525l2.828-.591a.6.6 0 00.465-.467 13.428 13.428 0 011.966-4.733.6.6 0 000-.66L4.873 7.369 7.37 4.873 9.787 6.46a.6.6 0 00.66 0 13.426 13.426 0 014.733-1.967.6.6 0 00.467-.465l.59-2.828h3.526l.59 2.828a.6.6 0 00.465.465 13.54 13.54 0 013.496 1.25L22.518 7.54A11.21 11.21 0 0018 6.6C11.707 6.607 6.607 11.707 6.6 18c-.006 1.7.375 3.378 1.114 4.908a11.4 11.4 0 005.375 5.377c1.531.74 3.21 1.12 4.911 1.115 6.293-.007 11.393-5.107 11.4-11.4a11.21 11.21 0 00-.94-4.518l1.797-1.796a13.537 13.537 0 011.25 3.494.6.6 0 00.465.465l2.828.593v3.525z"/></g><defs><clipPath id="clip0"><path fill="#fff" d="M0 0h36v36H0z"/></clipPath></defs></svg>