<svg xmlns="http://www.w3.org/2000/svg" width="36" height="36" fill="none"><g clip-path="url(#clip0)" fill="#041E42"><path d="M15.206 7.3H12.39c-.602 0-1.091.489-1.091 1.09v.036h-1.197V8.39c0-.602-.49-1.092-1.091-1.092H6.195c-.602 0-1.091.49-1.091 1.092v1.69c0 .6.49 1.09 1.09 1.09h2.817c.602 0 1.091-.49 1.091-1.09v-.6h1.197v.6c0 .6.49 1.09 1.091 1.09h2.816c.602 0 1.091-.49 1.091-1.09V8.39c0-.602-.49-1.092-1.091-1.092zm-6.16 2.78c0 .02-.016.035-.035.035H6.195a.035.035 0 01-.035-.035V8.39c0-.019.015-.035.035-.035H9.01c.02 0 .035.016.035.036v1.69zm6.195 0c0 .02-.016.035-.035.035H12.39a.035.035 0 01-.035-.035V8.39c0-.019.015-.035.035-.035h2.816c.02 0 .035.016.035.036v1.69z"/><path d="M7.638 8.708h-.07a.528.528 0 100 1.055h.07a.528.528 0 100-1.055zm6.195 0h-.07a.528.528 0 100 1.055h.07a.528.528 0 100-1.055zm-1.02 3.308a.528.528 0 00-.74-.105 2.31 2.31 0 01-1.372.457c-.285 0-.842-.06-1.373-.457a.528.528 0 00-.634.844c.776.582 1.59.67 2.007.67a3.37 3.37 0 002.006-.67.528.528 0 00.105-.739zm-2.042 13.869h-.07a.528.528 0 100 1.056h.07a.528.528 0 100-1.056zm0 2.815h-.07a.528.528 0 100 1.057h.07a.528.528 0 100-1.056zm0 2.817h-.07a.528.528 0 100 1.056h.07a.528.528 0 000-1.056z"/><path d="M32.044 16.262a.528.528 0 00-.543.906c2.161 1.296 3.452 3.436 3.452 5.725 0 3.823-3.553 6.934-7.92 6.934s-7.92-3.11-7.92-6.934c0-1.337.436-2.634 1.261-3.753a.528.528 0 00.056-.532l-1.345-2.959 3.17 1.441c.155.07.333.062.48-.021a8.717 8.717 0 014.298-1.11c.729 0 1.45.086 2.145.257a.528.528 0 00.253-1.025 10.048 10.048 0 00-2.398-.288c-1.62 0-3.198.385-4.581 1.117l-4.212-1.915c-.434-.197-.896.282-.699.717l.429.96h-2.455c1.107-.422 1.873-1.446 1.873-2.675v-2.182c0-.01.017-.022.016-.032l1.44-.932a.52.52 0 00.234-.444V2.76A2.724 2.724 0 0016.332.013H5.07c-1.534 0-2.816 1.213-2.816 2.746v6.758c0 .18.109.347.26.444l1.44.931c-.001.011-.01.022-.01.033v2.182c0 1.23.836 2.253 1.943 2.676h-3.07C1.283 15.783 0 16.995 0 18.528v16.896a.59.59 0 00.563.563h20.275c.291 0 .493-.272.493-.563v-6.34c1.549 1.124 3.537 1.799 5.684 1.799 4.95 0 8.985-3.584 8.985-7.99 0-2.663-1.473-5.142-3.956-6.631zM4.582 4.492c-.319-.058-.64.196-.64.52v4.624L3.31 9.23V2.76c0-.951.809-1.69 1.76-1.69h11.263c.952 0 1.69.739 1.69 1.69v6.47l-.633.407V5.012a.519.519 0 00-.605-.52l-6.1 1.11-6.102-1.11zm.416 8.616V5.643l5.59 1.014a.479.479 0 00.18 0l5.564-1.014v7.463c0 .952-.738 1.76-1.69 1.76H6.759c-.95 0-1.76-.808-1.76-1.76zm8.76 3.73l-1.355 2.502-.044-.736.443-1.765h.957zm-2.343 1.197H9.986l-.299-1.196h2.027l-.3 1.197zm.033 3.06l-.747 1.388-.75-1.393c.001-.015.003-.012.004-.027l.117-1.971h1.257l.119 2.003zm-2.406-2.5L9 19.35l-1.357-2.51H8.6l.443 1.756zm11.233 9.672v6.664H1.055V18.528c.001-.95.81-1.69 1.761-1.69h3.627l3.793 7.027c.195.363.734.372.93.009l3.792-7.035h3.492l.893 1.948c-.842 1.242-1.286 2.653-1.286 4.115 0 2.029.837 3.879 2.242 5.29-.004.026-.024.048-.024.075z"/><path d="M27.033 18A5.04 5.04 0 0022 23.034a5.04 5.04 0 005.033 5.033 5.04 5.04 0 005.033-5.033A5.04 5.04 0 0027.033 18zm0 9.011a3.982 3.982 0 01-3.978-3.977 3.982 3.982 0 013.978-3.978 3.982 3.982 0 013.977 3.978 3.982 3.982 0 01-3.977 3.977z"/><path d="M25.414 21.942h-.07a.528.528 0 100 1.056h.07a.528.528 0 100-1.056zm3.308 0h-.07a.528.528 0 100 1.056h.07a.528.528 0 100-1.056zm.423 1.901a.528.528 0 00-.74-.105c-.227.17-.708.457-1.372.457-.285 0-.842-.06-1.373-.457a.528.528 0 00-.633.844c.776.582 1.59.67 2.006.67a3.37 3.37 0 002.006-.67.528.528 0 00.106-.739z"/></g><defs><clipPath id="clip0"><path fill="#fff" d="M0 0h36v36H0z"/></clipPath></defs></svg>