<svg xmlns="http://www.w3.org/2000/svg" width="42" height="39" fill="none"><path fill="#041E42" d="M21 1.218c-10.856 0-19.688 8.187-19.688 18.251C1.312 29.533 10.144 37.72 21 37.72c10.856 0 19.688-8.187 19.688-18.25C40.688 9.404 31.855 1.217 21 1.217zm0 35.286c-10.132 0-18.375-7.642-18.375-17.035S10.868 2.435 21 2.435s18.375 7.641 18.375 17.034c0 9.393-8.243 17.035-18.375 17.035z"/><path fill="#041E42" d="M10.081 8.956l-.91-.877c-.398.356-.78.732-1.138 1.118l.997.792c.33-.358.684-.705 1.051-1.033zm-6.09 9.247L5.3 18.3c.225-2.61 1.206-5.116 2.84-7.252l-1.071-.703c-1.77 2.315-2.833 5.03-3.078 7.86zM30.188 7.5c0-.648-.259-1.274-.726-1.757a2.922 2.922 0 00-1.806-.86 3.01 3.01 0 00-1.964.476 2.63 2.63 0 00-1.12 1.57c-.11.463-.199.93-.29 1.396A13.085 13.085 0 0021 7.921V4.867h-1.313v7.3a2.917 2.917 0 01-.656 1.826c-.19.236-.418.444-.674.62a2.863 2.863 0 00-1.24 2.488l.601 13.948c.006.155-.021.31-.082.455a1.14 1.14 0 01-.268.387 1.33 1.33 0 01-.896.341 1.33 1.33 0 01-.896-.34 1.14 1.14 0 01-.269-.39c-.06-.144-.088-.3-.081-.455l.47-13.95a2.86 2.86 0 00-1.241-2.485 3.163 3.163 0 01-.674-.62 2.914 2.914 0 01-.656-1.824v-7.3h-1.313v6.805a11.362 11.362 0 00-2.673 4.24 10.726 10.726 0 00-.525 4.887c.206 1.645.792 3.23 1.718 4.646a11.947 11.947 0 003.65 3.56l-.067 2.002a2.2 2.2 0 00.169.932c.123.297.31.569.549.798.238.229.525.41.84.535a2.731 2.731 0 002-.002c.317-.124.603-.307.841-.536.239-.23.425-.5.548-.798.123-.297.18-.615.167-.933l-.005-.127a13.15 13.15 0 006.1-.51l-.045.56a2.21 2.21 0 00.134.936c.113.301.289.578.519.814.23.236.508.427.82.561a2.725 2.725 0 001.995.064 2.59 2.59 0 00.86-.508c.247-.22.443-.485.577-.778.134-.293.203-.608.203-.926v-3.827c2.11-2.124 3.282-4.907 3.282-7.795s-1.172-5.67-3.282-7.795V7.5zM14.032 27.533c-2.248-1.66-3.715-4.064-4.092-6.706-.377-2.641.365-5.316 2.07-7.461a4.178 4.178 0 001.666 2.227c.465.318.73.865.708 1.466l-.352 10.474zm11.198 1.492a11.45 11.45 0 01-6.26.595l-.542-12.563c-.021-.599.243-1.147.708-1.464.359-.246.678-.538.945-.87A4.08 4.08 0 0021 12.169V9.136a11.66 11.66 0 013.067.397 34.304 34.304 0 00-.442 5.402v6.358c0 .162.07.316.192.43.123.114.29.178.464.178h1.511l-.563 7.123zm3.645 2.066c0 .306-.132.6-.365.816-.233.216-.55.337-.88.338-.17 0-.339-.033-.495-.095a1.249 1.249 0 01-.414-.27 1.143 1.143 0 01-.263-.401 1.075 1.075 0 01-.07-.465l.765-9.675a.567.567 0 00-.035-.246.601.601 0 00-.139-.213.657.657 0 00-.218-.144.701.701 0 00-.262-.05h-1.561v-5.75c0-2.604.307-5.2.917-7.742.081-.34.296-.641.602-.845a1.62 1.62 0 012.028.207c.251.26.39.597.39.946v23.59zm3.281-11.622c.001 2.09-.685 4.13-1.968 5.848V13.62c1.283 1.718 1.97 3.758 1.968 5.848z"/><path fill="#041E42" d="M14.438 4.867h1.312v6.692h-1.313V4.867zm2.625 0h1.312v6.692h-1.313V4.867z"/></svg>