<svg width="36" height="44" fill="none" xmlns="http://www.w3.org/2000/svg"><g clip-path="url(#clip0)" fill="#041E42"><path d="M34.148 19.59l1.727-2.504a.747.747 0 00.12-.492l-.802-8.218c-.024-.25-.165-.46-.361-.537-.197-.077-.412-.008-.55.178l-3.634 4.837-6.64.826c-.29.036-.5.353-.47.707.029.354.288.612.577.576l6.84-.851a.5.5 0 00.334-.206l2.993-3.984.64 6.547-1.533 2.221-3.1 2.557a.702.702 0 00-.232.578l.241 4.34c.018.315.22.568.476.598l2.208.257 1.132 3.52-.517 1.63-1.507-2.459c-.118-.191-.311-.287-.505-.25l-2.289.442c-.189.036-.346.195-.412.414l-.742 2.46-4.282 1.061c-.285.071-.47.411-.412.76.051.306.271.517.517.517.034 0 .07-.005.105-.013l4.57-1.133c.179-.044.326-.199.39-.408l.736-2.444 1.67-.322 1.887 3.076c.115.188.303.285.493.253.19-.032.351-.187.42-.406l.936-2.945a.778.778 0 00-.001-.47l-1.325-4.123c-.073-.226-.243-.383-.441-.406l-2.085-.243-.19-3.423 2.91-2.4a.572.572 0 00.108-.118zM21.547 34.412l-1.748.433-4.163-5.34c-.131-.168-.326-.236-.51-.18l-3.022.93-1.354-2.037a.509.509 0 00-.36-.235l-5.06-.589a.47.47 0 00-.405.165.716.716 0 00-.173.477v1.357L2.75 31.895l-.656-3.518.85-2.728a.777.777 0 00-.017-.507.577.577 0 00-.312-.335l-1.46-.585 1.774-8.859 3.349-2.504 2.84 1.616c.265.15.578.01.701-.313s.009-.706-.255-.856l-3.098-1.761a.445.445 0 00-.498.034l-3.775 2.823a.652.652 0 00-.237.397L.015 24.495c-.066.327.086.66.348.766l1.399.56-.71 2.28a.78.78 0 00-.022.373l.907 4.86c.043.23.185.413.37.477.186.064.386-.001.521-.17l2.829-3.534a.725.725 0 00.15-.451v-.911l4.263.496 1.428 2.147c.129.194.339.28.538.218l3.049-.939 4.152 5.325c.1.129.239.2.382.2.034 0 .07-.005.104-.013l2.034-.504c.285-.07.47-.41.412-.76-.058-.349-.336-.574-.622-.503z"/><path d="M22.029 11.898c-2.589 0-3.847-.369-5.179-.76-1.244-.365-2.527-.741-4.897-.79v-.736c0-.356-.236-.644-.528-.644-.291 0-.527.288-.527.644v14.916c0 .356.236.645.527.645.291 0 .528-.289.528-.645v-3.217c2.238.047 3.413.392 4.651.755 1.333.39 2.712.795 5.425.795.291 0 .527-.288.527-.644v-9.674c0-.356-.236-.645-.527-.645zm-5.425.494c1.244.365 2.527.74 4.897.79v1.963c-2.238-.047-3.413-.391-4.65-.755-1.245-.365-2.528-.74-4.898-.79v-1.963c2.238.047 3.413.391 4.651.755zm.246 8.42c-1.244-.364-2.527-.74-4.897-.79v-1.954c2.238.046 3.413.39 4.65.754.175.05.349.102.526.152.04.011.08.017.12.017.24 0 .456-.201.513-.5.065-.346-.111-.692-.395-.773l-.517-.15c-1.244-.365-2.527-.74-4.897-.79V14.89c2.238.047 3.413.392 4.651.755 1.244.365 2.527.741 4.898.79v1.889a18.28 18.28 0 01-1.851-.127c-.29-.037-.549.221-.578.576-.03.354.181.67.47.706.606.075 1.25.12 1.959.134v1.955c-2.24-.047-3.414-.391-4.652-.755z"/></g><defs><clipPath id="clip0"><path fill="#fff" d="M0 0h36v44H0z"/></clipPath></defs></svg>