<svg xmlns="http://www.w3.org/2000/svg" width="36" height="36" fill="none"><g clip-path="url(#clip0)" fill="#041E42"><path d="M28.688 0H7.312a3.09 3.09 0 00-3.086 3.086v1.856a.527.527 0 001.055 0V3.086c0-1.12.911-2.031 2.031-2.031h21.376c1.12 0 2.032.91 2.032 2.031v29.828c0 1.12-.912 2.032-2.032 2.032H7.312a2.034 2.034 0 01-2.031-2.032V7.05a.527.527 0 00-1.055 0v25.863A3.09 3.09 0 007.312 36h21.376a3.09 3.09 0 003.086-3.086V3.086A3.09 3.09 0 0028.688 0z"/><path d="M6.326 4.32v19.92a.527.527 0 101.055 0V4.847h21.24v7.231a.527.527 0 001.054 0V4.32a.527.527 0 00-.527-.527H6.853a.527.527 0 00-.527.527zm0 26.051c0 .291.236.527.527.527h22.295a.527.527 0 00.527-.527V14.186a.527.527 0 00-1.055 0v15.658H7.38V26.35a.527.527 0 10-1.054 0v4.021zm10.068 2.426a1.607 1.607 0 003.213 0c0-.885-.72-1.606-1.606-1.606-.886 0-1.607.72-1.607 1.606zm2.158 0a.552.552 0 11-1.104-.001.552.552 0 011.104.001zM20.278 2.94a.527.527 0 100-1.055h-2.403a.527.527 0 100 1.055h2.403zm-4.416-.002a.527.527 0 100-1.055.527.527 0 000 1.055z"/></g><defs><clipPath id="clip0"><path fill="#fff" d="M0 0h36v36H0z"/></clipPath></defs></svg>