<svg xmlns="http://www.w3.org/2000/svg" width="36" height="36" fill="none"><g clip-path="url(#clip0)" fill="#041E42"><path d="M.883 22.435a4.4 4.4 0 00.622.36c.26.132.695.354.725.51.038.205.014.417-.07.607-.09.192-.184.357-.264.5-.22.388-.587 1.038-.033 1.491.13.12.353.294.558.45-.15.263-.219.564-.196.866a.866.866 0 00.353.588c.135.096.28.18.42.261.352.201.49.295.54.48.032.244.01.492-.066.727-.036.156-.07.311-.092.47a3.52 3.52 0 00.203 1.617A2.248 2.248 0 005.708 33c.165 0 .33-.018.49-.052a45.463 45.463 0 005.06-1.513c1.35.793 2.205 3.205 2.427 4.11a.6.6 0 00.583.455l15.06-.042a.6.6 0 00.571-.78 4.63 4.63 0 00-.608-1.14 5.567 5.567 0 01-.389-.648 11.427 11.427 0 01-.677-1.708 20.223 20.223 0 01-.71-3.55 10.16 10.16 0 01.789-5.268 13.35 13.35 0 011.63-2.576c.36-.486.733-.99 1.069-1.518a9.278 9.278 0 001.236-2.922.6.6 0 00-1.17-.271 8.097 8.097 0 01-1.08 2.55c-.31.492-.67.977-1.02 1.446a14.506 14.506 0 00-1.765 2.811 11.351 11.351 0 00-.88 5.892c.139 1.275.392 2.535.757 3.764.197.645.446 1.274.745 1.88.136.27.292.53.465.78l.04.06-13.61.04a9.568 9.568 0 00-2.112-3.832l.54-.187c.403-.141.707-.248.865-.3 2.569-.82 3.854-1.99 3.819-3.48a.59.59 0 00-.613-.583.6.6 0 00-.586.614c.015.614-.491 1.512-2.985 2.307-.163.052-.48.162-.895.308-.446.155-1.01.353-1.635.565h-.004a46.708 46.708 0 01-5.156 1.56 1.069 1.069 0 01-1.236-.799 2.4 2.4 0 01-.149-1.063c.018-.12.046-.246.074-.368.127-.42.148-.863.06-1.292A1.989 1.989 0 003.6 27.025l-.13-.074c.066-.13.143-.256.233-.372a.6.6 0 00-.116-.854c-.144-.106-.48-.36-.732-.56l.09-.162a8.05 8.05 0 00.307-.58c.19-.42.246-.889.16-1.342-.144-.732-.845-1.091-1.357-1.353a3.461 3.461 0 01-.854-.579c0-.09.097-.311.554-.867A24.206 24.206 0 004.5 15.82c.14-.248.22-.526.232-.811a2.1 2.1 0 00-.88-1.5c-.244-.224-.473-.434-.5-.61a1.18 1.18 0 01.098-.427c.098-.257.211-.509.324-.762a8.805 8.805 0 00.6-1.626c.137-.673.318-1.336.54-1.985a10.287 10.287 0 012.153-3.517c1.147-1.215 2.953-2.074 5.377-2.555a38.99 38.99 0 015.63-.811c.636-.033 1.275-.02 1.91.04A.601.601 0 1020.096.06 14.595 14.595 0 0018.01.019a40.051 40.051 0 00-5.803.832c-2.705.54-4.672 1.489-6.013 2.907a11.476 11.476 0 00-2.407 3.926c-.244.71-.441 1.434-.591 2.169a7.89 7.89 0 01-.515 1.368c-.12.273-.244.546-.352.83a2.097 2.097 0 00-.163 1.007c.124.535.435 1.009.878 1.335.294.27.488.46.49.625a1.016 1.016 0 01-.102.26 23.155 23.155 0 01-2.626 4.267c-.434.53-.89 1.147-.795 1.765.128.477.442.882.872 1.125z"/><path d="M7.163 8.933a7.904 7.904 0 011.647-2.7c.8-.846 2.182-1.47 4.11-1.853a.6.6 0 10-.233-1.177c-2.177.433-3.775 1.175-4.75 2.204a9.096 9.096 0 00-1.9 3.113c-.202.6-.367 1.21-.493 1.83l1.172.26a14.34 14.34 0 01.447-1.677zM19.715 3.36l-.36 1.795a7.147 7.147 0 00-1.01.42l-1.524-1.02a1.2 1.2 0 00-1.507.157l-.996.995a1.2 1.2 0 00-.158 1.521l1.015 1.516a7.15 7.15 0 00-.42 1.01l-1.793.36A1.2 1.2 0 0012 11.293v1.416a1.2 1.2 0 00.96 1.177l1.795.36c.114.347.254.684.42 1.01l-1.02 1.523a1.2 1.2 0 00.157 1.508l.995.996a1.204 1.204 0 001.52.157l1.517-1.015c.326.166.663.306 1.01.42l.36 1.793a1.2 1.2 0 001.178.963h1.416a1.2 1.2 0 001.176-.96l.36-1.795a7.155 7.155 0 001.01-.42l1.524 1.02a1.2 1.2 0 001.507-.157l.996-.995a1.2 1.2 0 00.158-1.521l-1.015-1.516c.165-.326.306-.664.42-1.01l1.793-.36a1.2 1.2 0 00.826-.626l.904.606a1.08 1.08 0 001.349-.15l.798-.798a1.09 1.09 0 00.14-1.364l-.774-1.158a5.63 5.63 0 00.29-.698l1.358-.27c.508-.1.874-.546.872-1.064V7.236a1.08 1.08 0 00-.867-1.063l-1.364-.271a5.557 5.557 0 00-.29-.698l.787-1.171c.272-.43.21-.99-.15-1.35l-.798-.797a1.089 1.089 0 00-1.365-.14l-1.158.774a5.644 5.644 0 00-.697-.29L29.827.872A1.08 1.08 0 0028.764 0h-1.128a1.08 1.08 0 00-1.063.867l-.272 1.364a5.553 5.553 0 00-.697.29l-1.172-.785a1.083 1.083 0 00-1.348.15l-.54.54a1.23 1.23 0 00-.236-.026h-1.416a1.2 1.2 0 00-1.177.96zm9.173 2.352l-.28-.28a2.387 2.387 0 01.745 4.504l-.91-.18a7.15 7.15 0 00-.42-1.01l1.02-1.524a1.2 1.2 0 00-.155-1.508v-.002zm-5.022-2.914l1.372.922a.6.6 0 00.64.017 4.39 4.39 0 011.098-.459.6.6 0 00.432-.462L27.73 1.2h.939l.322 1.62a.6.6 0 00.432.462 4.39 4.39 0 011.098.459.6.6 0 00.64-.021l1.372-.92.666.666-.92 1.372a.6.6 0 00-.017.64c.202.344.357.713.46 1.099a.6.6 0 00.461.432l1.62.322v.938l-1.617.322a.6.6 0 00-.462.432 4.389 4.389 0 01-.459 1.098.6.6 0 00.018.641l.92 1.372-.666.666-1.337-.895v-.613c0-.351-.154-.685-.42-.914A3.592 3.592 0 0028.278 4.2a3.472 3.472 0 00-1.068.175 1.217 1.217 0 00-.84.185l-1.515 1.015a7.147 7.147 0 00-1.01-.42l-.36-1.793a1.106 1.106 0 00-.041-.141l.422-.423zM20.46 5.746l.432-2.146h1.416l.431 2.148a.6.6 0 00.431.46 5.92 5.92 0 011.417.589.6.6 0 00.635-.02l1.816-1.215 1.005 1-1.218 1.818a.6.6 0 00-.02.634c.256.445.454.921.588 1.417a.6.6 0 00.46.431l2.147.43v1.416l-2.148.431a.6.6 0 00-.461.432 5.91 5.91 0 01-.588 1.416.6.6 0 00.02.635l1.215 1.816-1 1.005-1.818-1.218a.6.6 0 00-.635-.02 5.91 5.91 0 01-1.416.588.6.6 0 00-.432.46l-.43 2.147h-1.415l-.432-2.148a.6.6 0 00-.431-.46 5.91 5.91 0 01-1.417-.589.6.6 0 00-.634.02l-1.816 1.215-1.006-1 1.218-1.818a.6.6 0 00.02-.634 5.91 5.91 0 01-.587-1.417.6.6 0 00-.461-.431l-2.146-.43v-1.416l2.148-.431a.6.6 0 00.46-.432c.134-.496.332-.972.588-1.416a.6.6 0 00-.02-.635l-1.214-1.816 1-1.005 1.817 1.218a.6.6 0 00.635.02 5.917 5.917 0 011.417-.588.6.6 0 00.429-.46z"/><path d="M21.6 16.2a4.2 4.2 0 100-8.4 4.2 4.2 0 000 8.4zm0-7.2a3 3 0 110 6 3 3 0 010-6z"/><path d="M21.6 12.6a.6.6 0 100-1.2.6.6 0 000 1.2zm-16.2.6a.6.6 0 100-1.2.6.6 0 000 1.2z"/></g><defs><clipPath id="clip0"><path fill="#fff" d="M0 0h36v36H0z"/></clipPath></defs></svg>