<svg xmlns="http://www.w3.org/2000/svg" width="36" height="36" fill="none"><path fill="#041E42" d="M34.313 2.25H1.687a.563.563 0 00-.562.563v19.125a.562.562 0 00.563.562h9v6.782l-.018-.008-1.6-.686A2.788 2.788 0 009.562 27v-.563a2.812 2.812 0 10-5.624 0V27a2.79 2.79 0 00.492 1.588l-1.6.686a2.809 2.809 0 00-1.705 2.585v2.453a.562.562 0 00.563.563h30.375a.562.562 0 00.562-.563V31.86a2.81 2.81 0 00-1.705-2.586l-1.6-.685a2.788 2.788 0 00.492-1.588v-.563a2.812 2.812 0 10-5.625 0V27c0 .567.171 1.12.493 1.588l-1.6.686a2.808 2.808 0 00-1.142.898 2.808 2.808 0 00-1.143-.898l-1.6-.686A2.788 2.788 0 0019.687 27v-.563a2.81 2.81 0 00-1.125-2.248V22.5h15.75a.562.562 0 00.563-.563V2.813a.563.563 0 00-.563-.562zm-9 24.188a1.687 1.687 0 113.375 0V27a1.687 1.687 0 11-3.375 0v-.563zm-2.813 5.42a1.686 1.686 0 011.023-1.55l2.057-.882a2.802 2.802 0 002.84 0l2.057.881A1.685 1.685 0 0131.5 31.86v1.891h-1.125v-1.688a.562.562 0 10-1.125 0v1.688h-4.5v-1.688a.562.562 0 10-1.125 0v1.688H22.5V31.86zM2.25 21.376V20.25h5.63c.023.4.146.786.359 1.125H2.25zm8.016 0A1.267 1.267 0 019 20.109v-2.358h1.688v1.374a.562.562 0 00.562.563h2.813v1.687h-3.797zm3.969-14.063h2.078a.562.562 0 110 1.125h-2.25a.562.562 0 00-.469.251l-.656.985a1.54 1.54 0 01.488-2.132c.243-.15.523-.23.809-.229zm1.515 2.25v1.829a.422.422 0 01-.422.421h-.14a.562.562 0 00-.563.563v.563H13.5v-2.08l.864-1.296h1.386zm2.25 4.5a.562.562 0 00.33-.107l.725-.527 1.231 1.309-.744.637a.559.559 0 00-.417-.187H13.5a.562.562 0 00-.563.563v2.813h-1.124V17.19a.563.563 0 00-.563-.563H9v-.735a1.83 1.83 0 011.828-1.829H18zm9.563-5.295l-1.407 1.406-.61-.61 1.29-1.29a.564.564 0 00-.796-.796l-1.28 1.28a3.38 3.38 0 012.802-3.084v3.094zm.96.63A.564.564 0 0028.688 9V5.673a3.375 3.375 0 11-2.518 6.078l2.353-2.353zm-3.475 1.259l-3.906 3.348-1.17-1.243 4.158-3.023.918.918zm-7.61 13.026c-.182-.037-5.625-.057-5.625-.057V22.5h2.812a.562.562 0 00.563-.563v-1.125h2.25v2.87zm1.125 2.756V27a1.687 1.687 0 11-3.375 0v-.563a1.687 1.687 0 113.374 0zm-2.813-6.75h-.563v-.563a.562.562 0 00-.562-.563h-.563v-2.25h1.688v3.375zm-10.688 6.75a1.687 1.687 0 113.375 0V27a1.687 1.687 0 11-3.374 0v-.563zm6.188 7.312h-1.125v-1.688a.562.562 0 10-1.125 0v1.688H4.5v-1.688a.562.562 0 10-1.125 0v1.688H2.25V31.86a1.686 1.686 0 011.023-1.552l2.057-.881a2.804 2.804 0 002.84 0l2.057.881a1.686 1.686 0 011.023 1.552v1.891zm.563-3.578l-.003-.004a.578.578 0 00.002-.056V24.75h2.815a2.798 2.798 0 00-.565 1.688V27c0 .567.171 1.12.493 1.588l-1.6.686a2.808 2.808 0 00-1.143.898zm8.54.136a1.685 1.685 0 011.022 1.55v1.892H20.25v-1.688a.562.562 0 10-1.125 0v1.688h-4.5v-1.688a.562.562 0 10-1.125 0v1.688h-1.125V31.86a1.686 1.686 0 011.023-1.552l2.057-.881a2.802 2.802 0 002.84 0l2.057.882zm-3.478-10.62v-3.375h1.688v3.375h-1.688zm16.875 1.687H18.562v-.563h.563a.562.562 0 00.563-.562H33.75v1.125zm0-2.25H19.687v-2.393l5.251-4.5c.05.044.106.079.167.103a4.5 4.5 0 10-1.47-3.63l-5.818 4.232H15.75v-.058a1.55 1.55 0 001.125-1.488V9.466a1.688 1.688 0 00-.563-3.278h-2.077a2.647 2.647 0 00-2.38 1.47 2.668 2.668 0 00.165 2.667l.355.533v2.08h-1.547a2.957 2.957 0 00-2.953 2.953v3.234H2.25V3.375h31.5v15.75z"/><path fill="#041E42" d="M25.875 15.75h.563a.562.562 0 100-1.125h-.563a.562.562 0 100 1.125zm5.625-1.125h-2.813a.562.562 0 100 1.125H31.5a.562.562 0 100-1.125zm-1.125 2.25h-4.5a.562.562 0 100 1.125h4.5a.562.562 0 100-1.125z"/></svg>