<svg xmlns="http://www.w3.org/2000/svg" width="36" height="36" fill="none"><path fill="#041E42" d="M29.393 0h-4.279c-.288 0-.56.11-.768.308l-6.224 5.956a.176.176 0 01-.244 0L11.654.308A1.106 1.106 0 0010.886 0H6.607c-.573 0-1.04.467-1.04 1.04v8.796c0 .425-.185.827-.507 1.104l-.256.22a2.509 2.509 0 00-.875 1.905v1.53a.529.529 0 101.058 0v-1.53c0-.425.184-.826.506-1.103l.257-.22a2.51 2.51 0 00.875-1.906V1.058h1.058l9.452 9.288c.239.234.552.351.865.351.313 0 .626-.117.865-.351l9.452-9.288h1.058V3.63a.529.529 0 001.058 0V1.04A1.04 1.04 0 0029.393 0zm-11.27 9.591a.177.177 0 01-.247 0L9.192 1.058h1.553c.105 0 .204.04.28.112l6.122 5.858a1.232 1.232 0 001.706 0l6.122-5.858a.404.404 0 01.28-.112h1.553L18.123 9.59zm13.073 1.569l-.256-.22a1.453 1.453 0 01-.507-1.104V6.945a.529.529 0 00-1.058 0v2.891c0 .734.32 1.428.876 1.906l.256.22c.322.276.506.678.506 1.103V32.01H4.987V17.944a.529.529 0 00-1.058 0v14.242c0 .486.395.881.881.881h1.24v2.052c0 .486.395.881.88.881h22.14a.882.882 0 00.88-.881v-2.052h1.24a.882.882 0 00.881-.881V13.065c0-.733-.319-1.428-.875-1.905zm-4.489 23.782v-.665a.529.529 0 00-1.057 0v.665h-1.67v-.665a.529.529 0 10-1.057 0v.665h-1.67v-.665a.529.529 0 10-1.057 0v.665H18.53v-.665a.529.529 0 10-1.058 0v.665h-1.668v-.665a.529.529 0 10-1.058 0v.665h-1.669v-.665a.529.529 0 10-1.057 0v.665h-1.67v-.665a.529.529 0 00-1.058 0v.665H7.107v-1.875h21.786v1.875h-2.186z"/><path fill="#041E42" d="M27.463 11.61h-5.025a.788.788 0 00-.787.787v2.776a3.298 3.298 0 004.965 2.848 3.311 3.311 0 001.634-2.848v-2.776a.788.788 0 00-.787-.787zm-1.38 5.498a2.245 2.245 0 01-2.264 0 2.25 2.25 0 01-1.11-1.935v-2.506h4.484v2.506a2.25 2.25 0 01-1.11 1.935z"/></svg>