<svg xmlns="http://www.w3.org/2000/svg" width="35" height="35" fill="none"><path fill="#041E42" d="M34.397 16.378h-7.719v-1.49a.603.603 0 00-.307-.526l-8.268-4.646V7.35h1.636v.9c0 .332.27.603.603.603h4.93a.603.603 0 00.568-.809l-.495-1.406.5-1.376a.603.603 0 00-.567-.809h-2.244v-.875a.603.603 0 00-.604-.603h-4.327v-.736a.603.603 0 10-1.206 0v7.477l-8.268 4.64a.603.603 0 00-.307.525v1.49H.603a.603.603 0 00-.603.604v15.786c0 .333.27.604.603.604h33.794c.333 0 .603-.27.603-.604v-15.78a.603.603 0 00-.603-.603zM23.034 6.747l-.024-.025V5.685h1.375l-.247.772a.603.603 0 000 .416l.284.773h-3.476V7.35h1.484c.333 0 .604-.27.604-.603zm-4.93-2.565h3.723v1.961h-3.724V4.182zM8.321 32.158H1.207V17.584h7.115v14.574zm8.575 0h-3.169v-6.892h3.169v6.892zm4.375 0h-3.169v-6.892h3.169v6.892zm4.224 0h-3.018v-7.495a.603.603 0 00-.603-.604h-8.75a.603.603 0 00-.603.604v7.495H9.504V15.26l7.996-4.5 7.972 4.478.024 1.738v15.183zm8.297 0h-7.115V17.584h7.115v14.574z"/><path fill="#041E42" d="M17.5 12.606a2.528 2.528 0 100 5.057 2.528 2.528 0 000-5.057zm0 3.85a1.322 1.322 0 010-2.643c.73.003 1.321.597 1.321 1.328h.006a1.322 1.322 0 01-1.327 1.315zM3.868 18.912H2.661v2.414h1.207v-2.414zm2.975 0H5.636v2.414h1.207v-2.414zm6.909 0H11.34v1.207h2.413v-1.207zm4.955 0h-2.414v1.207h2.414v-1.207zm4.954 0h-2.414v1.207h2.414v-1.207zm-9.909 2.812H11.34v1.207h2.413v-1.207zm4.955 0h-2.414v1.207h2.414v-1.207zm4.954 0h-2.414v1.207h2.414v-1.207zM3.868 23.661H2.661v2.414h1.207v-2.414zm2.975 0H5.636v2.414h1.207v-2.414zm-2.975 4.755H2.661v2.414h1.207v-2.414zm2.975 0H5.636v2.414h1.207v-2.414zm22.521-9.504h-1.207v2.414h1.207v-2.414zm2.975 0h-1.207v2.414h1.207v-2.414zm-2.975 4.749h-1.207v2.414h1.207v-2.414zm2.975 0h-1.207v2.414h1.207v-2.414zm-2.975 4.755h-1.207v2.414h1.207v-2.414zm2.975 0h-1.207v2.414h1.207v-2.414z"/></svg>