<svg width="289" height="439" viewBox="0 0 289 439" fill="none" xmlns="http://www.w3.org/2000/svg">
<path d="M92.9807 305.323H159.599L158.946 304.729C150.455 298.187 146.537 288.077 146.537 277.967V228.011H209.236V278.561C209.236 289.266 205.318 298.781 196.827 305.323H263.445L262.792 304.729C254.302 298.187 250.383 288.077 250.383 277.967V162.593C250.383 152.483 254.302 142.373 262.792 135.832L263.445 135.237H196.827C205.318 141.779 209.236 151.889 209.236 162.593V213.144H146.537V163.188C146.537 153.078 150.455 142.968 158.946 136.426L159.599 135.832H92.9807C97.5526 139.4 100.818 143.563 102.778 147.726C104.737 152.483 106.043 157.241 106.043 162.593V278.561C105.39 288.671 101.471 298.781 92.9807 305.323ZM222.952 148.321H237.321V292.24H222.952V148.321ZM119.106 148.321H133.474V292.24H119.106V148.321Z" fill="#C49A6C" fill-opacity="0.07"/>
<path d="M178.172 0L29.4771 77.82V108.71L0 124.156V347.517L178.172 439L327.523 362.962V332.072L357 316.626V93.2652L178.172 0ZM343.899 309.498L328.178 317.815V108.71L178.172 30.2963L55.6789 95.0474V109.304L178.172 45.1475L313.767 116.433V356.428L178.172 424.743L13.1009 340.388V131.284L28.822 122.968V332.072L178.172 410.486L300.666 346.329V332.072L178.172 396.229L42.578 324.943V84.9486L178.172 13.6631L343.244 100.394V309.498H343.899Z" fill="#C49A6C" fill-opacity="0.07"/>
</svg>
