<svg fill="none" height="37" viewBox="0 0 37 37" width="37" xmlns="http://www.w3.org/2000/svg"><g stroke="#041e42"><path d="m13.2126 9.97448.0004.00014c.3982.14658.8192.30148 1.1996.41928.3666.1135.7534.2117 1.067.2117.1332 0 .2746-.029.3944-.0597.1276-.0326.2673-.0771.4084-.126.272-.0942.5775-.2152.8542-.3248l.0292-.0115.0008-.0004c1.232-.49041 2.6743-1.05903 4.3426-1.05903h.0001.0001.0001.0001.0001.0001.0001.0001.0001.0001.0001.0001.0001.0001.0001.0001.0001.0001.0001.0001.0001.0001.0001.0001.0001.0001.0001.0001.0001.0001.0001.0001.0001.0001.0001.0001.0001.0001.0001.0001.0001.0001.0001.0001.0001.0001.0001.0001.0001.0001.0001.0001.0001.0001.0001.0001.0001.0001.0001.0001.0001.0001.0001.0001.0001.0001.0001.0001.0001.0001.0001.0001.0001.0001.0001.0001.0001.0001.0001.0001.0001.0001.0001.0001.0001.0001.0001.0001.0001.0001.0001.0001.0001.0001.0001.0001.0001.0001.0001.0001.0001.0001.0001.0001.0001.0001c1.2864 0 5.0777.28758 7.3494 3.69903.0001 0 .0001.0001.0001.0001l.3052.4587-.4389.3312-.0168.0127c-1.1704.883-3.4711 2.6188-3.4711 6.0424 0 1.9985.6434 3.4106 1.4595 4.4152.8008.9859 1.7523 1.5583 2.3325 1.9074l.0124.0074.2578-.4284-.2578.4284c.5428.3266.7825.5076.7956.8565-.0042.0179-.0111.0445-.0216.0807-.0241.0836-.0621.2014-.1146.3501-.1046.2966-.2617.7022-.4678 1.1799-.4126.9561-1.0159 2.1881-1.7777 3.4031-.7638 1.2182-1.6745 2.3995-2.6963 3.2711-1.0224.8722-2.119 1.4041-3.2679 1.4041-1.1723 0-1.9971-.3475-2.7916-.6852 0-.0001-.0001-.0001-.0001-.0001l-.008-.0034c-.8155-.3469-1.591-.6769-2.8468-.6769-.3635 0-.7483.0847-1.1211.1956-.3746.1114-.771.26-1.1576.4049l-.0017.0006c0 .0001-.0001.0001-.0002.0001-1.0784.4025-2.2073.8204-3.477.8204h-.0343c-1.20034-.0073-2.40072-.6263-3.55155-1.7257-1.14838-1.0971-2.20384-2.6329-3.10195-4.368-1.80052-3.4785-2.9099-7.641-2.9099-10.4038 0-4.5334 1.692-7.2362 3.65873-8.8164 1.99041-1.59937 4.30495-2.08238 5.56006-2.08238 1.11241 0 2.32611.4401 3.49381.87096z"/><path d="m17.5036 2.91995c1.1717-1.31268 2.6832-2.207047 4.0609-2.386662-.1138 4.199092-3.0374 7.002882-5.9441 7.092352-.091-1.64481.6756-3.35279 1.8832-4.70569z"/></g></svg>