<svg fill="none" height="39" viewBox="0 0 43 39" width="43" xmlns="http://www.w3.org/2000/svg" xmlns:xlink="http://www.w3.org/1999/xlink"><clipPath id="a"><path d="m.078125 0h42v38.9358h-42z"/></clipPath><g clip-path="url(#a)" fill="#041e42"><path d="m42.0781 21.6071c0-1.2879-.7602-2.4483-1.984-3.0284-1.2479-.5916-2.8638-.8917-4.8026-.8917h-21.0759c-.1517-.702-.488-1.3399-.9924-1.8597l-2.9888-3.0801c-.73958-.7622-1.80238-1.225-2.99249-1.303l-.53689-.0352c-.27489-.0184-.5542.0176-.82228.1009v-1.62819c0-.57035-.25914-1.08541-.6734-1.45036.42009-.46677.6734-1.06693.6734-1.72093 0-1.48359-1.302-2.69052-2.90227-2.69052-1.60026 0-2.902345 1.20701-2.902345 2.6906 0 .65407.253312 1.25416.673395 1.72093-.414258.36502-.673395.88001-.673395 1.45036v24.27331c0 .42.367254.7605.820313.7605h2.831312c.42311 0 .77683-.2983.8167-.6889.0977-.9576.64394-3.5876 1.9973-4.767h2.19655c.45306 0 .82031-.3406.82031-.7605s-.36725-.7605-.82031-.7605l-7.02163-.0001v-6.6948l10.94923-.0002v1.9817c0 1.1725 1.0289 2.1264 2.2937 2.1264h.0002 24.8227c.2201 0 .4419-.0297.6529-.0878v2.6748h-4.5204c-.0007 0-.0013.0001-.002.0001h-19.9568c-.453 0-.8203.3405-.8203.7605 0 .4199.3673.7604.8203.7604h19.6543c1.348 1.1762 1.8978 3.8087 1.9974 4.7671.0398.3906.3935.6889.8167.6889h2.8312c.4531 0 .8203-.3406.8203-.7605zm-36.19339-7.6107c.01222-.324-.03569-.6588.25233-.8971.28973-.2397.6373-.1611.98905-.138.77503.0509 1.42808.3285 1.88852.8031l2.98879 3.0802c.4845.4992.7169 1.195.6543 1.959-.024.2942-.0183.555-.2857.7625-.2444.1896-.5096.1543-.8038.1461-.8262-.0229-1.548-.3105-2.03245-.8098l-2.9888-3.0801c-.48341-.4983-.68718-1.1643-.66224-1.8259zm-4.16596 5.7264v-9.84101c0-.2651.23264-.48077.5186-.48077h1.486c.28596 0 .5186.21567.5186.48077v9.84091h-2.5232zm4.16391-2.3111 2.24257 2.3111h-2.24257zm-2.90227-11.8708c.69563 0 1.26164.52465 1.26164 1.1696s-.56593 1.16959-1.26164 1.16959-1.26164-.52464-1.26164-1.16959.56593-1.1696 1.26164-1.1696zm.03462 27.8539h-1.29626v-3.935h2.75067c-.88774 1.3472-1.2892 3.0137-1.45441 3.935zm11.94669-9.564c-.36 0-.653-.2715-.653-.6053l-.0003-4.0175h20.9831c1.6766 0 3.0412.2439 4.0556.7248.6726.3188 1.0904.9603 1.0904 1.6743v1.6155c0 .001-.0002.002-.0002.003 0 .3338-.2929.6053-.6529.6053h-24.8227zm24.1796 9.564c-.1653-.9213-.5667-2.5878-1.4544-3.935h2.7506v3.935z"/><path d="m13.1072 28.4084c-.1697-.3835-.6595-.5691-1.0713-.4113-.4133.1582-.6148.6102-.4438.9931.171.3828.6585.57 1.0714.4114.412-.1582.6153-.6112.4437-.9932z"/></g></svg>