<svg fill="none" height="31" viewBox="0 0 36 31" width="36" xmlns="http://www.w3.org/2000/svg"><g fill="#041e42"><path d="m18 0h-7.8c-.33135 0-.6.231339-.6.516667v3.616663h-9c-.331348 0-.6.23134-.6.51667v25.8333c0 .2854.268652.5167.6.5167h17.4c.3313 0 .6-.2313.6-.5167v-29.966633c0-.285328-.2687-.516667-.6-.516667zm-.6 26.8667h-6.6v-1.0334h6.6zm-16.2-19.1167h8.4v15.5h-8.4zm16.2-2.06667h-6.6v-1.55h6.6zm-16.2 18.59997h8.4v1.55h-8.4zm9.6.5167v-18.08333h6.6v18.08333zm6.6-23.76667v2.06667h-6.6v-2.06667zm-7.8 4.13334v1.55h-8.4v-1.55zm-8.4 21.70003h8.4v3.1h-8.4zm9.6 3.1v-2.0667h6.6v2.0667z"/><path d="m35.9807 28.2864-7.2-23.7667c-.0401-.1332-.1403-.24698-.2786-.31636-.138-.06912-.3023-.08804-.4567-.05247l-9.0001 2.06666c-.3187.07316-.5091.3542-.4259.62919l7.2 23.76668c.0401.1332.1406.247.2789.3161.138.0689.3023.0875.4564.0517l9-2.0667c.3182-.0731.5083-.3537.426-.6281zm-15.0935-18.0473 7.8408-1.8.2821.9299-7.8401 1.8028zm8.4258.1325 3.4799 11.4945-7.8378 1.8008-3.4799-11.4953zm3.7855 12.4948.6143 2.0276-7.8407 1.8-.612-2.0268zm-5.3268-17.58356.6533 2.15698-7.8407 1.79951-.6527-2.15598zm-.9433 24.56736-.6534-2.1569 7.8408-1.8006.6527 2.156z"/><path d="m7.80015 9.30005h-4.8c-.33135 0-.6.23134-.6.51667v4.13328c0 .2854.26865.5167.6.5167h4.8c.33134 0 .6-.2313.6-.5167v-4.13328c0-.28533-.26866-.51667-.6-.51667zm-.6 4.13335h-3.6v-3.1h3.6z"/></g></svg>