<svg fill="none" height="38" viewBox="0 0 42 38" width="42" xmlns="http://www.w3.org/2000/svg" xmlns:xlink="http://www.w3.org/1999/xlink"><clipPath id="a"><path d="m0 .956055h42v37h-42z"/></clipPath><g clip-path="url(#a)"><path d="m9.60848 33.6201c-.33985 0-.61523.2426-.61523.542v3.252c0 .2994.27538.542.61523.542.33986 0 .61522-.2426.61522-.542v-3.252c0-.2994-.27545-.542-.61522-.542zm8.09302 1.8067c-.3398 0-.6152.2426-.6152.542 0 .2993.2754.5419.6152.5419s.6153-.2426.6153-.5419c0-.2994-.2755-.542-.6153-.542zm3.6914 0c-.3397 0-.6152.2426-.6152.542 0 .2993.2755.5419.6152.5419.3398 0 .6153-.2426.6153-.5419 0-.2994-.2755-.542-.6153-.542zm-3.6914-3.252c-.3398 0-.6152.2427-.6152.542s.2754.542.6152.542.6153-.2427.6153-.542-.2755-.542-.6153-.542zm3.6914 0c-.3397 0-.6152.2427-.6152.542s.2755.542.6152.542c.3398 0 .6153-.2427.6153-.542s-.2755-.542-.6153-.542zm15.9206-13.333h-7.3828c-1.0177 0-1.8458.7294-1.8458 1.626v5.2031c0 .8965.8281 1.626 1.8458 1.626h.7382c.3393 0 .6153.2431.6153.542v.9365c-.3894-.227-.8122-.4101-1.2583-.5426l-6.9234-2.0523c-.4698-.1395-.7018-.5309-.667-.9484 2.3703-1.224 4.0101-3.4323 4.1904-5.9834 1.1514-.0277 2.0787-.8609 2.0787-1.8819 0-1.0159-.918-1.846-2.0615-1.8815.0011-.1062.0069-.9192-.0074-1.006-.0893-.5442-.2113-1.3432-.317-2.147-.1044-.7945-.2124-1.6156-.3206-2.1718 1.361-.93574 2.0624-2.39847 1.8772-3.91836-.0654-.53737-.2431-1.05342-.5281-1.53413-.1574-.26536-.5292-.36797-.8302-.22944-.3011.13861-.4178.46597-.2604.73133.2133.35981.3463.74592.3952 1.14787.1402 1.15061-.3938 2.25714-1.4283 2.96007-.3484.2366-.5179.62177-.4424 1.00526.1039.5261.2114 1.3435.3154 2.1339.0662.5035.1338 1.0177.202 1.4683-2.2732-.2548-4.5788-.3889-6.8654-.3986-2.4752-.0097-4.97.124-7.429.4004l.5142-3.4853c.0724-.3958-.1206-.79674-.4943-1.02489-1.06082-.64735-1.65932-1.71182-1.60099-2.84755.08482-1.65329 1.62149-3.02323 3.49819-3.11877.3723-.01886.7435.01091 1.1029.08867.4379.09453.8924-.0357 1.1854-.34015.7091-.73653 1.7432-1.15907 2.8371-1.15907s2.128.42254 2.8372 1.15914c.2929.30438.7469.43475 1.1854.34015.4391-.09488.8921-.11815 1.3467-.0693.3746.04033.7388.13102 1.0825.26955.3092.12459.674.00492.8154-.26724.1415-.27222.0056-.5938-.3034-.71832-.4589-.18507-.9451-.30611-1.4453-.35988-.5927-.06395-1.1849-.03483-1.7601.08621-.9428-.96901-2.3111-1.524295-3.7584-1.524295s-2.8155.555215-3.7584 1.524295c-.4696-.09886-.9533-.1368-1.4379-.11179-1.2177.06193-2.3645.52067-3.22943 1.29167-.86519.77122-1.37197 1.78699-1.42702 2.86028-.07711 1.50197.70949 2.91042 2.10545 3.77289-.0086.0431-.62085 4.2028-.62273 4.2435-.00107.0239-.00214.9237-.00123.9484-1.14352.0355-2.06153.8656-2.06153 1.8815 0 1.0209.92712 1.854 2.07842 1.8819.05513.7869.24872 1.5542.57877 2.2864.1268.2816.4895.4119.7987.3038.3159-.1103.4702-.4255.3449-.7036-.3376-.7494-.5088-1.5421-.5088-2.356v-3.7458c2.4878-.29 5.0145-.4331 7.5214-.4228 2.3274.0099 4.6744.1531 6.9854.4226v3.746c0 3.5234-3.2538 6.3899-7.2534 6.3899-2.0216 0-3.9668-.7518-5.3371-2.0626-.2302-.2202-.6195-.2344-.8694-.0316-.25.2028-.266.5457-.0358.7659.6365.6089 1.3793 1.1141 2.1915 1.5026v.0195c0 .3708-.2681.6993-.6671.8175l-6.92351 2.0524c-2.1995.6523-3.67721 2.4642-3.67721 4.5085v4.6727c0 .2994.27538.542.61523.542.33986 0 .61523-.2426.61523-.542v-4.6727c0-1.5785 1.14106-2.9774 2.83927-3.4812l5.80479-1.7207 2.9324 2.0015c-1.0847.564-1.7696 1.6039-1.7696 2.7262v5.1469c0 .2994.2754.542.6152.542.3399 0 .6152-.2426.6152-.542v-5.147c0-.8035.5337-1.5431 1.3596-1.8839l7.0867-2.925 6.0783 1.8018c.6256.186 1.1916.501 1.6511.9146v.8956h-.0051c-.863 0-1.5652.6186-1.5652 1.3789v4.128c0 .7603.7022 1.379 1.5652 1.379h3.3845c1.5807 0 2.8666-1.133 2.8666-2.5255v-1.835c0-.9816-.6394-1.8337-1.5703-2.2513v-3.5054c0-.2989.276-.542.6152-.542h.7383c1.0177 0 1.8457-.7295 1.8457-1.626v-5.2031c.0003-.8966-.8278-1.626-1.8454-1.626zm-10.6704-2.2715c.4647.0342.831.3784.831.7965s-.3663.7622-.831.7964zm-16.96785 1.5929c-.4647-.0342-.83105-.3784-.83105-.7965s.36635-.7622.83105-.7964zm7.20955 10.8509-2.7877-1.9027c.6004-.2574 1.0331-.7382 1.1833-1.3043.9156.2915 1.8893.446 2.8789.446 1.0894 0 2.1313-.1823 3.089-.5133.1019.4558.3848.8611.7924 1.1462zm19.415 4.5815v1.835c0 .7948-.734 1.4415-1.6362 1.4415h-3.3844c-.1846 0-.3348-.1323-.3348-.295v-4.128c0-.1626.1502-.295.3348-.295h3.3844c.9021 0 1.6362.6467 1.6362 1.4415zm1.6289-7.9247c0 .2989-.276.542-.6152.542h-.7383c-1.0177 0-1.8457.7294-1.8457 1.626v3.2327c-.0594-.0023-2.1499-.0012-2.2149-.0015v-3.2312c0-.8966-.828-1.626-1.8457-1.626h-.7382c-.3393 0-.6153-.2431-.6153-.542v-5.2031c0-.2989.276-.542.6153-.542h7.3828c.3392 0 .6152.2431.6152.542zm-20.4973-17.44319v2.59849c0 .2994.2754.542.6152.542.3399 0 .6153-.2426.6153-.542v-2.59849c0-.2994-.2754-.54199-.6153-.54199-.3398 0-.6152.24259-.6152.54199zm3.7278-.20812-1.2268 2.59851c-.1306.2764.018.5936.3318.7086.3066.1124.6725-.0125.8043-.2923l1.2268-2.59856c.1306-.27635-.018-.59359-.3318-.70857-.3137-.11497-.6738.0159-.8043.29232zm1.2042 10.46401v-1.1186c0-.2994-.2754-.542-.6153-.542-.3398 0-.6152.2426-.6152.542v1.1186c0 .2994.2754.542.6152.542.3399 0 .6153-.2426.6153-.542zm8.7977 2.5262c-.3398 0-.6152.2426-.6152.542v3.0351c0 .2994.2754.542.6152.542.3399 0 .6153-.2426.6153-.542v-3.0351c0-.2994-.2754-.542-.6153-.542zm-17.0315-13.28253c-.3137.11498-.4623.43215-.3318.70857l1.2269 2.59856c.1317.2798.4969.4049.8043.2923.3138-.115.4623-.4322.3318-.7086l-1.2269-2.59851c-.1305-.27642-.4906-.40722-.8043-.29232zm19.4925 13.28253c-.3399 0-.6153.2426-.6153.542v3.0351c0 .2994.2754.542.6153.542.3398 0 .6152-.2426.6152-.542v-3.0351c0-.2994-.2754-.542-.6152-.542zm2.4609 0c-.3399 0-.6152.2426-.6152.542v3.0351c0 .2994.2753.542.6152.542s.6152-.2426.6152-.542v-3.0351c0-.2994-.2753-.542-.6152-.542zm-17.833 1.1811c.6237-.0196 1.092-.2347 1.3749-.4117.2771-.1733.3422-.5117.1454-.7557-.1965-.244-.5807-.3015-.8578-.1281-.1195.0747-.3702.2017-.7067.2123-.3823.012-.6648-.1281-.8005-.2127-.2774-.1731-.6613-.1152-.8576.129-.1965.2443-.1309.5826.1464.7555.2346.1464.8824.4327 1.5559.4114zm-3.0645-3.7073v-1.1186c0-.2994-.2754-.542-.6153-.542-.3398 0-.6152.2426-.6152.542v1.1186c0 .2994.2754.542.6152.542.3399 0 .6153-.2426.6153-.542z" fill="#041e42"/></g></svg>