<svg fill="none" height="36" viewBox="0 0 36 36" width="36" xmlns="http://www.w3.org/2000/svg"><g fill="#041e42"><path d="m3.9375 18.5637h28.125c.0739.0001.147-.0145.2153-.0427.0683-.0283.1303-.0697.1825-.1219.0523-.0523.0937-.1143.122-.1826.0282-.0682.0427-.1414.0427-.2153v-2.25c0-.0739-.0145-.147-.0427-.2153-.0283-.0683-.0697-.1303-.122-.1825-.0522-.0523-.1142-.0937-.1825-.1219-.0683-.0283-.1414-.0428-.2153-.0428h-1.125v-13.49998c0-.07388-.0145-.14704-.0427-.21531-.0283-.06826-.0697-.13029-.122-.18253-.0522-.05224-.1142-.09368-.1825-.12193s-.1414-.04277-.2153-.04273h-24.75c-.07388-.00004-.14705.01448-.21531.04273s-.13029.06969-.18253.12193-.09368.11427-.12193.18253c-.02825.06827-.04277.14143-.04273.21531v13.49998h-1.125c-.07388 0-.14704.0145-.21531.0428-.06826.0282-.13029.0696-.18253.1219-.05224.0522-.09368.1142-.12193.1825s-.04277.1414-.04273.2153v2.25c-.00004.0739.01448.1471.04273.2153.02825.0683.06969.1303.12193.1826.05224.0522.11427.0936.18253.1219.06827.0282.14143.0428.21531.0427zm2.25-16.31248h23.625v12.93748h-14.625v-2.25c0-.0739-.0145-.147-.0427-.2153-.0283-.0683-.0697-.1303-.122-.1825-.0522-.0523-.1142-.0937-.1825-.1219-.0683-.0283-.1414-.0428-.2153-.0428h-4.5c-.0739 0-.14705.0145-.21531.0428-.06827.0282-.13029.0696-.18253.1219-.05224.0522-.09368.1142-.12193.1825s-.04277.1414-.04273.2153v2.25h-3.375zm7.875 12.93748h-3.375v-1.6875h3.375zm-9.5625 1.125h27v1.125h-27z"/><path d="m13.5 21.9375h-2.25v1.1262h2.25z"/><path d="m24.75 21.9375h-2.25v1.1262h2.25z"/><path d="m33.1875 20.8125h-5.9939l-.2172-.724c-.0348-.1159-.106-.2174-.2031-.2897-.0971-.0722-.2148-.1112-.3358-.1113h-5.625c-.121.0001-.2387.0391-.3358.1113-.0971.0723-.1683.1738-.2031.2897l-.2172.724h-4.1128l-.2172-.724c-.0348-.1159-.106-.2174-.2031-.2897-.0971-.0722-.2148-.1112-.3358-.1113h-5.625c-.12099.0001-.23874.0391-.3358.1113-.09706.0723-.16827.1738-.20308.2897l-.21719.724h-5.99393c-.07388 0-.14704.0145-.21531.0427-.06826.0283-.13029.0697-.18253.122-.05224.0522-.09368.1142-.12193.1825s-.04277.1414-.04273.2153v2.25c-.00004.0739.01448.147.04273.2153s.06969.1303.12193.1825c.05224.0523.11427.0937.18253.122.06827.0282.14143.0427.21531.0427h.5625v10.125c-.00004.0739.01448.147.04273.2153s.06969.1303.12193.1825c.05224.0523.11427.0937.18253.122.06827.0282.14143.0427.21531.0427h1.125c.13899 0 .27307-.0514.37634-.1445.10327-.093.16842-.221.18286-.3592l1.07199-10.1838h1.10022l-.45779 1.526c-.01556.0524-.02351.1068-.02362.1615v1.6875c.00123.3557.11504.7018.32511.9888s.50562.5002.84428.6089l.52086 5.2083c.01391.1388.07889.2675.18232.3611s.23794.1454.37743.1454h1.125c.1395 0 .274-.0518.3774-.1454.1035-.0936.1684-.2223.1824-.3611l.5118-5.1185h1.2318l.5118 5.1185c.014.1388.0789.2675.1824.3611.1034.0936.2379.1454.3774.1454h1.125c.1395 0 .274-.0518.3774-.1454.1035-.0936.1684-.2223.1824-.3611l.5208-5.2083c.3386-.1087.6342-.3218.8443-.6089.2101-.287.3239-.6331.3251-.9888v-1.6875c-.0001-.0547-.0081-.1091-.0236-.1615l-.4578-1.526h2.0878l-.4578 1.526c-.0155.0524-.0235.1068-.0236.1615v1.6875c.0012.3557.115.7018.3251.9888s.5056.5002.8443.6089l.5208 5.2083c.014.1388.0789.2675.1824.3611.1034.0936.2379.1454.3774.1454h1.125c.1395 0 .274-.0518.3774-.1454.1035-.0936.1684-.2223.1824-.3611l.5118-5.1185h1.2318l.5118 5.1185c.014.1388.0789.2675.1824.3611.1034.0936.2379.1454.3774.1454h1.125c.1395 0 .274-.0518.3774-.1454.1035-.0936.1684-.2223.1824-.3611l.5208-5.2083c.3386-.1087.6342-.3218.8443-.6089.2101-.287.3239-.6331.3251-.9888v-1.6875c-.0001-.0547-.0081-.1091-.0236-.1615l-.4578-1.526h1.1002l1.072 10.1838c.0144.1382.0796.2662.1829.3592.1032.0931.2373.1445.3763.1445h1.125c.0739 0 .147-.0145.2153-.0427.0683-.0283.1303-.0697.1825-.122.0523-.0522.0937-.1142.122-.1825.0282-.0683.0427-.1414.0427-.2153v-10.125h.5625c.0739 0 .147-.0145.2153-.0427.0683-.0283.1303-.0697.1825-.122.0523-.0522.0937-.1142.122-.1825.0282-.0683.0427-.1414.0427-.2153v-2.25c0-.0739-.0145-.147-.0427-.2153-.0283-.0683-.0697-.1303-.122-.1825-.0522-.0523-.1142-.0937-.1825-.122-.0683-.0282-.1414-.0427-.2153-.0427zm-28.63147 12.9375h-.05603v-9.5625h1.06289zm-1.18103-10.6875v-1.125h5.09391l-.33748 1.125zm6.8033 10.6875h-.1066l-.45008-4.5h1.00678zm4.3934 0-.4501-4.5h1.0068l-.4501 4.5zm1.7408-6.1875c-.0001.1492-.0594.2922-.1649.3976-.1054.1055-.2484.1648-.3976.1649h-6.75c-.14915-.0001-.29217-.0594-.39764-.1649-.10546-.1054-.16476-.2484-.16486-.3976v-1.6051l1.54358-5.1449h4.78782l1.5436 5.1449zm.3061-4.5-.3375-1.125h3.4378l-.3375 1.125zm4.8097 10.6875h-.1066l-.4501-4.5h1.0068zm4.3934 0-.4501-4.5h1.0068l-.4501 4.5zm1.7408-6.1875c-.0001.1492-.0594.2922-.1649.3976-.1054.1055-.2484.1648-.3976.1649h-6.75c-.1492-.0001-.2922-.0594-.3976-.1649-.1055-.1054-.1648-.2484-.1649-.3976v-1.6051l1.5436-5.1449h4.7878l1.5436 5.1449zm3.9375 6.1875h-.056l-1.0069-9.5625h1.0629zm1.125-10.6875h-4.7564l-.3375-1.125h5.0939z"/></g></svg>