<svg fill="none" height="34" viewBox="0 0 42 34" width="42" xmlns="http://www.w3.org/2000/svg"><g fill="#041e42"><path d="m26.2497 23.2051h-1.4997c-.4142 0-.75.2809-.75.6274s.3358.6275.75.6275h1.4997c.4142 0 .7501-.281.7501-.6275s-.3359-.6274-.7501-.6274z"/><path d="m37.125 11.9163c-.1263 0-.2511.0053-.375.0133v-7.53938c0-2.42081-2.3552-4.39022-5.25-4.39022h-21c-2.89481 0-5.25 1.96941-5.25 4.39022v7.53938c-.12394-.008-.24872-.0133-.375-.0133-2.68809 0-4.875 1.8288-4.875 4.0766 0 1.4062.851156 2.6894 2.25 3.435v8.2723c0 .028.003.0556.00731.0827.11625 1.6422 1.75013 2.9486 3.74269 2.9486v.6272c0 1.0374 1.00931 1.8815 2.25 1.8815s2.25-.8441 2.25-1.8815v-.6272h21v.6272c0 1.0374 1.0093 1.8815 2.25 1.8815s2.25-.8441 2.25-1.8815v-.6272c1.9926 0 3.6264-1.3064 3.7427-2.9486.0043-.0271.0073-.0547.0073-.0827v-8.2723c1.3988-.7457 2.25-2.0289 2.25-3.435 0-2.2478-2.1869-4.0766-4.875-4.0766zm-30.375-7.52608c0-1.72912 1.68225-3.13587 3.75-3.13587h21c2.0677 0 3.75 1.40675 3.75 3.13587v7.84008c-1.76.6156-3 2.0701-3 3.7626v2.8241c-.6272-.3947-1.4064-.6289-2.25-.6289h-18c-.8436 0-1.6228.2342-2.25.6289v-2.8241c0-1.6925-1.24003-3.147-3-3.7626zm2.25 26.96848c0 .3458-.33647.6272-.75.6272s-.75-.2814-.75-.6272v-.6272h1.5zm25.5 0c0 .3458-.3365.6272-.75.6272s-.75-.2814-.75-.6272v-.6272h1.5zm4.1586-12.852c-.2508.1072-.4086.3229-.4086.5584v8.5306c0 1.0374-1.0093 1.8815-2.25 1.8815h-30c-1.24069 0-2.25-.8441-2.25-1.8815v-8.5305c0-.2355-.15778-.4512-.40856-.5585-1.13588-.4857-1.84144-1.4489-1.84144-2.5138 0-1.5562 1.51397-2.8222 3.375-2.8222s3.375 1.266 3.375 2.8222v5.3311.0001c.00009 1.729 1.68225 3.1356 3.75 3.1356h9.7498c.4142 0 .75-.2808.75-.6272 0-.3463-.3358-.6271-.75-.6271h-9.7498c-1.2406 0-2.25-.8441-2.25-1.8815s1.0094-1.8815 2.25-1.8815h18c1.2406 0 2.25.8441 2.25 1.8815s-1.0094 1.8815-2.25 1.8815h-.75c-.4142 0-.75.2808-.75.6271 0 .3464.3358.6272.75.6272h.75c2.0677 0 3.7499-1.4066 3.75-3.1356v-.0001-5.3311c0-1.5562 1.514-2.8222 3.375-2.8222s3.375 1.266 3.375 2.8222c0 1.0649-.7056 2.0281-1.8414 2.5138z"/></g></svg>