<svg width="26" height="26" viewBox="0 0 26 26" fill="none" xmlns="http://www.w3.org/2000/svg">
<path d="M9.14062 5.58594C9.14062 4.1859 8.0016 3.04688 6.60156 3.04688C5.20152 3.04688 4.0625 4.1859 4.0625 5.58594C4.0625 6.98598 5.20152 8.125 6.60156 8.125C8.0016 8.125 9.14062 6.98598 9.14062 5.58594ZM6.60156 7.10938C5.76154 7.10938 5.07812 6.42596 5.07812 5.58594C5.07812 4.74591 5.76154 4.0625 6.60156 4.0625C7.44159 4.0625 8.125 4.74591 8.125 5.58594C8.125 6.42596 7.44159 7.10938 6.60156 7.10938Z" fill="#13377D"/>
<path d="M6.60156 13.2031C10.2861 13.2031 13.2031 10.1994 13.2031 6.60156C13.2031 2.96146 10.2417 0 6.60156 0C2.96141 0 0 2.96146 0 6.60156C0 10.1991 2.91652 13.2031 6.60156 13.2031ZM4.06504 11.5787C4.11831 10.2254 5.23534 9.14062 6.60156 9.14062C7.96778 9.14062 9.08482 10.2254 9.13809 11.5787C8.35707 11.9774 7.48632 12.1875 6.60156 12.1875C5.7168 12.1875 4.84606 11.9774 4.06504 11.5787ZM6.60156 1.01562C9.68165 1.01562 12.1875 3.52148 12.1875 6.60156C12.1875 8.30817 11.3981 9.91565 10.0844 10.9672C9.75361 9.34746 8.31766 8.125 6.60156 8.125C4.88546 8.125 3.44952 9.34746 3.11868 10.9672C1.80507 9.9157 1.01562 8.30822 1.01562 6.60156C1.01562 3.52148 3.52148 1.01562 6.60156 1.01562Z" fill="#13377D"/>
<path d="M21.9375 18.3828C21.9375 16.9828 20.7985 15.8438 19.3984 15.8438C17.9984 15.8438 16.8594 16.9828 16.8594 18.3828C16.8594 19.7829 17.9984 20.9219 19.3984 20.9219C20.7985 20.9219 21.9375 19.7829 21.9375 18.3828ZM19.3984 19.9062C18.5584 19.9062 17.875 19.2228 17.875 18.3828C17.875 17.5428 18.5584 16.8594 19.3984 16.8594C20.2385 16.8594 20.9219 17.5428 20.9219 18.3828C20.9219 19.2228 20.2385 19.9062 19.3984 19.9062Z" fill="#13377D"/>
<path d="M19.3984 12.7969C15.7583 12.7969 12.7969 15.7583 12.7969 19.3984C12.7969 22.9963 15.7133 26 19.3984 26C23.0829 26 26 22.9962 26 19.3984C26 15.7583 23.0386 12.7969 19.3984 12.7969ZM16.8619 24.3756C16.9152 23.0222 18.0322 21.9375 19.3984 21.9375C20.7647 21.9375 21.8817 23.0222 21.935 24.3756C21.1539 24.7742 20.2832 24.9844 19.3984 24.9844C18.5137 24.9844 17.6429 24.7742 16.8619 24.3756ZM22.8813 23.7641C22.5505 22.1443 21.1145 20.9219 19.3984 20.9219C17.6823 20.9219 16.2464 22.1443 15.9156 23.7641C14.6019 22.7126 13.8125 21.1051 13.8125 19.3984C13.8125 16.3184 16.3184 13.8125 19.3984 13.8125C22.4785 13.8125 24.9844 16.3184 24.9844 19.3984C24.9844 21.105 24.195 22.7125 22.8813 23.7641Z" fill="#13377D"/>
<path d="M11.9842 23.6641C10.0241 23.6641 8.42954 22.0694 8.42954 20.1094V19.6016H8.93736C9.12971 19.6016 9.30552 19.4929 9.39154 19.3208C9.47757 19.1488 9.45898 18.9429 9.34361 18.7891L6.29673 14.7266C6.2008 14.5987 6.05029 14.5234 5.89048 14.5234C5.73067 14.5234 5.58016 14.5987 5.48423 14.7266L2.43736 18.7891C2.32198 18.9429 2.30334 19.1488 2.38942 19.3208C2.47549 19.4929 2.65125 19.6016 2.84361 19.6016H3.35142V20.1094C3.35142 22.6294 5.40166 24.6797 7.92173 24.6797H11.9842C12.2646 24.6797 12.492 24.4523 12.492 24.1719C12.492 23.8914 12.2646 23.6641 11.9842 23.6641ZM7.92173 23.6641C5.96163 23.6641 4.36704 22.0694 4.36704 20.1094V19.0938C4.36704 18.8133 4.13964 18.5859 3.85923 18.5859L5.89048 15.8776L7.92173 18.5859C7.64132 18.5859 7.41392 18.8133 7.41392 19.0938V20.1094C7.41392 21.5435 8.07788 22.8255 9.11463 23.6641H7.92173Z" fill="#13377D"/>
<path d="M14.0156 2.33594C15.9757 2.33594 17.5703 3.93057 17.5703 5.89062V6.39844H17.0625C16.8701 6.39844 16.6943 6.50711 16.6083 6.67916C16.5223 6.8512 16.5409 7.05707 16.6562 7.21094L19.7031 11.2734C19.7991 11.4013 19.9496 11.4766 20.1094 11.4766C20.2692 11.4766 20.4197 11.4013 20.5156 11.2734L23.5625 7.21094C23.6779 7.05707 23.6965 6.8512 23.6104 6.67916C23.5244 6.50711 23.3486 6.39844 23.1562 6.39844H22.6484V5.89062C22.6484 5.75372 22.6423 5.61544 22.6302 5.4796C22.6052 5.20025 22.3586 4.99408 22.0792 5.01896C21.7998 5.0439 21.5936 5.29059 21.6186 5.56994C21.628 5.67582 21.6328 5.78373 21.6328 5.89057V6.9062C21.6328 7.18666 21.8602 7.41401 22.1406 7.41401L20.1094 10.1223L18.0781 7.41406C18.3585 7.41406 18.5859 7.18671 18.5859 6.90625V5.89062C18.5859 4.45646 17.922 3.17449 16.8852 2.33594H18.0781C18.4842 2.33594 18.8822 2.40373 19.2611 2.53744C19.5257 2.63062 19.8156 2.49199 19.9089 2.22752C20.0023 1.96305 19.8635 1.67299 19.5991 1.57965C19.1114 1.40755 18.5997 1.32031 18.0781 1.32031H14.0156C13.7352 1.32031 13.5078 1.54766 13.5078 1.82812C13.5078 2.10859 13.7352 2.33594 14.0156 2.33594Z" fill="#13377D"/>
<path d="M21.2773 3.91016C21.5578 3.91016 21.7852 3.6828 21.7852 3.40234C21.7852 3.12189 21.5578 2.89453 21.2773 2.89453C20.9969 2.89453 20.7695 3.12189 20.7695 3.40234C20.7695 3.6828 20.9969 3.91016 21.2773 3.91016Z" fill="#13377D"/>
</svg>
