<svg fill="none" height="37" viewBox="0 0 37 37" width="37" xmlns="http://www.w3.org/2000/svg"><g fill="#041e42"><path d="m33.8022 34.6887-1.9896-6.9637 2.8645-14.8958c.0161-.0837.0135-.1698-.0076-.2524-.0211-.0825-.0602-.1593-.1144-.225s-.1223-.1185-.1994-.1548c-.077-.0363-.1612-.0552-.2463-.0552h-1.4555c-.5381.0005-1.0592.1884-1.4737.5315-.4146.343-.6967.8198-.7979 1.3483l-1.9544 10.2609h-8.4826c-.5366 0-1.0513.2132-1.4308.5926-.3794.3795-.5926.8942-.5926 1.4308 0 .5367.2132 1.0513.5926 1.4308.3795.3795.8942.5926 1.4308.5926h.5319l-1.1924 6.3594h-2.5192v-13.875h3.3965c.1724-.0002.3378-.0688.4597-.1907s.1905-.2872.1907-.4597v-2.1679c-.0002-.1725-.0688-.3378-.1907-.4597-.1219-.122-.2873-.1905-.4597-.1907h-11.54804c-.11439-.555-.38892-1.0643-.78963-1.465-.40071-.4006-.91005-.675-1.46505-.7894v-5.44799l1.57849-.63138.9219 3.87077c.12056.5052.40751.9552.8147 1.2776.40723.3224.91103.4986 1.43033.5001.1907-.0001.3806-.0236.5654-.0701l.6109-.1527c.1477-.0369.2748-.1305.3538-.2606.0791-.1301.1036-.2861.0684-.4341l-2.89064-12.14066c-.01771-.07438-.05-.14451-.09501-.20632-.045-.06182-.10181-.11409-.16715-.1538-.06535-.03971-.13792-.06606-.21351-.07753-.0756-.01147-.15272-.00783-.2269.01071l-.64872.16216c-.5896.14945-1.09695.52442-1.41283 1.04421-.31589.51978-.41506 1.14281-.27617 1.73498l.89501 3.75825-2.10083.84023c-.10728.04291-.19925.11699-.26403.21267-.06477.09568-.0994.20858-.0994.32412v5.83938c-.55493.1144-1.06419.3889-1.46484.7895-.40064.4007-.67511.9099-.78948 1.4649h-1.14216c-.17243.0002-.33775.0687-.45968.1907-.12193.1219-.19052.2872-.19071.4597v2.1679c.00019.1725.06878.3378.19071.4597s.28725.1905.45968.1907h1.08398v13.875h-1.73437v1.1563h34.68755v-1.1563zm-25.06066-32.23009.08151-.02037 2.62285 11.01576-.0564.0141c-.1484.0371-.3026.0444-.4538.0214-.1512-.0229-.2964-.0756-.4271-.155s-.2443-.184-.3344-.3076c-.09-.1237-.1546-.2639-.18998-.4127l-2.0871-8.76585c-.06948-.29609-.01991-.60763.13802-.86754.15793-.25992.41159-.44744.7064-.5222zm-2.96029 13.73009c.35852.0005.70812.1119 1.00083.3189.29272.207.51421.4995.63411.8374h-3.26988c.1199-.3379.34139-.6304.63411-.8374.29271-.207.64231-.3184 1.00083-.3189zm-3.46875 3.4688v-1.1563h17.3437v1.1563zm2.89062 15.0312h-1.15624v-13.875h1.15624zm8.09378 0h-6.93752v-13.875h6.93752zm2.3125 0h-1.1563v-13.875h1.1563zm4.3359-7.5156c-.23 0-.4506-.0914-.6132-.254s-.254-.3832-.254-.6132.0914-.4506.254-.6132.3832-.254.6132-.254h8.9609c.1346 0 .2649-.0469.3685-.1326.1037-.0858.1742-.205.1994-.3371l2.044-10.7308c.0506-.2643.1916-.5027.3989-.6743s.4679-.2656.7369-.2658h.7556l-2.6683 13.875zm.516 7.5156 1.1924-6.3594h1.136l-1.1924 6.3594zm2.3125 0 1.1924-6.3594h4.5039l1.817 6.3594zm8.7159 0-1.8171-6.3594h1.1101l1.817 6.3594z"/><path d="m23.125 16.7656c1.4864 0 2.9395-.4408 4.1754-1.2666 1.236-.8258 2.1993-1.9996 2.7681-3.3729.5689-1.3733.7177-2.88443.4277-4.34232s-1.0058-2.79705-2.0569-3.84813c-1.051-1.05107-2.3902-1.76687-3.8481-2.05686s-2.969-.14116-4.3423.42768-2.5471 1.53214-3.3729 2.76808c-.8258 1.23593-1.2666 2.689-1.2666 4.17545.0022 1.9926.7948 3.9029 2.2037 5.3119 1.409 1.4089 3.3193 2.2015 5.3119 2.2037zm-6.3329-8.09372c.1372-1.47992.7876-2.86529 1.8385-3.91623 1.051-1.05095 2.4363-1.70132 3.9163-1.8385v.5516h1.1562v-.5516c1.4799.13718 2.8653.78755 3.9162 1.8385 1.051 1.05094 1.7014 2.43631 1.8385 3.91623h-.5516v1.15625h.5516c-.1371 1.47987-.7875 2.86527-1.8384 3.91617-1.051 1.051-2.4364 1.7013-3.9163 1.8385v-.5515h-1.1562v.5515c-1.4799-.1372-2.8653-.7875-3.9163-1.8385-1.0509-1.0509-1.7013-2.4363-1.8385-3.91617h.5516v-1.15625z"/><path d="m23.4863 9.70144c.0677-.05418.1223-.12288.1598-.20103.0376-.07814.057-.16372.057-.25041v-4.625h-1.1562v4.34714l-2.6739 2.13906.7227.9029z"/></g></svg>