<svg fill="none" height="39" viewBox="0 0 42 39" width="42" xmlns="http://www.w3.org/2000/svg" xmlns:xlink="http://www.w3.org/1999/xlink"><clipPath id="a"><path d="m0 0h42v38.9358h-42z"/></clipPath><g clip-path="url(#a)"><path d="m39.5985 36.9421-1.858-10.084c-.2002-1.0865-1.0316-1.9593-2.17-2.2776l-5.0114-1.4018c-.1038-1.1356-.6061-2.2071-1.442-3.0551-.6686-.6784-1.5096-1.1723-2.4366-1.4448.1586-.1632.3057-.3259.4407-.485 1.1917-1.4051 1.8297-2.9531 1.9922-4.0095h.3866c1.0055 0 1.8236-.7583 1.8236-1.6905v-.8667c0-.6221-.3775-1.1858-.9452-1.4784v-2.08397c0-.31491-.2754-.5702-.6151-.5702s-.615.25521-.615.5702v2.33947c-.2395.0386-.5253.1052-.8177.2193-.0299.0102-.059.0219-.0866.0359-.066.0279-.1322.0574-.198.0905v-4.59485c0-1.26944-1.114-2.30215-2.4834-2.30215h-1.6976c-.5855 0-1.1575.18912-1.6108.5327l-.1666.12624c-.306.23194-.6922.3597-1.0875.3597s-.7816-.12776-1.0876-.3597l-.1665-.12624c-.4533-.3435-1.0253-.5327-1.6109-.5327h-1.6978c-1.3693 0-2.4833 1.03271-2.4833 2.30215v4.59485c-.0659-.0331-.132-.0626-.198-.0905-.0276-.014-.0566-.0257-.0866-.0359-.2923-.1141-.5782-.1807-.8177-.2193v-5.91556c0-1.84625 1.6203-3.34832 3.6119-3.34832h9.0727c1.9916 0 3.6118 1.50207 3.6118 3.34832v.89629c0 .31491.2754.57019.615.57019s.6151-.25521.6151-.57019v-.89629c0-2.47501-2.1721-4.48864-4.8419-4.48864h-9.0727c-2.6699 0-4.8419 2.01363-4.8419 4.48864v5.66016c-.5678.2925-.9453.8562-.9453 1.4784v.8666c0 .9323.8181 1.6906 1.8237 1.6906h.3866c.1623 1.0564.8004 2.6044 1.9922 4.0095.1348.1589.2818.3214.4403.4845-2.1312.6275-3.6854 2.4038-3.8782 4.5003l-5.01165 1.4018c-1.13835.3183-1.96982 1.1911-2.16997 2.2776l-.75452 4.095c-.05718.3104.16791.605.50268.658.33469.0531.65256-.1556.70982-.466l.75452-4.0951c.12108-.6573.6241-1.1852 1.31275-1.3778l4.63517-1.2965v1.1279c-1.0625.1813-1.96653.8578-2.33887 1.7953-.09885.2488-.16029.5093-.1826.7743l-.44798 5.3304c-.03379.4016.11608.8014.41098 1.0969s.71318.4651 1.14757.4651h.7668c.3397 0 .6151-.2552.6151-.5702s-.2754-.5702-.6151-.5702h-.7668c-.09265 0-.18173-.036-.24465-.0991-.06284-.063-.09475-.1482-.08753-.2337l.44798-5.3306c.0135-.1605.0507-.3183.1106-.4689.259-.6521.9586-1.0937 1.7409-1.0988l.1013-.0007c.0048-.0001.0095-.0001.0141-.0001.7604 0 1.4335.3997 1.7174 1.0211.0796.1742.128.3584.1439.5474l.4482 5.3307c.0071.0854-.0248.1706-.0876.2337-.0629.0629-.152.099-.2447.099h-.7668c-.3397 0-.6151.2553-.6151.5702s.2754.5702.6151.5702h.7668c.4344 0 .8528-.1695 1.1476-.4651.295-.2956.4448-.6954.411-1.0968l-.4481-5.3305c-.0263-.312-.1062-.6161-.2377-.9038-.4052-.8864-1.2715-1.5028-2.2918-1.6696v-1.4681l2.1143-.5914c.1923.3756.5735 1.1872 1.3286 2.9368.761 1.7653 1.7069 4.0281 2.6141 6.2278.0065.0185.0139.0365.0223.0542.6054 1.4685 1.1927 2.9068 1.6949 4.1476.0901.2225.3196.3699.5759.3699.2564 0 .4858-.1474.5759-.3699.5022-1.2408 1.0894-2.6791 1.6949-4.1476.0084-.0177.0158-.0358.0223-.0542.9065-2.1984 1.8519-4.4597 2.6126-6.2245.7561-1.7519 1.1376-2.5642 1.3301-2.9401l2.1142.5914v3.3677c-1.4649.2638-2.5745 1.4615-2.5745 2.8956 0 1.6267 1.4276 2.9502 3.1824 2.9502s3.1824-1.3234 3.1824-2.9502c0-1.4294-1.1023-2.6242-2.5602-2.8932v-3.026l4.6353 1.2965c.6886.1926 1.1915.7205 1.3127 1.3778l1.858 10.084c.0309.1672-.0171.3307-.1352.4604-.1179.1296-.2837.2011-.4667.2011h-33.56836c-.18301 0-.34872-.0714-.46676-.2011-.11796-.1297-.16603-.2931-.13519-.4604l.61319-3.3279c.05717-.3105-.16792-.605-.50269-.658-.33469-.0532-.65256.1557-.70982.466l-.61318 3.328c-.09147.4967.05709 1.0025.40753 1.3877.3506.3851.86338.6059 1.40692.6059h33.56836c.5435 0 1.0564-.2208 1.4069-.606.3504-.3852.499-.891.4075-1.3877zm-10.443-25.3763c.3277-.0757.5908-.0743.5938-.0743.106.0013.209-.0216.3005-.0661.0274.0632.0436.1311.0436.2018v.8666c0 .3035-.2663.5503-.5936.5503h-.3443zm-16.3112 1.4783h-.3443c-.3273 0-.5936-.2468-.5936-.5503v-.8666c0-.0707.0163-.1386.0436-.2017.0914.0444.1945.0674.3005.066.0047.0008.267-.0006.5938.0746zm1.23.6393v-1.4979c.1864.0517.3903.0447.5784-.0281.3228-.1249.5314-.4148.5314-.7389v-5.26345c0-.64062.5622-1.16184 1.2532-1.16184h1.6977c.3025 0 .5981.09772.8323.27521l.1665.12624c.5251.39803 1.1878.61712 1.8661.61712s1.3411-.21917 1.8661-.61712l.1666-.12624c.2341-.17749.5297-.27521.8322-.27521h1.6977c.691 0 1.2533.52122 1.2533 1.16184v5.26355c0 .324.2085.614.5313.7389.1078.0416.2206.0619.3325.0619.0835 0 .1662-.0114.2459-.0334v1.4974c0 .8325-.6208 2.4491-1.7714 3.8056-.3811.4494-.871.9321-1.4742 1.354-.0191.0119-.0374.0247-.0549.0384-.9344.6405-2.1359 1.1311-3.6251 1.1311s-2.6907-.4906-3.6252-1.1311c-.0175-.0137-.0357-.0265-.0547-.0383-.6032-.422-1.0931-.9047-1.4743-1.3541-1.1505-1.3564-1.7714-2.9731-1.7714-3.8056zm10.955 9.2119-4.0294 2.792-4.0294-2.792c.3996-.4708.6235-1.0751.6235-1.6145v-.9191c.9475.4725 2.0781.7912 3.4059.7912s2.4585-.3187 3.4059-.7912v.9191c0 .5394.2239 1.1437.6235 1.6145zm-9.0852-.6364c-.3285-.116-.6926-.135-1.0371-.0484-.0151.0033-.0298.007-.0442.011l-2.1248.5943c.3593-1.6381 1.7942-2.942 3.6259-3.1946v1.6596c0 .3578-.1723.7276-.4198.9781zm1.6692 4.5771c-.0011-.0027-.0023-.0054-.0033-.0079-.0312-.0731-.062-.1452-.0925-.2165-.0055-.0129-.011-.0258-.0165-.0385-.0298-.0698-.0594-.139-.0886-.207-.0021-.0048-.0042-.0095-.0062-.0144-.0911-.2124-.179-.4161-.2635-.6113-.0061-.0142-.0123-.0286-.0184-.0426-.0243-.056-.0482-.1111-.0719-.1656-.0087-.02-.0173-.0397-.0259-.0595-.023-.0528-.0458-.1053-.0683-.1566-.0067-.0154-.0133-.0303-.0199-.0456-.0408-.0932-.0806-.1841-.1195-.2727-.0105-.0239-.0213-.0483-.0317-.072-.0153-.0345-.0301-.0681-.045-.1019-.0161-.0366-.0322-.0727-.0479-.1083-.0059-.0133-.0121-.0274-.018-.0406-.0048-.0107-.0091-.0205-.0138-.0311-.071-.16-.1385-.3108-.2026-.4526-.0005-.0011-.0011-.0023-.0016-.0034-.0341-.0755-.0675-.1493-.0995-.2196-.0167-.0364-.0331-.0722-.0492-.1073l3.4654 2.401-1.448.5703c-.0025.001-.0052.002-.0077.0031l-.6046.2381c-.0343-.0804-.0678-.1592-.1013-.2375zm1.4676 3.4911c-.1215-.2922-.2439-.5862-.3666-.8798-.1917-.4592-.3749-.8959-.5502-1.3119l.2295-.0904.9378 1.0106zm1.9309 4.6341c-.0176-.0339-.0386-.0659-.0629-.0957-.2779-.681-.6307-1.5427-1.0211-2.4908l.5743-2.9144h.9957l.5742 2.9144c-.4091.9933-.7765 1.8914-1.0602 2.5865zm.7166-6.6412h-1.457l-.6895-.743 1.418-.5584 1.418.5584zm1.5571 1.1273c-.1227.2936-.2451.5876-.3666.8798l-.2505-1.2716.9378-1.0105.2295.0904c-.1753.4159-.3585.8527-.5502 1.3119zm2.3557-5.479c-.0304.0666-.0621.1365-.0943.2079-.0042.0092-.0085.0186-.0126.028-.0319.0707-.0644.1429-.0981.2181-.0022.005-.0045.0102-.0067.0152-.029.0649-.0588.1318-.0891.2-.0056.0128-.011.0246-.0166.0375-.0068.0152-.014.0314-.0208.0469-.0134.0304-.0271.0614-.0409.0924-.0169.0383-.0337.0764-.051.1156-.0055.0124-.0112.0254-.0168.038-.0428.0972-.0868.1975-.1317.3004-.0071.0162-.014.032-.0211.0483-.0222.0509-.0449.1028-.0676.1551-.0089.0204-.0178.0408-.0267.0615-.0235.0539-.0472.1085-.0712.1639-.0067.0154-.0135.0313-.0202.0468-.0834.1925-.17.3934-.2598.6026-.003.007-.0059.0137-.0089.0207-.029.0676-.0584.1364-.0881.2056-.0055.013-.011.0259-.0166.0389-.0307.0716-.0616.144-.093.2176-.0005.0013-.0011.0027-.0017.004-.0338.0792-.0677.1589-.1024.2403l-.6051-.2383c-.0021-.0009-.0043-.0017-.0063-.0025l-1.4489-.5706 3.4654-2.4011c-.0162.035-.0326.0707-.0492.1072zm1.4958-1.7468c-.0001 0-.0003 0-.0003 0-.0005-.0002-.0011-.0003-.0016-.0005-.3568-.0992-.7375-.0828-1.0793.0379-.2476-.2505-.4198-.6203-.4198-.9781v-1.6604c1.8431.2518 3.2737 1.5435 3.6284 3.1961zm4.7731 8.0735c0 .9981-.8758 1.8099-1.9523 1.8099s-1.9523-.8118-1.9523-1.8099c0-.998.8758-1.8099 1.9523-1.8099s1.9523.8119 1.9523 1.8099z" fill="#041e42"/></g></svg>