<svg fill="none" height="38" viewBox="0 0 38 38" width="38" xmlns="http://www.w3.org/2000/svg" xmlns:xlink="http://www.w3.org/1999/xlink"><clipPath id="a"><path d="m0 0h38v38h-38z"/></clipPath><g clip-path="url(#a)"><path d="m37.4434 29.4992c.3074 0 .5566-.2491.5566-.5566v-1.0765c0-1.0883-.8309-1.9737-1.8523-1.9737h-.9008v-1.1405c0-.7981-.6494-1.4474-1.4474-1.4474h-4.4805c-.7981 0-1.4474.6494-1.4474 1.4474v2.9703c-4.0025-.467-8.9847-.4677-12.994 0v-2.9703c0-.7981-.6494-1.4474-1.4474-1.4474h-.354c3.0515-1.8582 6.4642-4.378 9.125-6.832l1.7472 2.402c.4701.6464 1.3777.7877 2.0219.3191l3.6234-2.6355s0 0 0-.0001c.6453-.4693.7885-1.3763.3191-2.0218l-.671-.9224.7286-.5299c.826-.6008.9771-1.8055.337-2.6856l-3.0214-4.15397c-.6402-.87993-1.8329-1.10727-2.6588-.50647l-.7286.53-.6709-.92232c-.4694-.64555-1.3764-.78857-2.0219-.31921l-3.6234 2.6355c-.6453.46936-.7885 1.37639-.3191 2.02187l1.7472 2.402c-3.5125 1.9774-7.5411 4.9069-10.50823 7.6434l-1.28524-1.7668c-.72378-.995-2.12414-1.2162-3.11904-.4923l-2.35317 1.7116c-.995571.7243-1.216372 2.1235-.49222 3.1191l.20885.2872-.728455.5298c-.842456.6127-.9641 1.8236-.337027 2.6857l3.021442 4.1538c.33057.4546.81507.7436 1.33178.8205v2.2249c0 1.0883.83095 1.9737 1.85227 1.9737h.90087v1.1405c0 .7981.64933 1.4473 1.44733 1.4473h4.48054c.7981 0 1.4474-.6493 1.4474-1.4473v-2.97c1.5819.1841 3.3603.2998 5.1869.3365.0038.0002.0076.0002.0114.0002.3022 0 .5503-.242.5564-.5456.0062-.3073-.238-.5615-.5454-.5677-1.8417-.0371-3.6309-.1556-5.2093-.3443v-3.1832c3.9378-.4719 8.9745-.4817 12.994 0v3.1832c-1.5782.1887-3.3675.3072-5.2093.3443-.3073.0062-.5516.2604-.5454.5677.0061.3036.254.5456.5564.5456.0038 0 .0076 0 .0114-.0002 1.8267-.0367 3.605-.1524 5.1869-.3365v2.97c0 .7981.6494 1.4473 1.4474 1.4473h4.4805c.7981 0 1.4474-.6493 1.4474-1.4473v-1.1405h.9008c1.0214 0 1.8523-.8854 1.8523-1.9737v-1.4621c0-.3075-.2492-.5567-.5566-.5567s-.5567.2492-.5567.5567v1.4621c0 .4663-.3383.8603-.7389.8603h-.9009v-6.857h.9009c.4005 0 .7389.3939.7389.8602v1.0766c0 .3074.2493.5565.5567.5565zm-12.1614-22.86099c.3238-.23542.8294-.116 1.1035.2611l3.0215 4.15399c.2743.377.2324.8947-.0915 1.1303l-.7286.5298c-.451-.6203-3.575-4.91508-4.0334-5.54534zm-7.1183 2.39073c-.1065-.14643-.0728-.36011.0736-.46661l3.6234-2.63558c.1471-.1068.3604-.07229.4666.0737.2253.30979 5.4178 7.44845 5.6867 7.81815.0001.0002.0002.0003.0003.0005l.9981 1.372c.1065.1464.0728.3601-.0737.4666l-3.6235 2.6356c-.1471.1069-.3586.0746-.4664-.0737-.2196-.3019-6.4201-8.82632-6.6851-9.19066zm1.5059 3.96316 1.8725 2.5742c-2.8961 2.6879-6.9584 5.6593-10.5085 7.6429l-1.87212-2.5738c2.88832-2.6809 6.95302-5.6569 10.50812-7.6433zm-14.92041 14.874v1.767c-.16559-.0617-.31862-.1759-.43129-.3308l-3.02144-4.1539c-.28685-.3942-.22273-.9018.09151-1.1303l.72846-.5299c.08832.1215.77981 1.0721 2.72887 3.7518-.06635.2108-.09611.4284-.09611.6261zm2.75314 5.9968h-.90087c-.40048 0-.73892-.394-.73892-.8604 0-.5029 0-4.6122 0-5.1365 0-.1945.0642-.4044.19133-.5693.15141-.1968.35618-.291.54759-.291h.90079v6.8572zm0-9.1111v1.1406h-.90087c-.0452 0-.08995.0023-.13441.0058-.00787.0006-.01573.0011-.0236.0019-.34467.0312-.66263.1632-.92781.3684l-3.36262-4.6228c-.36308-.4991-.25242-1.2007.2467-1.5638l2.35318-1.7115c.49689-.3617 1.20204-.2506 1.56371.2468.40531.5571 2.97564 4.0909 3.40938 4.6872h-.7764c-.79793 0-1.44726.6493-1.44726 1.4474zm6.26197 11.3649c0 .181-.153.334-.334.334h-4.48056c-.18102 0-.33399-.153-.33399-.334 0-.5239 0-11.0233 0-11.3648 0-.1811.15297-.334.33399-.334h2.08386.3143 2.0824c.181 0 .334.1529.334.334zm20.3693 0c0 .181-.153.334-.334.334h-4.4806c-.181 0-.334-.153-.334-.334v-11.3648c0-.1811.153-.334.334-.334h4.4806c.181 0 .334.1529.334.334z" fill="#041e42"/></g></svg>