<svg width="26" height="26" viewBox="0 0 26 26" fill="none" xmlns="http://www.w3.org/2000/svg">
<g clip-path="url(#clip0)">
<path d="M17.5406 5.44203L15.0643 2.00298C14.9689 1.87044 14.8155 1.79188 14.6522 1.79188C14.4889 1.79188 14.3355 1.87044 14.2401 2.00298L11.7638 5.44203C11.7016 5.52846 11.6681 5.63226 11.6681 5.73875V5.81984V22.299C11.6681 23.3469 12.5206 24.1993 13.5684 24.1993H15.736C16.7839 24.1993 17.6363 23.3469 17.6363 22.299V5.81984V5.73875C17.6363 5.63226 17.6029 5.52841 17.5406 5.44203ZM14.6522 3.16876L16.1955 5.31203H13.109L14.6522 3.16876ZM12.6837 6.32765H15.0948V19.4808H14.2095V9.78108C14.2095 9.50056 13.9822 9.27322 13.7017 9.27322C13.4213 9.27322 13.1939 9.50056 13.1939 9.78103V19.4807H12.6837V6.32765ZM16.6207 22.299C16.6207 22.7868 16.2238 23.1836 15.736 23.1836H13.5684C13.0806 23.1836 12.6837 22.7868 12.6837 22.299V20.4964H16.6207V22.299ZM16.6207 19.4808H16.1105V6.32765H16.6207V19.4808Z" fill="#13377D"/>
<path d="M14.1996 7.64265C14.193 7.61066 14.1834 7.57867 14.1707 7.54769C14.158 7.51722 14.1422 7.48777 14.1239 7.46035C14.1057 7.43242 14.0843 7.40652 14.061 7.38316C14.0376 7.3598 14.0117 7.33847 13.9838 7.31968C13.9564 7.3014 13.9269 7.28617 13.8959 7.27347C13.8655 7.26078 13.8335 7.25062 13.801 7.24402C13.7355 7.23132 13.6679 7.23132 13.6024 7.24402C13.5704 7.25062 13.5384 7.26078 13.5075 7.27347C13.477 7.28617 13.4475 7.3014 13.4201 7.31968C13.3922 7.33847 13.3663 7.3598 13.3429 7.38316C13.3196 7.40652 13.2982 7.43242 13.2794 7.46035C13.2612 7.48777 13.2454 7.51722 13.2327 7.54769C13.22 7.57867 13.2104 7.61066 13.2038 7.64265C13.1972 7.67566 13.1941 7.70917 13.1941 7.74218C13.1941 7.87574 13.2485 8.00675 13.343 8.1012C13.4374 8.19566 13.5684 8.24999 13.7019 8.24999C13.735 8.24999 13.7685 8.24644 13.801 8.23984C13.8335 8.23324 13.8655 8.22359 13.8959 8.21089C13.9269 8.1982 13.9564 8.18245 13.9838 8.16417C14.0117 8.14589 14.0376 8.12456 14.061 8.1012C14.0843 8.07785 14.1057 8.05195 14.1239 8.02402C14.1422 7.9966 14.158 7.96714 14.1707 7.93617C14.1834 7.9057 14.193 7.87371 14.1996 7.84121C14.2062 7.80871 14.2097 7.77519 14.2097 7.74218C14.2097 7.70917 14.2062 7.67566 14.1996 7.64265Z" fill="#13377D"/>
<path d="M4.93923 11.3024L4.93908 11.225C4.93913 10.8248 5.26474 10.4992 5.66494 10.4992C5.6721 10.4992 5.67926 10.4991 5.68642 10.4987L7.23322 10.4333C8.13646 10.4269 8.86938 9.69016 8.86938 8.78539C8.86938 7.87671 8.13011 7.13749 7.22149 7.13749H3.76547C3.41686 7.13749 3.1332 6.85383 3.1332 6.50516C3.1332 6.33647 3.19972 6.17808 3.32048 6.0592C3.43631 5.9451 3.58774 5.88264 3.7477 5.88264C3.75359 5.88264 3.75958 5.88279 3.76547 5.88279L6.78934 5.88269C7.91719 5.88269 8.8347 4.96507 8.8347 3.83722C8.8347 2.70937 7.91714 1.79181 6.78929 1.79181H3.34947C3.06906 1.79181 2.84166 2.01916 2.84166 2.29962C2.84166 2.58008 3.06906 2.80743 3.34947 2.80743H6.78929C7.35712 2.80743 7.81908 3.26939 7.81908 3.83722C7.81908 4.40506 7.35712 4.86701 6.78934 4.86706L3.76908 4.86717C3.33409 4.86117 2.92063 5.02758 2.60802 5.33537C2.29175 5.64676 2.11757 6.06215 2.11757 6.50521C2.11757 7.41389 2.85685 8.15316 3.76547 8.15316H7.22144C7.57005 8.15316 7.85371 8.43678 7.85371 8.78544C7.85371 9.1341 7.57005 9.41777 7.22144 9.41777C7.21427 9.41777 7.20711 9.41792 7.19995 9.41822L5.65331 9.48368C4.69837 9.48993 3.9235 10.2687 3.9235 11.2261L3.92366 11.3027C1.71838 11.5559 0 13.4337 0 15.7057V19.7755C0 22.2195 1.98839 24.2079 4.43243 24.2079C6.87648 24.2079 8.86487 22.2195 8.86487 19.7755V15.7057C8.86487 13.433 7.14547 11.5547 4.93923 11.3024ZM1.01562 15.7057C1.01562 13.9941 2.28048 12.5725 3.92462 12.3265V16.4683H1.01562V15.7057ZM7.84924 19.7755C7.84924 21.6595 6.31646 23.1923 4.43243 23.1923C2.5484 23.1923 1.01562 21.6595 1.01562 19.7755V17.484H7.84924V19.7755ZM7.84924 16.4683H4.94024V12.3265C6.58439 12.5725 7.84924 13.9941 7.84924 15.7057V16.4683Z" fill="#13377D"/>
<path d="M1.89211 2.20031C1.88551 2.16832 1.87586 2.13633 1.86317 2.10535C1.85047 2.07488 1.83473 2.04543 1.81645 2.01801C1.79822 1.99008 1.77689 1.96418 1.75353 1.94082C1.65908 1.84637 1.52806 1.79203 1.39451 1.79203C1.26095 1.79203 1.12994 1.84637 1.03549 1.94082C1.01213 1.96418 0.9908 1.99008 0.972518 2.01801C0.95378 2.04543 0.938495 2.07488 0.9258 2.10535C0.912597 2.13633 0.902999 2.16832 0.896347 2.20031C0.889745 2.23332 0.886749 2.26683 0.886749 2.29984C0.886749 2.33285 0.889796 2.36637 0.896347 2.39887C0.902948 2.43137 0.912597 2.46336 0.925749 2.49383C0.938444 2.5248 0.953729 2.55426 0.972468 2.58168C0.990749 2.60961 1.01208 2.63551 1.03544 2.65886C1.0588 2.68222 1.08469 2.70355 1.11267 2.72183C1.1401 2.74011 1.16955 2.75586 1.20002 2.76855C1.23099 2.78125 1.26299 2.7909 1.29549 2.7975C1.32799 2.8041 1.3615 2.80765 1.39451 2.80765C1.52806 2.80765 1.65908 2.75332 1.75353 2.65886C1.77689 2.63551 1.79822 2.60961 1.81645 2.58168C1.83473 2.55426 1.85047 2.5248 1.86317 2.49383C1.87586 2.46336 1.88551 2.43137 1.89211 2.39887C1.89871 2.36637 1.90227 2.33285 1.90227 2.29984C1.90227 2.26683 1.89871 2.23332 1.89211 2.20031Z" fill="#13377D"/>
<path d="M25.9963 6.85887C25.9402 5.66058 25.3366 5.06751 24.8515 4.59098C24.3268 4.07535 24.01 3.76411 24.3091 2.74407C24.4445 2.28227 24.258 2.03979 24.1347 1.93634C23.9813 1.80766 23.7075 1.6993 23.2739 1.91395C22.712 2.19213 21.8591 3.00996 21.1998 3.90264C20.5946 4.7223 19.8848 5.94968 19.9407 7.14243C19.9825 8.03435 20.3606 8.85218 20.978 9.42743C20.6729 9.83916 20.492 10.3482 20.492 10.8989C20.492 11.2482 20.5632 11.5812 20.6927 11.8834V21.8072C20.6927 23.015 21.6754 23.9977 22.8832 23.9977C24.091 23.9977 25.0736 23.015 25.0736 21.8072V12.2114C25.3104 11.83 25.4456 11.38 25.4456 10.8989C25.4457 10.3548 25.269 9.8516 24.9705 9.44256C25.6592 8.80338 26.0432 7.86042 25.9963 6.85887ZM24.058 21.8072C24.0581 22.455 23.5311 22.982 22.8832 22.982C22.2354 22.982 21.7084 22.455 21.7084 21.8072V13.0343C21.9721 13.1887 22.2686 13.297 22.5886 13.3464C22.6143 13.3504 22.6402 13.3524 22.666 13.3524H23.2717C23.2976 13.3524 23.3235 13.3504 23.3491 13.3464C23.3826 13.3412 23.4159 13.3352 23.449 13.3287C23.4702 13.3246 23.4911 13.3198 23.5121 13.3152C23.5211 13.3132 23.5302 13.3112 23.5392 13.3091C23.7215 13.2665 23.8951 13.2046 24.058 13.1258V21.8072ZM23.6553 12.1879C23.6531 12.189 23.651 12.1901 23.6489 12.1912C23.6343 12.199 23.6195 12.2064 23.6046 12.2137C23.5975 12.2171 23.5904 12.2205 23.5833 12.2238C23.5719 12.2292 23.5605 12.2344 23.549 12.2394C23.5382 12.2441 23.5273 12.2486 23.5163 12.2531C23.5074 12.2567 23.4986 12.2604 23.4897 12.2638C23.4761 12.269 23.4624 12.2739 23.4487 12.2787C23.4416 12.2812 23.4345 12.2838 23.4274 12.2862C23.4119 12.2913 23.3963 12.2961 23.3806 12.3007C23.3747 12.3025 23.3688 12.3044 23.3628 12.3061C23.3458 12.3109 23.3285 12.3152 23.3113 12.3194C23.3064 12.3206 23.3016 12.322 23.2968 12.3231C23.2746 12.3282 23.2523 12.3328 23.2298 12.3369H22.7081C22.7076 12.3368 22.7071 12.3367 22.7066 12.3366C22.6821 12.3322 22.6579 12.3269 22.6338 12.3212C22.6241 12.3189 22.6146 12.3164 22.605 12.3139C22.5906 12.3102 22.5763 12.3063 22.562 12.3021C22.5501 12.2986 22.538 12.2952 22.5261 12.2914C22.5172 12.2885 22.5083 12.2853 22.4993 12.2823C21.9199 12.084 21.5078 11.5279 21.5078 10.8989C21.5078 10.428 21.732 10.0086 22.079 9.7412C22.0924 9.7309 22.1059 9.72089 22.1196 9.71109C22.143 9.69433 22.1668 9.67824 22.1912 9.66285C22.2019 9.65609 22.2126 9.64939 22.2234 9.64294C22.2571 9.62288 22.2915 9.60409 22.3269 9.58673C22.3303 9.585 22.3338 9.58317 22.3372 9.5815C22.3577 9.57165 22.3785 9.56225 22.3994 9.55331C22.4029 9.55184 22.4064 9.55057 22.4099 9.54915C22.4463 9.53397 22.4835 9.52036 22.5214 9.50812C22.5332 9.50436 22.5449 9.50081 22.5567 9.49735C22.5824 9.48979 22.6083 9.48298 22.6346 9.47679C22.6546 9.47211 22.6747 9.4677 22.6949 9.46389C22.7087 9.46125 22.7225 9.45871 22.7363 9.45647C22.7681 9.45145 22.8002 9.44728 22.8325 9.44434C22.8412 9.44352 22.8501 9.44297 22.8589 9.44231C22.8954 9.43961 22.932 9.43774 22.9691 9.43774C23.0066 9.43774 23.0438 9.43972 23.0807 9.44246C23.0895 9.44312 23.0983 9.44363 23.1069 9.44444C23.1393 9.44743 23.1714 9.4517 23.2033 9.45678C23.2176 9.45911 23.2319 9.4617 23.2462 9.46445C23.2666 9.46831 23.2869 9.47288 23.307 9.47765C23.3335 9.48395 23.3598 9.4909 23.3857 9.49862C23.3964 9.50182 23.4072 9.50517 23.4179 9.50863C23.4543 9.52041 23.4901 9.53356 23.5252 9.54803C23.5304 9.55017 23.5356 9.5522 23.5408 9.55438C23.6023 9.58063 23.6616 9.6111 23.7185 9.64523C23.7311 9.65279 23.7435 9.66072 23.7559 9.66869C23.7788 9.68341 23.8013 9.6987 23.8234 9.71464C23.8387 9.72582 23.854 9.73729 23.869 9.74913C24.2103 10.0168 24.4301 10.4325 24.4301 10.8989C24.4301 11.4463 24.1181 11.9387 23.6553 12.1879ZM24.2134 8.75752C24.2024 8.75112 24.1909 8.74569 24.1798 8.73944C24.1533 8.72451 24.1264 8.71014 24.0993 8.69618C24.0854 8.68907 24.0716 8.68171 24.0576 8.67485C23.9672 8.63042 23.8736 8.59162 23.7774 8.55831C23.7721 8.55648 23.7668 8.5547 23.7615 8.55287C23.7133 8.53657 23.6646 8.52149 23.6152 8.50814C23.615 8.50809 23.6147 8.50803 23.6145 8.50793C23.5144 8.48087 23.4119 8.4601 23.3072 8.44573C23.2977 8.44441 23.2881 8.44329 23.2785 8.44207C23.2381 8.43699 23.1974 8.43293 23.1564 8.42988C23.1442 8.42897 23.132 8.42785 23.1198 8.42709C23.0698 8.42409 23.0196 8.42206 22.9689 8.42206C22.9187 8.42206 22.869 8.42404 22.8196 8.42699C22.8077 8.4277 22.7959 8.42882 22.7841 8.42968C22.7435 8.43268 22.7032 8.43664 22.6632 8.44161C22.6538 8.44278 22.6445 8.4439 22.6351 8.44522C22.4801 8.46619 22.3297 8.50158 22.185 8.54998C22.1809 8.55135 22.1769 8.55272 22.1728 8.55414C22.127 8.56973 22.0817 8.58649 22.0371 8.60467C22.0334 8.60619 22.0297 8.60756 22.026 8.60909C21.9794 8.62833 21.9335 8.6487 21.8884 8.67064C21.8786 8.67541 21.8691 8.68069 21.8593 8.68556C21.8285 8.70105 21.798 8.71705 21.7679 8.73381C21.7591 8.73868 21.75 8.7429 21.7413 8.74787C21.2743 8.35051 20.986 7.75332 20.9552 7.09495C20.9211 6.36695 21.3479 5.37057 22.126 4.3613C22.5161 3.85541 22.8919 3.47349 23.1893 3.21395C23.1051 4.29878 23.6699 4.85377 24.1398 5.31542C24.5715 5.7396 24.9444 6.10588 24.9818 6.90635C25.0161 7.6381 24.7269 8.3207 24.2134 8.75752Z" fill="#13377D"/>
</g>
<defs>
<clipPath id="clip0">
<rect width="26" height="26" fill="white"/>
</clipPath>
</defs>
</svg>
