<svg xmlns="http://www.w3.org/2000/svg" width="26" height="26" fill="none" viewBox="0 0 26 26"><g clip-path="url(#clip0)"><path fill="#13377D" d="M19.446 3.90697C19.38 3.70397 19.1617 3.59303 18.959 3.65899C18.7561 3.72499 18.6451 3.94304 18.7111 4.146C18.7658 4.31423 18.7973 4.48931 18.8048 4.66691C18.806 4.69577 18.8067 4.72457 18.8067 4.75317C18.8067 5.27202 18.6073 5.76264 18.2453 6.1347C17.9755 6.41216 17.7555 6.74017 17.6002 7.09497L16.0473 7.09492C15.7816 6.48796 15.4279 6.17015 15.3229 6.04773C15.3191 6.04582 15.2463 5.95323 15.2437 5.94988C14.9828 5.60688 14.8409 5.1902 14.8409 4.75317C14.8409 3.65981 15.7305 2.77034 16.8238 2.77034C16.8497 2.77034 16.8759 2.7708 16.902 2.77183C17.2072 2.78353 17.4984 2.86416 17.7676 3.01147C17.9548 3.11396 18.1896 3.04522 18.2921 2.85803C18.3945 2.67084 18.3258 2.43599 18.1386 2.33351C17.7688 2.13112 17.3515 2.01565 16.9315 1.99952C15.3637 1.94084 14.0681 3.19794 14.0681 4.75317C14.0681 4.95087 14.0896 5.14543 14.1302 5.33468C13.7141 4.98183 13.1836 4.78259 12.619 4.78259H8.86159C6.73716 4.78259 5.00876 6.51094 5.00876 8.63541V11.4675C5.00876 11.5491 5.03422 11.6247 5.07734 11.6871C4.74444 12.0376 4.54143 12.512 4.54143 13.0344C4.54143 14.0258 5.28308 14.8471 6.24067 14.9728C6.56152 16.3483 7.47232 17.5843 8.81537 18.2791V18.8755L7.48572 19.5979H6.97789C5.6215 19.5979 4.51799 20.7014 4.51799 22.0578V25.6137C4.51799 25.8271 4.69101 26.0001 4.90443 26.0001H6.31317C6.52658 26.0001 6.6996 25.8271 6.6996 25.6137C6.6996 25.4003 6.52658 25.2272 6.31317 25.2272H5.29086V22.0578C5.29086 21.1276 6.04766 20.3708 6.97789 20.3708H7.45578L9.63559 21.9954C9.70273 22.0455 9.80006 22.0796 9.90182 22.0703C9.90306 22.0702 9.90429 22.0702 9.90548 22.07L10.0943 22.81L9.61946 25.2272H8.11654C7.90312 25.2272 7.7301 25.4002 7.7301 25.6136C7.7301 25.827 7.90312 26.0001 8.11654 26.0001H17.3413C17.5548 26.0001 17.7277 25.827 17.7277 25.6136V22.0577C17.7277 20.7013 16.6242 19.5978 15.2678 19.5978H14.7458L13.4162 18.8755V18.2791C14.7592 17.5843 15.67 16.3483 15.9909 14.9728C16.9485 14.8471 17.6902 14.0258 17.6902 13.0344C17.6902 12.5119 17.4872 12.0376 17.1543 11.687C17.1974 11.6246 17.2228 11.549 17.2228 11.4675V9.70429C17.8163 9.53122 18.2514 8.98258 18.2514 8.33399V7.54973C18.3696 7.2242 18.5577 6.9221 18.7995 6.67355C19.3025 6.1565 19.5796 5.47446 19.5796 4.75322C19.5796 4.71339 19.5788 4.67341 19.577 4.63373C19.5665 4.38646 19.5225 4.14198 19.446 3.90697ZM5.78164 8.63541C5.78164 6.93715 7.16328 5.55546 8.86159 5.55546H12.619C13.1641 5.55546 13.6622 5.8323 13.9514 6.29598C14.021 6.40753 14.1424 6.47605 14.2739 6.47791C14.4232 6.48002 14.5722 6.49728 14.7181 6.52938C14.8756 6.71693 15.1867 6.9726 15.3963 7.54983C15.3963 8.39324 15.3942 8.37181 15.4025 8.46404C15.4572 9.06724 15.8874 9.55925 16.4499 9.71187V11.0811C15.9505 11.0811 15.9832 11.0811 15.0873 11.0811C14.6641 11.0811 14.2698 10.8907 14.0055 10.5586C13.8646 10.3815 13.6068 10.3666 13.4452 10.5114C13.3684 10.5803 13.2874 10.6434 13.2028 10.7004C12.8364 10.9475 12.4035 11.081 11.9563 11.081C11.6946 11.081 6.04343 11.081 5.78164 11.081V8.63541ZM9.82366 21.1718L8.29924 20.0355L9.18145 19.5563L10.5177 20.4471L9.82366 21.1718ZM11.1158 19.9169L9.58829 18.8985V18.6017C9.98941 18.7307 10.424 18.8105 10.8582 18.8324C10.8728 18.8332 10.8873 18.8343 10.902 18.835C11.5046 18.8602 12.1034 18.7753 12.6433 18.6017V18.8985L11.1158 19.9169ZM11.6693 21.518L11.441 22.4126H10.7905L10.5622 21.518C10.9026 21.1626 10.8038 21.2658 11.1157 20.94C11.4273 21.2653 11.3288 21.1624 11.6693 21.518ZM10.4072 25.2272L10.8082 23.1855H11.4231L11.8242 25.2272H10.4072ZM14.7758 20.3708H15.2678C16.1981 20.3708 16.9549 21.1276 16.9549 22.0578V25.2273H12.6119L12.1371 22.8105L12.3261 22.0701C12.4187 22.0795 12.5174 22.054 12.596 21.9955L14.7758 20.3708ZM13.9323 20.0355L12.4079 21.1718L11.7138 20.4471L13.0501 19.5563L13.9323 20.0355ZM15.7351 14.2166C15.719 14.2166 15.7029 14.216 15.6869 14.2153C15.492 14.2066 15.3222 14.3456 15.2901 14.5377C14.9404 16.6293 13.1392 18.0669 11.1158 18.0669C9.08206 18.0669 7.28982 16.6209 6.94146 14.5377C6.91019 14.3509 6.7484 14.215 6.56049 14.215C6.55523 14.215 6.54998 14.2151 6.54472 14.2153C6.5287 14.216 6.51262 14.2166 6.49644 14.2166C5.8446 14.2166 5.31431 13.6863 5.31431 13.0344C5.31431 12.4002 5.80858 11.8831 6.44095 11.854H11.9563C12.5526 11.854 13.1512 11.6769 13.6667 11.3195C14.0566 11.6627 14.5573 11.854 15.0872 11.854H15.7905C16.4229 11.8831 16.9171 12.4002 16.9171 13.0344C16.9172 13.6863 16.3869 14.2166 15.7351 14.2166ZM17.4784 8.33409C17.4784 8.69126 17.1903 8.98382 16.8317 8.9881C16.0706 8.99835 16.1693 8.20214 16.1693 7.86795H17.4784V8.33409Z"/><path fill="#13377D" d="M16.8241 1.63818C17.0375 1.63818 17.2105 1.46516 17.2105 1.25175V0.386438C17.2105 0.173022 17.0375 1.90735e-06 16.8241 1.90735e-06C16.6106 1.90735e-06 16.4376 0.173022 16.4376 0.386438V1.25175C16.4376 1.46516 16.6106 1.63818 16.8241 1.63818Z"/><path fill="#13377D" d="M14.52 2.10102C14.6709 2.25188 14.9156 2.25199 15.0665 2.10102C15.2175 1.9501 15.2175 1.70546 15.0665 1.55455L14.4547 0.942689C14.3038 0.791772 14.0591 0.791721 13.9082 0.942689C13.7573 1.0936 13.7573 1.33824 13.9082 1.48916L14.52 2.10102Z"/><path fill="#13377D" d="M19.7395 0.942599C19.5887 0.791631 19.344 0.791683 19.1931 0.942599L18.5812 1.55446C18.4303 1.70537 18.4303 1.95007 18.5813 2.10093C18.732 2.2518 18.9768 2.2519 19.1277 2.10093L19.7396 1.48907C19.8905 1.33821 19.8905 1.09352 19.7395 0.942599Z"/><path fill="#13377D" d="M21.0957 3.15228H20.2304C20.0169 3.15228 19.8439 3.3253 19.8439 3.53872C19.8439 3.75213 20.0169 3.92515 20.2304 3.92515H21.0957C21.3092 3.92515 21.4822 3.75213 21.4822 3.53872C21.4822 3.3253 21.3091 3.15228 21.0957 3.15228Z"/><path fill="#13377D" d="M12.552 3.92515H13.4173C13.6308 3.92515 13.8038 3.75213 13.8038 3.53872C13.8038 3.3253 13.6308 3.15228 13.4173 3.15228H12.552C12.3386 3.15228 12.1656 3.3253 12.1656 3.53872C12.1656 3.75213 12.3386 3.92515 12.552 3.92515Z"/><path fill="#13377D" d="M8.86099 12.558C8.64758 12.558 8.47456 12.731 8.47456 12.9444V13.795C8.47456 14.0085 8.64758 14.1815 8.86099 14.1815C9.0744 14.1815 9.24742 14.0085 9.24742 13.795V12.9444C9.24742 12.731 9.0744 12.558 8.86099 12.558Z"/><path fill="#13377D" d="M13.3707 12.558C13.1573 12.558 12.9843 12.731 12.9843 12.9444V13.795C12.9843 14.0085 13.1573 14.1815 13.3707 14.1815C13.5842 14.1815 13.7572 14.0085 13.7572 13.795V12.9444C13.7572 12.731 13.5842 12.558 13.3707 12.558Z"/><path fill="#13377D" d="M12.0967 14.8526C11.8833 14.8526 11.7103 15.0256 11.7103 15.239C11.7103 15.5669 11.4435 15.8336 11.1157 15.8336C10.7878 15.8336 10.5211 15.5669 10.5211 15.239C10.5211 15.0256 10.348 14.8526 10.1346 14.8526C9.92121 14.8526 9.74819 15.0256 9.74819 15.239C9.74819 15.993 10.3616 16.6065 11.1157 16.6065C11.8697 16.6065 12.4831 15.993 12.4831 15.239C12.4831 15.0256 12.3101 14.8526 12.0967 14.8526Z"/></g><defs><clipPath id="clip0"><rect width="26" height="26" fill="#fff"/></clipPath></defs></svg>