<svg xmlns="http://www.w3.org/2000/svg" width="26" height="26" fill="none" viewBox="0 0 26 26"><path fill="#13377D" d="M14.779 12.3301C14.8557 12.4801 15.0082 12.5667 15.1659 12.5667C15.2318 12.5667 15.2994 12.5515 15.3622 12.5195C15.3878 12.5065 17.9384 11.2108 19.1963 10.8134C19.4243 10.7411 19.5508 10.4975 19.4784 10.2696C19.4065 10.0417 19.1647 9.91472 18.9346 9.98668C17.6095 10.4057 15.0763 11.6927 14.9688 11.7473C14.7556 11.8556 14.6707 12.1165 14.779 12.3301Z"/><path fill="#13377D" d="M15.1659 7.36675C15.2318 7.36675 15.2994 7.35157 15.3622 7.31953C15.3878 7.30653 17.9384 6.01086 19.1963 5.6135C19.4243 5.54113 19.5508 5.29759 19.4784 5.06969C19.4065 4.84173 19.1647 4.71478 18.9346 4.78674C17.6095 5.20578 15.0762 6.49277 14.9688 6.54735C14.7556 6.65567 14.6707 6.91653 14.779 7.13017C14.8557 7.28007 15.0082 7.36675 15.1659 7.36675Z"/><path fill="#13377D" d="M25.5664 6.50014C25.3268 6.50014 25.1331 6.69428 25.1331 6.93345V23.8333C25.1331 24.55 24.5499 25.1333 23.8331 25.1333H13.4332V24.1362C14.065 23.9152 15.7108 23.4 17.3332 23.4C21.1079 23.4 23.6711 24.2359 23.6966 24.2445C23.827 24.2878 23.9727 24.2662 24.0866 24.1847C24.1997 24.1032 24.2664 23.9724 24.2664 23.8332V4.76684C24.2664 4.56362 24.1256 4.38766 23.9271 4.34389C23.9271 4.34389 23.5874 4.26807 23.0067 4.16143C22.7723 4.11812 22.5457 4.27412 22.5023 4.50898C22.459 4.7447 22.6145 4.97047 22.8499 5.01379C23.0713 5.05452 23.2568 5.09047 23.3998 5.11911V23.2574C22.4178 23 20.2373 22.5333 17.3331 22.5333C15.4451 22.5333 13.5905 23.1534 13.0167 23.3636C12.5067 23.1383 10.9649 22.5333 9.09986 22.5333C6.11507 22.5333 3.65637 23.0256 2.59992 23.2756V5.1022C3.46528 4.88943 6.02107 4.33348 9.09986 4.33348C10.6798 4.33348 12.0348 4.82529 12.5665 5.04761V22.1C12.5665 22.256 12.6506 22.4003 12.7862 22.477C12.9218 22.5541 13.0891 22.5519 13.223 22.4713C13.2659 22.4458 17.5593 19.8813 21.37 18.6112C21.5472 18.5519 21.6664 18.3868 21.6664 18.2V0.433518C21.6664 0.291383 21.5966 0.158338 21.4796 0.0773423C21.3635 -0.00370374 21.2145 -0.0223403 21.0806 0.0275264C17.6135 1.32792 14.1053 3.51103 14.0702 3.53272C13.8674 3.65967 13.8054 3.92703 13.9324 4.12985C14.0589 4.33267 14.3263 4.39462 14.5295 4.26767C14.5615 4.2473 17.6135 2.34846 20.7997 1.06711V17.8898C17.8418 18.9177 14.7535 20.596 13.4331 21.3473V4.76684C13.4331 4.60262 13.3404 4.45266 13.1935 4.37903C13.119 4.34221 11.3432 3.46686 9.09986 3.46686C5.18431 3.46686 2.17397 4.31403 2.04743 4.35039C1.86152 4.40325 1.73325 4.57357 1.73325 4.76684V23.8333C1.73325 23.969 1.79738 24.0972 1.90529 24.1792C1.98157 24.2368 2.07343 24.2667 2.16661 24.2667C2.20647 24.2667 2.24634 24.2611 2.28534 24.2498C2.31525 24.2416 5.31172 23.4 9.09986 23.4C10.6841 23.4 12.0378 23.8932 12.5665 24.1146V25.1333H2.16661C1.44989 25.1333 0.866624 24.5501 0.866624 23.8333V6.9335C0.866624 6.69433 0.672489 6.50019 0.433312 6.50019C0.194135 6.50019 0 6.69433 0 6.9335V23.8333C0 25.028 0.971943 26 2.16666 26H23.8331C25.0278 26 25.9998 25.0281 25.9998 23.8333V6.9335C25.9997 6.69428 25.8061 6.50014 25.5664 6.50014Z"/><path fill="#13377D" d="M14.779 9.73026C14.8557 9.88021 15.0082 9.96685 15.1659 9.96685C15.2318 9.96685 15.2994 9.95166 15.3622 9.91962C15.3878 9.90662 17.9384 8.61095 19.1963 8.21359C19.4243 8.14123 19.5508 7.89768 19.4784 7.66978C19.4065 7.44182 19.1647 7.31487 18.9346 7.38683C17.6095 7.80587 15.0763 9.09286 14.9688 9.14745C14.7556 9.25576 14.6707 9.51668 14.779 9.73026Z"/><path fill="#13377D" d="M14.779 14.93C14.8557 15.0799 15.0082 15.1665 15.1659 15.1665C15.2318 15.1665 15.2994 15.1514 15.3622 15.1193C15.3878 15.1063 17.9384 13.8106 19.1963 13.4133C19.4243 13.3409 19.5508 13.0974 19.4784 12.8695C19.4065 12.6415 19.1647 12.5146 18.9346 12.5865C17.6095 13.0056 15.0763 14.2926 14.9688 14.3471C14.7556 14.4555 14.6707 14.7164 14.779 14.93Z"/><path fill="#13377D" d="M10.4976 8.04199C7.82177 7.41409 4.78107 8.21404 4.65326 8.24826C4.42231 8.31022 4.28494 8.54767 4.3469 8.77908C4.3989 8.97275 4.57394 9.10016 4.76508 9.10016C4.80235 9.10016 4.84003 9.09539 4.87776 9.08544C4.90681 9.07721 7.83436 8.30717 10.3 8.88567C10.5318 8.93985 10.7663 8.79553 10.8209 8.56239C10.8754 8.32972 10.7307 8.09658 10.4976 8.04199Z"/><path fill="#13377D" d="M10.4976 10.6419C7.82177 10.0144 4.78107 10.8139 4.65326 10.8482C4.42231 10.9101 4.28494 11.1476 4.3469 11.379C4.3989 11.5726 4.57394 11.7001 4.76508 11.7001C4.80235 11.7001 4.84003 11.6953 4.87776 11.6853C4.90681 11.6771 7.83436 10.9071 10.3 11.4856C10.5318 11.5397 10.7663 11.3954 10.8209 11.1623C10.8754 10.9296 10.7307 10.6965 10.4976 10.6419Z"/><path fill="#13377D" d="M14.779 17.5303C14.8557 17.6803 15.0082 17.7669 15.1659 17.7669C15.2318 17.7669 15.2994 17.7517 15.3622 17.7197C15.3878 17.7067 17.9384 16.411 19.1963 16.0136C19.4243 15.9413 19.5508 15.6977 19.4784 15.4698C19.4065 15.2419 19.1647 15.1149 18.9346 15.1869C17.6095 15.6059 15.0763 16.8929 14.9688 16.9475C14.7556 17.0558 14.6707 17.3167 14.779 17.5303Z"/><path fill="#13377D" d="M10.4976 13.2418C7.82177 12.6144 4.78107 13.4134 4.65326 13.4481C4.42231 13.51 4.28494 13.7475 4.3469 13.9789C4.3989 14.1726 4.57394 14.3004 4.76508 14.3004C4.80235 14.3004 4.84003 14.2953 4.87776 14.2853C4.90681 14.277 7.83436 13.507 10.3 14.0855C10.5318 14.1397 10.7663 13.9954 10.8209 13.7622C10.8754 13.5295 10.7307 13.2964 10.4976 13.2418Z"/><path fill="#13377D" d="M10.4976 18.4419C7.82177 17.814 4.78107 18.6139 4.65326 18.6481C4.42231 18.7101 4.28494 18.9476 4.3469 19.179C4.3989 19.3726 4.57394 19.5005 4.76508 19.5005C4.80235 19.5005 4.84003 19.4953 4.87776 19.4853C4.90681 19.4771 7.83436 18.707 10.3 19.2855C10.5318 19.3393 10.7663 19.1954 10.8209 18.9623C10.8754 18.7296 10.7307 18.4965 10.4976 18.4419Z"/><path fill="#13377D" d="M10.4976 15.8419C7.82177 15.214 4.78107 16.0134 4.65326 16.0481C4.42231 16.1101 4.28494 16.3476 4.3469 16.5789C4.3989 16.7726 4.57394 16.9005 4.76508 16.9005C4.80235 16.9005 4.84003 16.8953 4.87776 16.8853C4.90681 16.8771 7.83436 16.107 10.3 16.6855C10.5318 16.7397 10.7663 16.5954 10.8209 16.3623C10.8754 16.1296 10.7307 15.8964 10.4976 15.8419Z"/></svg>