<svg xmlns="http://www.w3.org/2000/svg" width="26" height="26" fill="none" viewBox="0 0 26 26"><g clip-path="url(#clip0)"><path fill="#13377D" d="M25.4585 12.4584C25.7618 12.4584 26.0002 12.6967 26.0002 13.0001C26.0002 13.3034 25.7618 13.5417 25.4585 13.5417H24.9168V12.4584H25.4585Z"/><path fill="#13377D" d="M13.5418 12.4584H24.9168V13.5417H13.5418V12.4584Z"/><path fill="#13377D" d="M23.2917 26H13C13.3033 26 13.5417 25.7617 13.5417 25.4583V24.9167H23.2917C24.1908 24.9167 24.9167 24.1908 24.9167 23.2917V13.5417H25.4583C25.7617 13.5417 26 13.3033 26 13V23.2917C26 24.7867 24.7867 26 23.2917 26Z"/><path fill="#13377D" d="M26 2.70833V13C26 12.6967 25.7617 12.4583 25.4583 12.4583H24.9167V2.70833C24.9167 1.80916 24.1908 1.08333 23.2917 1.08333H13.5417V0.541659C13.5417 0.238326 13.3033 -7.62939e-06 13 -7.62939e-06H23.2917C24.7867 -7.62939e-06 26 1.21333 26 2.70833Z"/><path fill="#13377D" d="M21.6668 6.5C21.9701 6.5 22.2085 6.73833 22.2085 7.04167C22.2085 7.345 21.9701 7.58334 21.6668 7.58334H17.3335C17.0301 7.58334 16.7918 7.345 16.7918 7.04167C16.7918 6.73833 17.0301 6.5 17.3335 6.5H21.6668Z"/><path fill="#13377D" d="M21.6668 17.3334C21.9701 17.3334 22.2085 17.5718 22.2085 17.8751C22.2085 18.1784 21.9701 18.4167 21.6668 18.4167H17.3335C17.0301 18.4167 16.7918 18.1784 16.7918 17.8751C16.7918 17.5718 17.0301 17.3334 17.3335 17.3334H21.6668Z"/><path fill="#13377D" d="M21.6668 20.5834C21.9701 20.5834 22.2085 20.8218 22.2085 21.1251C22.2085 21.4284 21.9701 21.6667 21.6668 21.6667H17.3335C17.0301 21.6667 16.7918 21.4284 16.7918 21.1251C16.7918 20.8218 17.0301 20.5834 17.3335 20.5834H21.6668Z"/><path fill="#13377D" d="M13.5415 24.9166V25.4583C13.5415 25.7616 13.3032 26 12.9998 26C12.6965 26 12.4582 25.7616 12.4582 25.4583V24.9166H13.5415Z"/><path fill="#13377D" d="M12.4582 13.5416H13.5415V24.9166H12.4582V13.5416Z"/><path fill="#13377D" d="M12.4582 12.4584H13.5415V13.5417H12.4582V12.4584Z"/><path fill="#13377D" d="M12.4582 1.0834H13.5415V12.4584H12.4582V1.0834Z"/><path fill="#13377D" d="M13.5415 0.541659V1.08333H12.4582V0.541659C12.4582 0.238326 12.6965 -7.62939e-06 12.9998 -7.62939e-06C13.3032 -7.62939e-06 13.5415 0.238326 13.5415 0.541659Z"/><path fill="#13377D" d="M1.08318 12.4584H12.4582V13.5417H1.08318V12.4584Z"/><path fill="#13377D" d="M8.66681 6.5C8.97014 6.5 9.20847 6.73833 9.20847 7.04167C9.20847 7.345 8.97014 7.58334 8.66681 7.58334H7.04181V6.5H8.66681Z"/><path fill="#13377D" d="M8.50417 20.7458C8.72084 20.9517 8.72084 21.2983 8.50417 21.5042C8.40667 21.6125 8.26584 21.6667 8.12501 21.6667C7.98417 21.6667 7.84334 21.6125 7.74584 21.5042L6.5 20.2583L7.25834 19.5L8.50417 20.7458Z"/><path fill="#13377D" d="M7.74584 17.4959C7.95167 17.2793 8.29834 17.2793 8.50417 17.4959C8.72084 17.7018 8.72084 18.0484 8.50417 18.2543L7.25834 19.5001L6.5 18.7417L7.74584 17.4959Z"/><path fill="#13377D" d="M5.73872 19.499L6.49709 18.7406L7.25546 19.499L6.49709 20.2574L5.73872 19.499Z"/><path fill="#13377D" d="M7.04151 7.5834V9.2084C7.04151 9.51173 6.80318 9.75007 6.49985 9.75007C6.19651 9.75007 5.95818 9.51173 5.95818 9.2084V7.5834H7.04151Z"/><path fill="#13377D" d="M5.95818 6.5H7.04151V7.58334H5.95818V6.5Z"/><path fill="#13377D" d="M7.04151 4.87507V6.50007H5.95818V4.87507C5.95818 4.57174 6.19651 4.3334 6.49985 4.3334C6.80318 4.3334 7.04151 4.57174 7.04151 4.87507Z"/><path fill="#13377D" d="M6.49985 18.7417L5.74151 19.5001L4.49568 18.2543C4.27901 18.0484 4.27901 17.7018 4.49568 17.4959C4.70151 17.2793 5.04818 17.2793 5.25401 17.4959L6.49985 18.7417Z"/><path fill="#13377D" d="M5.95848 6.5V7.58334H4.33348C4.03015 7.58334 3.79182 7.345 3.79182 7.04167C3.79182 6.73833 4.03015 6.5 4.33348 6.5H5.95848Z"/><path fill="#13377D" d="M5.25401 21.5042C5.15651 21.6125 5.01568 21.6667 4.87484 21.6667C4.73401 21.6667 4.59318 21.6125 4.49568 21.5042C4.27901 21.2983 4.27901 20.9517 4.49568 20.7458L5.74151 19.5L6.49985 20.2583L5.25401 21.5042Z"/><path fill="#13377D" d="M1.08333 12.4584V13.5417H0.541659C0.238326 13.5417 -7.62939e-06 13.3034 -7.62939e-06 13.0001C-7.62939e-06 12.6967 0.238326 12.4584 0.541659 12.4584H1.08333Z"/><path fill="#13377D" d="M0 2.70833C0 1.21333 1.21333 0 2.70833 0H13C12.6967 0 12.4583 0.238333 12.4583 0.541667V1.08333H2.70833C1.80917 1.08333 1.08333 1.80917 1.08333 2.70833V12.4583H0.541667C0.238333 12.4583 0 12.6967 0 13V2.70833Z"/><path fill="#13377D" d="M1.08333 23.2917C1.08333 24.1908 1.80916 24.9167 2.70833 24.9167H12.4583V25.4583C12.4583 25.7617 12.6967 26 13 26H2.70833C1.21333 26 -7.62939e-06 24.7867 -7.62939e-06 23.2917V13C-7.62939e-06 13.3033 0.238326 13.5417 0.541659 13.5417H1.08333V23.2917Z"/></g><defs><clipPath id="clip0"><rect width="26" height="26" fill="#fff"/></clipPath></defs></svg>