<svg fill="none" height="33" viewBox="0 0 39 33" width="39" xmlns="http://www.w3.org/2000/svg" xmlns:xlink="http://www.w3.org/1999/xlink"><clipPath id="a"><path d="m0 0h39v33h-39z"/></clipPath><g clip-path="url(#a)" fill="#041e42"><path d="m10.1772 21.4156c-.5575-.3727-1.25617-.578-1.96732-.578-.96649 0-1.8665.3634-2.4693.9971-.5271.5548-.76575 1.2488-.67168 1.9541.09419.7068.5109 1.3399 1.17322 1.7829.55745.3728 1.25588.5781 1.96691.5781.96721 0 1.86737-.3641 2.46967-.9984.5266-.5538.765-1.2471.6713-1.9521-.0939-.7068-.5104-1.3403-1.1728-1.7837zm-.62073 2.9724c-.3278.3454-.81902.5436-1.34744.5436-.39391 0-.76538-.1092-1.07398-.3156-.35888-.24-.58445-.5822-.63544-.9637-.05064-.3801.07823-.7545.36271-1.0538.32792-.3448.81914-.5425 1.34756-.5425.39427 0 .76586.1091 1.07434.3154.35876.24.58421.5825.63496.9642.05052.3797-.07811.7533-.36271 1.0524z"/><path d="m22.8368 15.1763c.4749 0 .9341-.088 1.3659-.2621.7634-.3091 1.3368-.8497 1.6143-1.5224.2761-.6684.2264-1.3878-.1395-2.0248-.5235-.9132-1.6416-1.50323-2.8483-1.50323-.4758 0-.936.08833-1.3677.26263-.7631.308-1.3367.8483-1.6147 1.5212-.2766.6689-.227 1.3883.1395 2.0257.5252.9131 1.6441 1.503 2.8505 1.503zm-1.6311-3.1266c.1505-.3639.4615-.6565.8757-.8238.2366-.0954.4881-.1438.7477-.1438.6589 0 1.2684.3205 1.553.8171.1974.3435.2241.7308.0756 1.0909-.1504.3641-.4617.6571-.8754.8247-.2358.0951-.4867.1432-.7456.1432-.6595 0-1.2702-.321-1.556-.8178-.1971-.343-.2238-.7303-.075-1.0905z"/><path d="m15.0024 10.8713c.2315.0443.4685.0667.7043.0667 1.482 0 2.7482-.8481 3.0794-2.06372.1861-.68926.0429-1.39882-.4027-1.99823-.4493-.60408-1.1516-1.02399-1.9769-1.18217-.2325-.04467-.4704-.06742-.7073-.06742-1.4811 0-2.746.84907-3.076 2.06443-.1877.68876-.0455 1.39842.4002 1.99824.4497.60487 1.1527 1.02477 1.979 1.18217zm-.976-2.9071c.1789-.659.8669-1.11932 1.6728-1.11932.1295 0 .2602.01249.3887.03716.4501.08629.8325.31463 1.0768.64296.2407.32356.318.70632.2179 1.07668-.1765.64784-.8814 1.11801-1.6761 1.11801-.1291 0-.2592-.01239-.3874-.03686-.4503-.08579-.8327-.31391-1.0769-.64225-.2402-.32336-.3168-.7055-.2158-1.07638z"/><path d="m9.28173 12.3911c.6616-.4435 1.07757-1.0772 1.17167-1.7841.0937-.70479-.1442-1.39801-.67109-1.95285-.60377-.63342-1.5045-.99668-2.47098-.99668-.71043 0-1.40838.20468-1.96596.57677-.66171.44225-1.07794 1.07485-1.17237 1.78126-.09431.7057.14422 1.4002.67204 1.9559.60328.6341 1.50413.9979 2.47169.9979.71103-.0001 1.40899-.2054 1.965-.5782zm-3.31459-1.1835c-.28509-.3001-.41407-.6749-.3632-1.0554.05088-.38106.27621-.7228.63376-.96189.30849-.2059.67984-.31473 1.07375-.31473.5289 0 1.0212.19797 1.34936.54225.28376.29909.41238.67297.36187 1.05287-.05075.3821-.27632.7251-.63496.9655-.30704.2058-.67744.3146-1.07087.3146-.52949.0001-1.02143-.1981-1.34971-.5432z"/><path d="m38.7246 6.43012c-.1244-.1062-.3464-.2328-.6966-.2328-.4107 0-1.5017 0-8.1278 4.77088-.1332.0959-.2676.193-.4024.2909-1.1839-2.61318-3.264-4.94289-5.9443-6.62802-3.0733-1.93214-6.7329-2.954-10.5827-2.95481-.0012 0-.0021 0-.003 0-2.5982 0-5.75645.76815-8.24266 2.00504-3.04763 1.51598-4.72573977 3.54345-4.72513984 5.7087.00095988 2.61409 1.74338984 3.70749 3.14348984 4.58599 1.14166.7165 2.04335 1.2823 2.04383 2.5223.00036 1.24-.90085 1.8053-2.04191 2.521-1.39962.878-3.1416903 1.9709-3.14073042 4.5853.00071992 2.1649 1.67991042 4.1929 4.72814042 5.7102 2.48801 1.2384 5.64798 2.0082 8.24658 2.0088h.005c4.7161 0 9.1494-1.5403 12.4838-4.3372 3.2919-2.7612 5.1228-6.4211 5.1709-10.3212 1.1177-1.0763 2.2006-2.1461 3.1892-3.1542 1.6913-1.7245 2.9918-3.1475 3.8654-4.22922 1.1574-1.43283 1.6642-2.31164 1.0309-2.85166zm-14.2699 19.69108c-3.0631 2.5694-7.1362 3.9841-11.4701 3.9841-.0014 0-.0033 0-.0046 0-4.64427-.0012-11.53418-2.7314-11.5355-6.5012-.00072-2.0007 1.24233-2.7805 2.55845-3.6062 1.23021-.7718 2.62455-1.6465 2.62407-3.5-.00072-1.8531-1.39542-2.7284-2.62599-3.5005-1.31672-.8263-2.56049-1.6067-2.56121-3.6077-.0006-2.31489 2.51525-3.9121 4.01507-4.65821 2.24348-1.11608 5.19211-1.83701 7.51291-1.83701h.0025c3.5385.00081 6.9012.93952 9.7245 2.7144 2.604 1.6371 4.5916 3.93524 5.6386 6.50262-3.1226 2.3071-6.504 4.9671-9.0223 7.1048-4.1825.4581-4.7523 2.8167-5.1689 4.5495-.3547 1.4753-.5849 2.1887-1.9308 2.28-.3317.0226-.6017.2344-.6535.5124s.1283.5499.4357.6576c.0865.0303 2.145.742 4.55.7421h.0008c1.676 0 3.1136-.3438 4.2729-1.0217 1.4286-.8353 2.3972-2.1597 2.884-3.9358 1.6453-1.4086 3.5254-3.1071 5.3844-4.8567-.4278 3.0122-2.0343 5.7993-4.631 7.9775zm-2.1998-3.2362c-.7629 2.5581-2.6824 3.8548-5.7106 3.8547 0 0-.0005 0-.0007 0-.7985 0-1.5632-.0922-2.2061-.2071.7679-.6627 1.0078-1.6599 1.2155-2.5238.3956-1.6455.7697-3.2028 3.8303-3.5728zm9.9415-9.6206c-2.8539 2.877-6.3083 6.1077-9.1519 8.5642l-.4402-.3755-1.9425-1.6566c2.5783-2.1716 5.8858-4.761 8.9717-7.0272.3597-.2642.7171-.525 1.0694-.7792 3.5812-2.58436 5.458-3.70906 6.4154-4.19852-.5718.81495-1.8887 2.41512-4.9219 5.47282z"/></g></svg>