<svg fill="none" height="36" viewBox="0 0 36 36" width="36" xmlns="http://www.w3.org/2000/svg"><g fill="#041e42"><path d="m22.9219 14.8359c0-2.1323-1.7348-3.8671-3.8672-3.8671h-5.2735c-.3882 0-.7031.3148-.7031.7031v6.3281c0 .3883.3149.7031.7031.7031h5.2735c2.1324 0 3.8672-1.7348 3.8672-3.8672zm-8.4375-2.4609h4.5703c1.3569 0 2.4609 1.104 2.4609 2.4609 0 1.357-1.104 2.461-2.4609 2.461h-4.5703z"/><path d="m27.1406 14.8359c0-4.4585-3.6274-8.0859-8.086-8.0859h-9.49216c-.38827 0-.70313.31486-.70313.70312v21.09378c0 .3882.31486.7031.70313.7031h4.21876c.3883 0 .7031-.3149.7031-.7031v-5.625h4.5703c4.4586 0 8.086-3.6274 8.086-8.086zm-13.3594 6.6797c-.3883 0-.7031.3149-.7031.7032v5.625h-2.8125v-19.68755h8.789c3.6832 0 6.6797 2.99655 6.6797 6.67965 0 3.6832-2.9965 6.6797-6.6797 6.6797z"/><path d="m18 36c.3883 0 .7031-.3148.7031-.7031 0-.3884-.3148-.7031-.7031-.7031s-.7031.3147-.7031.7031c0 .3883.3148.7031.7031.7031z"/><path d="m33.1875 0h-30.375c-1.55081 0-2.8125 1.26169-2.8125 2.8125v30.375c0 1.5508 1.26169 2.8125 2.8125 2.8125h12.0234c.3883 0 .7032-.3149.7032-.7031 0-.3883-.3149-.7031-.7032-.7031h-12.0234c-.77541 0-1.40625-.6309-1.40625-1.4063v-30.375c0-.77541.63084-1.40625 1.40625-1.40625h30.375c.7754 0 1.4063.63084 1.4063 1.40625v30.375c0 .7754-.6309 1.4063-1.4063 1.4063h-12.0234c-.3883 0-.7032.3148-.7032.7031 0 .3882.3149.7031.7032.7031h12.0234c1.5508 0 2.8125-1.2617 2.8125-2.8125v-30.375c0-1.55081-1.2617-2.8125-2.8125-2.8125z"/></g></svg>