<svg fill="none" height="40" viewBox="0 0 42 40" width="42" xmlns="http://www.w3.org/2000/svg"><g fill="#041e42"><path d="m7.38281 22.5504c.21565 0 .42746-.0807.57999-.2211.15253-.1403.24032-.3349.24032-.5336 0-.1993-.08779-.393-.24032-.5336-.15253-.1403-.36434-.2211-.57999-.2211s-.42746.0808-.57998.2211c-.15253.1406-.24033.3343-.24033.5336 0 .1987.0878.3933.24033.5336.15252.1404.36433.2211.57998.2211z"/><path d="m33.8683 22.3047c.7643.3426 1.6028.5207 2.4715.5207 3.1211 0 5.6602-2.3361 5.6602-5.2075 0-2.605-2.0902-4.7694-4.8084-5.1486.1204-.5456.1813-1.1025.1813-1.6644 0-4.59846-4.0663-8.33957-9.0644-8.33957-4.9985 0-9.0645 3.74111-9.0645 8.33957 0 .2697.0141.54.0423.8089-3.0854.8087-5.2506 3.4-5.2506 6.4165 0 1.064.2666 2.0849.7773 3.0106h-4.1489c-.4531 0-.82035.3378-.82035.7547 0 .4166.36725.7547.82035.7547h9.5156v3.3207h-18.53908v-3.3207h2.46094c.4531 0 .82032-.3381.82032-.7547 0-.4169-.36722-.7547-.82032-.7547h-3.281248c-.453094 0-.820312.3378-.820312.7547v4.8301c0 .4166.367218.7547.820312.7547h2.460938v2.7073h-2.460938c-.453094 0-.820312.3378-.820312.7547v3.0188c0 .4168.367218.7547.820312.7547h2.460938v1.9622h-2.460938c-.453094 0-.820312.3379-.820312.7547 0 .4169.367218.7548.820312.7548h35.929688c.4531 0 .8203-.3379.8203-.7548 0-.4168-.3672-.7547-.8203-.7547h-.083c.0048-.0807.008-.1618.008-.2429 0-2.3838-2.1078-4.323-4.6988-4.323-1.0386 0-2.0374.3207-2.8474.8882v-7.4188c2.0578-.2562 3.8481-1.4614 4.7395-3.1769zm-17.141-1.2638c-.6883-.8803-1.051-1.9166-1.051-3.0106 0-2.5259 1.9617-4.6671 4.6646-5.091.2163-.0339.4088-.1463.5348-.3119.1256-.1657.174-.3709.1339-.5696-.083-.4119-.125-.8334-.125-1.2529 0-3.76621 3.3303-6.83015 7.4239-6.83015 4.0932 0 7.4238 3.06394 7.4238 6.83015 0 .7272-.124 1.4439-.3685 2.1296-.084.235-.0372.4927.125.6902.1618.1972.4188.3092.6873.2992.0542-.002.1086-.0041.1637-.0041 2.2165 0 4.0196 1.6589 4.0196 3.6981s-1.8031 3.698-4.0196 3.698c-.8725 0-1.7021-.2526-2.3994-.7308-.2169-.1489-.4995-.1898-.7552-.1094-.2561.0802-.4525.2716-.5252.5112-.4679 1.5413-1.8621 2.681-3.5312 2.9664v-4.9781l4.0714-3.7462c.3205-.2948.3205-.7727 0-1.0675-.3201-.2945-.8395-.2945-1.1599 0l-2.9115 2.679v-3.0206c0-.4169-.3676-.7548-.8203-.7548-.4531 0-.8203.3379-.8203.7548v4.8422.0006.8891l-3.1784-2.9242c-.3205-.2948-.8399-.2948-1.1603 0-.3205.2945-.3205.7724 0 1.0672l4.288 3.9454c.0164.0148.0334.0283.0503.0416v2.273c-.9478-.1581-1.8107-.5897-2.4856-1.2556-.2566-.2536-.6678-.3137-.9972-.146-.6726.3423-1.4188.5534-2.185.62v-1.3779c0-.4169-.3672-.7547-.8203-.7547h-4.2724zm4.2727 6.3395c.4531 0 .8203-.3381.8203-.7547v-1.938c.8389-.0566 1.6627-.2468 2.4286-.5611.9113.7338 2.0424 1.2061 3.2393 1.3553v7.9506c-1.8499.197-3.3428 1.4856-3.6956 3.1456h-5.2535v-1.9622h2.4609c.4531 0 .8203-.3379.8203-.7547v-3.0188c0-.4169-.3672-.7547-.8203-.7547h-2.4609v-2.7073zm-16.07812 0h11.97652v2.7073h-11.97652zm-3.28126 4.2167h18.53908v1.5094h-18.53908zm3.28126 3.0188h11.97652v1.9622h-11.97652zm24.56902.0805c.5745-.7356 1.5035-1.1748 2.4853-1.1748 1.6861 0 3.0582 1.2623 3.0582 2.8136 0 .0811-.0039.1622-.0115.2429h-9.5384c.3454-.9649 1.3343-1.6633 2.4971-1.6633.217 0 .4333.0248.6431.0731.3262.0755.6697-.04.8662-.2915z"/><path d="m28.3081 11.5558c.2166 0 .4275-.0808.58-.2211s.2403-.3352.2403-.5336-.0878-.3933-.2403-.5336-.3634-.2211-.58-.2211c-.2156 0-.4275.0808-.58.2211s-.2403.3352-.2403.5336.0878.3933.2403.5336.3644.2211.58.2211z"/></g></svg>