<svg xmlns="http://www.w3.org/2000/svg" width="26" height="26" fill="none" viewBox="0 0 26 26"><path fill="#13377D" d="M15.2766 19.1063C15.8052 18.6842 16.2122 18.1183 16.443 17.4688H16.6562C17.5524 17.4688 18.2812 16.7399 18.2812 15.8438C18.2812 15.2449 17.9522 14.7266 17.4688 14.4446V12.5938C17.4688 10.8018 16.0107 9.34375 14.2188 9.34375H11.7812C9.98928 9.34375 8.53125 10.8018 8.53125 12.5938V14.4446C8.04781 14.7266 7.71875 15.2449 7.71875 15.8438C7.71875 16.7399 8.44756 17.4688 9.34375 17.4688H9.55703C9.78778 18.1183 10.1948 18.6838 10.7234 19.1063C8.37363 19.2347 6.5 21.1811 6.5 23.5625V25.1875C6.5 25.4122 6.68159 25.5938 6.90625 25.5938H19.0938C19.3184 25.5938 19.5 25.4122 19.5 25.1875V23.5625C19.5 21.1811 17.6264 19.2347 15.2766 19.1063ZM14.144 19.9062C13.9758 20.3779 13.5289 20.7188 13 20.7188C12.4711 20.7188 12.0242 20.3779 11.856 19.9062H14.144ZM16.6562 16.6562H16.6323C16.6473 16.5226 16.6562 16.3873 16.6562 16.25V15.0312C17.1043 15.0312 17.4688 15.3957 17.4688 15.8438C17.4688 16.2918 17.1043 16.6562 16.6562 16.6562ZM9.34375 12.5938C9.34375 11.2495 10.437 10.1562 11.7812 10.1562H14.2188C15.563 10.1562 16.6562 11.2495 16.6562 12.5938V14.2188H16.25H15.0312C14.5832 14.2188 14.2188 13.8543 14.2188 13.4062V12.1875V11.7812H13.4062V12.1875C13.4062 13.3075 12.495 14.2188 11.375 14.2188H9.75H9.34375V12.5938ZM9.34375 16.6562C8.89566 16.6562 8.53125 16.2918 8.53125 15.8438C8.53125 15.3957 8.89566 15.0312 9.34375 15.0312V16.25C9.34375 16.3873 9.35269 16.5226 9.36772 16.6562H9.34375ZM10.1562 16.25V15.0312H11.375C12.2379 15.0312 13.011 14.6433 13.533 14.0343C13.7792 14.6193 14.3577 15.0312 15.0312 15.0312H15.8438V16.25C15.8438 17.8177 14.5677 19.0938 13 19.0938C11.4323 19.0938 10.1562 17.8177 10.1562 16.25ZM18.6875 24.7812H17.0625V22.3438H16.25V24.7812H9.75V22.3438H8.9375V24.7812H7.3125V23.5625C7.3125 21.5463 8.95253 19.9062 10.9688 19.9062H11.0098C11.1987 20.8321 12.0189 21.5312 13 21.5312C13.9811 21.5312 14.8013 20.8321 14.9902 19.9062H15.0312C17.0475 19.9062 18.6875 21.5463 18.6875 23.5625V24.7812Z"/><path fill="#13377D" d="M10.9688 5.6875C10.9688 2.7755 8.5995 0.40625 5.6875 0.40625C2.7755 0.40625 0.40625 2.7755 0.40625 5.6875C0.40625 8.5995 2.7755 10.9688 5.6875 10.9688C8.5995 10.9688 10.9688 8.5995 10.9688 5.6875ZM1.21875 5.6875C1.21875 3.22359 3.22359 1.21875 5.6875 1.21875C8.15141 1.21875 10.1562 3.22359 10.1562 5.6875C10.1562 8.15141 8.15141 10.1562 5.6875 10.1562C3.22359 10.1562 1.21875 8.15141 1.21875 5.6875Z"/><path fill="#13377D" d="M4.46875 5.28125H5.28125C5.28125 4.38506 4.55244 3.65625 3.65625 3.65625C2.76006 3.65625 2.03125 4.38506 2.03125 5.28125H2.84375C2.84375 4.83316 3.20816 4.46875 3.65625 4.46875C4.10434 4.46875 4.46875 4.83316 4.46875 5.28125Z"/><path fill="#13377D" d="M7.71875 4.46875C8.16684 4.46875 8.53125 4.83316 8.53125 5.28125H9.34375C9.34375 4.38506 8.61494 3.65625 7.71875 3.65625C6.82256 3.65625 6.09375 4.38506 6.09375 5.28125H6.90625C6.90625 4.83316 7.27066 4.46875 7.71875 4.46875Z"/><path fill="#13377D" d="M7.3125 6.90625H6.5C6.5 7.35434 6.13559 7.71875 5.6875 7.71875C5.23941 7.71875 4.875 7.35434 4.875 6.90625H4.0625C4.0625 7.80244 4.79131 8.53125 5.6875 8.53125C6.58369 8.53125 7.3125 7.80244 7.3125 6.90625Z"/><path fill="#13377D" d="M20.3125 0.40625C17.4005 0.40625 15.0312 2.7755 15.0312 5.6875C15.0312 8.5995 17.4005 10.9688 20.3125 10.9688C23.2245 10.9688 25.5938 8.5995 25.5938 5.6875C25.5938 2.7755 23.2245 0.40625 20.3125 0.40625ZM20.3125 10.1562C17.8486 10.1562 15.8438 8.15141 15.8438 5.6875C15.8438 3.22359 17.8486 1.21875 20.3125 1.21875C22.7764 1.21875 24.7812 3.22359 24.7812 5.6875C24.7812 8.15141 22.7764 10.1562 20.3125 10.1562Z"/><path fill="#13377D" d="M19.9062 4.0625H19.0938C19.0938 4.51059 18.7293 4.875 18.2812 4.875C17.8332 4.875 17.4688 4.51059 17.4688 4.0625H16.6562C16.6562 4.95869 17.3851 5.6875 18.2812 5.6875C19.1774 5.6875 19.9062 4.95869 19.9062 4.0625Z"/><path fill="#13377D" d="M23.1562 4.0625C23.1562 4.51059 22.7918 4.875 22.3438 4.875C21.8957 4.875 21.5312 4.51059 21.5312 4.0625H20.7188C20.7188 4.95869 21.4476 5.6875 22.3438 5.6875C23.2399 5.6875 23.9688 4.95869 23.9688 4.0625H23.1562Z"/><path fill="#13377D" d="M20.3125 6.5C19.4163 6.5 18.6875 7.22881 18.6875 8.125H19.5C19.5 7.67691 19.8644 7.3125 20.3125 7.3125C20.7606 7.3125 21.125 7.67691 21.125 8.125H21.9375C21.9375 7.22881 21.2087 6.5 20.3125 6.5Z"/><path fill="#13377D" d="M20.3125 14.625C19.6406 14.625 19.0938 15.1718 19.0938 15.8438C19.0938 16.5157 19.6406 17.0625 20.3125 17.0625C20.9844 17.0625 21.5312 16.5157 21.5312 15.8438C21.5312 15.1718 20.9844 14.625 20.3125 14.625ZM20.3125 16.25C20.0882 16.25 19.9062 16.068 19.9062 15.8438C19.9062 15.6195 20.0882 15.4375 20.3125 15.4375C20.5367 15.4375 20.7188 15.6195 20.7188 15.8438C20.7188 16.068 20.5367 16.25 20.3125 16.25Z"/><path fill="#13377D" d="M21.9375 11.375C21.0413 11.375 20.3125 12.1038 20.3125 13C20.3125 13.8962 21.0413 14.625 21.9375 14.625C22.8337 14.625 23.5625 13.8962 23.5625 13C23.5625 12.1038 22.8337 11.375 21.9375 11.375ZM21.9375 13.8125C21.4894 13.8125 21.125 13.4481 21.125 13C21.125 12.5519 21.4894 12.1875 21.9375 12.1875C22.3856 12.1875 22.75 12.5519 22.75 13C22.75 13.4481 22.3856 13.8125 21.9375 13.8125Z"/><path fill="#13377D" d="M6.90625 15.8438C6.90625 15.1718 6.35944 14.625 5.6875 14.625C5.01556 14.625 4.46875 15.1718 4.46875 15.8438C4.46875 16.5157 5.01556 17.0625 5.6875 17.0625C6.35944 17.0625 6.90625 16.5157 6.90625 15.8438ZM5.6875 16.25C5.46325 16.25 5.28125 16.068 5.28125 15.8438C5.28125 15.6195 5.46325 15.4375 5.6875 15.4375C5.91175 15.4375 6.09375 15.6195 6.09375 15.8438C6.09375 16.068 5.91175 16.25 5.6875 16.25Z"/><path fill="#13377D" d="M5.6875 13C5.6875 12.1038 4.95869 11.375 4.0625 11.375C3.16631 11.375 2.4375 12.1038 2.4375 13C2.4375 13.8962 3.16631 14.625 4.0625 14.625C4.95869 14.625 5.6875 13.8962 5.6875 13ZM4.0625 13.8125C3.61441 13.8125 3.25 13.4481 3.25 13C3.25 12.5519 3.61441 12.1875 4.0625 12.1875C4.51059 12.1875 4.875 12.5519 4.875 13C4.875 13.4481 4.51059 13.8125 4.0625 13.8125Z"/></svg>