<svg fill="none" height="39" viewBox="0 0 42 39" width="42" xmlns="http://www.w3.org/2000/svg" xmlns:xlink="http://www.w3.org/1999/xlink"><clipPath id="a"><path d="m0 0h42v38.6411h-42z"/></clipPath><g clip-path="url(#a)" fill="#041e42"><path d="m40.9708 34.1752h-4.2227c-.4722 0-.8579-.0942-1.2132-.2961-1.2802-.7289-2.3001-3.0635-2.9095-4.4583-.0684-.1566-.137-.3129-.2062-.4692-1.0027-2.2622-2.2505-5.0776-4.7294-6.531-1.1098-.6525-2.3713-.9833-3.7495-.9833h-1.6589v-6.4459c.5895-.0014 1.143-.2127 1.5584-.5949.4175-.3827.6478-.8934.6483-1.438.0006-.5456-.2293-1.0581-.6483-1.4434l-4.5854-4.20396c-.2407-.22068-.6303-.22015-.87.00143-.2399.22143-.2393.57984.0015.80044l4.5847 4.20319c.1854.1707.2875.3983.2871.6412-.0002.2418-.1019.4681-.2871.6379-.3833.3526-1.0068.3526-1.3901 0l-8.9014-8.18754c-.2403-.22105-.6298-.22105-.87 0l-8.90134 8.18754c-.18522.1704-.4323.2642-.69587.2642-.00033 0-.00065 0-.00098 0-.26283-.0002-.50868-.0938-.69407-.265-.18449-.169-.28612-.3953-.28637-.6371-.00025-.2429.10172-.4705.28719-.6412l10.03214-9.23007c.1838-.16966.4297-.26324.6925-.26347h.0009c.2636 0 .5108.09381.696.26422l3.553 3.26902c.2402.22106.6298.22106.87 0 .2403-.22105.2403-.57939 0-.80044l-3.553-3.26902c-.4177-.38422-.9737-.59577-1.566-.59577-.0007 0-.0014 0-.0021 0-.5918.00053-1.1469.2123-1.5621.59577l-10.031362 9.22936c-.418196.3847-.64821115.897-.64763693 1.4427.00057422.5445.23083593 1.0552.64673393 1.4365.415325.3835.969195.5952 1.559985.5964v9.9706 12.1719h-1.591485c-.339773 0-.61523393.2534-.61523393.566s.27546093.566.61523393.566h40.381165c.5534 0 1.0036-.4132 1.0036-.9211v-2.2229c0-.5219-.4617-.9467-1.0292-.9467zm-36.04581 2.9588h-1.4878v-11.6059h1.4878zm4.22978 0h-2.99931v-11.6059h2.39138.60793zm4.94823 0h-3.7178v-1.8075h3.7178zm0-2.9395h-3.7178v-2.1327h3.7178zm0-3.2648h-3.7178v-2.1347h3.7178zm0-3.2668h-3.7178v-2.1348h3.7178zm1.2231-3.2669h-6.16403v-2.8056c0-1.5636 1.38253-2.8356 3.08203-2.8356 1.6994 0 3.082 1.272 3.082 2.8356zm3.0043 12.738h-2.997v-11.6059h.6079 2.3891zm-1.7739-12.738v-2.8056c0-2.1878-1.9345-3.9677-4.3124-3.9677-2.37795 0-4.3125 1.7798-4.3125 3.9677v2.8056h-2.39137-2.10304v-9.7433c.12124-.0743.23535-.1601.3406-.257l8.46631-7.78727 8.4662 7.78727c.1053.0969.2194.1827.3406.2571v9.7432h-2.1053zm5.7249 12.738v-3.747c0-.3126-.2755-.566-.6152-.566-.3398 0-.6153.2534-.6153.566v3.747h-1.4901v-11.6059h1.4901v5.2467c0 .3126.2755.566.6153.566.3397 0 .6152-.2534.6152-.566v-5.2467h1.6589c.5287 0 .9601.1085 1.3575.3412 1.3025.764 2.2724 2.9666 2.9141 4.4242.0794.1802.159.3602.2386.5404.9528 2.1598 2.127 4.8213 4.3788 6.3001zm18.4881 0h-4.0214c-1.0659 0-2.0438-.2487-2.9059-.7389-2.1511-1.2257-3.2669-3.7553-4.2516-5.987-.0794-.1799-.1589-.3597-.2382-.5396-.7005-1.5911-1.7592-3.9955-3.3934-4.9539-.5957-.349-1.2559-.5187-2.0187-.5187h-1.6589v-1.8267h1.6589c1.1396 0 2.1782.2709 3.0876.8056 2.1494 1.2602 3.2664 3.7805 4.2519 6.0042.0684.1544.1363.309.2039.4638.7088 1.6225 1.7799 4.0743 3.404 4.9991.5509.3131 1.1595.4653 1.8604.4653h4.0214z"/><path d="m12.2438 10.9028c-1.5085 0-2.73587 1.1292-2.73587 2.5172s1.22737 2.5172 2.73587 2.5172c1.5086 0 2.7359-1.1292 2.7359-2.5172s-1.2273-2.5172-2.7359-2.5172zm0 3.9023c-.83 0-1.5054-.6213-1.5054-1.3851s.6754-1.3851 1.5054-1.3851c.8301 0 1.5055.6213 1.5055 1.3851s-.6754 1.3851-1.5055 1.3851z"/></g></svg>