<svg fill="none" height="39" viewBox="0 0 42 39" width="42" xmlns="http://www.w3.org/2000/svg" xmlns:xlink="http://www.w3.org/1999/xlink"><clipPath id="a"><path d="m0 0h42v38.9358h-42z"/></clipPath><g clip-path="url(#a)" fill="#041e42"><path d="m35.5278 19.3788v-7.5118c0-6.54352-5.7424-11.867-12.8009-11.867h-3.4542c-7.0586 0-12.80099 5.32348-12.80099 11.867v7.5118c-2.05414.515-3.52603 2.249-3.52603 4.2808 0 1.1733.49514 2.3824 1.35852 3.3172.93245 1.0097 2.14897 1.5657 3.42562 1.5657h.00074 1.79542v9.6328c0 .42.36733.7605.82032.7605h21.307c.4529 0 .8203-.3405.8203-.7605v-9.6328h1.7944.0007c1.2771-.0001 2.4941-.5561 3.4266-1.5657.8633-.9348 1.3585-2.1438 1.3585-3.3172.0001-2.0318-1.4718-3.7658-3.526-4.2808zm-4.6948 18.0361h-19.6663v-1.6309h13.8465c.4529 0 .8203-.3406.8203-.7605s-.3674-.7605-.8203-.7605h-13.8465v-5.7205h3.3916l5.8752 5.1987c.3169.2806.8158.2806 1.1328 0l5.8752-5.1987h3.3916v8.8724zm-11.9474-12.6204c-4.2568-.9523-7.2297-4.5769-7.2297-8.8143v-2.8485l6.9005-4.71913c.5703.26357 1.5374.70768 2.6935 1.22716.1284.05772.2592.11635.392.17582.0665.02973.1333.05962.2007.08973 2.8983 1.29402 6.6768 2.91792 8.501 3.43772v2.6372c0 4.105-2.79 7.6349-6.8343 8.7173-.1305.0349-.2623.0673-.3953.097-.4399.0984-.7108.5085-.6053.9164l.5812 2.2483c.0885.342.4184.5832.7978.5832h1.1776l-4.0655 3.5975-4.0656-3.5975h1.1777c.3794 0 .7092-.2412.7977-.5832l.5813-2.2483c.1056-.408-.1654-.818-.6053-.9164zm17.5635 1.1931c-.6159.6668-1.3902 1.034-2.1805 1.034-.0001 0-.0003 0-.0004 0h-2.6117c-.0011 0-.0021-.0002-.0032-.0002h-4.5405-2.5782l-.2471-.9556c2.0652-.6241 3.9195-1.8395 5.2849-3.4772 1.5553-1.8652 2.4118-4.2123 2.4118-6.6084v-3.2325c0-.3053-.1955-.5717-.4817-.6921-.0753-.0317-.1566-.0538-.2427-.0632-.8478-.0927-4.1585-1.4559-7.4976-2.92348-.0795-.03498-.159-.06996-.2386-.10502-.3179-.14015-.6357-.28106-.951-.4216-.0789-.03513-.1575-.07027-.2361-.10532-.2355-.10525-.4695-.2102-.7008-.31438-1.0027-.45149-1.9581-.88906-2.7941-1.27811-.276-.12852-.6065-.10236-.855.06768l-7.6382 5.22353c-.2096.1434-.3333.3704-.3333.612v3.2325c0 2.3962.8565 4.7432 2.4118 6.6084 1.3653 1.6375 3.2198 2.853 5.285 3.4772l-.2472.9556h-2.5782-4.5405c-.001 0-.0021.0002-.0032.0002h-2.6124c-.00017 0-.00025 0-.00041 0-.7898 0-1.56385-.3672-2.17957-1.0339-.60367-.6537-.96412-1.5241-.96412-2.3281 0-1.4887 1.20184-2.734 2.79563-2.8969.41573-.0425.73041-.3682.73041-.7559v-8.1398c0-5.70488 5.00656-10.34607 11.16026-10.34607h3.4543c6.1538 0 11.1602 4.64119 11.1602 10.34607v8.1398c0 .3878.3147.7135.7304.7559 1.5938.1629 2.7957 1.4082 2.7957 2.8969 0 .8041-.3604 1.6744-.9641 2.328z"/><path d="m24.1697 20.4663c-.2647-.3408-.7773-.4182-1.145-.1727-1.2111.8084-2.8383.8084-4.0494 0-.3677-.2455-.8803-.1681-1.145.1727-.2648.3408-.1814.816.1862 1.0615.8922.5957 1.9378.8936 2.9835.8936 1.0456 0 2.0912-.2979 2.9834-.8936.3677-.2455.4511-.7207.1863-1.0615z"/><path d="m28.5079 12.8125h-6.2512c-.4529 0-.8203.3405-.8203.7605v1.2374h-.8732v-1.2374c0-.42-.3673-.7605-.8203-.7605h-6.2512c-.4531 0-.8203.3405-.8203.7605v3.9959c0 .4199.3672.7605.8203.7605h6.2512c.453 0 .8203-.3405.8203-.7605v-1.2375h.8732v1.2375c0 .4199.3674.7605.8203.7605h6.2512c.453 0 .8204-.3406.8204-.7605v-3.9959c0-.42-.3673-.7605-.8204-.7605zm-9.5853 3.9959h-4.6106v-2.475h4.6106zm8.7649 0h-4.6105v-2.475h4.6105z"/><path d="m29.2285 34.8749c-.0107-.0487-.0262-.0966-.0467-.1422-.0205-.0463-.046-.0904-.0755-.1315-.0303-.0418-.0639-.0806-.1017-.1157-.0386-.0349-.0803-.0669-.1247-.0942-.0451-.0274-.0927-.051-.1419-.07-.0493-.019-.1009-.0334-.1534-.0433-.1058-.0198-.2149-.0198-.3207 0-.0525.0099-.1042.0243-.1534.0433s-.0975.0426-.1418.07c-.0452.0273-.0871.0593-.1248.0942-.0377.035-.0722.0739-.1017.1157-.0295.0411-.055.0852-.0755.1315-.0205.0457-.036.0935-.0467.1422s-.0164.0989-.0164.1483.0057.0995.0164.149c.0107.0487.0262.0959.0467.1422.0205.0457.046.0898.0755.1308.0295.0419.064.0807.1017.1156.0377.035.0796.067.1248.0951.0443.0273.0927.0509.1418.07.0493.019.1009.0333.1534.0432.0525.01.1066.0145.16.0145.0541 0 .1074-.0046.1607-.0145.0525-.0099.1042-.0242.1534-.0432.0493-.0191.0968-.0427.1419-.07.0443-.0281.0861-.0601.1247-.0951.0378-.035.0714-.0738.1017-.1156.0295-.041.055-.0851.0755-.1308.0205-.0463.036-.0935.0467-.1422.0107-.0494.0164-.0996.0164-.149s-.0057-.0996-.0164-.1483z"/><path d="m15.3398 30.5708h-2.4199c-.453 0-.8203.3405-.8203.7605 0 .4199.3673.7604.8203.7604h2.4199c.4531 0 .8204-.3405.8204-.7604 0-.42-.3673-.7605-.8204-.7605z"/></g></svg>