<svg fill="none" height="40" viewBox="0 0 42 40" width="42" xmlns="http://www.w3.org/2000/svg"><g fill="#041e42"><path d="m21 2.17407c-10.8557 0-19.6875 8.18743-19.6875 18.25113s8.8318 18.2512 19.6875 18.2512 19.6875-8.1875 19.6875-18.2512-8.8318-18.25113-19.6875-18.25113zm0 35.28553c-10.1322 0-18.375-7.6414-18.375-17.0344 0-9.3929 8.2428-17.03438 18.375-17.03438s18.375 7.64148 18.375 17.03438c0 9.393-8.2428 17.0344-18.375 17.0344z"/><path d="m10.0812 9.91164-.90981-.87697c-.39802.3559-.78127.73195-1.13819 1.11873l.99717.7914c.32969-.3577.68357-.7053 1.05083-1.03316z"/><path d="m3.99121 19.159 1.30865.0963c.22534-2.6104 1.20664-5.116 2.84033-7.2523l-1.07149-.7034c-1.7698 2.3154-2.83298 5.0307-3.07749 7.8594z"/><path d="m30.1875 8.45676c.0001-.64884-.2582-1.27486-.7254-1.75804-.4671-.48318-1.1102-.78951-1.8059-.86026-.6957-.07074-1.3951.09907-1.9641.47688-.569.37782-.9676.93704-1.1192 1.57046-.1108.46236-.1999.92921-.2914 1.39545-1.0688-.27263-2.1727-.40874-3.2813-.40457v-3.05364h-1.3127v7.30046c-.0015.6579-.2316 1.2979-.6562 1.8251-.191.2359-.4182.4447-.6743.6196-.8132.5562-1.2772 1.4854-1.24 2.4888l.6011 13.948c.0062.1551-.0216.3097-.0817.4545-.0602.1448-.1514.2768-.2682.3879-.2389.2182-.5609.3405-.8962.3405-.3354 0-.6574-.1223-.8963-.3405-.1169-.1114-.2082-.2436-.2684-.3887-.0601-.1451-.0879-.3-.0816-.4554l.4698-13.9498c.0372-.9998-.4265-1.9291-1.2407-2.4852-.2559-.1752-.4828-.3842-.6735-.6203-.4248-.5269-.6549-1.1667-.6563-1.8245v-7.30046h-1.3125v6.80556c-1.2095 1.2189-2.1213 2.6651-2.67325 4.2403-.55196 1.5751-.73109 3.242-.52518 4.8872.2059 1.6451.792 3.2297 1.71833 4.6458.9264 1.4161 2.1712 2.6304 3.6496 3.5602l-.0674 2.0013c-.0118.3183.0458.6356.1691.9328.1234.2973.3101.5685.5489.7974.2389.2289.525.4109.8413.5352.3164.1242.6565.1881 1.0001.1879.3435-.0003.6835-.0647.9997-.1893.3161-.1247.6019-.3071.8404-.5364.2385-.2292.4247-.5007.5476-.7981.1229-.2975.1799-.6148.1677-.9331l-.0055-.1272c2.0469.3122 4.1458.1369 6.0995-.5095l-.0442.5597c-.0235.3173.0222.6358.1343.9365.112.3006.2882.5773.5181.8135.2298.2362.5086.4271.8196.5613.3111.1342.6482.2091.9911.22.3429.011.6847-.0422 1.005-.1562.3203-.1141.6126-.2867.8594-.5077s.4432-.4857.5773-.7785.2034-.6076.2035-.9257v-3.8267c2.11-2.1248 3.2812-4.9073 3.2812-7.7953 0-2.8881-1.1712-5.6706-3.2812-7.7954zm-16.1559 20.03144c-2.2481-1.6605-3.7147-4.0641-4.09167-6.7059-.377-2.6417.36487-5.3161 2.06987-7.4615.2721.8937.8587 1.6776 1.6664 2.2269.4653.3179.73.8657.7081 1.4663zm11.1979 1.4913c-1.9746.7774-4.1561.9849-6.2599.5955l-.5414-12.5629c-.0217-.5989.2429-1.1467.7076-1.4645.3592-.2453.6778-.538.9455-.8689.5947-.738.9169-1.634.9187-2.5552v-3.0315c1.0376-.0041 2.0704.1296 3.0671.3971-.2897 1.7882-.4375 3.5936-.4421 5.4018v6.3582c0 .1613.0691.3161.1922.4302s.29.1782.4641.1782h1.5111zm3.6455 2.0665c-.0003.3059-.1316.5992-.3649.8155s-.5497.3379-.8797.3383c-.1704 0-.339-.0324-.4954-.0953-.1563-.0628-.2971-.1548-.4135-.2702-.1164-.1153-.2061-.2516-.2634-.4004-.0572-.1488-.081-.3069-.0696-.4646l.7645-9.6757c.0066-.0834-.0054-.1672-.0353-.2461s-.077-.1512-.1384-.2125-.1358-.1102-.2185-.1436-.1719-.0507-.2622-.0507h-1.5611v-5.7498c.0004-2.6038.3079-5.1997.9171-7.74152.0816-.34082.2959-.64173.6021-.84502.3061-.2033.6824-.29466 1.0568-.25656.3743.03809.7203.20296.9715.46298.2513.26002.3902.59688.39.94598zm3.2813-11.622c.0011 2.0896-.6858 4.1298-1.9688 5.8479v-11.6959c1.283 1.7181 1.9699 3.7583 1.9688 5.848z"/><path d="m14.4375 5.823h1.3125v6.6921h-1.3125z"/><path d="m17.0625 5.823h1.3125v6.6921h-1.3125z"/></g></svg>