<svg fill="none" height="39" viewBox="0 0 42 39" width="42" xmlns="http://www.w3.org/2000/svg" xmlns:xlink="http://www.w3.org/1999/xlink"><clipPath id="a"><path d="m0 0h42v38.6411h-42z"/></clipPath><g clip-path="url(#a)" fill="#041e42"><path d="m41.7129 16.8752-25.5938-13.59411c-.7348-.38902-1.6074-.49413-2.4263-.29228-.819.20185-1.5176.69419-1.9426 1.3691l-2.94661 4.69519-1.96153 3.1254c-.42308.6763-.53736 1.4794-.31776 2.2332.21959.7537.75513 1.3966 1.48917 1.7876l8.77503 4.6608-1.3647 2.1409c-.1815.2834-.4401.5184-.7503.6819s-.6614.2499-1.0189.2506h-5.12335v-3.5924c0-.1401-.0605-.2745-.16819-.3735-.10768-.0991-.25374-.1548-.40603-.1548h-3.11719v-.6816c-.00078-.6203-.26895-1.215-.74568-1.6536s-1.12309-.6853-1.79728-.686h-1.722661c-.07542-.0001-.150108.0136-.219795.0401s-.133006.0655-.186335.1145c-.05333.0491-.095625.1073-.124467.1715-.0288419.0641-.04366504.1328-.04362191.2022v17.9068c-.00004313.0694.01478001.1381.04362191.2022.028842.0641.071137.1224.124467.1714.053329.0491.116648.088.186335.1145.069687.0266.144375.0402.219795.0402h1.722661c.67419-.0007 1.32055-.2475 1.79728-.6861s.7449-1.0332.74568-1.6535v-1.6782h3.11719c.15229 0 .29835-.0556.40603-.1547.10769-.0991.16819-.2335.16819-.3736v-2.5962h5.12335c1.2439-.0024 2.4657-.3028 3.5452-.8716 1.0794-.5687 1.9793-1.3862 2.6111-2.3721l1.3824-2.1687 4.81 2.5548c.4842.2585 1.0341.3949 1.594.3955.2814-.0001.5616-.0342.8334-.1015.5223-.1278 1.0006-.376 1.3896-.7212.6292.2686 1.3143.408 2.0078.4088.4251-.0003.8482-.0518 1.2587-.1534 1.047-.256 1.9688-.8306 2.6155-1.6301l1.176.6246c.0653.0347.1374.0572.2122.0663s.1508.0045.2237-.0134c.0728-.018.1411-.049.201-.0913.0598-.0423.11-.095.1476-.1552l4.2591-6.7866c.0378-.0601.0624-.1264.0724-.1952s.0051-.1387-.0143-.2058-.053-.13-.0988-.1852c-.0458-.0551-.103-.1014-.1683-.1362zm-38.02149 16.5402c-.00035.3402-.14739.6663-.40884.9069-.26145.2405-.61595.3758-.98569.3761h-1.14844v-16.8502h1.14844c.36974.0003.72424.1356.98569.3761s.40849.5667.40884.9069zm3.6914-2.7348h-2.54297v-9.8112h2.54297zm11.43709-5.8462c-.5299.8272-1.2849 1.5133-2.1906 1.9906s-1.9309.7294-2.9747.7314h-5.12335v-2.566h5.12335c.5577-.0011 1.1054-.1358 1.5894-.3908.4839-.2551.8873-.6216 1.1705-1.0637l1.3699-2.1469 2.4156 1.283zm7.7582.0057-17.99041-9.5558c-.47062-.2506-.81397-.6627-.95471-1.1459-.14075-.4832-.0674-.9981.20396-1.4316l1.67344-2.6677 16.48732 8.7576 5.0547 2.6849-1.6737 2.669-.0023.0033c-.0437.0682-.092.1337-.1447.1962v.0021c-.3028.3635-.7389.6134-1.2271.7032-.4881.0897-.9951.0132-1.4265-.2153zm6.2137-.2774c-.7521.1871-1.5495.1485-2.2762-.1102l1.5334-2.4432 2.6555 1.4104c-.4892.5588-1.1595.9592-1.9133 1.143zm4.1656-1.1653-3.7134-1.9725-1.1206-.595-12.6777-6.7338-9.3605-4.97206 2.6595-4.23783c.2725-.43288.7205-.74864 1.2457-.87802.5252-.12937 1.0847-.0618 1.5558.18791l25.095 13.3303z"/><path d="m34.5038 20.5259c.3344.1787.7142.2729 1.1009.2732.1941-.0002.3874-.0237.5749-.0701.4935-.1216.9259-.3968 1.2235-.7789.2976-.382.4421-.8472.4087-1.3162-.0333-.469-.2424-.9129-.5916-1.256s-.8169-.5642-1.3234-.6256c-.5066-.0614-1.0206.0406-1.4544.2888-.4339.2482-.7609.6271-.9251 1.0721-.1643.4451-.1558.9288.0241 1.3687.1799.44.52.8089.9624 1.044zm.1867-2.2469c.0695-.1108.1621-.2079.2726-.2856.1104-.0777.2365-.1346.3709-.1673.0899-.0221.1825-.0334.2756-.0335.2335.0001.4605.071.6458.2018.1852.1308.3184.3142.3788.5217.0604.2076.0447.4277-.0447.6261-.0894.1985-.2475.3643-.4498.4717-.2022.1074-.4373.1504-.6689.1223-.2315-.028-.4465-.1256-.6116-.2776-.1651-.1519-.2711-.3497-.3015-.5628-.0304-.213.0164-.4293.1332-.6153z"/><path d="m14.9297 15.1755-4.7053-2.4999c-.0654-.0353-.1376-.0583-.2127-.0677-.07498-.0094-.1513-.0051-.22451.0127s-.14187.0487-.20203.0911c-.06016.0423-.11062.0951-.14848.1555-.03787.0603-.06239.1269-.07215.196s-.00457.1393.01527.2065c.01984.0673.05394.1302.10034.1853s.10418.1011.17001.1356l4.70665 2.4996c.1313.0632.2841.0772.4264.0391.1424-.0381.2632-.1254.3372-.2435.074-.1182.0954-.2581.0599-.3905-.0355-.1323-.1253-.247-.2506-.3198z"/></g></svg>