<svg fill="none" height="35" viewBox="0 0 35 35" width="35" xmlns="http://www.w3.org/2000/svg" xmlns:xlink="http://www.w3.org/1999/xlink"><clipPath id="a"><path d="m0 0h35v35h-35z"/></clipPath><g clip-path="url(#a)" fill="#041e42"><path d="m31.6085 7.15009c-2.7652-3.76803-6.8322-6.233824-11.452-6.942984-4.6197-.709229-9.2391.423076-13.00716 3.188284-3.76804 2.7652-6.233827 6.83221-6.942987 11.45201-.615713 4.011.157568 8.0213 2.181557 11.4748.00143.0026.003.0052.00444.0078.30591.5214.63971 1.0304 1.00228 1.5245 2.46409 3.3578 6.05118 5.7306 10.10027 6.6811.1846.0433.3697.0829.555.1201.0387.011.0781.0183.1182.0224 1.1054.2141 2.2232.3218 3.3382.3218 1.1226 0 2.2417-.1094 3.3412-.3226.0326-.0039.0648-.0099.0964-.0184 1.5287-.3054 3.0184-.8143 4.424-1.5236.337-.1701.4724-.5812.3023-.9182s-.5812-.4723-.9182-.3022c-.8466.4273-1.7145.773-2.5942 1.0408l2.8343-4.9136 5.549-1.0423c-.4823.6652-1.0205 1.299-1.6147 1.8936-.2669.267-.2668.6998.0002.9666.267.2669.6997.2667.9666-.0002 1.0457-1.0461 1.9459-2.2166 2.6874-3.4776.0055-.0091.011-.0181.0161-.0274 1.2089-2.0645 1.9905-4.3715 2.2786-6.7781.0025-.0167.0044-.0335.0057-.0503.0244-.2083.046-.4172.0629-.627.337-4.1865-.8476-8.359-3.3354-11.74931zm-11.6593-5.59179c3.5414.54366 6.7297 2.20787 9.1693 4.75015l-.8339 7.17025-5.3587 1.2032-4.7241-3.4323v-5.13378l1.0526-.75442c.3067-.21991.3772-.64695.1573-.95375-.22-.3068-.6469-.3772-.9537-.15736l-.9849.70588-4.7087-2.88101c2.296-.70697 4.7401-.89209 7.1848-.51686zm-6.9166 14.1192 2.2261-1.6174 2.2262-1.6174 4.4524 3.2349-1.7006 5.2341h-5.5035v-.0001zm-5.07443-11.17996c.99846-.73274 2.06203-1.34039 3.17153-1.81979l5.6717 3.47019v5.10176l-4.7241 3.4323-5.37975-1.2078-1.09846-6.86613c.70813-.77041 1.49645-1.47752 2.35908-2.11053zm-6.40069 10.55726c.39648-2.5827 1.3894-4.9774 2.8836-7.03128l.92483 5.78118-3.99588 4.0309c-.01695-.9215.04485-1.8512.18745-2.7808zm-.05093 4.5848 4.80833-4.8504 5.38442 1.2089 1.7864 5.4981-3.3623 5.1742-6.69814-1.2858c-1.00652-1.7892-1.65279-3.7339-1.91871-5.745zm2.99017 7.4062c-.01791-.0244-.03493-.0492-.0527-.0736l5.56608 1.0684 2.8429 4.9279c-3.25147-.9802-6.20774-2.995-8.35628-5.9227zm15.82708 6.3535c-1.884.3392-3.7928.3339-5.6405.0061l-3.436-5.9559 3.3603-5.1709h5.7879l3.3602 5.1709zm11.2268-7.9802-6.6699 1.2529-3.3634-5.1759 1.7865-5.4981 5.3805-1.208 4.7694 4.8977c-.2698 1.997-.9069 3.9466-1.9031 5.7314zm2.0464-7.5435-3.9731-4.0801.7061-6.07091c.0592.07772.1184.15538.1764.23433 2.1586 2.94168 3.1732 6.44698 3.0906 9.91668z"/><path d="m21.2496 2.95295c-.1271-.12729-.3034-.20051-.4832-.20051s-.3561.07322-.4832.20051c-.1272.12728-.2003.30377-.2003.48375 0 .17997.0731.35646.2003.48375.1271.12797.3034.2005.4832.2005s.3561-.07253.4832-.2005c.1272-.12729.2003-.30378.2003-.48375 0-.17998-.0731-.35654-.2003-.48375z"/><path d="m27.8522 30.6009c-.1271-.1273-.3034-.2005-.4832-.2005s-.3561.0732-.4832.2005c-.1272.1273-.2003.3038-.2003.4837 0 .18.0731.3565.2003.4838.1271.128.3034.2005.4832.2005s.3561-.0725.4832-.2005c.1272-.1273.2003-.3038.2003-.4838 0-.1799-.0731-.3564-.2003-.4837z"/></g></svg>