<svg fill="none" height="32" viewBox="0 0 32 32" width="32" xmlns="http://www.w3.org/2000/svg" xmlns:xlink="http://www.w3.org/1999/xlink"><clipPath id="a"><path d="m0 0h32v32h-32z"/></clipPath><g clip-path="url(#a)" fill="#041e42"><path d="m8.15681 17.7562-5.86666 5.8666c-.13864.1339-.19424.3322-.14544.5187.04881.1864.19444.3321.38091.3809.18646.0488.38476-.0068.51867-.1455l5.86666-5.8666c.20211-.2093.19922-.5419-.0065-.7476-.20573-.2058-.53837-.2087-.74764-.0065z"/><path d="m5.33333 25.6h-4.26666v-4.2666c0-.2946-.238785-.5334-.533337-.5334s-.533333.2388-.533333.5334v4.8c0 .2945.238781.5333.533333.5333h4.799997c.29456 0 .53334-.2388.53334-.5333 0-.2946-.23878-.5334-.53334-.5334z"/><path d="m23.0898 2.28954-5.8667 5.86667c-.1386.13391-.1942.3322-.1454.51867s.1944.33209.3809.3809.3848-.00679.5187-.14544l5.8666-5.86666c.1387-.13391.1943-.33221.1455-.51867-.0488-.18647-.1945-.3321-.3809-.38091-.1865-.0488-.3848.0068-.5187.14544z"/><path d="m25.6002 5.86667c.2945 0 .5333-.23878.5333-.53334v-4.799997c0-.294552-.2388-.533333-.5333-.533333h-4.8c-.2946 0-.5334.238781-.5334.533333s.2388.533337.5334.533337h4.2666v4.26666c0 .29456.2388.53334.5334.53334z"/><path d="m24.6248 12.1795c-.5844-.5928-1.4615-.789-2.2429-.5018-.7813.2873-1.3225 1.005-1.3837 1.8352-.6065-.1607-1.253-.0426-1.7635.3221s-.8318.938-.8765 1.5637c-.5428-.1449-1.121-.0663-1.6053.2184-.4844.2847-.8344.7516-.9718 1.2963l-3.2267-3.2267c-.5368-.549-1.3272-.7672-2.0697-.5713-.7424.1959-1.32229.7757-1.51832 1.5181-.19604.7424.02203 1.5329.57098 2.0698l4.82024 4.8202c-.4383.082-.8448.2852-1.1733.5867-.4642.4351-.7295 1.0416-.7339 1.6779-.0125.6925.2557 1.3605.7435 1.8522l4.64 4.64c2.2924 2.2877 6.0041 2.2877 8.2965 0l4.1515-4.1472c2.2875-2.2927 2.2875-6.0043 0-8.297zm4.903 13.1995-4.1483 4.1483c-1.8757 1.8716-4.9125 1.8716-6.7883 0l-4.64-4.64c-.2832-.2866-.4386-.6756-.4309-1.0784-.0001-.3464.142-.6777.3931-.9163.2504-.2246.5745-.3497.9109-.3515.354-.0152.6968.1258.9376.3856l3.9605 3.9606c.2083.2084.546.2085.7544.0002.2084-.2082.2085-.546.0003-.7544l-3.96-3.9594-6.2235-6.223c-.41638-.4165-.41638-1.0917 0-1.5082.4226-.4021 1.0863-.4021 1.5088 0l7.92 7.9194c.2083.2084.546.2085.7544.0003.2084-.2083.2085-.546.0003-.7544l-3.3941-3.3936c-.2695-.2695-.3746-.6623-.2759-1.0304s.3862-.6556.7544-.7541c.3681-.0986.7608.0067 1.0303.2762l3.3941 3.3947c.1348.1347.3312.1873.5153.1379s.3278-.1933.3771-.3774c.0492-.1841-.0035-.3805-.1383-.5152l-3.017-3.017c-.4165-.4167-.4164-1.0921.0002-1.5086.4167-.4165 1.0921-.4163 1.5086.0003l.3765.3771 2.6395 2.6394c.1339.1387.3322.1943.5186.1455.1865-.0488.3321-.1945.3809-.3809.0488-.1865-.0068-.3848-.1454-.5187l-2.64-2.6395c-.4166-.4166-.4166-1.0921 0-1.5088.4166-.4166 1.0922-.4166 1.5088 0l5.6571 5.6555c1.8713 1.876 1.8713 4.9128 0 6.7888z"/><path d="m4.44672 19.3239c.15438.1205.36233.1466.54172.0682.17939-.0785.30137-.2489.31776-.444.0164-.1951-.07543-.3835-.23921-.4908-3.05152-2.1941-4.541444-5.9675-3.81201-9.65441.72943-3.68694 3.54394-6.60875 7.20103-7.47554 3.65709-.866796 7.48359.48098 9.79019 3.44832.1831.22488.5123.26228.7411.08418.2289-.17809.2735-.5064.1005-.73911-2.5622-3.300692-6.816-4.800911-10.88188-3.837805-4.06592.963105-7.19476 4.212065-8.004066 8.311365-.809309 4.0993.850036 8.2936 4.244866 10.7296z"/><path d="m13.8668 10.1235-2.6667.0096v-3.74186c0-.29455-.2388-.53333-.5333-.53333-.2946 0-.5334.23878-.5334.53333v4.27516c0 .2946.2388.5334.5334.5334l3.2-.0096c.2945 0 .5333-.2388.5333-.5334 0-.2945-.2388-.5333-.5333-.5333z"/></g></svg>