<svg width="26" height="26" viewBox="0 0 26 26" fill="none" xmlns="http://www.w3.org/2000/svg">
<g clip-path="url(#clip0)">
<path d="M24.4836 5.63248H22.7502C22.5108 5.63248 22.3168 5.82652 22.3168 6.06583V6.49918C22.3168 6.25987 22.1228 6.06583 21.8835 6.06583H20.5834C20.3548 6.06535 20.1652 6.24248 20.1501 6.47058L20.1202 6.93253H19.2834V6.06583C19.2834 5.82652 19.0893 5.63248 18.85 5.63248H17.1166C16.8773 5.63248 16.6833 5.82652 16.6833 6.06583V8.66593C16.6833 8.90524 16.8773 9.09928 17.1166 9.09928H18.85C19.0893 9.09928 19.2834 8.90524 19.2834 8.66593V7.79923H20.0634L19.8268 11.3445C19.788 11.7922 19.4121 12.1351 18.9627 12.1327H16.2499V11.9468C16.2493 11.7799 16.1528 11.6282 16.002 11.5568C15.4152 11.2827 14.7929 11.0916 14.1534 10.9891C14.0839 10.9791 14.0131 10.9863 13.9471 11.0099C13.7085 10.9372 13.4641 10.8856 13.2165 10.8556V9.67346C13.3449 9.60776 13.4694 9.53436 13.5891 9.45376C15.0452 8.43495 16.2499 7.41182 16.2499 5.20997V4.76579C16.2478 3.44813 15.7024 2.18974 14.7423 1.28729C13.053 -0.283272 10.4867 -0.433644 8.62556 0.928914C6.7433 0.590251 4.94284 1.8416 4.60418 3.72391C4.56805 3.92476 4.54974 4.12838 4.54947 4.33244V10.8327C4.54947 11.072 4.7435 11.266 4.98282 11.266C6.63978 11.2688 8.23375 10.6312 9.43159 9.48626C9.53434 9.55402 9.64051 9.61648 9.74966 9.67346V10.8556C9.502 10.885 9.25738 10.936 9.0186 11.0082C8.95273 10.9846 8.88204 10.9775 8.81276 10.9874C8.17319 11.0899 7.55096 11.2809 6.96409 11.5551C6.81329 11.6265 6.71687 11.7782 6.71622 11.9451V11.9594C5.07745 13.8002 4.15469 16.1687 4.11612 18.633C4.11612 19.8216 4.17289 21.1897 4.52477 22.0998H3.68277V21.2331C3.68277 20.9937 3.48874 20.7997 3.24942 20.7997H1.51602C1.2767 20.7997 1.08267 20.9937 1.08267 21.2331V23.8331C1.08267 24.0725 1.2767 24.2665 1.51602 24.2665H3.24942C3.48874 24.2665 3.68277 24.0725 3.68277 23.8331V22.9664H6.16023C5.67417 23.9039 5.41909 24.9439 5.41617 25.9999H6.28287C6.28509 25.2544 6.43226 24.5164 6.71622 23.8271V23.8331C6.71622 24.0725 6.91025 24.2665 7.14957 24.2665H8.88297C9.12228 24.2665 9.31631 24.0725 9.31631 23.8331V22.0998H14.7419L14.9915 22.4118C15.8048 23.431 16.2484 24.6959 16.2499 25.9999H17.1166C17.1147 24.4992 16.604 23.0435 15.6679 21.8705L15.3364 21.4562L15.17 20.957C14.7667 19.7452 14.8052 18.4298 15.2788 17.2436L15.303 17.183C15.8408 17.0145 16.2179 16.5305 16.2499 15.9679V15.9501L20.947 14.9439C21.7442 14.7692 22.3134 14.0647 22.3168 13.2486V8.66593C22.3168 8.90524 22.5108 9.09928 22.7502 9.09928H24.4836C24.7229 9.09928 24.9169 8.90524 24.9169 8.66593V6.06583C24.9169 5.82652 24.7229 5.63248 24.4836 5.63248ZM18.4167 8.23258H17.55V6.49918H18.4167V8.23258ZM2.81607 23.3998H1.94937V21.6664H2.81607V23.3998ZM6.1741 21.9169L6.20443 22.1011H5.48507C5.23763 21.7565 4.98282 20.8612 4.98282 18.633C5.01873 16.7242 5.62217 14.8694 6.71622 13.3049V15.9367C6.14463 17.2315 5.95482 20.6004 6.1741 21.9169ZM11.2231 0.873878C13.2783 0.735423 15.086 2.22089 15.3485 4.26397L12.9768 3.07789C12.8937 3.03613 12.7993 3.02242 12.7077 3.03889L7.67305 3.92726C8.02921 2.22344 9.48516 0.971165 11.2231 0.873878ZM5.41617 10.3829V4.33244C5.4179 2.9903 6.4399 1.86961 7.77619 1.74448C7.08511 2.59926 6.71064 3.6666 6.71622 4.76579V5.20997C6.71622 7.06904 7.57642 8.08697 8.72003 8.97274C7.80517 9.79551 6.6432 10.2915 5.41617 10.3829ZM7.58292 5.20997V4.82342L12.7177 3.91729L15.381 5.24897C15.3685 6.86276 14.6313 7.66619 13.0925 8.74393C12.1252 9.41741 10.8409 9.41741 9.8736 8.74393C8.32178 7.65709 7.58292 6.8515 7.58292 5.20997ZM9.31631 11.8168C9.59875 11.7394 9.89018 11.6999 10.183 11.6994C10.4223 11.6994 10.6164 11.5053 10.6164 11.266V10.0019C11.1843 10.1531 11.7819 10.1531 12.3498 10.0019V11.266C12.3498 11.5053 12.5438 11.6994 12.7831 11.6994C13.0759 11.6999 13.3674 11.7394 13.6498 11.8168V12.5102L11.4831 12.976L9.31631 12.5102V11.8168ZM6.95846 20.8487C6.93186 19.553 7.04388 18.2581 7.29257 16.9862C7.40546 17.0643 7.52701 17.129 7.65485 17.1791C8.09172 18.3433 8.11057 19.6231 7.70815 20.7997H7.14957C7.08288 20.8007 7.0174 20.8175 6.95846 20.8487ZM8.44962 23.3998H7.58292V21.6664H8.44962V23.3998ZM9.31631 21.2331C9.31631 20.9937 9.12228 20.7997 8.88297 20.7997H8.62296C8.95095 19.6674 8.95095 18.4653 8.62296 17.3329H14.3258C13.9189 18.6024 13.9267 19.9683 14.3479 21.2331H9.31631ZM15.3832 15.9679C15.3832 16.2032 15.0127 16.4662 14.5165 16.4662H8.44962C7.95343 16.4662 7.58292 16.2032 7.58292 15.9679V12.2289C7.86421 12.1128 8.15396 12.0182 8.44962 11.9459V12.8616C8.44956 13.0659 8.59219 13.2425 8.79196 13.2854L11.3921 13.8449C11.452 13.858 11.5141 13.858 11.5741 13.8449L14.1742 13.2854C14.3739 13.2425 14.5166 13.0659 14.5165 12.8616V11.9455C14.8122 12.0178 15.1019 12.1124 15.3832 12.2285V15.9679ZM20.765 14.0962L16.2499 15.0635V12.9994H18.9627C19.8643 13.0022 20.6165 12.3112 20.69 11.4125L20.989 6.93253H21.4501V13.2486C21.4485 13.6568 21.1638 14.0091 20.765 14.0962ZM24.0502 8.23258H23.1835V6.49918H24.0502V8.23258Z" fill="#13377D"/>
</g>
<defs>
<clipPath id="clip0">
<rect width="26" height="26" fill="white"/>
</clipPath>
</defs>
</svg>
