<svg xmlns="http://www.w3.org/2000/svg" width="49" height="49" fill="none"><path fill="#fff" fill-rule="evenodd" d="M13.542 21.572l-.32-.213v-12.1l-8.26-2.753L24.48 0l10.61 3.536-.456 1.364L24.48 1.515 9.506 6.506l14.974 4.992 14.975-4.992-3.457-1.152.454-1.363L44 6.506l-2.512.838v7.263a2.64 2.64 0 011.917 2.535v3.593h-5.27v-3.593a2.64 2.64 0 011.916-2.535V7.823L35.74 9.26v12.099l-.32.213c-.125.083-3.145 2.037-10.939 2.037-7.793 0-10.813-1.954-10.938-2.037zm28.424-2.274v-2.156c0-.66-.537-1.198-1.197-1.198s-1.198.537-1.198 1.198v2.155h2.395zM24.48 13.012l-9.82-3.274v10.808c.92.45 3.9 1.625 9.82 1.625 5.915 0 8.895-1.174 9.821-1.625v-.866h-3.114v-1.437h3.114v-1.438H32.53V15.37h1.77V9.74l-9.82 3.274zm24.481 26.406v-4.312h-4.6v-2.874H42.83v-2.396h1.533v-4.311H32.898v1.437h10.027V28.4H13.188v1.437h28.204v2.396H10.108a1.199 1.199 0 010-2.395h1.643V28.4h-1.643a2.638 2.638 0 00-2.635 2.635 2.638 2.638 0 002.635 2.635h32.817v1.437H18.157v1.437h29.367v1.437H6.946a4.077 4.077 0 00-4.072 4.072 4.077 4.077 0 004.072 4.073h33.85v-1.438H6.946a2.638 2.638 0 01-2.634-2.635 2.638 2.638 0 012.635-2.634H45.99v2.395H14.133v1.437H45.99v1.437h-3.758v1.438h5.29v1.437H6.948a5.515 5.515 0 01-5.51-5.51 5.515 5.515 0 015.51-5.509h9.773v-1.437h-6.612a4.077 4.077 0 01-4.072-4.072 4.077 4.077 0 014.072-4.072h21.353v-1.438H10.108a5.516 5.516 0 00-5.509 5.51c0 1.623.706 3.084 1.827 4.094C2.838 35.396 0 38.399 0 42.053A6.954 6.954 0 006.947 49H48.96v-4.312h-1.533v-5.27h1.533zm-37.703 2.395h1.437v1.437h-1.437v-1.437zm-2.874 0H9.82v1.437H8.384v-1.437zm21.366-23.57h-1.437v1.437h1.437v-1.438z" clip-rule="evenodd"/></svg>