<svg width="72" height="72" fill="none" xmlns="http://www.w3.org/2000/svg"><path d="M71.971 57.921v-6.335h-6.758v-4.224h-2.252v-3.52h2.252v-6.335H48.37v2.112h14.733v2.112H19.407v2.111h41.442v3.52H14.882c-.971 0-1.76-.79-1.76-1.76s.789-1.76 1.76-1.76h2.413v-2.111h-2.414a3.876 3.876 0 00-3.871 3.871 3.876 3.876 0 003.872 3.872h48.22v2.112H26.708v2.112h43.151v2.111H10.236a5.99 5.99 0 00-5.984 5.984 5.99 5.99 0 005.984 5.983h49.738v-2.111H10.236a3.876 3.876 0 01-3.872-3.872 3.876 3.876 0 013.872-3.872h57.37v3.52h-46.81v2.112h46.812v2.112h-5.521v2.111h7.773v2.112H10.236c-4.464 0-8.096-3.631-8.096-8.095s3.632-8.095 8.096-8.095h14.36v-2.112h-9.714a5.99 5.99 0 01-5.984-5.984 5.99 5.99 0 015.984-5.983h31.375v-2.112H14.882c-4.464 0-8.096 3.632-8.096 8.095a8.076 8.076 0 002.685 6.016C4.199 52.01.028 56.422.028 61.793.028 67.421 4.608 72 10.236 72H71.97v-6.335h-2.25V57.92h2.252z" fill="#041E42"/><path d="M16.57 61.44h2.113v2.113H16.57V61.44zm2.887-30.056l.47.314c.183.122 4.621 2.993 16.073 2.993 11.45 0 15.889-2.87 16.072-2.993l.47-.314V13.607l6.336-2.112v9.969a3.878 3.878 0 00-2.816 3.724v5.28h7.743v-5.28a3.878 3.878 0 00-2.816-3.724V10.79l3.692-1.23-11.09-3.697-.668 2.003 5.08 1.693L36 16.895 13.997 9.56 36 2.226 50.92 7.2l.668-2.004L36 0 7.319 9.56l12.138 4.046v17.778zm42.236-6.196v3.168h-3.52v-3.168c0-.97.79-1.76 1.76-1.76.971 0 1.76.79 1.76 1.76zM21.57 14.31L36 19.12l14.431-4.81v8.273h-2.604v2.112h2.604v2.112h-4.575v2.112h4.575v1.273c-1.36.663-5.739 2.387-14.43 2.387-8.699 0-13.077-1.727-14.431-2.387V14.31zm-9.222 47.13h2.111v2.113h-2.111V61.44z" fill="#041E42"/><path d="M41.632 26.807h2.111v2.112h-2.111v-2.112z" fill="#041E42"/></svg>