<svg xmlns="http://www.w3.org/2000/svg" width="50" height="50" fill="none"><path fill="#fff" fill-rule="evenodd" d="M38.195 44.973a.726.726 0 111.45 0v.977c0 1.98-1.61 3.59-3.59 3.59h-32.1c-1.98 0-3.59-1.61-3.59-3.59V11.072c0-.96.373-1.86 1.051-2.539l7.482-7.481A3.567 3.567 0 0111.436 0h24.62c1.98 0 3.59 1.61 3.59 3.59v9.66a.726.726 0 11-1.451 0V3.59c0-1.18-.96-2.139-2.14-2.139H11.437c-.157 0-.31.019-.46.051V8.11a2.504 2.504 0 01-2.502 2.502H1.867a2.14 2.14 0 00-.051.46v34.88c0 1.179.96 2.138 2.139 2.138h32.1c1.18 0 2.14-.96 2.14-2.139v-.977zM9.525 8.109V2.477L2.841 9.16h5.632c.579 0 1.05-.471 1.05-1.05zm23.97.875V6.63c0-.897-.73-1.627-1.627-1.627H16.97c-.897 0-1.626.73-1.626 1.627v2.354c0 .897.73 1.627 1.626 1.627h1.258a.726.726 0 100-1.451H16.97a.176.176 0 01-.175-.176V6.63c0-.097.079-.176.175-.176h14.898c.097 0 .175.079.175.176v2.354a.176.176 0 01-.175.176H21.62a.726.726 0 100 1.45h10.247a1.628 1.628 0 001.627-1.626zm-8.362 8.578H6.557a.726.726 0 000 1.451h18.576a.726.726 0 100-1.45zm0 5.1H6.557a.726.726 0 000 1.45h18.576a.726.726 0 100-1.45zM6.557 27.76h18.576a.726.726 0 110 1.451H6.557a.726.726 0 010-1.451zm19.301 5.824c0-.4-.325-.725-.725-.725H6.557a.726.726 0 000 1.45h18.576c.4 0 .725-.324.725-.725zM5.831 41.057c0-.401.325-.726.726-.726h9.311a.726.726 0 010 1.451H6.557a.726.726 0 01-.726-.725zM48.859 25.93c.51-.747.641-1.67.361-2.53a2.881 2.881 0 00-1.78-1.834 1.442 1.442 0 01-.96-1.322 2.882 2.882 0 00-1.194-2.26 2.882 2.882 0 00-2.518-.437 1.442 1.442 0 01-1.553-.505 2.882 2.882 0 00-2.295-1.125c-.904 0-1.74.41-2.294 1.125a1.442 1.442 0 01-1.553.505 2.882 2.882 0 00-2.519.438 2.882 2.882 0 00-1.194 2.26 1.442 1.442 0 01-.96 1.32c-.851.306-1.5.975-1.78 1.835s-.147 1.783.362 2.53a1.442 1.442 0 010 1.633 2.882 2.882 0 00-.362 2.53c.28.86.928 1.53 1.78 1.835.565.203.942.721.96 1.321a2.901 2.901 0 002.505 2.787v6.606a1.541 1.541 0 002.348 1.312l2.661-1.639c.043-.027.07-.014.093 0l2.661 1.639a1.542 1.542 0 002.348-1.312v-6.607a2.901 2.901 0 002.505-2.787 1.44 1.44 0 01.96-1.32 2.881 2.881 0 001.78-1.835c.28-.86.148-1.782-.362-2.53a1.44 1.44 0 010-1.633zm-6.47 16.788l-2.661-1.639a1.54 1.54 0 00-1.615 0l-2.661 1.639a.088.088 0 01-.136-.076v-6.744a1.44 1.44 0 011.31.553 2.882 2.882 0 002.294 1.126c.905 0 1.741-.41 2.295-1.126a1.44 1.44 0 011.31-.553v6.744c0 .07-.076.113-.136.076zm5.27-14.338c.255.374.321.835.181 1.265a1.44 1.44 0 01-.89.917 2.885 2.885 0 00-1.92 2.643 1.43 1.43 0 01-.522 1.071 1.445 1.445 0 01-1.333.277 2.886 2.886 0 00-3.108 1.01 1.44 1.44 0 01-1.147.563 1.44 1.44 0 01-1.147-.563 2.883 2.883 0 00-3.107-1.01c-.48.14-.972.023-1.334-.277a1.43 1.43 0 01-.522-1.07 2.885 2.885 0 00-1.92-2.644 1.44 1.44 0 01-.89-.917 1.44 1.44 0 01.181-1.265 2.885 2.885 0 000-3.267 1.44 1.44 0 01-.18-1.265c.139-.43.463-.764.889-.916a2.885 2.885 0 001.92-2.644 1.44 1.44 0 01.597-1.129 1.44 1.44 0 011.259-.219 2.885 2.885 0 003.107-1.01 1.44 1.44 0 011.147-.562c.452 0 .87.205 1.147.562a2.885 2.885 0 003.108 1.01 1.44 1.44 0 011.258.219c.366.266.584.677.597 1.13.037 1.2.79 2.237 1.92 2.643.426.152.75.486.89.916.14.43.074.891-.18 1.265a2.885 2.885 0 000 3.267zm-14.82-1.633a6.089 6.089 0 016.081-6.082 6.088 6.088 0 016.082 6.082 6.088 6.088 0 01-6.082 6.081 6.089 6.089 0 01-6.081-6.081zm1.45 0a4.636 4.636 0 004.631 4.63 4.636 4.636 0 004.63-4.63 4.636 4.636 0 00-4.63-4.63 4.636 4.636 0 00-4.63 4.63z" clip-rule="evenodd"/></svg>