<svg width="72" height="72" fill="none" xmlns="http://www.w3.org/2000/svg"><path d="M36.39 25.524H9.392a1.055 1.055 0 100 2.11H36.39a1.055 1.055 0 100-2.11zm0 7.411H9.392a1.055 1.055 0 000 2.109H36.39a1.055 1.055 0 100-2.11zm0 7.41H9.392a1.055 1.055 0 000 2.109H36.39a1.055 1.055 0 100-2.11zm1.055 8.465c0-.583-.473-1.055-1.055-1.055H9.392a1.055 1.055 0 100 2.11H36.39c.582 0 1.055-.473 1.055-1.055zM9.392 58.615a1.055 1.055 0 000 2.11h13.534a1.055 1.055 0 000-2.11H9.392zm39.151-45.558V9.635a2.367 2.367 0 00-2.364-2.364H24.527a2.367 2.367 0 00-2.364 2.364v3.422a2.367 2.367 0 002.364 2.364h1.828a1.055 1.055 0 100-2.109h-1.828a.255.255 0 01-.255-.255V9.635c0-.14.115-.255.255-.255H46.18c.14 0 .255.115.255.255v3.422c0 .14-.115.255-.255.255H31.286a1.055 1.055 0 100 2.11h14.893a2.366 2.366 0 002.364-2.365z" fill="#041E42"/><path d="M56.428 64.307c-.582 0-1.054.472-1.054 1.055v1.42a3.112 3.112 0 01-3.11 3.109H5.612a3.112 3.112 0 01-3.109-3.109v-50.69c0-.229.027-.453.074-.67h9.603a3.64 3.64 0 003.635-3.636V2.184a3.13 3.13 0 01.67-.075h35.78a3.112 3.112 0 013.11 3.109v14.04a1.054 1.054 0 102.109 0V5.218A5.224 5.224 0 0052.265 0h-35.78a5.184 5.184 0 00-3.69 1.528L1.92 12.402a5.184 5.184 0 00-1.528 3.69v50.69A5.224 5.224 0 005.61 72h46.654a5.224 5.224 0 005.218-5.218v-1.42c0-.582-.472-1.055-1.055-1.055zM13.705 3.601v8.185c0 .842-.684 1.526-1.526 1.526H3.994l9.711-9.711z" fill="#041E42"/><path d="M70.873 37.687a4.188 4.188 0 00.525-3.677 4.188 4.188 0 00-2.587-2.666 2.095 2.095 0 01-1.394-1.92 4.189 4.189 0 00-1.737-3.284 4.189 4.189 0 00-3.66-.637 2.095 2.095 0 01-2.257-.733 4.188 4.188 0 00-3.334-1.636c-1.315 0-2.53.596-3.336 1.636-.533.69-1.42.978-2.257.733a4.189 4.189 0 00-3.66.637 4.19 4.19 0 00-1.736 3.284 2.096 2.096 0 01-1.395 1.92 4.188 4.188 0 00-2.586 2.666 4.189 4.189 0 00.525 3.677 2.096 2.096 0 010 2.374 4.189 4.189 0 00-.525 3.677 4.188 4.188 0 002.586 2.666 2.095 2.095 0 011.395 1.92 4.216 4.216 0 003.642 4.05v9.602a2.24 2.24 0 003.411 1.906l3.868-2.381c.063-.04.1-.022.135 0l3.868 2.38a2.24 2.24 0 003.412-1.905v-9.602a4.216 4.216 0 003.641-4.05 2.095 2.095 0 011.395-1.92 4.188 4.188 0 002.587-2.666 4.189 4.189 0 00-.526-3.678 2.094 2.094 0 010-2.373zm-9.404 24.399l-3.867-2.381a2.238 2.238 0 00-2.347 0l-3.868 2.38a.128.128 0 01-.196-.11v-9.801a2.092 2.092 0 011.902.804 4.19 4.19 0 003.336 1.636c1.314 0 2.53-.596 3.334-1.636a2.092 2.092 0 011.903-.804v9.802c0 .102-.11.163-.197.11zm7.66-20.837c.37.543.466 1.212.263 1.837A2.094 2.094 0 0168.1 44.42a4.192 4.192 0 00-2.79 3.841 2.079 2.079 0 01-.76 1.557 2.1 2.1 0 01-1.938.403 4.193 4.193 0 00-4.516 1.467c-.402.52-1.01.818-1.667.818a2.094 2.094 0 01-1.667-.818 4.19 4.19 0 00-4.516-1.467 2.099 2.099 0 01-1.938-.403 2.08 2.08 0 01-.759-1.557 4.193 4.193 0 00-2.79-3.841 2.094 2.094 0 01-1.294-1.333 2.093 2.093 0 01.263-1.838 4.193 4.193 0 000-4.748 2.093 2.093 0 01-.263-1.838 2.093 2.093 0 011.293-1.333 4.193 4.193 0 002.791-3.841c.02-.657.336-1.255.868-1.642a2.094 2.094 0 011.83-.318 4.193 4.193 0 004.515-1.467 2.093 2.093 0 011.667-.818c.658 0 1.265.298 1.667.818a4.193 4.193 0 004.516 1.467 2.093 2.093 0 011.83.318c.531.386.847.985.867 1.641A4.193 4.193 0 0068.1 33.33c.619.222 1.09.708 1.293 1.333a2.093 2.093 0 01-.262 1.838 4.193 4.193 0 000 4.748z" fill="#041E42"/><path d="M56.428 30.035c-4.874 0-8.839 3.965-8.839 8.839 0 4.874 3.965 8.839 8.84 8.839 4.873 0 8.838-3.965 8.838-8.84 0-4.873-3.965-8.838-8.839-8.838zm0 15.569a6.737 6.737 0 01-6.73-6.73c0-3.71 3.02-6.73 6.73-6.73 3.711 0 6.73 3.02 6.73 6.73 0 3.71-3.02 6.73-6.73 6.73z" fill="#041E42"/></svg>