<svg xmlns="http://www.w3.org/2000/svg" width="50" height="49" fill="none"><path fill="#fff" fill-rule="evenodd" d="M24.514.957a.957.957 0 011.914 0v1.432a.957.957 0 01-1.914 0V.957zM35.89 17.936l1.703.406a4.483 4.483 0 013.453 4.375v1.788a.957.957 0 01-.957.957h-4.41a8.337 8.337 0 01.011.353v3.438a.957.957 0 01-.957.957h-5.848a.957.957 0 010-1.914h1.084v-1.978a.957.957 0 111.914 0v1.978h1.893v-2.481a3.962 3.962 0 00-3.051-3.866l-2.618-.626-1.756 3.993a.957.957 0 01-1.752 0l-1.758-3.999-2.626.63a3.962 3.962 0 00-3.048 3.865v2.484h1.892v-1.978a.957.957 0 111.914 0v1.978h.99a.957.957 0 110 1.914h-5.754a.957.957 0 01-.957-.957v-3.441c0-.118.005-.235.012-.35h-4.398a.957.957 0 01-.957-.958v-1.787c0-2.09 1.42-3.89 3.453-4.375l1.703-.406v-.306a4.28 4.28 0 01-1.833-3.51v-2.212a4.288 4.288 0 014.284-4.283c1.064 0 2.038.39 2.788 1.036a5.598 5.598 0 015.18-3.492 5.598 5.598 0 015.176 3.484 4.263 4.263 0 012.78-1.028 4.288 4.288 0 014.282 4.283v2.214a4.28 4.28 0 01-1.832 3.51v.305zm-.087-6.185a2.372 2.372 0 00-2.364-2.213c-.973 0-1.811.59-2.175 1.43.99.514 2.09.783 3.209.783h1.33zm-4.73 2.09c0 .047-.002.093-.003.14v.14a2.372 2.372 0 002.37 2.369 2.372 2.372 0 002.369-2.37v-.455h-1.336a8.89 8.89 0 01-3.4-.676v.852zm-5.59-6.759a3.68 3.68 0 00-3.675 3.676v.158h1.308c1.226 0 2.38-.539 3.168-1.478a.957.957 0 011.218-.21l1.611.946a3.682 3.682 0 00-3.63-3.092zm-5.792 3.887a2.373 2.373 0 00-2.175-1.431c-1.254 0-2.283.98-2.364 2.213h1.33a6.99 6.99 0 003.21-.782zm-3.209 2.696h-1.335v.456a2.372 2.372 0 002.369 2.369 2.372 2.372 0 002.369-2.37v-1.133a8.89 8.89 0 01-3.403.678zm-.78 9.882a5.87 5.87 0 014.067-3.462l.484-.116-1.428-.342a.956.956 0 01-.778-.942v-.008l.001-.012v-.295a4.3 4.3 0 01-1.07 0v.32a.957.957 0 01-.734.932l-2.437.582a2.576 2.576 0 00-1.984 2.513v.83h3.88zm5.97-5.206c.265.063.52.15.767.258v-.073a5.636 5.636 0 01-1.647-1.65c-.242.287-.52.541-.83.757v.298l1.71.41zm3.803 4.212l1.12-2.547v-.686a5.597 5.597 0 01-2.242-.004V20l1.122 2.554zm-3.667-8.712a3.68 3.68 0 003.675 3.676 3.68 3.68 0 003.673-3.536v-1.562l-1.974-1.16a6.03 6.03 0 01-4.066 1.571h-1.308v1.011zm6.701 4.697v.064c.248-.11.507-.197.773-.261l1.71-.41v-.298a4.317 4.317 0 01-.823-.75 5.631 5.631 0 01-1.66 1.655zm6.73 5.01h3.893v-.83a2.576 2.576 0 00-1.984-2.514l-2.437-.582a.957.957 0 01-.735-.931v-.322a4.308 4.308 0 01-1.07 0v.317a.956.956 0 01-.782.942l-1.435.344.48.115a5.868 5.868 0 014.07 3.46zM22.524 47.845l-1.568-7.473a14.094 14.094 0 00-5.96-8.848l-3.348-2.251a3.367 3.367 0 00-4.269.435v-11.53c0-1.514-1.032-2.8-2.51-3.128a3.188 3.188 0 00-2.699.629 3.188 3.188 0 00-1.198 2.499v14.838a9.27 9.27 0 001.72 5.395l1.707 2.404a.956.956 0 001.334.227.957.957 0 00.226-1.335l-1.706-2.404a7.367 7.367 0 01-1.367-4.287V18.178c0-.394.176-.76.482-1.006a1.283 1.283 0 011.087-.253 1.28 1.28 0 011.01 1.259V29.95c0 1.666.612 3.254 1.725 4.49.047.056.096.113.148.168.636.673 1.383 1.467 2.087 2.215l.985 1.048.01.01.93.989.547.583a.957.957 0 001.396-1.31c-.018-.019-1.138-1.212-2.418-2.572l-2.194-2.335-.016-.018a1.615 1.615 0 01.031-2.117 1.447 1.447 0 011.884-.24l3.348 2.251a12.19 12.19 0 015.155 7.653l1.568 7.473a.957.957 0 001.873-.393zm-11.041-.357l-1.44-2.03a.957.957 0 10-1.562 1.108l1.441 2.03a.956.956 0 001.335.226.957.957 0 00.226-1.334zM8.056 42.66l.006.009a.957.957 0 01-1.558 1.111l-.006-.008a.957.957 0 011.558-1.112zm40.717-26.98a3.19 3.19 0 00-2.7-.629 3.185 3.185 0 00-2.51 3.128V29.71a3.368 3.368 0 00-4.268-.435l-3.348 2.25a14.093 14.093 0 00-5.96 8.849l-1.568 7.473a.957.957 0 101.873.393l1.568-7.473a12.19 12.19 0 015.155-7.653l3.348-2.25a1.447 1.447 0 011.884.24c.539.608.546 1.498.033 2.114l-.009.01-.009.01-4.611 4.907a.957.957 0 101.395 1.31l.14-.148c.704-.75 3.854-4.099 4.419-4.697.052-.055.1-.111.148-.169a6.688 6.688 0 001.725-4.49V18.179c0-.61.416-1.128 1.01-1.26.384-.085.78.008 1.087.254.307.246.482.612.482 1.006v14.838a7.366 7.366 0 01-1.366 4.287L39.46 47.49a.957.957 0 001.56 1.108l7.23-10.186a9.271 9.271 0 001.72-5.394v-14.84a3.19 3.19 0 00-1.198-2.498zM26.148 28.576a.962.962 0 00-1.353 0 .962.962 0 000 1.354c.178.178.424.28.676.28a.965.965 0 00.677-.28.966.966 0 00.28-.677.966.966 0 00-.28-.677zM21.945 3.122l-1.003-1.003a.957.957 0 10-1.353 1.354l1.004 1.003a.954.954 0 001.353 0 .957.957 0 000-1.354zm8.032-.978a.957.957 0 111.354 1.353l-.996.997a.954.954 0 01-1.353 0 .957.957 0 01-.001-1.353l.996-.997z" clip-rule="evenodd"/></svg>