<svg xmlns="http://www.w3.org/2000/svg" width="72" height="72" fill="none"><path fill="#041E42" d="M15.445 69.78l-2.117-2.983a1.406 1.406 0 10-2.293 1.628l2.117 2.983a1.404 1.404 0 001.96.332c.634-.45.783-1.327.333-1.96zm16.225.525l-2.305-10.982a20.71 20.71 0 00-8.758-13l-4.92-3.309a4.948 4.948 0 00-6.272.64V26.71a4.68 4.68 0 00-3.687-4.596 4.684 4.684 0 00-3.967.924 4.685 4.685 0 00-1.76 3.672v21.804c0 2.856.873 5.598 2.527 7.927l2.508 3.533a1.404 1.404 0 001.96.332c.634-.45.783-1.327.333-1.96L4.82 54.813a10.824 10.824 0 01-2.008-6.3V26.71c0-.578.258-1.117.709-1.478a1.885 1.885 0 011.596-.372 1.884 1.884 0 011.485 1.85v17.299c0 2.449.9 4.782 2.534 6.597.07.084.142.167.218.248.934.99 2.032 2.155 3.066 3.254l1.448 1.541.014.014 2.171 2.31a1.406 1.406 0 002.05-1.925c-.025-.027-1.671-1.78-3.551-3.778l-3.225-3.432-.023-.026a2.373 2.373 0 01.045-3.11 2.126 2.126 0 012.769-.354l4.919 3.308a17.911 17.911 0 017.575 11.245l2.304 10.981a1.407 1.407 0 002.752-.577z"/><path fill="#041E42" d="M10.419 62.699l-.01-.013a1.406 1.406 0 00-2.289 1.633l.01.013a1.404 1.404 0 001.96.328c.633-.451.78-1.33.329-1.961zm59.819-39.661a4.686 4.686 0 00-3.966-.924 4.68 4.68 0 00-3.687 4.596v16.945a4.948 4.948 0 00-6.273-.64l-4.92 3.307a20.71 20.71 0 00-8.758 13.002l-2.304 10.98a1.406 1.406 0 102.753.578l2.304-10.981a17.91 17.91 0 017.575-11.245l4.92-3.308a2.126 2.126 0 012.768.354c.791.893.802 2.202.049 3.106l-.027.03-6.776 7.21a1.406 1.406 0 002.05 1.925c.019-.02 5.765-6.13 6.699-7.12.076-.08.148-.163.218-.247a9.826 9.826 0 002.534-6.597v-17.3c0-.894.61-1.655 1.485-1.85a1.886 1.886 0 011.596.373c.451.361.71.9.71 1.478v21.804c0 2.27-.695 4.448-2.009 6.3L56.555 69.778a1.406 1.406 0 002.293 1.629L69.472 56.44A13.621 13.621 0 0072 48.514V26.71a4.686 4.686 0 00-1.762-3.672z"/><path fill="#041E42" d="M53.811 26.952l-2.502-.598v-.448a6.29 6.29 0 002.693-5.157v-3.252a6.3 6.3 0 00-6.294-6.294c-1.558 0-2.984.57-4.084 1.51-1.225-3-4.172-5.12-7.606-5.12-3.44 0-6.39 2.126-7.612 5.131a6.264 6.264 0 00-4.096-1.521 6.3 6.3 0 00-6.294 6.293v3.253a6.29 6.29 0 002.692 5.157v.448l-2.502.598a6.588 6.588 0 00-5.073 6.428v2.626c0 .777.63 1.407 1.406 1.407h6.462c-.01.17-.017.342-.017.514v5.057c0 .777.63 1.406 1.406 1.406h8.453a1.406 1.406 0 000-2.812H29.39v-2.906a1.406 1.406 0 00-2.812 0v2.906h-2.781v-3.65a5.822 5.822 0 014.48-5.68l3.858-.925 2.583 5.876a1.406 1.406 0 002.575 0l2.58-5.867 3.846.919a5.822 5.822 0 014.484 5.68v3.647h-2.781v-2.906a1.406 1.406 0 00-2.813 0v2.906h-1.594a1.406 1.406 0 000 2.813h8.594c.777 0 1.406-.63 1.406-1.407v-5.052a8.84 8.84 0 00-.017-.52h6.48c.777 0 1.407-.629 1.407-1.405V33.38a6.588 6.588 0 00-5.074-6.428zm-6.103-12.937a3.486 3.486 0 013.473 3.252h-1.955a10.25 10.25 0 01-4.715-1.15 3.486 3.486 0 013.197-2.102zm-3.482 6.528c.002-.068.006-.136.006-.205v-1.253c1.578.653 3.275.994 4.994.994h1.963v.67a3.485 3.485 0 01-3.481 3.481 3.485 3.485 0 01-3.482-3.481v-.206zm-13.61-4.735a5.408 5.408 0 015.402-5.402 5.41 5.41 0 015.333 4.543l-2.367-1.39a1.406 1.406 0 00-1.79.309 6.059 6.059 0 01-4.656 2.172h-1.922v-.232zm-6.306-1.793c1.43 0 2.661.867 3.196 2.102a10.251 10.251 0 01-4.715 1.15h-1.955a3.486 3.486 0 013.474-3.252zm-3.481 6.064h1.962c1.722 0 3.42-.341 5-.996v1.666a3.485 3.485 0 01-3.481 3.48 3.485 3.485 0 01-3.481-3.48v-.67zm6.792 9.434a8.624 8.624 0 00-5.976 5.087h-5.7v-1.22a3.784 3.784 0 012.915-3.693l3.581-.855a1.406 1.406 0 001.08-1.368v-.473c.259.033.522.052.789.052.265 0 .526-.019.783-.051v.401a1.405 1.405 0 001.141 1.447l2.098.502-.711.17zm3.923-2.183a6.6 6.6 0 00-1.126-.38l-2.512-.602v-.438a6.342 6.342 0 001.218-1.114 8.28 8.28 0 002.42 2.425v.109zm6.107 2.066l-1.645 3.743-1.65-3.753v-1.003a8.217 8.217 0 003.295.005v1.008zm-1.633-3.657a5.407 5.407 0 01-5.402-5.401v-1.485h1.922c2.23 0 4.35-.83 5.976-2.309l2.9 1.704v2.296a5.407 5.407 0 01-5.396 5.195zm4.446 1.595v-.095a8.274 8.274 0 002.44-2.43c.352.416.759.787 1.208 1.1v.439l-2.513.602a6.62 6.62 0 00-1.135.384zM56.072 34.6h-5.72a8.623 8.623 0 00-5.98-5.085l-.705-.168 2.109-.506a1.404 1.404 0 001.148-1.418v-.431a6.33 6.33 0 001.573 0v.472c0 .65.446 1.217 1.079 1.368l3.581.855a3.785 3.785 0 012.915 3.693v1.22z"/><path fill="#041E42" d="M36.994 41.989a1.413 1.413 0 00-1.988 0 1.414 1.414 0 00-.412.996c0 .37.149.73.412.994.261.261.623.412.994.412.37 0 .731-.15.994-.412a1.42 1.42 0 00.412-.994c0-.372-.15-.733-.412-.996zM35.999 0c-.777 0-1.406.63-1.406 1.406V3.51a1.406 1.406 0 002.812 0V1.406C37.405.63 36.775 0 36 0zm-5.18 4.587l-1.475-1.474a1.406 1.406 0 10-1.988 1.99l1.475 1.474a1.406 1.406 0 101.988-1.99zM44.61 3.15a1.406 1.406 0 00-1.99 0l-1.463 1.465a1.406 1.406 0 001.99 1.988l1.463-1.465c.549-.55.549-1.44 0-1.989z"/></svg>