<svg width="50" height="50" fill="none" xmlns="http://www.w3.org/2000/svg"><path fill-rule="evenodd" clip-rule="evenodd" d="M.972 40.017v-34.3A5.723 5.723 0 016.688 0h29.4a2.45 2.45 0 012.45 2.45v.817h9.8c.902 0 1.634.73 1.634 1.633v8.167c0 .902-.732 1.633-1.634 1.633h-9.8v1.633h9.8c.902 0 1.634.732 1.634 1.634v8.166c0 .902-.732 1.634-1.634 1.634h-9.8V29.4h9.8c.902 0 1.634.731 1.634 1.633V39.2c0 .902-.732 1.633-1.634 1.633h-9.8v2.45a2.45 2.45 0 01-2.45 2.45h-19.6v1.634a1.633 1.633 0 01-2.364 1.46l-1.72-.86-1.714.86a1.634 1.634 0 01-2.368-1.46v-1.634H6.688a5.723 5.723 0 01-5.716-5.716zM5.055 1.98a4.083 4.083 0 00-2.45 3.737v30.306a5.58 5.58 0 012.45-1.487V1.98zm6.623 44.526a1.643 1.643 0 011.462 0l1.715.86v-6.533h-4.9v6.534l1.723-.861zm8.077-5.673h-3.267V44.1H33.01a8.804 8.804 0 010-8.167H6.69a4.083 4.083 0 000 8.167h1.633v-3.267h-2.45a.817.817 0 110-1.633h13.883a.817.817 0 010 1.633zM48.338 34.3h-9.95a2.45 2.45 0 01-2.3 1.633h12.25V34.3zm-12.25 9.8a.817.817 0 00.817-.817v-2.45h-3.22a7.724 7.724 0 001.21 3.267h1.193zm-2.01-6.533a7.163 7.163 0 00-.392 1.633h14.652v-1.633h-14.26zm14.26-4.9v-1.634h-9.8v1.634h9.8zm0-6.534v-8.166h-9.8v8.166h9.8zM41.805 4.9v8.167h2.45V4.9h-2.45zm4.083 8.167h2.45V4.9h-2.45v8.167zm-5.716 0V4.9h-1.634v8.167h1.634zm-3.267 20.416V2.45a.817.817 0 00-.817-.817h-29.4V34.3h29.4a.817.817 0 00.817-.817zm8.983-11.433a2.45 2.45 0 11-4.9 0 2.45 2.45 0 014.9 0zm-1.633 0a.817.817 0 10-1.633 0 .817.817 0 001.633 0zm-28.866 3.001A11.828 11.828 0 0029.256 5.928a11.828 11.828 0 00-16.198 1.216.786.786 0 00-.111.122 11.8 11.8 0 002.442 17.785zM13.493 14.41a3.941 3.941 0 01-1.696-1.361 10.186 10.186 0 003.626 10.027 3.62 3.62 0 00-.033-1.848c-.226-1.297-.268-1.876.479-3.785a6.455 6.455 0 00.512-1.766c.046-.567-.608-.7-1.434-.87-.462-.094-.977-.2-1.454-.397zM25.85 24.476a10.077 10.077 0 01-4.985.794 8.05 8.05 0 014.985-.794zm2.104-1.245a11.982 11.982 0 00-5.898-.186 8.5 8.5 0 00-3.383 1.78c-.622-.2-1.224-.461-1.796-.777a5.694 5.694 0 00.127-3.104L17 20.918c-.176-1.02-.224-1.301.396-2.884a7.807 7.807 0 00.617-2.225 2.154 2.154 0 00-1.34-2.205c-.476-.209-.956-.308-1.415-.403-1.172-.243-2.208-.458-2.704-2.393.373-.804.849-1.556 1.415-2.237a20.686 20.686 0 004.812-.593 6.333 6.333 0 004.22-2.996 10.04 10.04 0 012.271.544 9.366 9.366 0 01-2.332 1.402 4.29 4.29 0 00-2.532 2.878c-.347 1.942 1.34 3.237 3.052 3.618 2.984.663 2.284 2.53 1.598 4.36-.286.764-.57 1.521-.584 2.183a2.327 2.327 0 002.467 2.41 5.484 5.484 0 003.056-1.216 10.261 10.261 0 01-2.041 2.069h-.001zM15.849 6.828a10.127 10.127 0 015.163-1.888c-1.247 1.332-3.21 1.685-5.164 1.888zm15.483 11.893c-1.05.316-1.761.779-2.382 1.182-.612.399-1.136.74-1.812.826a1.062 1.062 0 01-.839-.192c-.419-.377-.122-1.142.253-2.108.338-.868.738-1.899.738-2.956-.006-1.826-1.274-3.154-3.478-3.643-.082-.018-2.026-.466-1.797-1.735a2.712 2.712 0 011.6-1.68 9.947 9.947 0 003.257-2.153 10.167 10.167 0 014.46 12.46zm-16.477 9.862h13.883a.817.817 0 110 1.634H14.855a.817.817 0 110-1.634z" fill="#fff"/></svg>