<svg width="72" height="72" fill="none" xmlns="http://www.w3.org/2000/svg"><g clip-path="url(#clip0)" fill="#041E42"><path d="M0 8.4v50.4a8.41 8.41 0 008.4 8.4h2.4v2.4a2.4 2.4 0 003.48 2.146l2.52-1.264 2.526 1.264A2.4 2.4 0 0022.8 69.6v-2.4h28.8a3.6 3.6 0 003.6-3.6V60h14.4a2.4 2.4 0 002.4-2.4v-12a2.4 2.4 0 00-2.4-2.4H55.2v-2.4h14.4a2.4 2.4 0 002.4-2.4v-12a2.4 2.4 0 00-2.4-2.4H55.2v-2.4h14.4a2.4 2.4 0 002.4-2.4v-12a2.4 2.4 0 00-2.4-2.4H55.2V3.6A3.6 3.6 0 0051.6 0H8.4A8.41 8.41 0 000 8.4zm2.4 0A6 6 0 016 2.909v47.838a8.201 8.201 0 00-3.6 2.185V8.4zm15.48 59.935a2.415 2.415 0 00-2.148 0L13.2 69.6V60h7.2v9.6l-2.52-1.265zM22.8 60h4.8a1.2 1.2 0 000-2.4H7.2a1.2 1.2 0 000 2.4h3.6v4.8H8.4a6 6 0 010-12h38.676a12.936 12.936 0 000 12H22.8V60zm32.18-9.6H69.6v2.4h-18a3.6 3.6 0 003.38-2.4zM52.8 63.6a1.2 1.2 0 01-1.2 1.2h-1.753A11.35 11.35 0 0148.07 60h4.73v3.6zm-4.73-6c.097-.82.291-1.625.577-2.4H69.6v2.4H48.07zm21.53-12V48H55.2v-2.4h14.4zm0-19.2v12H55.2v-12h14.4zM60 19.2v-12h3.6v12H60zm9.6 0H66v-12h3.6v12zm-12-12v12h-2.4v-12h2.4zm-4.8-3.6v45.6a1.2 1.2 0 01-1.2 1.2H8.4v-48h43.2a1.2 1.2 0 011.2 1.2z"/><path d="M62.4 36a3.6 3.6 0 100-7.2 3.6 3.6 0 000 7.2zm0-4.8a1.2 1.2 0 110 2.4 1.2 1.2 0 010-2.4zm-41.216 5.61a.756.756 0 00.075.045c7.767 4.956 18.052 2.988 23.442-4.484 5.39-7.473 4.012-17.853-3.14-23.66-7.154-5.808-17.596-5.024-23.801 1.787-.06.053-.116.113-.164.178a17.338 17.338 0 003.588 26.134zm-5.28-17.64a5.791 5.791 0 002.494 2.004c1.956.811 4.35.563 4.244 1.861a9.483 9.483 0 01-.752 2.596c-1.097 2.804-1.036 3.655-.704 5.56a5.32 5.32 0 01.049 2.716 14.966 14.966 0 01-5.326-14.742l-.005.005zm13.32 17.965a11.83 11.83 0 017.334-1.171 14.807 14.807 0 01-7.332 1.166l-.002.005zm10.425-3a17.607 17.607 0 00-8.667-.273 12.492 12.492 0 00-4.97 2.615 14.927 14.927 0 01-2.64-1.142 8.368 8.368 0 00.187-4.56c-.264-1.53-.344-1.93.575-4.277.463-1.038.768-2.14.907-3.268a3.164 3.164 0 00-1.969-3.24c-2.489-1.09-5.04-.153-6.053-4.108a15.012 15.012 0 012.08-3.288 30.389 30.389 0 007.07-.871 9.306 9.306 0 006.2-4.403c1.14.136 2.26.405 3.338.8a13.757 13.757 0 01-3.427 2.06 6.303 6.303 0 00-3.72 4.228c-.51 2.854 1.968 4.757 4.484 5.318 6.212 1.378 1.56 6.31 1.49 9.613a3.42 3.42 0 003.626 3.54 8.058 8.058 0 004.49-1.785 15.104 15.104 0 01-3 3.04l-.001.001zM21.86 10.033a14.88 14.88 0 017.588-2.774c-1.833 1.957-4.718 2.475-7.588 2.774zM44.61 27.51c-3.066.922-4.16 2.694-6.161 2.95a1.56 1.56 0 01-1.233-.283c-1.17-1.05 1.456-4.159 1.456-7.44-.008-2.683-1.872-4.634-5.11-5.353-.12-.026-2.978-.685-2.64-2.55a3.986 3.986 0 012.351-2.468 14.614 14.614 0 004.785-3.163 14.939 14.939 0 016.553 18.307zM40.8 42H20.4a1.2 1.2 0 000 2.4h20.4a1.2 1.2 0 100-2.4z"/></g><defs><clipPath id="clip0"><path fill="#fff" d="M0 0h72v72H0z"/></clipPath></defs></svg>