<svg width="50" height="49" fill="none" xmlns="http://www.w3.org/2000/svg"><path d="M49.13 9.15a2.881 2.881 0 00-1.404-.862c-6.011-1.463-11.928-.66-17.475.29-.82.14-1.637.285-2.455.43-.814.145-1.629.29-2.443.43-5.727.98-11.81 1.775-17.824.035V7.236a4.045 4.045 0 10-4.898.056v39.259a2.391 2.391 0 00.713 1.721A2.406 2.406 0 005.08 49a2.452 2.452 0 002.45-2.45V35.669a27.61 27.61 0 004.888.843c.01 0 .017.004.027.004l.005-.001c.93.077 1.856.117 2.78.117a61.73 61.73 0 0010.398-1.091c.818-.14 1.636-.286 2.454-.431.814-.145 1.63-.29 2.443-.43h.001c5.378-.92 11.106-1.703 16.815-.312.51.133 1.05.087 1.53-.132.13-.06.253-.134.366-.22a2 2 0 00.745-1.618V11.171a3.026 3.026 0 00-.853-2.022zm-43.234.937V46.55c0 .45-.365.815-.816.816-.22 0-.43-.09-.581-.25a.783.783 0 01-.235-.566V8.033c.539.11 1.095.105 1.632-.015v2.069zm-.85-3.609a2.414 2.414 0 11-.001-4.829 2.414 2.414 0 01.001 4.83zm26.159 3.594a58.2 58.2 0 019.193-.95 96.385 96.385 0 00-9.193 6.173v-5.223zm0 7.256a84.106 84.106 0 0112.388-8.072c.864.082 1.73.2 2.597.37-4.941 1.867-9.783 5.145-14.33 8.482l-.655.106v-.886zm-6.531-6.12v5.35a75.244 75.244 0 01-9.178-4.423 58.89 58.89 0 009.178-.926zm-12.507.79a70.447 70.447 0 0012.507 6.326v1.026c-.291.049-.583.096-.877.143A59.355 59.355 0 019.95 11.705c.741.128 1.48.225 2.218.293zm-4.638-.141c4 3.29 8.44 6.009 13.19 8.076l-.286.035c-.218.026-.436.048-.655.072l-.424.044c-.214.021-.428.04-.643.058-.148.012-.295.026-.443.037l-.109.007a50.473 50.473 0 01-10.63-7.182v-1.147zm0 5.235V15.16a51.03 51.03 0 007.413 5.137 31.48 31.48 0 01-.558-.011c-.167-.004-.335-.008-.502-.015-.195-.008-.39-.02-.586-.031a27.635 27.635 0 01-1.096-.086 27.034 27.034 0 01-1.097-.129 23.75 23.75 0 01-2.195-.396 24.36 24.36 0 01-1.098-.276l-.28-.082v-2.18zm0 8.78l.057.014c.127.034.253.062.38.094.251.063.503.127.755.182.14.03.28.056.42.085.238.048.475.096.712.138.147.026.295.048.442.071.23.037.46.073.689.104.151.02.302.037.453.054.225.027.45.053.674.074.155.015.31.027.463.039a31.02 31.02 0 002.256.101l.103.002a35.695 35.695 0 01-7.404 3.373v-4.331zm0 6.03a40.906 40.906 0 0010.717-5.184c.186-.014.37-.03.555-.046l.475-.04c.208-.02.416-.042.623-.064.159-.016.317-.032.475-.05l.167-.019c-4.214 2.963-8.616 5.649-13.012 7.006v-1.602zm17.145 2.143a58.244 58.244 0 01-9.185.946 96.392 96.392 0 009.185-6.169v5.223zm0-7.256a84.167 84.167 0 01-12.382 8.069 26.92 26.92 0 01-2.618-.369c4.934-1.863 9.781-5.131 14.343-8.48l.657-.106v.886zm6.53 6.12v-5.35a75.195 75.195 0 019.17 4.419c-3.076.07-6.142.38-9.17.931zm12.505-.791a70.447 70.447 0 00-12.504-6.325v-1.026c.291-.049.584-.097.877-.143a59.254 59.254 0 0113.856 7.79 28.69 28.69 0 00-2.229-.297zm4.64.146a55.726 55.726 0 00-13.187-8.08c.114-.013.227-.029.341-.042l.255-.028c.275-.03.551-.06.827-.087.102-.01.204-.018.307-.027.26-.024.52-.047.78-.067l.046-.003a50.476 50.476 0 0110.632 7.183v1.15zm0-3.307a50.959 50.959 0 00-7.412-5.137h.01c.146.001.291.005.437.008.22.005.44.01.66.02a30.615 30.615 0 011.099.066c.157.012.314.028.472.042a26.25 26.25 0 013.923.668c.175.044.35.09.525.139.095.026.19.055.286.083v4.11zm0-5.814c-.028-.008-.056-.013-.085-.021-.17-.045-.34-.083-.51-.125-.227-.055-.454-.113-.681-.162-.182-.04-.364-.073-.546-.108-.215-.042-.43-.085-.644-.122-.189-.032-.378-.059-.567-.087-.207-.03-.413-.062-.619-.088a25.95 25.95 0 00-.58-.066 27.553 27.553 0 00-1.787-.14 35.282 35.282 0 00-2.355-.033 38.199 38.199 0 00-1.173.038c-.193.01-.386.018-.58.03-.196.012-.392.026-.588.04-.191.014-.383.028-.574.045-.196.016-.392.035-.588.054a50.41 50.41 0 00-1.167.125c-.181.02-.363.041-.544.064-.208.026-.415.054-.623.082l-.52.07-.662.098-.466.07-.759.12c-.122.02-.245.039-.366.06-.373.06-.744.122-1.115.186a.817.817 0 00-.678.805v9.11c-.592.102-1.184.206-1.776.313l-1.49.264v-8.827a.793.793 0 00-.577-.774.828.828 0 00-.095-.017.796.796 0 00-.144-.026.858.858 0 00-.138.012c-.369.063-.74.125-1.111.186l-.01.002c-.366.06-.733.118-1.1.176l-.109.016c-.333.05-.668.1-1.004.148l-.203.027a69.94 69.94 0 01-.919.123l-.256.03c-.287.034-.575.068-.865.099l-.32.031a55.4 55.4 0 01-.81.076c-.117.01-.235.018-.352.027-.26.02-.52.038-.78.054-.129.008-.258.012-.387.019-.25.013-.5.025-.75.032-.137.004-.275.006-.413.009-.241.004-.483.009-.725.009-.146 0-.291-.003-.437-.005-.235-.003-.47-.007-.706-.015-.152-.005-.304-.013-.456-.02a31.443 31.443 0 01-.685-.04c-.16-.01-.318-.026-.478-.04a30.07 30.07 0 01-.667-.064c-.164-.018-.328-.04-.492-.06a27.745 27.745 0 01-1.16-.177 24.765 24.765 0 01-2.318-.517l-.31-.09v-3.196l.022.006c.375.1.75.193 1.125.276.1.022.2.04.3.06.277.058.553.116.83.165.15.027.302.048.453.072.224.036.45.073.674.104.165.022.33.04.495.059.21.024.421.05.631.071.17.016.34.028.51.042.204.016.41.034.613.046.172.01.344.017.516.024.202.01.404.018.606.024.172.004.343.006.514.008.137.001.274.006.411.006.056 0 .112-.002.167-.003.284-.001.568-.007.85-.015.133-.003.265-.005.396-.01.41-.014.82-.035 1.227-.061l.114-.009a49.69 49.69 0 001.117-.088l.444-.044a58.757 58.757 0 003.238-.405l.489-.073c.258-.04.516-.08.773-.122l.421-.067c.39-.064.777-.128 1.162-.194a.816.816 0 00.68-.806v-9.11a287.57 287.57 0 001.775-.313l1.49-.264v8.827a.817.817 0 00.954.805c.363-.062.726-.123 1.091-.183.137-.023.275-.044.413-.066l.687-.11.512-.076c.198-.03.395-.06.593-.088.191-.027.383-.051.574-.077.18-.024.358-.049.538-.071.195-.025.39-.046.585-.07.18-.02.36-.042.54-.061.192-.02.385-.038.579-.057.182-.017.365-.036.548-.051.195-.017.39-.03.586-.044.181-.013.363-.027.545-.038.197-.012.394-.02.592-.03.181-.007.363-.017.544-.023.198-.006.397-.008.595-.012.182-.003.363-.006.545-.007.198 0 .397.004.595.007.183.003.366.005.549.011.196.007.393.017.59.027.186.01.372.02.558.032.195.014.389.03.583.049.188.016.376.034.565.054a27.08 27.08 0 011.15.151 27.394 27.394 0 012.303.462c.186.047.372.096.557.147.102.028.204.06.306.089v3.194zm0-4.898l-.039-.01a26.32 26.32 0 00-1.71-.392c-.116-.023-.234-.047-.35-.068a28.745 28.745 0 00-1.667-.258c-.1-.012-.2-.021-.3-.032a31.14 31.14 0 00-1.603-.14l-.161-.011a34.196 34.196 0 00-1.576-.046 35.712 35.712 0 017.407-3.374v4.331zm0-6.031A40.908 40.908 0 0037.63 17.4c-.547.04-1.093.09-1.636.147-.068.008-.137.014-.206.021-.152.016-.303.034-.455.052 4.163-2.929 8.52-5.59 12.882-6.965.083.16.129.336.135.516v1.043z" fill="#fff"/></svg>