<svg xmlns="http://www.w3.org/2000/svg" width="49" height="49" fill="none"><path fill="#fff" fill-rule="evenodd" d="M48.992 24.249a24.617 24.617 0 00-.11-2.129 24.3 24.3 0 00-1.624-6.67l-.059-.153c-.04-.105-.08-.211-.124-.315A24.576 24.576 0 0042.1 7.48 24.403 24.403 0 0024.5 0C18.107-.001 12.28 2.464 7.912 6.489a24.903 24.903 0 00-2.801 3.059A24.374 24.374 0 000 24.5C0 38.008 10.99 49 24.5 49c9.503 0 17.753-5.442 21.814-13.371a24.266 24.266 0 002.303-6.848C48.864 27.39 49 25.96 49 24.5l-.002-.057c-.003-.064-.006-.128-.006-.193zm-4.611-9.792l.14-.16c.187.362.364.728.528 1.102l-.234-.01-.436.06v-.992h.002zM40.84 10.18l.003-1.094c.386.409.756.829 1.11 1.265l-.44.656-1.544-.015-.096-.321.967-.49zM11.287 7.463v-.041h.49l.044-.168h.801v.35l-.232.307h-1.105v-.448h.002zm.784 1.093s.49-.084.534-.084c.04 0 0 .49 0 .49l-1.11.07-.21-.253.786-.223zm33.87 9.724h-1.793l-1.094-.813-1.149.111v.702h-.363l-.391-.279-1.993-.504v-1.29l-2.523.195-.783.42h-1l-.493-.05-1.215.677v1.27l-2.485 1.794.206.767h.505l-.133.73-.354.13-.018 1.906 2.146 2.447h.936l.056-.148h1.681l.485-.449h.954l.523.523 1.418.147-.186 1.889 1.579 2.784-.833 1.589.056.746.656.653v1.797l.858 1.155v1.496h.74c-4.125 5.068-10.41 8.31-17.439 8.31-12.398 0-22.484-10.084-22.484-22.483 0-3.121.64-6.096 1.795-8.799v-.7l.418-.509-.417.507v.699a.123.123 0 00-.001.003v1.279l.932.45v1.778l.897 1.529.73.11.093-.523-.857-1.327-.17-1.288h.505l.214 1.328 1.242 1.81-.32.587.788 1.207 1.962.485v-.316l.784.11-.074.56.616.114.954.259 1.345 1.533 1.717.13.17 1.4-1.178.822-.053 1.252-.17.767 1.7 2.128.13.73s.617.166.693.166c.074 0 1.381.992 1.381.992v3.847l.466.133-.315 1.773.784 1.048-.146 1.761 1.038 1.822 1.331 1.163 1.336.027.13-.432-.983-.828.058-.41.174-.506.038-.513-.665-.02-.334-.42.552-.533.074-.4-.617-.178.036-.373.879-.134 1.336-.641.448-.825 1.4-1.793-.318-1.402.43-.746 1.29.038.869-.69.158-1.52h.114v-.437h-.068l.078-.746.082-.104a2.61 2.61 0 001.597-2.403 2.61 2.61 0 00-2.772-2.602v.33l.022-.001c.047-.004.094-.007.142-.007a2.283 2.283 0 011.902 3.537l.163-.752-.877-.28-.58-.953-1.98-.02-1.57-.598-.074-1.12-.523-.916-1.42-.02-.822-1.288-.727-.355-.038.392-1.328.078-.485-.676-1.383-.28-1.14 1.318-1.794-.307-.13-2.021-1.308-.224.522-.992-.15-.57-1.72 1.15-1.082-.132-.386-.846.238-.872.596-1.1 1.372-.695h2.653l-.009.808.954.444-.077-1.38.688-.692 1.387-.912.096-.64 1.382-1.44 1.47-.814-.129-.106.996-.937.365.096.166.21.38-.421.093-.04-.415-.06-.423-.136v-.406l.224-.183h.49l.228.1.195.392.238-.036v-.034l.069.022.69-.105.097-.339.392.1v.366l-.366.25h.002l.052.402 1.251.383.003.015.286-.024.02-.541-.99-.45-.054-.26.82-.28.037-.785-.857-.523-.057-1.327-1.178.58h-.431l.115-1.01-1.605-.378-.661.502v1.526l-1.19.378-.48.995-.515.083V10.63l-1.12-.155-.563-.366-.225-.825 2.006-1.172.98-.3.099.66.548-.03.042-.33.572-.083.01-.115-.245-.102-.056-.349.702-.059.425-.441.024-.033.005.002.13-.134 1.476-.186.651.553-1.711.912 2.178.514.281-.729h.954l.335-.634-.673-.169v-.804l-2.109-.934-1.458.169-.823.429.055 1.047-.858-.13-.133-.58.825-.747-1.496-.074-.43.131-.186.505.56.094-.11.56-.953.057-.15.374-1.383.038s-.038-.784-.097-.784l1.085-.02.823-.803-.449-.224-.596.58-.991-.056-.604-.827h-1.27l-1.327.99h1.214l.11.357-.317.298 1.346.038.204.485-1.514-.056-.075-.374-.95-.206-.507-.279-1.133.01a22.361 22.361 0 0113.21-4.305A22.384 22.384 0 0139.34 7.635l-.264.477-1.039.406-.438.475.102.552.534.075.324.806.92-.373.155 1.08h-.28l-.758-.113-.84.14-.813 1.15-1.161.181-.168.996.492.115-.144.64-1.155-.231-1.057.232-.225.589.182 1.237.622.29 1.044-.006.704-.064.217-.56 1.1-1.43.723.148.713-.645.134.505 1.754 1.183-.213.29-.791-.043.306.43.488.11.57-.24-.012-.686.255-.127-.204-.216-1.17-.653-.31-.867h.974l.308.309.843.721.033.875.87.924.322-1.267.602-.329.11 1.037.59.645 1.172-.02c.228.584.432 1.177.607 1.783l-.127.114zM5.542 12.892l-.932 1.133.001-.001c.278-.527.577-1.04.897-1.54l.034.408zm7.819-1.76l.586-.28.533.127-.182.716-.574.181-.363-.743zm3.123 1.684v.462h-1.343l-.507-.141.127-.322.645-.266h.883v.267h.195zm.619.645v.447l-.338.217-.418.079v-.744h.756zm-.379-.183v-.534l.462.42-.462.114zm.21 1.077v.437l-.322.322h-.715l.112-.49.338-.03.068-.168.52-.07zm-1.78-.894h.743l-.954 1.33-.391-.21.084-.56.519-.56zm3.04.743v.434h-.715l-.195-.283v-.405h.056l.854.254zm-.656-.6l.202-.213.343.213-.274.228-.271-.228zm28.766 5.812l.07-.084c.022.084.041.168.06.252l.001.001.03.13-.16-.3zm-10.6-8.515l.044.362-.542.115-.073.774h.654l.867-.083.447-.534-.475-.185-.262-.3-.392-.636-.185-.896-.74.148-.205.317v.356l.354.243.508.32zm-.59-.188l-.039.485-.923.656h-.525v-.468l.451-.718.605-.14.43.185zM22.63 13.261l-.134.343h-.645v.334h.154l.023.163.395-.033.245-.153.064-.31.32-.027.125-.26-.293-.06-.254.003zm-1.686.93l.023-.325.212-.262.28.221-.047.326-.468.04z" clip-rule="evenodd"/></svg>