<svg width="72" height="72" fill="none" xmlns="http://www.w3.org/2000/svg"><path d="M42.743 43.102a3.836 3.836 0 00-4.073-3.824v.485c.08-.005.16-.012.241-.012a3.354 3.354 0 013.35 3.35 3.354 3.354 0 01-3.35 3.351c-.054 0-.107-.005-.16-.008v1.438h-1.19v.642h2.7v-.642h-1.03v-.963a3.836 3.836 0 003.512-3.817zm9.719-27.084l.066.532-.797.17-.108 1.136h.961l1.275-.122.657-.785-.699-.271-.384-.442-.577-.934-.272-1.317-1.087.218-.3.466v.523l.52.358.745.468z" fill="#041E42"/><path d="M51.54 16.454l.055-.712-.633-.273-.888.206-.663 1.056v.686h.771l1.357-.963zm-18.286 3.032l-.197.504h-.948v.49h.227l.033.24.58-.048.36-.226.094-.454.471-.04.184-.382-.431-.089-.373.005zm-2.444.888l-.034.477.688-.057.07-.48-.412-.324-.311.384z" fill="#041E42"/><path d="M71.988 35.63a36.23 36.23 0 00-.162-3.127 35.708 35.708 0 00-2.385-9.801c-.09-.228-.174-.46-.27-.688a36.116 36.116 0 00-7.31-11.022 34.897 34.897 0 00-1.645-1.608C53.817 3.557 45.316 0 36 0c-9.394 0-17.956 3.622-24.374 9.536A36.594 36.594 0 007.51 14.03C2.808 20.115 0 27.735 0 36c0 19.85 16.15 36 36 36 13.964 0 26.086-7.997 32.053-19.648a35.648 35.648 0 003.384-10.061c.364-2.045.563-4.148.563-6.293-.005-.12-.012-.243-.012-.367zm-6.776-14.387l.207-.235c.274.532.534 1.07.775 1.62l-.344-.015-.64.088v-1.459h.002zm-5.203-6.284l.005-1.608c.567.6 1.11 1.218 1.631 1.859l-.647.964-2.268-.022-.14-.473 1.42-.72zm-43.425-3.993v-.06h.72l.066-.248h1.177v.515l-.34.45h-1.625v-.657h.002zm1.152 1.606s.722-.123.786-.123c.06 0 0 .72 0 .72l-1.63.104-.31-.373 1.154-.328zm49.769 14.289H64.87l-1.608-1.195-1.687.163v1.032h-.534l-.575-.41-2.927-.741v-1.896l-3.708.287-1.15.617h-1.47l-.724-.072-1.786.994v1.866l-3.65 2.636.302 1.126h.741L45.9 32.34l-.52.192-.027 2.801 3.153 3.595h1.376l.082-.218h2.47l.712-.658h1.402l.769.769 2.083.215-.274 2.775 2.32 4.091-1.223 2.334.082 1.098.964.958v2.642l1.26 1.697v2.198h1.088c-6.061 7.446-15.295 12.21-25.624 12.21-18.218 0-33.039-14.817-33.039-33.037 0-4.585.941-8.957 2.638-12.928v-1.03l1.181-1.434c.41-.776.85-1.53 1.32-2.267l.05.6-1.37 1.667a32.348 32.348 0 00-1.18 2.464v1.879l1.37.66v2.614l1.318 2.246 1.072.163.137-.77-1.26-1.949-.25-1.893h.742l.315 1.95 1.825 2.662-.47.862 1.157 1.774 2.883.712v-.465l1.152.163-.108.823.905.166 1.401.38 1.977 2.254 2.523.19.25 2.06L20.8 40.76l-.079 1.839-.25 1.127 2.5 3.127.19 1.073s.906.244 1.018.244c.108 0 2.03 1.458 2.03 1.458v5.653l.685.194-.463 2.607 1.152 1.54-.216 2.587 1.526 2.677 1.956 1.708 1.963.04.192-.635-1.445-1.216.084-.603.257-.743.055-.754-.976-.029-.492-.618.81-.783.11-.588-.906-.26.053-.549 1.29-.197 1.964-.942.658-1.212 2.057-2.634-.466-2.06.631-1.097 1.896.056 1.277-1.013.413-3.973 1.42-1.79.25-1.15-1.289-.413-.852-1.4-2.909-.03-2.308-.878-.108-1.646-.769-1.347-2.085-.029-1.209-1.892-1.069-.522-.055.577-1.95.114-.713-.993-2.033-.413-1.675 1.937-2.636-.45-.192-2.97-1.922-.33.768-1.456-.22-.837-2.528 1.689-1.59-.195-.567-1.242.35-1.282.875-1.615 2.017-1.023h3.898l-.013 1.189 1.401.652-.112-2.03 1.01-1.016 2.038-1.34.142-.939 2.03-2.115 2.16-1.198-.19-.156 1.464-1.377.536.142.245.307.557-.617.137-.06-.61-.087-.622-.2v-.597l.33-.268h.721l.334.146.286.577.35-.054v-.05l.102.034 1.012-.156.144-.497.576.147v.538l-.538.366h.003l.076.591 1.84.564s0 .007.004.022l.42-.037.029-.794-1.455-.662-.08-.382 1.205-.41.055-1.155-1.26-.767-.083-1.95-1.73.85h-.635l.17-1.483-2.358-.554-.972.737v2.243l-1.75.555-.703 1.461-.758.122v-1.87l-1.646-.229-.827-.538-.33-1.211 2.947-1.723 1.44-.44.146.97.805-.044.062-.486.84-.121.015-.17-.36-.149-.082-.513 1.032-.087.623-.648.037-.048.007.003.19-.197 2.169-.273.957.813-2.515 1.34 3.202.755.412-1.07h1.402l.492-.934-.989-.247V9.19l-3.097-1.37-2.142.247-1.211.63.082 1.54-1.262-.193-.194-.85 1.211-1.098-2.198-.108-.63.192-.275.742.824.138-.164.824-1.399.082-.22.55-2.033.055s-.055-1.152-.142-1.152c-.078 0 1.594-.029 1.594-.029l1.21-1.18-.66-.33-.875.853-1.457-.082-.889-1.215h-1.866L18.968 8.89h1.785l.16.524-.465.438 1.978.056.3.713-2.225-.082-.11-.55-1.397-.302-.744-.41-1.666.013a32.857 32.857 0 0119.411-6.325c8.352 0 15.99 3.122 21.811 8.253l-.389.701-1.526.598-.644.698.15.81.785.11.476 1.184 1.352-.547.228 1.586h-.413l-1.113-.166-1.233.207-1.195 1.69-1.706.266-.247 1.462.722.17-.21.94-1.698-.34-1.553.34-.331.867.267 1.817.914.427 1.535-.01 1.034-.093.318-.823 1.618-2.102 1.062.218 1.047-.948.197.742 2.578 1.739-.314.425-1.163-.062.45.633.718.16.839-.351-.02-1.01.376-.185-.3-.318-1.72-.96-.455-1.274h1.432l.452.454 1.238 1.06.049 1.285 1.277 1.358.474-1.862.886-.483.162 1.523.864.948 1.723-.028c.335.857.635 1.728.893 2.618l-.187.169zM19.632 16.358l.862-.412.783.187-.267 1.051-.844.266-.534-1.092zm4.59 2.473v.68h-1.974l-.744-.208.185-.472.948-.391h1.299v.391h.285zm.909.948v.657l-.497.319-.614.116v-1.092h1.111zm-.557-.268v-.786l.679.619-.679.167zm.31 1.583v.64l-.474.474h-1.051l.164-.72.497-.044.1-.247.764-.103zm-2.616-1.315h1.091l-1.402 1.956-.575-.31.124-.823.762-.823zm4.466 1.092v.639h-1.051l-.286-.416v-.596h.082l1.255.373zm-.964-.881l.297-.314.504.314-.403.334-.398-.334zm42.27 8.54l.102-.124c.047.188.09.375.134.563l-.237-.44z" fill="#041E42"/><path d="M5.595 22.042v1.03c.357-.843.755-1.66 1.18-2.466l-1.18 1.436z" fill="#041E42"/></svg>