<svg width="50" height="62" fill="none" xmlns="http://www.w3.org/2000/svg"><path fill-rule="evenodd" clip-rule="evenodd" d="M18.5 31.978h-1.935v-1.725c4.584-1.507 7.904-5.827 7.904-10.91V8.19c0-4.742-4.776-8.19-9.18-8.19h-4.631C9.361 0 7.346.378 5.581 1.437c-.999.6-.068 2.15.93 1.55 1.45-.871 3.14-1.18 4.147-1.18h4.63c.271 0 6.623.073 7.374 6.435v3.82c-1.176-.91-1.983-2.236-2.436-3.638-.373-1.151-1.985-1.352-2.612-.311-2.828 4.69-11.593 4.747-14.33 4.645V8.242c.089-.746.259-1.44.506-2.065.43-1.084-1.25-1.75-1.68-.666-.32.811-.632 1.798-.632 2.679v11.154c0 5.082 3.32 9.402 7.904 10.909v1.725H7.446A7.084 7.084 0 00.37 39.054V60.77a.903.903 0 101.806 0V39.054a5.275 5.275 0 015.27-5.269h1.992a3.593 3.593 0 003.531 2.961h.008a3.593 3.593 0 003.532-2.96H18.5a5.275 5.275 0 015.27 5.269v21.714a.903.903 0 101.806 0V39.054a7.084 7.084 0 00-7.076-7.076zM3.286 19.344V14.57c.355.014.794.025 1.299.025 3.718 0 10.96-.593 14.166-4.935 1.102 2.774 2.948 4.04 3.912 4.538v5.146c0 5.334-4.34 9.673-9.673 9.673h-.031c-5.334 0-9.673-4.34-9.673-9.673zm11.473 13.814c0 .982-.799 1.781-1.78 1.781h-.009c-.981 0-1.78-.799-1.78-1.78v-2.335h3.569v2.334zm1.309-8.832a.903.903 0 10-1.276-1.28 2.578 2.578 0 01-3.634 0 .903.903 0 10-1.276 1.28 4.367 4.367 0 003.093 1.276 4.37 4.37 0 003.093-1.276zm20.49-1.591a7.05 7.05 0 015.802-3.067c3.866 0 7.01 3.137 7.01 6.993a.903.903 0 01-.903.903h-3.335a8.878 8.878 0 011.002 4.104v2.52a.903.903 0 01-.903.904h-3.032a.904.904 0 01-.769-.429l-.764-1.237-.898 1.281a.904.904 0 01-.74.385h-9.042v3.168c0 3.62 2.358 6.867 6.047 7.442a7.234 7.234 0 005.441-1.353 7.192 7.192 0 002.8-4.837c.142-1.157 1.935-.936 1.793.22-.411 3.34-2.756 6.242-5.93 7.351v.518h2.622c.498 0 .903.405.903.904v.022a5.663 5.663 0 013.536 5.243v7a.903.903 0 01-1.806 0v-7a3.854 3.854 0 00-1.73-3.213V60.77a.903.903 0 01-1.807 0V49.408h-1.806a2.848 2.848 0 01-5.514 0H32.92v11.361a.903.903 0 01-1.806 0V50.441a3.874 3.874 0 00-1.922 3.328v7a.903.903 0 11-1.807 0v-7c0-2.387 1.532-4.518 3.731-5.317a.903.903 0 01.901-.85h2.43v-.423c-3.912-1.242-6.268-4.895-6.268-8.92v-6.592c0-4.737 3.707-8.624 8.38-8.932zm1.772 24.779c-.395.052-.793.08-1.193.08-.294 0-.589-.016-.884-.045v1.156a1.038 1.038 0 002.077 0v-1.191zm4.373-14.229h1.624v-1.618c0-3.94-3.217-7.147-7.17-7.147-3.954 0-7.171 3.206-7.171 7.147v1.618h8.572l1.416-2.02a.911.911 0 011.508.045l1.22 1.975zm-3.886-10.416a8.98 8.98 0 015.076 2.889h3.592a5.207 5.207 0 00-5.125-4.283c-1.326 0-2.59.514-3.543 1.394zm-.428 17.786a1.75 1.75 0 01-2.467 0 .904.904 0 00-1.276 1.28c.692.69 1.6 1.034 2.51 1.034.908 0 1.817-.345 2.51-1.035a.903.903 0 00-1.277-1.279zm-18.957-.344a.903.903 0 111.807 0V60.77a.903.903 0 01-1.807 0v-4.777H6.516v4.777a.903.903 0 01-1.806 0V40.311a.903.903 0 111.806 0v.326h12.915v-.326zm0 6.138H6.516v3.731h12.915v-3.73zm0-1.807v-2.198H6.516v2.198h12.915zM6.516 51.987v2.198h12.915v-2.198H6.516z" fill="#fff"/></svg>