<svg width="72" height="72" fill="none" xmlns="http://www.w3.org/2000/svg"><g clip-path="url(#clip0)" fill="#041E42"><path d="M28.566 37.333h-2.26V35.32c5.351-1.759 9.227-6.803 9.227-12.736V9.561C35.533 4.026 29.958 0 24.815 0H19.41c-1.514 0-3.866.44-5.926 1.678-1.167.7-.08 2.509 1.086 1.808 1.692-1.016 3.665-1.377 4.84-1.377h5.406c.316 0 7.732.086 8.608 7.513v4.459c-1.372-1.062-2.315-2.61-2.844-4.246-.435-1.344-2.316-1.579-3.049-.363-3.3 5.476-13.534 5.542-16.729 5.422V9.622c.103-.87.302-1.682.59-2.411.502-1.265-1.46-2.042-1.96-.777-.376.947-.739 2.1-.739 3.127v13.022c0 5.933 3.875 10.977 9.228 12.736v2.014h-2.26c-4.556 0-8.262 3.706-8.262 8.261v25.351a1.055 1.055 0 002.11 0v-25.35a6.159 6.159 0 016.151-6.152h2.326a4.194 4.194 0 004.123 3.457h.009a4.194 4.194 0 004.123-3.457h2.325a6.159 6.159 0 016.152 6.152v25.35a1.055 1.055 0 002.11 0v-25.35c0-4.556-3.706-8.262-8.261-8.262zM10.8 22.583V17.01c.416.016.928.03 1.517.03 4.341 0 12.795-.694 16.539-5.762 1.286 3.238 3.44 4.717 4.566 5.298v6.007c0 6.227-5.066 11.293-11.293 11.293h-.035c-6.227 0-11.294-5.066-11.294-11.293zm13.395 16.128a2.081 2.081 0 01-2.08 2.079h-.008a2.081 2.081 0 01-2.08-2.079v-2.725h4.168v2.725z"/><path d="M25.724 28.4a1.054 1.054 0 10-1.49-1.494 3.01 3.01 0 01-4.242 0 1.054 1.054 0 10-1.49 1.494 5.098 5.098 0 003.611 1.489 5.098 5.098 0 003.611-1.49zm30.696-5.438a8.231 8.231 0 00-6.774 3.58c-5.454.36-9.783 4.898-9.783 10.428v7.696c0 4.698 2.751 8.964 7.317 10.413v.493h-2.836c-.562 0-1.02.44-1.052.994-2.568.933-4.356 3.42-4.356 6.207v8.172a1.055 1.055 0 102.11 0v-8.171a4.52 4.52 0 012.243-3.886v12.057a1.055 1.055 0 102.11 0V57.682h1.884a3.324 3.324 0 006.437 0h2.11v13.263a1.055 1.055 0 102.109 0V59.024a4.5 4.5 0 012.02 3.75v8.171a1.055 1.055 0 102.109 0v-8.171a6.611 6.611 0 00-4.13-6.121v-.026c0-.582-.471-1.055-1.054-1.055h-3.06v-.605c3.705-1.295 6.443-4.683 6.922-8.581.166-1.35-1.927-1.608-2.093-.257a8.397 8.397 0 01-3.268 5.646 8.445 8.445 0 01-6.352 1.58c-4.307-.67-7.06-4.462-7.06-8.688v-3.699h10.556c.344 0 .666-.167.863-.449l1.05-1.495.891 1.444c.193.311.532.5.898.5h3.54c.582 0 1.054-.472 1.054-1.054V36.97c0-1.725-.424-3.353-1.17-4.79h3.894c.582 0 1.054-.472 1.054-1.054 0-4.502-3.67-8.164-8.184-8.164zm-6.098 32.602c.466 0 .931-.033 1.392-.094v1.39a1.212 1.212 0 01-2.425 0v-1.349c.345.034.689.053 1.033.053zm8.393-16.705H56.82l-1.425-2.306c-.392-.635-1.332-.662-1.76-.052L51.98 38.86H41.972v-1.89c0-4.601 3.756-8.344 8.372-8.344s8.372 3.743 8.372 8.344v1.889zm-.507-8.788a10.484 10.484 0 00-5.925-3.373 6.11 6.11 0 014.136-1.627 6.079 6.079 0 015.983 5h-4.194z"/><path d="M51.783 47.463a2.043 2.043 0 01-2.88 0 1.055 1.055 0 00-1.49 1.494 4.136 4.136 0 002.93 1.208 4.14 4.14 0 002.93-1.208 1.055 1.055 0 00-1.49-1.494zm-21.077-1.456c-.582 0-1.054.472-1.054 1.055v.38H14.574v-.38a1.055 1.055 0 00-2.11 0v23.883a1.055 1.055 0 102.11 0v-5.577h15.077v5.577a1.055 1.055 0 102.11 0V47.062c0-.583-.472-1.055-1.055-1.055zm-16.132 8.22h15.077v4.356H14.574v-4.356zm15.078-4.676v2.566H14.574v-2.566h15.078zM14.574 63.26v-2.566h15.077v2.566H14.574z"/></g><defs><clipPath id="clip0"><path fill="#fff" d="M0 0h72v72H0z"/></clipPath></defs></svg>