<svg width="50" height="49" fill="none" xmlns="http://www.w3.org/2000/svg"><path fill-rule="evenodd" clip-rule="evenodd" d="M48.536 31.056v15.073H47.1V31.056h-8.613v13.637h1.436v2.872h10.049V49h-49v-1.435H11.02v-2.872h1.436V31.056H3.843v15.073H2.407V31.056H.972v-4.307h11.484v-8.613h-2.153V14.12l14.45-7.895V0h7.178v4.307H26.19v1.919l14.452 7.895v4.015h-2.154v8.613h11.485v4.307h-1.436zm-18.04-29.62h-4.307V2.87h4.307V1.436zM25.472 7.47l-11.64 6.36h23.28l-11.64-6.36zM2.407 28.185v1.435h10.049v-1.435H2.407zm10.049 17.944v1.436h26.031v-1.436H26.19v-1.436h7.992v-1.435H16.763v1.435h7.99v1.436H12.457zm13.733-12.202v7.895h4.403v-7.895h-4.403zm-7.273-2.871v1.435h13.111v-1.435H18.916zm5.838 10.766v-7.895H20.35v7.895h4.403zm10.862 0v2.871h1.436V18.136H26.189V16.7h13.016v-1.435H11.738V16.7h13.016v1.436H13.89v26.557h1.436v-2.87h3.589v-7.896H17.48V29.62h15.983v4.307h-1.436v7.895h3.59zm12.92-13.637H38.487v1.435h10.049v-1.435zM5.278 35.362V46.13h4.306V35.362H5.278zm2.87 1.436v3.23H6.714v-3.23H8.15zm-1.435 7.895v-3.23H8.15v3.23H6.713zm38.952 1.436V35.362H41.36V46.13h4.306zm-2.87-1.436v-3.23h1.435v3.23h-1.436zm1.435-7.895v3.23h-1.436v-3.23h1.436zM18.916 26.03h5.838v1.436h-5.838V26.03zm5.838-2.87h-5.838v1.435h5.838V23.16zm1.435 0h5.838v1.435H26.19V23.16zm5.838 2.87H26.19v1.436h5.838V26.03zm-8.709-15.073h1.436v1.436h-1.436v-1.436zm12.298 8.614h-1.435v1.435h1.435V19.57zm-7.178 0h4.307v1.435h-4.307V19.57zm-.813-8.614h-1.436v1.436h1.436v-1.436z" fill="#fff"/></svg>