<svg xmlns="http://www.w3.org/2000/svg" width="72" height="72" fill="none"><path fill="#041E42" d="M65.673 67.781v-15.82h-6.329v15.82h6.329zm-4.219-2.11v-4.745h2.11v4.746h-2.11zm2.11-11.6v4.745h-2.11V54.07h2.11zM6.327 51.96v15.821h6.329v-15.82H6.327zm4.219 2.11v4.746h-2.11V54.07h2.11zm-2.11 11.602v-4.746h2.11v4.746h-2.11z"/><path fill="#041E42" d="M69.89 67.781V45.633H72v-6.328H55.125V26.649h3.164v-5.9L37.055 9.15V6.33h8.437V0H34.945v9.148L13.711 20.75v5.899h3.164v12.656H0v6.328h2.11v22.148h2.109V45.633h12.656v20.039h-2.11v4.219H0V72h72v-2.11H57.234v-4.218h-2.109V45.633h12.656v22.148h2.11zM37.056 2.11h6.328v2.11h-6.328V2.11zm16.05 18.212h-34.21L36 10.976l17.104 9.345zM2.108 43.524v-2.11h14.766v2.11H2.109zM16.875 69.89v-2.11h18.07v-2.11H23.203v-2.109h25.594v2.11H37.055v2.11h18.07v2.109h-38.25zm20.18-8.438V49.851h6.468v11.602h-6.468zm8.578-13.71H26.367v-2.11h19.266v2.11zm-10.688 2.109v11.601h-6.468v-11.6h6.468zm15.961 15.82v-4.219h-5.273v-11.6h2.11v-6.329H24.257v6.329h2.11v11.601h-5.274v4.219h-2.11V26.649h15.961v-2.11H15.82V22.43h40.36v2.11H37.055v2.109h15.96v39.023h-2.109zm4.219-24.258h14.766v2.11H55.125v-2.11z"/><path fill="#041E42" d="M26.367 38.25h8.578v2.11h-8.578v-2.11zm0-4.219h8.578v2.11h-8.578v-2.11zm10.688 0h8.578v2.11h-8.578v-2.11zm0 4.219h8.578v2.11h-8.578v-2.11zm-4.219-22.148h2.11v2.11h-2.11v-2.11zm15.961 12.656h2.11v2.11h-2.11v-2.11zm-8.437 0h6.328v2.11h-6.329v-2.11zm-3.305-12.656h2.11v2.11h-2.11v-2.11z"/></svg>