<svg width="45" height="49" fill="none" xmlns="http://www.w3.org/2000/svg"><path fill-rule="evenodd" clip-rule="evenodd" d="M43.06 7.98c-3.724-.393-6.652-3.007-7.12-6.357A1.883 1.883 0 0034.09 0H10.853c-.925 0-1.72.698-1.85 1.623-.469 3.35-3.397 5.964-7.12 6.356-.944.1-1.655.897-1.655 1.855v7.488c0 1.088.056 2.188.167 3.27a.697.697 0 001.388-.143 30.711 30.711 0 01-.16-3.127V9.834c0-.238.178-.444.406-.468 4.362-.46 7.798-3.564 8.355-7.55a.477.477 0 01.47-.421h23.234c.238 0 .435.177.469.422.558 3.985 3.993 7.09 8.355 7.55a.467.467 0 01.407.466v7.489c0 1.03-.053 2.07-.157 3.095a.697.697 0 101.388.14c.108-1.07.164-2.159.164-3.235V9.834c0-.958-.712-1.755-1.655-1.855zm-3.157 2.657c-3.002-1.188-5.385-3.376-6.71-6.16A2.204 2.204 0 0031.21 3.23H13.734c-.845 0-1.624.49-1.984 1.247-1.325 2.784-3.707 4.972-6.71 6.16a2.185 2.185 0 00-1.386 2.045v4.25c0 5.572 1.625 11.076 4.699 15.918 3.104 4.889 7.601 8.974 13.006 11.815l.088.046a2.201 2.201 0 002.05 0l.087-.046c5.405-2.84 9.903-6.926 13.006-11.815 3.074-4.842 4.699-10.346 4.699-15.917v-4.25c0-.91-.544-1.713-1.386-2.046zm-.009 6.296c0 5.306-1.55 10.552-4.48 15.17-2.974 4.683-7.289 8.6-12.478 11.328l-.088.046a.807.807 0 01-.752 0l-.088-.046c-5.19-2.728-9.504-6.645-12.478-11.329-2.93-4.617-4.48-9.862-4.48-15.17v-4.25c0-.333.198-.627.505-.748 3.331-1.318 5.979-3.754 7.455-6.858a.803.803 0 01.725-.451H31.21c.31 0 .593.177.724.45 1.476 3.105 4.124 5.541 7.456 6.86a.798.798 0 01.504.747v4.25zm-17.396 5.294a1.633 1.633 0 00-.697 3.11v1.985a.697.697 0 001.395 0v-1.986a1.632 1.632 0 00-.698-3.108zm20.067 1.85a.697.697 0 111.36.307c-2.213 9.795-8.941 18.282-18.458 23.283l-2.127 1.119a1.865 1.865 0 01-1.736 0l-2.128-1.119C9.944 42.657 3.213 34.157 1.01 24.344a.697.697 0 011.36-.306c2.115 9.413 8.587 17.576 17.756 22.395l2.127 1.118a.472.472 0 00.44 0l2.126-1.118c9.155-4.812 15.623-12.96 17.747-22.356zm-13.253-6.672h1.147a2.22 2.22 0 012.218 2.218v9.985a2.22 2.22 0 01-2.218 2.217H14.538a2.22 2.22 0 01-2.218-2.217v-9.985a2.22 2.22 0 012.218-2.218h1.146v-3.329a6.822 6.822 0 016.814-6.814 6.822 6.822 0 016.814 6.814v3.329zm-6.814-8.748a5.425 5.425 0 00-5.419 5.42v3.328h10.839v-3.329a5.425 5.425 0 00-5.42-5.419zm7.96 21.774c.455 0 .824-.37.824-.823v-9.985a.824.824 0 00-.823-.823H14.538a.824.824 0 00-.823.823v9.985c0 .453.369.823.823.823h15.92z" fill="#fff"/></svg>