<svg xmlns="http://www.w3.org/2000/svg" width="72" height="72" fill="none"><g clip-path="url(#clip0)" fill="#041E42"><path d="M36.04 32.66a2.4 2.4 0 00-1.025 4.569v2.917a1.025 1.025 0 102.05 0V37.23a2.398 2.398 0 00-1.026-4.568z"/><path d="M61.613 15.63c-4.411-1.745-7.912-4.96-9.859-9.052a3.238 3.238 0 00-2.915-1.832H23.161a3.238 3.238 0 00-2.915 1.832c-1.946 4.092-5.448 7.307-9.859 9.052a3.211 3.211 0 00-2.037 3.005v6.246c0 8.187 2.388 16.274 6.904 23.388 4.561 7.184 11.17 13.187 19.111 17.361l.13.068a3.236 3.236 0 003.01 0l.13-.068c7.942-4.174 14.55-10.177 19.111-17.36 4.517-7.115 6.904-15.203 6.904-23.39v-6.245c0-1.336-.8-2.515-2.037-3.005zm-.012 9.25c0 7.798-2.277 15.506-6.585 22.29-4.369 6.882-10.709 12.638-18.334 16.646l-.13.068a1.186 1.186 0 01-1.104 0l-.13-.068c-7.625-4.008-13.965-9.763-18.334-16.645-4.308-6.785-6.585-14.493-6.585-22.29v-6.246c0-.49.292-.92.742-1.1 4.895-1.936 8.786-5.515 10.955-10.077.192-.402.61-.663 1.065-.663h25.678c.456 0 .873.26 1.065.663 2.17 4.562 6.06 8.141 10.955 10.078.45.178.742.61.742 1.1v6.245z"/><path d="M66.75 34.605a1.024 1.024 0 00-1.225.774c-3.12 13.806-12.625 25.779-26.077 32.85l-3.126 1.642a.693.693 0 01-.644 0l-3.126-1.643C19.079 61.147 9.57 49.153 6.462 35.322a1.024 1.024 0 10-2 .45C7.703 50.19 17.593 62.68 31.6 70.041l3.125 1.643a2.741 2.741 0 002.552 0l3.126-1.643c13.983-7.35 23.87-19.82 27.122-34.212a1.025 1.025 0 00-.773-1.225zm-.498-22.88c-5.472-.577-9.774-4.418-10.462-9.34C55.6 1.025 54.43 0 53.07 0H18.93c-1.36 0-2.53 1.025-2.72 2.385-.689 4.922-4.991 8.763-10.462 9.34a2.724 2.724 0 00-2.432 2.724v11.003c0 1.6.082 3.216.246 4.805a1.025 1.025 0 002.038-.21 45.125 45.125 0 01-.235-4.595V14.45c0-.35.262-.65.598-.686C12.372 13.088 17.42 8.526 18.24 2.67a.7.7 0 01.688-.62H53.07a.7.7 0 01.689.62c.819 5.856 5.868 10.418 12.277 11.094a.687.687 0 01.597.686v11.003a45.14 45.14 0 01-.23 4.548 1.025 1.025 0 002.039.207c.16-1.573.24-3.173.24-4.755V14.45a2.723 2.723 0 00-2.431-2.724z"/><path d="M47.737 25.575h-1.685v-4.892c0-5.52-4.492-10.012-10.013-10.012-5.52 0-10.012 4.492-10.012 10.012v4.892h-1.685a3.263 3.263 0 00-3.258 3.259v14.67a3.263 3.263 0 003.258 3.26h23.395a3.263 3.263 0 003.258-3.26v-14.67a3.263 3.263 0 00-3.258-3.26zm-19.66-4.891c0-4.391 3.572-7.963 7.962-7.963 4.391 0 7.964 3.572 7.964 7.963v4.89H28.076v-4.89zm20.87 22.82c0 .668-.544 1.21-1.21 1.21H24.342c-.667 0-1.21-.542-1.21-1.21v-14.67c0-.667.543-1.21 1.21-1.21h23.395c.666 0 1.21.543 1.21 1.21v14.67z"/></g><defs><clipPath id="clip0"><path fill="#fff" d="M0 0h72v72H0z"/></clipPath></defs></svg>