<svg xmlns="http://www.w3.org/2000/svg" width="50" height="49" fill="none"><g clip-path="url(#clip0)" fill="#fff"><path d="M13.758 31.8a4.003 4.003 0 00-2.471-.86c-1.215 0-2.346.54-3.103 1.481a3.901 3.901 0 00-.844 2.902 3.911 3.911 0 001.474 2.647c.7.554 1.578.859 2.471.859a3.96 3.96 0 003.103-1.483 3.897 3.897 0 00.844-2.898 3.913 3.913 0 00-1.474-2.649zm-.78 4.413a2.159 2.159 0 01-1.693.807c-.495 0-.961-.162-1.349-.469a2.116 2.116 0 01-.343-2.995 2.16 2.16 0 011.694-.806c.495 0 .962.162 1.35.468a2.116 2.116 0 01.341 2.995zm16.685-13.678c.597 0 1.174-.131 1.716-.39a3.926 3.926 0 002.028-2.26 3.894 3.894 0 00-.175-3.007 3.996 3.996 0 00-3.578-2.232 3.96 3.96 0 00-1.719.39 3.92 3.92 0 00-2.029 2.259 3.89 3.89 0 00.176 3.008 4.003 4.003 0 003.581 2.232zm-2.05-4.643c.19-.54.58-.975 1.101-1.223a2.176 2.176 0 012.89 1c.249.51.282 1.085.096 1.62a2.16 2.16 0 01-2.037 1.437 2.183 2.183 0 01-1.955-1.215 2.096 2.096 0 01-.094-1.619zm-7.793-1.75c.291.066.59.1.885.1a3.945 3.945 0 003.87-3.065 3.903 3.903 0 00-.506-2.967 3.944 3.944 0 00-2.484-1.755 4.02 4.02 0 00-.889-.1c-1.86 0-3.45 1.26-3.865 3.065a3.894 3.894 0 00.503 2.967 3.939 3.939 0 002.486 1.755zm-1.226-4.316a2.14 2.14 0 012.102-1.662c.163 0 .327.018.488.055a2.147 2.147 0 011.353.955c.303.48.4 1.048.274 1.598a2.17 2.17 0 01-2.593 1.606 2.142 2.142 0 01-1.352-.954 2.097 2.097 0 01-.272-1.598zm-5.96 6.573a3.917 3.917 0 001.472-2.65 3.9 3.9 0 00-.843-2.899 3.969 3.969 0 00-3.105-1.48c-.892 0-1.77.304-2.47.857a3.908 3.908 0 00-1.473 2.645 3.904 3.904 0 00.845 2.904 3.992 3.992 0 005.574.623zm-4.165-1.757a2.107 2.107 0 01-.456-1.567 2.112 2.112 0 01.796-1.429 2.158 2.158 0 011.35-.467c.664 0 1.282.294 1.695.805a2.12 2.12 0 01-.343 2.997 2.146 2.146 0 01-1.346.467 2.164 2.164 0 01-1.696-.806z"/><path d="M49.626 9.548a1.194 1.194 0 00-.876-.346c-.516 0-1.886 0-10.212 7.084l-.505.432a22.266 22.266 0 00-7.469-9.842C26.703 4.008 22.105 2.49 17.268 2.49h-.004C14 2.49 10.032 3.63 6.908 5.467 3.08 7.717.971 10.728.972 13.943c0 3.881 2.19 5.505 3.95 6.81 1.433 1.063 2.566 1.903 2.567 3.745 0 1.84-1.132 2.68-2.566 3.743C3.165 29.545.976 31.167.977 35.049c.001 3.215 2.111 6.226 5.94 8.479 3.127 1.839 7.097 2.982 10.362 2.983h.006c5.926 0 11.496-2.287 15.685-6.44 4.136-4.1 6.436-9.535 6.497-15.326a219.957 219.957 0 004.007-4.683c2.125-2.56 3.759-4.674 4.856-6.28 1.455-2.127 2.091-3.432 1.296-4.234zm-17.93 29.238c-3.848 3.815-8.965 5.916-14.41 5.916h-.006c-5.835-.002-14.492-4.056-14.494-9.653 0-2.971 1.561-4.13 3.215-5.355 1.546-1.146 3.297-2.445 3.297-5.197-.001-2.752-1.753-4.051-3.3-5.198-1.654-1.227-3.217-2.386-3.217-5.357-.001-3.437 3.16-5.809 5.044-6.916 2.819-1.658 6.524-2.728 9.44-2.728h.003c4.445.001 8.67 1.395 12.218 4.03a20.415 20.415 0 017.084 9.656c-3.923 3.425-8.172 7.375-11.336 10.55-5.255.68-5.97 4.182-6.494 6.755-.446 2.19-.735 3.25-2.426 3.385a.904.904 0 00-.274 1.737c.11.045 2.695 1.102 5.717 1.102h.001c2.106 0 3.912-.51 5.369-1.517 1.795-1.24 3.012-3.207 3.623-5.844a216.096 216.096 0 006.765-7.211c-.537 4.472-2.556 8.61-5.818 11.845zm-2.763-4.805c-.959 3.798-3.37 5.724-7.175 5.723-1.004 0-1.965-.136-2.773-.307.965-.984 1.267-2.465 1.527-3.747.497-2.444.968-4.756 4.813-5.306l3.608 3.637zm12.49-14.285c-3.585 4.271-7.925 9.069-11.498 12.716l-.553-.557-2.44-2.46c3.239-3.225 7.394-7.07 11.271-10.434.452-.393.901-.78 1.344-1.157 4.5-3.838 6.858-5.508 8.06-6.235-.718 1.21-2.373 3.586-6.184 8.127z"/></g><defs><clipPath id="clip0"><path fill="#fff" transform="translate(.972)" d="M0 0h49v49H0z"/></clipPath></defs></svg>