<svg xmlns="http://www.w3.org/2000/svg" width="72" height="72" fill="none"><g clip-path="url(#clip0)" fill="#041E42"><path d="M18.788 46.725a5.882 5.882 0 00-3.631-1.26 5.821 5.821 0 00-4.56 2.175 5.732 5.732 0 00-1.24 4.263 5.747 5.747 0 002.167 3.89 5.88 5.88 0 003.631 1.261 5.818 5.818 0 004.56-2.178 5.726 5.726 0 001.239-4.26 5.75 5.75 0 00-2.166-3.89zm-1.145 6.485a3.172 3.172 0 01-2.488 1.186 3.167 3.167 0 01-1.983-.688 3.109 3.109 0 01-.503-4.402 3.175 3.175 0 012.488-1.184 3.17 3.17 0 011.983.688 3.108 3.108 0 011.172 2.104 3.085 3.085 0 01-.67 2.296zm24.516-20.098c.877 0 1.724-.192 2.522-.572a5.768 5.768 0 002.98-3.321 5.72 5.72 0 00-.258-4.418c-.966-1.992-3.03-3.28-5.258-3.28-.878 0-1.728.193-2.525.573a5.761 5.761 0 00-2.981 3.319c-.51 1.46-.42 3.03.258 4.42a5.882 5.882 0 005.262 3.28zm-3.011-6.822a3.123 3.123 0 011.616-1.797 3.198 3.198 0 014.247 1.469c.365.75.415 1.595.14 2.38a3.129 3.129 0 01-1.616 1.8 3.174 3.174 0 01-1.376.312c-1.218 0-2.345-.7-2.873-1.784a3.08 3.08 0 01-.138-2.38zm-11.452-2.57c.428.096.865.145 1.3.145 2.737 0 5.074-1.85 5.686-4.503a5.735 5.735 0 00-.744-4.36 5.795 5.795 0 00-3.65-2.579 5.905 5.905 0 00-1.305-.147 5.79 5.79 0 00-5.679 4.504 5.72 5.72 0 00.739 4.36 5.787 5.787 0 003.653 2.58zm-1.801-6.343a3.145 3.145 0 013.088-2.442c.239 0 .48.027.717.08a3.155 3.155 0 011.988 1.403 3.09 3.09 0 01.403 2.35c-.326 1.413-1.628 2.439-3.095 2.439-.238 0-.478-.027-.715-.08a3.147 3.147 0 01-1.988-1.402 3.082 3.082 0 01-.398-2.348zm-8.759 9.658a5.756 5.756 0 002.163-3.892 5.732 5.732 0 00-1.238-4.261 5.831 5.831 0 00-4.562-2.175c-1.312 0-2.6.447-3.63 1.259a5.742 5.742 0 00-2.164 3.886 5.737 5.737 0 001.24 4.268 5.827 5.827 0 004.564 2.177 5.867 5.867 0 003.627-1.262zm-6.119-2.582a3.096 3.096 0 01-.67-2.303 3.103 3.103 0 011.17-2.098 3.17 3.17 0 011.982-.687c.976 0 1.885.432 2.491 1.183a3.115 3.115 0 01-.504 4.404 3.153 3.153 0 01-1.977.686 3.18 3.18 0 01-2.492-1.185z"/><path d="M71.492 14.03c-.23-.232-.64-.508-1.287-.508-.758 0-2.772 0-15.005 10.409-.245.209-.494.42-.743.634a32.718 32.718 0 00-10.974-14.46c-5.673-4.216-12.43-6.446-19.537-6.448h-.006c-4.796 0-10.627 1.676-15.217 4.375C3.097 11.34 0 15.763 0 20.487c.002 5.704 3.219 8.09 5.803 10.006 2.108 1.563 3.773 2.798 3.774 5.503 0 2.706-1.664 3.94-3.77 5.5-2.584 1.916-5.8 4.3-5.798 10.005.001 4.723 3.101 9.148 8.729 12.459 4.593 2.702 10.427 4.381 15.224 4.382h.01c8.706 0 16.89-3.36 23.046-9.463 6.078-6.024 9.458-14.01 9.546-22.519a323.427 323.427 0 005.888-6.881c3.123-3.763 5.524-6.868 7.136-9.228 2.137-3.126 3.073-5.043 1.904-6.222zM45.147 56.991c-5.655 5.606-13.174 8.692-21.175 8.692h-.009C15.39 65.682 2.67 59.724 2.667 51.5c-.002-4.365 2.293-6.067 4.723-7.868 2.271-1.684 4.845-3.593 4.845-7.636-.002-4.044-2.577-5.953-4.848-7.638-2.431-1.803-4.728-3.506-4.729-7.871-.001-5.051 4.644-8.536 7.413-10.164 4.141-2.435 9.585-4.008 13.87-4.008h.004c6.533.002 12.74 2.05 17.953 5.923 4.807 3.572 8.477 8.586 10.41 14.187C46.543 31.46 40.3 37.262 35.65 41.926c-7.721 1-8.773 6.146-9.542 9.927-.655 3.219-1.08 4.775-3.565 4.974a1.329 1.329 0 00-.402 2.553c.16.066 3.96 1.619 8.4 1.62h.002c3.094 0 5.748-.751 7.888-2.23 2.637-1.823 4.425-4.712 5.324-8.587 3.038-3.074 6.509-6.78 9.94-10.597-.79 6.572-3.755 12.653-8.549 17.406zm-4.061-7.061c-1.408 5.581-4.952 8.41-10.543 8.41h-.001c-1.474 0-2.886-.201-4.073-.452 1.418-1.446 1.86-3.621 2.244-5.506.73-3.59 1.421-6.988 7.072-7.795l5.3 5.343zm18.353-20.99c-5.268 6.277-11.645 13.326-16.895 18.685l-.813-.82-3.586-3.614c4.76-4.738 10.866-10.387 16.563-15.332.664-.576 1.324-1.145 1.974-1.7 6.612-5.638 10.077-8.092 11.844-9.16-1.055 1.778-3.487 5.27-9.087 11.94z"/></g><defs><clipPath id="clip0"><path fill="#fff" d="M0 0h72v72H0z"/></clipPath></defs></svg>