<svg width="50" height="49" fill="none" xmlns="http://www.w3.org/2000/svg"><path d="M42.796 7.176A24.339 24.339 0 0025.472 0 24.339 24.339 0 008.148 7.176 24.339 24.339 0 00.972 24.5a24.382 24.382 0 008.792 18.798l-.56 2.087a2.851 2.851 0 00.29 2.178A2.851 2.851 0 0011.976 49c1.268 0 2.43-.847 2.774-2.129l.08-.299A24.566 24.566 0 0025.471 49c3.677 0 7.331-.838 10.64-2.431l.082.303a2.851 2.851 0 001.339 1.742 2.86 2.86 0 002.177.289 2.874 2.874 0 002.03-3.517l-.56-2.086a24.656 24.656 0 006.356-8.148A24.642 24.642 0 0049.97 24.5a24.339 24.339 0 00-7.175-17.324zM11.73 47.053a.95.95 0 01-.58-.447.95.95 0 01-.097-.725l3.963-14.79a.95.95 0 01.447-.58.957.957 0 01.725-.097.95.95 0 01.58.447.95.95 0 01.097.725l-3.963 14.79a.959.959 0 01-1.172.677zm9.213-23.291l-.248.924a.958.958 0 01-1.172.677l-1.848-.496h-.001l-1.848-.495a.95.95 0 01-.58-.447.949.949 0 01-.097-.725l.248-.925 5.546 1.487zm4.529 23.323c-3.521 0-7.01-.827-10.136-2.397l1.17-4.367a18.106 18.106 0 008.966 2.362c3.16 0 6.234-.814 8.965-2.364l1.17 4.364a22.66 22.66 0 01-10.135 2.402zm8.425-12.479a.95.95 0 01-.725-.097.95.95 0 01-.447-.58l-2.972-11.092a4.75 4.75 0 01.484-3.628 4.766 4.766 0 012-1.892l4.433 16.547-2.773.742zm5.317 12.447a.95.95 0 01-.725-.098.95.95 0 01-.447-.579l-2.725-10.168 1.849-.496 2.724 10.169a.958.958 0 01-.676 1.172zm1.415-5.81L39.305 36.3a18.152 18.152 0 004.35-11.8A18.166 18.166 0 0029.982 6.88a.957.957 0 10-.474 1.855A16.254 16.254 0 0141.741 24.5c0 3.426-1.075 6.735-3.055 9.49l-4.873-18.186a.957.957 0 00-1.172-.676 6.707 6.707 0 00-4.737 8.204l2.972 11.093a2.85 2.85 0 001.34 1.742 2.86 2.86 0 001.21.378l.497 1.856a16.214 16.214 0 01-8.451 2.368c-3 0-5.909-.816-8.452-2.366l1.694-6.322a2.851 2.851 0 00-.289-2.177 2.867 2.867 0 00-.86-.933l.539-2.007.924.248a2.876 2.876 0 003.516-2.03l.494-1.843a.173.173 0 00.004-.013l1.484-5.54a.957.957 0 00-1.849-.495l-1.238 4.622-1.849-.496 1.238-4.622a.957.957 0 10-1.848-.495l-1.239 4.622-1.848-.495 1.238-4.622a.957.957 0 10-1.849-.496L13.8 20.846a.342.342 0 00-.003.01l-.003.01-.492 1.838a2.85 2.85 0 00.289 2.178 2.85 2.85 0 001.74 1.338l.925.248-.538 2.007c-.42.033-.833.16-1.21.378a2.852 2.852 0 00-1.34 1.742l-.909 3.395a16.235 16.235 0 01-3.055-9.49c0-7.444 5.03-13.926 12.232-15.765a.957.957 0 00-.473-1.854A18.166 18.166 0 007.289 24.5c0 4.34 1.542 8.511 4.35 11.8l-1.324 4.941A22.468 22.468 0 012.887 24.5c0-12.454 10.131-22.586 22.585-22.586 12.453 0 22.585 10.132 22.585 22.586 0 6.44-2.69 12.464-7.428 16.742z" fill="#fff"/><path d="M25.472 6.316h-.001a.957.957 0 10-.001 1.914.957.957 0 00.002-1.914z" fill="#fff"/></svg>