<svg width="72" height="72" fill="none" xmlns="http://www.w3.org/2000/svg"><g clip-path="url(#clip0)" fill="#041E42"><path d="M61.455 10.544C54.656 3.744 45.615 0 36 0c-9.616 0-18.656 3.744-25.455 10.544C3.745 17.344 0 26.384 0 35.999c0 10.735 4.698 20.753 12.918 27.623l-.822 3.067a4.19 4.19 0 00.425 3.199A4.21 4.21 0 0016.171 72a4.227 4.227 0 004.075-3.128l.118-.439A36.098 36.098 0 0036 72c5.402 0 10.77-1.231 15.633-3.573l.12.446a4.189 4.189 0 001.967 2.559 4.204 4.204 0 003.2.424 4.223 4.223 0 002.983-5.166l-.822-3.066A36.23 36.23 0 0068.42 51.65 36.209 36.209 0 0071.999 36c0-9.616-3.744-18.657-10.544-25.456zM15.808 69.139a1.396 1.396 0 01-.851-.657 1.396 1.396 0 01-.144-1.065l5.824-21.733c.096-.36.33-.662.657-.851a1.407 1.407 0 011.065-.143c.36.096.662.33.851.657.19.327.24.705.144 1.065L17.53 68.145a1.409 1.409 0 01-1.722.994zm13.538-34.224l-.364 1.358a1.407 1.407 0 01-1.722.994l-2.716-.727h-.002l-2.716-.728a1.396 1.396 0 01-.85-.657 1.395 1.395 0 01-.144-1.066l.364-1.358 8.15 2.184zM36 69.186c-5.174 0-10.3-1.215-14.893-3.522l1.72-6.417A26.604 26.604 0 0036 62.717c4.644 0 9.16-1.196 13.173-3.473l1.718 6.413A33.296 33.296 0 0136 69.187zM48.38 50.85c-.36.097-.738.046-1.065-.143a1.396 1.396 0 01-.657-.85l-4.368-16.3a6.98 6.98 0 01.711-5.33 7.002 7.002 0 012.94-2.781l6.514 24.313-4.075 1.091zm7.812 18.289c-.36.096-.738.045-1.065-.144a1.395 1.395 0 01-.657-.85l-4.004-14.942 2.717-.728 4.004 14.941a1.41 1.41 0 01-.995 1.723zm2.08-8.538l-1.946-7.262a26.672 26.672 0 006.392-17.34c0-12.223-8.262-22.87-20.091-25.889a1.406 1.406 0 10-.696 2.725C52.515 15.537 59.906 25.062 59.906 36c0 5.034-1.58 9.897-4.49 13.944l-7.16-26.721a1.406 1.406 0 00-1.722-.994c-5.243 1.404-8.365 6.813-6.96 12.055l4.367 16.3a4.189 4.189 0 001.967 2.559 4.22 4.22 0 001.78.556l.73 2.727A23.824 23.824 0 0136 59.906c-4.408 0-8.682-1.2-12.419-3.477l2.49-9.29a4.19 4.19 0 00-.425-3.199 4.215 4.215 0 00-1.263-1.37l.79-2.95 1.359.364a4.226 4.226 0 005.167-2.983l.725-2.706.002-.01.003-.01 2.181-8.14a1.406 1.406 0 10-2.716-.728l-1.82 6.791-2.716-.728 1.82-6.791a1.406 1.406 0 00-2.717-.728l-1.82 6.791-2.717-.728 1.82-6.791a1.406 1.406 0 10-2.717-.728l-2.18 8.136a.324.324 0 00-.003.014l-.004.014-.724 2.702a4.189 4.189 0 00.424 3.2 4.19 4.19 0 002.559 1.967l1.358.364-.79 2.95a4.213 4.213 0 00-1.779.555 4.19 4.19 0 00-1.967 2.559l-1.337 4.988A23.855 23.855 0 0112.094 36c0-10.937 7.392-20.462 17.974-23.164a1.406 1.406 0 10-.695-2.725C17.543 13.13 9.283 23.776 9.283 36a26.663 26.663 0 006.392 17.339l-1.946 7.26C6.768 54.306 2.814 45.454 2.814 36 2.813 17.7 17.7 2.812 36 2.812S69.187 17.7 69.187 36c0 9.465-3.954 18.316-10.915 24.602z"/><path d="M36 9.281h-.001a1.406 1.406 0 10-.002 2.812A1.406 1.406 0 0036 9.28z"/></g><defs><clipPath id="clip0"><path fill="#fff" d="M0 0h72v72H0z"/></clipPath></defs></svg>