<svg xmlns="http://www.w3.org/2000/svg" width="50" height="49" fill="none"><g clip-path="url(#clip0)" fill="#fff"><path d="M25.472 0C11.94 0 .972 10.97.972 24.5S11.94 49 25.472 49c13.53 0 24.5-10.97 24.5-24.5C49.956 10.975 38.996.015 25.472 0zm0 47.367c-12.63 0-22.867-10.238-22.867-22.867 0-12.629 10.238-22.867 22.867-22.867 12.628 0 22.866 10.238 22.866 22.867-.014 12.623-10.244 22.852-22.866 22.867z"/><path d="M25.472 4.083c-11.276 0-20.417 9.141-20.417 20.417 0 11.276 9.14 20.417 20.417 20.417 11.275 0 20.416-9.141 20.416-20.417-.012-11.27-9.146-20.404-20.416-20.417zm0 39.2c-10.374 0-18.784-8.41-18.784-18.783 0-10.374 8.41-18.783 18.784-18.783 10.373 0 18.783 8.41 18.783 18.783-.012 10.369-8.415 18.772-18.783 18.783z"/><path d="M26.288 8.167h-1.633V9.8h1.633V8.167zm0 31.033h-1.633v1.633h1.633V39.2zM18.01 9.947l-1.413.817.816 1.414 1.414-.817-.817-1.414zm15.513 26.871l-1.414.817.817 1.413 1.413-.816-.816-1.414zM11.734 15.626l-.817 1.415 1.414.816.817-1.414-1.414-.817zm26.873 15.519l-.817 1.415 1.414.817.817-1.415-1.414-.817zm-27.835-7.462H9.138v1.634h1.634v-1.634zm31.033 0h-1.633v1.634h1.633v-1.634zm-29.473 7.461l-1.414.817.816 1.414 1.415-.816-.817-1.415zm26.872-15.518l-1.415.817.817 1.414 1.415-.816-.817-1.415zM17.41 36.821l-.817 1.414 1.413.816.817-1.414-1.414-.816zM32.93 9.949l-.817 1.414 1.413.816.817-1.414-1.414-.816zm-8.276 1.484v12.605l-7.77 4.662.841 1.4 8.167-4.9a.817.817 0 00.396-.7V11.433h-1.634z"/></g><defs><clipPath id="clip0"><path fill="#fff" transform="translate(.972)" d="M0 0h49v49H0z"/></clipPath></defs></svg>