<svg width="72" height="72" fill="none" xmlns="http://www.w3.org/2000/svg"><path d="M36 0C16.118 0 0 16.118 0 36s16.118 36 36 36 36-16.118 36-36C71.978 16.127 55.873.023 36 0zm0 69.6C17.443 69.6 2.4 54.557 2.4 36 2.4 17.443 17.443 2.4 36 2.4c18.557 0 33.6 15.043 33.6 33.6-.021 18.548-15.052 33.579-33.6 33.6z" fill="#041E42"/><path d="M36 6C19.431 6 6 19.431 6 36c0 16.569 13.431 30 30 30 16.569 0 30-13.431 30-30-.018-16.56-13.44-29.982-30-30zm0 57.6C20.757 63.6 8.4 51.243 8.4 36 8.4 20.757 20.757 8.4 36 8.4c15.243 0 27.6 12.357 27.6 27.6-.017 15.236-12.364 27.583-27.6 27.6z" fill="#041E42"/><path d="M37.2 12h-2.4v2.4h2.4V12zm0 45.6h-2.4V60h2.4v-2.4zM25.037 14.617l-2.078 1.2 1.2 2.076 2.077-1.2-1.2-2.076zM47.83 54.1l-2.077 1.2 1.2 2.077 2.077-1.2-1.2-2.077zM15.814 22.96l-1.2 2.08 2.078 1.2 1.2-2.08-2.078-1.2zM55.3 45.765l-1.2 2.078 2.079 1.2 1.2-2.078-2.078-1.2zM14.4 34.8H12v2.4h2.4v-2.4zm45.6 0h-2.4v2.4H60v-2.4zM16.694 45.763l-2.08 1.2 1.2 2.078 2.08-1.2-1.2-2.078zM56.178 22.96l-2.078 1.2 1.2 2.08 2.078-1.2-1.2-2.08zM24.154 54.104l-1.2 2.078 2.077 1.2 1.2-2.078-2.078-1.2zm22.804-39.485l-1.2 2.077 2.078 1.2 1.2-2.077-2.078-1.2zM34.8 16.8v18.52l-11.42 6.853 1.236 2.056 12-7.2A1.2 1.2 0 0037.2 36V16.8h-2.4z" fill="#041E42"/></svg>