<svg width="73" height="72" fill="none" xmlns="http://www.w3.org/2000/svg"><path d="M71.721 13.444a4.232 4.232 0 00-2.061-1.266c-8.833-2.15-17.527-.97-25.679.425-1.203.207-2.405.42-3.607.634-1.196.212-2.393.426-3.59.63-8.414 1.44-17.353 2.61-26.19.053v-3.287a5.944 5.944 0 10-7.197.082v57.686a3.513 3.513 0 001.048 2.53A3.536 3.536 0 006.995 72a3.603 3.603 0 003.6-3.599V52.41a40.58 40.58 0 007.183 1.239c.013 0 .026.005.04.005l.006-.001c1.367.114 2.728.172 4.085.173a90.704 90.704 0 0015.28-1.604c1.202-.206 2.403-.42 3.605-.634a517.94 517.94 0 013.59-.63h.002c7.901-1.354 16.32-2.503 24.707-.46.75.196 1.543.128 2.248-.194.192-.088.372-.197.539-.324a2.94 2.94 0 001.095-2.376v-31.19a4.448 4.448 0 00-1.254-2.97zM8.195 14.82V68.4a1.201 1.201 0 01-1.2 1.2 1.17 1.17 0 01-.854-.367 1.15 1.15 0 01-.345-.833V11.803c.792.161 1.61.154 2.4-.021v3.04zm-1.25-5.3a3.548 3.548 0 11-.001-7.095 3.548 3.548 0 01.002 7.095zm38.438 5.28a85.531 85.531 0 0113.508-1.396 141.609 141.609 0 00-13.508 9.071V14.8zm0 10.662a123.595 123.595 0 0118.203-11.86c1.27.12 2.543.295 3.816.542-7.26 2.745-14.375 7.56-21.055 12.464-.321.052-.644.103-.964.156V25.46zm-9.597-8.991v7.86A110.522 110.522 0 0122.3 17.832c4.525-.1 9.034-.556 13.486-1.361zM17.41 17.63a103.514 103.514 0 0018.377 9.295v1.507c-.428.072-.856.142-1.288.21A87.223 87.223 0 0114.151 17.2c1.088.187 2.174.33 3.258.429zm-6.815-.208a81.969 81.969 0 0019.38 11.867c-.14.017-.278.036-.418.052-.32.037-.642.07-.963.105-.207.022-.415.045-.624.066-.314.03-.63.057-.944.084-.217.018-.434.038-.652.055l-.159.01a74.157 74.157 0 01-15.62-10.553v-1.686zm0 7.692v-2.838a74.976 74.976 0 0010.893 7.548 44.88 44.88 0 01-.82-.016 47.917 47.917 0 01-.738-.022 50.86 50.86 0 01-.86-.046c-.255-.015-.51-.03-.764-.05a40.725 40.725 0 01-.848-.076c-.258-.025-.516-.05-.774-.08-.28-.033-.558-.07-.837-.108a35.901 35.901 0 01-3.226-.584 35.062 35.062 0 01-1.613-.406c-.138-.038-.275-.08-.413-.12v-3.202zm0 12.902l.084.02c.186.05.372.091.557.138.37.093.74.187 1.11.268.207.046.413.083.619.125.348.071.697.142 1.045.203.216.038.433.07.649.104.338.054.676.107 1.013.153.222.03.444.054.666.08a31.684 31.684 0 001.67.165 44.661 44.661 0 003.315.15l.151.001a52.455 52.455 0 01-10.879 4.957v-6.364zm0 8.861a60.108 60.108 0 0015.748-7.619c.273-.02.544-.043.816-.066.232-.02.465-.039.697-.06.306-.029.61-.06.916-.093.233-.024.466-.048.697-.074l.246-.028c-6.192 4.354-12.66 8.3-19.12 10.296v-2.356zm25.192 3.148a85.555 85.555 0 01-13.495 1.39 141.66 141.66 0 0013.495-9.064v7.674zm0-10.662A123.672 123.672 0 0117.593 51.22a39.612 39.612 0 01-3.847-.541c7.25-2.737 14.372-7.54 21.075-12.46.322-.052.645-.103.965-.157v1.302zm9.597 8.993v-7.861a110.479 110.479 0 0113.474 6.493 86.3 86.3 0 00-13.474 1.368zm18.374-1.163c-5.8-3.7-11.956-6.814-18.374-9.293v-1.507c.428-.072.858-.143 1.29-.21A87.07 87.07 0 0167.03 47.627a42.148 42.148 0 00-3.274-.435zm6.819.215a81.879 81.879 0 00-19.379-11.872l.502-.062.374-.04c.405-.046.81-.09 1.216-.13l.45-.04c.382-.034.764-.068 1.147-.097l.068-.004a74.172 74.172 0 0115.622 10.554v1.69zm0-4.859a74.867 74.867 0 00-10.893-7.548h.016c.213.002.427.008.641.012.323.007.646.015.97.029.223.009.448.023.671.035a31.928 31.928 0 011.637.125 37.048 37.048 0 012.535.319 40.21 40.21 0 011.616.294 37.975 37.975 0 012.385.571c.14.039.28.082.42.122l.002 6.041zm0-8.542c-.043-.012-.084-.02-.127-.032-.25-.066-.498-.122-.748-.183-.334-.082-.668-.166-1.002-.238-.267-.058-.535-.107-.802-.16-.315-.06-.63-.124-.945-.178-.279-.047-.556-.087-.834-.128a40.648 40.648 0 00-.91-.13 38.689 38.689 0 00-.852-.096 41.125 41.125 0 00-.89-.088 45.677 45.677 0 00-.861-.065 46.036 46.036 0 00-3.473-.111 56.105 56.105 0 00-2.585.065c-.284.014-.568.027-.852.044a83.525 83.525 0 00-1.708.124c-.289.024-.577.053-.864.08-.279.027-.557.053-.833.083-.295.031-.588.066-.882.1-.267.031-.534.061-.8.095-.305.038-.61.08-.914.12-.255.035-.51.068-.764.104-.326.046-.65.095-.974.144l-.684.102c-.373.058-.744.117-1.116.177-.18.029-.36.057-.538.087-.548.089-1.093.18-1.637.274a1.2 1.2 0 00-.997 1.182v13.386a9455.684 9455.684 0 01-4.798.849v-12.97a1.166 1.166 0 00-.849-1.138 1.18 1.18 0 00-.139-.024 1.15 1.15 0 00-.212-.038 1.25 1.25 0 00-.203.017c-.541.093-1.086.184-1.633.274l-.014.002c-.538.088-1.077.174-1.618.258-.052.008-.106.015-.158.024-.49.075-.983.147-1.476.218l-.298.04c-.45.062-.9.123-1.35.18l-.376.043c-.423.051-.846.101-1.271.146-.156.017-.313.03-.47.046-.396.04-.793.078-1.192.112-.171.015-.344.026-.517.039-.38.029-.763.057-1.146.08-.189.011-.379.018-.568.027a52.36 52.36 0 01-1.102.048c-.202.006-.405.008-.607.012-.355.008-.71.014-1.066.014-.214 0-.427-.005-.64-.008a45.01 45.01 0 01-1.039-.021c-.223-.008-.446-.02-.67-.03a43.885 43.885 0 01-1.006-.058c-.234-.016-.468-.038-.703-.058a41.65 41.65 0 01-.98-.095 45.97 45.97 0 01-.723-.089 41.786 41.786 0 01-.957-.134 39.098 39.098 0 01-4.153-.886c-.152-.042-.304-.088-.456-.132v-4.695l.032.008a38.66 38.66 0 001.654.406c.147.033.293.057.44.089.407.085.813.17 1.22.241.222.04.443.07.665.106.33.053.66.108.99.153.244.033.486.058.729.087.309.035.618.074.926.105.25.023.5.04.75.06.3.025.6.05.901.068.253.015.505.025.758.036.297.013.594.027.89.034.253.007.504.01.755.013.202.002.403.009.604.009.083 0 .165-.004.246-.005.418-.002.834-.01 1.25-.022.194-.005.387-.007.581-.014a65.748 65.748 0 001.803-.09c.056-.004.111-.01.167-.013.549-.037 1.096-.08 1.641-.13.218-.02.436-.044.653-.065a87.78 87.78 0 001.15-.12 109.335 109.335 0 003.608-.474c.24-.036.48-.07.718-.107.38-.059.759-.118 1.136-.18l.62-.098c.57-.094 1.14-.189 1.707-.286a1.2 1.2 0 00.997-1.184V16.06c.87-.151 1.74-.305 2.61-.461l2.189-.387v12.97a1.2 1.2 0 001.402 1.182c.532-.091 1.067-.18 1.603-.269.201-.034.405-.065.607-.097.336-.055.671-.109 1.009-.161l.752-.112c.29-.044.58-.087.872-.129.28-.04.562-.075.843-.113.264-.035.526-.072.79-.105.286-.036.574-.068.86-.101.265-.03.53-.063.793-.091.283-.03.567-.056.851-.083.269-.026.537-.054.806-.076.286-.024.573-.044.86-.065.268-.02.534-.04.802-.056.29-.017.58-.029.87-.042.265-.012.532-.026.8-.035.29-.01.582-.012.873-.017.267-.005.534-.01.801-.01.291 0 .583.004.874.01.269.003.538.007.807.016.288.01.577.024.866.04.273.013.547.027.821.046.285.02.571.045.857.071.276.025.553.05.83.08.284.032.568.069.853.105.278.036.557.075.836.117a40.72 40.72 0 012.525.476 36.887 36.887 0 011.678.42c.15.04.3.086.45.13v4.694zm0-7.198c-.02-.006-.04-.008-.059-.014a38.565 38.565 0 00-2.511-.576c-.172-.034-.345-.07-.516-.1a42.213 42.213 0 00-2.449-.38c-.147-.017-.293-.031-.44-.047a45.16 45.16 0 00-2.356-.205l-.238-.017a50.4 50.4 0 00-2.315-.067 52.48 52.48 0 0110.884-4.959v6.365zm0-8.862a60.11 60.11 0 00-15.751 7.62 72.25 72.25 0 00-2.405.217l-.302.03c-.223.024-.446.051-.67.077 6.117-4.304 12.52-8.215 18.93-10.235.121.235.189.494.198.758v1.533z" fill="#041E42"/></svg>