<svg xmlns="http://www.w3.org/2000/svg" width="116" height="31" fill="none"><g clip-path="url(#clip0)" fill="#fff"><path d="M16.933.61v.706c-1.008.081-1.62.24-1.836.475-.23.23-.328.858-.328 1.865v9.748c0 1.007.107 1.629.328 1.865.22.236.826.392 1.818.475v.707h-6.69v-.707c1.041-.083 1.675-.24 1.904-.475.228-.234.34-.855.34-1.865V8.606H4.473v4.798c0 1.007.11 1.628.331 1.865.22.237.827.396 1.818.475v.707H.057v-.707c.978-.083 1.575-.24 1.796-.475.22-.234.326-.853.326-1.865V3.656c0-1.008-.11-1.63-.329-1.865-.218-.235-.83-.394-1.836-.475V.61h6.49v.706c-.928.081-1.497.24-1.708.475-.211.236-.318.857-.322 1.865v3.876h8.003V3.656c0-1.008-.105-1.63-.316-1.865-.212-.235-.797-.394-1.757-.475V.61h6.53zm13.594 11.847l.73.122a34.575 34.575 0 01-.854 3.876H18.52v-.706c1.107-.083 1.781-.243 2.025-.489.243-.245.367-.87.367-1.876V3.75c0-1.07-.105-1.725-.317-1.963-.21-.23-.799-.395-1.758-.475V.605h10.98c.016.193.053.728.11 1.606.058.879.095 1.514.11 1.938l-.732.122a5.884 5.884 0 00-.828-2.097 1.394 1.394 0 00-.843-.536 8.165 8.165 0 00-1.837-.147h-1.763c-.39 0-.626.041-.707.121-.08.08-.122.31-.122.689v5.484h2.198c1.072 0 1.74-.096 2-.291.259-.195.472-.707.633-1.537h.732v4.695h-.732c-.153-.862-.368-1.39-.645-1.585-.277-.194-.94-.292-1.988-.293h-2.197v4.509c0 1.07.195 1.737.585 2 .31.195 1.13.292 2.466.292a8.272 8.272 0 001.962-.17c.41-.1.78-.32 1.061-.633a7.86 7.86 0 001.247-2.317m16.738 3.537l-.099.658c-.374 0-.65 0-.828-.023a6.017 6.017 0 01-2.44-.584 5.132 5.132 0 01-1.709-1.659c-.341-.49-1.13-1.774-2.367-3.853a2.047 2.047 0 00-.757-.78 2.837 2.837 0 00-1.268-.218h-.707v3.826c0 1.024.113 1.658.34 1.901.23.246.831.409 1.807.489v.706h-6.564v-.706c.992-.081 1.604-.244 1.837-.489.233-.244.346-.878.342-1.901V3.633c0-1.009-.106-1.627-.317-1.853-.213-.23-.799-.383-1.758-.459V.615h6.173c1.807 0 3.133.276 3.978.828 1.089.715 1.633 1.78 1.635 3.193 0 1.87-1.033 3.26-3.1 4.17a50.239 50.239 0 002.147 3.486 19.32 19.32 0 001.959 2.578c.456.523 1.046.91 1.707 1.122h-.011zM37.102 8.728h1.072c1.17 0 2.04-.23 2.61-.688.863-.698 1.295-1.705 1.295-3.024 0-1.234-.33-2.143-.99-2.73a3.56 3.56 0 00-2.451-.878c-.65 0-1.082.082-1.293.246-.163.144-.243.495-.243 1.048v6.026zm17.508 7.727h-6.638v-.706c.992-.083 1.604-.241 1.837-.475.232-.234.346-.864.342-1.89V3.68c0-1.025-.115-1.654-.342-1.89-.228-.236-.838-.394-1.837-.475V.61h6.637v.706c-.992.081-1.604.24-1.837.475-.229.23-.341.865-.341 1.89v9.703c0 1.023.112 1.653.342 1.89.23.236.837.392 1.836.475v.706zM70.078 4.388l-.732.073c-.244-1.089-.52-1.836-.83-2.243a1.51 1.51 0 00-.816-.585 7.302 7.302 0 00-1.793-.147H64.3v11.928c0 .99.13 1.612.39 1.865.262.252.96.41 2.098.474v.707H59.61v-.707c1.092-.064 1.763-.222 2.014-.474.25-.253.377-.874.379-1.865V1.477H60.61a8.48 8.48 0 00-2 .158 1.36 1.36 0 00-.83.599c-.259.373-.527 1.112-.804 2.218h-.758c.164-1.95.262-3.437.294-4.461h.512c.127.21.307.383.524.5.263.087.54.124.817.11h9.688a1.62 1.62 0 00.721-.124c.205-.126.382-.292.523-.486h.538c0 1.007.08 2.47.243 4.388m15.276 12.076h-6.176v-.706c.767-.099 1.233-.23 1.405-.402.172-.171.166-.5-.013-.988-.212-.665-.634-1.852-1.268-3.56h-5.124c-.246.684-.596 1.691-1.049 3.023-.245.748-.278 1.232-.099 1.452.18.22.724.379 1.635.475v.706h-5.342v-.706c.812-.115 1.377-.305 1.67-.574.295-.268.655-.917 1.062-1.938l5.05-12.75.854-.244c2.588 7.169 4.158 11.5 4.709 12.994.39 1.042.732 1.7 1.026 1.975.294.275.847.454 1.66.537v.706zm-6.428-6.752L76.86 3.656h-.07a707.576 707.576 0 00-2.22 6.047h4.356zm23.093-.633v.706c-.716.114-1.148.259-1.306.438-.159.179-.23.635-.23 1.365v2.055c-.022.776.036 1.552.172 2.316-2.594.582-4.427.872-5.498.872-2.7 0-4.876-.752-6.527-2.257-1.651-1.505-2.476-3.475-2.472-5.91 0-1.807.451-3.359 1.354-4.657a8.006 8.006 0 013.444-2.854A11.414 11.414 0 0195.53.243c1.186 0 2.756.235 4.709.706.113 1.334.243 2.61.39 3.829l-.732.17c-.505-2.551-2.091-3.827-4.757-3.827-1.837 0-3.342.654-4.516 1.962-1.174 1.307-1.76 3.059-1.756 5.255a9.508 9.508 0 00.67 3.56 6.717 6.717 0 002.209 2.862 5.903 5.903 0 003.71 1.184 4.135 4.135 0 002-.416c.487-.258.732-.77.732-1.534v-2.122c0-.877-.127-1.422-.38-1.633-.252-.211-.98-.367-2.183-.459v-.71h6.392zm13.249 3.387l.732.122a34.464 34.464 0 01-.854 3.876h-11.883v-.706c1.107-.083 1.782-.243 2.025-.489.243-.245.367-.87.367-1.876V3.75c0-1.073-.108-1.727-.319-1.963-.211-.237-.796-.395-1.756-.475V.605h10.981a155.79 155.79 0 01.22 3.544l-.732.122a5.91 5.91 0 00-.831-2.097 1.38 1.38 0 00-.841-.536 8.167 8.167 0 00-1.836-.147h-1.757c-.39 0-.626.041-.707.121-.08.08-.121.31-.121.689v5.484h2.194c1.075 0 1.741-.096 2.002-.291.262-.195.46-.707.634-1.537h.737v4.695h-.732c-.164-.862-.38-1.39-.648-1.585-.268-.194-.93-.292-1.988-.293h-2.195v4.509c0 1.07.195 1.737.586 2 .306.196 1.127.293 2.463.292a8.282 8.282 0 001.965-.17 2.11 2.11 0 001.061-.633 7.844 7.844 0 001.244-2.317M2.624 30.858H.028v-.278c.387-.032.626-.094.716-.186.087-.091.133-.337.133-.738V25.86c0-.402-.046-.647-.133-.739-.087-.092-.328-.154-.716-.186v-.277h2.596v.277c-.387.032-.626.094-.716.186-.09.092-.133.337-.133.739v3.796c0 .401.043.647.133.738.09.092.328.154.716.186v.278zm7.291-6.2v.277a1.147 1.147 0 00-.587.143.585.585 0 00-.214.428c-.04.395-.059.93-.057 1.606v3.84h-.324l-4.047-4.96h-.021v2.347c0 .688.02 1.234.057 1.606a.635.635 0 00.23.482c.214.106.45.16.689.155v.278H3.359v-.277a1.24 1.24 0 00.61-.156.633.633 0 00.23-.46c.044-.458.067-.997.067-1.62v-2.08a4.51 4.51 0 00-.03-.657.72.72 0 00-.161-.315 1.134 1.134 0 00-.84-.353v-.277h1.469l3.923 4.674h.028v-2.222a15.382 15.382 0 00-.067-1.583.564.564 0 00-.23-.44 1.569 1.569 0 00-.7-.152v-.277l2.257-.007zm5.967 1.479l-.287.028c-.05-.31-.16-.608-.324-.877a.585.585 0 00-.321-.229 2.815 2.815 0 00-.689-.057h-.631v4.663c0 .388.053.63.154.73.1.098.374.16.822.185v.278h-2.82v-.278c.427-.025.69-.087.788-.186.099-.098.15-.341.15-.73v-4.662h-.545c-.263-.01-.525.01-.783.062a.535.535 0 00-.326.23 3 3 0 00-.314.866h-.296a34.03 34.03 0 00.114-1.745h.2c.05.083.12.15.207.195a.82.82 0 00.319.043h3.79a.621.621 0 00.28-.048.658.658 0 00.207-.19h.209c0 .394.032.967.096 1.718m5.26 3.16l.287.049a13.895 13.895 0 01-.336 1.516h-4.648v-.278c.433-.032.688-.094.791-.19.104-.096.145-.34.145-.734V25.89c0-.42-.041-.689-.124-.769-.083-.08-.312-.154-.689-.186v-.277h4.296c0 .075.02.284.043.626.023.342.037.592.044.757l-.287.048a2.338 2.338 0 00-.326-.821.535.535 0 00-.328-.209 3.176 3.176 0 00-.721-.057H18.6a.46.46 0 00-.278.048.438.438 0 00-.048.266v2.147h.861c.42 0 .689-.039.783-.115.143-.17.23-.38.248-.6h.285v1.834h-.285c-.064-.336-.15-.543-.255-.619a1.608 1.608 0 00-.776-.115h-.86v1.764c0 .42.077.688.229.782.151.094.443.115.964.115a3.27 3.27 0 00.77-.067.817.817 0 00.415-.247 3.11 3.11 0 00.486-.906m6.608 1.388l-.04.256h-.323a2.316 2.316 0 01-.955-.229c-.27-.161-.5-.384-.668-.65-.133-.19-.443-.687-.919-1.506a.825.825 0 00-.296-.305 1.101 1.101 0 00-.496-.085h-.291v1.498c0 .399.043.649.133.743.09.094.326.158.707.19v.278h-2.56v-.278c.388-.032.627-.094.714-.19.087-.096.136-.344.136-.743V25.84c0-.394-.044-.635-.127-.725-.082-.089-.31-.149-.688-.18v-.278h2.415c.707 0 1.226.108 1.556.325a1.398 1.398 0 01.639 1.248c0 .733-.405 1.276-1.213 1.631.218.395.498.85.84 1.365.228.357.483.695.765 1.011.179.204.41.356.668.439h.003zm-3.988-2.842h.42a1.61 1.61 0 001.022-.269 1.432 1.432 0 00.505-1.181 1.362 1.362 0 00-.386-1.069 1.392 1.392 0 00-.96-.344.895.895 0 00-.505.096.585.585 0 00-.096.41v2.357zM34.6 24.658v.277a1.147 1.147 0 00-.588.143.585.585 0 00-.214.428c-.038.395-.057.93-.057 1.606v3.84h-.324l-4.047-4.96h-.021v2.347c0 .688.02 1.234.057 1.606a.635.635 0 00.23.482c.214.106.45.16.689.155v.278h-2.273v-.277c.213 0 .424-.053.61-.156a.634.634 0 00.23-.46c.044-.458.067-.997.067-1.62v-2.08a4.246 4.246 0 00-.03-.657.72.72 0 00-.16-.315 1.134 1.134 0 00-.841-.353v-.277h1.47l3.923 4.674h.027v-2.222a15.402 15.402 0 00-.066-1.583.565.565 0 00-.23-.44 1.569 1.569 0 00-.7-.152v-.277l2.247-.007zm6.356 6.2h-2.415v-.278c.194-.003.384-.057.551-.156.067-.066.064-.197 0-.387-.082-.26-.248-.725-.496-1.393h-2.004c-.095.27-.232.664-.41 1.184-.095.291-.109.482-.038.567.072.084.283.149.639.185v.278h-2.09v-.278c.235-.015.46-.095.653-.229.187-.223.328-.481.415-.76l1.977-4.988.335-.094c1.01 2.803 1.622 4.497 1.836 5.083.085.28.22.543.402.773.19.134.415.207.648.209l-.003.284zm-2.504-2.643l-.813-2.364h-.028a320.61 320.61 0 00-.867 2.364h1.708zm7.784-2.078l-.286.028a2.465 2.465 0 00-.324-.877.585.585 0 00-.322-.229 2.829 2.829 0 00-.7-.057h-.631v4.663c0 .388.05.63.154.73.103.098.374.16.82.185v.278H42.14v-.278c.427-.025.689-.087.787-.186.1-.098.147-.341.147-.73v-4.662h-.544c-.262-.01-.525.01-.783.062a.537.537 0 00-.323.23 3 3 0 00-.315.866h-.296a38.22 38.22 0 00.115-1.745h.2a.51.51 0 00.206.195c.103.035.211.05.32.043h3.79a.621.621 0 00.28-.048.69.69 0 00.206-.19h.21c0 .394.031.967.096 1.718m3.235 4.725h-2.587v-.278c.387-.032.626-.094.716-.186.09-.091.133-.337.133-.738V25.86c0-.402-.043-.647-.133-.739-.09-.092-.328-.154-.716-.186v-.277h2.587v.277c-.388.032-.627.094-.716.186-.087.092-.133.337-.133.739v3.796c0 .401.046.647.133.738.087.092.328.154.716.186v.278zm3.981-6.342a3.073 3.073 0 013.093 3.165c0 1.005-.307 1.81-.919 2.413a3.13 3.13 0 01-2.282.918 3.014 3.014 0 01-2.229-.918 3.103 3.103 0 01-.902-2.275c-.014-.86.304-1.69.888-2.322a3.03 3.03 0 012.358-.977l-.007-.004zm-.204.358a1.737 1.737 0 00-1.394.713c-.38.477-.571 1.147-.571 1.984-.03.784.192 1.556.633 2.204a1.93 1.93 0 001.628.877 1.697 1.697 0 001.377-.705c.372-.472.558-1.14.558-2.002 0-.968-.21-1.722-.629-2.262a1.951 1.951 0 00-1.607-.81m10.547-.215v.277a1.147 1.147 0 00-.588.143.585.585 0 00-.213.428c-.039.395-.058.93-.058 1.606v3.84h-.326l-4.047-4.96h-.019v2.347c0 .699.02 1.234.058 1.606a.628.628 0 00.23.482c.213.106.45.16.688.155v.278h-2.28v-.277a1.25 1.25 0 00.611-.156.63.63 0 00.218-.46c.046-.458.067-.997.067-1.62v-2.08a4.653 4.653 0 00-.028-.657.7.7 0 00-.163-.315 1.124 1.124 0 00-.84-.353v-.277h1.472l3.923 4.674h.028v-2.222c0-.624-.023-1.152-.067-1.583a.564.564 0 00-.23-.44 1.579 1.579 0 00-.702-.152v-.277l2.266-.007zm6.357 6.2h-2.415v-.278c.193-.003.382-.057.548-.156.067-.066.067-.197 0-.387-.082-.26-.248-.725-.496-1.393h-2.013c-.096.27-.233.664-.41 1.184-.097.291-.109.482-.04.567.069.084.285.149.64.185v.278h-2.09v-.278c.234-.015.46-.094.654-.23.186-.223.327-.48.415-.758l1.979-4.982.333-.094 1.837 5.083c.082.28.218.543.399.773.19.133.417.206.65.208l.009.278zm-2.512-2.643l-.81-2.364h-.028c-.338.908-.628 1.696-.87 2.364h1.708zm7.503 1.06l.287.057c-.085.515-.2 1.024-.345 1.526H70.7v-.278c.406-.032.657-.094.749-.19.091-.096.14-.344.14-.743V25.86a4.028 4.028 0 00-.021-.487.442.442 0 00-.115-.257.408.408 0 00-.23-.133 3.307 3.307 0 00-.459-.048v-.277h2.56v.277c-.19.004-.38.034-.562.09a.374.374 0 00-.214.23 1.904 1.904 0 00-.064.6v3.757c-.007.184.009.368.048.548a.36.36 0 00.172.23c.282.098.582.137.88.114.528 0 .877-.098 1.049-.295.23-.277.402-.598.505-.943m6.625-3.196l-.296.046a2.501 2.501 0 00-.43-.917 1.002 1.002 0 00-.83-.349.975.975 0 00-.765.3 1.147 1.147 0 00.016 1.494c.27.255.58.465.919.62.261.132.459.245.61.334.176.11.343.233.5.367.18.143.322.326.416.535.092.212.137.44.134.672a1.663 1.663 0 01-.6 1.305c-.435.362-.99.55-1.556.525a3.13 3.13 0 01-.937-.142 6.176 6.176 0 01-.496-.202 9.183 9.183 0 01-.257-1.505l.287-.077a2.84 2.84 0 00.482 1.002c.124.172.285.314.47.415.195.104.412.158.632.156a1.082 1.082 0 00.81-.3 1.103 1.103 0 00.297-.815 1.048 1.048 0 00-.296-.768 3.937 3.937 0 00-.919-.633 10.82 10.82 0 00-.438-.23 3.941 3.941 0 01-.407-.277 1.987 1.987 0 01-.392-.363 1.814 1.814 0 01-.241-.438 1.493 1.493 0 01-.11-.573 1.587 1.587 0 01.548-1.23 2.086 2.086 0 011.456-.495c.415.017.826.09 1.221.218.014.121.04.33.08.626.042.296.074.532.092.711m6.557 3.088l.278.105a8.939 8.939 0 01-.535 1.477c-.58.14-1.17.223-1.766.248a4.091 4.091 0 01-1.547-.276 2.884 2.884 0 01-1.072-.736 3.211 3.211 0 01-.61-1.005 3.26 3.26 0 01-.205-1.146 3.076 3.076 0 011.03-2.409c.688-.611 1.576-.917 2.664-.917a5.015 5.015 0 011.022.105l.41.094c.159.04.244.058.258.058.088.623.152 1.11.19 1.459l-.296.066a1.894 1.894 0 00-.638-1.092c-.35-.24-.77-.358-1.194-.337a2.11 2.11 0 00-1.756.814 3.09 3.09 0 00-.64 1.97 3.248 3.248 0 00.688 2.154 2.183 2.183 0 001.76.83c.405.017.801-.11 1.121-.357.352-.31.636-.687.836-1.11m7.528-4.507v.277c-.395.032-.636.094-.721.186-.085.092-.129.335-.129.73v3.814c0 .395.041.638.129.73.087.091.323.153.711.185v.278H93.22v-.278c.409-.032.657-.094.746-.186.09-.091.133-.334.133-.729v-1.879h-3.124v1.879c0 .395.044.638.129.73.085.091.323.153.711.185v.278h-2.566v-.278c.38-.032.615-.094.688-.186.074-.091.129-.334.129-.729v-3.814c0-.395-.041-.638-.129-.73-.087-.092-.326-.154-.72-.186v-.277h2.538v.277c-.362.032-.585.094-.668.186-.082.092-.123.335-.123.73v1.516h3.13V25.85c0-.394-.04-.637-.123-.729-.083-.092-.312-.154-.689-.186v-.277h2.564zm3.967-.142a3.07 3.07 0 013.092 3.165c0 1.005-.306 1.81-.918 2.413a3.136 3.136 0 01-2.282.918 3.007 3.007 0 01-2.227-.918 3.103 3.103 0 01-.902-2.275 3.344 3.344 0 01.877-2.326 3.031 3.031 0 012.357-.977h.003zm-.212.353a1.732 1.732 0 00-1.393.713c-.381.477-.574 1.147-.574 1.985-.03.783.192 1.556.636 2.204a1.926 1.926 0 001.627.876 1.7 1.7 0 001.378-.704c.372-.473.558-1.14.558-2.003 0-.968-.211-1.722-.631-2.261a1.948 1.948 0 00-1.608-.81m7.606-.354a3.023 3.023 0 012.181.886 3.048 3.048 0 01.919 2.28c0 1.005-.306 1.809-.919 2.413a3.123 3.123 0 01-2.279.917 3.012 3.012 0 01-2.23-.917 3.115 3.115 0 01-.902-2.276 3.333 3.333 0 01.889-2.32 3.015 3.015 0 012.355-.978l-.014-.005zm-.195.358a1.732 1.732 0 00-1.393.714c-.381.477-.572 1.146-.572 1.984-.03.783.192 1.556.634 2.204a1.927 1.927 0 001.627.876 1.697 1.697 0 001.378-.704c.372-.473.558-1.14.558-2.002 0-.968-.21-1.722-.629-2.262a1.958 1.958 0 00-1.607-.81m8.427 4.402l.287.057a13.724 13.724 0 01-.342 1.526h-4.375v-.278c.406-.032.656-.094.75-.19.094-.096.138-.344.138-.743V25.86a3.948 3.948 0 00-.021-.487.456.456 0 00-.112-.257.422.422 0 00-.23-.133 3.232 3.232 0 00-.459-.048v-.277h2.569v.277a2.109 2.109 0 00-.565.09.376.376 0 00-.213.23 1.995 1.995 0 00-.062.6v3.757a2.29 2.29 0 00.046.548.364.364 0 00.172.23c.282.098.581.137.879.114.528 0 .877-.098 1.049-.295a2.6 2.6 0 00.505-.943"/></g><defs><clipPath id="clip0"><path fill="#fff" d="M0 0h116v31H0z"/></clipPath></defs></svg>