<svg xmlns="http://www.w3.org/2000/svg" width="116" height="31" fill="none" viewBox="0 0 116 31"><g clip-path="url(#clip0)"><path fill="#fff" d="M16.9335 0.609863V1.31634C15.9249 1.39738 15.3127 1.55565 15.0969 1.79114C14.8673 2.02052 14.7686 2.649 14.7686 3.65596V13.4044C14.7686 14.4113 14.8765 15.0329 15.0969 15.2692C15.3173 15.5055 15.9234 15.6614 16.9152 15.744V16.4505H10.2253V15.744C11.2661 15.6614 11.9005 15.5032 12.1285 15.2692C12.3565 15.0352 12.4698 14.4136 12.4683 13.4044V8.60587H4.47445V13.4044C4.47445 14.4106 4.58465 15.0322 4.80504 15.2692C5.02543 15.5062 5.63151 15.6645 6.62328 15.744V16.4505H0.0574104V15.744C1.0354 15.6614 1.6323 15.5032 1.85269 15.2692C2.07309 15.0352 2.17869 14.4159 2.17869 13.4044V3.65596C2.17869 2.64824 2.06926 2.02663 1.8504 1.79114C1.63154 1.55565 1.01934 1.39738 0.0137939 1.31634V0.609863H6.5039V1.31634C5.57641 1.39738 5.00706 1.55565 4.79585 1.79114C4.58464 2.02663 4.47751 2.64824 4.47445 3.65596V7.53239H12.4775V3.65596C12.4775 2.64824 12.3719 2.02663 12.1606 1.79114C11.9494 1.55565 11.364 1.39738 10.4044 1.31634V0.609863H16.9335Z"/><path fill="#fff" d="M30.5267 12.4573L31.2568 12.5788C31.0466 13.8862 30.7614 15.1805 30.4027 16.4553H18.5199V15.7488C19.6265 15.6662 20.3014 15.5057 20.5448 15.2602C20.7881 15.0148 20.9121 14.3909 20.9121 13.3839V3.7502C20.9121 2.67978 20.8065 2.0253 20.5953 1.78675C20.3841 1.55737 19.7963 1.39222 18.8367 1.31194V0.605469H29.8173C29.8334 0.798144 29.8701 1.33259 29.9275 2.21109C29.9849 3.0896 30.0216 3.72496 30.0377 4.14931L29.3054 4.27088C29.1669 3.52523 28.8854 2.81335 28.4766 2.17439C28.2718 1.89757 27.9716 1.70635 27.634 1.63766C27.0294 1.51959 26.4132 1.47035 25.7974 1.49086H24.0343C23.644 1.49086 23.4076 1.53214 23.3272 1.61242C23.2469 1.69271 23.2055 1.92208 23.2055 2.30055V7.7849H25.4026C26.4747 7.7849 27.1428 7.68856 27.4022 7.49359C27.6616 7.29862 27.8751 6.78712 28.0358 5.95678H28.7682V10.6521H28.0358C27.8828 9.78964 27.6677 9.26131 27.3907 9.0671C27.1137 8.8729 26.451 8.77503 25.4026 8.7735H23.2055V13.283C23.2055 14.3534 23.4007 15.0201 23.791 15.2832C24.1009 15.4781 24.9205 15.5745 26.2566 15.5745C26.9153 15.5963 27.5743 15.5393 28.2195 15.4047C28.6285 15.3047 28.9981 15.0841 29.2801 14.7717C29.8229 14.0749 30.2443 13.2917 30.5267 12.455"/><path fill="#fff" d="M47.265 15.992L47.1663 16.6503C46.7921 16.6503 46.5166 16.6503 46.3376 16.6274C45.492 16.6061 44.6604 16.4068 43.8972 16.0425C43.2056 15.6311 42.6205 15.0631 42.1891 14.3841C41.8478 13.8948 41.0588 12.6103 39.8222 10.5306C39.6447 10.2072 39.3829 9.93771 39.0646 9.75075C38.6645 9.5821 38.2309 9.50754 37.7973 9.53284H37.0903V13.3588C37.0903 14.3833 37.2035 15.0172 37.43 15.2603C37.6596 15.5058 38.2611 15.6686 39.2368 15.7489V16.4554H32.6732V15.7489C33.665 15.6678 34.2772 15.505 34.5098 15.2603C34.7425 15.0157 34.8565 14.3818 34.8519 13.3588V3.63332C34.8519 2.62407 34.7463 2.00629 34.5351 1.77997C34.3216 1.5506 33.7362 1.39691 32.7765 1.32122V0.614746H38.9498C40.7573 0.614746 42.0835 0.890761 42.9284 1.44279C44.0165 2.15844 44.5614 3.22274 44.5629 4.63569C44.5629 6.50586 43.5298 7.89587 41.4637 8.80572C42.0177 9.81191 42.7332 10.9741 43.6102 12.2922C44.1898 13.2047 44.8448 14.0671 45.5685 14.8704C46.0248 15.3929 46.6155 15.7807 47.2765 15.992H47.265ZM37.1017 8.72773H38.1739C39.3447 8.72773 40.2148 8.49836 40.7841 8.03961C41.6473 7.34231 42.0789 6.33459 42.0789 5.01645C42.0789 3.78241 41.7491 2.87256 41.0895 2.28689C40.4127 1.69497 39.5366 1.38109 38.6376 1.40838C37.9871 1.40838 37.5563 1.49019 37.3451 1.65381C37.1821 1.79832 37.1017 2.14926 37.1017 2.70206V8.72773Z"/><path fill="#fff" d="M54.6091 16.4551H47.9721V15.7486C48.9639 15.666 49.5761 15.5078 49.8087 15.2738C50.0413 15.0398 50.1554 14.4098 50.1508 13.3837V3.68119C50.1508 2.65589 50.036 2.0274 49.8087 1.79114C49.5814 1.55489 48.9708 1.39662 47.9721 1.31634V0.609863H54.6091V1.31634C53.6174 1.39738 53.0052 1.55565 52.7725 1.79114C52.543 2.02052 52.4305 2.65589 52.4305 3.68119V13.3837C52.4305 14.4068 52.543 15.0375 52.7725 15.2738C53.0021 15.51 53.6105 15.666 54.6091 15.7486V16.4551Z"/><path fill="#fff" d="M70.078 4.38784L69.3456 4.46124C69.1023 3.37247 68.826 2.62471 68.5169 2.21795C68.3193 1.93547 68.0309 1.72907 67.6996 1.63305C67.1103 1.5104 66.508 1.46109 65.9066 1.48625H64.2996V13.4137C64.2996 14.4046 64.4297 15.0262 64.6898 15.2786C64.9516 15.5309 65.6495 15.6891 66.7882 15.7534V16.4598H59.6093V15.7534C60.7006 15.6891 61.3717 15.5309 61.6227 15.2786C61.8737 15.0262 62 14.4046 62.0015 13.4137V1.47707H60.6103C59.9398 1.45054 59.2686 1.50367 58.6107 1.63534C58.2661 1.71894 57.9679 1.93377 57.7796 2.23401C57.521 2.60713 57.2531 3.34648 56.9761 4.45206H56.2185C56.3823 2.50238 56.4802 1.01526 56.5124 -0.00927734H57.0243C57.1505 0.20149 57.3313 0.374261 57.5477 0.49076C57.8109 0.578085 58.0881 0.615429 58.365 0.60086H68.0531C68.2998 0.615485 68.5464 0.573099 68.774 0.476998C68.9787 0.350718 69.1565 0.185498 69.2974 -0.00927734H69.8346C69.8346 0.998442 69.9158 2.46109 70.078 4.37866"/><path fill="#fff" d="M85.3539 16.4554H79.1783V15.7489C79.9451 15.6503 80.4111 15.5195 80.5833 15.3475C80.7555 15.1755 80.7486 14.8475 80.5695 14.3589C80.3583 13.6937 79.9359 12.5071 79.3023 10.799H74.1782C73.9317 11.4825 73.582 12.4902 73.129 13.8222C72.8841 14.5699 72.8512 15.0539 73.0303 15.2741C73.2093 15.4943 73.7542 15.6526 74.6649 15.7489V16.4554H69.3226V15.7489C70.1353 15.6342 70.7001 15.4438 70.9939 15.1755C71.2878 14.9071 71.6482 14.258 72.0546 13.2372L77.1052 0.486301L77.9593 0.243164C80.5474 7.41189 82.1169 11.7432 82.6679 13.2372C83.0582 14.2786 83.4002 14.9369 83.6941 15.2122C83.9879 15.4874 84.5412 15.6663 85.3539 15.7489V16.4554ZM78.9258 9.70258L76.8596 3.65626H76.7907C75.9275 5.97906 75.1875 7.9945 74.5707 9.70258H78.9258Z"/><path fill="#fff" d="M102.019 9.06924V9.77571C101.303 9.8904 100.871 10.0349 100.713 10.2138C100.554 10.3927 100.483 10.8492 100.483 11.5786V13.6338C100.461 14.4099 100.519 15.1862 100.655 15.9505C98.061 16.5316 96.2282 16.8221 95.1569 16.8221C92.457 16.8221 90.2814 16.0698 88.63 14.5651C86.9786 13.0604 86.1544 11.09 86.1575 8.65407C86.1575 6.84813 86.609 5.29603 87.512 3.99777C88.3652 2.73906 89.5597 1.74929 90.9556 1.14435C92.4023 0.532209 93.9601 0.225313 95.5311 0.242903C96.7172 0.242903 98.2867 0.478393 100.24 0.949376C100.353 2.28281 100.483 3.5589 100.63 4.77764L99.8976 4.94738C99.3925 2.39673 97.8069 1.12141 95.1408 1.12141C93.3042 1.12141 91.7989 1.77513 90.625 3.08256C89.4511 4.39 88.8657 6.14166 88.8688 8.33754C88.862 9.55611 89.0896 10.7646 89.5391 11.8974C89.9997 13.0353 90.7635 14.0254 91.7477 14.76C92.8146 15.5627 94.1225 15.98 95.4576 15.9436C96.1484 15.9746 96.8359 15.8318 97.4572 15.5284C97.9454 15.27 98.1896 14.7585 98.1896 13.9939V11.8722C98.1896 10.9945 98.0633 10.4501 97.8108 10.2391C97.5582 10.028 96.8305 9.87205 95.6275 9.7803V9.06924H102.019Z"/><path fill="#fff" d="M115.268 12.4573L116 12.5788C115.79 13.8862 115.505 15.1805 115.146 16.4553H103.263V15.7488C104.37 15.6662 105.045 15.5057 105.288 15.2602C105.531 15.0148 105.655 14.3909 105.655 13.3839V3.7502C105.655 2.67672 105.547 2.02301 105.336 1.78675C105.125 1.55049 104.54 1.39222 103.58 1.31194V0.605469H114.561C114.577 0.798144 114.613 1.33259 114.671 2.21109C114.728 3.0896 114.765 3.72496 114.781 4.14931L114.049 4.27088C113.909 3.52506 113.627 2.81318 113.218 2.17439C113.014 1.8969 112.715 1.70543 112.377 1.63766C111.773 1.51969 111.157 1.47045 110.541 1.49086H108.784C108.394 1.49086 108.158 1.53214 108.077 1.61242C107.997 1.69271 107.956 1.92208 107.956 2.30055V7.7849H110.15C111.225 7.7849 111.891 7.68856 112.152 7.49359C112.414 7.29862 112.612 6.78712 112.786 5.95678H113.523V10.6521H112.791C112.627 9.78964 112.411 9.26131 112.143 9.0671C111.875 8.8729 111.213 8.77503 110.155 8.7735H107.96V13.283C107.96 14.3534 108.155 15.0201 108.546 15.2832C108.852 15.4789 109.673 15.576 111.009 15.5745C111.669 15.5963 112.328 15.5394 112.974 15.4047C113.383 15.3042 113.752 15.0837 114.035 14.7717C114.577 14.0747 114.998 13.2915 115.279 12.455"/><path fill="#fff" d="M2.62403 30.8577H0.0275269V30.5802C0.414745 30.5481 0.653502 30.4861 0.743802 30.3944C0.831041 30.3026 0.876956 30.0572 0.876956 29.6558V25.8596C0.876956 25.4582 0.831041 25.2128 0.743802 25.1211C0.656563 25.0293 0.41551 24.9674 0.0275269 24.9353V24.6577H2.62403V24.9353C2.23681 24.9674 1.99805 25.0293 1.90775 25.1211C1.81822 25.2128 1.7746 25.4582 1.7746 25.8596V29.6558C1.7746 30.0572 1.81822 30.3026 1.90775 30.3944C1.99729 30.4861 2.23604 30.5481 2.62403 30.5802V30.8577Z"/><path fill="#fff" d="M9.91539 24.6577V24.9353C9.71029 24.9293 9.50734 24.9784 9.32768 25.0775C9.2638 25.1299 9.21176 25.1952 9.17496 25.2691C9.13816 25.343 9.11744 25.4239 9.11417 25.5064C9.07438 25.9009 9.05525 26.4361 9.05678 27.112V30.9518H8.73308L4.68566 25.9927H4.665V28.3392C4.665 29.0273 4.68566 29.5732 4.72239 29.9448C4.72342 30.0369 4.74448 30.1277 4.78412 30.2109C4.82377 30.2941 4.88104 30.3676 4.95197 30.4265C5.16577 30.5327 5.40194 30.5862 5.64069 30.5825V30.86H3.35871V30.5825C3.57232 30.5839 3.78267 30.5302 3.96938 30.4265C4.03756 30.3703 4.09321 30.3004 4.13275 30.2214C4.17229 30.1424 4.19484 30.056 4.19896 29.9677C4.24258 29.509 4.26553 28.97 4.26553 28.3461V26.2679C4.27246 26.0481 4.26248 25.828 4.23569 25.6096C4.20903 25.4932 4.15381 25.3852 4.07499 25.2954C3.96701 25.1816 3.83658 25.0915 3.69195 25.0307C3.54732 24.9699 3.39163 24.9397 3.23474 24.9421V24.6646H4.70402L8.62747 29.3393H8.65502V27.1166C8.66003 26.5883 8.6378 26.06 8.58844 25.5339C8.58633 25.4479 8.56454 25.3635 8.52475 25.2871C8.48496 25.2108 8.42822 25.1446 8.35887 25.0935C8.14031 24.9897 7.90064 24.9379 7.65866 24.9421V24.6646L9.91539 24.6577Z"/><path fill="#fff" d="M15.882 26.1372L15.5951 26.1647C15.5451 25.8544 15.4351 25.5568 15.2714 25.2885C15.1941 25.1771 15.0805 25.096 14.95 25.0591C14.7236 25.0117 14.4923 24.9925 14.2612 25.0017H13.6299V29.6649C13.6299 30.0526 13.6827 30.2957 13.7837 30.3944C13.8847 30.493 14.1579 30.5549 14.6056 30.5801V30.8577H11.7864V30.5801C12.2134 30.5549 12.4751 30.493 12.5739 30.3944C12.6726 30.2957 12.7231 30.0526 12.7231 29.6649V25.0017H12.179C11.9165 24.9912 11.6537 25.012 11.3961 25.0637C11.2619 25.0953 11.1452 25.1775 11.0701 25.2931C10.9212 25.5642 10.8151 25.8566 10.7556 26.1601H10.4595C10.5238 25.3963 10.5628 24.816 10.5743 24.4146H10.774C10.8233 24.4976 10.8948 24.5651 10.9806 24.6095C11.0831 24.6446 11.1915 24.6594 11.2997 24.6531H15.09C15.1858 24.6589 15.2817 24.6424 15.3701 24.6049C15.4519 24.5571 15.5223 24.4921 15.5767 24.4146H15.7856C15.7856 24.8091 15.8178 25.3817 15.882 26.1326"/><path fill="#fff" d="M21.1416 29.2934L21.4286 29.3415C21.3452 29.8528 21.2333 30.359 21.0934 30.8577H16.4445V30.5802C16.8784 30.5481 17.1332 30.4861 17.2365 30.3898C17.3398 30.2935 17.3811 30.0503 17.3811 29.6558V25.8895C17.3811 25.4697 17.3398 25.2013 17.2572 25.1211C17.1745 25.0408 16.9449 24.9674 16.5684 24.9353V24.6577H20.8638C20.8638 24.7334 20.8845 24.9421 20.9074 25.2839C20.9304 25.6257 20.9441 25.8757 20.951 26.0408L20.6641 26.089C20.6086 25.7971 20.498 25.5184 20.3381 25.2679C20.2587 25.1596 20.1416 25.0851 20.0098 25.0591C19.7725 25.0126 19.5306 24.9934 19.2889 25.0018H18.6002C18.5048 24.9883 18.4076 25.0052 18.3224 25.0499C18.2786 25.1313 18.2618 25.2245 18.2742 25.316V27.463H19.1351C19.5552 27.463 19.8238 27.424 19.9179 27.3483C20.0613 27.1787 20.148 26.9686 20.1659 26.7473H20.4506V28.5823H20.1659C20.1016 28.2459 20.0167 28.0395 19.9111 27.963C19.6659 27.8613 19.3993 27.8219 19.1351 27.8483H18.2742V29.6122C18.2742 30.032 18.3522 30.3003 18.5038 30.3944C18.6553 30.4884 18.9468 30.5091 19.468 30.5091C19.7261 30.5169 19.9842 30.4946 20.2371 30.4425C20.3974 30.4038 20.5423 30.3174 20.6526 30.1948C20.864 29.9219 21.0285 29.6157 21.1393 29.2888"/><path fill="#fff" d="M27.7465 30.6765L27.7075 30.9334C27.5605 30.9334 27.4526 30.9334 27.3838 30.9334C27.0527 30.9261 26.727 30.8479 26.4287 30.704C26.1584 30.5427 25.9296 30.3204 25.7607 30.0549C25.6275 29.8645 25.3176 29.3668 24.8424 28.5479C24.7721 28.4221 24.6699 28.3169 24.5462 28.2428C24.3897 28.1767 24.22 28.1476 24.0503 28.158H23.7588V29.6558C23.7588 30.0549 23.8024 30.3049 23.8919 30.399C23.9815 30.493 24.2179 30.5572 24.599 30.5894V30.8669H22.0392V30.5894C22.4272 30.5572 22.666 30.4953 22.7532 30.399C22.8405 30.3026 22.8887 30.0549 22.8887 29.6558V25.8413C22.8887 25.4468 22.8451 25.2059 22.7624 25.1165C22.6798 25.027 22.4525 24.9674 22.0737 24.9353V24.6577H24.4888C25.1959 24.6577 25.7148 24.7663 26.0453 24.9834C26.2523 25.1168 26.4203 25.3025 26.5324 25.5216C26.6445 25.7407 26.6966 25.9855 26.6836 26.2312C26.6836 26.9637 26.2795 27.5073 25.4714 27.8621C25.6887 28.2566 25.9688 28.7115 26.3117 29.2269C26.5386 29.5842 26.7943 29.9225 27.0761 30.2384C27.255 30.4422 27.4859 30.5937 27.7442 30.6765H27.7465ZM23.7588 27.8346H24.1789C24.54 27.8627 24.9 27.7681 25.2005 27.5662C25.371 27.4222 25.5054 27.2404 25.5931 27.0353C25.6808 26.8302 25.7193 26.6075 25.7056 26.3849C25.7221 26.1895 25.6961 25.9929 25.6296 25.8084C25.563 25.6239 25.4574 25.456 25.3199 25.316C25.0551 25.0841 24.7122 24.9612 24.3603 24.972C24.1861 24.954 24.0105 24.9875 23.8552 25.0683C23.7731 25.1884 23.7387 25.3348 23.7588 25.4789V27.8346Z"/><path fill="#fff" d="M34.5993 24.6577V24.9353C34.3942 24.9293 34.1913 24.9784 34.0116 25.0775C33.9477 25.1299 33.8957 25.1952 33.8589 25.2691C33.8221 25.343 33.8014 25.4239 33.7981 25.5064C33.7598 25.9009 33.7407 26.4361 33.7407 27.112V30.9518H33.417L29.3696 25.9927H29.3489V28.3392C29.3489 29.0273 29.3696 29.5732 29.4063 29.9448C29.4074 30.0369 29.4284 30.1277 29.4681 30.2109C29.5077 30.2941 29.565 30.3676 29.6359 30.4265C29.8497 30.5327 30.0859 30.5862 30.3246 30.5825V30.86H28.0518V30.5825C28.2654 30.5839 28.4758 30.5302 28.6625 30.4265C28.7307 30.3703 28.7863 30.3004 28.8259 30.2214C28.8654 30.1424 28.888 30.056 28.8921 29.9677C28.9357 29.509 28.9586 28.97 28.9586 28.3461V26.2679C28.9656 26.0481 28.9556 25.828 28.9288 25.6096C28.9021 25.4932 28.8469 25.3852 28.7681 25.2954C28.6601 25.1816 28.5297 25.0915 28.3851 25.0307C28.2404 24.9699 28.0848 24.9397 27.9279 24.9421V24.6646H29.3971L33.3206 29.3393H33.3481V27.1166C33.3531 26.5883 33.3309 26.06 33.2816 25.5339C33.2794 25.4479 33.2577 25.3635 33.2179 25.2871C33.1781 25.2108 33.1213 25.1446 33.052 25.0935C32.8334 24.9897 32.5938 24.9379 32.3518 24.9421V24.6646L34.5993 24.6577Z"/><path fill="#fff" d="M40.9563 30.8579H38.5412V30.5803C38.7353 30.5771 38.9252 30.5234 39.0921 30.4244C39.1587 30.3578 39.1564 30.2271 39.0921 30.0367C39.0095 29.7775 38.8442 29.3119 38.5963 28.6444H36.5921C36.4972 28.9136 36.3602 29.3081 36.1811 29.828C36.087 30.1193 36.0732 30.3097 36.1444 30.3945C36.2156 30.4794 36.4268 30.5436 36.7826 30.5803V30.8579H34.6935V30.5803C34.9277 30.5647 35.1531 30.4854 35.3455 30.351C35.5328 30.1278 35.6741 29.8698 35.761 29.5917L37.7377 24.6028L38.0728 24.5088C39.083 27.3117 39.6952 29.0061 39.9094 29.5917C39.9936 29.8723 40.1299 30.1345 40.3112 30.3647C40.5004 30.4991 40.7264 30.572 40.9586 30.5735L40.9563 30.8579ZM38.4516 28.2155L37.6389 25.8506H37.6114C37.2747 26.759 36.9854 27.5472 36.7436 28.2155H38.4516Z"/><path fill="#fff" d="M46.2365 26.1372L45.9496 26.1647C45.8985 25.8547 45.7887 25.5573 45.6259 25.2885C45.5486 25.1771 45.435 25.096 45.3045 25.0591C45.0744 25.0109 44.8391 24.9917 44.6043 25.0017H43.9729V29.6649C43.9729 30.0526 44.0234 30.2957 44.1267 30.3944C44.2301 30.493 44.501 30.5549 44.9463 30.5801V30.8577H42.1409V30.5801C42.5679 30.5549 42.8296 30.493 42.9284 30.3944C43.0271 30.2957 43.0753 30.0526 43.0753 29.6649V25.0017H42.5312C42.2687 24.9915 42.0059 25.0123 41.7483 25.0637C41.6151 25.0961 41.4993 25.1781 41.4246 25.2931C41.2757 25.5642 41.1696 25.8566 41.1101 26.1601H40.814C40.8782 25.3963 40.915 24.816 40.9288 24.4146H41.1285C41.1772 24.498 41.2489 24.5657 41.3351 24.6095C41.4376 24.6446 41.546 24.6594 41.6542 24.6531H45.4445C45.5403 24.6589 45.6362 24.6424 45.7246 24.6049C45.8058 24.5563 45.8762 24.4915 45.9312 24.4146H46.1401C46.1401 24.8091 46.1723 25.3817 46.2365 26.1326"/><path fill="#fff" d="M49.4713 30.8577H46.884V30.5802C47.2712 30.5481 47.5099 30.4861 47.6002 30.3944C47.6898 30.3026 47.7334 30.0572 47.7334 29.6558V25.8596C47.7334 25.4582 47.6898 25.2128 47.6002 25.1211C47.5107 25.0293 47.272 24.9674 46.884 24.9353V24.6577H49.4713V24.9353C49.0825 24.9674 48.8438 25.0293 48.755 25.1211C48.6678 25.2128 48.6219 25.4582 48.6219 25.8596V29.6558C48.6219 30.0572 48.6678 30.3026 48.755 30.3944C48.8423 30.4861 49.0833 30.5481 49.4713 30.5802V30.8577Z"/><path fill="#fff" d="M53.4521 24.5157C53.8655 24.5127 54.2752 24.5931 54.6567 24.7521C55.0383 24.9111 55.3837 25.1454 55.6725 25.4409C55.9612 25.7365 56.1873 26.0872 56.3371 26.4722C56.487 26.8571 56.5575 27.2683 56.5445 27.6811C56.5445 28.6857 56.2384 29.4901 55.6262 30.0941C55.3276 30.3931 54.9715 30.6286 54.5793 30.7863C54.187 30.944 53.7669 31.0206 53.3442 31.0116C52.9295 31.0203 52.5174 30.9433 52.1338 30.7854C51.7502 30.6275 51.4034 30.3922 51.1151 30.0941C50.8182 29.7957 50.5851 29.4402 50.43 29.049C50.2749 28.6579 50.201 28.2393 50.2128 27.8187C50.1991 26.9596 50.5173 26.1282 51.1013 25.4974C51.3995 25.173 51.7649 24.9175 52.1722 24.7487C52.5794 24.58 53.0186 24.502 53.459 24.5203L53.4521 24.5157ZM53.2478 24.8735C52.9758 24.875 52.708 24.9404 52.466 25.0643C52.2239 25.1882 52.0144 25.3672 51.8543 25.5869C51.4732 26.064 51.2827 26.7338 51.2827 27.571C51.2528 28.3545 51.4748 29.127 51.9163 29.7753C52.0927 30.0456 52.3341 30.2674 52.6185 30.4204C52.9028 30.5735 53.221 30.6529 53.544 30.6515C53.813 30.6518 54.0783 30.5881 54.3179 30.4657C54.5574 30.3432 54.7643 30.1655 54.9214 29.9473C55.2933 29.4748 55.4793 28.8073 55.4793 27.9449C55.4793 26.9769 55.2696 26.223 54.8503 25.6832C54.6671 25.4293 54.4255 25.2231 54.1458 25.0822C53.866 24.9413 53.5565 24.8697 53.2432 24.8735"/><path fill="#fff" d="M63.7899 24.6577V24.9353C63.5848 24.9293 63.3819 24.9784 63.2022 25.0775C63.1383 25.1299 63.0863 25.1952 63.0495 25.2691C63.0127 25.343 62.992 25.4239 62.9887 25.5064C62.9504 25.9009 62.9313 26.4361 62.9313 27.112V30.9518H62.6053L58.5579 25.9927H58.5395V28.3392C58.5395 29.038 58.5587 29.5732 58.5969 29.9448C58.5975 30.037 58.6183 30.128 58.658 30.2112C58.6977 30.2944 58.7552 30.3679 58.8265 30.4265C59.0402 30.5331 59.2764 30.5866 59.5152 30.5825V30.86H57.2355V30.5825C57.4491 30.5835 57.6594 30.5298 57.8462 30.4265C57.9124 30.3693 57.966 30.299 58.0035 30.22C58.0411 30.141 58.0618 30.0551 58.0643 29.9677C58.1102 29.509 58.1309 28.97 58.1309 28.3461V26.2679C58.1369 26.0481 58.1277 25.8282 58.1033 25.6096C58.0768 25.4927 58.0207 25.3845 57.9403 25.2954C57.8327 25.1812 57.7023 25.0907 57.5576 25.0299C57.4129 24.9691 57.2571 24.9392 57.1001 24.9421V24.6646H58.5717L62.4951 29.3393H62.5227V27.1166C62.5227 26.4927 62.5005 25.9652 62.4561 25.5339C62.454 25.4479 62.4322 25.3635 62.3924 25.2871C62.3526 25.2108 62.2959 25.1446 62.2265 25.0935C62.0071 24.9897 61.7667 24.9379 61.524 24.9421V24.6646L63.7899 24.6577Z"/><path fill="#fff" d="M70.1468 30.8578H67.7317V30.5803C67.9251 30.5772 68.1143 30.5234 68.2804 30.4243C68.3469 30.3578 68.3469 30.2271 68.2804 30.0367C68.1977 29.7775 68.0324 29.3119 67.7845 28.6444H65.7711C65.6747 28.9135 65.5377 29.308 65.3602 29.8279C65.2638 30.1193 65.2523 30.3096 65.3212 30.3945C65.39 30.4794 65.6058 30.5436 65.9617 30.5803V30.8578H63.8702V30.5803C64.1052 30.565 64.3315 30.4857 64.5245 30.3509C64.711 30.1272 64.8522 29.8693 64.9401 29.5917L66.919 24.6097L67.2519 24.5156C68.2651 27.3186 68.8773 29.0129 69.0885 29.5986C69.1711 29.8793 69.3066 30.1417 69.4879 30.3716C69.6783 30.5053 69.9049 30.5781 70.1376 30.5803L70.1468 30.8578ZM67.6353 28.2154L66.8249 25.8506H66.7973C66.4591 26.7589 66.169 27.5472 65.9272 28.2154H67.6353Z"/><path fill="#fff" d="M75.1378 29.275L75.4248 29.3324C75.3399 29.8471 75.2249 30.3564 75.0804 30.8577H70.7001V30.5802C71.1065 30.5481 71.3567 30.4861 71.4486 30.3898C71.5404 30.2935 71.5886 30.0457 71.5886 29.6466V25.8596C71.5915 25.6973 71.5846 25.5349 71.5679 25.3734C71.5586 25.2775 71.5183 25.1873 71.4531 25.1165C71.3936 25.0478 71.3128 25.001 71.2236 24.9834C71.0718 24.9567 70.9184 24.9406 70.7644 24.9353V24.6577H73.3242V24.9353C73.1335 24.9392 72.9442 24.9693 72.7617 25.0247C72.7117 25.0452 72.6666 25.0764 72.6298 25.116C72.5929 25.1556 72.5651 25.2027 72.5482 25.2541C72.4949 25.4497 72.4732 25.6526 72.4839 25.8551V29.6122C72.4768 29.7962 72.493 29.9804 72.5322 30.1604C72.5436 30.2084 72.5648 30.2535 72.5944 30.293C72.624 30.3324 72.6614 30.3654 72.7043 30.3898C72.9864 30.4881 73.2857 30.5271 73.5836 30.5045C74.1116 30.5045 74.4606 30.4058 74.6328 30.2086C74.8634 29.9319 75.0353 29.6111 75.1378 29.2659"/><path fill="#fff" d="M81.7634 26.0706L81.4672 26.1165C81.3882 25.7846 81.2421 25.4724 81.0379 25.199C80.9363 25.08 80.8082 24.9865 80.6639 24.9259C80.5195 24.8654 80.363 24.8395 80.2068 24.8504C80.0652 24.8418 79.9234 24.8642 79.7913 24.9161C79.6593 24.968 79.5401 25.0481 79.4423 25.1509C79.2661 25.3607 79.1709 25.6266 79.1738 25.9004C79.1768 26.1743 79.2777 26.4381 79.4584 26.6441C79.7285 26.8994 80.0387 27.1086 80.3767 27.2634C80.6384 27.3964 80.8359 27.5088 80.9874 27.5983C81.1631 27.708 81.3304 27.8307 81.4879 27.9653C81.6664 28.1084 81.8087 28.2915 81.9034 28.4997C81.995 28.7118 82.0404 28.9409 82.0366 29.1718C82.0406 29.4202 81.9889 29.6664 81.8852 29.8923C81.7815 30.1182 81.6285 30.3179 81.4374 30.4769C81.002 30.8394 80.447 31.0267 79.8808 31.0022C79.5632 31.0029 79.2473 30.955 78.9442 30.86C78.8294 30.821 78.6641 30.7545 78.4483 30.6581C78.321 30.1646 78.235 29.6613 78.1912 29.1534L78.4781 29.0755C78.5217 29.2485 78.5825 29.4168 78.6595 29.5778C78.7444 29.7532 78.845 29.9206 78.9602 30.0778C79.0841 30.2496 79.2449 30.3915 79.4309 30.493C79.6249 30.597 79.842 30.6507 80.0622 30.649C80.2107 30.6573 80.3593 30.6349 80.4988 30.5832C80.6382 30.5314 80.7655 30.4516 80.8726 30.3485C80.9743 30.2397 81.053 30.1115 81.1038 29.9715C81.1547 29.8316 81.1768 29.6829 81.1688 29.5342C81.1739 29.3928 81.1503 29.2518 81.0994 29.1197C81.0485 28.9877 80.9713 28.8673 80.8726 28.7658C80.5982 28.5123 80.2889 28.2991 79.9543 28.1327C79.7638 28.0295 79.6168 27.9515 79.5158 27.9034C79.3747 27.8194 79.239 27.7267 79.1095 27.6258C78.9629 27.5232 78.8308 27.4013 78.7169 27.2634C78.6171 27.1289 78.536 26.9816 78.4758 26.8253C78.4017 26.6432 78.3642 26.4484 78.3656 26.2518C78.3613 26.0193 78.4083 25.7886 78.5031 25.5761C78.5979 25.3637 78.7383 25.1746 78.9143 25.0224C79.3186 24.678 79.8392 24.5008 80.3698 24.527C80.7849 24.544 81.1958 24.6174 81.5912 24.7449C81.605 24.8664 81.6302 25.0752 81.6715 25.3711C81.7129 25.6669 81.745 25.9032 81.7634 26.0821"/><path fill="#fff" d="M88.32 29.1693L88.5978 29.2749C88.4632 29.782 88.2842 30.2763 88.0629 30.752C87.4839 30.8919 86.8926 30.9749 86.2975 30.9998C85.7687 31.0089 85.2432 30.9154 84.7501 30.7245C84.3413 30.5639 83.9746 30.312 83.678 29.9882C83.4143 29.6937 83.2073 29.3531 83.0673 28.9835C82.9309 28.6166 82.8617 28.2281 82.863 27.8367C82.847 27.3842 82.931 26.9337 83.1092 26.5174C83.2874 26.1011 83.5553 25.7292 83.8938 25.4282C84.581 24.8166 85.4687 24.5107 86.5569 24.5107C86.7448 24.5117 86.9325 24.5224 87.1193 24.5429C87.3168 24.5658 87.4729 24.591 87.5785 24.6163L87.9894 24.7103C88.1478 24.7493 88.2328 24.7676 88.2466 24.7676C88.3353 25.3915 88.3988 25.8778 88.4371 26.2265L88.1409 26.293C88.0596 25.8668 87.8343 25.4813 87.5027 25.2012C87.1524 24.9614 86.7331 24.843 86.3089 24.864C85.9724 24.8498 85.6373 24.9163 85.3318 25.058C85.0263 25.1996 84.7591 25.4123 84.5527 25.6783C84.1188 26.2419 83.8926 26.9378 83.9122 27.6486C83.8763 28.4258 84.1207 29.19 84.6009 29.8024C84.8102 30.0674 85.0781 30.2803 85.3837 30.4243C85.6892 30.5684 86.024 30.6397 86.3617 30.6328C86.7657 30.6488 87.1623 30.5221 87.4821 30.2749C87.8336 29.9658 88.118 29.588 88.3177 29.1648"/><path fill="#fff" d="M95.8455 24.6577V24.9353C95.4507 24.9674 95.2096 25.0293 95.1247 25.1211C95.0397 25.2128 94.9961 25.4559 94.9961 25.8505V29.665C94.9961 30.0595 95.0374 30.3026 95.1247 30.3944C95.2119 30.4861 95.4484 30.5481 95.8364 30.5802V30.8577H93.2192V30.5802C93.6278 30.5481 93.8758 30.4861 93.9653 30.3944C94.0548 30.3026 94.0985 30.0595 94.0985 29.665V27.7864H90.9739V29.665C90.9739 30.0595 91.0176 30.3026 91.1025 30.3944C91.1875 30.4861 91.4262 30.5481 91.8142 30.5802V30.8577H89.2475V30.5802C89.6286 30.5481 89.8628 30.4861 89.9363 30.3944C90.0097 30.3026 90.0648 30.0595 90.0648 29.665V25.8505C90.0648 25.4559 90.0235 25.2128 89.9363 25.1211C89.849 25.0293 89.6103 24.9674 89.2154 24.9353V24.6577H91.7545V24.9353C91.3918 24.9674 91.1691 25.0293 91.0864 25.1211C91.0038 25.2128 90.9625 25.4559 90.9625 25.8505V27.3666H94.0939V25.8505C94.0939 25.4559 94.0526 25.2128 93.9699 25.1211C93.8873 25.0293 93.6577 24.9674 93.2812 24.9353V24.6577H95.8455Z"/><path fill="#fff" d="M99.8126 24.5158C100.226 24.5128 100.636 24.5932 101.017 24.7522C101.399 24.9112 101.744 25.1455 102.033 25.441C102.322 25.7366 102.548 26.0873 102.698 26.4723C102.847 26.8572 102.918 27.2684 102.905 27.6812C102.905 28.6858 102.599 29.4902 101.987 30.0942C101.688 30.3932 101.332 30.6287 100.94 30.7864C100.547 30.9441 100.127 31.0207 99.7047 31.0117C99.2902 31.0205 98.8784 30.9435 98.4952 30.7856C98.112 30.6277 97.7656 30.3923 97.4778 30.0942C97.1809 29.7958 96.9478 29.4403 96.7927 29.0491C96.6376 28.6579 96.5637 28.2394 96.5756 27.8188C96.5582 26.9598 96.8722 26.127 97.4526 25.4929C97.7508 25.1685 98.1162 24.913 98.5234 24.7442C98.9307 24.5755 99.3698 24.4975 99.8103 24.5158H99.8126ZM99.6014 24.869C99.3293 24.87 99.0613 24.9351 98.8191 25.059C98.577 25.183 98.3676 25.3623 98.2079 25.5824C97.8268 26.0595 97.6339 26.7293 97.6339 27.5665C97.6035 28.3504 97.8265 29.1233 98.2698 29.7708C98.4458 30.0415 98.6871 30.2636 98.9716 30.4168C99.256 30.5699 99.5744 30.6491 99.8975 30.647C100.167 30.6468 100.432 30.5828 100.671 30.4604C100.91 30.338 101.117 30.1606 101.275 29.9428C101.647 29.4703 101.833 28.8028 101.833 27.9404C101.833 26.9724 101.622 26.2185 101.202 25.6787C101.019 25.4245 100.777 25.2182 100.497 25.0772C100.217 24.9362 99.9078 24.8648 99.5945 24.869"/><path fill="#fff" d="M107.2 24.5155C107.605 24.5096 108.006 24.5849 108.381 24.737C108.755 24.8891 109.096 25.1148 109.381 25.4008C109.684 25.6963 109.923 26.0516 110.081 26.4442C110.239 26.8367 110.313 27.2579 110.3 27.6808C110.3 28.6855 109.994 29.4898 109.381 30.0938C109.083 30.3927 108.727 30.6281 108.335 30.7858C107.944 30.9434 107.524 31.0202 107.102 31.0113C106.687 31.0203 106.275 30.9434 105.891 30.7855C105.507 30.6276 105.161 30.3921 104.872 30.0938C104.576 29.7955 104.342 29.4399 104.187 29.0488C104.032 28.6576 103.958 28.239 103.97 27.8184C103.956 26.9593 104.275 26.1279 104.859 25.4972C105.156 25.1728 105.521 24.9173 105.928 24.7485C106.335 24.5798 106.774 24.5018 107.214 24.52L107.2 24.5155ZM107.005 24.8733C106.733 24.8744 106.465 24.9396 106.223 25.0635C105.981 25.1875 105.772 25.3667 105.612 25.5866C105.231 26.0637 105.04 26.7335 105.04 27.5707C105.01 28.3542 105.232 29.1267 105.674 29.775C105.85 30.0457 106.091 30.2679 106.375 30.421C106.66 30.5741 106.978 30.6533 107.301 30.6512C107.57 30.6514 107.836 30.5876 108.075 30.4652C108.315 30.3427 108.522 30.1651 108.679 29.947C109.051 29.4745 109.237 28.8071 109.237 27.9446C109.237 26.9766 109.027 26.2228 108.608 25.683C108.424 25.4292 108.183 25.2231 107.903 25.0822C107.623 24.9413 107.314 24.8696 107.001 24.8733"/><path fill="#fff" d="M115.428 29.275L115.715 29.3324C115.63 29.8468 115.516 30.3561 115.373 30.8577H110.998V30.5802C111.404 30.5481 111.654 30.4861 111.748 30.3898C111.842 30.2935 111.886 30.0457 111.886 29.6466V25.8596C111.889 25.6973 111.882 25.5349 111.865 25.3734C111.856 25.2781 111.816 25.1883 111.753 25.1165C111.693 25.0486 111.612 25.002 111.523 24.9834C111.372 24.9565 111.218 24.9404 111.064 24.9353V24.6577H113.633V24.9353C113.442 24.9392 113.252 24.9693 113.068 25.0247C113.018 25.0452 112.973 25.0764 112.936 25.116C112.9 25.1556 112.872 25.2027 112.855 25.2541C112.804 25.4501 112.783 25.6527 112.793 25.8551V29.6122C112.786 29.7961 112.802 29.9801 112.839 30.1604C112.85 30.2084 112.871 30.2535 112.901 30.293C112.931 30.3324 112.968 30.3654 113.011 30.3898C113.293 30.4881 113.592 30.5271 113.89 30.5045C114.418 30.5045 114.767 30.4058 114.939 30.2086C115.171 29.9324 115.343 29.6115 115.444 29.2659"/></g><defs><clipPath id="clip0"><rect width="116" height="31" fill="#fff"/></clipPath></defs></svg>