<svg xmlns="http://www.w3.org/2000/svg" width="36" height="36" fill="none" viewBox="0 0 36 36"><g clip-path="url(#clip0)"><path fill="#041E42" d="M34.892 12.4162C31.9756 3.10055 22.0266 -2.10545 12.7091 0.809699C3.3928 3.72605 -1.81383 13.6774 1.10195 22.9931L2.24678 22.6345C-0.471708 13.9503 4.3823 4.67294 13.0677 1.95389C17.2752 0.637575 21.7436 1.03814 25.6482 3.08135C29.5546 5.12575 32.4308 8.56797 33.7478 12.7749C35.0641 16.9818 34.6641 21.4495 32.6203 25.3554C30.5771 29.2618 27.1349 32.138 22.9274 33.455C15.8851 35.6588 8.16581 32.8757 4.15084 26.6856L3.14453 27.3381C6.46327 32.4559 12.1436 35.4028 18.032 35.4022C19.7832 35.4022 21.5541 35.1419 23.2854 34.5986C27.7981 33.1863 31.4905 30.1009 33.683 25.9114C35.8755 21.7218 36.3043 16.929 34.892 12.4162Z"/><path fill="#041E42" d="M14.521 8.39592L14.8652 7.24687L8.8682 5.44779C8.65832 5.38423 8.42861 5.44182 8.27209 5.59833L7.07271 6.79772C6.933 6.93743 6.87119 7.13712 6.90719 7.33146C6.94319 7.52573 7.07271 7.68949 7.2532 7.76986L12.6505 10.1686L13.1375 9.0724L8.53844 7.02799L8.86708 6.69935L14.521 8.39592Z"/><path fill="#041E42" d="M20.092 4.82345C20.092 4.49242 19.8239 4.22375 19.4923 4.22375C19.4917 4.22375 19.4917 4.22375 19.4911 4.22375C18.1718 4.22375 16.931 4.73767 15.9979 5.67085L10.9125 10.7557L8.84288 10.2381C8.63841 10.1872 8.42248 10.2465 8.27314 10.3958L7.07375 11.5952C6.94304 11.7259 6.87948 11.9095 6.90226 12.0924C6.92504 12.2753 7.03058 12.4384 7.18892 12.5332L10.0591 14.2555L11.7814 17.1257C11.8762 17.284 12.0386 17.3895 12.2222 17.4123C12.2461 17.4153 12.2707 17.4165 12.2954 17.4165C12.4531 17.4165 12.606 17.3542 12.72 17.2415L13.9194 16.0421C14.0681 15.8927 14.128 15.6769 14.0771 15.4723L13.5601 13.4051L18.7265 8.28971C19.6081 7.36672 20.0932 6.15418 20.092 4.82345ZM12.4728 12.7922C12.3223 12.9409 12.2617 13.1581 12.3127 13.3637L12.8303 15.4333L12.4141 15.8495L11.0102 13.5095C10.9592 13.4249 10.889 13.3542 10.8045 13.3038L8.46453 11.8999L8.88071 11.4837L10.9503 12.0013C11.1548 12.0523 11.3707 11.9929 11.52 11.8436L16.8453 6.51826C17.3971 5.96595 18.0915 5.60792 18.8447 5.47778C18.726 6.21901 18.3883 6.90624 17.8702 7.44898L12.4728 12.7922Z"/><path fill="#041E42" d="M18.8666 15.5251L17.0675 9.4502L15.9173 9.79086L17.6078 15.4988L17.2438 15.8203L15.2444 11.1822L14.1428 11.6572L16.4696 17.0545C16.5458 17.2308 16.7017 17.3603 16.8894 17.4023C16.9332 17.4119 16.9769 17.4167 17.0207 17.4167C17.1653 17.4167 17.3068 17.3646 17.4171 17.2668L18.6885 16.1454C18.8636 15.9911 18.9326 15.7494 18.8666 15.5251Z"/><path fill="#041E42" d="M11.7146 33.067C7.44354 35.0909 4.09301 35.3524 2.5242 33.7842C-0.194846 31.0652 2.75806 23.1654 9.39253 15.4077L8.481 14.6281C1.2043 23.1366 -1.59448 31.3626 1.67567 34.6322C2.58903 35.5449 3.87898 36.0001 5.47894 36.0001C7.34398 36.0001 9.63004 35.3819 12.2279 34.1506L11.7146 33.067Z"/><path fill="#041E42" d="M32.0151 20.7316C31.9108 20.5367 31.7075 20.415 31.4862 20.415H29.458L27.8244 17.1484C27.7225 16.9452 27.515 16.8168 27.2877 16.8168H21.2907C20.959 16.8168 20.691 17.0854 20.691 17.4165V22.2141C20.691 22.5458 20.9591 22.8138 21.2907 22.8138H23.0898V29.4105C23.0898 29.7422 23.3578 30.0102 23.6894 30.0102H26.6879C26.8468 30.0102 26.9992 29.9472 27.1125 29.8338L29.5113 27.4351C29.624 27.3229 29.687 27.1706 29.687 27.0111V24.794L31.985 21.3469C32.1074 21.1634 32.1195 20.9265 32.0151 20.7316ZM28.5878 24.2801C28.5224 24.3784 28.4871 24.4947 28.4871 24.6129V26.7634L26.4397 28.8108H24.2892H24.2886V22.2141C24.2886 21.8824 24.0205 21.6144 23.6889 21.6144H21.8898V18.0162H26.9165L28.5501 21.2828C28.652 21.4861 28.8595 21.6145 29.0868 21.6145H30.3653L28.5878 24.2801Z"/><path fill="#041E42" d="M32.4326 15.6174L30.2065 11.7218C30.0998 11.5347 29.9007 11.4195 29.686 11.4195H26.0878C25.8875 11.4195 25.7004 11.5196 25.5889 11.6863L24.5676 13.2186H23.0894V10.2201H26.0878C26.2474 10.2201 26.3991 10.1571 26.5118 10.0444L28.7349 7.82134H31.4851V6.62195H28.4866C28.3271 6.62195 28.1753 6.68495 28.0626 6.79766L25.8396 9.02072H22.4897C22.158 9.02072 21.89 9.28939 21.89 9.62042V13.8183C21.89 14.1493 22.1581 14.418 22.4897 14.418H24.8885C25.0888 14.418 25.2759 14.3178 25.3874 14.1511L26.4087 12.6189H29.3382L31.5643 16.5145C31.6711 16.7016 31.8702 16.8168 32.0849 16.8168H34.4836V15.6174H32.4326Z"/><path fill="#041E42" d="M17.6926 21.6144H14.3427L12.7193 19.991C12.6072 19.8782 12.4543 19.8153 12.2953 19.8153H9.29687C8.96584 19.8153 8.69717 20.0834 8.69717 20.415V24.6129C8.69717 24.9445 8.96584 25.2126 9.29687 25.2126H11.6957V31.2096C11.6957 31.4369 11.824 31.6444 12.0273 31.7463C12.1119 31.7882 12.2042 31.8093 12.2954 31.8093C12.4225 31.8093 12.5491 31.7691 12.6552 31.6893L15.054 29.8902C15.2051 29.7769 15.2939 29.5988 15.2939 29.4105V27.8993L18.0675 25.681C18.2096 25.5671 18.2924 25.3949 18.2924 25.2126V22.2142C18.2923 21.8825 18.0236 21.6144 17.6926 21.6144ZM17.0929 24.9248L14.3193 27.1431C14.1772 27.257 14.0944 27.4291 14.0944 27.6114V29.1107L12.895 30.0103V24.6129C12.895 24.2813 12.6264 24.0132 12.2953 24.0132H9.89656V21.0148H12.0471L13.6704 22.6381C13.7826 22.7508 13.9355 22.8138 14.0944 22.8138H17.0929V24.9248Z"/><path fill="#041E42" d="M5.61275 12.9098L3.81367 9.91137C3.70574 9.73087 3.5102 9.62048 3.29976 9.62048H2.70006V10.8199H2.96036L4.3439 13.1257L2.87584 14.5937C2.76306 14.7059 2.70013 14.8588 2.70013 15.0177V16.8168H0.900909V18.0162H3.29969C3.63072 18.0162 3.89938 17.7475 3.89938 17.4165V15.266L5.52275 13.6426C5.7171 13.4477 5.75429 13.1461 5.61275 12.9098Z"/><path fill="#041E42" d="M18.8926 0.625V1.3566L16.9477 1.84295C16.8812 1.85976 16.8176 1.88795 16.7606 1.92571L15.2512 2.93202L11.9642 1.28826L11.4275 2.36108L15.0257 4.16017C15.1103 4.20214 15.202 4.22317 15.2938 4.22317C15.4101 4.22317 15.5259 4.18899 15.626 4.12241L17.3387 2.9806L19.6374 2.40608C19.9042 2.3395 20.092 2.09966 20.092 1.82439V0.625H18.8926Z"/></g><defs><clipPath id="clip0"><rect width="36" height="36" fill="#fff"/></clipPath></defs></svg>