<svg xmlns="http://www.w3.org/2000/svg" width="36" height="36" fill="none" viewBox="0 0 36 36"><g clip-path="url(#clip0)"><path fill="#041E42" d="M34.1255 30.7565H33.1988C32.5559 29.2289 32.5556 27.7384 33.1981 26.2184H34.1255C35.1591 26.2184 36 25.3776 36 24.3439C36 23.3103 35.1591 22.4694 34.1255 22.4694H30.3963C30.871 21.9271 31.1595 21.2182 31.1595 20.4425V14.5693C31.1595 12.8702 29.7773 11.4878 28.0782 11.4878H26.5617C26.6904 11.2313 26.7633 10.9421 26.7633 10.6361C26.7633 9.58377 25.9081 8.72757 24.8569 8.72757H24.3353C23.8698 7.57677 23.8695 6.45275 24.3345 5.30933H24.8569C25.9081 5.30933 26.7633 4.45313 26.7633 3.40077C26.7633 2.3496 25.9081 1.49438 24.8569 1.49438H7.06767C4.02117 1.49438 1.54266 3.97199 1.54266 7.01736C1.54266 8.49013 2.11823 9.87676 3.16322 10.9218C3.37099 11.1296 3.59276 11.318 3.82549 11.4878H3.41712C2.38352 11.4878 1.54266 12.3286 1.54266 13.3623C1.54266 14.396 2.38352 15.2368 3.41712 15.2368H4.34454C4.98705 16.7566 4.98684 18.2473 4.34384 19.7749H3.41712C2.38352 19.7749 1.54266 20.6157 1.54266 21.6494C1.54266 22.0448 1.66605 22.4118 1.87587 22.7145C0.774211 23.1845 0 24.2789 0 25.5509V31.4242C0 33.1233 1.38136 34.5056 3.07927 34.5056H34.1255C35.1591 34.5056 35.9999 33.6647 35.9999 32.6311C36 31.5975 35.1591 30.7565 34.1255 30.7565ZM34.1255 23.5241C34.5776 23.5241 34.9453 23.8919 34.9453 24.3439C34.9453 24.7959 34.5776 25.1637 34.1255 25.1637H24.6082C24.3169 25.1637 24.0809 25.3999 24.0809 25.6911C24.0809 25.9823 24.3169 26.2184 24.6082 26.2184H32.0669C31.8608 26.7973 31.7348 27.3783 31.6872 27.9601C31.6872 27.9601 31.4765 29.0039 32.068 30.7565H3.90164C3.81895 30.7565 3.74906 30.6867 3.74906 30.6039V26.3711C3.74906 26.2884 3.81895 26.2185 3.90164 26.2185H9.12593L9.12628 27.9504C9.09302 28.4689 9.34622 28.6733 9.50168 28.7492C9.65925 28.8263 9.98297 28.9009 10.3813 28.5368C10.384 28.5342 10.3868 28.5317 10.3894 28.5292L11.8635 27.1233L13.3375 28.5292C13.3402 28.5318 13.3429 28.5343 13.3457 28.5368C13.5788 28.7499 13.7864 28.8128 13.9503 28.8128C14.0674 28.8128 14.1621 28.7807 14.2279 28.7483C14.3836 28.6716 14.6365 28.4663 14.6007 27.949L14.6014 26.2185H22.0117C22.3031 26.2185 22.5391 25.9824 22.5391 25.6912C22.5391 25.3999 22.3031 25.1638 22.0117 25.1638H14.6017L14.6024 23.5241H34.1255V23.5241ZM5.85577 16.9787C5.80823 16.3968 5.67977 15.8158 5.47383 15.237H27.258C27.3408 15.237 27.4107 15.3069 27.4107 15.3895V19.6224C27.4107 19.705 27.3408 19.7749 27.258 19.7749H14.604L14.6047 18.0332H18.2953C18.5866 18.0332 18.8227 17.7971 18.8227 17.5059C18.8227 17.2146 18.5866 16.9785 18.2953 16.9785H5.85577V16.9787ZM9.12459 19.775H5.47263C5.67844 19.1953 5.80711 18.6144 5.8552 18.0333H9.12424L9.12459 19.775ZM13.55 18.0334L13.5462 27.2707L12.2273 26.0128C12.0236 25.8185 11.7032 25.8185 11.4994 26.0128L10.1808 27.2706L10.1789 18.0333H13.55V18.0334ZM2.59734 7.01743C2.59734 4.55361 4.60273 2.54914 7.06767 2.54914H24.8569C25.3266 2.54914 25.7086 2.93122 25.7086 3.40084C25.7086 3.87165 25.3265 4.25471 24.8569 4.25471H15.1357C14.8444 4.25471 14.6083 4.49082 14.6083 4.78206C14.6083 5.07329 14.8444 5.3094 15.1357 5.3094H23.2109C22.8386 6.44382 22.8391 7.5883 23.2123 8.72764H7.06767C6.61416 8.72764 6.18476 8.54898 5.86062 8.22645C5.5362 7.90035 5.35753 7.47102 5.35753 7.01743C5.35753 6.0756 6.12471 5.3094 7.06767 5.3094H12.5392C12.8304 5.3094 13.0665 5.07329 13.0665 4.78206C13.0665 4.49082 12.8304 4.25471 12.5392 4.25471H7.06767C5.54316 4.25471 4.30284 5.49404 4.30284 7.01743C4.30284 7.7517 4.59056 8.44527 5.11481 8.97219C5.63991 9.49461 6.3334 9.78233 7.06767 9.78233H24.8569C25.3266 9.78233 25.7086 10.1654 25.7086 10.6362C25.7086 11.1058 25.3265 11.4879 24.8569 11.4879H7.06767C5.87665 11.4879 4.75488 11.0221 3.90902 10.1762C3.06316 9.33029 2.59734 8.20852 2.59734 7.01743ZM3.41712 14.1823C2.96508 14.1823 2.59734 13.8145 2.59734 13.3624C2.59734 12.9104 2.96508 12.5426 3.41712 12.5426H28.0782C29.1957 12.5426 30.1049 13.4518 30.1049 14.5694V20.4426C30.1049 21.5602 29.1957 22.4694 28.0782 22.4694H14.6029L14.6036 20.8298H27.258C27.9237 20.8298 28.4653 20.2881 28.4653 19.6225V15.3897C28.4653 14.724 27.9237 14.1824 27.258 14.1824H3.41712V14.1823ZM3.41712 20.8297H9.1248L9.12516 22.4694H3.41719C2.96515 22.4694 2.59741 22.1016 2.59741 21.6495C2.59734 21.1975 2.96508 20.8297 3.41712 20.8297ZM34.1255 33.4509H3.07927C1.96291 33.4509 1.05469 32.5417 1.05469 31.4242V25.5509C1.05469 24.4333 1.96291 23.5241 3.07927 23.5241H9.1253L9.12565 25.1637H3.90164C3.23592 25.1637 2.69438 25.7054 2.69438 26.371V30.6038C2.69438 31.2695 3.23599 31.8112 3.90164 31.8112H34.1255C34.5776 31.8112 34.9453 32.179 34.9453 32.631C34.9453 33.083 34.5776 33.4509 34.1255 33.4509Z"/></g><defs><clipPath id="clip0"><rect width="36" height="36" fill="#fff"/></clipPath></defs></svg>