<svg width="36" height="36" viewBox="0 0 36 36" fill="none" xmlns="http://www.w3.org/2000/svg">
<path d="M23.0625 28.6875H24.1875V33.1875H23.0625V28.6875Z" fill="#041E42"/>
<path d="M25.3125 28.6875H26.4375V33.1875H25.3125V28.6875Z" fill="#041E42"/>
<path d="M30.9375 20.2444V8.4375H29.8125V2.71069L28.6875 2.898V1.6875H27.5625V3.08588L26.4375 3.27319V0.5625H25.3125V3.46106L24.1875 3.64838V1.6875H23.0625V3.83569L21.9375 4.023V8.4375H20.8125V14.0625H16.3125V6.1875H14.0625V2.8125H12.9375V0.5625H7.3125V2.8125H6.1875V6.1875H3.9375V16.6978C2.772 17.2541 1.92319 18.3639 1.7325 19.6875H0.5625V35.4375H35.4375V19.6014L30.9375 20.2444ZM23.0625 4.97644L28.6875 4.03875V8.4375H23.0625V4.97644ZM21.9375 9.5625H29.8125V20.4053L26.4375 20.8873V23.8129L24.75 21.5629L23.0625 23.8129V14.0625H21.9375V9.5625ZM21.9375 16.3125H14.0625V15.1875H21.9375V16.3125ZM21.9375 27.5625H27.5625V34.3125H21.9375V27.5625ZM22.5 26.4375L24.75 23.4377L27 26.4375H22.5ZM8.4375 1.6875H11.8125V2.8125H8.4375V1.6875ZM7.3125 3.9375H12.9375V6.1875H7.3125V3.9375ZM5.0625 7.3125H15.1875V14.0625H12.9375V16.6978C12.4251 16.4537 11.8541 16.3125 11.25 16.3125H5.625C5.43375 16.3125 5.247 16.3311 5.0625 16.3575V7.3125ZM5.625 17.4375H11.25C12.6079 17.4375 13.7441 18.4056 14.0057 19.6875H2.86931C3.13087 18.4056 4.26712 17.4375 5.625 17.4375ZM15.1875 20.8125V21.9375H1.6875V20.8125H15.1875ZM12.9375 30.9375H10.6875V28.6875H12.9375V30.9375ZM9.5625 30.9375H7.3125V28.6875H9.5625V30.9375ZM9.5625 32.0625V34.3125H7.3125V32.0625H9.5625ZM10.6875 32.0625H12.9375V34.3125H10.6875V32.0625ZM12.9375 27.5625H10.6875V25.3125H12.9375V27.5625ZM9.5625 27.5625H7.3125V25.3125H9.5625V27.5625ZM6.1875 27.5625H3.9375V25.3125H6.1875V27.5625ZM3.9375 28.6875H6.1875V30.9375H3.9375V28.6875ZM3.9375 32.0625H6.1875V34.3125H3.9375V32.0625ZM14.0625 34.3125V24.1875H2.8125V34.3125H1.6875V23.0625H15.1875V34.3125H14.0625ZM15.1425 19.6875C15.021 18.8426 14.6329 18.0827 14.0625 17.4999V17.4375H21.9375V25.3125L20.8125 26.8127V34.3125H16.3125V19.6875H15.1425ZM34.3125 34.3125H28.6875V26.8127L27.5625 25.3125V21.8627L34.3125 20.8986V34.3125Z" fill="#041E42"/>
<path d="M17.4375 18.5625H18.5625V19.6875H17.4375V18.5625Z" fill="#041E42"/>
<path d="M17.4375 32.0625H18.5625V33.1875H17.4375V32.0625Z" fill="#041E42"/>
<path d="M17.4375 20.8125H18.5625V21.9375H17.4375V20.8125Z" fill="#041E42"/>
<path d="M17.4375 29.8125H18.5625V30.9375H17.4375V29.8125Z" fill="#041E42"/>
<path d="M17.4375 25.3125H18.5625V26.4375H17.4375V25.3125Z" fill="#041E42"/>
<path d="M17.4375 23.0625H18.5625V24.1875H17.4375V23.0625Z" fill="#041E42"/>
<path d="M17.4375 27.5625H18.5625V28.6875H17.4375V27.5625Z" fill="#041E42"/>
<path d="M19.6875 23.0625H20.8125V24.1875H19.6875V23.0625Z" fill="#041E42"/>
<path d="M19.6875 20.8125H20.8125V21.9375H19.6875V20.8125Z" fill="#041E42"/>
<path d="M19.6875 18.5625H20.8125V19.6875H19.6875V18.5625Z" fill="#041E42"/>
<path d="M32.0625 32.0625H33.1875V33.1875H32.0625V32.0625Z" fill="#041E42"/>
<path d="M32.0625 27.5625H33.1875V28.6875H32.0625V27.5625Z" fill="#041E42"/>
<path d="M32.0625 29.8125H33.1875V30.9375H32.0625V29.8125Z" fill="#041E42"/>
<path d="M32.0625 25.3125H33.1875V26.4375H32.0625V25.3125Z" fill="#041E42"/>
<path d="M32.0625 23.0625H33.1875V24.1875H32.0625V23.0625Z" fill="#041E42"/>
<path d="M29.8125 29.8125H30.9375V30.9375H29.8125V29.8125Z" fill="#041E42"/>
<path d="M29.8125 23.0625H30.9375V24.1875H29.8125V23.0625Z" fill="#041E42"/>
<path d="M29.8125 27.5625H30.9375V28.6875H29.8125V27.5625Z" fill="#041E42"/>
<path d="M29.8125 32.0625H30.9375V33.1875H29.8125V32.0625Z" fill="#041E42"/>
<path d="M29.8125 25.3125H30.9375V26.4375H29.8125V25.3125Z" fill="#041E42"/>
<path d="M12.9375 8.4375H14.0625V9.5625H12.9375V8.4375Z" fill="#041E42"/>
<path d="M10.6875 8.4375H11.8125V9.5625H10.6875V8.4375Z" fill="#041E42"/>
<path d="M6.1875 8.4375H7.3125V9.5625H6.1875V8.4375Z" fill="#041E42"/>
<path d="M8.4375 8.4375H9.5625V9.5625H8.4375V8.4375Z" fill="#041E42"/>
<path d="M8.4375 10.6875H9.5625V11.8125H8.4375V10.6875Z" fill="#041E42"/>
<path d="M12.9375 10.6875H14.0625V11.8125H12.9375V10.6875Z" fill="#041E42"/>
<path d="M6.1875 10.6875H7.3125V11.8125H6.1875V10.6875Z" fill="#041E42"/>
<path d="M10.6875 10.6875H11.8125V11.8125H10.6875V10.6875Z" fill="#041E42"/>
<path d="M6.1875 12.9375H7.3125V14.0625H6.1875V12.9375Z" fill="#041E42"/>
<path d="M8.4375 12.9375H9.5625V14.0625H8.4375V12.9375Z" fill="#041E42"/>
<path d="M10.6875 12.9375H11.8125V14.0625H10.6875V12.9375Z" fill="#041E42"/>
<path d="M27.5625 10.6875H28.6875V11.8125H27.5625V10.6875Z" fill="#041E42"/>
<path d="M25.3125 10.6875H26.4375V11.8125H25.3125V10.6875Z" fill="#041E42"/>
<path d="M23.0625 10.6875H24.1875V11.8125H23.0625V10.6875Z" fill="#041E42"/>
<path d="M27.5625 12.9375H28.6875V14.0625H27.5625V12.9375Z" fill="#041E42"/>
<path d="M23.0625 12.9375H24.1875V14.0625H23.0625V12.9375Z" fill="#041E42"/>
<path d="M25.3125 12.9375H26.4375V14.0625H25.3125V12.9375Z" fill="#041E42"/>
<path d="M25.3125 19.6875H26.4375V20.8125H25.3125V19.6875Z" fill="#041E42"/>
<path d="M25.3125 17.4375H26.4375V18.5625H25.3125V17.4375Z" fill="#041E42"/>
<path d="M25.3125 15.1875H26.4375V16.3125H25.3125V15.1875Z" fill="#041E42"/>
<path d="M27.5625 17.4375H28.6875V18.5625H27.5625V17.4375Z" fill="#041E42"/>
<path d="M27.5625 15.1875H28.6875V16.3125H27.5625V15.1875Z" fill="#041E42"/>
</svg>
