<svg width="36" height="36" viewBox="0 0 36 36" fill="none" xmlns="http://www.w3.org/2000/svg">
<path d="M34.3125 6.75H32.625V5.625C32.625 5.47582 32.5657 5.33274 32.4602 5.22725C32.3548 5.12176 32.2117 5.0625 32.0625 5.0625H30.375V4.5C30.3738 3.45608 29.9586 2.45525 29.2204 1.71708C28.4823 0.978916 27.4814 0.563691 26.4375 0.5625H9.5625C8.51858 0.563691 7.51775 0.978916 6.77958 1.71708C6.04142 2.45525 5.62619 3.45608 5.625 4.5V5.0625H3.9375C3.78832 5.0625 3.64524 5.12176 3.53975 5.22725C3.43426 5.33274 3.375 5.47582 3.375 5.625V6.75H1.6875C1.53832 6.75 1.39524 6.80926 1.28975 6.91475C1.18426 7.02024 1.125 7.16332 1.125 7.3125V20.8125C1.125 21.1109 1.24353 21.397 1.4545 21.608C1.66548 21.819 1.95163 21.9375 2.25 21.9375H3.375C3.67337 21.9375 3.95952 21.819 4.1705 21.608C4.38147 21.397 4.5 21.1109 4.5 20.8125V11.25C4.5 11.1008 4.44074 10.9577 4.33525 10.8523C4.22976 10.7468 4.08668 10.6875 3.9375 10.6875H2.25V7.875H3.375V9C3.375 9.14918 3.43426 9.29226 3.53975 9.39775C3.64524 9.50324 3.78832 9.5625 3.9375 9.5625H5.625V29.25C5.62582 29.8981 5.85005 30.5261 6.2599 31.0282C6.66976 31.5303 7.24017 31.8757 7.875 32.0063V34.3125C7.875 34.6109 7.99353 34.897 8.2045 35.108C8.41548 35.319 8.70163 35.4375 9 35.4375H12.375C12.6734 35.4375 12.9595 35.319 13.1705 35.108C13.3815 34.897 13.5 34.6109 13.5 34.3125V32.0625H22.5V34.3125C22.5 34.6109 22.6185 34.897 22.8295 35.108C23.0405 35.319 23.3266 35.4375 23.625 35.4375H27C27.2984 35.4375 27.5845 35.319 27.7955 35.108C28.0065 34.897 28.125 34.6109 28.125 34.3125V32.0063C28.7598 31.8757 29.3302 31.5303 29.7401 31.0282C30.1499 30.5261 30.3742 29.8981 30.375 29.25V9.5625H32.0625C32.2117 9.5625 32.3548 9.50324 32.4602 9.39775C32.5657 9.29226 32.625 9.14918 32.625 9V7.875H33.75V10.6875H32.0625C31.9133 10.6875 31.7702 10.7468 31.6648 10.8523C31.5593 10.9577 31.5 11.1008 31.5 11.25V20.8125C31.5 21.1109 31.6185 21.397 31.8295 21.608C32.0405 21.819 32.3266 21.9375 32.625 21.9375H33.75C34.0484 21.9375 34.3345 21.819 34.5455 21.608C34.7565 21.397 34.875 21.1109 34.875 20.8125V7.3125C34.875 7.16332 34.8157 7.02024 34.7102 6.91475C34.6048 6.80926 34.4617 6.75 34.3125 6.75ZM3.375 11.8125V20.8125H2.25V11.8125H3.375ZM21.4042 26.9831C21.4009 26.9888 21.3998 26.9944 21.3969 27H14.6031C14.5997 26.9949 14.5991 26.9888 14.5957 26.9837L13.9309 25.875H22.0691L21.4042 26.9831ZM6.75 25.3614L12.3187 25.8255C12.4076 25.8329 12.4934 25.8613 12.569 25.9083C12.6447 25.9553 12.7082 26.0197 12.7541 26.0961L13.6311 27.5625H6.75V25.3614ZM23.2481 26.0966C23.294 26.0202 23.3574 25.9557 23.4331 25.9086C23.5088 25.8614 23.5946 25.8329 23.6835 25.8255L29.2523 25.3614V27.5625H22.3689L23.2481 26.0966ZM29.25 24.2325L23.5901 24.7039C23.5142 24.7143 23.439 24.7297 23.3651 24.75H12.6326C12.5587 24.7297 12.4836 24.7143 12.4076 24.7039L6.75 24.2325V21.1601L7.47338 21.5218C8.02022 21.7946 8.62288 21.9369 9.234 21.9375H9.26156L9.09281 22.1878L10.0288 22.8122L10.6132 21.9375H26.766C27.3771 21.9369 27.9798 21.7946 28.5266 21.5218L29.25 21.1601V24.2325ZM29.25 19.9013L28.0232 20.5144C27.6327 20.7094 27.2025 20.8115 26.766 20.8125H11.3625L12.1123 19.6875H25.875V18.5625H11.8125C11.7199 18.5625 11.6288 18.5853 11.5471 18.629C11.4655 18.6727 11.3959 18.7358 11.3445 18.8128L10.0125 20.8125H9.234C8.79764 20.8118 8.36734 20.7102 7.97681 20.5155L6.75 19.9024V5.0625H29.25V19.9013ZM9.5625 1.6875H26.4375C27.0856 1.68832 27.7136 1.91255 28.2157 2.3224C28.7178 2.73226 29.0632 3.30267 29.1938 3.9375H6.80625C6.9368 3.30267 7.28223 2.73226 7.7843 2.3224C8.28637 1.91255 8.91438 1.68832 9.5625 1.6875ZM4.5 8.4375V6.1875H5.625V8.4375H4.5ZM12.375 34.3125H9V32.0625H12.375V34.3125ZM23.625 34.3125V32.0625H27V34.3125H23.625ZM27.5625 30.9375H8.4375C7.98995 30.9375 7.56072 30.7597 7.24426 30.4432C6.92779 30.1268 6.75 29.6976 6.75 29.25V28.6875H13.6311C13.8286 28.6887 14.0229 28.6372 14.194 28.5383C14.365 28.4395 14.5066 28.2968 14.6042 28.125H21.3958C21.4934 28.2968 21.635 28.4395 21.806 28.5383C21.9771 28.6372 22.1714 28.6887 22.3689 28.6875H29.25V29.25C29.25 29.6976 29.0722 30.1268 28.7557 30.4432C28.4393 30.7597 28.0101 30.9375 27.5625 30.9375ZM31.5 8.4375H30.375V6.1875H31.5V8.4375ZM33.75 20.8125H32.625V11.8125H33.75V20.8125Z" fill="#041E42"/>
</svg>
