<svg width="36" height="36" viewBox="0 0 36 36" fill="none" xmlns="http://www.w3.org/2000/svg">
<g clip-path="url(#clip0)">
<path d="M33.9677 3.77416H33.6774V2.61287C33.6774 2.29221 33.4174 2.03223 33.0968 2.03223H30.7742C30.4535 2.03223 30.1935 2.29221 30.1935 2.61287V3.77416H26.7097V2.61287C26.7097 2.29221 26.4497 2.03223 26.129 2.03223H23.8065C23.4858 2.03223 23.2258 2.29221 23.2258 2.61287V3.77416H19.7419V2.61287C19.7419 2.29221 19.482 2.03223 19.1613 2.03223H16.8387C16.518 2.03223 16.2581 2.29221 16.2581 2.61287V3.77416H12.7742V2.61287C12.7742 2.29221 12.5142 2.03223 12.1935 2.03223H9.87097C9.55031 2.03223 9.29032 2.29221 9.29032 2.61287V3.77416H5.80645V2.61287C5.80645 2.29221 5.54647 2.03223 5.22581 2.03223H2.90323C2.58256 2.03223 2.32258 2.29221 2.32258 2.61287V3.77416H2.03226C0.910379 3.7754 0.00123387 4.68454 0 5.80642V31.9355C0.00123387 33.0573 0.910379 33.9665 2.03226 33.9677H33.9677C35.0896 33.9665 35.9988 33.0573 36 31.9355V5.80642C35.9988 4.68454 35.0896 3.7754 33.9677 3.77416ZM31.3548 3.19352H32.5161V5.5161H31.3548V3.19352ZM24.3871 3.19352H25.5484V5.5161H24.3871V3.19352ZM17.4194 3.19352H18.5806V5.5161H17.4194V3.19352ZM10.4516 3.19352H11.6129V5.5161H10.4516V3.19352ZM3.48387 3.19352H4.64516V5.5161H3.48387V3.19352ZM34.8387 31.9355C34.8383 32.4163 34.4486 32.806 33.9677 32.8064H2.03226C1.55141 32.806 1.16173 32.4163 1.16129 31.9355V8.41932H34.8387V31.9355ZM34.8387 7.25803H1.16129V5.80642C1.16173 5.32557 1.55141 4.93589 2.03226 4.93545H2.32258V6.09674C2.32258 6.4174 2.58256 6.67739 2.90323 6.67739H5.22581C5.54647 6.67739 5.80645 6.4174 5.80645 6.09674V4.93545H9.29032V6.09674C9.29032 6.4174 9.55031 6.67739 9.87097 6.67739H12.1935C12.5142 6.67739 12.7742 6.4174 12.7742 6.09674V4.93545H16.2581V6.09674C16.2581 6.4174 16.518 6.67739 16.8387 6.67739H19.1613C19.482 6.67739 19.7419 6.4174 19.7419 6.09674V4.93545H23.2258V6.09674C23.2258 6.4174 23.4858 6.67739 23.8065 6.67739H26.129C26.4497 6.67739 26.7097 6.4174 26.7097 6.09674V4.93545H30.1935V6.09674C30.1935 6.4174 30.4535 6.67739 30.7742 6.67739H33.0968C33.4174 6.67739 33.6774 6.4174 33.6774 6.09674V4.93545H33.9677C34.4486 4.93589 34.8383 5.32557 34.8387 5.80642V7.25803Z" fill="#041E42"/>
<path d="M17.9997 13.0645C13.8308 13.0645 10.4513 16.444 10.4513 20.6128C10.4513 24.7817 13.8308 28.1612 17.9997 28.1612C22.1686 28.1612 25.5481 24.7817 25.5481 20.6128C25.5434 16.4459 22.1666 13.0692 17.9997 13.0645ZM17.9997 26.9999C14.4722 26.9999 11.6126 24.1403 11.6126 20.6128C11.6126 17.0854 14.4722 14.2257 17.9997 14.2257C21.5272 14.2257 24.3868 17.0854 24.3868 20.6128C24.3828 24.1387 21.5255 26.996 17.9997 26.9999Z" fill="#041E42"/>
<path d="M17.9998 12.4838C18.3204 12.4838 18.5804 12.2239 18.5804 11.9032V10.7419C18.5804 10.4212 18.3204 10.1613 17.9998 10.1613C17.6791 10.1613 17.4191 10.4212 17.4191 10.7419V11.9032C17.4191 12.2239 17.6791 12.4838 17.9998 12.4838Z" fill="#041E42"/>
<path d="M17.9998 28.7419C17.6791 28.7419 17.4191 29.0019 17.4191 29.3226V30.4839C17.4191 30.8045 17.6791 31.0645 17.9998 31.0645C18.3204 31.0645 18.5804 30.8045 18.5804 30.4839V29.3226C18.5804 29.0019 18.3204 28.7419 17.9998 28.7419Z" fill="#041E42"/>
<path d="M27.8706 20.0322H26.7093C26.3887 20.0322 26.1287 20.2922 26.1287 20.6129C26.1287 20.9335 26.3887 21.1935 26.7093 21.1935H27.8706C28.1913 21.1935 28.4513 20.9335 28.4513 20.6129C28.4513 20.2922 28.1913 20.0322 27.8706 20.0322Z" fill="#041E42"/>
<path d="M9.29064 20.0322H8.12935C7.80869 20.0322 7.54871 20.2922 7.54871 20.6129C7.54871 20.9335 7.80869 21.1935 8.12935 21.1935H9.29064C9.6113 21.1935 9.87129 20.9335 9.87129 20.6129C9.87129 20.2922 9.6113 20.0322 9.29064 20.0322Z" fill="#041E42"/>
<path d="M24.5689 13.2225L23.748 14.0436C23.5272 14.2761 23.5366 14.6437 23.7691 14.8645C23.9932 15.0775 24.3448 15.0775 24.5689 14.8645L25.39 14.0434C25.6142 13.8141 25.6101 13.4464 25.3808 13.2222C25.1551 13.0016 24.7946 13.0016 24.5689 13.2222V13.2225Z" fill="#041E42"/>
<path d="M11.4303 26.3613L10.6091 27.1822C10.3799 27.4064 10.3757 27.774 10.5999 28.0033C10.8241 28.2326 11.1918 28.2367 11.421 28.0125C11.4242 28.0095 11.4272 28.0064 11.4303 28.0033L12.2511 27.1822C12.472 26.9497 12.4626 26.5822 12.2301 26.3613C12.006 26.1484 11.6544 26.1484 11.4303 26.3613Z" fill="#041E42"/>
<path d="M24.5693 26.3612C24.3368 26.1403 23.9692 26.1498 23.7484 26.3823C23.5354 26.6064 23.5354 26.958 23.7484 27.1821L24.5696 28.0032C24.7988 28.2274 25.1665 28.2233 25.3907 27.9939C25.6113 27.7682 25.6113 27.4077 25.3907 27.1821L24.5693 26.3612Z" fill="#041E42"/>
<path d="M11.4305 14.8645C11.663 15.0854 12.0305 15.076 12.2514 14.8435C12.4644 14.6193 12.4644 14.2678 12.2514 14.0436L11.4305 13.2225C11.2012 12.9983 10.8336 13.0024 10.6094 13.2317C10.3888 13.4573 10.3888 13.818 10.6094 14.0436L11.4305 14.8645Z" fill="#041E42"/>
</g>
<defs>
<clipPath id="clip0">
<rect width="36" height="36" fill="white"/>
</clipPath>
</defs>
</svg>
