<svg width="36" height="36" viewBox="0 0 36 36" fill="none" xmlns="http://www.w3.org/2000/svg">
<path d="M36 20.0289C36 18.5767 34.8189 17.395 33.3667 17.395C32.6636 17.395 32.0024 17.6691 31.5045 18.1667L29.0323 20.639V0H6.14667L0 6.14667V36H29.0323V28.0876L35.2288 21.891C35.7258 21.394 36 20.7325 36 20.0289ZM21.7725 30.1176L23.2834 31.6284L21.1686 32.2457L21.7725 30.1176ZM24.3871 31.0895L23.7571 30.4595L32.0469 22.1691L32.6774 22.7997L24.3871 31.0895ZM22.9355 29.6384L22.3049 29.0079L30.5959 20.7175L31.2264 21.3481L22.9355 29.6384ZM5.80645 1.98236V5.80645H1.98236L5.80645 1.98236ZM27.871 34.8387H1.16129V6.96774H6.96774V1.16129H27.871V21.8003L20.9664 28.7042L19.4771 33.9485L24.6924 32.4274L27.871 29.2489V34.8387ZM34.4078 21.0699L33.4991 21.9786L31.4169 19.8965L32.3256 18.9878C32.6037 18.7096 32.9737 18.5563 33.3667 18.5563C34.1778 18.5563 34.8387 19.2171 34.8387 20.0289C34.8387 20.4224 34.6853 20.7924 34.4078 21.0699Z" fill="#041E42"/>
<path d="M11.7637 23.9965L9.2648 26.7457C8.52793 26.0066 7.5101 25.5484 6.38709 25.5484C4.14644 25.5484 2.32257 27.3723 2.32257 29.613C2.32257 31.8536 4.14644 33.6775 6.38709 33.6775C8.62773 33.6775 10.4516 31.8536 10.4516 29.613C10.4516 28.9203 10.277 28.2682 9.96962 27.6969L12.6234 24.7778L11.7637 23.9965ZM9.29031 29.613C9.29031 31.2137 7.98783 32.5162 6.38709 32.5162C4.78634 32.5162 3.48386 31.2137 3.48386 29.613C3.48386 28.0122 4.78634 26.7097 6.38709 26.7097C7.20986 26.7097 7.95012 27.0576 8.47917 27.6096L6.29353 30.0141L4.96751 29.1304L4.32336 30.0966L6.48122 31.5355L9.11141 28.6422C9.22 28.947 9.29031 29.2705 9.29031 29.613Z" fill="#041E42"/>
<path d="M9.2648 16.2941C8.52793 15.5549 7.5101 15.0968 6.38709 15.0968C4.14644 15.0968 2.32257 16.9207 2.32257 19.1613C2.32257 21.4019 4.14644 23.2258 6.38709 23.2258C8.62773 23.2258 10.4516 21.4019 10.4516 19.1613C10.4516 18.4687 10.277 17.8166 9.96962 17.2453L12.6234 14.3262L11.7637 13.5448L9.2648 16.2941ZM9.29031 19.1613C9.29031 20.762 7.98783 22.0645 6.38709 22.0645C4.78634 22.0645 3.48386 20.762 3.48386 19.1613C3.48386 17.5606 4.78634 16.2581 6.38709 16.2581C7.20986 16.2581 7.95012 16.6059 8.47917 17.158L6.29353 19.5625L4.96751 18.6787L4.32336 19.645L6.48122 21.0838L9.11141 18.1905C9.22 18.4953 9.29031 18.8188 9.29031 19.1613Z" fill="#041E42"/>
<path d="M25.5484 18.5807H26.7097V19.742H25.5484V18.5807Z" fill="#041E42"/>
<path d="M12.7742 18.5807H24.3871V19.742H12.7742V18.5807Z" fill="#041E42"/>
<path d="M12.7742 16.2581H26.7097V17.4193H12.7742V16.2581Z" fill="#041E42"/>
<path d="M12.7742 20.9032H26.7097V22.0645H12.7742V20.9032Z" fill="#041E42"/>
<path d="M12.7742 29.0322H19.1613V30.1935H12.7742V29.0322Z" fill="#041E42"/>
<path d="M12.7742 31.3549H19.1613V32.5161H12.7742V31.3549Z" fill="#041E42"/>
<path d="M12.7742 26.7097H19.1613V27.871H12.7742V26.7097Z" fill="#041E42"/>
<path d="M11.0323 12.7742H23.8064C25.4072 12.7742 26.7097 11.4718 26.7097 9.87102V5.22586C26.7097 3.62511 25.4072 2.32263 23.8064 2.32263H11.0323C9.43151 2.32263 8.12903 3.62511 8.12903 5.22586V9.87102C8.12903 11.4718 9.43151 12.7742 11.0323 12.7742ZM9.29032 5.22586C9.29032 4.26558 10.072 3.48392 11.0323 3.48392H23.8064C24.7667 3.48392 25.5484 4.26558 25.5484 5.22586V9.87102C25.5484 10.8313 24.7667 11.613 23.8064 11.613H11.0323C10.072 11.613 9.29032 10.8313 9.29032 9.87102V5.22586Z" fill="#041E42"/>
<path d="M24.3871 5.8064H20.9032V9.29027H24.3871V5.8064ZM23.2258 8.12898H22.0645V6.96769H23.2258V8.12898Z" fill="#041E42"/>
<path d="M19.1613 5.8064H15.6774V9.29027H19.1613V5.8064ZM18 8.12898H16.8387V6.96769H18V8.12898Z" fill="#041E42"/>
<path d="M13.9355 5.8064H10.4516V9.29027H13.9355V5.8064ZM12.7742 8.12898H11.6129V6.96769H12.7742V8.12898Z" fill="#041E42"/>
</svg>
