<svg width="36" height="36" viewBox="0 0 36 36" fill="none" xmlns="http://www.w3.org/2000/svg">
<g clip-path="url(#clip0)">
<path d="M35.0447 15.0631L32.5962 14.5517C32.2858 13.2404 31.7969 11.9781 31.1429 10.8001L32.2542 9.68829C32.2597 9.6828 32.2614 9.67511 32.2668 9.66962C32.3113 9.62238 32.3481 9.56827 32.3753 9.50949V9.50208L32.3825 9.48669L35.8901 1.69794C36.0964 1.2431 35.9995 0.708069 35.6465 0.354584C35.2939 0.00109863 34.7591 -0.0966797 34.3037 0.10849L26.5141 3.6145L26.4971 3.62164L26.4905 3.62466C26.4798 3.62933 26.4727 3.6395 26.4617 3.64554C26.407 3.67108 26.3562 3.70486 26.3117 3.74579L25.1999 4.86008C24.0219 4.20612 22.7596 3.71722 21.4483 3.40686L20.9399 0.955261C20.8221 0.398804 20.3316 0.000823978 19.7628 0H16.2378C15.6701 0.00192261 15.1806 0.399902 15.0631 0.955261L14.5517 3.40247C12.9831 3.76776 11.4857 4.38959 10.1195 5.24268L8.02689 3.86938C7.55063 3.56067 6.92331 3.62521 6.52011 4.02484L4.02429 6.52094C3.62466 6.92413 3.56067 7.55145 3.86993 8.02744L5.24268 10.1195C4.38959 11.4857 3.76776 12.9831 3.40247 14.5517L0.955261 15.0631C0.399902 15.1806 0.00192261 15.6701 0 16.2378V19.7628C0.000823978 20.3316 0.398804 20.8221 0.955261 20.9399L3.40384 21.4511C3.64664 22.4824 4.00012 23.4846 4.45853 24.4399C4.06686 24.4891 3.70184 24.6654 3.42004 24.942L2.57574 25.7893C2.03467 26.3246 1.89542 27.1453 2.22968 27.8292L0.878906 29.1816C-0.290588 30.3541 -0.290588 32.2517 0.878906 33.4243L2.57574 35.1211C3.74826 36.2906 5.64587 36.2906 6.81839 35.1211L8.16888 33.7703C8.85251 34.1051 9.67319 33.9667 10.209 33.4259L11.0657 32.5753C11.3409 32.2943 11.5161 31.9307 11.5645 31.5401C12.5195 31.9988 13.5211 32.3528 14.5525 32.5962L15.0636 35.0447C15.1812 35.6001 15.6703 35.9978 16.2378 36H19.7628C20.3316 35.9992 20.8221 35.6012 20.9399 35.0447L21.4511 32.5975C23.0199 32.2322 24.5174 31.6104 25.8835 30.7573L27.9761 32.1306C28.4524 32.4393 29.0797 32.3748 29.4829 31.9752L31.9787 29.4791C32.3781 29.0759 32.4424 28.4485 32.1331 27.9726L30.7601 25.8805C31.6134 24.5143 32.2353 23.0169 32.6003 21.4483L35.0478 20.9369C35.6017 20.8183 35.9981 20.3294 36 19.7628V16.2378C35.9981 15.6701 35.6001 15.1806 35.0447 15.0631ZM28.2 18C28.1937 23.6308 23.6308 28.1937 18 28.2C16.4792 28.2052 14.9771 27.8641 13.6079 27.2021C11.5002 26.1961 9.80173 24.497 8.79593 22.389C8.13538 21.0204 7.7948 19.5197 7.80002 18C7.80634 12.3692 12.3692 7.80634 18 7.80002C19.228 7.80002 20.4456 8.02579 21.5923 8.46552L18.6251 11.4324C18.4241 11.4131 18.2189 11.4 18 11.4C14.3567 11.4044 11.4044 14.3567 11.4 18C11.3986 18.3112 11.4203 18.6221 11.4653 18.93C11.8806 21.8337 14.1606 24.1161 17.064 24.5341C17.3741 24.5794 17.6869 24.6014 18 24.6C21.6433 24.5956 24.5956 21.6433 24.6 18C24.6 17.7811 24.5869 17.5759 24.5676 17.3749L27.5345 14.4077C27.9742 15.5544 28.2 16.772 28.2 18ZM26.7355 5.0191L28.434 6.72006L13.7837 21.3679C13.2404 20.6938 12.8697 19.8976 12.7038 19.0481L26.7355 5.0191ZM31.4003 2.7323C31.653 3.08853 31.934 3.42389 32.2405 3.73508C32.5599 4.04901 32.906 4.33548 33.2743 4.59064L31.6379 8.22354L27.7765 4.36212L31.4003 2.7323ZM12.6313 17.4257C12.9051 14.8999 14.8999 12.9051 17.4257 12.6313L12.6313 17.4257ZM23.3712 18.5743C23.0974 21.1001 21.1025 23.0949 18.5765 23.3687L23.3712 18.5743ZM16.9519 23.2938C16.1021 23.1281 15.3059 22.7574 14.6321 22.2138L29.2799 7.56601L30.9787 9.2645L16.9519 23.2938ZM34.8 1.2041L33.7728 3.47992C33.5316 3.29755 33.3029 3.09952 33.0881 2.88666C32.8832 2.68039 32.6909 2.46149 32.5127 2.23132L34.8 1.2041ZM3.42609 26.6399L4.26599 25.7915C4.3786 25.6778 4.53214 25.6138 4.69226 25.6138C4.85239 25.6138 5.00592 25.6778 5.11853 25.7915L5.22784 25.9008L3.88751 27.9443L3.42416 27.4801C3.31155 27.3683 3.24811 27.2164 3.24811 27.058C3.24811 26.8995 3.31155 26.7473 3.42416 26.6358L3.42609 26.6399ZM5.96997 34.2727C5.63242 34.6102 5.17456 34.8 4.6972 34.8C4.21957 34.8 3.76172 34.6102 3.42416 34.2727L1.72733 32.5758C1.38977 32.2383 1.19998 31.7804 1.19998 31.3028C1.19998 30.8254 1.38977 30.3676 1.72733 30.03L3.00009 28.7573L7.24274 32.9999L5.96997 34.2727ZM10.2156 31.728L9.36008 32.5758C9.12442 32.8022 8.75253 32.8022 8.51688 32.5758L8.0538 32.1125L10.1033 30.7711L10.2121 30.8801C10.4469 31.1136 10.4485 31.4929 10.2156 31.728ZM34.8 19.7628L31.9716 20.3533C31.7373 20.4022 31.5547 20.5856 31.5066 20.8199C31.1613 22.5093 30.4939 24.1164 29.5409 25.5534C29.409 25.7536 29.409 26.0132 29.5409 26.2134L31.1273 28.632L28.632 31.1273L26.2134 29.5409C26.0132 29.409 25.7536 29.409 25.5534 29.5409C24.1164 30.4939 22.5093 31.1613 20.8199 31.5066C20.5856 31.5547 20.4022 31.7373 20.3533 31.9716L19.7628 34.8H16.2378L15.6467 31.9716C15.5981 31.7379 15.4155 31.5552 15.1817 31.5066C13.6978 31.2006 12.2756 30.648 10.974 29.8721C10.9015 29.8339 10.824 29.7853 10.7196 29.7161C10.6356 29.6664 10.5557 29.6117 10.4604 29.5464C10.3947 29.5024 10.3211 29.4714 10.2439 29.4552H10.2395C10.086 29.4244 9.92642 29.4552 9.79514 29.5403L7.371 31.1273L4.87491 28.6315L6.46188 26.2073C6.59674 25.9983 6.5885 25.7275 6.44101 25.527H6.44458C6.38992 25.4471 6.33527 25.3674 6.26468 25.2515C6.21771 25.1807 6.17047 25.1046 6.11938 25.0115V25.0068C5.35034 23.7123 4.80267 22.2984 4.49945 20.8235C4.45084 20.59 4.26819 20.4074 4.03445 20.3585L1.19998 19.7628V16.2378L4.02841 15.6467C4.2627 15.5978 4.44534 15.4144 4.49341 15.1801C4.83865 13.4907 5.50607 11.8836 6.45914 10.4466C6.59097 10.2464 6.59097 9.98685 6.45914 9.78662L4.87326 7.36853L7.36853 4.87326L9.78717 6.45969C9.9874 6.59152 10.2469 6.59152 10.4472 6.45969C11.8839 5.50635 13.4909 4.83893 15.1801 4.49341C15.4144 4.44534 15.5978 4.2627 15.6467 4.02841L16.2378 1.19998H19.7628L20.3533 4.02841C20.4019 4.26215 20.5845 4.44479 20.8183 4.49341C22.0356 4.74747 23.2119 5.16797 24.3144 5.7431L22.5181 7.53964C21.0935 6.91644 19.5548 6.59647 18 6.60004C11.7068 6.6069 6.6069 11.7068 6.60004 18C6.59427 19.6993 6.97522 21.3775 7.7135 22.9079C8.8374 25.2625 10.7347 27.1604 13.0891 28.2846C14.6201 29.0242 16.2996 29.4055 18 29.4C24.2932 29.3931 29.3931 24.2932 29.4 18C29.4035 16.4452 29.0836 14.9065 28.4604 13.4819L30.2569 11.6856C30.8318 12.7875 31.2525 13.9633 31.5066 15.1801C31.5552 15.4138 31.7379 15.5962 31.9716 15.6451L34.8 16.2378V19.7628Z" fill="#041E42"/>
</g>
<defs>
<clipPath id="clip0">
<rect width="36" height="36" fill="white"/>
</clipPath>
</defs>
</svg>
