<svg width="36" height="36" viewBox="0 0 36 36" fill="none" xmlns="http://www.w3.org/2000/svg">
<g clip-path="url(#clip0)">
<path d="M15.2059 7.29944H12.3899C11.7883 7.29944 11.2988 7.78888 11.2988 8.39062V8.42584H10.102V8.39062C10.102 7.78895 9.61246 7.29944 9.0108 7.29944H6.19492C5.59326 7.29944 5.10374 7.78888 5.10374 8.39062V10.0802C5.10374 10.6818 5.59319 11.1713 6.19492 11.1713H9.01087C9.61253 11.1713 10.102 10.6819 10.102 10.0802V9.4818H11.2988V10.0802C11.2988 10.6818 11.7883 11.1713 12.39 11.1713H15.206C15.8076 11.1713 16.2971 10.6819 16.2971 10.0802V8.39062C16.2971 7.78895 15.8076 7.29944 15.2059 7.29944ZM9.04603 10.0802C9.04603 10.0995 9.03028 10.1154 9.0108 10.1154H6.19492C6.17552 10.1154 6.1597 10.0996 6.1597 10.0802V8.39062C6.1597 8.37128 6.17545 8.35539 6.19492 8.35539H9.01087C9.03028 8.35539 9.0461 8.37121 9.0461 8.39062V10.0802H9.04603ZM15.2411 10.0802C15.2411 10.0995 15.2254 10.1154 15.2059 10.1154H12.3899C12.3705 10.1154 12.3547 10.0996 12.3547 10.0802V8.39062C12.3547 8.37128 12.3705 8.35539 12.3899 8.35539H15.2059C15.2253 8.35539 15.2411 8.37121 15.2411 8.39062V10.0802Z" fill="#041E42"/>
<path d="M7.63811 8.70752H7.56773C7.27614 8.70752 7.03975 8.94384 7.03975 9.2355C7.03975 9.52715 7.27614 9.76347 7.56773 9.76347H7.63811C7.92969 9.76347 8.16609 9.52715 8.16609 9.2355C8.16609 8.94384 7.92969 8.70752 7.63811 8.70752Z" fill="#041E42"/>
<path d="M13.8332 8.70752H13.7628C13.4712 8.70752 13.2348 8.94384 13.2348 9.2355C13.2348 9.52715 13.4712 9.76347 13.7628 9.76347H13.8332C14.1248 9.76347 14.3612 9.52715 14.3612 9.2355C14.3612 8.94384 14.1248 8.70752 13.8332 8.70752Z" fill="#041E42"/>
<path d="M12.8125 12.0161C12.6376 11.7829 12.3066 11.7355 12.0734 11.9106C11.8456 12.0815 11.3644 12.3681 10.7006 12.3681C10.4158 12.3681 9.85869 12.3087 9.32783 11.9106C9.0946 11.7357 8.7635 11.7829 8.58863 12.0162C8.41369 12.2494 8.46101 12.5804 8.69424 12.7554C9.47007 13.3373 10.2844 13.4242 10.7006 13.4242C11.6706 13.4242 12.374 13.0052 12.707 12.7553C12.9403 12.5803 12.9876 12.2493 12.8125 12.0161Z" fill="#041E42"/>
<path d="M10.7712 25.8848H10.7008C10.4092 25.8848 10.1728 26.1211 10.1728 26.4127C10.1728 26.7044 10.4092 26.9407 10.7008 26.9407H10.7712C11.0628 26.9407 11.2992 26.7044 11.2992 26.4127C11.2992 26.1211 11.0628 25.8848 10.7712 25.8848Z" fill="#041E42"/>
<path d="M10.7712 28.7007H10.7008C10.4092 28.7007 10.1728 28.937 10.1728 29.2287C10.1728 29.5203 10.4092 29.7566 10.7008 29.7566H10.7712C11.0628 29.7566 11.2992 29.5203 11.2992 29.2287C11.2992 28.937 11.0628 28.7007 10.7712 28.7007Z" fill="#041E42"/>
<path d="M10.7712 31.5166H10.7008C10.4092 31.5166 10.1728 31.7529 10.1728 32.0446C10.1728 32.3362 10.4092 32.5726 10.7008 32.5726H10.7712C11.0628 32.5726 11.2992 32.3362 11.2992 32.0446C11.2992 31.7529 11.0628 31.5166 10.7712 31.5166Z" fill="#041E42"/>
<path d="M32.0441 16.262C31.794 16.112 31.4697 16.1931 31.3196 16.4432C31.1697 16.6933 31.2508 17.0176 31.5009 17.1676C33.6624 18.4639 34.9528 20.6042 34.9528 22.8929C34.9528 26.7164 31.3999 29.8271 27.0329 29.8271C22.6659 29.8271 19.113 26.7164 19.113 22.8929C19.113 21.5564 19.5492 20.2585 20.3742 19.1395C20.4879 18.9854 20.5092 18.782 20.4299 18.6077L19.0852 15.6492L22.2555 17.0903C22.4095 17.1603 22.5876 17.1523 22.7345 17.0689C24.0147 16.3426 25.501 15.9587 27.0329 15.9587C27.7617 15.9587 28.4835 16.0453 29.1784 16.2163C29.4616 16.2856 29.7476 16.1128 29.8172 15.8296C29.8869 15.5465 29.7138 15.2604 29.4306 15.1908C28.6533 14.9996 27.8465 14.9027 27.0328 14.9027C25.4126 14.9027 23.8349 15.2882 22.4519 16.0196L18.2403 14.1052C17.8057 13.9078 17.3435 14.3874 17.5411 14.822L17.9698 15.7826H15.5145C16.6219 15.3603 17.3882 14.3362 17.3882 13.1075V10.9252C17.3882 10.9142 17.4048 10.9035 17.4042 10.8926L18.8441 9.96133C18.9952 9.86416 19.0778 9.69681 19.0778 9.51717V2.75887C19.0778 1.22556 17.8655 0.0133057 16.3322 0.0133057H5.06869C3.53538 0.0133057 2.25274 1.22556 2.25274 2.75887V9.5171C2.25274 9.69674 2.36173 9.86409 2.51276 9.96126L3.95269 10.8925C3.95205 10.9034 3.94228 10.9141 3.94228 10.9251V13.1075C3.94228 14.3362 4.779 15.3602 5.88635 15.7826H2.81595C1.28264 15.7826 0 16.9949 0 18.5281V35.4237C0 35.7154 0.271617 35.9869 0.563203 35.9869H20.838C21.1295 35.9869 21.3308 35.7154 21.3308 35.4237V29.0842C22.8795 30.208 24.8681 30.883 27.0155 30.883C31.9648 30.883 36.0001 27.2986 36.0001 22.8928C36 20.2298 34.5266 17.7509 32.0441 16.262ZM4.58241 4.49221C4.26305 4.43392 3.94235 4.68768 3.94235 5.01168V9.6362L3.30877 9.22888V2.75894C3.30877 1.80789 4.11771 1.0694 5.06876 1.0694H16.3325C17.2836 1.0694 18.0221 1.80789 18.0221 2.75894V9.22888L17.3885 9.6362V5.01168C17.3885 4.68754 17.103 4.4342 16.7837 4.49221L10.6831 5.60132L4.58241 4.49221ZM4.9983 13.1075V5.64428L10.5885 6.65756C10.651 6.66895 10.7061 6.66895 10.7686 6.65756L16.3325 5.64428V13.1075C16.3325 14.0586 15.5939 14.8675 14.6429 14.8675H6.75823C5.80725 14.8675 4.9983 14.0586 4.9983 13.1075ZM13.7589 16.8387L12.4025 19.34L12.3587 18.6043L12.8023 16.8386H13.7589V16.8387ZM11.4147 18.0355H9.98641L9.68723 16.8387H11.7139L11.4147 18.0355ZM11.448 21.095L10.7006 22.4832L9.95013 21.0896C9.95224 21.0749 9.95414 21.0777 9.95505 21.0626L10.0721 19.0915H11.3291L11.448 21.095ZM9.0424 18.5954L8.99859 19.3487L7.64227 16.8386H8.59887L9.0424 18.5954ZM20.2747 28.2666V34.9311H1.05595V18.5282C1.05595 17.5772 1.8649 16.8387 2.81595 16.8387H6.44295L10.2357 23.8649C10.4313 24.228 10.9699 24.2369 11.1655 23.8736L14.9583 16.8387H18.45L19.3434 18.7865C18.5009 20.029 18.0572 21.4396 18.0572 22.9018C18.0572 24.9309 18.8942 26.7809 20.299 28.1917C20.295 28.2175 20.2747 28.2396 20.2747 28.2666Z" fill="#041E42"/>
<path d="M27.033 18.0001C24.2576 18.0001 21.9996 20.2581 21.9996 23.0336C21.9996 25.809 24.2576 28.067 27.033 28.067C29.8085 28.067 32.0665 25.809 32.0665 23.0336C32.0665 20.2581 29.8085 18.0001 27.033 18.0001ZM27.033 27.0111C24.8398 27.0111 23.0555 25.2268 23.0555 23.0336C23.0555 20.8404 24.8398 19.0561 27.033 19.0561C29.2262 19.0561 31.0105 20.8403 31.0105 23.0336C31.0105 25.2268 29.2262 27.0111 27.033 27.0111Z" fill="#041E42"/>
<path d="M25.4139 21.9424H25.3436C25.052 21.9424 24.8156 22.1787 24.8156 22.4704C24.8156 22.762 25.052 22.9983 25.3436 22.9983H25.4139C25.7055 22.9983 25.9419 22.762 25.9419 22.4704C25.9419 22.1787 25.7055 21.9424 25.4139 21.9424Z" fill="#041E42"/>
<path d="M28.7223 21.9424H28.6519C28.3603 21.9424 28.1239 22.1787 28.1239 22.4704C28.1239 22.762 28.3603 22.9983 28.6519 22.9983H28.7223C29.0139 22.9983 29.2503 22.762 29.2503 22.4704C29.2503 22.1787 29.0139 21.9424 28.7223 21.9424Z" fill="#041E42"/>
<path d="M29.145 23.843C28.9701 23.6099 28.6391 23.5624 28.4059 23.7376C28.1781 23.9084 27.6969 24.1951 27.0331 24.1951C26.7483 24.1951 26.1912 24.1356 25.6603 23.7375C25.4271 23.5627 25.0961 23.6099 24.9212 23.8431C24.7462 24.0763 24.7935 24.4074 25.0268 24.5823C25.8026 25.1642 26.6169 25.2511 27.0331 25.2511C28.0032 25.2511 28.7066 24.8321 29.0395 24.5822C29.2727 24.4073 29.32 24.0763 29.145 23.843Z" fill="#041E42"/>
</g>
<defs>
<clipPath id="clip0">
<rect width="36" height="36" fill="white"/>
</clipPath>
</defs>
</svg>
