<svg width="42" height="39" viewBox="0 0 42 39" fill="none" xmlns="http://www.w3.org/2000/svg">
<path d="M21 1.21802C10.1443 1.21802 1.31247 9.40549 1.31247 19.4692C1.31247 29.5329 10.1443 37.7203 21 37.7203C31.8557 37.7203 40.6875 29.5329 40.6875 19.4692C40.6875 9.40549 31.8557 1.21802 21 1.21802ZM21 36.5036C10.8678 36.5036 2.62497 28.8621 2.62497 19.4692C2.62497 10.0762 10.8678 2.43476 21 2.43476C31.1321 2.43476 39.375 10.0762 39.375 19.4692C39.375 28.8621 31.1321 36.5036 21 36.5036Z" fill="#041E42"/>
<path d="M10.0812 8.9557L9.17137 8.07874C8.77336 8.43463 8.39011 8.81068 8.03319 9.19745L9.03036 9.98887C9.36004 9.63115 9.71392 9.28362 10.0812 8.9557Z" fill="#041E42"/>
<path d="M3.99118 18.2031L5.29983 18.2994C5.52517 15.689 6.50647 13.1834 8.14016 11.0471L7.06867 10.3436C5.29887 12.6591 4.23569 15.3743 3.99118 18.2031Z" fill="#041E42"/>
<path d="M30.1875 7.50082C30.1875 6.85199 29.9292 6.22597 29.4621 5.74279C28.995 5.25961 28.3519 4.95328 27.6562 4.88253C26.9605 4.81178 26.2611 4.98159 25.6921 5.35941C25.1231 5.73722 24.7245 6.29645 24.5729 6.92987C24.462 7.39223 24.373 7.85908 24.2815 8.32532C23.2127 8.05269 22.1087 7.91658 21.0002 7.92075V4.86711H19.6875V12.1676C19.686 12.8255 19.4559 13.4655 19.0312 13.9927C18.8403 14.2286 18.6131 14.4373 18.357 14.6123C17.5438 15.1684 17.0798 16.0976 17.117 17.1011L17.7181 31.0491C17.7243 31.2041 17.6965 31.3588 17.6364 31.5036C17.5762 31.6484 17.485 31.7804 17.3682 31.8915C17.1293 32.1097 16.8073 32.232 16.4719 32.232C16.1366 32.232 15.8146 32.1097 15.5757 31.8915C15.4587 31.7801 15.3674 31.6478 15.3073 31.5027C15.2471 31.3576 15.2194 31.2027 15.2257 31.0474L15.6955 17.0976C15.7327 16.0977 15.269 15.1685 14.4548 14.6124C14.1989 14.4371 13.972 14.2282 13.7812 13.9921C13.3565 13.4652 13.1264 12.8253 13.125 12.1676V4.86711H11.8125V11.6727C10.603 12.8915 9.69119 14.3378 9.13923 15.9129C8.58728 17.4881 8.40815 19.155 8.61405 20.8001C8.81996 22.4452 9.40606 24.0299 10.3324 25.446C11.2587 26.8621 12.5035 28.0764 13.982 29.0062L13.9145 31.0075C13.9028 31.3258 13.9603 31.643 14.0837 31.9403C14.2071 32.2375 14.3937 32.5087 14.6326 32.7377C14.8714 32.9666 15.1576 33.1486 15.4739 33.2728C15.7903 33.3971 16.1304 33.461 16.4739 33.4607C16.8175 33.4605 17.1575 33.3961 17.4736 33.2714C17.7898 33.1468 18.0756 32.9644 18.3141 32.7351C18.5526 32.5058 18.7388 32.2344 18.8617 31.9369C18.9846 31.6395 19.0416 31.3222 19.0294 31.0039L19.0239 30.8767C21.0707 31.1889 23.1696 31.0135 25.1234 30.3672L25.0792 30.9269C25.0557 31.2442 25.1014 31.5627 25.2134 31.8633C25.3255 32.164 25.5017 32.4407 25.7316 32.6768C25.9614 32.913 26.2401 33.1039 26.5512 33.2382C26.8623 33.3724 27.1993 33.4472 27.5423 33.4582C27.8852 33.4691 28.227 33.416 28.5473 33.3019C28.8676 33.1879 29.1599 33.0152 29.4067 32.7943C29.6535 32.5733 29.8498 32.3085 29.984 32.0157C30.1181 31.723 30.1873 31.4082 30.1875 31.0901V27.2634C32.2975 25.1386 33.4687 22.3561 33.4687 19.468C33.4687 16.58 32.2975 13.7974 30.1875 11.6727V7.50082ZM14.0316 27.5323C11.7835 25.8717 10.3169 23.4682 9.93992 20.8264C9.56292 18.1847 10.3048 15.5103 12.0098 13.3648C12.2819 14.2586 12.8684 15.0424 13.6762 15.5918C14.1414 15.9097 14.4062 16.4574 14.3843 17.0581L14.0316 27.5323ZM25.2295 29.0236C23.2549 29.8009 21.0734 30.0084 18.9696 29.619L18.4282 17.0561C18.4065 16.4573 18.6711 15.9095 19.1357 15.5916C19.495 15.3464 19.8136 15.0536 20.0812 14.7227C20.676 13.9848 20.9982 13.0887 21 12.1676V9.13605C22.0376 9.13193 23.0704 9.26566 24.0671 9.53317C23.7773 11.3213 23.6296 13.1268 23.625 14.935V21.2931C23.625 21.4545 23.6941 21.6092 23.8172 21.7233C23.9403 21.8374 24.1072 21.9015 24.2812 21.9015H25.7924L25.2295 29.0236ZM28.875 31.0901C28.8746 31.396 28.7434 31.6892 28.5101 31.9055C28.2767 32.1219 27.9604 32.2435 27.6304 32.2438C27.46 32.2439 27.2914 32.2114 27.135 32.1486C26.9787 32.0857 26.8379 31.9938 26.7215 31.8784C26.605 31.763 26.5154 31.6267 26.4581 31.478C26.4008 31.3292 26.3771 31.171 26.3885 31.0134L27.153 21.3377C27.1596 21.2543 27.1476 21.1705 27.1177 21.0916C27.0878 21.0127 27.0407 20.9403 26.9793 20.8791C26.9179 20.8178 26.8435 20.7689 26.7608 20.7355C26.6781 20.7021 26.5888 20.6848 26.4986 20.6848H24.9375V14.935C24.9379 12.3312 25.2454 9.73524 25.8546 7.19344C25.9361 6.85263 26.1505 6.55172 26.4567 6.34842C26.7628 6.14513 27.1391 6.05377 27.5134 6.09186C27.8878 6.12996 28.2337 6.29483 28.485 6.55484C28.7363 6.81486 28.8751 7.15173 28.875 7.50082V31.0901ZM32.1562 19.468C32.1573 21.5577 31.4705 23.5979 30.1875 25.316V13.6201C31.4705 15.3382 32.1573 17.3784 32.1562 19.468Z" fill="#041E42"/>
<path d="M14.4375 4.86707H15.75V11.5592H14.4375V4.86707Z" fill="#041E42"/>
<path d="M17.0625 4.86707H18.375V11.5592H17.0625V4.86707Z" fill="#041E42"/>
</svg>
