<svg width="36" height="44" viewBox="0 0 36 44" fill="none" xmlns="http://www.w3.org/2000/svg">
<g clip-path="url(#clip0)">
<path d="M34.148 19.5899L35.8752 17.0861C35.9693 16.9496 36.0129 16.7715 35.9956 16.5943L35.1933 8.3765C35.1689 8.12651 35.0276 7.91674 34.8315 7.83939C34.6354 7.76231 34.4205 7.83149 34.2811 8.01694L30.6481 12.8538L24.0086 13.6803C23.7189 13.7163 23.5079 14.0327 23.5374 14.3868C23.5669 14.7409 23.8262 14.9991 24.1154 14.9628L30.9544 14.1115C31.0829 14.0955 31.2021 14.0224 31.2894 13.9062L34.2819 9.922L34.9211 16.4692L33.3889 18.6904L30.2884 21.2466C30.1326 21.3752 30.0444 21.5953 30.0571 21.8246L30.2981 26.1647C30.3156 26.4797 30.5171 26.7328 30.7742 26.7627L32.9823 27.0196L34.1139 30.5409L33.5969 32.1692L32.0897 29.7111C31.9725 29.52 31.7786 29.4237 31.5854 29.4609L29.2961 29.9028C29.1074 29.9393 28.9496 30.0976 28.8835 30.3166L28.1417 32.7776L23.8604 33.8383C23.5749 33.9091 23.3905 34.2492 23.4484 34.5981C23.4991 34.9038 23.719 35.1147 23.9647 35.1147C23.9994 35.1147 24.0346 35.1105 24.07 35.1017L28.6397 33.9695C28.8189 33.925 28.9665 33.7704 29.0297 33.5606L29.7663 31.117L31.4362 30.7947L33.3227 33.8715C33.4376 34.0588 33.6265 34.1555 33.8164 34.1236C34.0063 34.0917 34.167 33.9366 34.2363 33.7183L35.1717 30.7727C35.2197 30.6218 35.2194 30.4545 35.1709 30.3038L33.8456 26.1798C33.7729 25.9538 33.6025 25.7969 33.4047 25.7739L31.3201 25.5313L31.13 22.1076L34.0396 19.7088C34.0803 19.6755 34.1167 19.6354 34.148 19.5899Z" fill="#041E42"/>
<path d="M21.5472 34.4116L19.7993 34.8447L15.6358 29.5057C15.5046 29.3375 15.3097 29.2685 15.1252 29.3254L12.1042 30.2559L10.7498 28.2184C10.6606 28.0844 10.5312 27.9996 10.3905 27.9832L5.32964 27.3941C5.18206 27.3769 5.03482 27.4367 4.92492 27.5589C4.81503 27.681 4.75231 27.8542 4.75231 28.0357V29.393L2.7503 31.8949L2.09414 28.3772L2.94394 25.6486C2.9952 25.4839 2.98915 25.3008 2.92706 25.1418C2.86505 24.9827 2.75241 24.8617 2.61544 24.8069L1.1554 24.2217L2.92924 15.3631L6.27767 12.8594L9.11878 14.4745C9.38288 14.6248 9.69647 14.4848 9.81931 14.162C9.94214 13.8392 9.82767 13.4559 9.56358 13.3058L6.4661 11.5449C6.306 11.4538 6.11911 11.4668 5.9685 11.5794L2.19349 14.4021C2.07481 14.4909 1.98959 14.6334 1.95647 14.7986L0.0147914 24.4949C-0.0507398 24.8221 0.100924 25.1557 0.362698 25.2606L1.76156 25.8213L1.05155 28.101C1.01449 28.2198 1.00711 28.3495 1.03024 28.4735L1.93685 33.3338C1.97974 33.5638 2.12206 33.7468 2.30775 33.8108C2.49345 33.8748 2.69299 33.8098 2.82799 33.6412L5.65667 30.1065C5.75307 29.9861 5.80699 29.8243 5.80699 29.6558V28.7446L10.0705 29.2409L11.4977 31.3877C11.627 31.5823 11.837 31.6675 12.0358 31.6063L15.0845 30.6673L19.2368 35.9918C19.3374 36.1207 19.4758 36.1916 19.6185 36.1916C19.6534 36.1916 19.6884 36.1874 19.7233 36.1788L21.7567 35.6751C22.0422 35.6043 22.2266 35.2642 22.1687 34.9153C22.111 34.5664 21.833 34.3406 21.5472 34.4116Z" fill="#041E42"/>
<path d="M22.0288 11.898C19.4403 11.898 18.1821 11.529 16.8501 11.1382C15.6063 10.7734 14.3229 10.397 11.9526 10.3482V9.61243C11.9526 9.25647 11.7165 8.9679 11.4252 8.9679C11.134 8.9679 10.8979 9.25647 10.8979 9.61243V24.5281C10.8979 24.884 11.134 25.1726 11.4252 25.1726C11.7165 25.1726 11.9526 24.884 11.9526 24.5281V21.3114C14.1913 21.3581 15.3657 21.7026 16.604 22.0659C17.937 22.4569 19.3155 22.8612 22.0288 22.8612C22.32 22.8612 22.5561 22.5727 22.5561 22.2167V12.5426C22.5561 12.1865 22.32 11.898 22.0288 11.898ZM16.604 12.3916C17.8478 12.7565 19.1312 13.1329 21.5014 13.1817V15.1448C19.2628 15.0982 18.0884 14.7536 16.8501 14.3904C15.6063 14.0255 14.3229 13.6491 11.9526 13.6004V11.6372C14.1913 11.684 15.3657 12.0284 16.604 12.3916ZM16.8501 20.8124C15.6063 20.4475 14.3229 20.0711 11.9526 20.0224V18.0675C14.1912 18.1141 15.3656 18.4587 16.6039 18.8218C16.7778 18.8729 16.9517 18.9238 17.1286 18.974C17.1687 18.9854 17.2088 18.9908 17.2482 18.9908C17.4881 18.9908 17.705 18.7895 17.7615 18.4917C17.8273 18.145 17.6507 17.7987 17.367 17.7182C17.1928 17.6688 17.0214 17.6185 16.8501 17.5683C15.6062 17.2035 14.3229 16.8271 11.9526 16.7782V14.8894C14.1913 14.9361 15.3658 15.2806 16.604 15.6439C17.8479 16.0088 19.1313 16.3852 21.5015 16.4339V18.3226C20.8309 18.3084 20.2214 18.2665 19.6507 18.1956C19.3603 18.1595 19.1022 18.4175 19.0726 18.7716C19.0432 19.1257 19.2542 19.442 19.5439 19.4781C20.1494 19.5533 20.7939 19.5975 21.5015 19.6119V21.5668C19.2627 21.5201 18.0884 21.1756 16.8501 20.8124Z" fill="#041E42"/>
</g>
<defs>
<clipPath id="clip0">
<rect width="36" height="44" fill="white"/>
</clipPath>
</defs>
</svg>
