<svg xmlns="http://www.w3.org/2000/svg" width="36" height="36" fill="none" viewBox="0 0 36 36"><g clip-path="url(#clip0)"><path fill="#041E42" d="M28.6879 0H7.31238C5.61068 0 4.22626 1.38443 4.22626 3.08612V4.94205C4.22626 5.23323 4.46233 5.4693 4.75351 5.4693C5.04469 5.4693 5.28076 5.23323 5.28076 4.94205V3.08612C5.28076 1.96588 6.19214 1.05451 7.31238 1.05451H28.6879C29.8082 1.05451 30.7195 1.96588 30.7195 3.08612V32.9139C30.7195 34.0341 29.8082 34.9455 28.6879 34.9455H7.31238C6.19214 34.9455 5.28076 34.0341 5.28076 32.9139V7.05106C5.28076 6.75988 5.04469 6.52381 4.75351 6.52381C4.46233 6.52381 4.22626 6.75988 4.22626 7.05106V32.9139C4.22626 34.6156 5.61068 36 7.31238 36H28.6879C30.3896 36 31.774 34.6156 31.774 32.9139V3.08612C31.774 1.38443 30.3896 0 28.6879 0Z"/><path fill="#041E42" d="M6.32611 4.31912V24.2407C6.32611 24.5319 6.56218 24.768 6.85336 24.768C7.14455 24.768 7.38062 24.5319 7.38062 24.2407V4.84638H28.6205V12.0771C28.6205 12.3682 28.8566 12.6043 29.1477 12.6043C29.4389 12.6043 29.675 12.3682 29.675 12.0771V4.31912C29.675 4.02794 29.4389 3.79187 29.1477 3.79187H6.85336C6.56211 3.79187 6.32611 4.02794 6.32611 4.31912Z"/><path fill="#041E42" d="M6.32611 30.3712C6.32611 30.6624 6.56218 30.8984 6.85336 30.8984H29.1477C29.4389 30.8984 29.675 30.6624 29.675 30.3712V14.1861C29.675 13.8949 29.4389 13.6588 29.1477 13.6588C28.8566 13.6588 28.6205 13.8949 28.6205 14.1861V29.8439H7.38062V26.3498C7.38062 26.0586 7.14455 25.8225 6.85336 25.8225C6.56218 25.8225 6.32611 26.0586 6.32611 26.3498V30.3712Z"/><path fill="#041E42" d="M16.3943 32.7971C16.3943 33.6829 17.1149 34.4034 18.0006 34.4034C18.8863 34.4034 19.6068 33.6829 19.6068 32.7971C19.6068 31.9115 18.8862 31.1909 18.0006 31.1909C17.1149 31.1909 16.3943 31.9115 16.3943 32.7971ZM18.5523 32.7971C18.5523 33.1014 18.3048 33.3489 18.0006 33.3489C17.6963 33.3489 17.4489 33.1014 17.4489 32.7971C17.4489 32.4929 17.6963 32.2454 18.0006 32.2454C18.3048 32.2454 18.5523 32.4929 18.5523 32.7971Z"/><path fill="#041E42" d="M20.2779 2.93976C20.5691 2.93976 20.8052 2.70369 20.8052 2.41251C20.8052 2.12132 20.5691 1.88525 20.2779 1.88525H17.8748C17.5836 1.88525 17.3475 2.12132 17.3475 2.41251C17.3475 2.70369 17.5836 2.93976 17.8748 2.93976H20.2779Z"/><path fill="#041E42" d="M15.8623 2.93756C16.1535 2.93756 16.3895 2.7015 16.3895 2.41031C16.3895 2.11912 16.1535 1.88306 15.8623 1.88306C15.5711 1.88306 15.335 2.11912 15.335 2.41031C15.335 2.7015 15.5711 2.93756 15.8623 2.93756Z"/></g><defs><clipPath id="clip0"><rect width="36" height="36" fill="#fff"/></clipPath></defs></svg>