<svg width="36" height="36" viewBox="0 0 36 36" fill="none" xmlns="http://www.w3.org/2000/svg">
<g clip-path="url(#clip0)">
<path d="M0.882543 22.4346C1.07997 22.5714 1.28827 22.6918 1.50534 22.7946C1.76514 22.9272 2.19954 23.1492 2.23014 23.3052C2.26833 23.5101 2.24387 23.7217 2.15994 23.9124C2.07054 24.1044 1.97634 24.2694 1.89594 24.4122C1.67574 24.7998 1.30854 25.4496 1.86294 25.9032C1.99254 26.0232 2.21634 26.1966 2.42094 26.3532C2.27059 26.6158 2.20246 26.9174 2.22534 27.219C2.25686 27.4551 2.38426 27.6678 2.57754 27.807C2.71254 27.903 2.85714 27.987 2.99754 28.068C3.35034 28.269 3.48834 28.3626 3.53754 28.548C3.56981 28.7921 3.54727 29.0403 3.47154 29.2746C3.43614 29.4306 3.40194 29.586 3.37974 29.7456C3.32027 30.2929 3.38973 30.8464 3.58254 31.362C3.85182 32.3175 4.71583 32.9832 5.70834 33C5.87307 32.9994 6.0373 32.9821 6.19854 32.9484C7.91263 32.5422 9.60168 32.0368 11.2571 31.4346C12.6083 32.2278 13.4627 34.6398 13.6853 35.5452C13.752 35.8126 13.9923 36.0002 14.2679 36L29.3279 35.958C29.5188 35.9577 29.6981 35.8665 29.8109 35.7125C29.9236 35.5585 29.9564 35.3601 29.8991 35.178C29.7508 34.7715 29.5462 34.3878 29.2913 34.038C29.1472 33.8311 29.0173 33.6146 28.9025 33.39C28.6312 32.8397 28.4047 32.2685 28.2251 31.6818C27.8829 30.5222 27.6453 29.3343 27.5153 28.1322C27.3047 26.3372 27.5769 24.5184 28.3037 22.8636C28.7473 21.9459 29.294 21.0817 29.9333 20.2878C30.2933 19.8018 30.6671 19.2984 31.0025 18.7698C31.5792 17.874 31.9973 16.8856 32.2385 15.8478C32.3076 15.5275 32.1068 15.211 31.7876 15.137C31.4684 15.0629 31.1488 15.2586 31.0697 15.5766C30.8588 16.4823 30.4935 17.3449 29.9897 18.1266C29.6783 18.6192 29.3183 19.104 28.9697 19.5732C28.2755 20.4395 27.683 21.3827 27.2039 22.3842C26.3914 24.2349 26.0877 26.2689 26.3243 28.2762C26.4627 29.5511 26.7159 30.8108 27.0809 32.04C27.2781 32.6855 27.5271 33.3139 27.8255 33.9192C27.9623 34.1897 28.1177 34.4503 28.2905 34.6992L28.3307 34.7592L14.7215 34.8C14.3227 33.3768 13.5996 32.0653 12.6089 30.9684L13.1489 30.7806C13.5521 30.6396 13.8563 30.5334 14.0135 30.4806C16.5827 29.6616 17.8679 28.4916 17.8325 27.0006C17.8309 26.8414 17.7648 26.6896 17.6494 26.5798C17.534 26.4701 17.3791 26.4117 17.2199 26.418C16.8888 26.4259 16.6266 26.7007 16.6343 27.0318C16.6487 27.6456 16.1429 28.5444 13.6487 29.3388C13.4855 29.391 13.1687 29.5008 12.7541 29.6466C12.3083 29.802 11.7431 30 11.1191 30.2118H11.1149C9.42758 30.8306 7.70591 31.3514 5.95854 31.7718C5.39969 31.8769 4.85643 31.5259 4.72254 30.9732C4.5935 30.6346 4.54283 30.2711 4.57434 29.91C4.59174 29.79 4.61994 29.664 4.64754 29.5416C4.77524 29.1228 4.79586 28.6787 4.70754 28.2498C4.53329 27.7004 4.12919 27.2536 3.59994 27.0252L3.47094 26.9514C3.53562 26.8201 3.6132 26.6954 3.70254 26.5794C3.80307 26.4517 3.8475 26.2887 3.82568 26.1277C3.80385 25.9667 3.71763 25.8214 3.58674 25.725C3.44334 25.6194 3.10674 25.365 2.85474 25.1646C2.88354 25.1124 2.91474 25.0548 2.94534 25.0032C3.03954 24.8376 3.14754 24.6432 3.25194 24.423C3.44209 24.0027 3.49783 23.534 3.41154 23.0808C3.26814 22.3488 2.56674 21.99 2.05494 21.7284C1.88252 21.6464 1.71715 21.5503 1.56054 21.441C1.43196 21.3549 1.31147 21.2573 1.20054 21.1494C1.20054 21.0582 1.29834 20.838 1.75494 20.2818C2.8286 18.8985 3.74898 17.4027 4.49994 15.8208C4.64091 15.5728 4.72034 15.2947 4.73154 15.0096C4.66871 14.4059 4.34773 13.8589 3.85134 13.5096C3.60834 13.2864 3.37854 13.0764 3.35274 12.8994C3.35824 12.7524 3.39121 12.6077 3.44994 12.4728C3.54774 12.216 3.66114 11.964 3.77394 11.7114C4.02696 11.1903 4.22793 10.6454 4.37394 10.0848C4.51144 9.41239 4.6918 8.74944 4.91394 8.10003C5.38686 6.79455 6.11917 5.59833 7.06674 4.58343C8.21394 3.36843 10.0199 2.50923 12.4439 2.02803C14.2981 1.62095 16.1795 1.34983 18.0731 1.21683C18.7103 1.18399 19.349 1.19763 19.9841 1.25763C20.1981 1.27756 20.4064 1.18185 20.5306 1.00655C20.6549 0.831251 20.6761 0.60299 20.5864 0.407753C20.4967 0.212516 20.3097 0.0799642 20.0957 0.0600288C19.4024 -0.00349838 18.7054 -0.0173337 18.0101 0.0186288C16.058 0.154082 14.1184 0.432427 12.2069 0.851429C9.50154 1.39143 7.53534 2.34003 6.19374 3.75843C5.13434 4.89094 4.31545 6.22643 3.78654 7.68423C3.54339 8.39365 3.34599 9.11794 3.19554 9.85263C3.06731 10.3238 2.89494 10.7818 2.68074 11.2206C2.56074 11.4936 2.43714 11.7666 2.32914 12.0504C2.19259 12.3677 2.13653 12.7137 2.16594 13.0578C2.29006 13.5934 2.60135 14.067 3.04374 14.3934C3.33774 14.6628 3.53154 14.8524 3.53394 15.018C3.5121 15.1091 3.47778 15.1967 3.43194 15.2784C2.71359 16.7914 1.83324 18.222 0.806343 19.545C0.371943 20.0748 -0.0840567 20.6922 0.0113433 21.3102C0.13911 21.7867 0.453037 22.1919 0.882543 22.4346Z" fill="#041E42"/>
<path d="M7.16311 8.93346C7.52444 7.93174 8.08444 7.01337 8.80951 6.23346C9.60931 5.38686 10.9923 4.76346 12.9207 4.38006C13.2458 4.3156 13.4571 3.99983 13.3926 3.67476C13.3282 3.34968 13.0124 3.1384 12.6873 3.20286C10.5099 3.63606 8.91211 4.37766 7.93771 5.40726C7.10045 6.30588 6.45385 7.36477 6.03691 8.52006C5.83493 9.11946 5.67041 9.73084 5.54431 10.3507L6.71611 10.6105C6.83112 10.0429 6.98039 9.48292 7.16311 8.93346Z" fill="#041E42"/>
<path d="M19.7151 3.36001L19.3551 5.15521C19.0081 5.26917 18.6703 5.40958 18.3447 5.57521L16.8213 4.55521C16.3453 4.24349 15.7158 4.30889 15.3141 4.71181L14.3181 5.70721C13.9073 6.11056 13.8408 6.74886 14.1597 7.22821L15.1749 8.74441C15.0093 9.06997 14.8689 9.40776 14.7549 9.75481L12.9621 10.1148C12.4019 10.228 11.9992 10.7205 11.9997 11.292V12.708C11.9993 13.2786 12.4007 13.7705 12.9597 13.8846L14.7549 14.2446C14.8689 14.5916 15.0093 14.9294 15.1749 15.255L14.1549 16.7784C13.8432 17.2544 13.9086 17.8839 14.3115 18.2856L15.3075 19.2816C15.7116 19.6906 16.3485 19.7567 16.8279 19.4394L18.3441 18.4242C18.6697 18.5898 19.0075 18.7302 19.3545 18.8442L19.7145 20.637C19.8274 21.1974 20.32 21.6004 20.8917 21.6H22.3077C22.8782 21.6004 23.3702 21.199 23.4843 20.64L23.8443 18.8448C24.1913 18.7308 24.5291 18.5904 24.8547 18.4248L26.3781 19.4448C26.8541 19.7565 27.4836 19.6911 27.8853 19.2882L28.8807 18.2928C29.2915 17.8895 29.358 17.2512 29.0391 16.7718L28.0239 15.2556C28.1895 14.93 28.3299 14.5922 28.4439 14.2452L30.2367 13.8852C30.5928 13.8132 30.8968 13.5831 31.0629 13.26L31.9671 13.866C32.1416 13.9759 32.3435 14.0344 32.5497 14.0346C32.8373 14.0347 33.1131 13.92 33.3159 13.716L34.1139 12.918C34.4768 12.5533 34.5351 11.9844 34.2537 11.5536L33.4797 10.3956C33.592 10.17 33.689 9.93703 33.7701 9.69841L35.1279 9.42781C35.6359 9.328 36.0016 8.88173 35.9997 8.36401V7.23601C36.0015 6.72022 35.6384 6.27513 35.1327 6.17341L33.7689 5.90161C33.6884 5.66292 33.5918 5.42998 33.4797 5.20441L34.2657 4.03261C34.5381 3.60343 34.4757 3.04266 34.1157 2.68381L33.3177 1.88581C32.9531 1.52269 32.384 1.46438 31.9533 1.74601L30.7953 2.52001C30.5696 2.40774 30.3367 2.31072 30.0981 2.22961L29.8269 0.871807C29.7271 0.364013 29.2812 -0.00164971 28.7637 6.81126e-06H27.6357C27.1199 -0.00181333 26.6748 0.361344 26.5731 0.867007L26.3013 2.23081C26.0626 2.31187 25.8296 2.40909 25.6041 2.52181L24.4323 1.73581C24.003 1.46391 23.4426 1.52624 23.0835 1.88581L22.5435 2.42581C22.4659 2.40963 22.3869 2.40099 22.3077 2.40001H20.8917C20.3211 2.39961 19.8292 2.80099 19.7151 3.36001ZM28.8879 5.71201L28.6077 5.43181C29.6477 5.57102 30.4749 6.37294 30.6463 7.40811C30.8177 8.44327 30.2931 9.46901 29.3535 9.93601L28.4427 9.75601C28.3287 9.40896 28.1883 9.07117 28.0227 8.74561L29.0427 7.22221C29.3555 6.74637 29.2909 6.11618 28.8879 5.71381V5.71201ZM23.8659 2.79841L25.2375 3.72001C25.4298 3.84899 25.6792 3.85576 25.8783 3.73741C26.2218 3.53527 26.5912 3.38085 26.9763 3.27841C27.1964 3.21897 27.3638 3.03997 27.4083 2.81641L27.7305 1.20001H28.6689L28.9911 2.82001C29.0356 3.04357 29.203 3.22257 29.4231 3.28201C29.8082 3.38445 30.1776 3.53887 30.5211 3.74101C30.7208 3.85828 30.9703 3.85011 31.1619 3.72001L32.5335 2.79961L33.1995 3.46561L32.2797 4.83781C32.1507 5.03015 32.1439 5.27955 32.2623 5.47861C32.4644 5.82207 32.6189 6.19146 32.7213 6.57661C32.7807 6.79668 32.9597 6.96406 33.1833 7.00861L34.8033 7.33081V8.26921L33.1863 8.59141C32.9627 8.63595 32.7837 8.80334 32.7243 9.02341C32.6219 9.40855 32.4674 9.77794 32.2653 10.1214C32.1469 10.3205 32.1537 10.5699 32.2827 10.7622L33.2031 12.1338L32.5371 12.7998L31.1997 11.9052V11.292C31.1998 10.9407 31.0463 10.6069 30.7797 10.3782C31.836 9.36061 32.1674 7.80294 31.6169 6.44345C31.0663 5.08396 29.7444 4.19584 28.2777 4.20001C27.9149 4.20229 27.5548 4.2614 27.2103 4.37521C26.9171 4.33249 26.6185 4.3982 26.3703 4.56001L24.8553 5.57521C24.5297 5.40958 24.1919 5.26917 23.8449 5.15521L23.4849 3.36241C23.4743 3.31433 23.4604 3.26703 23.4435 3.22081L23.8659 2.79841ZM20.4597 5.74621L20.8917 3.60001H22.3077L22.7391 5.74801C22.7839 5.97095 22.951 6.14937 23.1705 6.20881C23.6662 6.34245 24.1424 6.54011 24.5871 6.79681C24.7852 6.91174 25.0315 6.90382 25.2219 6.77641L27.0375 5.56201L28.0431 6.56221L26.8251 8.37961C26.6977 8.56996 26.6898 8.81626 26.8047 9.01441C27.0614 9.45906 27.2591 9.93527 27.3927 10.431C27.4521 10.6505 27.6306 10.8176 27.8535 10.8624L29.9997 11.2914V12.708L27.8517 13.1394C27.6288 13.1843 27.4503 13.3513 27.3909 13.5708C27.2573 14.0665 27.0596 14.5427 26.8029 14.9874C26.688 15.1856 26.6959 15.4318 26.8233 15.6222L28.0377 17.4378L27.0375 18.4434L25.2201 17.2254C25.0297 17.098 24.7834 17.0901 24.5853 17.205C24.1406 17.4617 23.6644 17.6594 23.1687 17.793C22.9492 17.8524 22.7822 18.0309 22.7373 18.2538L22.3077 20.4H20.8917L20.4603 18.252C20.4154 18.0291 20.2484 17.8506 20.0289 17.7912C19.5332 17.6576 19.057 17.4599 18.6123 17.2032C18.4142 17.0883 18.1679 17.0962 17.9775 17.2236L16.1619 18.438L15.1563 17.4378L16.3743 15.6204C16.5017 15.43 16.5096 15.1838 16.3947 14.9856C16.138 14.5409 15.9403 14.0647 15.8067 13.569C15.7473 13.3495 15.5688 13.1825 15.3459 13.1376L13.1997 12.708V11.292L15.3477 10.8606C15.5706 10.8158 15.7491 10.6487 15.8085 10.4292C15.9421 9.93347 16.1398 9.45726 16.3965 9.01261C16.5114 8.81446 16.5035 8.56816 16.3761 8.37781L15.1617 6.56221L16.1619 5.55661L17.9793 6.77461C18.1697 6.90203 18.4159 6.90994 18.6141 6.79501C19.0588 6.53831 19.535 6.34065 20.0307 6.20701C20.2493 6.14679 20.4152 5.96852 20.4597 5.74621Z" fill="#041E42"/>
<path d="M21.5999 16.2C23.9195 16.2 25.7999 14.3196 25.7999 12C25.7999 9.68045 23.9195 7.80005 21.5999 7.80005C19.2803 7.80005 17.3999 9.68045 17.3999 12C17.4025 14.3185 19.2814 16.1974 21.5999 16.2ZM21.5999 9.00005C23.2567 9.00005 24.5999 10.3432 24.5999 12C24.5999 13.6569 23.2567 15 21.5999 15C19.943 15 18.5999 13.6569 18.5999 12C18.6019 10.344 19.9438 9.00203 21.5999 9.00005Z" fill="#041E42"/>
<path d="M21.5997 12.6C21.9311 12.6 22.1997 12.3314 22.1997 12C22.1997 11.6687 21.9311 11.4 21.5997 11.4C21.2684 11.4 20.9997 11.6687 20.9997 12C20.9997 12.3314 21.2684 12.6 21.5997 12.6Z" fill="#041E42"/>
<path d="M5.40005 13.2C5.73142 13.2 6.00005 12.9314 6.00005 12.6C6.00005 12.2686 5.73142 12 5.40005 12C5.06868 12 4.80005 12.2686 4.80005 12.6C4.80005 12.9314 5.06868 13.2 5.40005 13.2Z" fill="#041E42"/>
</g>
<defs>
<clipPath id="clip0">
<rect width="36" height="36" fill="white"/>
</clipPath>
</defs>
</svg>
