<svg width="36" height="36" viewBox="0 0 36 36" fill="none" xmlns="http://www.w3.org/2000/svg">
<path d="M34.3125 2.25H1.6875C1.53832 2.25 1.39524 2.30926 1.28975 2.41475C1.18426 2.52024 1.125 2.66332 1.125 2.8125V21.9375C1.125 22.0867 1.18426 22.2298 1.28975 22.3352C1.39524 22.4407 1.53832 22.5 1.6875 22.5H10.6875V29.2816C10.6817 29.2791 10.6763 29.276 10.6704 29.2736L9.07031 28.5877C9.39153 28.1206 9.56318 27.5669 9.5625 27V26.4375C9.5625 25.6916 9.26618 24.9762 8.73874 24.4488C8.21129 23.9213 7.49592 23.625 6.75 23.625C6.00408 23.625 5.28871 23.9213 4.76126 24.4488C4.23382 24.9762 3.9375 25.6916 3.9375 26.4375V27C3.93693 27.5669 4.1087 28.1206 4.43004 28.5877L2.82959 29.2736C2.32343 29.49 1.89203 29.8504 1.58898 30.31C1.28593 30.7696 1.12459 31.3081 1.125 31.8586V34.3125C1.125 34.4617 1.18426 34.6048 1.28975 34.7102C1.39524 34.8157 1.53832 34.875 1.6875 34.875H32.0625C32.2117 34.875 32.3548 34.8157 32.4602 34.7102C32.5657 34.6048 32.625 34.4617 32.625 34.3125V31.8586C32.6254 31.3081 32.4641 30.7696 32.161 30.31C31.858 29.8504 31.4266 29.49 30.9204 29.2735L29.3203 28.5877C29.6415 28.1206 29.8132 27.5669 29.8125 27V26.4375C29.8125 25.6916 29.5162 24.9762 28.9887 24.4488C28.4613 23.9213 27.7459 23.625 27 23.625C26.2541 23.625 25.5387 23.9213 25.0113 24.4488C24.4838 24.9762 24.1875 25.6916 24.1875 26.4375V27C24.1868 27.5669 24.3585 28.1206 24.6797 28.5877L23.0792 29.2736C22.6265 29.4676 22.2327 29.7774 21.9375 30.1717C21.6422 29.7773 21.2483 29.4676 20.7954 29.2736L19.1953 28.5877C19.5165 28.1206 19.6882 27.5669 19.6875 27V26.4375C19.6875 26.0011 19.5858 25.5707 19.3905 25.1804C19.1952 24.7901 18.9117 24.4507 18.5625 24.189V22.5H34.3125C34.4617 22.5 34.6048 22.4407 34.7102 22.3352C34.8157 22.2298 34.875 22.0867 34.875 21.9375V2.8125C34.875 2.66332 34.8157 2.52024 34.7102 2.41475C34.6048 2.30926 34.4617 2.25 34.3125 2.25ZM25.3125 26.4375C25.3125 25.9899 25.4903 25.5607 25.8068 25.2443C26.1232 24.9278 26.5524 24.75 27 24.75C27.4476 24.75 27.8768 24.9278 28.1932 25.2443C28.5097 25.5607 28.6875 25.9899 28.6875 26.4375V27C28.6875 27.4476 28.5097 27.8768 28.1932 28.1932C27.8768 28.5097 27.4476 28.6875 27 28.6875C26.5524 28.6875 26.1232 28.5097 25.8068 28.1932C25.4903 27.8768 25.3125 27.4476 25.3125 27V26.4375ZM22.5 31.8586C22.4998 31.5283 22.5966 31.2052 22.7784 30.9294C22.9602 30.6537 23.2191 30.4374 23.5228 30.3075L25.5797 29.4258C26.0102 29.6789 26.5006 29.8123 27 29.8123C27.4994 29.8123 27.9898 29.6789 28.4203 29.4258L30.4772 30.3074C30.781 30.4373 31.0398 30.6536 31.2216 30.9293C31.4035 31.2051 31.5003 31.5283 31.5 31.8586V33.75H30.375V32.0625C30.375 31.9133 30.3157 31.7702 30.2102 31.6648C30.1048 31.5593 29.9617 31.5 29.8125 31.5C29.6633 31.5 29.5202 31.5593 29.4148 31.6648C29.3093 31.7702 29.25 31.9133 29.25 32.0625V33.75H24.75V32.0625C24.75 31.9133 24.6907 31.7702 24.5852 31.6648C24.4798 31.5593 24.3367 31.5 24.1875 31.5C24.0383 31.5 23.8952 31.5593 23.7898 31.6648C23.6843 31.7702 23.625 31.9133 23.625 32.0625V33.75H22.5V31.8586ZM2.25 21.375V20.25H7.87943C7.9026 20.6493 8.02624 21.0362 8.23887 21.375H2.25ZM10.2656 21.375C9.93008 21.3746 9.60839 21.2411 9.37113 21.0039C9.13386 20.7666 9.00039 20.4449 9 20.1094V17.751H10.6875V19.125C10.6875 19.2742 10.7468 19.4173 10.8523 19.5227C10.9577 19.6282 11.1008 19.6875 11.25 19.6875H14.0625V21.375H10.2656ZM14.2348 7.3125H16.3125C16.4617 7.3125 16.6048 7.37176 16.7102 7.47725C16.8157 7.58274 16.875 7.72582 16.875 7.875C16.875 8.02418 16.8157 8.16726 16.7102 8.27275C16.6048 8.37824 16.4617 8.4375 16.3125 8.4375H14.0625C13.9699 8.4375 13.8787 8.46036 13.7971 8.50405C13.7155 8.54774 13.6459 8.61091 13.5945 8.68795L12.9375 9.6731C12.7957 9.44916 12.714 9.1924 12.7005 8.92767C12.6869 8.66295 12.7419 8.3992 12.8602 8.16195C12.987 7.90605 13.1831 7.69083 13.4261 7.54069C13.669 7.39055 13.9492 7.3115 14.2348 7.3125ZM15.75 9.5625V11.3906C15.7499 11.5025 15.7054 11.6097 15.6263 11.6888C15.5472 11.7679 15.44 11.8124 15.3281 11.8125H15.1875C15.0383 11.8125 14.8952 11.8718 14.7898 11.9773C14.6843 12.0827 14.625 12.2258 14.625 12.375V12.9375H13.5V10.8578L14.3635 9.5625H15.75ZM18 14.0625C18.1188 14.0624 18.2344 14.0248 18.3305 13.9549L19.0547 13.4283L20.2861 14.7368L19.5424 15.3743C19.4899 15.3155 19.4256 15.2686 19.3536 15.2364C19.2817 15.2042 19.2038 15.1875 19.125 15.1875H13.5C13.3508 15.1875 13.2077 15.2468 13.1023 15.3523C12.9968 15.4577 12.9375 15.6008 12.9375 15.75V18.5625H11.8125V17.1885C11.8125 17.0393 11.7532 16.8962 11.6477 16.7907C11.5423 16.6852 11.3992 16.626 11.25 16.626H9V15.8906C9.00054 15.4059 9.19332 14.9413 9.53604 14.5985C9.87877 14.2558 10.3434 14.063 10.8281 14.0625H18ZM27.5625 8.76705L26.1562 10.1733L25.5455 9.5625L26.8353 8.27276C26.8875 8.22052 26.9289 8.15851 26.9572 8.09026C26.9855 8.02202 27 7.94887 27 7.875C27 7.80113 26.9855 7.72798 26.9572 7.65974C26.9289 7.59149 26.8875 7.52948 26.8353 7.47724C26.783 7.42501 26.721 7.38357 26.6528 7.3553C26.5845 7.32704 26.5114 7.31249 26.4375 7.31249C26.3636 7.31249 26.2905 7.32704 26.2222 7.3553C26.154 7.38357 26.092 7.42501 26.0397 7.47724L24.7597 8.75693C24.8151 8.0036 25.1213 7.29055 25.6293 6.73153C26.1373 6.17252 26.8179 5.79976 27.5625 5.67274V8.76705ZM28.5228 9.39776C28.575 9.34552 28.6164 9.28351 28.6447 9.21526C28.673 9.14702 28.6875 9.07387 28.6875 9V5.67274C29.5212 5.81448 30.2714 6.26407 30.7894 6.93251C31.3075 7.60095 31.5557 8.43953 31.485 9.28226C31.4143 10.125 31.0298 10.9105 30.4075 11.4832C29.7853 12.0559 28.9707 12.3742 28.125 12.375C27.4239 12.3769 26.74 12.1586 26.1697 11.7508L28.5228 9.39776ZM25.0477 10.6557L21.1416 14.0039L19.9722 12.7612L24.1296 9.73779L25.0477 10.6557ZM17.4375 23.6816C17.2557 23.6445 11.8125 23.625 11.8125 23.625V22.5H14.625C14.7742 22.5 14.9173 22.4407 15.0227 22.3352C15.1282 22.2298 15.1875 22.0867 15.1875 21.9375V20.8125H17.4375V23.6816ZM18.5625 26.4375V27C18.5625 27.4476 18.3847 27.8768 18.0682 28.1932C17.7518 28.5097 17.3226 28.6875 16.875 28.6875C16.4274 28.6875 15.9982 28.5097 15.6818 28.1932C15.3653 27.8768 15.1875 27.4476 15.1875 27V26.4375C15.1875 25.9899 15.3653 25.5607 15.6818 25.2443C15.9982 24.9278 16.4274 24.75 16.875 24.75C17.3226 24.75 17.7518 24.9278 18.0682 25.2443C18.3847 25.5607 18.5625 25.9899 18.5625 26.4375ZM15.75 19.6875H15.1875V19.125C15.1875 18.9758 15.1282 18.8327 15.0227 18.7273C14.9173 18.6218 14.7742 18.5625 14.625 18.5625H14.0625V16.3125H15.75V19.6875ZM5.0625 26.4375C5.0625 25.9899 5.24029 25.5607 5.55676 25.2443C5.87323 24.9278 6.30245 24.75 6.75 24.75C7.19755 24.75 7.62678 24.9278 7.94324 25.2443C8.25971 25.5607 8.4375 25.9899 8.4375 26.4375V27C8.4375 27.4476 8.25971 27.8768 7.94324 28.1932C7.62678 28.5097 7.19755 28.6875 6.75 28.6875C6.30245 28.6875 5.87323 28.5097 5.55676 28.1932C5.24029 27.8768 5.0625 27.4476 5.0625 27V26.4375ZM11.25 33.75H10.125V32.0625C10.125 31.9133 10.0657 31.7702 9.96025 31.6648C9.85476 31.5593 9.71169 31.5 9.5625 31.5C9.41332 31.5 9.27024 31.5593 9.16475 31.6648C9.05926 31.7702 9 31.9133 9 32.0625V33.75H4.5V32.0625C4.5 31.9133 4.44074 31.7702 4.33525 31.6648C4.22976 31.5593 4.08669 31.5 3.9375 31.5C3.78832 31.5 3.64524 31.5593 3.53975 31.6648C3.43426 31.7702 3.375 31.9133 3.375 32.0625V33.75H2.25V31.8586C2.24976 31.5283 2.34656 31.2052 2.5284 30.9294C2.71023 30.6537 2.96907 30.4374 3.27277 30.3075L5.32969 29.4258C5.76024 29.6788 6.25059 29.8123 6.75 29.8123C7.24941 29.8123 7.73976 29.6788 8.17031 29.4258L10.2272 30.3073C10.531 30.4372 10.7898 30.6535 10.9717 30.9293C11.1535 31.2051 11.2503 31.5282 11.25 31.8586V33.75ZM11.8125 30.1717L11.8097 30.1677C11.8115 30.1493 11.8125 30.1305 11.8125 30.1115V24.75H14.6265C14.2599 25.2361 14.0619 25.8286 14.0625 26.4375V27C14.0618 27.5669 14.2335 28.1206 14.5547 28.5877L12.9542 29.2736C12.5015 29.4676 12.1077 29.7774 11.8125 30.1717ZM20.3522 30.3076C20.6559 30.4375 20.9148 30.6537 21.0966 30.9295C21.2784 31.2052 21.3752 31.5283 21.375 31.8586V33.75H20.25V32.0625C20.25 31.9133 20.1907 31.7702 20.0852 31.6648C19.9798 31.5593 19.8367 31.5 19.6875 31.5C19.5383 31.5 19.3952 31.5593 19.2898 31.6648C19.1843 31.7702 19.125 31.9133 19.125 32.0625V33.75H14.625V32.0625C14.625 31.9133 14.5657 31.7702 14.4602 31.6648C14.3548 31.5593 14.2117 31.5 14.0625 31.5C13.9133 31.5 13.7702 31.5593 13.6648 31.6648C13.5593 31.7702 13.5 31.9133 13.5 32.0625V33.75H12.375V31.8586C12.3748 31.5283 12.4716 31.2052 12.6534 30.9294C12.8352 30.6537 13.0941 30.4374 13.3978 30.3075L15.4547 29.4258C15.8852 29.6789 16.3756 29.8123 16.875 29.8123C17.3744 29.8123 17.8648 29.6789 18.2953 29.4258L20.3522 30.3076ZM16.875 19.6875V16.3125H18.5625V19.6875H16.875ZM33.75 21.375H18.5625V20.8125H19.125C19.2742 20.8125 19.4173 20.7532 19.5227 20.6477C19.6282 20.5423 19.6875 20.3992 19.6875 20.25H33.75V21.375ZM33.75 19.125H19.6875V16.7319L24.9382 12.2314C24.9872 12.2756 25.0437 12.3108 25.1051 12.3353C25.8603 13.0193 26.8253 13.4267 27.8422 13.491C28.8591 13.5552 29.8677 13.2725 30.703 12.6889C31.5383 12.1054 32.1508 11.2557 32.4404 10.2788C32.73 9.30183 32.6794 8.25556 32.297 7.31111C31.9146 6.36666 31.223 5.57994 30.3353 5.07967C29.4477 4.57939 28.4165 4.39518 27.4105 4.55716C26.4046 4.71915 25.4833 5.21774 24.7976 5.97138C24.1118 6.72501 23.7021 7.68906 23.6355 8.70581L17.8172 12.9375H15.75V12.879C16.0737 12.7868 16.3586 12.5917 16.5616 12.3231C16.7646 12.0546 16.8746 11.7272 16.875 11.3906V9.46575C17.2501 9.33294 17.5663 9.07182 17.7676 8.72853C17.9688 8.38523 18.0423 7.98184 17.975 7.58962C17.9077 7.1974 17.704 6.84158 17.3998 6.58502C17.0955 6.32846 16.7105 6.18766 16.3125 6.1875H14.2348C13.7402 6.18583 13.255 6.32278 12.8342 6.58283C12.4134 6.84288 12.0739 7.21562 11.8542 7.65879C11.6449 8.07864 11.5501 8.54624 11.5792 9.01444C11.6084 9.48264 11.7605 9.93488 12.0202 10.3255L12.375 10.8578V12.9375H10.8281C10.0452 12.9384 9.29455 13.2498 8.74092 13.8034C8.18729 14.357 7.87587 15.1077 7.875 15.8906V19.125H2.25V3.375H33.75V19.125Z" fill="#041E42"/>
<path d="M25.875 15.75H26.4375C26.5867 15.75 26.7298 15.6907 26.8352 15.5852C26.9407 15.4798 27 15.3367 27 15.1875C27 15.0383 26.9407 14.8952 26.8352 14.7898C26.7298 14.6843 26.5867 14.625 26.4375 14.625H25.875C25.7258 14.625 25.5827 14.6843 25.4773 14.7898C25.3718 14.8952 25.3125 15.0383 25.3125 15.1875C25.3125 15.3367 25.3718 15.4798 25.4773 15.5852C25.5827 15.6907 25.7258 15.75 25.875 15.75Z" fill="#041E42"/>
<path d="M31.5 14.625H28.6875C28.5383 14.625 28.3952 14.6843 28.2898 14.7898C28.1843 14.8952 28.125 15.0383 28.125 15.1875C28.125 15.3367 28.1843 15.4798 28.2898 15.5852C28.3952 15.6907 28.5383 15.75 28.6875 15.75H31.5C31.6492 15.75 31.7923 15.6907 31.8977 15.5852C32.0032 15.4798 32.0625 15.3367 32.0625 15.1875C32.0625 15.0383 32.0032 14.8952 31.8977 14.7898C31.7923 14.6843 31.6492 14.625 31.5 14.625Z" fill="#041E42"/>
<path d="M30.375 16.875H25.875C25.7258 16.875 25.5827 16.9343 25.4773 17.0398C25.3718 17.1452 25.3125 17.2883 25.3125 17.4375C25.3125 17.5867 25.3718 17.7298 25.4773 17.8352C25.5827 17.9407 25.7258 18 25.875 18H30.375C30.5242 18 30.6673 17.9407 30.7727 17.8352C30.8782 17.7298 30.9375 17.5867 30.9375 17.4375C30.9375 17.2883 30.8782 17.1452 30.7727 17.0398C30.6673 16.9343 30.5242 16.875 30.375 16.875Z" fill="#041E42"/>
</svg>
