<svg width="36" height="36" viewBox="0 0 36 36" fill="none" xmlns="http://www.w3.org/2000/svg">
<path d="M29.3932 7.03125e-05H29.3924H25.2555H25.1137C24.8264 7.03125e-05 24.5538 0.109477 24.3461 0.30818L18.1219 6.26393C18.0536 6.32939 17.9466 6.32932 17.8782 6.26393L11.6539 0.308039C11.4462 0.109406 11.1737 0 10.8863 0H10.7448H6.60782H6.60677L6.60684 7.03125e-05C6.03351 0.000632813 5.5672 0.467227 5.5672 1.0407V9.83637C5.5672 10.2608 5.38249 10.663 5.06045 10.9395L4.80424 11.1596C4.24799 11.6373 3.92899 12.3318 3.92899 13.065V14.5948C3.92892 14.8868 4.16566 15.1236 4.45774 15.1236C4.74974 15.1236 4.98656 14.8868 4.98656 14.5948V13.065C4.98656 12.6405 5.17127 12.2385 5.4933 11.9618L5.74952 11.7418C6.30576 11.2641 6.62477 10.5695 6.62477 9.83637V1.05757H7.68304L17.1351 10.3457C17.3736 10.58 17.6867 10.6971 17.9999 10.6971C18.313 10.6971 18.6263 10.58 18.8646 10.3457L28.3169 1.05757H29.3754V3.63122C29.3754 3.9233 29.6122 4.16004 29.9043 4.16004C30.1963 4.16004 30.4331 3.9233 30.4331 3.63122V1.0407C30.4331 0.467156 29.9666 0.000492188 29.3932 7.03125e-05ZM18.1233 9.59133C18.0553 9.65834 17.9444 9.65827 17.8763 9.59133L9.19195 1.05757H10.7449C10.8498 1.05757 10.9492 1.09751 11.025 1.17007L17.1471 7.02809C17.6254 7.48568 18.3748 7.48575 18.8532 7.02809L24.9753 1.17C25.0511 1.09751 25.1506 1.05757 25.2554 1.05757H26.808L18.1233 9.59133Z" fill="#041E42"/>
<path d="M31.1959 11.1596L30.9397 10.9395C30.6177 10.6629 30.433 10.2608 30.433 9.83635V6.94496C30.433 6.65295 30.1962 6.41614 29.9042 6.41614C29.6121 6.41614 29.3753 6.65288 29.3753 6.94496V9.83635C29.3753 10.5696 29.6943 11.264 30.2506 11.7417L30.5068 11.9618C30.8288 12.2384 31.0135 12.6405 31.0135 13.065V32.0095H29.4218H6.57834H4.98653V17.9437C4.98653 17.6517 4.74979 17.4149 4.45771 17.4149C4.16564 17.4149 3.92889 17.6517 3.92889 17.9437V32.1857C3.92889 32.6717 4.32426 33.067 4.81019 33.067H6.04945V35.1187C6.04945 35.6046 6.44482 36 6.93075 36H29.0693C29.5553 36 29.9506 35.6046 29.9506 35.1187V33.067H31.1899C31.6758 33.067 32.0712 32.6717 32.0712 32.1857V13.065C32.0712 12.3318 31.7522 11.6373 31.1959 11.1596ZM26.7075 34.9424V34.2773C26.7075 33.9853 26.4707 33.7485 26.1786 33.7485C25.8866 33.7485 25.6498 33.9852 25.6498 34.2773V34.9423H23.9812V34.2773C23.9812 33.9853 23.7445 33.7485 23.4524 33.7485C23.1604 33.7485 22.9236 33.9852 22.9236 34.2773V34.9423H21.2549V34.2773C21.2549 33.9853 21.0182 33.7485 20.7261 33.7485C20.434 33.7485 20.1973 33.9852 20.1973 34.2773V34.9423H18.5287V34.2773C18.5287 33.9853 18.292 33.7485 17.9999 33.7485C17.7078 33.7485 17.4711 33.9852 17.4711 34.2773V34.9423H15.8025V34.2773C15.8025 33.9853 15.5658 33.7485 15.2737 33.7485C14.9816 33.7485 14.7449 33.9852 14.7449 34.2773V34.9423H13.0762V34.2773C13.0762 33.9853 12.8395 33.7485 12.5474 33.7485C12.2554 33.7485 12.0186 33.9852 12.0186 34.2773V34.9423H10.35V34.2773C10.35 33.9853 10.1132 33.7485 9.82115 33.7485C9.52914 33.7485 9.29233 33.9852 9.29233 34.2773V34.9423H7.10667V33.067H28.8927V34.9424H26.7075Z" fill="#041E42"/>
<path d="M27.4635 11.6097H22.4381C22.0042 11.6097 21.6512 11.9628 21.6512 12.3966V15.173C21.6512 16.3406 22.2775 17.4322 23.2856 18.0215C23.7992 18.3217 24.3749 18.4718 24.9508 18.4718C25.5266 18.4718 26.1024 18.3217 26.616 18.0215C27.6241 17.4322 28.2504 16.3406 28.2504 15.173V12.3966C28.2503 11.9627 27.8972 11.6097 27.4635 11.6097ZM26.0821 17.1085C25.3842 17.5165 24.5171 17.5164 23.8192 17.1085C23.1342 16.708 22.7087 15.9664 22.7087 15.173V12.6673H27.1926V15.173H27.1926C27.1926 15.9664 26.7671 16.708 26.0821 17.1085Z" fill="#041E42"/>
</svg>
