<svg xmlns="http://www.w3.org/2000/svg" width="35" height="35" fill="none" viewBox="0 0 35 35"><path fill="#041E42" d="M34.3966 16.3776H26.6784V14.8871C26.6781 14.6694 26.5605 14.4688 26.3707 14.3621L18.1034 9.71555V7.35003H19.7388V8.24917C19.7388 8.58242 20.009 8.85262 20.3422 8.85262H25.2724C25.6057 8.85247 25.8757 8.5822 25.8756 8.24894C25.8756 8.17909 25.8634 8.10977 25.8397 8.044L25.3448 6.63796L25.8457 5.2621C25.959 4.94868 25.7968 4.60276 25.4834 4.48946C25.4177 4.4657 25.3484 4.45355 25.2784 4.45348H23.0336V3.57848C23.0336 3.24522 22.7634 2.97503 22.4302 2.97503H18.1034V2.23882C18.1034 1.90557 17.8333 1.63538 17.5 1.63538C17.1667 1.63538 16.8966 1.90557 16.8966 2.23882V9.71555L8.62931 14.3561C8.43953 14.4627 8.32193 14.6634 8.32155 14.8811V16.3716H0.603448C0.270194 16.3716 0 16.6418 0 16.975V32.7612C0 33.0945 0.270194 33.3647 0.603448 33.3647H34.3966C34.7298 33.3647 35 33.0945 35 32.7612V16.9811C35 16.6478 34.7298 16.3776 34.3966 16.3776ZM23.0336 6.74658L23.0095 6.72244V5.68451H24.3853L24.1379 6.45693C24.0885 6.59134 24.0885 6.73889 24.1379 6.87331L24.4216 7.64572H20.9457V7.35003H22.4302C22.7634 7.35003 23.0336 7.07984 23.0336 6.74658ZM18.1034 4.18193H21.8267V5.08106V6.14313H18.1034V4.18193ZM8.32155 32.1578H1.2069V17.5845H8.32155V32.1578ZM16.8966 32.1578H13.7284V25.2664H16.8966V32.1578ZM21.2716 32.1578H18.1034V25.2664H21.2716V32.1578ZM25.4957 32.1578H22.4784V24.663C22.4784 24.3297 22.2083 24.0595 21.875 24.0595H13.125C12.7917 24.0595 12.5216 24.3297 12.5216 24.663V32.1578H9.50431V15.2612L17.5 10.7595L25.4716 15.2371L25.4957 16.975V32.1578ZM33.7931 32.1578H26.6784V17.5845H33.7931V32.1578Z"/><path fill="#041E42" d="M17.4998 12.6061C16.1024 12.6094 14.9714 13.7431 14.9714 15.1406C14.9747 16.537 16.1094 17.6663 17.5059 17.663C18.9023 17.6597 20.0316 16.5249 20.0283 15.1285C20.025 13.7345 18.8939 12.6061 17.4998 12.6061ZM17.4998 16.4561C16.77 16.4528 16.181 15.8584 16.1843 15.1285C16.1876 14.4034 16.7746 13.8163 17.4998 13.813C18.2307 13.8163 18.8214 14.4097 18.8214 15.1406H18.8274C18.8241 15.8704 18.2297 16.4594 17.4998 16.4561Z"/><path fill="#041E42" d="M3.86821 18.9121H2.66132V21.3259H3.86821V18.9121Z"/><path fill="#041E42" d="M6.84294 18.9121H5.63605V21.3259H6.84294V18.9121Z"/><path fill="#041E42" d="M13.7525 18.9121H11.3387V20.119H13.7525V18.9121Z"/><path fill="#041E42" d="M18.7069 18.9121H16.2932V20.119H18.7069V18.9121Z"/><path fill="#041E42" d="M23.6611 18.9121H21.2473V20.119H23.6611V18.9121Z"/><path fill="#041E42" d="M13.7525 21.7241H11.3387V22.931H13.7525V21.7241Z"/><path fill="#041E42" d="M18.7069 21.7241H16.2932V22.931H18.7069V21.7241Z"/><path fill="#041E42" d="M23.6611 21.7241H21.2473V22.931H23.6611V21.7241Z"/><path fill="#041E42" d="M3.86821 23.6613H2.66132V26.075H3.86821V23.6613Z"/><path fill="#041E42" d="M6.84294 23.6613H5.63605V26.075H6.84294V23.6613Z"/><path fill="#041E42" d="M3.86821 28.4164H2.66132V30.8302H3.86821V28.4164Z"/><path fill="#041E42" d="M6.84294 28.4164H5.63605V30.8302H6.84294V28.4164Z"/><path fill="#041E42" d="M29.3636 18.9121H28.1567V21.3259H29.3636V18.9121Z"/><path fill="#041E42" d="M32.3389 18.9121H31.132V21.3259H32.3389V18.9121Z"/><path fill="#041E42" d="M29.3636 23.6613H28.1567V26.075H29.3636V23.6613Z"/><path fill="#041E42" d="M32.3389 23.6613H31.132V26.075H32.3389V23.6613Z"/><path fill="#041E42" d="M29.3636 28.4164H28.1567V30.8302H29.3636V28.4164Z"/><path fill="#041E42" d="M32.3389 28.4164H31.132V30.8302H32.3389V28.4164Z"/></svg>